<svg id="alarm" xmlns="http://www.w3.org/2000/svg" width="35.078" height="32.155" viewBox="0 0 35.078 32.155">
  <g id="Grupo_130" data-name="Grupo 130" transform="translate(0 0)">
    <g id="Grupo_129" data-name="Grupo 129">
      <path id="Trazado_1918" data-name="Trazado 1918" d="M87.385,36.68V34.487a10.246,10.246,0,0,0-7.308-9.8v-.431a2.923,2.923,0,1,0-5.846,0v.431a10.246,10.246,0,0,0-7.308,9.8V36.68c0,4.865-1.145,6.574-1.981,7.822A4.137,4.137,0,0,0,64,46.911c0,2.382,4.967,3.219,8.994,3.506a4.354,4.354,0,0,0,8.321,0c4.027-.288,8.994-1.124,8.994-3.506a4.137,4.137,0,0,0-.942-2.409C88.53,43.254,87.385,41.545,87.385,36.68ZM75.693,24.256a1.462,1.462,0,0,1,2.923,0v.117a9.207,9.207,0,0,0-2.923,0Zm1.462,27.77a2.9,2.9,0,0,1-2.55-1.517c1.035.044,1.935.056,2.55.056s1.515-.012,2.55-.056A2.9,2.9,0,0,1,77.154,52.026Zm0-2.923c-6.693,0-11.693-1.158-11.693-2.192a2.782,2.782,0,0,1,.7-1.6c.886-1.325,2.228-3.326,2.228-8.636V34.487a8.769,8.769,0,0,1,17.539,0V36.68c0,5.31,1.342,7.311,2.228,8.636a2.782,2.782,0,0,1,.7,1.6C88.847,47.945,83.847,49.1,77.154,49.1Z" transform="translate(-59.615 -21.333)" fill="#d7e51c"/>
      <path id="Trazado_1919" data-name="Trazado 1919" d="M479.921,171.665a.731.731,0,0,0-1.387.462,15.165,15.165,0,0,1,0,9.7.731.731,0,0,0,1.387.462,16.643,16.643,0,0,0,0-10.625Z" transform="translate(-445.714 -160.9)" fill="#d7e51c"/>
      <path id="Trazado_1920" data-name="Trazado 1920" d="M438.558,184.7a.732.732,0,0,0-.462.924,12.3,12.3,0,0,1,0,7.854.732.732,0,0,0,.462.924.745.745,0,0,0,.231.037.731.731,0,0,0,.694-.5,13.77,13.77,0,0,0,0-8.777A.734.734,0,0,0,438.558,184.7Z" transform="translate(-408.046 -173.475)" fill="#d7e51c"/>
      <path id="Trazado_1921" data-name="Trazado 1921" d="M1.462,177a15.3,15.3,0,0,1,.8-4.85.731.731,0,1,0-1.387-.462,16.656,16.656,0,0,0,0,10.625.731.731,0,0,0,1.387-.462A15.3,15.3,0,0,1,1.462,177Z" transform="translate(0 -160.919)" fill="#d7e51c"/>
      <path id="Trazado_1922" data-name="Trazado 1922" d="M44.772,193.475a12.3,12.3,0,0,1,0-7.855.731.731,0,1,0-1.387-.461,13.771,13.771,0,0,0,0,8.777.731.731,0,0,0,.694.5.744.744,0,0,0,.231-.037A.732.732,0,0,0,44.772,193.475Z" transform="translate(-39.744 -173.47)" fill="#d7e51c"/>
    </g>
  </g>
</svg>
