<svg id="casino-cctv" xmlns="http://www.w3.org/2000/svg" width="40.5" height="33.681" viewBox="0 0 40.5 33.681">
  <path id="Trazado_1923" data-name="Trazado 1923" d="M40.5,56.413c-.016-.37-.222-1.056-1.422-1.493L7.1,43.291A3.168,3.168,0,0,0,3.04,45.182l-.866,2.379h0L.226,52.913a3.168,3.168,0,0,0,1.891,4.056l9.321,3.389a3.773,3.773,0,0,0,.761,2.956l-1.986,5.455a.64.64,0,0,1-.6.42H3.8v-1.9a1.9,1.9,0,0,0-1.9-1.9H.633A.633.633,0,0,0,0,66.024V76.149a.633.633,0,0,0,.633.633H1.9a1.9,1.9,0,0,0,1.9-1.9v-1.9H9.614a4.448,4.448,0,0,0,4.168-2.919l1.944-5.34a3.769,3.769,0,0,0,2.723-1.82l10.893,3.96a3.163,3.163,0,0,0,3.779-1.318l1.25.455a1.265,1.265,0,0,0,1.621-.756l1.732-4.759a1.266,1.266,0,0,0-.54-1.518l2.029-.946C40.37,57.485,40.515,56.783,40.5,56.413ZM2.531,74.883a.634.634,0,0,1-.633.633H1.266V66.657H1.9a.634.634,0,0,1,.633.633Zm10.062-5.25a3.179,3.179,0,0,1-2.979,2.086H3.8V70.454H9.614A1.91,1.91,0,0,0,11.4,69.2L13.22,64.21a3.87,3.87,0,0,0,1.177.466Zm2.682-6.14h-.044a2.567,2.567,0,0,1-1.819-.725.617.617,0,0,0-.076-.078A2.513,2.513,0,0,1,12.66,60.8l4.569,1.661A2.51,2.51,0,0,1,15.275,63.494Zm21.26-3.439L34.8,64.813l-1.19-.433,1.642-4.511.336-.157Zm2.143-3.178-3.383,1.577h0l-.81.378h0l-.95.443a6.4,6.4,0,0,1-4.189.183l-18.3-6.651A.633.633,0,0,0,10.607,54l18.3,6.651a6.671,6.671,0,0,0,2.223.345,7.718,7.718,0,0,0,2.51-.4l-1.437,3.947a1.9,1.9,0,0,1-2.433,1.135L2.55,55.779a1.9,1.9,0,0,1-1.135-2.433L2.5,50.371a3.148,3.148,0,0,0,1.567,1.246l.595.216a.633.633,0,1,0,.433-1.189L4.5,50.427a1.9,1.9,0,0,1-1.135-2.433l.217-.6h0l.649-1.784a1.9,1.9,0,0,1,2.433-1.135L38.644,56.11a1.15,1.15,0,0,1,.587.359A1.15,1.15,0,0,1,38.678,56.877Z" transform="translate(0 -43.1)" fill="#d7e51c"/>
  <path id="Trazado_1924" data-name="Trazado 1924" d="M85.748,149.39l-1.189-.433a.633.633,0,0,0-.433,1.189l1.189.433a.633.633,0,0,0,.433-1.189Z" transform="translate(-77.088 -140.548)" fill="#d7e51c"/>
</svg>
