<svg id="Grupo_2332" data-name="Grupo 2332" xmlns="http://www.w3.org/2000/svg" width="34.293" height="34.293" viewBox="0 0 34.293 34.293">
  <g id="Grupo_2331" data-name="Grupo 2331" transform="translate(0 0)">
    <path id="Trazado_3920" data-name="Trazado 3920" d="M63.678,515.9a4.209,4.209,0,0,1-.85.53,1,1,0,0,0,.846,1.823,6.235,6.235,0,0,0,1.26-.785,3.805,3.805,0,0,1,4.839,0,5.945,5.945,0,0,0,7.284,0,3.711,3.711,0,0,1,4.773,0,5.943,5.943,0,0,0,7.282,0,3.807,3.807,0,0,1,4.84,0,6.16,6.16,0,0,0,1.139.726,1,1,0,1,0,.886-1.8,4.323,4.323,0,0,1-.77-.492,5.793,5.793,0,0,0-4.763-1.213v-4.894a14.972,14.972,0,0,0,4.018-10.235,15.07,15.07,0,1,0-30.14,0,14.972,14.972,0,0,0,4.018,10.235v4.874A5.8,5.8,0,0,0,63.678,515.9Zm6.727-17.347a9.035,9.035,0,0,1,17.974,0Zm-4.074,1.005a13.061,13.061,0,1,1,26.121,0,12.966,12.966,0,0,1-2.009,6.956v-6.956a11.052,11.052,0,1,0-22.1,0v6.956A12.966,12.966,0,0,1,66.331,499.559Zm4.018,1h2.009v5.024a1,1,0,0,0,2.009,0v-5.024h4.018v3.015a1,1,0,0,0,2.009,0v-3.015h4.02v5.024a1,1,0,0,0,2.009,0v-5.024h2.009V515.49a6.184,6.184,0,0,0-.577.411,3.675,3.675,0,0,1-1.432.69v-2.9a1,1,0,0,0-2.009,0v2.874a3.622,3.622,0,0,1-1.332-.664,5.7,5.7,0,0,0-7.284,0,3.945,3.945,0,0,1-4.772,0,6.241,6.241,0,0,0-.678-.472V500.563Z" transform="translate(-62.246 -484.422)" fill="#d7e51c"/>
    <path id="Trazado_3921" data-name="Trazado 3921" d="M72.488,508.941a1,1,0,0,0,1-1.005V503.85a1,1,0,1,0-2.009,0v4.085A1,1,0,0,0,72.488,508.941Z" transform="translate(-59.36 -478.667)" fill="#d7e51c"/>
    <path id="Trazado_3922" data-name="Trazado 3922" d="M77.081,507.343a1,1,0,0,0,1.005-1.005v-4.018a1.005,1.005,0,1,0-2.011,0v4.018A1,1,0,0,0,77.081,507.343Z" transform="translate(-57.926 -479.145)" fill="#d7e51c"/>
  </g>
</svg>
