<svg xmlns="http://www.w3.org/2000/svg" width="37.274" height="30.886" viewBox="0 0 37.274 30.886">
  <g id="Grupo_2330" data-name="Grupo 2330" transform="translate(-62.338 -371.639)">
    <g id="Grupo_2329" data-name="Grupo 2329" transform="translate(62.338 371.639)">
      <path id="Trazado_3911" data-name="Trazado 3911" d="M99.081,386.017H62.871a.533.533,0,0,1-.533-.533V372.172a.533.533,0,0,1,.533-.533h36.21a.532.532,0,0,1,.532.533v13.312a.533.533,0,0,1-.532.533ZM63.4,384.951H98.548V372.705H63.4Zm0,0" transform="translate(-62.338 -371.639)" fill="#d7e51c"/>
      <path id="Trazado_3912" data-name="Trazado 3912" d="M67.919,398.478h-3.2a.533.533,0,0,1-.532-.533V381.438a.533.533,0,0,1,.532-.533h3.2a.533.533,0,0,1,.533.533v16.507a.533.533,0,0,1-.533.533Zm-2.662-1.066h2.131V381.971H65.257Zm0,0" transform="translate(-61.528 -367.593)" fill="#d7e51c"/>
      <rect id="Rect치ngulo_179" data-name="Rect치ngulo 179" width="6.39" height="1.065" transform="translate(1.598 29.82)" fill="#d7e51c"/>
      <path id="Trazado_3913" data-name="Trazado 3913" d="M87.193,398.478H84a.533.533,0,0,1-.533-.533V381.438a.533.533,0,0,1,.533-.533h3.2a.533.533,0,0,1,.532.533v16.507a.533.533,0,0,1-.532.533Zm-2.664-1.066H86.66V381.971H84.53Zm0,0" transform="translate(-53.113 -367.593)" fill="#d7e51c"/>
      <rect id="Rect치ngulo_180" data-name="Rect치ngulo 180" width="6.39" height="1.065" transform="translate(29.288 29.82)" fill="#d7e51c"/>
      <path id="Trazado_3914" data-name="Trazado 3914" d="M81.557,384.225l8.739-10.5.819.681-8.739,10.5Zm0,0" transform="translate(-53.946 -370.728)" fill="#d7e51c"/>
      <path id="Trazado_3915" data-name="Trazado 3915" d="M76.367,385.082l11.081-13.315.819.682L77.186,385.763Zm0,0" transform="translate(-56.212 -371.583)" fill="#d7e51c"/>
      <path id="Trazado_3916" data-name="Trazado 3916" d="M71.177,385.084l11.081-13.315.819.681L72,385.765Zm0,0" transform="translate(-58.478 -371.582)" fill="#d7e51c"/>
      <path id="Trazado_3917" data-name="Trazado 3917" d="M65.986,385.086l11.081-13.315.819.681L66.8,385.767Zm0,0" transform="translate(-60.745 -371.581)" fill="#d7e51c"/>
      <path id="Trazado_3918" data-name="Trazado 3918" d="M62.426,382.271l8.738-10.5.819.681-8.738,10.5Zm0,0" transform="translate(-62.3 -371.581)" fill="#d7e51c"/>
    </g>
  </g>
</svg>
