<svg id="Capa_1" data-name="Capa 1" xmlns="http://www.w3.org/2000/svg" viewBox="0 0 300 300"><defs><style>.cls-1{fill:#0e7a73;}.cls-2{opacity:0.3;}.cls-3{fill:#263238;}.cls-4{fill:#e0e0e0;}.cls-5{fill:#455a64;}.cls-6{opacity:0.2;}.cls-7{fill:#fff;}.cls-8{fill:#ffbe9d;}.cls-9{fill:#eb996e;}</style></defs><g id="Creation_process-pana" data-name="Creation process-pana"><g id="freepik--character-3--inject-190"><path id="Trazado_1841" data-name="Trazado 1841" class="cls-1" d="M124.61,192.91a8.9,8.9,0,0,1,6.81,1.48,15.83,15.83,0,0,1,4.69,5.34A27.69,27.69,0,0,1,139,213.65c-5.11-.43-9.32-4.64-11.32-6.92-3.15-3.59-6.68-12-3-13.81"/><path id="Trazado_1842" data-name="Trazado 1842" class="cls-1" d="M147.07,217.1a7.61,7.61,0,0,1-2.29-7.24,10,10,0,0,1,4.62-6.27,4.22,4.22,0,0,1,3.52-.76,3.29,3.29,0,0,1,2,2.64,6.64,6.64,0,0,1-.54,3.38c-1.46,3.68-3.52,7-7.27,8.3"/><g id="Grupo_104" data-name="Grupo 104" class="cls-2"><path id="Trazado_1843" data-name="Trazado 1843" d="M147.07,217.1a7.61,7.61,0,0,1-2.29-7.24,10,10,0,0,1,4.62-6.27,4.22,4.22,0,0,1,3.52-.76,3.29,3.29,0,0,1,2,2.64,6.64,6.64,0,0,1-.54,3.38c-1.46,3.68-3.52,7-7.27,8.3"/></g><path id="Trazado_1844" data-name="Trazado 1844" class="cls-3" d="M151.42,231.38a6.66,6.66,0,0,1-.45-.83l-1.14-2.35a26.7,26.7,0,0,1-2.7-8.12,16.34,16.34,0,0,1,1-8.47,11,11,0,0,1,1.29-2.26c.18-.26.36-.42.45-.55s.18-.18.19-.17a16.47,16.47,0,0,0-1.71,3.07,16.89,16.89,0,0,0-.88,8.33,28.84,28.84,0,0,0,2.59,8.07c.44,1,.8,1.82,1,2.38A5.53,5.53,0,0,1,151.42,231.38Z"/><path id="Trazado_1845" data-name="Trazado 1845" class="cls-3" d="M127.88,199.08a1.67,1.67,0,0,1,.28.31c.19.24.44.53.75.88.66.8,1.59,2,2.72,3.41,2.27,2.9,5.36,6.94,8.67,11.45s6.17,8.73,8.27,11.78c1,1.52,1.85,2.77,2.4,3.64l.65,1a3.24,3.24,0,0,1,.2.36,1.69,1.69,0,0,1-.27-.32l-.68-1c-.62-.88-1.47-2.09-2.49-3.57-2.12-3-5-7.18-8.35-11.71s-6.36-8.61-8.58-11.54l-2.64-3.47-.7-1A1.33,1.33,0,0,1,127.88,199.08Z"/><path id="Trazado_1846" data-name="Trazado 1846" class="cls-1" d="M143.33,223.31a17.77,17.77,0,0,0-15.52-4.75c-1.4.27-3,.95-3.3,2.35s.94,2.64,2.14,3.43a15.19,15.19,0,0,0,16.83-.67"/><path id="Trazado_1847" data-name="Trazado 1847" class="cls-3" d="M130.89,221.71a3.87,3.87,0,0,1,.88-.2,8.25,8.25,0,0,1,1-.15,12.81,12.81,0,0,1,1.38-.1,16.07,16.07,0,0,1,1.7,0,17.77,17.77,0,0,1,1.93.2,19.11,19.11,0,0,1,4.27,1.21,19.76,19.76,0,0,1,3.87,2.21,17.62,17.62,0,0,1,1.47,1.25,15.08,15.08,0,0,1,1.18,1.22,10.12,10.12,0,0,1,.88,1.08,8.54,8.54,0,0,1,.6.88,3.33,3.33,0,0,1,.44.78c-.06,0-.7-1.07-2.09-2.57a16.42,16.42,0,0,0-1.19-1.17,19,19,0,0,0-1.48-1.21A20.76,20.76,0,0,0,142,223a21.23,21.23,0,0,0-4.2-1.21c-.66-.1-1.3-.2-1.9-.23s-1.15,0-1.66-.06C132.16,221.52,130.9,221.78,130.89,221.71Z"/><path id="Trazado_1848" data-name="Trazado 1848" class="cls-1" d="M59.78,67.24S49.48,70.55,49,80.59s5.08,13,7.56,15,8.7,6.35,10.6,11.67l13.77-4.65a38.15,38.15,0,0,1,.21-15c1.76-8.2-.46-13-2.62-15.6a15.77,15.77,0,0,0-18.74-4.84Z"/><path id="Trazado_1849" data-name="Trazado 1849" class="cls-3" d="M76,103.87l-.11-.19-.31-.6-1.2-2.3c-1-2-2.5-4.93-4.07-8.63-.39-.93-.79-1.9-1.19-2.93S68.3,87.11,68,86a9.55,9.55,0,0,1-.37-3.64,5.29,5.29,0,0,1,1.74-3.43,3.71,3.71,0,0,1,4-.5A2.76,2.76,0,0,1,74.71,80a3.36,3.36,0,0,1,0,2.17A4.55,4.55,0,0,1,73.5,84a9.26,9.26,0,0,1-1.8,1.32,27,27,0,0,1-4.18,1.89,28.25,28.25,0,0,1-4.42,1.18,8.56,8.56,0,0,1-2.26.07,5.58,5.58,0,0,1-2.14-.67,4.2,4.2,0,0,1-1.6-1.5,3.22,3.22,0,0,1-.43-2.1,2.82,2.82,0,0,1,1-1.84,2.62,2.62,0,0,1,2-.53,4,4,0,0,1,1.87.77,5.59,5.59,0,0,1,1.3,1.4,22.49,22.49,0,0,1,1.5,3.36L66.7,93.5c1.47,3.73,2.66,6.76,3.48,8.86.4,1,.72,1.85.95,2.41l.23.63v.23a1.89,1.89,0,0,1-.09-.21,2.89,2.89,0,0,0-.26-.63c-.23-.56-.56-1.4-1-2.4l-3.5-8.79c-.75-1.87-1.56-3.92-2.44-6.11a23,23,0,0,0-1.5-3.32,5.07,5.07,0,0,0-1.26-1.39,3.64,3.64,0,0,0-1.77-.66,2.37,2.37,0,0,0-1.81.49,2.57,2.57,0,0,0-.89,1.72,3,3,0,0,0,.4,2,4,4,0,0,0,1.52,1.39,6.52,6.52,0,0,0,4.19.57,25.39,25.39,0,0,0,4.37-1.17,24.92,24.92,0,0,0,4.19-1.87,9.14,9.14,0,0,0,1.75-1.28,4.55,4.55,0,0,0,1.16-1.77,3.24,3.24,0,0,0,0-2,2.5,2.5,0,0,0-1.31-1.47,3.45,3.45,0,0,0-3.74.46,5.12,5.12,0,0,0-1.67,3.3A9.16,9.16,0,0,0,68.06,86c.31,1.13.72,2.2,1.11,3.24s.78,2,1.15,2.92c1.56,3.71,3,6.63,4,8.65.5,1,.88,1.78,1.14,2.33.14.25.24.46.31.6Z"/><path id="Trazado_1850" data-name="Trazado 1850" class="cls-4" d="M66.71,107l14.61-5,3.4,9.06-2.48,6.37-5.55,2.06-6.78-4.07Z"/><path id="Trazado_1851" data-name="Trazado 1851" class="cls-5" d="M82.56,117.23a4.65,4.65,0,0,0-3.64-.23,4.42,4.42,0,0,0-2.48,2.57Z"/><path id="Trazado_1852" data-name="Trazado 1852" class="cls-3" d="M83.4,110.37h-.57c-.37,0-.91-.09-1.57-.1a14.29,14.29,0,0,0-9.48,3.36c-.5.42-.87.79-1.14,1.06a2.11,2.11,0,0,1-.4.39,3,3,0,0,1,.34-.44,10.6,10.6,0,0,1,1.09-1.13,13.48,13.48,0,0,1,9.59-3.39,12.06,12.06,0,0,1,1.59.16A2.63,2.63,0,0,1,83.4,110.37Z"/><path id="Trazado_1853" data-name="Trazado 1853" class="cls-3" d="M82.69,108.25a2.71,2.71,0,0,1-.57,0c-.38,0-.91-.1-1.57-.11a14.55,14.55,0,0,0-5.06.82,14.31,14.31,0,0,0-4.42,2.53,14.82,14.82,0,0,0-1.14,1.06l-.41.41a2,2,0,0,1,.35-.46A8.88,8.88,0,0,1,71,111.38a13.43,13.43,0,0,1,9.59-3.4,13.86,13.86,0,0,1,1.58.16A2.64,2.64,0,0,1,82.69,108.25Z"/><path id="Trazado_1854" data-name="Trazado 1854" class="cls-3" d="M81.86,106.29h-.58c-.36,0-.89-.09-1.56-.1a14.6,14.6,0,0,0-5.07.81,14.2,14.2,0,0,0-4.41,2.55,11.34,11.34,0,0,0-1.13,1.06,3.88,3.88,0,0,1-.42.39,5.51,5.51,0,0,1,.35-.46,11.63,11.63,0,0,1,1.1-1.12A13.39,13.39,0,0,1,79.72,106a10.45,10.45,0,0,1,1.58.16A2.62,2.62,0,0,1,81.86,106.29Z"/><g id="Grupo_105" data-name="Grupo 105" class="cls-6"><path id="Trazado_1855" data-name="Trazado 1855" class="cls-7" d="M60.77,94.26c-.13.28-.62.41-1.4.28a8.49,8.49,0,0,1-3.15-1.39,12.77,12.77,0,0,1-3.63-3.62,14,14,0,0,1-2.23-6,13.62,13.62,0,0,1,.79-6.29A12.9,12.9,0,0,1,53.84,73a8.33,8.33,0,0,1,2.79-2c.77-.3,1.28-.28,1.4,0,.39.53-.64,1.77-1.64,3.83A18.57,18.57,0,0,0,55,78.54a13,13,0,0,0,1.06,9,16.41,16.41,0,0,0,2.15,3.32C59.74,92.66,61,93.68,60.77,94.26Z"/></g><g id="Grupo_106" data-name="Grupo 106" class="cls-6"><path id="Trazado_1856" data-name="Trazado 1856" class="cls-7" d="M66.89,97.67a2.12,2.12,0,0,1-1.14,2.75l-.1,0A2.18,2.18,0,0,1,63,99a2.11,2.11,0,0,1,1.17-2.76l.07,0A2.18,2.18,0,0,1,66.89,97.67Z"/></g><path id="Trazado_1857" data-name="Trazado 1857" class="cls-3" d="M42.28,77.62S40,77.39,37.19,77a50.9,50.9,0,0,1-5.06-.86c0-.07,2.28.22,5.09.64S42.29,77.57,42.28,77.62Z"/><path id="Trazado_1858" data-name="Trazado 1858" class="cls-3" d="M43,72.64a16.73,16.73,0,0,1-2.48-.91,14.38,14.38,0,0,1-2.4-1.09,15.4,15.4,0,0,1,2.49.9A14,14,0,0,1,43,72.64Z"/><path id="Trazado_1859" data-name="Trazado 1859" class="cls-3" d="M48.4,68.65s-1.69-1.39-3.68-3.21-3.58-3.33-3.54-3.37,1.7,1.39,3.69,3.2S48.4,68.61,48.4,68.65Z"/><path id="Trazado_1860" data-name="Trazado 1860" class="cls-3" d="M54.76,63.23a14.68,14.68,0,0,1-1.51-1.83,12,12,0,0,1-1.39-1.94,11.39,11.39,0,0,1,1.52,1.81,12.14,12.14,0,0,1,1.38,2Z"/><path id="Trazado_1861" data-name="Trazado 1861" class="cls-3" d="M63.17,61.82s-.7-2.4-1.4-5.38S60.52,51,60.57,51s.7,2.4,1.4,5.38S63.24,61.8,63.17,61.82Z"/><path id="Trazado_1862" data-name="Trazado 1862" class="cls-3" d="M70.71,61.51a14.36,14.36,0,0,1,.09-2.62,16.31,16.31,0,0,1,.31-2.61A31.6,31.6,0,0,1,70.71,61.51Z"/><path id="Trazado_1863" data-name="Trazado 1863" class="cls-3" d="M79.49,55.2s-.9,2.16-2.14,4.75S75,64.64,75,64.62s.92-2.16,2.17-4.75S79.44,55.18,79.49,55.2Z"/><path id="Trazado_1864" data-name="Trazado 1864" class="cls-3" d="M211.29,93.84a2.08,2.08,0,0,0,2.17-1.34,4.33,4.33,0,0,0,0-2.71,9.13,9.13,0,0,0-3.93-5.28c-2.17-1.36-5.13-2-6.1-4.41s.8-5.14.49-7.75a6.59,6.59,0,0,0-4.76-5.06,11.86,11.86,0,0,0-3-.51,8.34,8.34,0,0,0,2.47-5.49,6.18,6.18,0,0,0-2.05-5.06,6.49,6.49,0,0,0-4.45-1.2A8.25,8.25,0,0,0,185,60a6.56,6.56,0,0,0,1.77,7.1,11.89,11.89,0,0,1-2.13-.38,59.56,59.56,0,0,1-6.1-2.75,15.53,15.53,0,0,0-14.71,1.76A12.29,12.29,0,0,0,159.12,72a8.89,8.89,0,0,0,.79,7,12.65,12.65,0,0,0-1.76,6.71c0,2.14.62,4.35-.08,6.37A14.43,14.43,0,0,1,155.43,96a5.88,5.88,0,0,0-1.64,4.27c.2,1.56,2,2.92,3.34,2.2a5.3,5.3,0,0,0,.18,5.76,8.71,8.71,0,0,0,5,3.36,25.55,25.55,0,0,0,6,.75l15-1.68,12.37-7a5.73,5.73,0,0,0,4.09,5,3.86,3.86,0,0,0,4.57-3,3.53,3.53,0,0,0,.08-.72,6.58,6.58,0,0,0,6.88-11.08Z"/><path id="Trazado_1865" data-name="Trazado 1865" class="cls-8" d="M205.69,93.4c-.51-5.93-5.28-4.83-6.89-4.28l-.51-10.56-1.65-1a35.82,35.82,0,0,0-36.26-.2s1.05,23.69,2.41,33.9,11.74,10.57,11.74,10.57,1.13,11.13,1.63,14l24.82-1-1.71-35.39C200.39,99.68,206.26,99.84,205.69,93.4Z"/><path id="Trazado_1866" data-name="Trazado 1866" class="cls-9" d="M201,96.55a2.17,2.17,0,0,0,.35.15,1.22,1.22,0,0,0,.88-.06,3,3,0,0,0,1.16-2.84,4,4,0,0,0-.5-1.76,1.41,1.41,0,0,0-1-.88.63.63,0,0,0-.69.4c-.07.21,0,.34-.06.36s-.15-.11-.13-.41a.86.86,0,0,1,.24-.46.89.89,0,0,1,.66-.23,1.77,1.77,0,0,1,1.37,1,4.12,4.12,0,0,1,.6,1.92,3.19,3.19,0,0,1-1.52,3.19,1.32,1.32,0,0,1-1.13-.09C201.05,96.71,201,96.56,201,96.55Z"/><path id="Trazado_1867" data-name="Trazado 1867" class="cls-5" d="M202.91,98.89a1.13,1.13,0,0,1,0,1.07,1.75,1.75,0,0,1-.88.88,1.68,1.68,0,0,1-1.51-.07,1.71,1.71,0,0,1-.88-1.22,1.75,1.75,0,0,1,.27-1.2c.41-.59.88-.63.88-.58a2.65,2.65,0,0,0-.62.75,1.51,1.51,0,0,0-.14,1,1.4,1.4,0,0,0,1.83,1,1.52,1.52,0,0,0,.72-.65C202.93,99.31,202.83,98.9,202.91,98.89Z"/><path id="Trazado_1868" data-name="Trazado 1868" class="cls-5" d="M160.67,93.36a2,2,0,0,1,.2.63,5.68,5.68,0,0,1,0,1.84,10.94,10.94,0,0,1-.76,2.64c-.4,1-.88,1.92-1.41,3a11.62,11.62,0,0,0-1,3,6,6,0,0,0,.13,2.57,5.58,5.58,0,0,0,1.19,2.07,2,2,0,0,1-.55-.4,3.94,3.94,0,0,1-1-1.58,6.27,6.27,0,0,1-.24-2.72,11.09,11.09,0,0,1,1-3.17c.49-1.06,1-2,1.43-2.94a11.38,11.38,0,0,0,.83-2.49A10.05,10.05,0,0,0,160.67,93.36Z"/><path id="Trazado_1869" data-name="Trazado 1869" class="cls-9" d="M174.53,121.71a23.9,23.9,0,0,0,12.87-5.38s-2.27,7.74-12.58,8Z"/><path id="Trazado_1870" data-name="Trazado 1870" class="cls-3" d="M160.44,80s6.4,2.75,14.37-1.68c5.22-2.92,11.39-4.5,12.82-3.52s2,6.5,7.33,7.86c0,0,.12,10.57,4.29,10s.82-16.72.82-16.72l-10.49-4.54L178.3,69.73l-10.48,2-8.06,2.64Z"/><path id="Trazado_1871" data-name="Trazado 1871" class="cls-1" d="M197,66.17a11.79,11.79,0,0,1-10.49.62A18.14,18.14,0,0,0,197,66.17Z"/><path id="Trazado_1872" data-name="Trazado 1872" class="cls-5" d="M191.39,67.9a2.14,2.14,0,0,1,1.27.71,4,4,0,0,1,.2,5.59,3.64,3.64,0,0,1-.77.64,2.17,2.17,0,0,1-1.36.48c0-.08.51-.22,1.18-.74a3.87,3.87,0,0,0,.8-5.41c-.09-.12-.18-.23-.28-.34C191.87,68.2,191.35,68,191.39,67.9Z"/><path id="Trazado_1873" data-name="Trazado 1873" class="cls-5" d="M199,68.77a.94.94,0,0,1,.53.23,2.84,2.84,0,0,1,1,1.22,3.81,3.81,0,0,1,.26,2.33A4.48,4.48,0,0,1,199.25,75a6.15,6.15,0,0,1-2.55,1.28,9.88,9.88,0,0,1-2.3.24,6.12,6.12,0,0,1-2.08-.28,20.44,20.44,0,0,1,2.07,0A7.36,7.36,0,0,0,199,74.63a4.24,4.24,0,0,0,1.43-2.17,3.65,3.65,0,0,0-.15-2.12A3.88,3.88,0,0,0,199,68.76Z"/><path id="Trazado_1874" data-name="Trazado 1874" class="cls-5" d="M180.73,65.06c0,.09-1.6-.18-4.18-.32a14.48,14.48,0,0,0-4.4.44,8.2,8.2,0,0,0-4.4,2.93,7.34,7.34,0,0,0-1.14,5.17,7.6,7.6,0,0,0,1.67,4A5.92,5.92,0,0,0,170.72,79c.66.24,1.07.27,1.06.32a1.41,1.41,0,0,1-.29,0,5.24,5.24,0,0,1-.88-.16A5.72,5.72,0,0,1,168,77.52a8.23,8.23,0,0,1-.66-9.68,8.37,8.37,0,0,1,4.7-3.07,14.12,14.12,0,0,1,4.58-.36,26.39,26.39,0,0,1,3.06.39A4.48,4.48,0,0,1,180.73,65.06Z"/><path id="Trazado_1875" data-name="Trazado 1875" class="cls-5" d="M162.68,67.9c-.42.67-.81,1.36-1.16,2.06a7.59,7.59,0,0,0,3.22,9.73,21,21,0,0,0,2.17,1,1.64,1.64,0,0,1-.66-.07,6.6,6.6,0,0,1-1.66-.6,7.57,7.57,0,0,1-3.37-10.15,6.34,6.34,0,0,1,1-1.48A1.85,1.85,0,0,1,162.68,67.9Z"/><path id="Trazado_1876" data-name="Trazado 1876" class="cls-5" d="M187.57,67.27a3.82,3.82,0,0,1-2.11.53,16.13,16.13,0,0,0-2.3.22,4.94,4.94,0,0,0-2.37,1.32A6.35,6.35,0,0,0,179,73.93c0,1.31.24,2.11.16,2.13a4.88,4.88,0,0,1-.49-2.12,7.39,7.39,0,0,1,.27-2.39A6,6,0,0,1,180.49,69a5.17,5.17,0,0,1,2.64-1.41,12.52,12.52,0,0,1,2.37-.13,14.23,14.23,0,0,0,2.06-.2Z"/><path id="Trazado_1877" data-name="Trazado 1877" class="cls-5" d="M212.43,93.68a10.29,10.29,0,0,0,.29-1.09,5,5,0,0,0-.51-2.93,7,7,0,0,0-3.18-3,24.66,24.66,0,0,0-5.28-1.77,21.79,21.79,0,0,1-9.09-4.63A18.29,18.29,0,0,1,192.47,78a4.69,4.69,0,0,1-.67-.87c.06-.07,1,1.23,3.07,2.87a23,23,0,0,0,9,4.4,24.07,24.07,0,0,1,5.35,1.8,7.19,7.19,0,0,1,3.28,3.26,4.84,4.84,0,0,1,.39,3.09,3.41,3.41,0,0,1-.29.81C212.51,93.61,212.45,93.68,212.43,93.68Z"/><path id="Trazado_1878" data-name="Trazado 1878" class="cls-5" d="M205.76,105.25s.44,0,1.18-.32a5.67,5.67,0,0,0,2.54-2,7.42,7.42,0,0,0,1.27-4.57,10.29,10.29,0,0,0-1.88-5.54,12.66,12.66,0,0,0-4.56-3.75c-1.64-.88-3.16-1.58-4.4-2.35a10.84,10.84,0,0,1-2.64-2.12,5.65,5.65,0,0,1-.56-.73,1,1,0,0,1-.15-.29,13.13,13.13,0,0,0,3.52,2.86c1.2.72,2.73,1.39,4.4,2.26a12.68,12.68,0,0,1,4.74,3.85,10.35,10.35,0,0,1,1.92,5.8,7.57,7.57,0,0,1-1.42,4.78,5.62,5.62,0,0,1-2.75,2,5.46,5.46,0,0,1-.88.17C205.88,105.28,205.76,105.27,205.76,105.25Z"/><path id="Trazado_1879" data-name="Trazado 1879" class="cls-3" d="M167.05,94.35a1.5,1.5,0,1,0-2.11.15,1.49,1.49,0,0,0,2.11-.15Z"/><path id="Trazado_1880" data-name="Trazado 1880" class="cls-3" d="M163.22,92.66c.18.16,1.1-.73,2.5-.88s2.52.44,2.64.23-.13-.38-.61-.67a3.5,3.5,0,0,0-2.15-.4,3.36,3.36,0,0,0-2,1C163.24,92.25,163.14,92.59,163.22,92.66Z"/><path id="Trazado_1881" data-name="Trazado 1881" class="cls-3" d="M182.68,92.52a1.5,1.5,0,1,0-2.12,0l.06.06A1.5,1.5,0,0,0,182.68,92.52Z"/><path id="Trazado_1882" data-name="Trazado 1882" class="cls-3" d="M178.84,90.79c.18.16,1.09-.74,2.5-.88s2.52.43,2.64.23-.13-.39-.63-.67a3.5,3.5,0,0,0-4.11.55C178.86,90.38,178.75,90.72,178.84,90.79Z"/><path id="Trazado_1883" data-name="Trazado 1883" class="cls-3" d="M173.29,104.34a6.91,6.91,0,0,0-2.35-.22c-.37,0-.67,0-.72-.23a2.18,2.18,0,0,1,.14-1.1l.77-3a37,37,0,0,0,1.51-7.8,36.08,36.08,0,0,0-2.29,7.61c-.25,1-.48,2-.71,3a2.29,2.29,0,0,0,0,1.55,1,1,0,0,0,.71.52,3.31,3.31,0,0,0,.63,0,7,7,0,0,0,2.31-.36Z"/><path id="Trazado_1884" data-name="Trazado 1884" class="cls-3" d="M184.51,86.94c-.08.12-.49-.06-1.17-.2a8.35,8.35,0,0,0-2.64-.09,9.29,9.29,0,0,0-2.64.7c-.65.28-1,.52-1.12.42s.15-.52.79-1a6,6,0,0,1,2.82-1.06,5.81,5.81,0,0,1,3,.39C184.26,86.46,184.58,86.85,184.51,86.94Z"/><path id="Trazado_1885" data-name="Trazado 1885" class="cls-3" d="M168.9,88.73c0,.25-1.32.59-3,.74s-3.08.08-3.1-.17,1.33-.59,3-.74S168.89,88.48,168.9,88.73Z"/><path id="Trazado_1886" data-name="Trazado 1886" class="cls-9" d="M184.34,95.19c0,.13-.17.21-.35.19s-.33-.13-.31-.25a.3.3,0,0,1,.35-.19C184.22,95,184.35,95.07,184.34,95.19Z"/><path id="Trazado_1887" data-name="Trazado 1887" class="cls-9" d="M182.32,98c0,.14-.17.22-.36.21a.31.31,0,0,1-.31-.27c0-.12.17-.21.36-.19S182.33,97.83,182.32,98Z"/><path id="Trazado_1888" data-name="Trazado 1888" class="cls-9" d="M179.13,95.75c0,.12-.16.21-.35.19s-.31-.13-.31-.27.18-.21.36-.19S179.15,95.62,179.13,95.75Z"/><path id="Trazado_1889" data-name="Trazado 1889" class="cls-9" d="M164.11,97.55c0,.12-.17.21-.35.19s-.33-.13-.31-.26.17-.21.35-.19S164.12,97.43,164.11,97.55Z"/><path id="Trazado_1890" data-name="Trazado 1890" class="cls-9" d="M168.11,97.07a.3.3,0,0,1-.35.19c-.19,0-.33-.13-.31-.26a.3.3,0,0,1,.35-.19C168,96.83,168.12,96.94,168.11,97.07Z"/><path id="Trazado_1891" data-name="Trazado 1891" class="cls-9" d="M166,100c0,.12-.17.21-.35.19s-.32-.14-.31-.26.18-.21.35-.2S166.06,99.84,166,100Z"/><path id="Trazado_1892" data-name="Trazado 1892" class="cls-3" d="M181.07,102.11c.12,0,.22.4.14,1a5,5,0,0,1-1,2.22,4.79,4.79,0,0,1-1.95,1.46c-.59.22-1,.2-1,.08s1.23-.81,2.26-2.12S180.81,102.08,181.07,102.11Z"/><path id="Trazado_1893" data-name="Trazado 1893" class="cls-3" d="M182.6,103c-.09.1-.59-.26-1.3-.36s-1.28.09-1.34,0,.53-.56,1.41-.42S182.7,102.9,182.6,103Z"/><path id="Trazado_1894" data-name="Trazado 1894" class="cls-8" d="M136.43,90.16c-1-.78-5-.88-9.14,1s-.94-4.57.22-6.94,4.35-9.85,3.89-10.73c-.66-1.36-2.25-.88-3.34,1.48s-4.64,9-5.85,8.3a2.33,2.33,0,0,0-3.17.88,3,3,0,0,0-1.92-1.44,3.61,3.61,0,0,0-2.55,1.09s-.31-.54-1.77-.83c-2-.41-3,2-3.09,2-1.28,4-3.8,16.3-3.8,16.3h0l-19,50a19.25,19.25,0,0,0,1.86,20.57c6,7.92,20.65,2.64,27.54,1.35l13.48-3.23L123,146.51l-10.29,2.23,10.87-47.31,2.26-4.51c.53-.47,1.1-1,1.76-1.47a11,11,0,0,1,3.25-1.76,17.11,17.11,0,0,1,4.51-1,1.42,1.42,0,0,0,1.11-2.48Z"/><path id="Trazado_1895" data-name="Trazado 1895" class="cls-9" d="M118.69,85.25a16.91,16.91,0,0,1-.63,2.64c-.22.82-.47,1.76-.8,2.88a5.32,5.32,0,0,1-.8,1.64,2.62,2.62,0,0,1-1.76,1,1.78,1.78,0,0,1-1.06-.18,1.74,1.74,0,0,1-.73-.74,3,3,0,0,1-.28-1.85,13.81,13.81,0,0,1,.32-1.58l.34-1.35a16,16,0,0,1,.77-2.64,15.6,15.6,0,0,1-.45,2.72c-.09.42-.19.88-.28,1.35a11.72,11.72,0,0,0-.28,1.55,2.64,2.64,0,0,0,.24,1.59,1.31,1.31,0,0,0,1.36.68,2.22,2.22,0,0,0,1.44-.83,5.08,5.08,0,0,0,.75-1.51c.33-1,.63-2,.88-2.83a16.33,16.33,0,0,1,1-2.55Z"/><path id="Trazado_1896" data-name="Trazado 1896" class="cls-9" d="M123.61,85A16.17,16.17,0,0,1,123,87.7c-.23.82-.48,1.76-.81,2.88a5.32,5.32,0,0,1-.8,1.64,2.65,2.65,0,0,1-1.76,1,1.73,1.73,0,0,1-1.8-.93,2.92,2.92,0,0,1-.27-1.84,12.28,12.28,0,0,1,.32-1.58c.12-.47.23-.92.34-1.34A15.15,15.15,0,0,1,119,84.9a15.6,15.6,0,0,1-.45,2.72L118.24,89a13.58,13.58,0,0,0-.27,1.55,2.62,2.62,0,0,0,.25,1.58,1.3,1.3,0,0,0,1.35.69A2.19,2.19,0,0,0,121,92a5.15,5.15,0,0,0,.75-1.5c.33-1,.63-2,.88-2.84a18.8,18.8,0,0,1,1-2.59Z"/><path id="Trazado_1897" data-name="Trazado 1897" class="cls-9" d="M113.79,85.46a12.54,12.54,0,0,1-.5,2.42c-.19.74-.4,1.61-.69,2.64a4.93,4.93,0,0,1-.67,1.5,2.26,2.26,0,0,1-1.55,1,1.56,1.56,0,0,1-1-.19,1.7,1.7,0,0,1-.63-.72,3.09,3.09,0,0,1-.2-1.67c.15-1,.41-1.89.58-2.64a12.22,12.22,0,0,1,.68-2.38,13.42,13.42,0,0,1-.37,2.45c-.12.74-.36,1.64-.47,2.64a2.56,2.56,0,0,0,.19,1.42,1.09,1.09,0,0,0,1.14.66,1.83,1.83,0,0,0,1.24-.79,4.67,4.67,0,0,0,.63-1.36c.28-.92.55-1.76.78-2.56A13.53,13.53,0,0,1,113.79,85.46Z"/><path id="Trazado_1898" data-name="Trazado 1898" class="cls-9" d="M124.51,94.16a15.86,15.86,0,0,0-11,4.66,5,5,0,0,1,1.16-1.43A12.81,12.81,0,0,1,118.37,95a12.34,12.34,0,0,1,4.31-1,4.48,4.48,0,0,1,1.82.15Z"/><path id="Trazado_1899" data-name="Trazado 1899" class="cls-9" d="M120.54,147l.79,24.88,6-1.47L121.22,147Z"/><path id="Trazado_1900" data-name="Trazado 1900" class="cls-8" d="M259.68,203a21.54,21.54,0,0,0-2.27-28.29l-9.21-9-13.9,18.57c.66.38,7.49,6.84,7.49,6.84l-20.24,29.65a16.12,16.12,0,0,0-1.5,15.51l1.33,4a9.92,9.92,0,0,0,12.55,6.27,10.34,10.34,0,0,0,1.57-.68l6.08-3.3a1.35,1.35,0,0,0,.53-1.83,1.4,1.4,0,0,0-.1-.16h0a1.37,1.37,0,0,0-1.17-.53l-8.55.66a3.89,3.89,0,0,1-4-2.64h0Z"/><path id="Trazado_1901" data-name="Trazado 1901" class="cls-9" d="M252,188.48a14.28,14.28,0,0,0-10,2.25,3.92,3.92,0,0,1,1.19-1,10.83,10.83,0,0,1,7.33-1.64A3.63,3.63,0,0,1,252,188.48Z"/><path id="Trazado_1902" data-name="Trazado 1902" class="cls-9" d="M245.5,186.55a9.42,9.42,0,0,1-1.76,2.26,9.11,9.11,0,0,1-2.12,1.94,8.94,8.94,0,0,1,1.76-2.25A9.13,9.13,0,0,1,245.5,186.55Z"/><path id="Trazado_1903" data-name="Trazado 1903" class="cls-9" d="M236,185.85l17.9-14.52-2.25-2.18Z"/><path id="Trazado_1904" data-name="Trazado 1904" class="cls-1" d="M226.52,139.45h0L254.62,166,231.74,190.5l-14.21-14.08.77,32.83,3,32.3-72,.45,2.94-71.15-22.39,9.61-9.3-36.2,30.81-10.56a120.25,120.25,0,0,1,22.53-3.94A48.94,48.94,0,0,0,201,130h0S213.68,129,226.52,139.45Z"/><path id="Trazado_1905" data-name="Trazado 1905" class="cls-3" d="M153.4,154.55a4.31,4.31,0,0,1,0,.88c0,.66-.08,1.44-.13,2.36-.14,2.11-.33,4.8-.53,7.78s-.44,5.79-.65,7.77c-.11,1-.2,1.76-.28,2.35a2.64,2.64,0,0,1-.17.88,4.31,4.31,0,0,1,0-.88c0-.66.08-1.44.13-2.36.14-2.11.33-4.8.52-7.78s.45-5.78.66-7.77c.11-1,.2-1.76.28-2.35a2.92,2.92,0,0,1,.17-.88Z"/><path id="Trazado_1906" data-name="Trazado 1906" class="cls-3" d="M218,176.76a1.83,1.83,0,0,1-.33-.35l-.95-1.14c-.82-1-2-2.46-3.37-4.32a55.79,55.79,0,0,1-4.4-6.85,32.35,32.35,0,0,1-3.39-9.38,21.78,21.78,0,0,1,.36-10,17.57,17.57,0,0,1,4-7,14.3,14.3,0,0,1,4.46-3.21,11.16,11.16,0,0,1,1.4-.52,2.23,2.23,0,0,1,.51-.12s-.68.23-1.83.8a14.82,14.82,0,0,0-4.3,3.27,17.53,17.53,0,0,0-3.85,7,21.6,21.6,0,0,0-.31,9.76,32.79,32.79,0,0,0,3.31,9.25,59.27,59.27,0,0,0,4.28,6.87c1.34,1.87,2.48,3.36,3.25,4.4l.88,1.2A2.51,2.51,0,0,1,218,176.76Z"/><g id="Grupo_107" data-name="Grupo 107" class="cls-6"><path id="Trazado_1907" data-name="Trazado 1907" class="cls-7" d="M150.41,215.31a7.93,7.93,0,0,1,8.9,2.47,24.61,24.61,0,0,1,2.53,5.81,6.88,6.88,0,0,0,4.16,4.48c2.64.69,5.2-1.26,7.92-1.69a9.29,9.29,0,0,1,9,4.92,18.73,18.73,0,0,1,2,10.52l-35.6.22Z"/></g><g id="Grupo_108" data-name="Grupo 108" class="cls-6"><path id="Trazado_1908" data-name="Trazado 1908" class="cls-7" d="M219.47,221.73a9.09,9.09,0,0,1-10.14.83,9.78,9.78,0,0,1-5.11-9.29,8.58,8.58,0,0,1-10-13.21c1.67-2.18,4.4-3.52,5.67-6,2.39-4.44-1-9.79-.88-14.85a11.27,11.27,0,0,1,12-10.48l.71.07,5.82,7.56.73,31.28Z"/></g><g id="Grupo_109" data-name="Grupo 109" class="cls-6"><path id="Trazado_1909" data-name="Trazado 1909" class="cls-7" d="M190,132.76a11.51,11.51,0,0,1-3.52,20.38c-2.25.66-4.76.68-6.66,2-3.52,2.55-2.84,7.87-4.1,12a12.17,12.17,0,0,1-23.08.72l2.12-35.14s15.13-3.16,19.13-3.05a29.49,29.49,0,0,0,13.3,2Z"/></g><g id="Grupo_110" data-name="Grupo 110" class="cls-6"><path id="Trazado_1910" data-name="Trazado 1910" class="cls-7" d="M228.44,141.21c-3.25,1.2-7.16,4.56-7.92,7.92a10.76,10.76,0,0,0,2.5,9.68c2.33,2.52,6.11,4.4,6.09,7.86,0,2.06-1.52,3.82-1.84,5.85-.61,3.68,3.06,7,6.78,7.3a14.15,14.15,0,0,0,9.76-2.3L254.62,166Z"/></g><g id="Grupo_111" data-name="Grupo 111" class="cls-6"><path id="Trazado_1911" data-name="Trazado 1911" class="cls-7" d="M138.61,138.07a33.32,33.32,0,0,1,2.17,12.13,16.92,16.92,0,0,1-4,10.9A11.72,11.72,0,0,1,126.12,165l-5.56-20.72Z"/></g><g id="Grupo_112" data-name="Grupo 112" class="cls-6"><path id="Trazado_1912" data-name="Trazado 1912" class="cls-7" d="M157.54,199.47a14.54,14.54,0,0,0,1.67,5.59,5.1,5.1,0,0,0,4.88,2.59c2.29-.39,4.15-2.85,6.41-2.34,1.46.32,2.38,1.76,3.71,2.46a5.18,5.18,0,0,0,5.15-.57,13.75,13.75,0,0,0,3.6-4,12.29,12.29,0,0,0,2.15-4.67,4.62,4.62,0,0,0-1.69-4.61c-1.93-1.27-4.88-.46-6.5-2.13a10.3,10.3,0,0,1-1.55-3.84,6.52,6.52,0,0,0-11.55-1.39c-1.15,1.7-1.57,4-3.32,5.11a8.7,8.7,0,0,1-4.3.71,4.29,4.29,0,0,0-3.78,1.77,3.28,3.28,0,0,0,1.23,3.86,9.72,9.72,0,0,0,4.1,1.46"/></g></g></g></svg>