<svg id="Grupo_1212" data-name="Grupo 1212" xmlns="http://www.w3.org/2000/svg" width="320.875" height="284.814" viewBox="0 0 320.875 284.814">
  <g id="Grupo_1066" data-name="Grupo 1066" transform="translate(0 0)">
    <g id="Grupo_1064" data-name="Grupo 1064">
      <path id="Trazado_2851" data-name="Trazado 2851" d="M1332.352,2682.375c27.808,18.246,77.491,24.626,98.279,25.595,56.561,2.634,127.417,5.509,176.1-30.426,28.646-21.146,3.015-83.014-.754-104.94s35.431-18.013,15.076-68.917-88.953-79.88-140.214-79.1-52.769,36.808-88.953,52.47-50.507-3.915-76.892,29.759,13.561,83.005,19.6,98.672c3.323,8.622-11.013,18.238-14.812,24.509C1305.449,2653.65,1314.283,2670.519,1332.352,2682.375Z" transform="translate(-1306.076 -2424.574)" fill="#d5e31c"/>
    </g>
    <g id="Grupo_1065" data-name="Grupo 1065" opacity="0.8">
      <path id="Trazado_2852" data-name="Trazado 2852" d="M1332.352,2682.375c27.808,18.246,77.491,24.626,98.279,25.595,56.561,2.634,127.417,5.509,176.1-30.426,28.646-21.146,3.015-83.014-.754-104.94s35.431-18.013,15.076-68.917-88.953-79.88-140.214-79.1-52.769,36.808-88.953,52.47-50.507-3.915-76.892,29.759,13.561,83.005,19.6,98.672c3.323,8.622-11.013,18.238-14.812,24.509C1305.449,2653.65,1314.283,2670.519,1332.352,2682.375Z" transform="translate(-1306.076 -2424.574)" fill="#fff"/>
    </g>
  </g>
  <g id="Grupo_1068" data-name="Grupo 1068" transform="translate(194.654 32.84)">
    <g id="Grupo_1067" data-name="Grupo 1067" opacity="0.8">
      <path id="Trazado_2853" data-name="Trazado 2853" d="M1508.043,2466.3c-3.41-1.932-4.959-.322-6.2-1.932s3.41-5.8-5.89-9.982c0,0-.619-9.016-13.328-9.338s-9.3,9.016-12.709,11.271-4.34-1.289-7.749.966-1.86,6.761-4.651,7.406-6.509-2.9-9.918-.645-3.41,4.187-4.96,4.187-4.651-1.289-6.51,0-4.028,2.9-4.028,2.9h78.421S1511.452,2468.234,1508.043,2466.3Z" transform="translate(-1432.101 -2445.041)" fill="#fff"/>
    </g>
  </g>
  <g id="Grupo_1070" data-name="Grupo 1070" transform="translate(160.197 5.539)">
    <g id="Grupo_1069" data-name="Grupo 1069" opacity="0.8">
      <path id="Trazado_2854" data-name="Trazado 2854" d="M1437.733,2435.848c-1.254-.71-1.824-.118-2.28-.71s1.254-2.133-2.167-3.673c0,0-.229-3.316-4.9-3.435s-3.421,3.317-4.677,4.146-1.6-.474-2.851.356-.684,2.487-1.71,2.725-2.4-1.067-3.65-.238-1.254,1.541-1.824,1.541-1.711-.474-2.4,0-1.483,1.067-1.483,1.067h28.854A1.552,1.552,0,0,0,1437.733,2435.848Z" transform="translate(-1409.792 -2428.026)" fill="#fff"/>
    </g>
  </g>
  <g id="Grupo_1073" data-name="Grupo 1073" transform="translate(7.34 234.174)">
    <g id="Grupo_1071" data-name="Grupo 1071">
      <path id="Trazado_2855" data-name="Trazado 2855" d="M1310.828,2570.514c2.241,9.492,9.263,17.28,18.937,23.628,27.808,18.246,77.491,24.625,98.279,25.594,56.561,2.635,127.417,5.509,176.1-30.426,6.243-4.608,9.909-11.153,11.784-18.8Z" transform="translate(-1310.828 -2570.514)" fill="#d5e31c"/>
    </g>
    <g id="Grupo_1072" data-name="Grupo 1072" opacity="0.6">
      <path id="Trazado_2856" data-name="Trazado 2856" d="M1310.828,2570.514c2.241,9.492,9.263,17.28,18.937,23.628,27.808,18.246,77.491,24.625,98.279,25.594,56.561,2.635,127.417,5.509,176.1-30.426,6.243-4.608,9.909-11.153,11.784-18.8Z" transform="translate(-1310.828 -2570.514)" fill="#fff"/>
    </g>
  </g>
  <g id="Grupo_1084" data-name="Grupo 1084" transform="translate(101.954 24.47)">
    <g id="Grupo_1074" data-name="Grupo 1074">
      <path id="Trazado_2857" data-name="Trazado 2857" d="M1385.974,2544.641s31.843,3.273,47.98,23.778c0,0,17.052-23.756,47.676-23.268a65.553,65.553,0,0,0,14.238-41.007c.012-35.51-27.688-64.307-61.87-64.321s-61.9,28.766-61.914,64.276a65.575,65.575,0,0,0,13.881,40.6Z" transform="translate(-1372.084 -2439.824)" fill="#d5e31c"/>
    </g>
    <g id="Grupo_1075" data-name="Grupo 1075" opacity="0.6">
      <path id="Trazado_2858" data-name="Trazado 2858" d="M1385.974,2544.641s31.843,3.273,47.98,23.778c0,0,17.052-23.756,47.676-23.268a65.553,65.553,0,0,0,14.238-41.007c.012-35.51-27.688-64.307-61.87-64.321s-61.9,28.766-61.914,64.276a65.575,65.575,0,0,0,13.881,40.6Z" transform="translate(-1372.084 -2439.824)" fill="#fff"/>
    </g>
    <g id="Grupo_1083" data-name="Grupo 1083" transform="translate(31.795 4.534)">
      <g id="Grupo_1082" data-name="Grupo 1082">
        <g id="Grupo_1076" data-name="Grupo 1076" transform="translate(27.948)">
          <path id="Trazado_2859" data-name="Trazado 2859" d="M1411.838,2442.65l-1.075,204.387h5.375Z" transform="translate(-1410.763 -2442.65)" fill="#242838"/>
        </g>
        <g id="Grupo_1077" data-name="Grupo 1077" transform="translate(30.098 91.57)">
          <path id="Trazado_2860" data-name="Trazado 2860" d="M1412.693,2525.959s10.75-20.1,30.1-26.241c0,0-20.423,5.023-30.635,22.333Z" transform="translate(-1412.155 -2499.717)" fill="#242838"/>
        </g>
        <g id="Grupo_1078" data-name="Grupo 1078" transform="translate(30.098 34.618)">
          <path id="Trazado_2861" data-name="Trazado 2861" d="M1412.693,2490.466s10.75-20.1,30.1-26.241c0,0-20.423,5.024-30.635,22.333Z" transform="translate(-1412.155 -2464.224)" fill="#242838"/>
        </g>
        <g id="Grupo_1079" data-name="Grupo 1079" transform="translate(30.098 63.093)">
          <path id="Trazado_2862" data-name="Trazado 2862" d="M1412.693,2508.213s10.75-20.1,30.1-26.243c0,0-20.423,5.026-30.635,22.334Z" transform="translate(-1412.155 -2481.97)" fill="#242838"/>
        </g>
        <g id="Grupo_1080" data-name="Grupo 1080" transform="translate(0 49.135)">
          <path id="Trazado_2863" data-name="Trazado 2863" d="M1421.71,2499.512s-10.372-20.1-29.041-26.242c0,0,19.707,5.026,29.56,22.335Z" transform="translate(-1392.669 -2473.271)" fill="#242838"/>
        </g>
        <g id="Grupo_1081" data-name="Grupo 1081" transform="translate(0 77.051)">
          <path id="Trazado_2864" data-name="Trazado 2864" d="M1421.71,2516.912s-10.372-20.1-29.041-26.244c0,0,19.707,5.026,29.56,22.335Z" transform="translate(-1392.669 -2490.668)" fill="#242838"/>
        </g>
      </g>
    </g>
  </g>
  <g id="Grupo_1095" data-name="Grupo 1095" transform="translate(20.33 59.554)">
    <g id="Grupo_1085" data-name="Grupo 1085">
      <path id="Trazado_2865" data-name="Trazado 2865" d="M1330.268,2544.919s25.284,2.6,38.1,18.883c0,0,13.54-18.864,37.859-18.477a52.06,52.06,0,0,0,11.3-32.562c.009-28.2-21.987-51.065-49.129-51.075s-49.154,22.842-49.164,51.039a52.073,52.073,0,0,0,11.022,32.236Z" transform="translate(-1319.238 -2461.689)" fill="#d5e31c"/>
    </g>
    <g id="Grupo_1086" data-name="Grupo 1086" opacity="0.5">
      <path id="Trazado_2866" data-name="Trazado 2866" d="M1330.268,2544.919s25.284,2.6,38.1,18.883c0,0,13.54-18.864,37.859-18.477a52.06,52.06,0,0,0,11.3-32.562c.009-28.2-21.987-51.065-49.129-51.075s-49.154,22.842-49.164,51.039a52.073,52.073,0,0,0,11.022,32.236Z" transform="translate(-1319.238 -2461.689)" fill="#fff"/>
    </g>
    <g id="Grupo_1094" data-name="Grupo 1094" transform="translate(25.247 3.6)">
      <g id="Grupo_1093" data-name="Grupo 1093">
        <g id="Grupo_1087" data-name="Grupo 1087" transform="translate(22.192)">
          <path id="Trazado_2867" data-name="Trazado 2867" d="M1350.806,2463.933l-.854,170.236h4.268Z" transform="translate(-1349.952 -2463.933)" fill="#242838"/>
        </g>
        <g id="Grupo_1088" data-name="Grupo 1088" transform="translate(23.899 72.712)">
          <path id="Trazado_2868" data-name="Trazado 2868" d="M1351.485,2530.086s8.535-15.96,23.9-20.839c0,0-16.218,3.99-24.327,17.736Z" transform="translate(-1351.057 -2509.247)" fill="#242838"/>
        </g>
        <g id="Grupo_1089" data-name="Grupo 1089" transform="translate(23.899 27.489)">
          <path id="Trazado_2869" data-name="Trazado 2869" d="M1351.485,2501.9s8.535-15.961,23.9-20.838c0,0-16.218,3.989-24.327,17.734Z" transform="translate(-1351.057 -2481.064)" fill="#242838"/>
        </g>
        <g id="Grupo_1090" data-name="Grupo 1090" transform="translate(23.899 50.1)">
          <path id="Trazado_2870" data-name="Trazado 2870" d="M1351.485,2515.994s8.535-15.961,23.9-20.839c0,0-16.218,3.991-24.327,17.735Z" transform="translate(-1351.057 -2495.155)" fill="#242838"/>
        </g>
        <g id="Grupo_1091" data-name="Grupo 1091" transform="translate(0 39.017)">
          <path id="Trazado_2871" data-name="Trazado 2871" d="M1358.645,2509.085s-8.236-15.96-23.061-20.837c0,0,15.648,3.989,23.473,17.734Z" transform="translate(-1335.584 -2488.248)" fill="#242838"/>
        </g>
        <g id="Grupo_1092" data-name="Grupo 1092" transform="translate(0 61.184)">
          <path id="Trazado_2872" data-name="Trazado 2872" d="M1358.645,2522.9s-8.236-15.961-23.061-20.839c0,0,15.648,3.99,23.473,17.735Z" transform="translate(-1335.584 -2502.063)" fill="#242838"/>
        </g>
      </g>
    </g>
  </g>
  <g id="Grupo_1106" data-name="Grupo 1106" transform="translate(205.38 59.554)">
    <g id="Grupo_1096" data-name="Grupo 1096">
      <path id="Trazado_2873" data-name="Trazado 2873" d="M1450.075,2544.919s25.285,2.6,38.1,18.883c0,0,13.54-18.864,37.859-18.477a52.062,52.062,0,0,0,11.3-32.562c.009-28.2-21.987-51.065-49.13-51.075s-49.154,22.842-49.163,51.039a52.073,52.073,0,0,0,11.022,32.236Z" transform="translate(-1439.045 -2461.689)" fill="#d5e31c"/>
    </g>
    <g id="Grupo_1097" data-name="Grupo 1097" opacity="0.5">
      <path id="Trazado_2874" data-name="Trazado 2874" d="M1450.075,2544.919s25.285,2.6,38.1,18.883c0,0,13.54-18.864,37.859-18.477a52.062,52.062,0,0,0,11.3-32.562c.009-28.2-21.987-51.065-49.13-51.075s-49.154,22.842-49.163,51.039a52.073,52.073,0,0,0,11.022,32.236Z" transform="translate(-1439.045 -2461.689)" fill="#fff"/>
    </g>
    <g id="Grupo_1105" data-name="Grupo 1105" transform="translate(25.247 3.6)">
      <g id="Grupo_1104" data-name="Grupo 1104">
        <g id="Grupo_1098" data-name="Grupo 1098" transform="translate(22.192)">
          <path id="Trazado_2875" data-name="Trazado 2875" d="M1470.613,2463.933l-.853,170.236h4.267Z" transform="translate(-1469.759 -2463.933)" fill="#242838"/>
        </g>
        <g id="Grupo_1099" data-name="Grupo 1099" transform="translate(23.899 72.712)">
          <path id="Trazado_2876" data-name="Trazado 2876" d="M1471.292,2530.086s8.535-15.96,23.9-20.839c0,0-16.218,3.99-24.327,17.736Z" transform="translate(-1470.864 -2509.247)" fill="#242838"/>
        </g>
        <g id="Grupo_1100" data-name="Grupo 1100" transform="translate(23.899 27.489)">
          <path id="Trazado_2877" data-name="Trazado 2877" d="M1471.292,2501.9s8.535-15.961,23.9-20.838c0,0-16.218,3.989-24.327,17.734Z" transform="translate(-1470.864 -2481.064)" fill="#242838"/>
        </g>
        <g id="Grupo_1101" data-name="Grupo 1101" transform="translate(23.899 50.1)">
          <path id="Trazado_2878" data-name="Trazado 2878" d="M1471.292,2515.994s8.535-15.961,23.9-20.839c0,0-16.218,3.991-24.327,17.735Z" transform="translate(-1470.864 -2495.155)" fill="#242838"/>
        </g>
        <g id="Grupo_1102" data-name="Grupo 1102" transform="translate(0 39.017)">
          <path id="Trazado_2879" data-name="Trazado 2879" d="M1478.452,2509.085s-8.236-15.96-23.061-20.837c0,0,15.648,3.989,23.473,17.734Z" transform="translate(-1455.391 -2488.248)" fill="#242838"/>
        </g>
        <g id="Grupo_1103" data-name="Grupo 1103" transform="translate(0 61.184)">
          <path id="Trazado_2880" data-name="Trazado 2880" d="M1478.452,2522.9s-8.236-15.961-23.061-20.839c0,0,15.648,3.99,23.473,17.735Z" transform="translate(-1455.391 -2502.063)" fill="#242838"/>
        </g>
      </g>
    </g>
  </g>
  <g id="Grupo_1107" data-name="Grupo 1107" transform="translate(19.829 222.52)">
    <path id="Trazado_2881" data-name="Trazado 2881" d="M1604.854,2580.29l-24.069-3,13.479-2.5-22.664,2.174c-1.3-1.729,22.664-2.174,22.664-2.174h-18.292l-1.445-2c-1.444-2-6.258,2-8.665,2s0-2,2.888-7-5.9,1.017-5.9,1.017a4.145,4.145,0,0,0-1.324-4.018c-1.926-1.5-4.814,6.5-4.814,6.5s-2.108-3.066-4.813-4-1.926,5-1.926,5-7.7-4-11.071-5.5,1.444,4,4.813,6-2.406,1.5-5.294,1.5h-24.069c-2.406,0-25.031.5-25.031.5l-.482-3c-.482-3-7.221.5-9.146-.5s0-2.5-2.888-6.5-6.258,5.5-10.591,6.5H1459a8.659,8.659,0,0,0-2.406-5.5c-2.406-2.5-1.926,4-3.85,4s-1.444-1-4.815-2.5-.962,3.5-2.406,3.5-5.777-3-9.147-2.5,4.333,4.5,4.333,4.5-3.85.5-6.739,1a62.5,62.5,0,0,1-13,1.5c-6.259,0-8.183.5-18.774-1s-11.072-.5-11.072-.5a3.584,3.584,0,0,0-2.888-1.5c-1.926,0-3.37,1.5-5.295.5s0,0-1.444-1.5-3.851,3-6.258,2,2.888-7.5,2.408-9-3.852.5-5.777,3-2.408,0-4.814-3-2.889,4.5-2.889,4.5-1.444-5-4.814-5.5,0,4.5-1.444,10-5.775-3-11.552-3,5.295,7,5.295,7l-28.884,1.5,10.109,1-13.96,4,36.584,3.5-16.366-6.5h32.734l-12.035,2,26.958.5-13,4,40.917-5-19.254-1,55.841-4-28.884,5,109.755-3-29.846,2s8.254.191,19.777.4l-26.035,2.1,46.212,2.5-7.22-3.5,41-.459,6.175,1.459-15.4,4.5,35.623-1.5-11.553-3Z" transform="translate(-1318.914 -2563.251)" fill="#d5e31c"/>
  </g>
  <g id="Grupo_1153" data-name="Grupo 1153" transform="translate(67.09 79.091)">
    <g id="Grupo_1109" data-name="Grupo 1109" transform="translate(31.426 178.533)">
      <g id="Grupo_1108" data-name="Grupo 1108">
        <path id="Trazado_2882" data-name="Trazado 2882" d="M1448.6,2587.818c0,1.486-17.628,2.689-39.371,2.689s-39.371-1.2-39.371-2.689,17.627-2.69,39.371-2.69S1448.6,2586.331,1448.6,2587.818Z" transform="translate(-1369.858 -2585.128)" fill="#242838"/>
      </g>
    </g>
    <g id="Grupo_1152" data-name="Grupo 1152">
      <g id="Grupo_1113" data-name="Grupo 1113" transform="translate(109.799 142.179)">
        <g id="Grupo_1111" data-name="Grupo 1111">
          <g id="Grupo_1110" data-name="Grupo 1110">
            <path id="Trazado_2883" data-name="Trazado 2883" d="M1420.853,2566.727a60.6,60.6,0,0,1,.765,8.64c-.125,2.981-1.24,8.16-.2,9.141s1.639-.486,3.542-3.016,4.861-8.744,6.031-10.932,2.87-4.166,1.849-5.521-3.691-2.033-5.126-2.1l-4.845-.218Z" transform="translate(-1420.461 -2562.32)" fill="#242838"/>
            <path id="Trazado_2884" data-name="Trazado 2884" d="M1422.173,2585.36a1.271,1.271,0,0,1-.873-.409c-.806-.762-.621-2.89-.221-6.3.134-1.157.262-2.248.3-3.146a60.5,60.5,0,0,0-.76-8.559l-.02-.128,2.182-4.342,5.085.23c1.593.072,4.323.816,5.406,2.25.962,1.272,0,2.872-1.016,4.567-.269.448-.547.911-.8,1.385-.278.52-.656,1.268-1.1,2.14a74.943,74.943,0,0,1-4.964,8.843c-.383.508-.712.973-1,1.385-.89,1.254-1.427,2.012-2.116,2.083C1422.239,2585.357,1422.206,2585.36,1422.173,2585.36Zm-.789-18.415a58.294,58.294,0,0,1,.749,8.59c-.039.929-.168,2.036-.306,3.206-.252,2.147-.6,5.086-.02,5.629.233.22.352.209.392.206.355-.037.9-.8,1.583-1.768.3-.417.629-.887,1.016-1.4a74.631,74.631,0,0,0,4.89-8.728c.446-.877.828-1.632,1.108-2.156.259-.483.544-.958.82-1.417.911-1.518,1.7-2.829,1.061-3.669-.923-1.223-3.437-1.887-4.844-1.95l-4.606-.207Z" transform="translate(-1420.599 -2562.472)" fill="#242838"/>
          </g>
        </g>
        <g id="Grupo_1112" data-name="Grupo 1112" transform="translate(0.281 1.078)">
          <path id="Trazado_2885" data-name="Trazado 2885" d="M1428.716,2570.189a86.709,86.709,0,0,1-7.661,13.419,1.112,1.112,0,0,0,.25.44c1.038.98,1.639-.486,3.542-3.015s4.861-8.745,6.031-10.934,2.87-4.165,1.849-5.519a4.169,4.169,0,0,0-1.412-1.093C1430.8,2565.042,1429.984,2567.236,1428.716,2570.189Z" transform="translate(-1420.632 -2562.938)" fill="#fff"/>
          <path id="Trazado_2886" data-name="Trazado 2886" d="M1422.074,2584.954a1.273,1.273,0,0,1-.873-.409,1.444,1.444,0,0,1-.351-.593l-.07-.194.116-.17a86.228,86.228,0,0,0,7.624-13.351h0c1.078-2.508,1.948-4.751,2.588-6.67l.14-.421.383.2a4.445,4.445,0,0,1,1.542,1.2c.962,1.272,0,2.871-1.016,4.566-.269.448-.547.911-.8,1.385-.278.52-.656,1.268-1.1,2.14a74.917,74.917,0,0,1-4.964,8.843c-.383.509-.712.974-1,1.385-.89,1.255-1.427,2.012-2.116,2.083C1422.14,2584.95,1422.106,2584.954,1422.074,2584.954Zm-.439-1.094a.391.391,0,0,0,.073.1c.232.22.352.209.392.206.355-.037.9-.8,1.583-1.769.295-.417.629-.888,1.016-1.4a74.7,74.7,0,0,0,4.89-8.727c.446-.878.828-1.632,1.107-2.157.26-.483.544-.957.82-1.417.911-1.517,1.7-2.828,1.061-3.669a3.213,3.213,0,0,0-.905-.772c-.63,1.84-1.458,3.955-2.464,6.3h0A86.576,86.576,0,0,1,1421.635,2583.86Z" transform="translate(-1420.781 -2563.144)" fill="#242838"/>
        </g>
      </g>
      <g id="Grupo_1117" data-name="Grupo 1117" transform="translate(20.165 162.724)">
        <g id="Grupo_1115" data-name="Grupo 1115">
          <g id="Grupo_1114" data-name="Grupo 1114">
            <path id="Trazado_2887" data-name="Trazado 2887" d="M1380.8,2575.541s1.965,6.017,2.095,7.916.258,3.8-1.838,3.621-4.853-.745-5.545-.547a13.018,13.018,0,0,1-5.624-.136,32.6,32.6,0,0,1-6.322-2.066c-.882-.521-1.185-2.371.2-2.767s6.677-1.518,8.188-2.142,4.153-3.314,4.153-3.314Z" transform="translate(-1362.435 -2575.116)" fill="#242838"/>
            <path id="Trazado_2888" data-name="Trazado 2888" d="M1381.44,2587.639c-.091,0-.187,0-.284-.011-.816-.07-1.71-.193-2.577-.315a13.436,13.436,0,0,0-2.84-.244,13.268,13.268,0,0,1-5.808-.134,32.213,32.213,0,0,1-6.422-2.108,2.182,2.182,0,0,1-.927-2.057,1.625,1.625,0,0,1,1.213-1.426c.469-.135,1.373-.349,2.419-.6a58.792,58.792,0,0,0,5.73-1.533c1.423-.589,4-3.2,4.028-3.228l.093-.095,5.123-.616.1.3c.08.248,1.98,6.088,2.111,8.014.093,1.363.189,2.77-.553,3.533A1.879,1.879,0,0,1,1381.44,2587.639Zm-5.374-1.38a22.921,22.921,0,0,1,2.613.279c.856.119,1.741.243,2.536.31a1.319,1.319,0,0,0,1.1-.282c.5-.51.411-1.736.33-2.922a55.143,55.143,0,0,0-1.977-7.518l-4.263.514a18.887,18.887,0,0,1-4.184,3.3,57.6,57.6,0,0,1-5.842,1.567c-1.036.245-1.932.459-2.386.589a.86.86,0,0,0-.664.769,1.39,1.39,0,0,0,.552,1.278,32.776,32.776,0,0,0,6.219,2.025,12.705,12.705,0,0,0,5.44.142A2.032,2.032,0,0,1,1376.066,2586.26Z" transform="translate(-1362.568 -2575.276)" fill="#242838"/>
          </g>
        </g>
        <g id="Grupo_1116" data-name="Grupo 1116" transform="translate(0.002 6.273)">
          <path id="Trazado_2889" data-name="Trazado 2889" d="M1382.925,2581.654c-1.452.185-4.065.5-6.934.812-4.347.466-8.949-.737-10.494-1.65-.911-.539-1.682-1.045-2.271-1.342a1.671,1.671,0,0,0,.333,2.474,32.64,32.64,0,0,0,6.322,2.066,13.019,13.019,0,0,0,5.624.136c.692-.2,3.451.371,5.545.547C1382.934,2584.857,1383.021,2583.34,1382.925,2581.654Z" transform="translate(-1362.435 -2579.01)" fill="#fff"/>
          <path id="Trazado_2890" data-name="Trazado 2890" d="M1381.439,2585.278c-.091,0-.187-.005-.286-.013-.814-.07-1.708-.193-2.575-.315a13.546,13.546,0,0,0-2.84-.244,13.265,13.265,0,0,1-5.808-.133,32.235,32.235,0,0,1-6.422-2.109,2.109,2.109,0,0,1-.93-1.6,1.774,1.774,0,0,1,.536-1.514l.187-.168.224.114c.392.2.847.476,1.375.8.286.175.592.363.916.555,1.581.936,6.147,2.041,10.27,1.6,2.952-.318,5.607-.645,6.927-.812l.4-.049.023.415c.06,1.075.069,2.281-.6,2.959A1.874,1.874,0,0,1,1381.439,2585.278Zm-5.374-1.382a22.731,22.731,0,0,1,2.614.28c.855.118,1.741.242,2.536.309a1.308,1.308,0,0,0,1.095-.279,2.823,2.823,0,0,0,.391-1.937c-1.418.178-3.855.474-6.539.762-4.331.467-9.009-.688-10.719-1.7-.328-.194-.638-.384-.927-.56-.4-.244-.755-.463-1.065-.634a1.11,1.11,0,0,0-.122.653,1.318,1.318,0,0,0,.551.993,32.78,32.78,0,0,0,6.219,2.026,12.71,12.71,0,0,0,5.44.141A2.034,2.034,0,0,1,1376.066,2583.9Z" transform="translate(-1362.569 -2579.185)" fill="#242838"/>
        </g>
      </g>
      <g id="Grupo_1119" data-name="Grupo 1119" transform="translate(22.848 80.313)">
        <g id="Grupo_1118" data-name="Grupo 1118">
          <path id="Trazado_2891" data-name="Trazado 2891" d="M1401.217,2537.966a110.434,110.434,0,0,1-9.156,8.375c-5.68,4.691-16.4,10.812-16.4,10.812s7.008,9.826,7.237,15.75-4.029,30.815-3.255,33.859c0,0-2.362,2.376-3.886.741s-5.331-36.038-7.763-40.956-4.145-12.338-3.174-14.626c1.864-4.383,13.923-17.358,19.542-21.053a92.63,92.63,0,0,0,9.13-6.765" transform="translate(-1364.172 -2523.804)" fill="#242838"/>
          <path id="Trazado_2892" data-name="Trazado 2892" d="M1377.17,2608.584a2.061,2.061,0,0,1-1.548-.7c-.757-.812-1.716-6.876-3.347-17.523-1.5-9.823-3.208-20.954-4.481-23.527-2.324-4.7-4.263-12.423-3.183-14.961,1.872-4.4,14.014-17.5,19.684-21.229a93.084,93.084,0,0,0,9.09-6.731l.485.6a93.549,93.549,0,0,1-9.172,6.8c-5.6,3.681-17.56,16.563-19.4,20.883-.895,2.1.7,9.312,3.164,14.287,1.328,2.685,2.969,13.4,4.556,23.763,1.177,7.687,2.51,16.4,3.141,17.1,1.052,1.13,2.7-.168,3.205-.612-.293-2.05.616-9.16,1.577-16.667.894-6.994,1.819-14.227,1.711-17.031-.221-5.738-7.093-15.436-7.162-15.532l-.258-.361.378-.215c.107-.061,10.755-6.162,16.345-10.776a111.3,111.3,0,0,0,9.121-8.342l.538.548a112.2,112.2,0,0,1-9.191,8.407c-5.04,4.162-14.126,9.5-16.075,10.633,1.283,1.856,6.85,10.205,7.059,15.606.11,2.873-.819,10.14-1.719,17.166-.948,7.423-1.932,15.1-1.548,16.609l.057.221-.159.159a6.212,6.212,0,0,1-1.47,1.056A3.149,3.149,0,0,1,1377.17,2608.584Z" transform="translate(-1364.304 -2523.916)" fill="#242838"/>
        </g>
      </g>
      <g id="Grupo_1120" data-name="Grupo 1120" transform="translate(46.847 33.133)">
        <path id="Trazado_2893" data-name="Trazado 2893" d="M1380.015,2499.5s4.047-4.229,8.512-4.664,12.018,1.144,14.212,1.222,6.984.654,7.23,1.412a75.811,75.811,0,0,1,3.128,15.509c.754,8.18.162,23.223.162,23.223l-3.411-.5a52.448,52.448,0,0,0-3.713-15.789,79.255,79.255,0,0,1-4.587-14.156s-10.145,1.3-14.938.721" transform="translate(-1379.748 -2494.366)" fill="#d5e31c"/>
        <path id="Trazado_2894" data-name="Trazado 2894" d="M1413.713,2536.8l-4.13-.6-.017-.323a52.475,52.475,0,0,0-3.681-15.65,81.873,81.873,0,0,1-4.536-13.884c-1.833.223-10.343,1.2-14.688.677l.088-.778c4.691.563,14.746-.708,14.847-.719l.344-.045.071.353a79.535,79.535,0,0,0,4.561,14.075,53.288,53.288,0,0,1,3.724,15.6l2.7.393c.088-2.522.495-15.45-.176-22.737a75.6,75.6,0,0,0-3.111-15.422c-.369-.453-4.263-1.055-6.887-1.147-.718-.024-1.945-.2-3.5-.42-3.236-.462-7.669-1.093-10.666-.8-4.273.418-8.242,4.51-8.28,4.551l-.534-.552c.168-.177,4.2-4.334,8.744-4.778,3.085-.3,7.565.339,10.838.805,1.472.21,2.742.392,3.421.416.071,0,7.139.335,7.575,1.677a76.363,76.363,0,0,1,3.146,15.6c.748,8.112.17,23.125.164,23.276Z" transform="translate(-1379.842 -2494.514)" fill="#242838"/>
      </g>
      <g id="Grupo_1121" data-name="Grupo 1121" transform="translate(68.01 34.425)">
        <path id="Trazado_2895" data-name="Trazado 2895" d="M1405.694,2535.708s.591-15.042-.162-23.223a75.821,75.821,0,0,0-3.128-15.509c-.239-.738-4.774-1.3-7.039-1.4a32.813,32.813,0,0,1-1.458,9.7l.076-.01a79.283,79.283,0,0,0,4.587,14.156,52.444,52.444,0,0,1,3.713,15.788s-3.013,2.743-3.791,3.352,1.471,3.538,1.471,3.538.789,3.438,2.544,3.838a3.115,3.115,0,0,0,2.921-1.022,12.435,12.435,0,0,0,1.452-3.546C1407.651,2538.738,1405.694,2535.708,1405.694,2535.708Z" transform="translate(-1393.346 -2495.165)" fill="#fff"/>
        <path id="Trazado_2896" data-name="Trazado 2896" d="M1403.332,2546.556a3.185,3.185,0,0,1-.707-.08c-1.818-.414-2.666-3.475-2.808-4.044-.4-.524-1.782-2.439-1.658-3.457a.834.834,0,0,1,.306-.571c.663-.52,3.026-2.66,3.628-3.205a52.432,52.432,0,0,0-3.668-15.463,81.69,81.69,0,0,1-4.536-13.887l-.343.041.207-.593a32.553,32.553,0,0,0,1.435-9.578l.006-.4.386.016c.07,0,6.952.348,7.38,1.669a76.39,76.39,0,0,1,3.146,15.6c.712,7.719.223,21.686.168,23.152.357.59,1.9,3.363,1.165,5.886a12.784,12.784,0,0,1-1.514,3.673A3.6,3.6,0,0,1,1403.332,2546.556Zm-8.79-41.235.008.019a79.476,79.476,0,0,0,4.561,14.075,53.283,53.283,0,0,1,3.746,15.928l.011.19-.139.125c-.122.112-3.032,2.76-3.811,3.372-.162.239.474,1.593,1.539,2.979l.072.154c.206.891,1.011,3.262,2.258,3.547a2.754,2.754,0,0,0,2.552-.892h0a12.676,12.676,0,0,0,1.378-3.406c.709-2.422-1.118-5.3-1.138-5.333l-.068-.107,0-.127c.006-.151.582-15.111-.159-23.168a75.575,75.575,0,0,0-3.111-15.422c-.316-.387-3.488-.955-6.314-1.118A33.233,33.233,0,0,1,1394.542,2505.321Z" transform="translate(-1393.544 -2495.318)" fill="#242838"/>
      </g>
      <g id="Grupo_1122" data-name="Grupo 1122" transform="translate(41.608 19.105)">
        <path id="Trazado_2897" data-name="Trazado 2897" d="M1383.284,2486.152a19.821,19.821,0,0,0,0,6.4c.638,2.428,4.037,6.622,3.613,8.61s-6.375,5.518-8.075,4.636-2.125-11.48-2.125-11.48S1380.522,2487.256,1383.284,2486.152Z" transform="translate(-1376.316 -2485.541)" fill="#fff"/>
        <path id="Trazado_2898" data-name="Trazado 2898" d="M1379.644,2506.56a1.849,1.849,0,0,1-.857-.18c-1.807-.938-2.261-10-2.334-11.813l0-.111.053-.1c.158-.294,3.923-7.2,6.779-8.341l.616-.247-.108.675a19.584,19.584,0,0,0-.009,6.236,17.982,17.982,0,0,0,1.668,3.477c1.149,2.052,2.234,3.992,1.949,5.321-.289,1.351-2.572,3.112-4.677,4.152A7.936,7.936,0,0,1,1379.644,2506.56Zm-2.432-11.912c.181,4.3.887,10.5,1.912,11.031.517.27,1.8-.028,3.275-.754,2.151-1.064,4.065-2.686,4.264-3.615.219-1.03-.888-3.01-1.866-4.758a11.72,11.72,0,0,1-1.855-9.472C1380.579,2488.676,1377.639,2493.874,1377.212,2494.648Z" transform="translate(-1376.45 -2485.771)" fill="#242838"/>
      </g>
      <g id="Grupo_1124" data-name="Grupo 1124" transform="translate(37.01 29.559)">
        <g id="Grupo_1123" data-name="Grupo 1123">
          <path id="Trazado_2899" data-name="Trazado 2899" d="M1387,2492.533a60.571,60.571,0,0,0-9.856,7.145c-3.613,3.531-4.037,14.57-2.763,20.309a101.5,101.5,0,0,0,5.95,16.776c2.731,6.081.542,13.293,3.027,19.388,4.618,11.322,19.891,5.131,21.5-5.066.928-5.887-3.324-11.048-3.912-16.75-.636-6.181-1.718-27.835-3.841-33.8S1390.432,2492.671,1387,2492.533Z" transform="translate(-1373.335 -2492.137)" fill="#242838"/>
          <path id="Trazado_2900" data-name="Trazado 2900" d="M1391.969,2562.758c-3.993,0-7.162-2.242-8.818-6.3-1.24-3.037-1.344-6.366-1.444-9.588-.105-3.314-.212-6.741-1.578-9.788-.737-1.642-4.492-10.175-5.976-16.854-1.33-5.987-.873-17.02,2.871-20.681a61.533,61.533,0,0,1,9.932-7.2l.093-.053.107.005c1.782.072,7.808.881,10.44,8.262,1.625,4.559,2.638,18.106,3.31,27.071.213,2.855.4,5.32.553,6.82a27.326,27.326,0,0,0,1.968,6.806c1.23,3.195,2.5,6.5,1.942,10.05-.993,6.305-6.878,10.731-11.993,11.368A11.356,11.356,0,0,1,1391.969,2562.758Zm-4.739-69.679a59.67,59.67,0,0,0-9.689,7.033c-3.5,3.421-3.914,14.265-2.654,19.937,1.467,6.6,5.193,15.069,5.925,16.7,1.432,3.19,1.542,6.7,1.647,10.093.1,3.15.2,6.406,1.385,9.308,1.707,4.184,5.144,6.276,9.439,5.743,4.839-.6,10.4-4.777,11.339-10.721.527-3.336-.65-6.392-1.9-9.629a27.789,27.789,0,0,1-2.017-7.013c-.156-1.515-.341-3.984-.555-6.843-.669-8.922-1.679-22.4-3.267-26.86C1394.466,2494.038,1389.016,2493.174,1387.23,2493.079Z" transform="translate(-1373.474 -2492.286)" fill="#242838"/>
        </g>
      </g>
      <g id="Grupo_1130" data-name="Grupo 1130" transform="translate(37.01 29.559)">
        <g id="Grupo_1125" data-name="Grupo 1125">
          <path id="Trazado_2901" data-name="Trazado 2901" d="M1377.144,2499.678a60.571,60.571,0,0,1,9.856-7.145c3.432.138,7.976,2.047,10.1,8.007s3.205,27.615,3.841,33.8a26.91,26.91,0,0,0,1.938,6.768c-4.186,1.4-12.8,3.84-21.023,3.378a21.065,21.065,0,0,0-1.527-7.718,101.5,101.5,0,0,1-5.95-16.776C1373.107,2514.248,1373.532,2503.21,1377.144,2499.678Z" transform="translate(-1373.335 -2492.137)" fill="#d5e31c"/>
          <path id="Trazado_2902" data-name="Trazado 2902" d="M1384.095,2545.08c-.708,0-1.413-.017-2.118-.057l-.338-.02-.018-.351a20.707,20.707,0,0,0-1.492-7.573c-.737-1.642-4.492-10.175-5.976-16.854-1.33-5.987-.873-17.02,2.871-20.681h0a61.533,61.533,0,0,1,9.932-7.2l.093-.053.107.005c1.782.072,7.808.881,10.44,8.262,1.625,4.559,2.638,18.106,3.31,27.071.213,2.855.4,5.32.553,6.82a26.865,26.865,0,0,0,1.914,6.663l.15.391-.385.128A63.323,63.323,0,0,1,1384.095,2545.08Zm-1.739-.823c7.76.369,15.8-1.813,20.166-3.249a25.927,25.927,0,0,1-1.813-6.48c-.156-1.515-.341-3.984-.555-6.843-.669-8.922-1.679-22.4-3.267-26.86-2.42-6.787-7.871-7.651-9.657-7.746a59.67,59.67,0,0,0-9.689,7.033h0c-3.5,3.421-3.914,14.265-2.654,19.937,1.467,6.6,5.193,15.069,5.925,16.7A20.866,20.866,0,0,1,1382.356,2544.257Z" transform="translate(-1373.474 -2492.286)" fill="#242838"/>
        </g>
        <g id="Grupo_1127" data-name="Grupo 1127" transform="translate(6.708 41.025)">
          <g id="Grupo_1126" data-name="Grupo 1126">
            <path id="Trazado_2903" data-name="Trazado 2903" d="M1392.527,2524.657c-7.064,0-14.264-5.857-14.568-6.106a.4.4,0,0,1-.062-.55.368.368,0,0,1,.53-.062c.073.059,7.3,5.935,14.1,5.935a.392.392,0,0,1,0,.783Z" transform="translate(-1377.817 -2517.853)" fill="#242838"/>
          </g>
        </g>
        <g id="Grupo_1129" data-name="Grupo 1129" transform="translate(13.113 47.361)">
          <g id="Grupo_1128" data-name="Grupo 1128">
            <path id="Trazado_2904" data-name="Trazado 2904" d="M1389.3,2524.092a16.682,16.682,0,0,1-7.13-1.547.4.4,0,0,1-.168-.526.37.37,0,0,1,.505-.175,16.583,16.583,0,0,0,9.53,1.23.378.378,0,0,1,.433.322.389.389,0,0,1-.309.451A16.753,16.753,0,0,1,1389.3,2524.092Z" transform="translate(-1381.964 -2521.802)" fill="#242838"/>
          </g>
        </g>
      </g>
      <g id="Grupo_1131" data-name="Grupo 1131" transform="translate(8.16 36.132)">
        <path id="Trazado_2905" data-name="Trazado 2905" d="M1401.382,2496.491s2.657,5.523,1.594,10.216-5.051,11.876-5.848,14.084-2.924,6.9-3.721,6.9a70.436,70.436,0,0,1-15.683-1.934c-7.975-1.933-22.594-8.284-22.594-8.284l1.329-2.761s8.772,2.485,17.012,1.658a74,74,0,0,1,14.887,0s2.127-10.771,4.252-15.466" transform="translate(-1354.613 -2496.316)" fill="#d5e31c"/>
        <path id="Trazado_2906" data-name="Trazado 2906" d="M1393.59,2528.153a70.823,70.823,0,0,1-15.769-1.943c-7.914-1.92-22.507-8.241-22.654-8.305l-.372-.161,1.646-3.424.3.085c.088.024,8.806,2.456,16.877,1.644a76.338,76.338,0,0,1,14.623-.036c.389-1.917,2.28-10.942,4.211-15.2l.682.332c-2.084,4.6-4.2,15.27-4.224,15.376l-.07.353-.344-.043a74.349,74.349,0,0,0-14.8,0c-7.361.74-15.229-1.169-16.848-1.589l-1.012,2.1c2.333,1,15.015,6.371,22.163,8.1a69.989,69.989,0,0,0,15.6,1.924c.552-.218,2.408-3.994,3.369-6.65.259-.723.831-1.916,1.552-3.426,1.506-3.147,3.567-7.457,4.282-10.612,1.018-4.5-1.54-9.9-1.566-9.951l.675-.35c.111.231,2.706,5.7,1.625,10.481-.735,3.241-2.819,7.6-4.34,10.78-.684,1.431-1.274,2.667-1.521,3.352C1397.638,2521.068,1394.968,2528.153,1393.59,2528.153Z" transform="translate(-1354.795 -2496.382)" fill="#242838"/>
      </g>
      <g id="Grupo_1132" data-name="Grupo 1132" transform="translate(74.586 78.36)">
        <path id="Trazado_2907" data-name="Trazado 2907" d="M1397.828,2525.579l4.578.525s1.232-.64-2.465-3.2" transform="translate(-1397.786 -2522.577)" fill="#fff"/>
        <path id="Trazado_2908" data-name="Trazado 2908" d="M1402.49,2526.628l-4.689-.539.083-.778,4.359.5c-.059-.287-.4-1.009-2.5-2.461l.418-.651c1.951,1.351,2.876,2.4,2.828,3.2a.82.82,0,0,1-.4.68Z" transform="translate(-1397.801 -2522.699)" fill="#242838"/>
      </g>
      <g id="Grupo_1138" data-name="Grupo 1138" transform="translate(51.102 83.258)">
        <g id="Grupo_1134" data-name="Grupo 1134" transform="translate(0 5.687)">
          <g id="Grupo_1133" data-name="Grupo 1133">
            <path id="Trazado_2909" data-name="Trazado 2909" d="M1398.255,2529.361a117.333,117.333,0,0,1,2.393,12.427c1.063,7.455.8,20.158.8,20.158s11.7-1.381,16.746,1.38,23.658,19.054,26.582,19.882c0,0,.8,3.314-1.33,3.865s-32.7-13.254-38.011-13.53-12.734-2.521-14.355-5.8c-1.1-2.225-6.91-19.883-7.176-26.786a99.2,99.2,0,0,0-1.064-11.6" transform="translate(-1382.467 -2529.257)" fill="#242838"/>
            <path id="Trazado_2910" data-name="Trazado 2910" d="M1443.444,2587.519c-1.471,0-6.91-2.142-16.051-5.79-8.938-3.567-19.068-7.61-21.85-7.755-4.842-.25-12.854-2.334-14.67-6.01-1.2-2.425-6.953-20.077-7.218-26.949a99.908,99.908,0,0,0-1.058-11.545l.741-.136a100.478,100.478,0,0,1,1.071,11.651c.261,6.782,5.951,24.224,7.134,26.622,1.474,2.983,8.449,5.3,14.039,5.587,2.9.151,12.651,4.042,22.081,7.8,6.992,2.79,14.919,5.977,15.819,5.738,1.465-.382,1.213-2.516,1.095-3.19-1.855-.76-7.324-5.142-13.1-9.764-5.378-4.309-10.94-8.761-13.333-10.069-4.89-2.674-16.413-1.351-16.527-1.338l-.429.052.009-.448c0-.128.253-12.756-.794-20.094a118.137,118.137,0,0,0-2.382-12.378l.726-.21a118.286,118.286,0,0,1,2.4,12.474c.944,6.617.843,17.462.809,19.781,2.187-.226,11.932-1.05,16.538,1.468,2.45,1.34,8.037,5.814,13.441,10.142,5.71,4.571,11.614,9.3,13.064,9.709l.213.061.054.223c.307,1.277.368,3.829-1.6,4.342A.949.949,0,0,1,1443.444,2587.519Z" transform="translate(-1382.597 -2529.296)" fill="#242838"/>
          </g>
        </g>
        <g id="Grupo_1135" data-name="Grupo 1135" transform="translate(6.975 6.963)">
          <path id="Trazado_2911" data-name="Trazado 2911" d="M1392.04,2554.01a.381.381,0,0,1-.369-.314l-4.55-23.134a.392.392,0,0,1,.293-.462.379.379,0,0,1,.445.306l4.55,23.134a.391.391,0,0,1-.293.462A.307.307,0,0,1,1392.04,2554.01Z" transform="translate(-1387.113 -2530.091)" fill="#fff"/>
        </g>
        <g id="Grupo_1136" data-name="Grupo 1136" transform="translate(5.73 0.633)">
          <path id="Trazado_2912" data-name="Trazado 2912" d="M1387.485,2531.008a.381.381,0,0,1-.369-.315l-.8-4.077a.391.391,0,0,1,.293-.461.377.377,0,0,1,.445.306l.8,4.077a.391.391,0,0,1-.293.462A.378.378,0,0,1,1387.485,2531.008Z" transform="translate(-1386.307 -2526.146)" fill="#fff"/>
        </g>
        <g id="Grupo_1137" data-name="Grupo 1137" transform="translate(7.561)">
          <path id="Trazado_2913" data-name="Trazado 2913" d="M1393.663,2556a.381.381,0,0,1-.369-.313l-5.794-29.465a.391.391,0,0,1,.293-.462.38.38,0,0,1,.445.3l5.793,29.466a.391.391,0,0,1-.293.462A.376.376,0,0,1,1393.663,2556Z" transform="translate(-1387.492 -2525.751)" fill="#fff"/>
        </g>
      </g>
      <g id="Grupo_1139" data-name="Grupo 1139" transform="translate(55.138 112.437)">
        <path id="Trazado_2914" data-name="Trazado 2914" d="M1389.6,2558.721a121.874,121.874,0,0,1-4.053-12.167,31.659,31.659,0,0,0,14.394-2.265c.108,4.74.026,8.634.026,8.634s11.7-1.381,16.746,1.38,23.658,19.054,26.582,19.882c0,0,.8,3.314-1.33,3.865s-32.7-13.254-38.01-13.53S1391.221,2562,1389.6,2558.721Z" transform="translate(-1385.026 -2543.723)" fill="#fff"/>
        <path id="Trazado_2915" data-name="Trazado 2915" d="M1442.021,2578.667c-1.47,0-6.91-2.142-16.051-5.789-8.938-3.567-19.067-7.61-21.849-7.755-4.842-.25-12.854-2.335-14.67-6.011h0a123.457,123.457,0,0,1-4.079-12.232l-.16-.555.554.051a31.321,31.321,0,0,0,14.226-2.241l.5-.2.012.555c.085,3.778.051,7.052.034,8.209,2.187-.227,11.932-1.05,16.538,1.468,2.45,1.34,8.036,5.814,13.441,10.142,5.71,4.571,11.614,9.3,13.064,9.709l.213.061.054.223c.307,1.277.368,3.829-1.6,4.342A.936.936,0,0,1,1442.021,2578.667Zm-55.768-31.464a117.4,117.4,0,0,0,3.867,11.552h0c1.474,2.983,8.449,5.3,14.039,5.587,2.9.151,12.652,4.042,22.081,7.805,6.992,2.79,14.919,5.976,15.819,5.737,1.464-.382,1.212-2.516,1.1-3.19-1.855-.76-7.324-5.142-13.1-9.764-5.378-4.308-10.94-8.76-13.333-10.068-4.89-2.673-16.411-1.351-16.527-1.338l-.43.052.009-.448c0-.039.074-3.639-.014-8.066A32.023,32.023,0,0,1,1386.253,2547.2Z" transform="translate(-1385.21 -2543.936)" fill="#242838"/>
      </g>
      <g id="Grupo_1140" data-name="Grupo 1140" transform="translate(22.848 103.092)">
        <path id="Trazado_2916" data-name="Trazado 2916" d="M1379.647,2598.071s-2.362,2.376-3.886.741-5.331-36.038-7.763-40.956-4.145-12.338-3.174-14.625a25.072,25.072,0,0,1,3.156-4.753,45.707,45.707,0,0,0,10.933,8.067c-1.94,1.17-3.247,1.916-3.247,1.916s7.008,9.826,7.237,15.75S1378.873,2595.026,1379.647,2598.071Z" transform="translate(-1364.172 -2537.892)" fill="#fff"/>
        <path id="Trazado_2917" data-name="Trazado 2917" d="M1377.17,2600a2.065,2.065,0,0,1-1.549-.7c-.755-.812-1.714-6.875-3.345-17.522-1.5-9.823-3.208-20.954-4.481-23.528-2.324-4.7-4.263-12.423-3.183-14.961a24.843,24.843,0,0,1,3.208-4.843l.267-.338.294.312a45.552,45.552,0,0,0,10.838,7.995l.605.328-.592.357c-1.327.8-2.358,1.4-2.88,1.705,1.283,1.855,6.85,10.2,7.059,15.606.11,2.874-.819,10.14-1.719,17.166-.948,7.424-1.932,15.1-1.548,16.61l.057.221-.159.159a6.217,6.217,0,0,1-1.47,1.056A3.156,3.156,0,0,1,1377.17,2600Zm-9.03-60.719a23.132,23.132,0,0,0-2.841,4.328c-.893,2.1.7,9.312,3.165,14.287,1.328,2.684,2.969,13.4,4.556,23.762,1.177,7.688,2.51,16.4,3.141,17.1,1.052,1.129,2.7-.169,3.205-.614-.293-2.049.616-9.159,1.577-16.667.894-6.994,1.819-14.226,1.711-17.031-.221-5.737-7.093-15.437-7.162-15.534l-.258-.359.378-.216s1.046-.6,2.652-1.559A45.98,45.98,0,0,1,1368.141,2539.282Z" transform="translate(-1364.304 -2538.112)" fill="#242838"/>
      </g>
      <g id="Grupo_1141" data-name="Grupo 1141" transform="translate(0 47.286)">
        <path id="Trazado_2918" data-name="Trazado 2918" d="M1392.535,2506.444c-.754,3.128-1.251,5.647-1.251,5.647a73.85,73.85,0,0,0-14.886,0c-8.24.828-16.963-3.566-16.963-3.566l-.782-.881c-.408-1.024-1.089-2.775-1.385-3.7-.354-1.1-3.228.605-3.228.605s-2.661-1.37-3.721.464-.3,5.413-.3,5.413-.089.794,2.382,2.628a9.757,9.757,0,0,0,6.4,1.391,222.739,222.739,0,0,0,21.848,7.033,70.446,70.446,0,0,0,15.684,1.934c.8,0,2.924-4.7,3.721-6.9.262-.729.877-2.006,1.616-3.55A41.076,41.076,0,0,0,1392.535,2506.444Z" transform="translate(-1349.379 -2503.187)" fill="#fff"/>
        <path id="Trazado_2919" data-name="Trazado 2919" d="M1396.467,2523.95a70.836,70.836,0,0,1-15.769-1.943,224.1,224.1,0,0,1-21.817-7.015,10.188,10.188,0,0,1-6.566-1.474c-2.223-1.649-2.521-2.564-2.538-2.9-.088-.433-.722-3.8.351-5.656.925-1.6,2.941-1.2,4.028-.7.608-.342,2.239-1.182,3.082-.845a.858.858,0,0,1,.517.556c.266.823.867,2.391,1.352,3.607l.687.776c.8.387,9.026,4.271,16.7,3.5a76.477,76.477,0,0,1,14.622-.037c.164-.8.6-2.884,1.185-5.316l.115-.473.42.218a41.715,41.715,0,0,1,9.221,6.575l.212.2-.185.387c-.693,1.449-1.293,2.7-1.542,3.392C1400.516,2516.865,1397.845,2523.95,1396.467,2523.95Zm-37.479-9.759.091.039a220.9,220.9,0,0,0,21.791,7.013,70.023,70.023,0,0,0,15.6,1.924c.551-.219,2.407-3.994,3.369-6.649.253-.706.8-1.862,1.5-3.322a41.135,41.135,0,0,0-8.42-6.035c-.68,2.863-1.129,5.13-1.134,5.154l-.07.353-.345-.044a74.379,74.379,0,0,0-14.8,0c-8.256.826-17.075-3.559-17.163-3.6l-.113-.087-.852-1c-.495-1.237-1.12-2.866-1.4-3.724a.1.1,0,0,0-.071-.073c-.451-.182-1.824.427-2.612.894l-.173.1-.181-.092c-.023-.011-2.363-1.186-3.229.314-.97,1.677-.261,5.091-.254,5.125l.014.064-.008.065h0c.01,0,.156.729,2.226,2.265a9.438,9.438,0,0,0,6.135,1.322Z" transform="translate(-1349.512 -2503.333)" fill="#242838"/>
      </g>
      <g id="Grupo_1143" data-name="Grupo 1143" transform="translate(33.716)">
        <g id="Grupo_1142" data-name="Grupo 1142">
          <path id="Trazado_2920" data-name="Trazado 2920" d="M1374.177,2480.753a2.92,2.92,0,0,1-2.564-2.666c-.428-2.552,3.954-4.439,4.7-3.885s0,1.776,0,1.776,2.564-2,2.777-1.11a2.127,2.127,0,0,1,0,1.332s5.45-.665,8.441.779,6.625,5.548,5.236,10.654-4.274,9.436-6.2,9.88-4.7-.444-5.236-1.664.321-1.221-1.816-3-4.6-4.551-3.526-6.882S1375.568,2480.974,1374.177,2480.753Z" transform="translate(-1371.208 -2473.719)" fill="#242838"/>
          <path id="Trazado_2921" data-name="Trazado 2921" d="M1385.577,2498.17c-1.9,0-3.946-.858-4.451-2.013a3.2,3.2,0,0,1-.258-.982c-.053-.432-.093-.743-1.452-1.873-1.894-1.574-4.882-4.623-3.63-7.355a3.869,3.869,0,0,0-.114-3.34,2.336,2.336,0,0,0-1.409-1.321,3.329,3.329,0,0,1-2.889-2.986c-.207-1.23.527-2.491,2.009-3.461,1.143-.746,2.683-1.252,3.283-.808a1.234,1.234,0,0,1,.491,1.111c.7-.455,1.543-.877,2.022-.7a.647.647,0,0,1,.411.478,3.421,3.421,0,0,1,.1.985c1.447-.127,5.591-.361,8.132.863,2.893,1.4,6.927,5.647,5.44,11.118-1.387,5.094-4.292,9.65-6.478,10.156A5.45,5.45,0,0,1,1385.577,2498.17Zm-9.524-23.533a5.184,5.184,0,0,0-2.555,1.066,2.8,2.8,0,0,0-1.381,2.464,2.535,2.535,0,0,0,2.213,2.34l.037,0a2.986,2.986,0,0,1,1.969,1.732,4.685,4.685,0,0,1,.13,4.042c-1.069,2.329,2.036,5.256,3.42,6.407,1.52,1.262,1.647,1.728,1.729,2.382a2.4,2.4,0,0,0,.2.759c.425.97,2.928,1.879,4.811,1.445,1.667-.385,4.507-4.424,5.916-9.6,1.361-5-2.363-8.907-5.031-10.194-2.861-1.38-8.186-.75-8.239-.743l-.693.083.312-.648h0a1.851,1.851,0,0,0-.014-1,6.524,6.524,0,0,0-2.2,1.261l-1.629,1.269,1.086-1.791c0-.009.539-.92.1-1.248A.38.38,0,0,0,1376.054,2474.637Z" transform="translate(-1371.341 -2473.865)" fill="#242838"/>
        </g>
      </g>
      <g id="Grupo_1151" data-name="Grupo 1151" transform="translate(30.684 5.56)">
        <g id="Grupo_1144" data-name="Grupo 1144">
          <path id="Trazado_2922" data-name="Trazado 2922" d="M1374.6,2477.656a10.971,10.971,0,0,0-2.351,5c-.534,3,.428,4.218-.426,5.439s-2.779,2.664-2.031,3.552a5.881,5.881,0,0,0,2.566,1.331,16.1,16.1,0,0,0,.89,4.443c.748,1.777,1.353,5.215,3.384,4.992s7.158-3.552,7.479-5.438a15.351,15.351,0,0,0-.106-4.329s2.243-4.108,1.495-5.884-2.885-.554-3.526.333-.32,2.442-1.388,1.332-.428-2.109-1.069-2.553a1.807,1.807,0,0,1-.534-2.664c.856-1.221,2.244-3,.749-4.44S1375.672,2477.545,1374.6,2477.656Z" transform="translate(-1369.243 -2477.182)" fill="#fff"/>
          <path id="Trazado_2923" data-name="Trazado 2923" d="M1376.573,2502.959c-1.733,0-2.476-2.2-3.08-3.981-.154-.458-.3-.894-.454-1.256a15.6,15.6,0,0,1-.9-4.294,5.659,5.659,0,0,1-2.493-1.38c-.758-.9.247-2.014,1.132-2.994a12.065,12.065,0,0,0,.877-1.046,2.662,2.662,0,0,0,.253-1.919,11.969,11.969,0,0,1,.108-3.36,11.273,11.273,0,0,1,2.448-5.192l.1-.107.14-.015c.93-.1,3.76-.392,5.423,1.213s.269,3.587-.567,4.767l-.133.19a1.413,1.413,0,0,0-.295,1.063,1.746,1.746,0,0,0,.733,1.044,1.436,1.436,0,0,1,.522,1.157,2.135,2.135,0,0,0,.6,1.445,2.209,2.209,0,0,0,.238.218c.034-.095.071-.231.1-.34a3.15,3.15,0,0,1,3.265-2.553,1.694,1.694,0,0,1,1.39,1.132c.749,1.779-1.024,5.311-1.447,6.11a15.251,15.251,0,0,1,.083,4.326c-.355,2.094-5.682,5.527-7.811,5.76A2.226,2.226,0,0,1,1376.573,2502.959Zm-1.649-24.78a10.761,10.761,0,0,0-2.166,4.691,11.244,11.244,0,0,0-.1,3.153,3.366,3.366,0,0,1-.394,2.445,12.5,12.5,0,0,1-.938,1.121c-.667.738-1.423,1.576-1.114,1.942a5.391,5.391,0,0,0,2.366,1.21l.275.067.016.292a15.846,15.846,0,0,0,.858,4.307c.159.381.313.833.476,1.311.57,1.685,1.225,3.589,2.524,3.45,1.982-.218,6.876-3.519,7.148-5.119a14.964,14.964,0,0,0-.108-4.191l-.023-.139.066-.124c.6-1.094,2.029-4.225,1.48-5.533a.965.965,0,0,0-.786-.666,2.735,2.735,0,0,0-2.093,1.079,2.81,2.81,0,0,0-.362.908c-.116.432-.227.841-.609.945s-.706-.188-.988-.479a2.909,2.909,0,0,1-.819-1.913c-.04-.367-.065-.5-.192-.591a2.508,2.508,0,0,1-1.058-1.558,2.2,2.2,0,0,1,.428-1.663l.134-.191c1.041-1.473,1.749-2.683.663-3.732C1378.272,2477.91,1375.889,2478.082,1374.923,2478.179Z" transform="translate(-1369.378 -2477.329)" fill="#242838"/>
        </g>
        <g id="Grupo_1146" data-name="Grupo 1146" transform="translate(4.676 9.106)">
          <g id="Grupo_1145" data-name="Grupo 1145">
            <path id="Trazado_2924" data-name="Trazado 2924" d="M1373.343,2484.116c0,.615-.21,1.114-.468,1.114s-.469-.5-.469-1.114.21-1.112.469-1.112S1373.343,2483.5,1373.343,2484.116Z" transform="translate(-1372.405 -2483.004)" fill="#242838"/>
          </g>
        </g>
        <g id="Grupo_1148" data-name="Grupo 1148" transform="translate(3.897 6.275)">
          <g id="Grupo_1147" data-name="Grupo 1147">
            <path id="Trazado_2925" data-name="Trazado 2925" d="M1374.823,2483.349a.376.376,0,0,1-.338-.217c-.3-.634-.659-1-1.055-1.088a1.18,1.18,0,0,0-.912.243.37.37,0,0,1-.531-.055.4.4,0,0,1,.053-.552,1.932,1.932,0,0,1,1.549-.4,2.457,2.457,0,0,1,1.572,1.5.4.4,0,0,1-.168.525A.363.363,0,0,1,1374.823,2483.349Z" transform="translate(-1371.901 -2481.24)" fill="#242838"/>
          </g>
        </g>
        <g id="Grupo_1150" data-name="Grupo 1150" transform="translate(4.284 15.944)">
          <g id="Grupo_1149" data-name="Grupo 1149">
            <path id="Trazado_2926" data-name="Trazado 2926" d="M1372.739,2489.553c-.085,0-.164,0-.238-.009a.388.388,0,0,1-.349-.418.394.394,0,0,1,.4-.365c.02,0,1.913.12,2.164-1.181a.374.374,0,0,1,.443-.306.392.392,0,0,1,.3.461C1375.178,2489.185,1373.674,2489.553,1372.739,2489.553Z" transform="translate(-1372.151 -2487.266)" fill="#242838"/>
          </g>
        </g>
      </g>
    </g>
  </g>
  <g id="Grupo_1211" data-name="Grupo 1211" transform="translate(136.055 76.637)">
    <g id="Grupo_1155" data-name="Grupo 1155" transform="translate(19.445 187.982)">
      <g id="Grupo_1154" data-name="Grupo 1154">
        <path id="Trazado_2927" data-name="Trazado 2927" d="M1506.214,2592.986c0,1.932-22.265,3.5-49.731,3.5s-49.732-1.566-49.732-3.5,22.265-3.5,49.732-3.5S1506.214,2591.054,1506.214,2592.986Z" transform="translate(-1406.751 -2589.489)" fill="#242838"/>
      </g>
    </g>
    <g id="Grupo_1210" data-name="Grupo 1210">
      <g id="Grupo_1157" data-name="Grupo 1157" transform="translate(0 93.734)">
        <g id="Grupo_1156" data-name="Grupo 1156">
          <path id="Trazado_2928" data-name="Trazado 2928" d="M1443.549,2532.665s-10.084,17.386-12.23,23.627c-2.311,6.72-6.646,9.276-6.865,16.273-.644,20.506-11.733,39.586-12.874,41.905s-4.078,2.228-7.51.892-9.442-2.9-9.656-1.338,3.863,5.8,6.223,7.135,5.579,1.559,6.866,2.9,3.219,3.12,5.579,2.452,3.649-9.14,5.794-12.484,8.368-13.6,13.089-20.283,4.505-20.508,5.15-21.622,10.3-10.922,13.518-15.6,5.15-11.592,5.15-11.592a18.641,18.641,0,0,0,0-7.579C1454.921,2533.109,1451.488,2528.429,1443.549,2532.665Z" transform="translate(-1394.03 -2530.603)" fill="#242838"/>
          <path id="Trazado_2929" data-name="Trazado 2929" d="M1412.166,2627.2c-1.893,0-3.472-1.338-4.8-2.715a8.2,8.2,0,0,0-3.278-1.475,17.308,17.308,0,0,1-3.5-1.357c-2.218-1.257-6.677-5.627-6.415-7.531a.959.959,0,0,1,.473-.7c1.662-1.021,7.7.955,9.687,1.728,2.564,1,5.865,1.685,7.042-.7.1-.2.272-.524.5-.964,7.792-14.676,11.939-28.395,12.329-40.778.134-4.295,1.8-6.986,3.562-9.834a31.218,31.218,0,0,0,3.325-6.555c2.135-6.207,11.85-22.987,12.262-23.7a.376.376,0,0,1,.151-.146c3.465-1.849,6.393-2.2,8.708-1.058a8.286,8.286,0,0,1,4.064,6.006,18.876,18.876,0,0,1,0,7.76c-.023.077-1.989,7.036-5.207,11.718-2.039,2.962-6.577,7.9-9.89,11.505-1.823,1.983-3.4,3.694-3.613,4.071a19.922,19.922,0,0,0-.389,3.055c-.438,4.754-1.254,13.6-4.781,18.6-3.547,5.026-7.926,12.041-10.824,16.681-.944,1.513-1.724,2.762-2.254,3.588a28.688,28.688,0,0,0-2.3,5.741c-1.091,3.32-2.123,6.455-3.7,6.9A4.191,4.191,0,0,1,1412.166,2627.2Zm-16.124-13.289a2.077,2.077,0,0,0-1.012.183c-.1.063-.108.114-.111.138-.165,1.208,3.5,5.3,6.03,6.736a16.825,16.825,0,0,0,3.355,1.292,8.586,8.586,0,0,1,3.6,1.672c1.432,1.487,3.172,2.927,5.213,2.351,1.2-.339,2.255-3.559,3.188-6.4a28.976,28.976,0,0,1,2.391-5.921c.528-.824,1.307-2.07,2.249-3.58,2.9-4.648,7.287-11.674,10.849-16.719,3.4-4.819,4.206-13.528,4.637-18.209a12.814,12.814,0,0,1,.493-3.382,54.5,54.5,0,0,1,3.715-4.209c3.3-3.588,7.814-8.5,9.82-11.42,3.143-4.571,5.076-11.4,5.094-11.473a18.4,18.4,0,0,0-.006-7.389,7.52,7.52,0,0,0-3.65-5.458c-2.071-1.027-4.743-.692-7.945.995-.808,1.4-10.115,17.567-12.142,23.462a31.852,31.852,0,0,1-3.4,6.716c-1.778,2.876-3.313,5.358-3.441,9.438-.392,12.506-4.572,26.344-12.423,41.129-.227.429-.4.747-.493.942-.791,1.6-2.814,3.092-7.977,1.08A27.759,27.759,0,0,0,1396.042,2613.907Z" transform="translate(-1394.162 -2530.752)" fill="#242838"/>
        </g>
      </g>
      <g id="Grupo_1158" data-name="Grupo 1158" transform="translate(57.931 41.243)">
        <path id="Trazado_2930" data-name="Trazado 2930" d="M1436.855,2498.282a20.821,20.821,0,0,1,6.844,6.321c2.471,3.948,7.961,15.3,8.744,16.787,1.141,2.17.19,3.356-2.091,4.738-1.05.637-11.215,5.135-13.306,6.123a14.569,14.569,0,0,1-4.373,1.184l-.76-3.553,10.265-8.888s-1.712-2.171-3.231-7.307S1431.912,2501.443,1436.855,2498.282Z" transform="translate(-1431.535 -2497.891)" fill="#fff"/>
        <path id="Trazado_2931" data-name="Trazado 2931" d="M1432.805,2533.974a.38.38,0,0,1-.368-.306l-.76-3.554a.4.4,0,0,1,.126-.385l9.992-8.652a26.359,26.359,0,0,1-3.077-7.128,35.247,35.247,0,0,0-1.749-4.305c-1.926-4.234-4.11-9.035-.18-11.547a.363.363,0,0,1,.372-.014,20.946,20.946,0,0,1,6.984,6.453c1.933,3.088,5.638,10.545,7.627,14.551.555,1.115.959,1.932,1.134,2.262,1.3,2.471.108,3.848-2.233,5.264-.709.43-5.321,2.512-9.028,4.182-1.926.868-3.6,1.62-4.312,1.959a14.745,14.745,0,0,1-4.5,1.218Zm-.342-3.8.636,2.979a14.148,14.148,0,0,0,3.922-1.112c.719-.34,2.394-1.095,4.325-1.966,3.492-1.574,8.277-3.732,8.949-4.138,2.42-1.466,2.875-2.451,1.949-4.213-.174-.333-.584-1.157-1.141-2.279-1.983-3.993-5.676-11.428-7.588-14.483a20.408,20.408,0,0,0-6.512-6.078c-3.1,2.183-1.194,6.373.649,10.425a35.52,35.52,0,0,1,1.787,4.409,23.522,23.522,0,0,0,3.163,7.174.4.4,0,0,1-.051.549Z" transform="translate(-1431.668 -2498.038)" fill="#242838"/>
      </g>
      <g id="Grupo_1165" data-name="Grupo 1165" transform="translate(65.725 12.409)">
        <g id="Grupo_1160" data-name="Grupo 1160">
          <g id="Grupo_1159" data-name="Grupo 1159">
            <path id="Trazado_2932" data-name="Trazado 2932" d="M1436.958,2485.842s3.992-.395,5.323,2.962,1.141,8.1-.19,14.023,1.141,11.059,3.041,11.85a4.914,4.914,0,0,0,3.423.2l-.951-4.345a15.793,15.793,0,0,0,8.745,6.122c5.893,1.581,15.778-2.37,19.01-6.911s2.661-9.875,1.52-8.69-6.082,2.567-9.885-2.173-5.322-12.441-8.934-15.4-12.547-.987-12.547-.987,5.323-2.172,2.281-2.172A12.994,12.994,0,0,0,1436.958,2485.842Z" transform="translate(-1436.581 -2479.922)" fill="#242838"/>
            <path id="Trazado_2933" data-name="Trazado 2933" d="M1459.459,2517.549a11.927,11.927,0,0,1-3.072-.37,16.251,16.251,0,0,1-7.922-4.937l.59,2.695a.394.394,0,0,1-.235.452,5.236,5.236,0,0,1-3.694-.2c-2.2-.913-4.62-6.284-3.27-12.3,1.381-6.147,1.45-10.657.21-13.786-1.211-3.054-4.9-2.721-4.939-2.721a.363.363,0,0,1-.363-.2.4.4,0,0,1,.025-.425,13.375,13.375,0,0,1,11.138-5.688c.392,0,1.2,0,1.307.567.034.179.1.52-.976,1.177,2.989-.36,7.7-.524,10.169,1.5,2.017,1.654,3.374,4.666,4.81,7.856a35.585,35.585,0,0,0,4.181,7.6,7.7,7.7,0,0,0,5.714,3.17,5.185,5.185,0,0,0,3.616-1.023.685.685,0,0,1,1.017-.105c.948.848.763,5.465-1.968,9.3C1473.084,2513.929,1465.5,2517.549,1459.459,2517.549Zm-11.722-7.264a.374.374,0,0,1,.315.178,15.554,15.554,0,0,0,8.523,5.956c5.857,1.571,15.611-2.546,18.612-6.764,2.647-3.719,2.562-7.658,2.12-8.209l-.029.028a5.806,5.806,0,0,1-4.185,1.252,8.42,8.42,0,0,1-6.257-3.45,36.173,36.173,0,0,1-4.285-7.774c-1.4-3.1-2.719-6.034-4.595-7.573-3.431-2.814-12.146-.931-12.235-.912a.377.377,0,0,1-.439-.271.394.394,0,0,1,.222-.477,16.15,16.15,0,0,0,2.776-1.4c-.089-.009-.207-.015-.357-.015a12.658,12.658,0,0,0-10.063,4.748,5.353,5.353,0,0,1,4.9,3.2c1.3,3.286,1.245,7.95-.172,14.261-1.282,5.711,1.128,10.695,2.814,11.4a4.762,4.762,0,0,0,2.834.282l-.87-3.978a.394.394,0,0,1,.219-.446A.344.344,0,0,1,1447.738,2510.285Z" transform="translate(-1436.714 -2480.069)" fill="#242838"/>
          </g>
        </g>
        <g id="Grupo_1161" data-name="Grupo 1161" transform="translate(29.575 32.196)">
          <path id="Trazado_2934" data-name="Trazado 2934" d="M1456.145,2502.529a.284.284,0,0,1-.268-.2.3.3,0,0,1,.178-.372,11.149,11.149,0,0,0,3.239-1.764.277.277,0,0,1,.4.056.3.3,0,0,1-.054.412,11.746,11.746,0,0,1-3.4,1.852A.306.306,0,0,1,1456.145,2502.529Z" transform="translate(-1455.862 -2500.134)" fill="#fff"/>
        </g>
        <g id="Grupo_1162" data-name="Grupo 1162" transform="translate(4.876 4.957)">
          <path id="Trazado_2935" data-name="Trazado 2935" d="M1460.215,2513.558c-4.808,0-9.271-2.286-11.062-5.841-1.522-3.02-1.8-6.713-2.071-10.287-.266-3.514-.54-7.147-2.009-10.061-1.435-2.846-2.623-3.537-3.367-3.615a1.6,1.6,0,0,0-1.331.555.278.278,0,0,1-.4.043.3.3,0,0,1-.043-.412,2.137,2.137,0,0,1,1.818-.772c1.287.129,2.572,1.45,3.821,3.928,1.523,3.021,1.8,6.715,2.072,10.288.265,3.513.541,7.147,2.009,10.061,1.928,3.823,7.158,6.1,12.455,5.4a.285.285,0,0,1,.315.253.292.292,0,0,1-.246.329A15.307,15.307,0,0,1,1460.215,2513.558Z" transform="translate(-1439.871 -2483.158)" fill="#fff"/>
        </g>
        <g id="Grupo_1163" data-name="Grupo 1163" transform="translate(16.828 7.711)">
          <path id="Trazado_2936" data-name="Trazado 2936" d="M1460.965,2507.635a9.636,9.636,0,0,1-1-.051,9.9,9.9,0,0,1-7.4-4.84c-1.645-2.7-2.254-6.354-2.844-9.885-.5-3.013-.978-5.858-2.065-7.526a.3.3,0,0,1,.074-.409.279.279,0,0,1,.394.079c1.157,1.773,1.642,4.678,2.155,7.755.579,3.473,1.18,7.066,2.765,9.672a9.331,9.331,0,0,0,6.975,4.567c3.525.369,7.264-1.365,10.536-4.9a.274.274,0,0,1,.4-.006.3.3,0,0,1,.008.414C1467.875,2505.842,1464.36,2507.635,1460.965,2507.635Z" transform="translate(-1447.609 -2484.875)" fill="#fff"/>
        </g>
        <g id="Grupo_1164" data-name="Grupo 1164" transform="translate(12.207 4.845)">
          <path id="Trazado_2937" data-name="Trazado 2937" d="M1447.051,2484.457a.263.263,0,0,1-.125-.031,9.754,9.754,0,0,0-2.091-.759.3.3,0,0,1-.21-.353.282.282,0,0,1,.34-.218,10.173,10.173,0,0,1,2.21.8.3.3,0,0,1,.13.392A.283.283,0,0,1,1447.051,2484.457Z" transform="translate(-1444.617 -2483.088)" fill="#fff"/>
        </g>
      </g>
      <g id="Grupo_1167" data-name="Grupo 1167" transform="translate(44.436 22.291)">
        <g id="Grupo_1166" data-name="Grupo 1166">
          <path id="Trazado_2938" data-name="Trazado 2938" d="M1430.67,2495.833a34.4,34.4,0,0,1,2.575,6.019c.43,2.006.644,4.681-3.432,8.471s-7.511,9.361-6.437,12.928,3.648,11.369,4.505,17.832-1.072,16.272-.643,20.063,5.365,10.253,12.015,13.6,13.089-5.35,13.733-11.592-4.077-13.6-6.652-16.941-3.219-2.9-3.219-4.9,3.649-23.628,2.362-31.429-4.722-9.363-5.364-11.591-2.575-11.813-2.575-11.813Z" transform="translate(-1422.797 -2486.08)" fill="#242838"/>
          <path id="Trazado_2939" data-name="Trazado 2939" d="M1442.407,2576.021a7.05,7.05,0,0,1-3.183-.779c-6.756-3.4-11.776-9.93-12.226-13.9a44.988,44.988,0,0,1,.329-7.4c.377-4.2.8-8.965.315-12.654a107.794,107.794,0,0,0-4-16.156c-.185-.6-.352-1.145-.494-1.613-1.171-3.895,2.572-9.644,6.546-13.338,3.884-3.612,3.749-6.071,3.316-8.093a34.193,34.193,0,0,0-2.536-5.913.407.407,0,0,1,.029-.429l6.867-9.361a.362.362,0,0,1,.382-.145.382.382,0,0,1,.286.3c.02.095,1.935,9.594,2.567,11.781a6.881,6.881,0,0,0,1.264,2.05,19.166,19.166,0,0,1,4.112,9.588c.972,5.889-.829,19.5-1.8,26.806-.311,2.351-.557,4.208-.557,4.689,0,1.126.176,1.311,1.024,2.2a28.419,28.419,0,0,1,2.113,2.455c1.759,2.287,7.448,10.284,6.731,17.227-.463,4.5-3.562,9.469-7.207,11.573A7.743,7.743,0,0,1,1442.407,2576.021Zm-11.155-80.005a31.97,31.97,0,0,1,2.5,5.9c.513,2.4.439,5.138-3.551,8.849-3.92,3.644-7.352,9.113-6.328,12.519.141.469.308,1.009.493,1.611a108.552,108.552,0,0,1,4.027,16.284c.5,3.779.071,8.59-.311,12.834a44.912,44.912,0,0,0-.332,7.235c.417,3.691,5.369,10.056,11.805,13.29a6.454,6.454,0,0,0,6.37-.309c3.789-2.185,6.444-7.294,6.824-10.971.686-6.646-4.856-14.429-6.571-16.654a27.667,27.667,0,0,0-2.062-2.4,3.184,3.184,0,0,1-1.241-2.753c0-.532.226-2.229.566-4.8.962-7.269,2.754-20.8,1.8-26.567a18.222,18.222,0,0,0-3.959-9.231,7.344,7.344,0,0,1-1.395-2.314c-.536-1.855-1.926-8.612-2.414-11.008Z" transform="translate(-1422.931 -2486.228)" fill="#242838"/>
        </g>
      </g>
      <g id="Grupo_1168" data-name="Grupo 1168" transform="translate(51.932 22.292)">
        <path id="Trazado_2940" data-name="Trazado 2940" d="M1440.366,2502.715c-1.262-2.107-2.53-3.162-2.9-4.43-.644-2.229-2.575-11.813-2.575-11.813l-6.867,9.362a34.4,34.4,0,0,1,2.575,6.019,7.072,7.072,0,0,1-1.585,6.478Z" transform="translate(-1427.652 -2486.081)" fill="#fff"/>
        <path id="Trazado_2941" data-name="Trazado 2941" d="M1429.151,2508.869a.374.374,0,0,1-.3-.149.4.4,0,0,1,0-.488,6.655,6.655,0,0,0,1.511-6.147,34.288,34.288,0,0,0-2.536-5.913.406.406,0,0,1,.029-.429l6.867-9.361a.372.372,0,0,1,.382-.145.382.382,0,0,1,.286.3c.02.095,1.935,9.594,2.568,11.781a6.864,6.864,0,0,0,1.265,2.054,23.411,23.411,0,0,1,1.593,2.282.408.408,0,0,1,.04.318.387.387,0,0,1-.2.242l-11.348,5.614A.362.362,0,0,1,1429.151,2508.869Zm-.542-12.853a31.937,31.937,0,0,1,2.5,5.9,7.192,7.192,0,0,1-.817,5.567l9.663-4.78c-.457-.72-.908-1.309-1.313-1.838a7.377,7.377,0,0,1-1.4-2.317c-.536-1.855-1.926-8.611-2.414-11.007Z" transform="translate(-1427.784 -2486.228)" fill="#242838"/>
      </g>
      <g id="Grupo_1176" data-name="Grupo 1176" transform="translate(41.829 10.254)">
        <g id="Grupo_1169" data-name="Grupo 1169">
          <path id="Trazado_2942" data-name="Trazado 2942" d="M1423.866,2484.32a6.545,6.545,0,0,0-.215,2.675c.215,1.339,1.074,1.783,0,2.9s-2.789,2.006-1.931,2.675a22,22,0,0,0,2.575,1.56s.644,5.573,1.5,7.134,3.863,1.114,5.793.223,6.438-3.344,7.51-5.572,2.575-8.025,2.147-10.923-7.3-6.019-11.158-6.019S1423.436,2481.2,1423.866,2484.32Z" transform="translate(-1421.11 -2478.578)" fill="#fff"/>
          <path id="Trazado_2943" data-name="Trazado 2943" d="M1428.26,2502.836a2.823,2.823,0,0,1-2.658-1.234c-.8-1.454-1.394-6.023-1.523-7.073a20.393,20.393,0,0,1-2.451-1.5.9.9,0,0,1-.385-.7c-.009-.592.575-1.08,1.313-1.7a12.424,12.424,0,0,0,.962-.865c.561-.583.469-.815.227-1.434a5.137,5.137,0,0,1-.332-1.122,6.858,6.858,0,0,1,.2-2.773,4.463,4.463,0,0,1,1.013-3.48,7.177,7.177,0,0,1,5.593-2.228c3.89,0,11.055,3.139,11.53,6.352.428,2.891-1.028,8.761-2.182,11.156-1.347,2.8-7.434,5.635-7.694,5.756A9.276,9.276,0,0,1,1428.26,2502.836Zm1.962-23.327a6.449,6.449,0,0,0-5.023,1.957,3.692,3.692,0,0,0-.826,2.946.407.407,0,0,1-.015.178,6.151,6.151,0,0,0-.2,2.487,4.449,4.449,0,0,0,.287.955,1.8,1.8,0,0,1-.392,2.285,13.145,13.145,0,0,1-1.023.92c-.411.345-1.035.866-1.032,1.075,0,.005.016.037.082.09a21.709,21.709,0,0,0,2.518,1.523.386.386,0,0,1,.205.3c.008.056.644,5.512,1.457,6.986.718,1.308,3.546.874,5.312.06,2.105-.973,6.343-3.351,7.326-5.39.991-2.06,2.53-7.854,2.11-10.688C1440.624,2482.614,1434.057,2479.51,1430.222,2479.51Z" transform="translate(-1421.243 -2478.726)" fill="#242838"/>
        </g>
        <g id="Grupo_1171" data-name="Grupo 1171" transform="translate(5.077 8.83)">
          <g id="Grupo_1170" data-name="Grupo 1170">
            <ellipse id="Elipse_71" data-name="Elipse 71" cx="0.563" cy="1.336" rx="0.563" ry="1.336" fill="#242838"/>
          </g>
        </g>
        <g id="Grupo_1173" data-name="Grupo 1173" transform="translate(3.647 6.287)">
          <g id="Grupo_1172" data-name="Grupo 1172">
            <path id="Trazado_2944" data-name="Trazado 2944" d="M1427.036,2485.017a.377.377,0,0,1-.338-.217c-.377-.783-.82-1.236-1.318-1.347a1.508,1.508,0,0,0-1.16.306.368.368,0,0,1-.531-.056.4.4,0,0,1,.054-.55,2.229,2.229,0,0,1,1.795-.465,2.874,2.874,0,0,1,1.835,1.761.4.4,0,0,1-.168.526A.371.371,0,0,1,1427.036,2485.017Z" transform="translate(-1423.604 -2482.645)" fill="#242838"/>
          </g>
        </g>
        <g id="Grupo_1175" data-name="Grupo 1175" transform="translate(4.878 14.9)">
          <g id="Grupo_1174" data-name="Grupo 1174">
            <path id="Trazado_2945" data-name="Trazado 2945" d="M1425.033,2490.6q-.149,0-.281-.01a.392.392,0,0,1,.054-.781c.025,0,2.363.149,2.677-1.481a.378.378,0,0,1,.443-.308.393.393,0,0,1,.295.462C1427.9,2490.173,1426.131,2490.6,1425.033,2490.6Z" transform="translate(-1424.401 -2488.012)" fill="#242838"/>
          </g>
        </g>
      </g>
      <g id="Grupo_1178" data-name="Grupo 1178" transform="translate(50.539 9.311)">
        <g id="Grupo_1177" data-name="Grupo 1177">
          <path id="Trazado_2946" data-name="Trazado 2946" d="M1427.387,2480.876s-1.3,3.716,1.953,7.77,7.8,1.352,7.8,1.352-3.858,6.119-1.117,6.269,6.246-2.446,6.283-9.257S1435.518,2475.132,1427.387,2480.876Z" transform="translate(-1426.747 -2477.992)" fill="#242838"/>
          <path id="Trazado_2947" data-name="Trazado 2947" d="M1436.384,2496.812c-.08,0-.162,0-.243-.006a1.285,1.285,0,0,1-1.175-.713c-.585-1.2.593-3.684,1.386-5.12a6.125,6.125,0,0,1-7.168-1.928c-3.352-4.18-2.072-8-2.016-8.156a.383.383,0,0,1,.142-.189c3.888-2.745,7.94-3.313,11.114-1.556a8.978,8.978,0,0,1,4.4,8.018c-.024,4.462-1.484,6.826-2.706,8.023A5.414,5.414,0,0,1,1436.384,2496.812Zm.893-7.058a.368.368,0,0,1,.275.123.4.4,0,0,1,.042.481c-1,1.586-2.413,4.447-1.955,5.381.054.113.17.263.543.284a4.579,4.579,0,0,0,3.417-1.408c1.115-1.091,2.446-3.272,2.47-7.458a8.194,8.194,0,0,0-4-7.322c-2.893-1.6-6.614-1.076-10.23,1.438-.182.645-.865,3.8,1.923,7.27,3.006,3.748,7.153,1.366,7.329,1.263A.352.352,0,0,1,1437.277,2489.754Z" transform="translate(-1426.882 -2478.138)" fill="#242838"/>
        </g>
      </g>
      <g id="Grupo_1181" data-name="Grupo 1181" transform="translate(32.718 0.224)">
        <g id="Grupo_1179" data-name="Grupo 1179" transform="translate(0 11.145)">
          <path id="Trazado_2948" data-name="Trazado 2948" d="M1427.507,2479.665s-13.3,1.337-11.8,2.675,7.724,1.56,11.371,1.56a26.341,26.341,0,0,0,7.862-1.6Z" transform="translate(-1415.212 -2479.273)" fill="#d5e31c"/>
          <path id="Trazado_2949" data-name="Trazado 2949" d="M1427.211,2484.439c-3.644,0-10-.215-11.617-1.654a.653.653,0,0,1-.224-.692c.394-1.293,7.834-2.229,12.235-2.67a.334.334,0,0,1,.158.019l7.432,2.633a.4.4,0,0,1,.008.74A26.454,26.454,0,0,1,1427.211,2484.439Zm-11.033-2.176c1.2.878,5.281,1.393,11.033,1.393a24.055,24.055,0,0,0,6.674-1.216l-6.289-2.229C1422.535,2480.722,1417.084,2481.607,1416.178,2482.263Z" transform="translate(-1415.345 -2479.421)" fill="#242838"/>
        </g>
        <g id="Grupo_1180" data-name="Grupo 1180" transform="translate(11.919)">
          <path id="Trazado_2950" data-name="Trazado 2950" d="M1423.305,2483.865l21.457,8.692s2.36-6.91,1.5-11.367-6.651-8.47-12.444-8.47S1424.379,2475.84,1423.305,2483.865Z" transform="translate(-1422.929 -2472.328)" fill="#d5e31c"/>
          <path id="Trazado_2951" data-name="Trazado 2951" d="M1444.895,2493.1a.375.375,0,0,1-.137-.027l-21.456-8.694a.392.392,0,0,1-.236-.419c1.046-7.834,4.505-11.482,10.886-11.482,5.925,0,11.913,4.1,12.814,8.785.87,4.512-1.418,11.29-1.515,11.575a.383.383,0,0,1-.2.225A.355.355,0,0,1,1444.895,2493.1Zm-21.04-9.337,20.808,8.43c.469-1.5,2.077-7.067,1.364-10.778-.838-4.344-6.48-8.155-12.076-8.155C1428.1,2473.258,1424.887,2476.6,1423.855,2483.76Z" transform="translate(-1423.062 -2472.475)" fill="#242838"/>
        </g>
      </g>
      <g id="Grupo_1185" data-name="Grupo 1185" transform="translate(54.936)">
        <g id="Grupo_1182" data-name="Grupo 1182" transform="translate(3.862)">
          <path id="Trazado_2952" data-name="Trazado 2952" d="M1432.474,2489.3l1.073-16.718,1.931.669-1.073,16.718Z" transform="translate(-1432.097 -2472.188)" fill="#fff"/>
          <path id="Trazado_2953" data-name="Trazado 2953" d="M1434.538,2490.5a.384.384,0,0,1-.119-.019l-1.932-.669a.391.391,0,0,1-.256-.4l1.072-16.719a.4.4,0,0,1,.167-.3.365.365,0,0,1,.329-.047l1.932.669a.393.393,0,0,1,.257.4l-1.074,16.718a.4.4,0,0,1-.165.3A.374.374,0,0,1,1434.538,2490.5ZM1433,2489.17l1.191.412,1.022-15.911-1.193-.412Z" transform="translate(-1432.229 -2472.335)" fill="#242838"/>
        </g>
        <g id="Grupo_1183" data-name="Grupo 1183" transform="translate(0 15.604)">
          <path id="Trazado_2954" data-name="Trazado 2954" d="M1438.985,2486.985a4.509,4.509,0,1,0-4.507,4.682A4.6,4.6,0,0,0,1438.985,2486.985Z" transform="translate(-1429.596 -2481.913)" fill="#fff"/>
          <path id="Trazado_2955" data-name="Trazado 2955" d="M1434.612,2492.206a5.077,5.077,0,1,1,4.884-5.073A4.986,4.986,0,0,1,1434.612,2492.206Zm0-9.362a4.293,4.293,0,1,0,4.13,4.289A4.215,4.215,0,0,0,1434.612,2482.844Z" transform="translate(-1429.729 -2482.06)" fill="#242838"/>
        </g>
        <g id="Grupo_1184" data-name="Grupo 1184" transform="translate(2.077 17.762)">
          <path id="Trazado_2956" data-name="Trazado 2956" d="M1436.176,2486.171a2.431,2.431,0,1,0-2.43,2.524A2.477,2.477,0,0,0,1436.176,2486.171Z" transform="translate(-1430.941 -2483.258)" fill="#fff"/>
          <path id="Trazado_2957" data-name="Trazado 2957" d="M1433.879,2489.234a2.917,2.917,0,1,1,2.807-2.916A2.866,2.866,0,0,1,1433.879,2489.234Zm0-5.046a2.133,2.133,0,1,0,2.053,2.13A2.094,2.094,0,0,0,1433.879,2484.188Z" transform="translate(-1431.074 -2483.406)" fill="#242838"/>
        </g>
      </g>
      <g id="Grupo_1191" data-name="Grupo 1191" transform="translate(60.729 86.711)">
        <g id="Grupo_1187" data-name="Grupo 1187">
          <g id="Grupo_1186" data-name="Grupo 1186">
            <path id="Trazado_2958" data-name="Trazado 2958" d="M1433.724,2542.445s2.36,18.055,4.505,28.085,6.866,19.393,9.013,20.509,13.517,2.9,22.314,4.234,22.959,2.229,22.959,2.229,1.93,6.911,1.93,9.809-1.072,6.464.644,6.686,4.293-5.8,4.935-8.471.859-9.138,1.5-11.59.43-2.9-2.36-3.121-5.15,0-7.082-.446-12.659-2.452-17.809-5.573-14.59-3.344-15.878-3.344h-3.647s-1.718-14.711-1.718-20.061.215-16.718-3-24.3-6.867-10.476-7.939-10.476" transform="translate(-1433.347 -2526.228)" fill="#242838"/>
            <path id="Trazado_2959" data-name="Trazado 2959" d="M1495.311,2614.542a.889.889,0,0,1-.134-.01c-1.585-.205-1.373-2.3-1.149-4.517.086-.854.174-1.736.174-2.557,0-2.493-1.494-8.145-1.843-9.435-1.994-.13-14.675-.991-22.724-2.215-10.432-1.586-20.368-3.2-22.43-4.273-2.414-1.255-7.137-11.086-9.21-20.773-2.125-9.931-4.489-27.938-4.512-28.118a.389.389,0,0,1,.323-.441.375.375,0,0,1,.423.335c.024.18,2.384,18.154,4.5,28.054,2.151,10.055,6.83,19.211,8.813,20.241,2.236,1.164,15.721,3.214,22.2,4.2,8.681,1.319,22.784,2.216,22.926,2.226a.378.378,0,0,1,.34.281c.079.285,1.945,7,1.945,9.917,0,.862-.091,1.765-.178,2.639-.218,2.144-.3,3.556.493,3.659,1.229.14,3.772-5.056,4.521-8.177a50.934,50.934,0,0,0,.735-5.736,45.566,45.566,0,0,1,.769-5.863c.271-1.027.394-1.728.178-2.046-.241-.355-1.055-.489-2.2-.581-1.086-.087-2.094-.1-3.07-.122a20.058,20.058,0,0,1-4.064-.333c-.226-.051-.572-.124-1.018-.219-3.364-.714-12.3-2.611-16.9-5.4-5.368-3.252-15.586-3.291-15.688-3.291h-3.647a.382.382,0,0,1-.374-.343c-.018-.148-1.72-14.8-1.72-20.109l0-.948c.012-5.629.034-16.111-2.974-23.192-3.308-7.79-6.878-10.242-7.595-10.242a.392.392,0,0,1,0-.783c1.3,0,5.071,3.142,8.284,10.709,3.072,7.233,3.05,17.822,3.038,23.51v.945c0,4.813,1.417,17.421,1.673,19.669h3.313c.1,0,10.526.038,16.068,3.4,4.49,2.721,13.339,4.6,16.671,5.305.451.1.8.171,1.03.224a19.577,19.577,0,0,0,3.914.313c.987.018,2.006.037,3.114.125,1.47.117,2.346.3,2.762.909.392.578.286,1.365-.066,2.7a46.664,46.664,0,0,0-.748,5.733,51.146,51.146,0,0,1-.752,5.849C1500,2607.935,1497.478,2614.541,1495.311,2614.542Z" transform="translate(-1433.48 -2526.375)" fill="#242838"/>
          </g>
        </g>
        <g id="Grupo_1188" data-name="Grupo 1188" transform="translate(32.997 61.913)">
          <path id="Trazado_2960" data-name="Trazado 2960" d="M1458.238,2566.512a.4.4,0,0,1-.09-.012l-3.018-.769a.391.391,0,0,1-.277-.472.375.375,0,0,1,.456-.288l3.019.769a.39.39,0,0,1,.275.473A.377.377,0,0,1,1458.238,2566.512Z" transform="translate(-1454.843 -2564.96)" fill="#fff"/>
        </g>
        <g id="Grupo_1189" data-name="Grupo 1189" transform="translate(12.233 12.841)">
          <path id="Trazado_2961" data-name="Trazado 2961" d="M1459.166,2583.373a.469.469,0,0,1-.091-.011l-9.632-2.455a1.988,1.988,0,0,1-1.823.107,1.932,1.932,0,0,1-.737-1.791c0-.865-.262-3.864-.595-7.664-.65-7.421-1.54-17.586-1.54-23.385,0-3.485-1.148-8.068-3.318-13.251a.4.4,0,0,1,.2-.515.375.375,0,0,1,.5.2c2.243,5.355,3.38,9.918,3.38,13.562,0,5.764.888,15.908,1.537,23.315.347,3.969.6,6.834.6,7.734,0,.409.063.932.36,1.114.36.218,1.012-.069,1.213-.187l.13-.076,9.916,2.527a.391.391,0,0,1,.275.474A.379.379,0,0,1,1459.166,2583.373Z" transform="translate(-1441.4 -2534.378)" fill="#fff"/>
        </g>
        <g id="Grupo_1190" data-name="Grupo 1190" transform="translate(8.567 5.336)">
          <path id="Trazado_2962" data-name="Trazado 2962" d="M1441.718,2534.96a.376.376,0,0,1-.338-.219c-1.254-2.648-2.288-4.428-2.3-4.446a.4.4,0,0,1,.127-.537.368.368,0,0,1,.517.131c.011.018,1.061,1.826,2.331,4.506a.4.4,0,0,1-.172.524A.364.364,0,0,1,1441.718,2534.96Z" transform="translate(-1439.027 -2529.701)" fill="#fff"/>
        </g>
      </g>
      <g id="Grupo_1192" data-name="Grupo 1192" transform="translate(95.808 143.489)">
        <path id="Trazado_2963" data-name="Trazado 2963" d="M1486.8,2569.423c-2.789-.223-5.149,0-7.082-.446s-12.66-2.452-17.809-5.573a16.2,16.2,0,0,0-3.086-1.4,16.435,16.435,0,0,1-.561,7.643,37.649,37.649,0,0,1-1.827,4.12l.754.114c8.8,1.338,22.958,2.229,22.958,2.229s1.931,6.911,1.931,9.809-1.072,6.463.644,6.686,4.292-5.8,4.935-8.471.858-9.138,1.5-11.59S1489.589,2569.646,1486.8,2569.423Z" transform="translate(-1456.058 -2561.612)" fill="#fff"/>
        <path id="Trazado_2964" data-name="Trazado 2964" d="M1482.943,2593.149a.918.918,0,0,1-.134-.01c-1.585-.205-1.373-2.3-1.149-4.516.086-.854.174-1.737.174-2.558,0-2.493-1.494-8.145-1.843-9.435-1.994-.13-14.675-.991-22.724-2.215l-.755-.115a.38.38,0,0,1-.283-.212.41.41,0,0,1,.006-.362,36.78,36.78,0,0,0,1.807-4.076,15.668,15.668,0,0,0,.539-7.447.4.4,0,0,1,.135-.354.365.365,0,0,1,.358-.069,16.7,16.7,0,0,1,3.157,1.433c4.49,2.721,13.339,4.6,16.671,5.307.451.1.8.17,1.03.224a19.579,19.579,0,0,0,3.914.312c.987.017,2.006.037,3.114.125,1.471.117,2.346.3,2.762.909.392.578.286,1.365-.066,2.7a46.645,46.645,0,0,0-.748,5.733,51.181,51.181,0,0,1-.752,5.849C1487.636,2586.542,1485.11,2593.148,1482.943,2593.149Zm-25.791-19.542.225.034c8.679,1.319,22.784,2.216,22.926,2.226a.379.379,0,0,1,.34.281c.079.285,1.945,7,1.945,9.917,0,.862-.091,1.765-.177,2.64-.218,2.144-.3,3.555.493,3.658,1.229.139,3.772-5.056,4.521-8.177a50.865,50.865,0,0,0,.735-5.737,45.592,45.592,0,0,1,.77-5.863c.27-1.027.394-1.727.177-2.046-.241-.354-1.055-.49-2.2-.58h0c-1.086-.088-2.094-.1-3.071-.123a20.1,20.1,0,0,1-4.064-.332c-.225-.051-.571-.125-1.018-.22-3.364-.714-12.3-2.61-16.9-5.4a14.939,14.939,0,0,0-2.449-1.163,15.865,15.865,0,0,1-.656,7.209A39.427,39.427,0,0,1,1457.152,2573.607Z" transform="translate(-1456.191 -2561.76)" fill="#242838"/>
      </g>
      <g id="Grupo_1196" data-name="Grupo 1196" transform="translate(119.521 150.805)">
        <g id="Grupo_1193" data-name="Grupo 1193">
          <path id="Trazado_2965" data-name="Trazado 2965" d="M1478.44,2566.666c-.726-.058-1.421-.085-2.089-.1a5.959,5.959,0,0,1,.156,1.217c0,1.785-1.286,4.906-2.79,4.906s-1.93.668-1.93.668,1.93,6.911,1.93,9.809-1.072,6.463.644,6.686,4.293-5.8,4.935-8.471.859-9.138,1.5-11.59S1481.229,2566.889,1478.44,2566.666Z" transform="translate(-1471.411 -2566.171)" fill="#d5e31c"/>
          <path id="Trazado_2966" data-name="Trazado 2966" d="M1474.583,2590.393a.861.861,0,0,1-.134-.01c-1.585-.205-1.373-2.3-1.149-4.517.086-.854.174-1.736.174-2.557,0-2.81-1.9-9.631-1.915-9.7a.407.407,0,0,1,.048-.328c.056-.086.588-.842,2.244-.842,1.2,0,2.413-2.894,2.413-4.514a5.514,5.514,0,0,0-.148-1.13.4.4,0,0,1,.077-.333.354.354,0,0,1,.3-.144c.825.021,1.475.052,2.109.1h0c1.47.118,2.346.3,2.761.911.392.578.286,1.364-.066,2.7a46.541,46.541,0,0,0-.748,5.733,51.113,51.113,0,0,1-.752,5.849C1479.275,2583.785,1476.75,2590.392,1474.583,2590.393Zm-2.238-16.776c.338,1.235,1.883,7.035,1.883,9.692,0,.862-.091,1.765-.178,2.64-.218,2.144-.3,3.556.493,3.658,1.229.139,3.772-5.056,4.521-8.177a50.9,50.9,0,0,0,.735-5.737,45.593,45.593,0,0,1,.769-5.863c.271-1.028.394-1.728.178-2.046-.241-.354-1.055-.489-2.2-.58h0c-.5-.039-1-.068-1.6-.087a5.061,5.061,0,0,1,.073.811c0,1.813-1.336,5.3-3.167,5.3A2.4,2.4,0,0,0,1472.345,2573.617Z" transform="translate(-1471.543 -2566.319)" fill="#242838"/>
        </g>
        <g id="Grupo_1195" data-name="Grupo 1195" transform="translate(1.605 0.178)">
          <g id="Grupo_1194" data-name="Grupo 1194">
            <path id="Trazado_2967" data-name="Trazado 2967" d="M1480.23,2569.7c.538-2.051.47-2.7-1.2-2.985-.408,3.255-1.594,11.871-2.782,15.878a14.3,14.3,0,0,1-3.42,5.685c.059.83.307,1.4.959,1.483,1.718.223,4.292-5.8,4.935-8.471S1479.586,2572.149,1480.23,2569.7Z" transform="translate(-1472.445 -2566.26)" fill="#242838"/>
            <path id="Trazado_2968" data-name="Trazado 2968" d="M1474.017,2590.326a.808.808,0,0,1-.134-.01c-.775-.1-1.209-.72-1.288-1.842l-.012-.178.12-.126a13.911,13.911,0,0,0,3.327-5.525c1.324-4.467,2.624-14.664,2.768-15.812l.051-.4.384.067a2.1,2.1,0,0,1,1.591.82c.355.574.241,1.376-.094,2.652a46.563,46.563,0,0,0-.748,5.733,51.084,51.084,0,0,1-.752,5.848C1478.709,2583.718,1476.184,2590.326,1474.017,2590.326Zm-.655-1.736c.1.884.445.928.615.95,1.229.139,3.772-5.057,4.521-8.177a50.779,50.779,0,0,0,.735-5.736,45.569,45.569,0,0,1,.77-5.863h0c.266-1.008.389-1.7.188-2.023a1.115,1.115,0,0,0-.7-.389c-.292,2.269-1.5,11.339-2.743,15.524A14.59,14.59,0,0,1,1473.362,2588.59Z" transform="translate(-1472.582 -2566.43)" fill="#242838"/>
          </g>
        </g>
      </g>
      <g id="Grupo_1197" data-name="Grupo 1197" transform="translate(0 157.071)">
        <path id="Trazado_2969" data-name="Trazado 2969" d="M1420.362,2570.469a124,124,0,0,1-8.782,20.138c-1.143,2.32-4.078,2.229-7.51.892s-9.442-2.9-9.656-1.338,3.863,5.8,6.223,7.135,5.579,1.559,6.866,2.9,3.219,3.119,5.579,2.451,3.649-9.14,5.794-12.484c1.741-2.712,6.165-9.971,10.292-16.185A18.735,18.735,0,0,1,1420.362,2570.469Z" transform="translate(-1394.03 -2570.076)" fill="#fff"/>
        <path id="Trazado_2970" data-name="Trazado 2970" d="M1412.166,2603.332c-1.893,0-3.472-1.339-4.8-2.715a8.2,8.2,0,0,0-3.278-1.474,17.336,17.336,0,0,1-3.5-1.356c-2.217-1.256-6.677-5.627-6.415-7.532a.96.96,0,0,1,.473-.7c1.663-1.022,7.7.955,9.687,1.728,2.564,1,5.865,1.685,7.042-.7.1-.2.27-.525.5-.961a119.568,119.568,0,0,0,8.259-19.125.386.386,0,0,1,.241-.247.367.367,0,0,1,.334.053,18.26,18.26,0,0,0,8.632,3.439.377.377,0,0,1,.3.228.4.4,0,0,1-.034.384c-2.868,4.318-5.854,9.1-8.034,12.593-.944,1.511-1.724,2.76-2.254,3.586a28.687,28.687,0,0,0-2.3,5.741c-1.091,3.32-2.123,6.456-3.7,6.9A4.174,4.174,0,0,1,1412.166,2603.332Zm-16.124-13.29a2.08,2.08,0,0,0-1.012.183c-.1.063-.108.114-.111.138-.165,1.209,3.5,5.3,6.03,6.736a16.873,16.873,0,0,0,3.355,1.292,8.58,8.58,0,0,1,3.6,1.672c1.432,1.488,3.172,2.927,5.213,2.35,1.2-.338,2.255-3.559,3.188-6.4a28.944,28.944,0,0,1,2.391-5.921c.528-.824,1.307-2.07,2.249-3.578,2.094-3.357,4.933-7.9,7.7-12.089a18.913,18.913,0,0,1-7.951-3.193,120.485,120.485,0,0,1-8.153,18.762c-.227.427-.4.743-.491.938-.791,1.6-2.814,3.092-7.977,1.081A27.731,27.731,0,0,0,1396.042,2590.042Z" transform="translate(-1394.162 -2570.224)" fill="#242838"/>
      </g>
      <g id="Grupo_1201" data-name="Grupo 1201" transform="translate(0 176.111)">
        <g id="Grupo_1198" data-name="Grupo 1198">
          <path id="Trazado_2971" data-name="Trazado 2971" d="M1413.08,2595.471c1.2-.34,2.121-2.693,3.018-5.364-4.718-.235-4.734-2.6-4.734-4.222a2.563,2.563,0,0,0-.515-1.484c-1.422,1.28-3.928,1.037-6.78-.076-3.434-1.338-9.442-2.9-9.656-1.338s3.863,5.8,6.223,7.135,5.579,1.559,6.866,2.9S1410.721,2596.138,1413.08,2595.471Z" transform="translate(-1394.03 -2581.943)" fill="#d5e31c"/>
          <path id="Trazado_2972" data-name="Trazado 2972" d="M1412.166,2596.158c-1.893,0-3.472-1.339-4.8-2.715a8.2,8.2,0,0,0-3.278-1.475,17.32,17.32,0,0,1-3.5-1.356c-2.217-1.256-6.677-5.627-6.415-7.532a.96.96,0,0,1,.473-.7c1.663-1.022,7.7.954,9.687,1.728,2.092.816,4.9,1.5,6.4.148a.37.37,0,0,1,.289-.093.375.375,0,0,1,.261.156,2.941,2.941,0,0,1,.589,1.717c0,1.609,0,3.614,4.376,3.832a.37.37,0,0,1,.295.171.407.407,0,0,1,.043.348c-1.1,3.278-1.992,5.249-3.276,5.612A4.183,4.183,0,0,1,1412.166,2596.158Zm-16.124-13.29a2.083,2.083,0,0,0-1.012.183c-.1.063-.108.114-.111.138-.165,1.209,3.5,5.3,6.03,6.736a16.873,16.873,0,0,0,3.355,1.292,8.574,8.574,0,0,1,3.6,1.672c1.432,1.488,3.172,2.927,5.213,2.351h0c1.047-.3,2.01-2.9,2.6-4.628-4.592-.4-4.592-3.005-4.592-4.579a1.973,1.973,0,0,0-.236-.916c-1.452.991-3.795.9-6.814-.278A27.739,27.739,0,0,0,1396.042,2582.868Z" transform="translate(-1394.162 -2582.091)" fill="#242838"/>
        </g>
        <g id="Grupo_1200" data-name="Grupo 1200" transform="translate(0 0.022)">
          <g id="Grupo_1199" data-name="Grupo 1199">
            <path id="Trazado_2973" data-name="Trazado 2973" d="M1413.08,2595.454a2.3,2.3,0,0,0,1.132-.988c-3.639-.951-4.367-2.476-6.282-3.471-2.146-1.113-4.72-.891-7.51-3.565-1.869-1.792-3.926-3.882-5.083-5.067-.53.075-.877.261-.925.608-.215,1.561,3.863,5.8,6.223,7.134s5.579,1.559,6.866,2.9S1410.721,2596.121,1413.08,2595.454Z" transform="translate(-1394.03 -2581.949)" fill="#242838"/>
            <path id="Trazado_2974" data-name="Trazado 2974" d="M1412.166,2596.149c-1.893,0-3.472-1.338-4.8-2.715a8.2,8.2,0,0,0-3.278-1.475,17.348,17.348,0,0,1-3.5-1.356c-2.217-1.257-6.677-5.627-6.415-7.532.048-.356.3-.809,1.246-.94l.184-.028.131.135c1.33,1.364,3.29,3.346,5.075,5.059a10.639,10.639,0,0,0,5.026,2.636,12.719,12.719,0,0,1,2.4.867,11.139,11.139,0,0,1,1.755,1.187,10.753,10.753,0,0,0,4.45,2.253l.538.141-.323.467a2.615,2.615,0,0,1-1.339,1.138A4.191,4.191,0,0,1,1412.166,2596.149Zm-16.822-13.211c-.254.056-.411.145-.425.242-.165,1.208,3.5,5.3,6.03,6.737a16.9,16.9,0,0,0,3.355,1.292,8.577,8.577,0,0,1,3.6,1.671c1.432,1.488,3.172,2.927,5.213,2.351h0a1.328,1.328,0,0,0,.568-.389,11.491,11.491,0,0,1-4.149-2.226,10.488,10.488,0,0,0-1.639-1.113,12.167,12.167,0,0,0-2.261-.814,11.415,11.415,0,0,1-5.335-2.816C1398.567,2586.214,1396.672,2584.3,1395.344,2582.938Z" transform="translate(-1394.162 -2582.104)" fill="#242838"/>
          </g>
        </g>
      </g>
      <g id="Grupo_1207" data-name="Grupo 1207" transform="translate(44.436 36.005)">
        <g id="Grupo_1202" data-name="Grupo 1202">
          <path id="Trazado_2975" data-name="Trazado 2975" d="M1447.654,2542.867c-.473-.689-.924-1.308-1.321-1.825-2.575-3.342-3.219-2.9-3.219-4.9s3.649-23.627,2.362-31.429a18.856,18.856,0,0,0-4.249-9.692c-1.659,1.115-4.75,3.185-8.044,5.337a11.241,11.241,0,0,1-3.37,4.8c-4.077,3.788-7.511,9.362-6.437,12.928s3.648,11.368,4.505,17.832a50.264,50.264,0,0,1-.077,10.03A85.4,85.4,0,0,0,1447.654,2542.867Z" transform="translate(-1422.797 -2494.627)" fill="#d5e31c"/>
          <path id="Trazado_2976" data-name="Trazado 2976" d="M1427.937,2546.487a.374.374,0,0,1-.273-.122.4.4,0,0,1-.1-.3,50.223,50.223,0,0,0,.08-9.944,107.779,107.779,0,0,0-4-16.156c-.185-.6-.352-1.145-.494-1.613-1.173-3.895,2.572-9.644,6.546-13.338a11.008,11.008,0,0,0,3.264-4.628.391.391,0,0,1,.157-.213c3.316-2.166,6.461-4.272,8.04-5.333a.367.367,0,0,1,.5.085l.215.282a19.161,19.161,0,0,1,4.11,9.586c.971,5.889-.829,19.5-1.8,26.807-.311,2.35-.557,4.209-.557,4.688,0,1.126.176,1.312,1.024,2.2a28.726,28.726,0,0,1,2.113,2.455c.42.546.88,1.182,1.333,1.842a.406.406,0,0,1,.048.359.392.392,0,0,1-.256.246,86.111,86.111,0,0,1-19.937,3.094Zm5.7-45.728a11.92,11.92,0,0,1-3.437,4.837c-3.921,3.644-7.352,9.114-6.328,12.519.141.469.307,1.01.493,1.611a108.575,108.575,0,0,1,4.026,16.285,49.138,49.138,0,0,1-.04,9.677,85.373,85.373,0,0,0,18.814-2.9c-.34-.482-.676-.943-.989-1.348a28.015,28.015,0,0,0-2.062-2.4,3.185,3.185,0,0,1-1.24-2.754c0-.532.226-2.228.565-4.8.962-7.268,2.754-20.8,1.8-26.566a18.2,18.2,0,0,0-3.957-9.23l0,0C1439.643,2496.787,1436.72,2498.74,1433.634,2500.759Z" transform="translate(-1422.931 -2494.774)" fill="#242838"/>
        </g>
        <g id="Grupo_1204" data-name="Grupo 1204" transform="translate(9.918 43.053)">
          <g id="Grupo_1203" data-name="Grupo 1203">
            <path id="Trazado_2977" data-name="Trazado 2977" d="M1429.727,2526.823a.381.381,0,0,1-.369-.321.39.39,0,0,1,.3-.456c3.25-.615,9.268-4.348,9.328-4.385a.369.369,0,0,1,.517.135.4.4,0,0,1-.129.536c-.252.157-6.2,3.846-9.58,4.485A.559.559,0,0,1,1429.727,2526.823Z" transform="translate(-1429.352 -2521.605)" fill="#242838"/>
          </g>
        </g>
        <g id="Grupo_1206" data-name="Grupo 1206" transform="translate(11.137 42.418)">
          <g id="Grupo_1205" data-name="Grupo 1205">
            <path id="Trazado_2978" data-name="Trazado 2978" d="M1430.518,2523.895a.382.382,0,0,1-.37-.326.391.391,0,0,1,.307-.452,27.416,27.416,0,0,0,6.006-1.871.372.372,0,0,1,.5.191.4.4,0,0,1-.184.52,27.566,27.566,0,0,1-6.2,1.931A.235.235,0,0,1,1430.518,2523.895Z" transform="translate(-1430.142 -2521.21)" fill="#242838"/>
          </g>
        </g>
      </g>
      <g id="Grupo_1208" data-name="Grupo 1208" transform="translate(51.939 39.489)">
        <path id="Trazado_2979" data-name="Trazado 2979" d="M1439.011,2497.189s-5.842,1.735-9.458,9.247-.279,14.739,4.728,15.316,7.789-7.8,7.789-14.158S1441.515,2497.478,1439.011,2497.189Z" transform="translate(-1427.656 -2496.798)" fill="#fff"/>
        <path id="Trazado_2980" data-name="Trazado 2980" d="M1434.907,2522.32a4.651,4.651,0,0,1-.534-.031,7.09,7.09,0,0,1-5.346-4.02c-1.758-3.356-1.637-7.79.321-11.861,3.648-7.58,9.447-9.376,9.692-9.449a.362.362,0,0,1,.145-.011c2.827.325,3.4,4.371,3.4,10.792,0,4.395-1.355,10.385-4.328,13.149A4.841,4.841,0,0,1,1434.907,2522.32Zm4.271-24.584c-.664.229-5.873,2.2-9.155,9.022-1.849,3.843-1.974,8.005-.333,11.137a6.346,6.346,0,0,0,4.766,3.615,4.048,4.048,0,0,0,3.295-1.2c2.675-2.487,4.076-8.2,4.076-12.565C1441.826,2501.983,1441.372,2498.076,1439.178,2497.736Z" transform="translate(-1427.789 -2496.946)" fill="#242838"/>
      </g>
      <g id="Grupo_1209" data-name="Grupo 1209" transform="translate(13.792 42.041)">
        <path id="Trazado_2981" data-name="Trazado 2981" d="M1446.54,2503.426a25.246,25.246,0,0,0-3.718,8.818c-1.392,5.78-3.933,13.161-3.933,13.161s-7.51-3.467-13.907-5.779-12.519-8.091-12.519-8.091-.834-5.2-2.224-5.2-6.544-.231-6.836.98.437,4.235.729,4.992a3.287,3.287,0,0,0,2.476,1.514c1.018.151,1.6.3,1.6.3a2.194,2.194,0,0,0,1.165,1.664,6.22,6.22,0,0,0,2.911.758s8.3,7.261,11.8,9.833,12.231,6.807,14.854,8.016,4.368,1.513,5.387.607,8.692-21.694,9.711-24.57,1.02-9.53-1.165-11.648" transform="translate(-1402.958 -2498.389)" fill="#fff"/>
        <path id="Trazado_2982" data-name="Trazado 2982" d="M1442.913,2536.07a10.23,10.23,0,0,1-4-1.173c-2.765-1.276-11.438-5.494-14.918-8.055-3.259-2.4-10.756-8.925-11.719-9.764a6.384,6.384,0,0,1-2.972-.814,2.825,2.825,0,0,1-1.295-1.672c-.256-.057-.71-.148-1.325-.239a3.6,3.6,0,0,1-2.772-1.756c-.253-.656-1.081-3.831-.743-5.23.275-1.145,2.726-1.337,6.6-1.284.241,0,.446.006.6.006,1.534,0,2.335,3.96,2.575,5.391.8.735,6.472,5.82,12.29,7.924,5.532,2,11.967,4.893,13.566,5.621.542-1.609,2.6-7.793,3.786-12.727a25.461,25.461,0,0,1,3.789-8.969.365.365,0,0,1,.528-.062.4.4,0,0,1,.062.551,25.159,25.159,0,0,0-3.646,8.67c-1.381,5.731-3.917,13.124-3.943,13.2a.39.39,0,0,1-.207.229.37.37,0,0,1-.3,0c-.076-.034-7.57-3.488-13.88-5.767-6.4-2.312-12.585-8.114-12.647-8.173a.391.391,0,0,1-.117-.224c-.378-2.354-1.214-4.875-1.854-4.875-.161,0-.369,0-.615-.007-4.942-.072-5.786.4-5.855.69-.261,1.083.418,3.989.712,4.751a2.94,2.94,0,0,0,2.179,1.271c1.027.152,1.616.3,1.64.31a.391.391,0,0,1,.286.38,1.854,1.854,0,0,0,.987,1.331,5.887,5.887,0,0,0,2.714.7.371.371,0,0,1,.242.093c.082.072,8.328,7.28,11.77,9.812s12.041,6.711,14.788,7.98c2.611,1.208,4.152,1.413,4.99.666.918-.926,7.919-19.661,9.6-24.406,1.013-2.856.933-9.286-1.069-11.228a.4.4,0,0,1-.017-.554.367.367,0,0,1,.531-.02c2.423,2.351,2.267,9.236,1.262,12.072-.082.233-8.6,23.641-9.82,24.73A2.559,2.559,0,0,1,1442.913,2536.07Z" transform="translate(-1403.091 -2498.536)" fill="#242838"/>
      </g>
    </g>
  </g>
</svg>
