<svg id="Capa_1" data-name="Capa 1" xmlns="http://www.w3.org/2000/svg" viewBox="0 0 300 300"><defs><style>.cls-1{fill:#0e7a73;}.cls-2{fill:#455a64;}.cls-3{fill:#263238;}.cls-4{opacity:0.3;}.cls-5{fill:#fafafa;}.cls-6{opacity:0.4;}.cls-7{fill:#ffbe9d;}.cls-8{fill:#eb996e;}.cls-9{fill:#e0e0e0;}.cls-10{fill:#fff;}</style></defs><g id="Eating_healthy_food-pana" data-name="Eating healthy food-pana"><g id="freepik--Plant--inject-21"><path id="Trazado_1486" data-name="Trazado 1486" class="cls-1" d="M58.25,116.09a5.55,5.55,0,0,1-2.87-2.85c-.23-.53-.24-1.35.33-1.46.34-.08.65.19.91.44l2.51,2.48a5.3,5.3,0,0,1,.15-4.08c.22-.45.66-.93,1.12-.76s.49.59.56,1l.6,3.6a8.61,8.61,0,0,1,2-3.77c.34-.39.91-.77,1.35-.49s.37.81.28,1.26a17.23,17.23,0,0,1-.93,3.3,6.18,6.18,0,0,1,3.9-1.55,1.38,1.38,0,0,1,1.16.37c.39.49,0,1.21-.37,1.67-1.23,1.4-4.11,1.75-6,1.63"/><path id="Trazado_1487" data-name="Trazado 1487" class="cls-2" d="M69.35,119.06c-4.49-3.53-12.39-4-17.59-1.67a18.72,18.72,0,0,0-10.3,14.94c-.55,5.69,2.2,11.47,4.53,16.72l22.71.1c2.72-4.5,5.57-9.53,5.74-14.79S73.48,122.31,69.35,119.06Z"/><path id="Trazado_1488" data-name="Trazado 1488" class="cls-3" d="M59.17,115.94h-.1l-.3.07-.48.11a3.66,3.66,0,0,0-.65.17,12.89,12.89,0,0,0-3.85,1.84,17.71,17.71,0,0,0-4.38,4.55A27.12,27.12,0,0,0,47.57,126a28.65,28.65,0,0,0-1.41,3.78,17.38,17.38,0,0,0-.38,7.69,32.83,32.83,0,0,0,1.71,6.13c.63,1.7,1.18,3.06,1.55,4l.43,1.12.1.28c0,.07,0,.1,0,.1s0,0,0-.09l-.12-.27-.47-1.08c-.39-.93-1-2.29-1.62-4a31.82,31.82,0,0,1-1.76-6.13,17.15,17.15,0,0,1,.37-7.8,27.18,27.18,0,0,1,1.43-3.8,25.27,25.27,0,0,1,1.88-3.32A17.08,17.08,0,0,1,53.69,118a12.14,12.14,0,0,1,3.9-1.8,3.26,3.26,0,0,1,.67-.16l.49-.09.3,0Z"/><path id="Trazado_1489" data-name="Trazado 1489" class="cls-3" d="M65.78,149a2.24,2.24,0,0,1,.11-.34c.08-.24.19-.56.34-1,.29-.83.73-2,1.24-3.52s1.09-3.29,1.58-5.31a34.33,34.33,0,0,0,1-6.68,23.12,23.12,0,0,0-.69-6.68,18.38,18.38,0,0,0-2.13-5.07,14.41,14.41,0,0,0-2.33-2.89,6.14,6.14,0,0,0-.75-.69,1.42,1.42,0,0,1-.25-.24,1.86,1.86,0,0,1,.28.21,8,8,0,0,1,.78.66,14,14,0,0,1,2.39,2.87,18,18,0,0,1,2.19,5.1,23.34,23.34,0,0,1,.72,6.76,34.66,34.66,0,0,1-1,6.72c-.51,2-1.12,3.82-1.63,5.31s-1,2.68-1.3,3.5c-.16.4-.29.71-.38.95S65.83,148.86,65.78,149Z"/><path id="Trazado_1490" data-name="Trazado 1490" class="cls-3" d="M61.4,116.09a1.68,1.68,0,0,1-.09.32l-.3,1c-.13.4-.29.9-.46,1.48s-.38,1.25-.58,2c-.42,1.46-.87,3.23-1.32,5.2s-.85,4.16-1.2,6.46-.56,4.52-.7,6.53c0,1-.12,2-.12,2.86v2.5c0,.77,0,1.46,0,2.07s0,1.11.07,1.55,0,.74.06,1a1.93,1.93,0,0,1,0,.34c0-.11,0-.22-.05-.34s-.06-.55-.1-1-.09-.94-.11-1.55-.08-1.3-.08-2.07v-2.5c0-.9.06-1.86.1-2.88.13-2,.35-4.24.69-6.55S58,128,58.48,126s.93-3.73,1.36-5.2c.22-.74.43-1.4.62-2s.35-1.07.49-1.48l.34-.93A1.54,1.54,0,0,1,61.4,116.09Z"/><path id="Trazado_1491" data-name="Trazado 1491" class="cls-3" d="M42.19,134.15a7.79,7.79,0,0,1-1.56.83,7.88,7.88,0,0,1-1.64.61,7.79,7.79,0,0,1,1.56-.83A7.35,7.35,0,0,1,42.19,134.15Z"/><path id="Trazado_1492" data-name="Trazado 1492" class="cls-3" d="M42.9,127.63a9,9,0,0,1-1.7-.86,8.49,8.49,0,0,1-1.6-1,8.5,8.5,0,0,1,1.67.86,8.72,8.72,0,0,1,1.63,1Z"/><path id="Trazado_1493" data-name="Trazado 1493" class="cls-3" d="M47.05,122.24a5.86,5.86,0,0,1-.76-1.33,6,6,0,0,1-.55-1.43,11.47,11.47,0,0,1,1.31,2.79Z"/><path id="Trazado_1494" data-name="Trazado 1494" class="cls-3" d="M52.74,117.16a3.92,3.92,0,0,1-.83-.94,3.83,3.83,0,0,1-.65-1.06,3.79,3.79,0,0,1,.82.92A3.73,3.73,0,0,1,52.74,117.16Z"/><path id="Trazado_1495" data-name="Trazado 1495" class="cls-3" d="M44.76,142.11a8.45,8.45,0,0,1-1.59,1,8.79,8.79,0,0,1-1.67.79,7.58,7.58,0,0,1,1.58-1A9.25,9.25,0,0,1,44.76,142.11Z"/><path id="Trazado_1496" data-name="Trazado 1496" class="cls-3" d="M51.54,138.15a5.92,5.92,0,0,1-1.46-.69,6.6,6.6,0,0,1-1.34-.88,6.43,6.43,0,0,1,1.45.69A6.4,6.4,0,0,1,51.54,138.15Z"/><path id="Trazado_1497" data-name="Trazado 1497" class="cls-3" d="M53.43,129.09a4.38,4.38,0,0,1-1.4.74,4.28,4.28,0,0,1-1.53.4,9.22,9.22,0,0,1,1.45-.6A8.44,8.44,0,0,1,53.43,129.09Z"/><path id="Trazado_1498" data-name="Trazado 1498" class="cls-3" d="M55.58,122.25a2.6,2.6,0,0,1-.56-1.11,2.65,2.65,0,0,1-.22-1.24,6,6,0,0,1,.42,1.16A6.5,6.5,0,0,1,55.58,122.25Z"/><path id="Trazado_1499" data-name="Trazado 1499" class="cls-3" d="M50.77,147.05a6.33,6.33,0,0,1,.6-1.53,6.51,6.51,0,0,1,.81-1.43,6.52,6.52,0,0,1-.61,1.53A7.17,7.17,0,0,1,50.77,147.05Z"/><path id="Trazado_1500" data-name="Trazado 1500" class="cls-3" d="M62.21,144.61a6.75,6.75,0,0,1-2.29-2.68q.59.65,1.11,1.35a14.94,14.94,0,0,1,1.18,1.33Z"/><path id="Trazado_1501" data-name="Trazado 1501" class="cls-3" d="M66.18,134.63a8.32,8.32,0,0,1-1.59,1,8.46,8.46,0,0,1-1.67.85A17.92,17.92,0,0,1,66.18,134.63Z"/><path id="Trazado_1502" data-name="Trazado 1502" class="cls-3" d="M63.51,128.49a7.16,7.16,0,0,1,1.22-1.3A8,8,0,0,1,66.1,126a7.16,7.16,0,0,1-1.22,1.3A7.53,7.53,0,0,1,63.51,128.49Z"/><path id="Trazado_1503" data-name="Trazado 1503" class="cls-3" d="M63.62,122a5.94,5.94,0,0,1-1.24-.88,6.09,6.09,0,0,1-1.11-1A9.88,9.88,0,0,1,63.62,122Z"/><path id="Trazado_1504" data-name="Trazado 1504" class="cls-3" d="M71.19,117.67a5.59,5.59,0,0,1-1.24.93,5.51,5.51,0,0,1-1.36.76,11.38,11.38,0,0,1,2.6-1.69Z"/><path id="Trazado_1505" data-name="Trazado 1505" class="cls-3" d="M74.11,123.64a8.84,8.84,0,0,1-2.61.21,4.35,4.35,0,0,1,1.29-.21A4.17,4.17,0,0,1,74.11,123.64Z"/><path id="Trazado_1506" data-name="Trazado 1506" class="cls-3" d="M76,130.7a6.22,6.22,0,0,1-1.67,0,6.46,6.46,0,0,1-1.63-.27,6.23,6.23,0,0,1,1.67.05A6.46,6.46,0,0,1,76,130.7Z"/><path id="Trazado_1507" data-name="Trazado 1507" class="cls-3" d="M75.07,139.8a9.61,9.61,0,0,1-1.53-1.39,9.92,9.92,0,0,1-1.36-1.53,9.47,9.47,0,0,1,1.51,1.39A9.1,9.1,0,0,1,75.07,139.8Z"/><path id="Trazado_1508" data-name="Trazado 1508" class="cls-3" d="M72.58,146.81a10.34,10.34,0,0,1-2.72-3.26,19.27,19.27,0,0,1,1.35,1.64A16.29,16.29,0,0,1,72.58,146.81Z"/><g id="Grupo_85" data-name="Grupo 85" class="cls-4"><path id="Trazado_1509" data-name="Trazado 1509" d="M63.91,116.56c0-.06.48.15,1.23.66a12.94,12.94,0,0,1,2.74,2.69A15.33,15.33,0,0,1,70.39,125a24,24,0,0,1,.84,6.9,29.61,29.61,0,0,1-.93,6.88,36.21,36.21,0,0,1-1.81,5.35A17.1,17.1,0,0,1,66,148.72c-.11-.06.68-1.86,1.75-4.83a37.13,37.13,0,0,0,2.36-12,25.11,25.11,0,0,0-.72-6.63,15.89,15.89,0,0,0-2.17-5,16.32,16.32,0,0,0-2.39-2.79C64.22,117,63.86,116.64,63.91,116.56Z"/></g><g id="Grupo_86" data-name="Grupo 86" class="cls-4"><path id="Trazado_1510" data-name="Trazado 1510" d="M61.23,115.73a23.83,23.83,0,0,1-.7,4.91c-.56,3-1.38,7.14-2.09,11.71-.34,2.29-.62,4.49-.82,6.48-.09,1-.18,1.95-.23,2.84s-.11,1.72-.15,2.49A31.41,31.41,0,0,1,57,149.1a16.22,16.22,0,0,1-.49-4.95v-2.52c0-.9.08-1.86.14-2.88.16-2,.4-4.24.75-6.55.71-4.64,1.67-8.77,2.4-11.71A21,21,0,0,1,61.23,115.73Z"/></g><g id="Grupo_87" data-name="Grupo 87" class="cls-4"><path id="Trazado_1511" data-name="Trazado 1511" d="M58.57,115.53a6.66,6.66,0,0,1-1.42.69,22.37,22.37,0,0,0-3.65,2.09,18.61,18.61,0,0,0-7.41,11.23,18.94,18.94,0,0,0-.43,3.9,24.84,24.84,0,0,0,.27,3.66,39.82,39.82,0,0,0,1.5,6.09c.56,1.71,1.07,3.08,1.4,4a4.54,4.54,0,0,1,.43,1.53c-.07,0-.36-.46-.82-1.37-.64-1.28-1.22-2.6-1.73-3.94A33.11,33.11,0,0,1,45,137.25a24.33,24.33,0,0,1-.36-3.81,20.36,20.36,0,0,1,.43-4.12,18.85,18.85,0,0,1,3.3-7.24,18.27,18.27,0,0,1,4.74-4.41,16.41,16.41,0,0,1,3.9-1.85C58,115.53,58.55,115.44,58.57,115.53Z"/></g><path id="Trazado_1512" data-name="Trazado 1512" class="cls-1" d="M43.13,153.3l3.59,23.55H67.53l4.84-23.21Z"/><path id="Trazado_1513" data-name="Trazado 1513" class="cls-5" d="M69.45,168.39c0,.07-5.33.13-11.9.13s-11.92-.06-11.92-.13,5.33-.12,11.92-.12S69.45,168.33,69.45,168.39Z"/><path id="Trazado_1514" data-name="Trazado 1514" class="cls-5" d="M69.53,167.24c0,.06-5.37.12-12,.12s-12-.06-12-.12,5.38-.13,12-.13S69.53,167.17,69.53,167.24Z"/><path id="Trazado_1515" data-name="Trazado 1515" class="cls-5" d="M69.5,165.93c0,.06-5.38.12-12,.12s-12-.06-12-.12,5.36-.13,12-.13S69.5,165.86,69.5,165.93Z"/><path id="Trazado_1516" data-name="Trazado 1516" class="cls-5" d="M49.11,175.51a38.06,38.06,0,0,1-1-6,20,20,0,0,1,.62,3A19,19,0,0,1,49.11,175.51Z"/><path id="Trazado_1517" data-name="Trazado 1517" class="cls-5" d="M50.52,175.26a23.48,23.48,0,0,1-.25-2.9,21.52,21.52,0,0,1-.14-2.89,13.22,13.22,0,0,1,.38,2.88A13.48,13.48,0,0,1,50.52,175.26Z"/><path id="Trazado_1518" data-name="Trazado 1518" class="cls-5" d="M53.1,175.26a15.72,15.72,0,0,1-.56-3,14.44,14.44,0,0,1-.15-3,27,27,0,0,1,.4,3A25,25,0,0,1,53.1,175.26Z"/><path id="Trazado_1519" data-name="Trazado 1519" class="cls-5" d="M54.91,175.38a24.44,24.44,0,0,1-.19-6C54.86,171.35,54.93,173.36,54.91,175.38Z"/><path id="Trazado_1520" data-name="Trazado 1520" class="cls-5" d="M58.12,175.25a17,17,0,0,1-.21-2.85,17.19,17.19,0,0,1,0-2.87,33.13,33.13,0,0,1,.19,5.72Z"/><path id="Trazado_1521" data-name="Trazado 1521" class="cls-5" d="M60.47,175.38a17.09,17.09,0,0,1-.08-2.95,18.17,18.17,0,0,1,.15-3,32.31,32.31,0,0,1-.07,5.9Z"/><path id="Trazado_1522" data-name="Trazado 1522" class="cls-5" d="M62.67,175.06a39.89,39.89,0,0,1,.59-6.16A40.92,40.92,0,0,1,62.67,175.06Z"/><path id="Trazado_1523" data-name="Trazado 1523" class="cls-5" d="M65.5,174.76a10.16,10.16,0,0,1,.35-2.63,10.65,10.65,0,0,1,.77-2.54,22.94,22.94,0,0,1-.55,2.59Q65.85,173.49,65.5,174.76Z"/><path id="Trazado_1524" data-name="Trazado 1524" class="cls-1" d="M40.74,148.64V153a1.74,1.74,0,0,0,1.74,1.74H72.65A1.74,1.74,0,0,0,74.39,153v-4.4Z"/><g id="Grupo_88" data-name="Grupo 88" class="cls-6"><path id="Trazado_1525" data-name="Trazado 1525" d="M43.36,154.78l.25,1.4,27.82,2,.7-3.38Z"/></g></g><g id="freepik--Floor--inject-21"><path id="Trazado_1526" data-name="Trazado 1526" class="cls-3" d="M280.19,177c0,.09-58.31.15-130.21.15S19.76,177,19.76,177s58.29-.14,130.22-.14S280.19,176.88,280.19,177Z"/></g><g id="freepik--speech-bubble--inject-21"><path id="Trazado_1527" data-name="Trazado 1527" class="cls-5" d="M226.79,24a25.64,25.64,0,0,0-20.31,41l-3,9.58,9.31-3.6a25.23,25.23,0,0,0,14,4.21,25.58,25.58,0,0,0,0-51.15Z"/><path id="Trazado_1528" data-name="Trazado 1528" class="cls-3" d="M226.85,24a3.38,3.38,0,0,1,.45,0l1.3,0a6.17,6.17,0,0,1,1,0l1.15.15,1.34.2,1.5.37A24.24,24.24,0,0,1,240.79,28a25.51,25.51,0,0,1,11.86,22.79c0,.6,0,1.2-.12,1.79l-.27,1.82a25.76,25.76,0,0,1-2.4,7.15A27.62,27.62,0,0,1,245.19,68a26.75,26.75,0,0,1-6.73,4.83,24.35,24.35,0,0,1-8.2,2.52,16.17,16.17,0,0,1-2.19.18,18.41,18.41,0,0,1-2.23,0,25.82,25.82,0,0,1-13.25-4.27h.27l-9,3.62-.56.21.15-.56,2.65-9.6,0,.24a25.88,25.88,0,0,1-4.78-10.93,23.44,23.44,0,0,1-.35-5.61,19,19,0,0,1,.26-2.71l.21-1.31c.06-.44.21-.85.31-1.27a25.69,25.69,0,0,1,10-14.62,24.8,24.8,0,0,1,6-3.14l1.34-.48,1.28-.33,1.17-.29c.37-.07.73-.11,1.07-.15.68-.09,1.28-.2,1.8-.23l1.32-.05h1.08a.86.86,0,0,1-.28,0l-.8.07-1.31.08c-.52.05-1.11.18-1.78.28a25.52,25.52,0,0,0-20.42,19c-.11.42-.23.83-.32,1.25s-.12.86-.18,1.29a17,17,0,0,0-.24,2.65,22.21,22.21,0,0,0,.36,5.52,25.19,25.19,0,0,0,4.73,10.73l.08.11,0,.13L204,74.75l-.38-.34,9-3.61.14-.06.13.08a25.23,25.23,0,0,0,13,4.17A17.31,17.31,0,0,0,228,75a15.32,15.32,0,0,0,2.14-.18,23.56,23.56,0,0,0,8-2.45,26,26,0,0,0,6.59-4.72,26.75,26.75,0,0,0,4.59-6.28,25.43,25.43,0,0,0,2.42-7l.27-1.78c.09-.59.08-1.17.12-1.76a26.49,26.49,0,0,0,0-3.45,25.4,25.4,0,0,0-11.48-19,24.34,24.34,0,0,0-7.14-3.22L232,24.65l-1.33-.22-1.11-.18c-.34,0-.67-.05-1-.07l-1.29-.1A2.74,2.74,0,0,1,226.85,24Z"/><path id="Trazado_1529" data-name="Trazado 1529" class="cls-1" d="M217.18,46.19A5.24,5.24,0,0,1,222.4,42a5.35,5.35,0,0,1,3.6,2.18,8.58,8.58,0,0,1,.85,1.22,10.27,10.27,0,0,1,.84-1.23,5.39,5.39,0,0,1,3.6-2.17,5.22,5.22,0,0,1,5.23,4.18A8.52,8.52,0,0,1,234.7,53a13.73,13.73,0,0,1-8,5.4A16.5,16.5,0,0,1,219,53,8.54,8.54,0,0,1,217.18,46.19Z"/><path id="Trazado_1530" data-name="Trazado 1530" class="cls-5" d="M217.63,50.6h4.57l-.06-.05,1,3.73.06.23.08-.22,1.95-5.61c.21-.63.43-1.24.63-1.83h-.14l2.17,3.71v0h0l5.86,0h0l-5.87,0,.06,0-2.16-3.73-.09-.14,0,.15-.64,1.83c-.69,2-1.35,3.9-1.94,5.61h.14c-.39-1.38-.74-2.64-1-3.71v0h0l-3.34,0h-1.15Z"/></g><g id="freepik--Apple--inject-21"><path id="Trazado_1531" data-name="Trazado 1531" class="cls-2" d="M230.88,198.11a6.27,6.27,0,0,0-5.23-7.15h-.05a.64.64,0,0,0-.45.05.65.65,0,0,0-.17.61,7.58,7.58,0,0,0,5.9,6.68"/><path id="Trazado_1532" data-name="Trazado 1532" class="cls-1" d="M222.09,209.71c1.58,3.26,3.86,5.45,6.68,5.57.56,0,1-.35,1.53-.39a4,4,0,0,1,.89.34,1.29,1.29,0,0,0,.47.11c2.91-.16,5.39-2.2,7.06-5.62,2.33-4.8,1.61-9.95-1.6-11.52a8.17,8.17,0,0,0-1.32-.51,5.33,5.33,0,0,0-1.59-.19,11.74,11.74,0,0,0-3.65.83l-.16.06a7.42,7.42,0,0,0-6.68-.19C220.48,199.74,219.77,204.89,222.09,209.71Z"/><path id="Trazado_1533" data-name="Trazado 1533" class="cls-5" d="M222.15,204.83a2.19,2.19,0,0,1-.26-1,5,5,0,0,1,.28-2.39,5.08,5.08,0,0,1,1.34-2,2.59,2.59,0,0,1,.83-.56s-.3.24-.72.67a5.69,5.69,0,0,0-1.58,4.28C222.08,204.46,222.19,204.82,222.15,204.83Z"/><path id="Trazado_1534" data-name="Trazado 1534" class="cls-5" d="M222.74,207.11c-.06,0-.16-.21-.23-.51s-.07-.56,0-.56.17.21.24.51S222.8,207.1,222.74,207.11Z"/><path id="Trazado_1535" data-name="Trazado 1535" class="cls-3" d="M237.52,190.27s-.6.27-1.51.81a11.41,11.41,0,0,0-1.5,1.08,12,12,0,0,0-1.59,1.6,13,13,0,0,0-1.26,1.87,10.81,10.81,0,0,0-.75,1.67c-.36,1-.46,1.68-.5,1.64a1.44,1.44,0,0,1,.05-.46,2.63,2.63,0,0,1,.1-.56,5.45,5.45,0,0,1,.2-.69,11,11,0,0,1,.72-1.74,11.37,11.37,0,0,1,2.89-3.54,11.82,11.82,0,0,1,1.56-1c.23-.14.45-.23.64-.33l.5-.2A1.64,1.64,0,0,1,237.52,190.27Z"/></g><g id="freepik--Character--inject-21"><path id="Trazado_1536" data-name="Trazado 1536" class="cls-7" d="M145.78,230.32c4.19.33,8.59.09,11.87,1.42a4.86,4.86,0,0,1,3.58,3.55c.5,1.93-1,5.15-2.48,6.55-4.18,4.11-5.8,6-6.95,10.62s-2.79,9.47-7,12a5.71,5.71,0,0,1-3.16.92,3.16,3.16,0,0,1-2.75-1.71,4,4,0,0,1,.73-3.31,27,27,0,0,0,3.56-9.78c.43-3.48,0-4.75-2.17-7.8-2.46-2.95-6.62-5.3-11.25-7.48l9.48-5.44Z"/><path id="Trazado_1537" data-name="Trazado 1537" class="cls-3" d="M141.42,191.53a23.66,23.66,0,0,1-6.56.44c-14.78-3.64-46.25-20.07-58.07-12.9-10.51,6.37-7.8,16.72-1.11,25.42S124,234.75,124,234.75l14-11.48-5.42-2.43,2-.3a33.83,33.83,0,0,0,10.86-.31l17.7-3.45V198.41Z"/><path id="Trazado_1538" data-name="Trazado 1538" class="cls-3" d="M200.09,197a34,34,0,0,1,7.67,19.31c.36,4.18-1.83,11.89-5.41,14.94a32.67,32.67,0,0,1-23.66,7.54l-39.56-2L138,222s16.11-6,20.62-6.87l4.49-.56V198.41l19.72,1.07C189.12,199.8,200.09,197,200.09,197Z"/><path id="Trazado_1539" data-name="Trazado 1539" class="cls-2" d="M183.61,206.56a6.92,6.92,0,0,1-.88.19c-.56.1-1.4.27-2.41.49a56.3,56.3,0,0,0-15.09,5.68c-.91.5-1.63.91-2.14,1.21a4.64,4.64,0,0,1-.79.43A5.68,5.68,0,0,1,163,214c.48-.33,1.19-.78,2.09-1.3a49.88,49.88,0,0,1,15.15-5.7c1-.19,1.85-.33,2.43-.4A5.43,5.43,0,0,1,183.61,206.56Z"/><path id="Trazado_1540" data-name="Trazado 1540" class="cls-2" d="M201.22,230.43a7.36,7.36,0,0,0,.78-.6,4.79,4.79,0,0,0,1.3-2.28,11.91,11.91,0,0,0,.2-4,47,47,0,0,0-.52-4.87,18.55,18.55,0,0,0-1.4-4.66,12.56,12.56,0,0,0-2.19-3.3,11.55,11.55,0,0,0-2.92-2.23,1.06,1.06,0,0,1,.25.09,5.79,5.79,0,0,1,.67.31,9.41,9.41,0,0,1,2.15,1.67,12.73,12.73,0,0,1,2.28,3.35,18.15,18.15,0,0,1,1.44,4.72,42.53,42.53,0,0,1,.5,4.91,12.08,12.08,0,0,1-.26,4,4.86,4.86,0,0,1-1.43,2.31,3.75,3.75,0,0,1-.62.42A.92.92,0,0,1,201.22,230.43Z"/><path id="Trazado_1541" data-name="Trazado 1541" class="cls-2" d="M137.85,222.15a3,3,0,0,1,.41-.18l1.21-.47c1.05-.41,2.58-1,4.46-1.67s4.17-1.44,6.73-2.2,5.38-1.55,8.39-2.23a71.29,71.29,0,0,1,15.68-1.8h1.44l1.28.07c.8,0,1.49.09,2.05.16l1.29.15a3.11,3.11,0,0,1,.44.07h-.45l-1.29-.1c-.56,0-1.24-.08-2.05-.1l-1.28,0h-1.43a75,75,0,0,0-15.58,1.91c-3,.66-5.82,1.42-8.36,2.18s-4.82,1.5-6.73,2.13l-4.51,1.56-1.22.42A2.21,2.21,0,0,1,137.85,222.15Z"/><path id="Trazado_1542" data-name="Trazado 1542" class="cls-2" d="M132,222.89a1.25,1.25,0,0,1-.09-.12l-.25-.38-.93-1.45-.66-1.06c-.25-.38-.56-.78-.84-1.22-.61-.88-1.27-1.9-2.09-2.95-.4-.56-.82-1.12-1.26-1.67s-.93-1.17-1.43-1.78c-1-1.25-2.1-2.49-3.27-3.81a91.19,91.19,0,0,0-17.53-14.91c-1.5-.93-2.91-1.85-4.3-2.61-.68-.38-1.33-.78-2-1.11l-1.86-1c-1.18-.64-2.29-1.12-3.25-1.59L91,186.63l-1.15-.48-1.59-.68-.41-.18-.13-.08.14,0,.43.15,1.61.63,1.16.47,1.36.61c1,.44,2.09.92,3.27,1.55l1.88,1c.65.34,1.31.73,2,1.12,1.39.75,2.79,1.67,4.32,2.6a89,89,0,0,1,17.58,14.93c1.17,1.34,2.3,2.59,3.27,3.85.48.62,1,1.2,1.41,1.79l1.25,1.7c.81,1.07,1.46,2.1,2.06,3,.29.44.55.85.82,1.24l.64,1.07c.37.63.67,1.11.88,1.49l.22.39C132,222.88,132.05,222.89,132,222.89Z"/><path id="Trazado_1543" data-name="Trazado 1543" class="cls-2" d="M111.87,200a4.36,4.36,0,0,1-.46-.69c-.28-.45-.69-1.11-1.2-1.9a62.2,62.2,0,0,0-4.38-6,64.52,64.52,0,0,0-5.06-5.4c-.7-.64-1.26-1.17-1.68-1.52a4.45,4.45,0,0,1-.59-.56,4.67,4.67,0,0,1,.67.5c.41.32,1,.82,1.7,1.45a51.6,51.6,0,0,1,9.48,11.41c.5.81.88,1.48,1.12,2a4.63,4.63,0,0,1,.39.73Z"/><path id="Trazado_1544" data-name="Trazado 1544" class="cls-3" d="M82.25,194.1c-.07.06-1.25-1.6-3.07-3.3s-3.54-2.78-3.48-2.86a4.92,4.92,0,0,1,1.16.65,19.41,19.41,0,0,1,2.52,2A18.14,18.14,0,0,1,81.54,193,5.44,5.44,0,0,1,82.25,194.1Z"/><path id="Trazado_1545" data-name="Trazado 1545" class="cls-7" d="M138.06,222.15l-23.81,2.7,1.35,12.22H143Z"/><path id="Trazado_1546" data-name="Trazado 1546" class="cls-7" d="M122.36,237c-3.64.11-10.66,3.29-13.12,5.66a26.53,26.53,0,0,0-5.58,8.53c-.46,1.05-1,2.23-2.15,2.52a3.1,3.1,0,0,1-3-1.15,5.63,5.63,0,0,1-1.11-3c-.51-4.79,2.37-8.92,5.28-12.53s3.67-5.14,4.46-10.83c.27-1.95,1.88-5.05,3.69-5.79a4.73,4.73,0,0,1,4.89.72l5.36,3.06"/><path id="Trazado_1547" data-name="Trazado 1547" class="cls-8" d="M143,237.07a2.49,2.49,0,0,1-.67,0h-1.83c-1.54,0-3.68.06-6,.11s-4.5.06-6,0c-.77,0-1.4-.05-1.83-.08a3.72,3.72,0,0,1-.67-.08,3.07,3.07,0,0,1,.68,0h1.82c1.55,0,3.68,0,6-.1s4.49-.06,6,0c.78,0,1.4.05,1.84.09a2.55,2.55,0,0,1,.67.07Z"/><path id="Trazado_1548" data-name="Trazado 1548" class="cls-2" d="M132.94,199.84a4.29,4.29,0,0,1,.45.69c.17.28.33.56.47.85s.37.72.56,1.16.39.92.55,1.46.36,1.11.52,1.71a21.74,21.74,0,0,1,.56,8.15c-.09.63-.17,1.23-.29,1.77s-.24,1.06-.38,1.52-.27.87-.39,1.22a7.82,7.82,0,0,1-.36.91,5.6,5.6,0,0,1-.36.74,4.2,4.2,0,0,1,.26-.78c.09-.25.2-.56.3-.92s.25-.76.36-1.22.24-1,.33-1.51.18-1.12.26-1.75a23.08,23.08,0,0,0-.53-8.07c-.15-.6-.31-1.17-.49-1.69s-.35-1-.53-1.46-.35-.82-.51-1.17-.29-.63-.42-.86A5.17,5.17,0,0,1,132.94,199.84Z"/><path id="Trazado_1549" data-name="Trazado 1549" class="cls-2" d="M143.79,209.79a4.27,4.27,0,0,1-.1-.8,7.37,7.37,0,0,0-.11-.93c-.06-.38-.09-.78-.19-1.23a24.08,24.08,0,0,0-.77-3.12,26.87,26.87,0,0,0-1.49-3.65,26.18,26.18,0,0,0-2.06-3.35,24.18,24.18,0,0,0-2.07-2.47c-.31-.35-.62-.62-.87-.88s-.5-.47-.69-.64a3.64,3.64,0,0,1-.56-.55,4.24,4.24,0,0,1,.65.46,8.63,8.63,0,0,1,.73.6c.27.25.59.52.91.86a20.66,20.66,0,0,1,2.13,2.45,22.74,22.74,0,0,1,4.28,10.25c.09.46.11.88.15,1.24a7.57,7.57,0,0,1,.06.95A5.47,5.47,0,0,1,143.79,209.79Z"/><path id="Trazado_1550" data-name="Trazado 1550" class="cls-1" d="M203,221.91l-.06.15-.21.45a15.11,15.11,0,0,1-.91,1.68,17.42,17.42,0,0,1-1.83,2.37,20,20,0,0,1-2.95,2.63,26.38,26.38,0,0,1-9.34,4.24,55,55,0,0,1-12.53,1.32c-8.94,0-17,0-22.88-.06l-6.94-.05-1.88,0H143a.49.49,0,0,1-.17,0h2.54l6.94,0h22.87a55.6,55.6,0,0,0,12.47-1.29,26.38,26.38,0,0,0,9.31-4.27,20.67,20.67,0,0,0,3-2.57,18.65,18.65,0,0,0,1.84-2.33,13.27,13.27,0,0,0,1-1.62l.23-.43.07-.15Z"/><path id="Trazado_1551" data-name="Trazado 1551" class="cls-1" d="M206.3,211.05a27.32,27.32,0,0,1-1.18,3.76,28.32,28.32,0,0,1-1.46,3.67,27.46,27.46,0,0,1,1.18-3.77A28.19,28.19,0,0,1,206.3,211.05Z"/><path id="Trazado_1552" data-name="Trazado 1552" class="cls-1" d="M108.51,222.63l-.13,0-.38-.15-1.45-.64c-1.25-.56-3.07-1.37-5.28-2.44s-4.84-2.38-7.65-4a62.15,62.15,0,0,1-8.7-6,50.5,50.5,0,0,1-12-14.89,45.45,45.45,0,0,1-2.42-5.32c-.26-.63-.41-1.15-.55-1.49l-.13-.39a.23.23,0,0,0,0-.14.83.83,0,0,1,.07.13l.15.38c.14.34.31.84.56,1.47A54.77,54.77,0,0,0,73,194.3a51.33,51.33,0,0,0,12,14.76,63.64,63.64,0,0,0,8.64,6c2.78,1.64,5.4,3,7.61,4.07s4,1.93,5.24,2.52l1.43.69.37.18C108.47,222.6,108.52,222.62,108.51,222.63Z"/><path id="Trazado_1553" data-name="Trazado 1553" class="cls-3" d="M149,59.68a4.37,4.37,0,0,0-7.83.68,8,8,0,0,1-.75,1.93c-1.12,1.51-3.91,1.07-4.79,2.72s1.25,3.87.72,5.8c-.43,1.54-2.41,2.22-2.86,3.77-.6,2,1.85,4,1.26,6.08-.5,1.76-3,2.4-3.35,4.19-.42,2,2,3.57,2,5.57,0,2.57-4,4-3.62,6.55.19,1.41,1.7,2.35,2,3.76.46,2.64-3.61,4.45-3.13,7.1.24,1.24,1.4,2,2.42,2.79s2.06,1.82,1.85,3.07-1.64,2-2.42,3c-1.21,1.63.71,5.87,2.56,6.68l7.71-5.76s-2.23-1.85-.46-3.54.6-2.45.55-3.73c0,0,1.73,1.45,1.12,3a3.76,3.76,0,0,0,.4,3.6L154,111.67l1.26-11.15Z"/><path id="Trazado_1554" data-name="Trazado 1554" class="cls-3" d="M131.86,111.67a3.76,3.76,0,0,1-.75,0,4.7,4.7,0,0,1-4.2-3.21,4.92,4.92,0,0,1-.21-2.12,6.33,6.33,0,0,1,.79-2.23c.38-.75.86-1.49,1.22-2.31a4.66,4.66,0,0,0,.45-2.67,7.61,7.61,0,0,0-1.45-2.59A2.62,2.62,0,0,1,127.2,95a1.91,1.91,0,0,1,.87-1.45,12.53,12.53,0,0,1,1.48-.81,2.75,2.75,0,0,0,1.22-1,2,2,0,0,0,.12-1.59,5,5,0,0,0-.78-1.55c-.33-.47-.73-.94-1.06-1.47a4.09,4.09,0,0,1-.69-1.76,2.6,2.6,0,0,1,.55-1.84,7.65,7.65,0,0,1,1.46-1.26,9.56,9.56,0,0,0,1.44-1.17,2.4,2.4,0,0,0,.7-1.57,3.76,3.76,0,0,0-.49-1.67c-.28-.56-.6-1-.86-1.6a3.3,3.3,0,0,1-.4-1.79,2.44,2.44,0,0,1,.27-.88,4.34,4.34,0,0,1,.56-.72c.82-.84,1.86-1.4,2.31-2.38a2.81,2.81,0,0,0,.19-1.52,9.85,9.85,0,0,0-.39-1.51,6.59,6.59,0,0,1-.56-3,2.27,2.27,0,0,1,.63-1.34,2.91,2.91,0,0,1,1.25-.72c.89-.26,1.77-.3,2.57-.49a2.94,2.94,0,0,0,1.91-1.17c.41-.61.63-1.3,1-1.85a4.25,4.25,0,0,1,2.9-1.67,4.14,4.14,0,0,1,2.12.25,2.92,2.92,0,0,1,.5.25.91.91,0,0,1,.16.11,4.25,4.25,0,0,0-2.77-.5A4.17,4.17,0,0,0,140.65,59c-.38.56-.59,1.22-1,1.86a3.11,3.11,0,0,1-2,1.27c-.81.2-1.7.25-2.55.51a2.57,2.57,0,0,0-1.11.66,2,2,0,0,0-.56,1.22,6.41,6.41,0,0,0,.56,2.89,8.51,8.51,0,0,1,.4,1.56,3.09,3.09,0,0,1-.2,1.67c-.5,1.09-1.58,1.67-2.35,2.45a3.63,3.63,0,0,0-.51.66,2.13,2.13,0,0,0-.23.78,3.06,3.06,0,0,0,.37,1.63c.25.53.56,1,.86,1.59a4,4,0,0,1,.53,1.82,2.67,2.67,0,0,1-.78,1.76,9.54,9.54,0,0,1-1.48,1.21,7.39,7.39,0,0,0-1.4,1.21,2.26,2.26,0,0,0-.52,1.63,3.78,3.78,0,0,0,.65,1.64c.31.5.7,1,1.05,1.46a5.65,5.65,0,0,1,.81,1.63,2.35,2.35,0,0,1-.15,1.8A3.13,3.13,0,0,1,129.66,93a11.17,11.17,0,0,0-1.44.79,1.64,1.64,0,0,0-.77,1.24,2.45,2.45,0,0,0,.47,1.4,7.44,7.44,0,0,1,1.47,2.67,4.9,4.9,0,0,1-.48,2.82c-.38.84-.86,1.57-1.24,2.3a6.62,6.62,0,0,0-.79,2.19,4.65,4.65,0,0,0,.19,2.06,4.57,4.57,0,0,0,2,2.55,4.86,4.86,0,0,0,2,.65A3.76,3.76,0,0,1,131.86,111.67Z"/><path id="Trazado_1555" data-name="Trazado 1555" class="cls-2" d="M132.22,120.11a.91.91,0,0,1-.16-.11.84.84,0,0,1-.24-.52,1.41,1.41,0,0,1,.21-.89,1.7,1.7,0,0,1,1-.75,13.41,13.41,0,0,1,1.52-.36,2.23,2.23,0,0,0,1.47-1,1.09,1.09,0,0,0,.06-.93,4.12,4.12,0,0,0-.56-.92,2.3,2.3,0,0,1-.48-1.11,2.07,2.07,0,0,1,.31-1.24c.21-.38.46-.73.68-1.11a2.35,2.35,0,0,0,.4-1.2,1.85,1.85,0,0,0-.56-1.17c-.31-.34-.7-.65-1-1a1.64,1.64,0,0,1-.52-1.46,1.26,1.26,0,0,1,.38-.74,2.58,2.58,0,0,1,.67-.46c.48-.25,1-.41,1.49-.63a2.91,2.91,0,0,0,1.26-.9,1.83,1.83,0,0,0,.23-1.51,9,9,0,0,0-.6-1.59,6.45,6.45,0,0,1-.55-1.71,3.39,3.39,0,0,1,.3-1.83,19.09,19.09,0,0,0,1.55-3.3,2.85,2.85,0,0,0-.23-1.75c-.29-.56-.61-1.11-1-1.64a4,4,0,0,1-.66-1.85,2.82,2.82,0,0,1,.65-1.84c.39-.52.83-.94,1.22-1.42a3,3,0,0,0,.77-1.54,2.78,2.78,0,0,0-.42-1.64c-.27-.51-.62-1-.9-1.51a3.31,3.31,0,0,1-.51-1.7,3.57,3.57,0,0,1,.59-1.64,14.15,14.15,0,0,0,.85-1.4,2.14,2.14,0,0,0,.22-1.47c-.21-1-1-1.77-1.18-2.82a2,2,0,0,1,.33-1.47,6.87,6.87,0,0,1,1-1.06,5,5,0,0,0,.85-1,2.51,2.51,0,0,0,.31-1.19c0-.83-.15-1.62-.1-2.4a4.32,4.32,0,0,1,.66-2.06,4.26,4.26,0,0,1,2.75-2,4.64,4.64,0,0,1,2.16.06,2.9,2.9,0,0,1,.7.3,4.56,4.56,0,0,0-.71-.24,4.51,4.51,0,0,0-2.13,0,4.15,4.15,0,0,0-2.64,2,4.33,4.33,0,0,0-.61,2c0,.75.15,1.54.13,2.4a2.92,2.92,0,0,1-.34,1.29,5.27,5.27,0,0,1-.89,1,6.45,6.45,0,0,0-.92,1,1.7,1.7,0,0,0-.28,1.3c.16.93.93,1.72,1.19,2.79a2.47,2.47,0,0,1-.23,1.64,13.75,13.75,0,0,1-.86,1.42,3.22,3.22,0,0,0-.56,1.5,3,3,0,0,0,.47,1.57c.27.49.62,1,.91,1.51a3,3,0,0,1,.45,1.8,3.35,3.35,0,0,1-.83,1.67c-.4.48-.84.92-1.21,1.41a2.56,2.56,0,0,0-.6,1.67,3.88,3.88,0,0,0,.62,1.71,14.69,14.69,0,0,1,1,1.67,3.14,3.14,0,0,1,.26,1.93,17.6,17.6,0,0,1-1.58,3.34,3.11,3.11,0,0,0-.29,1.67,6.65,6.65,0,0,0,.51,1.64,9.91,9.91,0,0,1,.61,1.68,2.1,2.1,0,0,1-.28,1.72,3.08,3.08,0,0,1-1.38,1c-.5.22-1,.39-1.47.62a1.5,1.5,0,0,0-.93,1,1.48,1.48,0,0,0,.45,1.26c.31.37.7.67,1,1a2.06,2.06,0,0,1,.61,1.32,2.51,2.51,0,0,1-.44,1.32c-.23.38-.48.73-.68,1.11a1.9,1.9,0,0,0-.29,1.12,2,2,0,0,0,.44,1,4.42,4.42,0,0,1,.55,1,1.26,1.26,0,0,1-.07,1.07,2.39,2.39,0,0,1-1.59,1c-.55.13-1.08.18-1.52.33a1.67,1.67,0,0,0-1,.69,1.35,1.35,0,0,0-.23.85A.87.87,0,0,0,132.22,120.11Z"/><path id="Trazado_1556" data-name="Trazado 1556" class="cls-1" d="M201,197l-9.7-32.32,3-51.26a52.33,52.33,0,0,0-24-6.45l-16.72,1.26-18.44,9.2,3.9,31,6.27,26.75-3.86,16.35C157.2,202.88,178.17,204.13,201,197Z"/><path id="Trazado_1557" data-name="Trazado 1557" class="cls-1" d="M186.33,143.34s18.87,1,18.87-.59a65.35,65.35,0,0,0-3.69-19.32c-2-5.33-5.57-9.27-7.47-10.07C189.68,111.48,186.33,143.34,186.33,143.34Z"/><path id="Trazado_1558" data-name="Trazado 1558" class="cls-1" d="M135.39,117.29s-3.56,2.95-7.31,11.85c-4.46,10.55-5.73,12.72-5.73,12.72L133.53,157l6.08-6.81Z"/><path id="Trazado_1559" data-name="Trazado 1559" class="cls-3" d="M145.28,175.18a.28.28,0,0,0,0-.12,1.56,1.56,0,0,1-.1-.37c-.09-.34-.21-.82-.36-1.42-.31-1.24-.73-3-1.24-5.25-1-4.46-2.35-10.59-3.79-17.37l-3.68-17.4c-.47-2.21-.87-4-1.12-5.27-.12-.61-.22-1.09-.29-1.44,0-.15,0-.27-.08-.37V126a.31.31,0,0,1,0,.12c0,.1.06.22.1.37.09.35.21.83.35,1.42.3,1.25.72,3,1.23,5.26,1,4.46,2.33,10.59,3.77,17.38s2.75,12.92,3.7,17.4c.48,2.23.87,4,1.15,5.27.13.6.23,1.09.3,1.43l.07.38a.25.25,0,0,1,0,.12Z"/><g id="Grupo_89" data-name="Grupo 89" class="cls-4"><path id="Trazado_1560" data-name="Trazado 1560" d="M189.2,110.92a12.16,12.16,0,0,0-15.5,2.64l-.26-1.9c-.15,2-1.8,4.37-1.57,5.7a3.08,3.08,0,0,0,2.68,2.64c1.91.08,3.67-2.06,5.45-1.34.59.23,1,.75,1.6,1,1.3.6,2.79-.23,3.93-1.06q2-1.43,3.94-3a3.42,3.42,0,0,0,1.57-2.16C191.14,112.39,190.16,111.49,189.2,110.92Z"/></g><path id="Trazado_1561" data-name="Trazado 1561" class="cls-3" d="M191.83,114.41a13.22,13.22,0,0,0-3.13,2.79,14.14,14.14,0,0,0-2.16,4,47.65,47.65,0,0,0-1.52,5.41,33.59,33.59,0,0,0-.74,5.57c-.1,1.73-.14,3.29-.19,4.6s-.11,2.36-.18,3.1c0,.37-.06.65-.08.85a1.6,1.6,0,0,1-.05.29.76.76,0,0,1,0-.3,6.09,6.09,0,0,1,0-.85c0-.73.06-1.78.08-3.09s0-2.88.13-4.61a32,32,0,0,1,.73-5.61,46.3,46.3,0,0,1,1.56-5.44,14.26,14.26,0,0,1,2.23-4,10.93,10.93,0,0,1,2.29-2.11c.31-.2.56-.33.73-.43a1,1,0,0,1,.28-.13Z"/><path id="Trazado_1562" data-name="Trazado 1562" class="cls-3" d="M176,186.33a1.33,1.33,0,0,1-.28,0l-.79-.15c-.7-.12-1.68-.34-2.91-.64a92.38,92.38,0,0,1-9.41-2.78q-4.64-1.65-9.08-3.75c-1.12-.56-2-1-2.66-1.34l-.71-.39a1,1,0,0,1-.24-.15.82.82,0,0,1,.26.1l.74.33c.63.32,1.55.74,2.7,1.25,2.28,1,5.47,2.38,9.08,3.66s6.94,2.23,9.37,2.87l2.88.73.79.2A.8.8,0,0,1,176,186.33Z"/><path id="Trazado_1563" data-name="Trazado 1563" class="cls-3" d="M177.3,180l-.29,0-.83.07c-.72,0-1.77.09-3.07.11A81.12,81.12,0,0,1,153.05,178c-1.26-.3-2.27-.56-3-.78l-.79-.24a1.33,1.33,0,0,1-.28-.1.92.92,0,0,1,.29,0l.82.19c.69.18,1.71.41,3,.69a93.67,93.67,0,0,0,20,2.18c1.29,0,2.33,0,3.06,0H177A1.32,1.32,0,0,1,177.3,180Z"/><g id="Grupo_90" data-name="Grupo 90" class="cls-4"><path id="Trazado_1564" data-name="Trazado 1564" d="M193.64,174.91a8.77,8.77,0,0,0-4.76-3,80.76,80.76,0,0,1-26.34-16.33c-3.64-3.38-7.1-7.19-11.67-9.15s-10.72-1.37-13.41,2.82l1.67,1.11c8.42,2.79,14,10.53,20.1,17A178.19,178.19,0,0,0,174,180.84c3.26,2.78,6.91,5.69,11.2,5.69a9.48,9.48,0,0,0,9-7.75A5.72,5.72,0,0,0,193.64,174.91Z"/></g><path id="Trazado_1565" data-name="Trazado 1565" class="cls-7" d="M108,93.64h-1.45a3.2,3.2,0,0,0-2.88,1.83h0a3.16,3.16,0,0,0,.21,3.08L106.1,102a3.31,3.31,0,0,0-1.6,3.64s-1.47.9-.7,3.9a5.22,5.22,0,0,0,.21,4.27c1.18,1.75,5,8.45,5,8.45v7.42l10-1.16V120a12.15,12.15,0,0,0,1.48-3.84c.43-2.18-1.18-10.48-1.18-10.48l-4.62-5.32-5.17-2a2.58,2.58,0,0,0-.33,1.86,2.78,2.78,0,0,0,.12.38l-.77-.36-1.73-3.14v-.42s4.25-1,2.62-2.46A2.29,2.29,0,0,0,108,93.64Z"/><path id="Trazado_1566" data-name="Trazado 1566" class="cls-8" d="M114.33,113.44a1,1,0,0,1,.24.43,2.27,2.27,0,0,1,.07,1.34,1.1,1.1,0,0,1-.62.74,1.63,1.63,0,0,1-1.11,0,4.17,4.17,0,0,1-1.81-1.62,3.63,3.63,0,0,0-.85-.81,1.75,1.75,0,0,0-1-.26l-1.94.12a12,12,0,0,1-1.8,0,10.73,10.73,0,0,1,1.78-.24l2-.18a2,2,0,0,1,1.18.27,3.89,3.89,0,0,1,.93.88,4.07,4.07,0,0,0,1.67,1.55,1.35,1.35,0,0,0,.93,0,.93.93,0,0,0,.53-.55,2.64,2.64,0,0,0,0-1.25C114.39,113.6,114.3,113.45,114.33,113.44Z"/><path id="Trazado_1567" data-name="Trazado 1567" class="cls-3" d="M110.59,101.55s-.22,0-.51-.17a2.12,2.12,0,0,1-1-2.28c.07-.34.19-.51.23-.49a3.79,3.79,0,0,0,.17,1.67A3.87,3.87,0,0,0,110.59,101.55Z"/><path id="Trazado_1568" data-name="Trazado 1568" class="cls-8" d="M109.73,113.1s.06.24,0,.6A3.13,3.13,0,0,1,109,115a3.23,3.23,0,0,1-1.17.87,1.16,1.16,0,0,1-.59.13A4.69,4.69,0,0,0,109.73,113.1Z"/><path id="Trazado_1569" data-name="Trazado 1569" class="cls-8" d="M115.91,118.93a7.44,7.44,0,0,0-2-1.76,7.15,7.15,0,0,0-2.53-.68,1.56,1.56,0,0,1,.8-.11,4.45,4.45,0,0,1,3.34,1.83,1.5,1.5,0,0,1,.34.72Z"/><path id="Trazado_1570" data-name="Trazado 1570" class="cls-9" d="M116,113.54a7,7,0,0,1,.81,2.23,8.15,8.15,0,0,1,.15,2.31c-.21,1.26-.79,4.84,0,5.68s6.34,5.37,6.34,5.37h3.47s-7.05-4.35-8-7.28,0-4.49-.51-6.31a48.15,48.15,0,0,0-2.37-5.88L107.85,96.4l-1.33.32Z"/><path id="Trazado_1571" data-name="Trazado 1571" class="cls-3" d="M116,113.54s-.07-.1-.19-.3l-.52-.89-2-3.38-6.92-12.18-.08-.14.15,0,1.33-.31h.09l0,.07L116,109.63h0c.67,1.42,1.34,2.93,1.93,4.5a7.63,7.63,0,0,1,.6,2.49c0,.85-.09,1.67-.08,2.48a8.65,8.65,0,0,0,.34,2.37,5.37,5.37,0,0,0,1.11,2,22.22,22.22,0,0,0,3.35,3.08q1.77,1.36,3.54,2.48l.38.24h-4l0,0c-2.18-1.81-4.18-3.46-5.9-5a3,3,0,0,1-.6-.64,2.93,2.93,0,0,1-.22-.82,10.16,10.16,0,0,1,0-1.56c.06-.91.16-1.81.31-2.71a5.61,5.61,0,0,0,0-2.16,7.56,7.56,0,0,0-.33-1.57,8,8,0,0,0-.31-.94,2.92,2.92,0,0,1-.14-.31,5.36,5.36,0,0,1,.55,1.22,8.55,8.55,0,0,1,.38,1.57,6.31,6.31,0,0,1,0,2.21c-.12.81-.24,1.7-.29,2.69a8.67,8.67,0,0,0,0,1.53,2.45,2.45,0,0,0,.21.76,2.65,2.65,0,0,0,.56.55c1.73,1.51,3.74,3.16,5.93,5h3.39l-.06.24a43.49,43.49,0,0,1-3.58-2.48,23.5,23.5,0,0,1-3.42-3.12,5.54,5.54,0,0,1-1.18-2.12,9.52,9.52,0,0,1-.35-2.44c0-.83.11-1.67.09-2.47a7.31,7.31,0,0,0-.56-2.4c-.59-1.55-1.26-3.07-1.92-4.46h0l-8-13.29.14.06-1.33.31.08-.18,6.84,12.26,1.88,3.42.49.9C115.94,113.43,116,113.54,116,113.54Z"/><path id="Trazado_1572" data-name="Trazado 1572" class="cls-7" d="M105.88,102.5a4.26,4.26,0,0,1,3.62-1.3,7.08,7.08,0,0,1,3.61,1.56,22.76,22.76,0,0,1,2.85,2.79,4.82,4.82,0,0,1,1.33,2.12,1.66,1.66,0,0,1-1.12,2c-.83.13-1.48-.56-2-1.18a13.34,13.34,0,0,0-2.59-2.15,4.53,4.53,0,0,0-1.9-.81,5.67,5.67,0,0,0-2.47.44"/><path id="Trazado_1573" data-name="Trazado 1573" class="cls-8" d="M107.16,106a1.23,1.23,0,0,1,.26-.12,6.81,6.81,0,0,1,.76-.26,4.52,4.52,0,0,1,1.27-.17,3.77,3.77,0,0,1,1.63.52,14.12,14.12,0,0,1,3.42,2.74,3.35,3.35,0,0,0,1,.73,1.12,1.12,0,0,0,1.12-.06,1.58,1.58,0,0,0,.59-1.06,2.12,2.12,0,0,0-.27-1.26,12.81,12.81,0,0,0-1.71-2.12,19.33,19.33,0,0,0-1.83-1.79,7.29,7.29,0,0,0-3.82-1.82,4.57,4.57,0,0,0-2.78.56,7.67,7.67,0,0,0-.86.64,1.28,1.28,0,0,1,.17-.22,3.49,3.49,0,0,1,.63-.52,4.49,4.49,0,0,1,2.86-.66,7.43,7.43,0,0,1,4,1.81,19.87,19.87,0,0,1,1.86,1.81,12.79,12.79,0,0,1,1.77,2.18,2.4,2.4,0,0,1,.3,1.44,1.85,1.85,0,0,1-.72,1.25,1.38,1.38,0,0,1-1.4.08,4,4,0,0,1-1-.8,14.25,14.25,0,0,0-3.34-2.75,3.68,3.68,0,0,0-1.53-.56,4.39,4.39,0,0,0-1.25.12A8.7,8.7,0,0,1,107.16,106Z"/><path id="Trazado_1574" data-name="Trazado 1574" class="cls-7" d="M105.62,109.25c1.77.42,3.76,0,5.32.93a7,7,0,0,1,1.37,1.18l2.44,2.51c.44.47,1.06,1,1.67.67a1,1,0,0,0,.51-.74,2.47,2.47,0,0,0-.42-1.58,31.9,31.9,0,0,0-1.9-3.11,8.66,8.66,0,0,0-1.2-1.43A7.87,7.87,0,0,0,111,105.9a4.42,4.42,0,0,0-3.46,0"/><path id="Trazado_1575" data-name="Trazado 1575" class="cls-8" d="M107.49,105.9a.92.92,0,0,1,.24-.13,3.06,3.06,0,0,1,.78-.24,5.21,5.21,0,0,1,2.91.46,8,8,0,0,1,1.67,1.21,8.71,8.71,0,0,1,1.57,1.75c.47.67,1,1.39,1.4,2.17q.34.59.66,1.2a2.51,2.51,0,0,1,.37,1.41,1.21,1.21,0,0,1-.31.72.94.94,0,0,1-.72.33,2,2,0,0,1-1.27-.66L113,112.26c-.56-.56-1.12-1.18-1.64-1.63a4,4,0,0,0-1.76-.84c-1.21-.24-2.23-.21-2.91-.31a6.86,6.86,0,0,1-.79-.14.92.92,0,0,1-.27-.08s.38.06,1.07.11a26.43,26.43,0,0,1,2.94.22,4.18,4.18,0,0,1,1.88.85,23.23,23.23,0,0,1,1.67,1.64l1.79,1.83a1.73,1.73,0,0,0,1.07.56.82.82,0,0,0,.75-.79,2.25,2.25,0,0,0-.33-1.26c-.21-.4-.43-.79-.66-1.18-.45-.76-.92-1.49-1.37-2.16a9.9,9.9,0,0,0-1.52-1.71,8.1,8.1,0,0,0-1.59-1.2,5.39,5.39,0,0,0-2.79-.56C108.18,105.69,107.83,105.79,107.49,105.9Z"/><path id="Trazado_1576" data-name="Trazado 1576" class="cls-8" d="M108.84,96a5.92,5.92,0,0,1-2,.83,4.69,4.69,0,0,1-2.17.21c0-.09,1-.18,2.11-.5A14.91,14.91,0,0,1,108.84,96Z"/><path id="Trazado_1577" data-name="Trazado 1577" class="cls-7" d="M121.44,142,119,127.56l-10,1.85s.53,19.68,1,24.52c.77,7.85,4.66,16.15,10.58,14.69,5.54-1.38,12.07-12.94,12.07-12.94Z"/><path id="Trazado_1578" data-name="Trazado 1578" class="cls-3" d="M171.78,60.63a1.27,1.27,0,0,0,1.79.1l.1-.1a3.92,3.92,0,0,0,.77-2,3.18,3.18,0,0,1,.87-2c.55-.46,1.59-.4,1.83.29a1.75,1.75,0,0,1,1.25-2.12,1.83,1.83,0,0,1,.9,0,2.51,2.51,0,0,1,5,0,1.71,1.71,0,0,1,2.42-.1,1.74,1.74,0,0,1,.51,1.62,2.34,2.34,0,0,1,1.89,2.7,2.6,2.6,0,0,1-.27.75,2.23,2.23,0,0,1,1,4.06A2,2,0,0,1,188,66.6a3.11,3.11,0,0,1-4.24,1.08,9,9,0,0,1-8.54-1.1"/><path id="Trazado_1579" data-name="Trazado 1579" class="cls-7" d="M172.37,68.29A3.47,3.47,0,0,0,169,65l-18.7-3.39c-5.93-.22-9.35,7.3-9.32,13.24a106.15,106.15,0,0,0,1.47,19.5c2.23,9.74,9.87,10.48,9.87,10.48s.07,3.05.28,7.35a10.39,10.39,0,0,0,10.88,9.88l.31,0h0a10.39,10.39,0,0,0,9.57-10.6Z"/><path id="Trazado_1580" data-name="Trazado 1580" class="cls-3" d="M144.33,81.85a1.26,1.26,0,0,0,1.3,1.2,1.22,1.22,0,0,0,1.22-1.21v0a1.26,1.26,0,0,0-1.3-1.19,1.2,1.2,0,0,0-1.22,1.2Z"/><path id="Trazado_1581" data-name="Trazado 1581" class="cls-3" d="M143.19,78.26c.17.15,1.08-.62,2.43-.71s2.41.52,2.55.34-.12-.36-.56-.65a3.43,3.43,0,0,0-2.05-.48,3.3,3.3,0,0,0-1.92.77C143.23,77.88,143.11,78.19,143.19,78.26Z"/><path id="Trazado_1582" data-name="Trazado 1582" class="cls-3" d="M157.05,81.47a1.25,1.25,0,0,0,1.3,1.18,1.21,1.21,0,0,0,1.23-1.19v0a1.26,1.26,0,0,0-1.31-1.19,1.2,1.2,0,0,0-1.22,1.2Z"/><path id="Trazado_1583" data-name="Trazado 1583" class="cls-3" d="M156.61,78.23c.17.15,1.09-.62,2.44-.71s2.4.52,2.54.35-.11-.37-.56-.66a3.46,3.46,0,0,0-2-.47,3.26,3.26,0,0,0-1.93.77C156.65,77.86,156.53,78.19,156.61,78.23Z"/><path id="Trazado_1584" data-name="Trazado 1584" class="cls-3" d="M152.37,88.65a8.38,8.38,0,0,0-2.23-.24c-.35,0-.68-.07-.75-.3a1.7,1.7,0,0,1,.15-1l.85-2.72a46.46,46.46,0,0,0,1.83-7.07,45.94,45.94,0,0,0-2.4,6.91L149,86.92a2,2,0,0,0-.08,1.37.87.87,0,0,0,.64.49,2.62,2.62,0,0,0,.56,0A8.57,8.57,0,0,0,152.37,88.65Z"/><path id="Trazado_1585" data-name="Trazado 1585" class="cls-8" d="M152.34,104.8a25.21,25.21,0,0,0,12.95-4.42s-2.87,7-12.78,6.75Z"/><path id="Trazado_1586" data-name="Trazado 1586" class="cls-3" d="M155.73,74.74c.15.36,1.5.09,3.1.17s2.94.43,3.12.08c.08-.15-.16-.49-.71-.82a5.36,5.36,0,0,0-2.35-.64,5.05,5.05,0,0,0-2.39.45C155.92,74.26,155.68,74.56,155.73,74.74Z"/><path id="Trazado_1587" data-name="Trazado 1587" class="cls-3" d="M143.47,74.93c.25.29,1.17-.09,2.29-.19s2.1.07,2.29-.27c.09-.16-.08-.47-.51-.73a3.37,3.37,0,0,0-3.71.37C143.46,74.46,143.35,74.79,143.47,74.93Z"/><path id="Trazado_1588" data-name="Trazado 1588" class="cls-3" d="M147.92,61.43c-.56,1.22,1.81,3.47,3.09,3.9s2.94.21,3.63,1.37c.79,1.32-.82,3.45,1.86,4.89.84.45,2.07-.5,2.78.15.88.8-.26,2.18-.23,3.34.08,2.3,4.27,2.48,4.55,4.76.17,1.43-1.44,2.78-.88,4.13s2.87,1.25,3.43,2.61c.73,1.76-2.22,3.27-1.86,5.13s3.46,1.84,4.07,3.61c.53,1.52-1.17,3.18-.59,4.67.66,1.7,3.55,1.46,4.32,3.12.93,2-2.23,4.32-1.16,6.25.36.65,1.18.87,1.67,1.43a6.18,6.18,0,0,1-.18,7.32h1.15a10.54,10.54,0,0,0,8.71-4.87h0l1,2.23a24.21,24.21,0,0,0,8-5.07,5,5,0,0,1,4.49-1l.68.18a11.59,11.59,0,0,0,6.5-2c-2.27-.45-3.5-2.94-4.07-5.19s-.91-4.77-2.62-6.35-5-2.1-5.89-4.46c-.67-1.86.56-4,0-5.87s-2.84-2.83-3.7-4.63c-1.18-2.45.52-5.7-1-8-1.62-2.47-6-2.11-7.2-4.8-.68-1.49-.13-3.5-1.3-4.63-.94-.91-2.54-.76-3.53-1.62-1.45-1.25-.74-3.83-2-5.28-1.7-1.95-5.19-.23-7.37-1.62-1.38-.87-1.84-2.76-3.2-3.65-1.84-1.23-4.26-.12-6.35.61-1.61.55-3.31.88-4.89,1.57a6.28,6.28,0,0,0-3.59,3.45,3.38,3.38,0,0,0,1.76,4.27"/><path id="Trazado_1589" data-name="Trazado 1589" class="cls-3" d="M199.86,99.73a1,1,0,0,1,.15.14,5.74,5.74,0,0,1,.45.44,5.08,5.08,0,0,1,.66.81,3,3,0,0,1,.56,1.31,2.2,2.2,0,0,1-.51,1.67,1.51,1.51,0,0,1-.91.5,1.47,1.47,0,0,1-1.07-.32,3.33,3.33,0,0,1-.93-2.23,24.5,24.5,0,0,1,0-2.71c.05-1,.13-1.94.26-3,.07-.52.16-1,.24-1.57a5.73,5.73,0,0,0,.1-1.6,1.73,1.73,0,0,0-.73-1.35,2.58,2.58,0,0,0-1.61-.29c-.61.06-1.21.09-1.82.09a2.27,2.27,0,0,1-1.71-.82,3.38,3.38,0,0,1-.6-1.87,9.81,9.81,0,0,1,.16-2,7,7,0,0,0,.06-1.94,2.35,2.35,0,0,0-.93-1.61,10.62,10.62,0,0,0-1.82-.9,3.53,3.53,0,0,1-1.6-1.43,8.38,8.38,0,0,1-.68-4.25,12.43,12.43,0,0,0-.1-2.11,4.3,4.3,0,0,0-.74-1.9,8.15,8.15,0,0,0-3.43-2.13,10.52,10.52,0,0,1-1.8-1,3.42,3.42,0,0,1-1.21-1.64,9.87,9.87,0,0,1-.28-1.94,2.45,2.45,0,0,0-.7-1.62,3.34,3.34,0,0,0-1.63-.66,9,9,0,0,1-1.77-.43,2.43,2.43,0,0,1-1.31-1.25,5,5,0,0,1-.35-1.67,6.94,6.94,0,0,0-.56-3.08,4.19,4.19,0,0,0-2.23-1.76,7.72,7.72,0,0,0-2.61-.51c-.84,0-1.67,0-2.4-.06a11.36,11.36,0,0,1-2.09-.25,5.71,5.71,0,0,1-1.67-.66A3.9,3.9,0,0,1,161,52.47a2.08,2.08,0,0,1-.22-.82,5.79,5.79,0,0,0,.27.8,3.9,3.9,0,0,0,1.67,1.67,5.82,5.82,0,0,0,1.64.66,11.2,11.2,0,0,0,2.07.22c.75,0,1.56,0,2.41,0a8.41,8.41,0,0,1,2.67.5,4.42,4.42,0,0,1,2.35,1.84,7.38,7.38,0,0,1,.6,3.18,4.93,4.93,0,0,0,.34,1.61A2.16,2.16,0,0,0,176,63.29a9.36,9.36,0,0,0,1.72.41,3.54,3.54,0,0,1,1.76.71,2.66,2.66,0,0,1,.79,1.78,11,11,0,0,0,.27,1.9,3.21,3.21,0,0,0,1.12,1.5,8.9,8.9,0,0,0,1.74,1c.62.27,1.26.55,1.88.87A4.86,4.86,0,0,1,187,72.76a4.5,4.5,0,0,1,.8,2,12.14,12.14,0,0,1,.11,2.17,8.46,8.46,0,0,0,.64,4.1A3.2,3.2,0,0,0,190,82.36a11.23,11.23,0,0,1,1.87.93,2.62,2.62,0,0,1,1,1.8,7.51,7.51,0,0,1-.06,2,9.42,9.42,0,0,0-.16,1.91,3.06,3.06,0,0,0,.53,1.71,2,2,0,0,0,1.52.73,17.53,17.53,0,0,0,1.78-.09,2.79,2.79,0,0,1,1.77.35,2,2,0,0,1,.84,1.53,6.68,6.68,0,0,1-.11,1.67c-.1.55-.18,1-.25,1.55-.14,1-.23,2-.28,3a21.79,21.79,0,0,0,0,2.68,3.3,3.3,0,0,0,.85,2.13,1.25,1.25,0,0,0,1.75-.14l0,0a2.06,2.06,0,0,0,.51-1.58,3.15,3.15,0,0,0-.5-1.28,6.7,6.7,0,0,0-.62-.81l-.43-.46A1,1,0,0,1,199.86,99.73Z"/><path id="Trazado_1590" data-name="Trazado 1590" class="cls-2" d="M178.29,114l.27-.11.77-.35a2.94,2.94,0,0,0,1.06-.85,1.68,1.68,0,0,0,.19-1.71,1.36,1.36,0,0,0-.83-.61c-.37-.11-.78-.15-1.19-.31a1.51,1.51,0,0,1-.6-.35,1.15,1.15,0,0,1-.28-.67,2.79,2.79,0,0,1,.5-1.38,3.16,3.16,0,0,0,.48-1.4,3,3,0,0,0-.29-1.53,2.86,2.86,0,0,0-2.83-1.51h-.11v-.12a4,4,0,0,1,.8-2.46,15.85,15.85,0,0,0,1.43-2.28A3.69,3.69,0,0,0,178,97a1.82,1.82,0,0,0-.42-1.24c-.6-.71-1.67-.88-2.57-1.3a2,2,0,0,1-1.18-2.68,9.18,9.18,0,0,0,1-3,2.36,2.36,0,0,0-.59-1.38,5,5,0,0,0-1.24-1A26.34,26.34,0,0,1,170,84.8a3,3,0,0,1-1.11-1.8,4.45,4.45,0,0,1,.2-2.08c.18-.65.42-1.28.56-1.92a3.82,3.82,0,0,0,.08-1,2,2,0,0,0-.3-.86,2.77,2.77,0,0,0-1.5-1,10.26,10.26,0,0,1-1.79-.71A2.31,2.31,0,0,1,165,73.9a4.9,4.9,0,0,1,.11-1.87c.12-.59.27-1.16.34-1.74a3.17,3.17,0,0,0-.14-1.67,2.65,2.65,0,0,0-1-1.18,5.57,5.57,0,0,0-1.47-.61c-1-.28-2.07-.36-3-.71a3.53,3.53,0,0,1-2.21-1.84c-.43-.82-.66-1.67-1-2.4a4.46,4.46,0,0,0-1.4-1.76,4.24,4.24,0,0,0-3.46-.75,4.46,4.46,0,0,0-2,1.06,6.32,6.32,0,0,0-.56.6,2.92,2.92,0,0,1,.52-.64,4.39,4.39,0,0,1,2-1.11,4.3,4.3,0,0,1,3.57.73,4.45,4.45,0,0,1,1.46,1.81c.37.75.6,1.59,1,2.38a3.77,3.77,0,0,0,.82,1.07,4,4,0,0,0,1.23.7c.92.33,2,.4,3,.68a5.74,5.74,0,0,1,1.54.63,2.9,2.9,0,0,1,1.15,1.3,3.56,3.56,0,0,1,.17,1.77c-.08.6-.23,1.18-.35,1.76a4.54,4.54,0,0,0-.1,1.76,2,2,0,0,0,1,1.37,12,12,0,0,0,1.75.68A3,3,0,0,1,169.64,77a2.17,2.17,0,0,1,.34,1,4,4,0,0,1-.08,1c-.13.67-.36,1.3-.55,2a4.13,4.13,0,0,0-.2,1.94,2.78,2.78,0,0,0,1,1.63,24.93,24.93,0,0,0,2.87,1.67,5.39,5.39,0,0,1,1.31,1.07,2.63,2.63,0,0,1,.65,1.55,9.12,9.12,0,0,1-1,3.06,1.93,1.93,0,0,0,0,1.42,2,2,0,0,0,1,.93c.44.21.93.35,1.4.56a3.26,3.26,0,0,1,1.27.83,2.12,2.12,0,0,1,.46,1.43,3.77,3.77,0,0,1-.33,1.4,15.42,15.42,0,0,1-1.45,2.31,3.77,3.77,0,0,0-.78,2.31l-.13-.11a3.07,3.07,0,0,1,3,1.68,3.15,3.15,0,0,1-.22,3.11,2.72,2.72,0,0,0-.49,1.28,1,1,0,0,0,.76.88c.39.14.8.2,1.18.31a1.51,1.51,0,0,1,.91.69,1.53,1.53,0,0,1,.13,1,2.12,2.12,0,0,1-.36.83,3.06,3.06,0,0,1-1.11.84,6.09,6.09,0,0,1-1.09.37Z"/><path id="Trazado_1591" data-name="Trazado 1591" class="cls-2" d="M194.13,108.84a3.23,3.23,0,0,0,.41-.78,3.15,3.15,0,0,0-.15-2.41,2.86,2.86,0,0,0-1.24-1.24,10.23,10.23,0,0,1-.89-.56,1.55,1.55,0,0,1-.61-1c-.11-.84.47-1.59.45-2.43a1.36,1.36,0,0,0-.59-1.09,6.09,6.09,0,0,0-1.24-.65,5.62,5.62,0,0,1-1.34-.73,2.23,2.23,0,0,1-.8-1.4,18.62,18.62,0,0,1,.2-3.34,2.63,2.63,0,0,0-.41-1.6,3.17,3.17,0,0,0-1.41-1,15.45,15.45,0,0,1-1.73-.73,2.13,2.13,0,0,1-1.18-1.55,7.45,7.45,0,0,1,.09-2,2.33,2.33,0,0,0-.35-1.81,4.14,4.14,0,0,0-1.71-1,3.39,3.39,0,0,1-1.78-1.19,3.22,3.22,0,0,1-.37-2.15,13,13,0,0,1,.56-2.12,5.53,5.53,0,0,0,.28-2.1,2.47,2.47,0,0,0-1.07-1.73,6.26,6.26,0,0,0-2-.7c-.72-.14-1.45-.26-2.16-.47a4.24,4.24,0,0,1-1.93-1.07A4.9,4.9,0,0,1,172,70.2a41,41,0,0,1-.83-4.08,7.25,7.25,0,0,0-.64-1.85,3.39,3.39,0,0,0-1.29-1.34,6.82,6.82,0,0,0-3.63-.39,8.6,8.6,0,0,1-1.83,0,3.73,3.73,0,0,1-1.68-.7A11.71,11.71,0,0,1,160,59.17,6.58,6.58,0,0,0,159,58a5.35,5.35,0,0,0-1.23-.81,7,7,0,0,0-5.08-.3,9.9,9.9,0,0,0-3.41,1.94,15.65,15.65,0,0,0-1.79,1.76l-.42.5-.16.17a1.27,1.27,0,0,1,.13-.19c.08-.12.22-.29.4-.52a14.33,14.33,0,0,1,1.76-1.81,10.27,10.27,0,0,1,3.45-2,7.27,7.27,0,0,1,5.25.27,6.17,6.17,0,0,1,1.27.83,7.07,7.07,0,0,1,1,1.21,12,12,0,0,0,2.05,2.56,3.65,3.65,0,0,0,1.55.64,8.83,8.83,0,0,0,1.78.05,16.64,16.64,0,0,1,1.88-.06,4.19,4.19,0,0,1,1.9.46,3.87,3.87,0,0,1,1.4,1.44,8,8,0,0,1,.67,1.94,37.1,37.1,0,0,0,.83,4,4.67,4.67,0,0,0,1,1.76,4,4,0,0,0,1.81,1c.69.2,1.41.31,2.14.45a6.5,6.5,0,0,1,2.14.75,2.73,2.73,0,0,1,1.2,1.93,5.81,5.81,0,0,1-.29,2.23,13.37,13.37,0,0,0-.53,2.07,2.91,2.91,0,0,0,.33,2,3.22,3.22,0,0,0,1.64,1.12,4.06,4.06,0,0,1,1.82,1,2,2,0,0,1,.42,1,4.44,4.44,0,0,1,0,1,7.64,7.64,0,0,0-.11,1.91A2,2,0,0,0,185,89.75a16.47,16.47,0,0,0,1.67.72,3.47,3.47,0,0,1,1.52,1.07,3,3,0,0,1,.43,1.71,20.14,20.14,0,0,0-.22,3.29,2,2,0,0,0,.72,1.26,5.09,5.09,0,0,0,1.29.71,6.33,6.33,0,0,1,1.28.69,1.61,1.61,0,0,1,.65,1.23c0,.93-.56,1.67-.47,2.41a1.36,1.36,0,0,0,.56.89,9.74,9.74,0,0,0,.86.56,2.88,2.88,0,0,1,1.27,1.31,3.21,3.21,0,0,1,.11,2.49A2.17,2.17,0,0,1,194.13,108.84Z"/><path id="Trazado_1592" data-name="Trazado 1592" class="cls-8" d="M154.12,93.07a1.78,1.78,0,0,1,2.19-2.64,3,3,0,0,1,1.09,1,1.93,1.93,0,0,1,.41,1.46,1.53,1.53,0,0,1-.81.93,2.36,2.36,0,0,1-1.89.16,2.08,2.08,0,0,1-1.29-1.37"/><path id="Trazado_1593" data-name="Trazado 1593" class="cls-3" d="M157.31,90.16c.11,0,.16.36,0,.86a3.45,3.45,0,0,1-3.11,2.3c-.53,0-.83-.14-.82-.25s1.17-.34,2.23-1.11S157.08,90.1,157.31,90.16Z"/><path id="Trazado_1594" data-name="Trazado 1594" class="cls-1" d="M122.09,128a2.53,2.53,0,0,1,.64-2.47,3.8,3.8,0,0,1,2.4-1.06,4.09,4.09,0,0,1,2.28.42,2.79,2.79,0,0,1,1.32,3.72,3,3,0,0,1-.55.77,4,4,0,0,1-2.62,1.21,3.25,3.25,0,0,1-2.33-.66,2.82,2.82,0,0,1-1.12-1.93"/><path id="Trazado_1595" data-name="Trazado 1595" class="cls-2" d="M113.74,131.13c-3.3.87-6.91-2.58-7.92-4.93a.65.65,0,0,1,.75-1,7.84,7.84,0,0,1,7.17,5.95"/><path id="Trazado_1596" data-name="Trazado 1596" class="cls-1" d="M109.84,129.62a2.49,2.49,0,0,1,.64-2.46,3.7,3.7,0,0,1,2.39-1.06,4,4,0,0,1,2.29.42,2.8,2.8,0,0,1,1.28,3.73,2.86,2.86,0,0,1-.52.73,3.91,3.91,0,0,1-2.62,1.2,3.28,3.28,0,0,1-2.33-.64,2.82,2.82,0,0,1-1.12-1.94"/><path id="Trazado_1597" data-name="Trazado 1597" class="cls-2" d="M127.19,129a10.7,10.7,0,0,1,1.83-5.47,8.62,8.62,0,0,1,3.9-3.39.37.37,0,0,1,.52.06.36.36,0,0,1,.07.17,6.17,6.17,0,0,1-6.32,8.63"/><path id="Trazado_1598" data-name="Trazado 1598" class="cls-2" d="M139.16,125a17,17,0,0,0,1.57-2.59,5.59,5.59,0,0,0,.52-3,.42.42,0,0,0-.63-.39,9.28,9.28,0,0,0-6.54,8.65l-.06.51a7.16,7.16,0,0,0,5.36.36,11.07,11.07,0,0,0,4-1.93,6,6,0,0,0,2.23-3.73A8,8,0,0,0,139.16,125Z"/><path id="Trazado_1599" data-name="Trazado 1599" class="cls-2" d="M118.06,123.7a12,12,0,0,0-6.17-2.53A8.46,8.46,0,0,0,120,130h.14l.11-.25A6.26,6.26,0,0,0,118.06,123.7Z"/><path id="Trazado_1600" data-name="Trazado 1600" class="cls-9" d="M106.84,129.59S110.75,143,118.5,147.7c10.12,6.19,25.33-2,26.62-5.28S148.68,126,148.68,126Z"/><path id="Trazado_1601" data-name="Trazado 1601" class="cls-3" d="M106.84,129.59h.2l.6-.06,2.33-.21,8.72-.78,30-2.62h.18l0,.18c-.71,4-1.49,8.33-2.51,12.69-.22.94-.44,1.84-.72,2.75-.06.23-.14.45-.22.67l-.12.34a3.24,3.24,0,0,1-.17.32,5.76,5.76,0,0,1-.94,1.09,20.42,20.42,0,0,1-4.57,3,31,31,0,0,1-4.91,1.95,26.9,26.9,0,0,1-5,1,18.73,18.73,0,0,1-9.23-1.08,16.51,16.51,0,0,1-6.4-5,34.08,34.08,0,0,1-3.69-5.6,49.09,49.09,0,0,1-2.13-4.6c-.52-1.29-.87-2.31-1.11-3-.12-.34-.2-.61-.25-.79s-.07-.28-.07-.28.07.18.1.27.16.45.28.79c.24.68.6,1.7,1.14,3,.65,1.55,1.38,3.08,2.18,4.56a34.1,34.1,0,0,0,3.7,5.57,16.33,16.33,0,0,0,6.36,4.82,18.48,18.48,0,0,0,9.11,1,30.12,30.12,0,0,0,9.76-3,20.27,20.27,0,0,0,4.51-3,6.08,6.08,0,0,0,.88-1l.15-.29c0-.11.08-.22.12-.33s.16-.43.22-.66c.27-.89.49-1.8.72-2.72,1-4.36,1.79-8.64,2.5-12.68l.16.17-29.88,2.48-8.76.7-2.36.18-.62.05Z"/><path id="Trazado_1602" data-name="Trazado 1602" class="cls-10" d="M117.09,144.8a2.3,2.3,0,0,1-.46-.42c-.29-.28-.7-.7-1.19-1.24a37.7,37.7,0,0,1-3.47-4.5,38.79,38.79,0,0,1-2.79-4.95c-.31-.66-.56-1.2-.69-1.58a3.84,3.84,0,0,1-.2-.6,2.05,2.05,0,0,1,.31.56c.18.36.44.89.77,1.53a49.91,49.91,0,0,0,2.86,4.89,52.6,52.6,0,0,0,3.38,4.52l1.12,1.3A2.21,2.21,0,0,1,117.09,144.8Z"/><path id="Trazado_1603" data-name="Trazado 1603" class="cls-10" d="M146.5,128.28a1.78,1.78,0,0,1-.39.07l-1.11.16c-1,.13-2.37.3-4.1.5-3.46.39-8.25.86-13.55,1.27s-10.12.66-13.59.8c-1.75.07-3.15.12-4.13.13h-1.52a1.72,1.72,0,0,1,.39,0l1.12-.07,4.12-.23c3.47-.2,8.28-.49,13.58-.89s10.08-.85,13.55-1.19l4.11-.4,1.11-.1h.41Z"/><path id="Trazado_1604" data-name="Trazado 1604" class="cls-7" d="M185.29,143.63l-2.79,14.45-28.72-15.25-6.46,6.82s27.35,25,33.07,29.58,13.53-.71,15.81-9.19,5.3-19.43,6.16-26.55Z"/><path id="Trazado_1605" data-name="Trazado 1605" class="cls-7" d="M156.24,144.62s-8.3-6.3-11.24-5.66a11.5,11.5,0,0,0-2.55.82,7.17,7.17,0,0,1-3.12.75c-1.08,0-2.46,0-3.79-.07-2.56-.11-3.35.56-3.55,1.54a1.59,1.59,0,0,0,1.21,1.9l.22,0a29.94,29.94,0,0,1,4.9.68c1.54.51-.26.19-2.18,1.44s-9.75,1.5-9.75,1.5l-4.25-3.25a1.43,1.43,0,0,0-2,.25A1.41,1.41,0,0,0,120,146l0,.07-.39-.4a1.21,1.21,0,0,0-2,1.34l0,.05,3.46,3.34,5.26,2.18,9.11-.9s6.68-2.44,7.95-2.82,5.52.82,8.78,4.46Z"/><path id="Trazado_1606" data-name="Trazado 1606" class="cls-8" d="M189.41,170.66s-.29-.77-.75-2a39.57,39.57,0,0,0-2.17-4.73,36.56,36.56,0,0,0-2.82-4.37c-.79-1.07-1.33-1.7-1.29-1.73a2.33,2.33,0,0,1,.42.41c.26.26.61.68,1,1.2a30.19,30.19,0,0,1,2.9,4.35,28.39,28.39,0,0,1,2.1,4.8,15,15,0,0,1,.45,1.52A1.87,1.87,0,0,1,189.41,170.66Z"/><path id="Trazado_1607" data-name="Trazado 1607" class="cls-8" d="M135.62,151.65a4,4,0,0,1-.77.13l-2.13.23c-1.8.19-4.3.34-7,.45a7.75,7.75,0,0,1-2-.11,5.52,5.52,0,0,1-1.75-.78,11.81,11.81,0,0,1-2.34-2.18c-.59-.69-1-1.27-1.35-1.67a4.07,4.07,0,0,1-.46-.63,3.3,3.3,0,0,1,.56.56l1.41,1.6a12.14,12.14,0,0,0,2.33,2.08,5.18,5.18,0,0,0,1.67.73,7.65,7.65,0,0,0,2,.1c2.79-.11,5.24-.23,7-.36l2.14-.14A4,4,0,0,1,135.62,151.65Z"/><path id="Trazado_1608" data-name="Trazado 1608" class="cls-8" d="M133.39,151.43a2.09,2.09,0,0,1-.56,0h-1.47c-1.24,0-3,0-4.93-.06h0c-.27-.06-.55-.12-.87-.21a6.58,6.58,0,0,1-1.5-.55,4.72,4.72,0,0,1-1.16-1c-.6-.73-1.11-1.4-1.54-2s-.75-1-1-1.37a2.73,2.73,0,0,1-.3-.56,3,3,0,0,1,.4.47c.24.31.59.77,1,1.31l1.58,1.92a4.83,4.83,0,0,0,2.53,1.45l.87.2h0c1.95.05,3.69.1,4.93.16l1.47.07A1.73,1.73,0,0,1,133.39,151.43Z"/><path id="Trazado_1609" data-name="Trazado 1609" class="cls-8" d="M143.93,145.62c0,.08-1.11-.2-2.46-.39S139,145,139,145a6.67,6.67,0,0,1,2.52,0A6.44,6.44,0,0,1,143.93,145.62Z"/><path id="Trazado_1610" data-name="Trazado 1610" class="cls-2" d="M179.52,68.84a.86.86,0,0,1-.45,0,2.73,2.73,0,0,1-2.15-2c-.18-.67-.15-1.44-.39-2.13a1.54,1.54,0,0,0-.62-.8,3.57,3.57,0,0,0-.95-.33,3.89,3.89,0,0,1-.94-.33,1.8,1.8,0,0,1-.64-.56,3.48,3.48,0,0,1-.5-1.11c-.07-.28-.1-.44-.07-.44a1.81,1.81,0,0,1,.18.4,4.54,4.54,0,0,0,.56,1,1.86,1.86,0,0,0,.59.49,3.92,3.92,0,0,0,.88.28,3.39,3.39,0,0,1,1,.35,1.8,1.8,0,0,1,.76.94c.26.79.21,1.54.37,2.17a2.54,2.54,0,0,0,.91,1.41A3.59,3.59,0,0,0,179.52,68.84Z"/><path id="Trazado_1611" data-name="Trazado 1611" class="cls-2" d="M190,59.62a.61.61,0,0,1,.14.29,1.49,1.49,0,0,1,0,.91,1.43,1.43,0,0,1-1,1,1.62,1.62,0,0,1-1.71-.68h.21a3.18,3.18,0,0,1-2,2,3,3,0,0,1-1.63.07,3.29,3.29,0,0,1-1.48-.85,3.22,3.22,0,0,1-.85-1.58l.24.08a6.73,6.73,0,0,1-3.14,1.49,6.9,6.9,0,0,1-2.79,0,6.23,6.23,0,0,1-1.73-.65,3,3,0,0,1-.42-.27.79.79,0,0,1-.14-.1,9,9,0,0,0,2.32.83,7,7,0,0,0,2.7,0,6.53,6.53,0,0,0,3-1.46l.18-.16.05.25a2.7,2.7,0,0,0,.78,1.42,2.85,2.85,0,0,0,1.34.78,2.72,2.72,0,0,0,1.47,0A3,3,0,0,0,187.3,61l.07-.24.14.22a1.41,1.41,0,0,0,1.46.62,1.33,1.33,0,0,0,1-.82A1.64,1.64,0,0,0,190,60C190,59.84,190,59.73,190,59.62Z"/><path id="Trazado_1612" data-name="Trazado 1612" class="cls-2" d="M184.84,53.82a.36.36,0,0,1,.21.11.76.76,0,0,1,.16.65,1,1,0,0,1-.74.73,2.28,2.28,0,0,1-1.34-.13l.16-.17a2.07,2.07,0,0,1-1.11,2.5,5.23,5.23,0,0,1-2.3.49,5.4,5.4,0,0,1-1.92-.2,2,2,0,0,1-1-.79c-.16-.27-.18-.45-.15-.45s.07.16.25.39a2.1,2.1,0,0,0,1,.66,5.64,5.64,0,0,0,1.83.12,4.93,4.93,0,0,0,2.17-.47,1.83,1.83,0,0,0,1-2.14l-.12-.28.28.11a2.11,2.11,0,0,0,1.19.17.86.86,0,0,0,.65-.56A.73.73,0,0,0,185,54C184.91,53.87,184.83,53.83,184.84,53.82Z"/></g></g></svg>