<svg id="electricity-tower" xmlns="http://www.w3.org/2000/svg" width="38.002" height="46.533" viewBox="0 0 38.002 46.533">
  <path id="Trazado_1944" data-name="Trazado 1944" d="M296,272h1.551v1.551H296Z" transform="translate(-277.387 -247.182)" fill="#d7e51c"/>
  <path id="Trazado_1945" data-name="Trazado 1945" d="M109.429,21.429a2.329,2.329,0,0,0-2.327,2.327v.776h-.776a2.327,2.327,0,1,0,0,4.653h5.108l4.974,4.974v27.6a.776.776,0,0,0,.776.776h3.1a.776.776,0,0,0,.776-.776V45.471h5.429a.776.776,0,0,0,.776-.776V39.267a.776.776,0,0,0,.776-.776V34.613a.776.776,0,0,0-.776-.776h-5.883l4.653-4.653h1.684l.045.045a11.036,11.036,0,0,0,13.89,1.375.776.776,0,0,0-.86-1.291,9.487,9.487,0,0,1-10.68-.13h1.028a2.327,2.327,0,1,0,0-4.653h-.776v-.776a2.327,2.327,0,1,0-4.653,0v.776h-4.653V19.878a2.323,2.323,0,0,0-1.551-2.184v-.918a.776.776,0,1,0-1.551,0v.918a2.323,2.323,0,0,0-1.551,2.184v4.653h-4.653v-.776a2.329,2.329,0,0,0-2.327-2.327Zm-.776,2.327a.776.776,0,1,1,1.551,0v.776h-1.551Zm4.974,5.429h2.781v2.781ZM125.715,43.92h-4.653V39.267h4.653Zm.776-6.2h-5.429V35.389h5.429Zm-5.429-5.75V29.184h2.781Zm6.2-8.21a.776.776,0,1,1,1.551,0v.776h-1.551Zm3.878,2.327a.777.777,0,0,1,.776.776.756.756,0,0,1-.237.552.744.744,0,0,1-.539.223H121.062V26.082Zm-13.184-6.2a.776.776,0,1,1,1.551,0v41.1H117.96Zm-1.551,7.756H106.327a.777.777,0,0,1-.776-.776.756.756,0,0,1,.237-.552.744.744,0,0,1,.539-.223h10.082Z" transform="translate(-104 -16)" fill="#d7e51c"/>
</svg>
