<svg id="forest" xmlns="http://www.w3.org/2000/svg" width="40.284" height="40.315" viewBox="0 0 40.284 40.315">
  <path id="Trazado_1946" data-name="Trazado 1946" d="M44.248,43.594H37.7V34.461a3.279,3.279,0,0,0,.38.024A3.321,3.321,0,0,0,41.39,31.17v-.032a3.317,3.317,0,0,0,2.328-5.1,3.313,3.313,0,0,0-.344-5.236,3.311,3.311,0,0,0-1.621-4.053,3.243,3.243,0,0,0,.049-.563,3.318,3.318,0,0,0-2.711-3.256,3.315,3.315,0,0,0-6.626,0,3.274,3.274,0,0,0-.559.162h0a3.9,3.9,0,0,0,.078-.772,3.951,3.951,0,0,0-3.338-3.9,3.948,3.948,0,0,0-7.9,0,3.953,3.953,0,0,0-3.338,3.9,3.9,3.9,0,0,0,.078.773h0a3.221,3.221,0,0,0-.559-.161,3.315,3.315,0,0,0-6.625,0A3.321,3.321,0,0,0,7.6,16.182a3.243,3.243,0,0,0,.049.563A3.311,3.311,0,0,0,6.024,20.8a3.313,3.313,0,0,0-.344,5.236,3.317,3.317,0,0,0,2.328,5.1v.032a3.321,3.321,0,0,0,3.315,3.315,3.278,3.278,0,0,0,.38-.024v9.133H5.15a.593.593,0,0,0,0,1.186h39.1a.593.593,0,1,0,0-1.186ZM33.543,13.846a.593.593,0,0,0,.136-.476,2.08,2.08,0,0,1-.028-.327,2.129,2.129,0,0,1,4.258,0,2.079,2.079,0,0,1-.028.327.6.6,0,0,0,.147.474.616.616,0,0,0,.461.207,2.123,2.123,0,0,1,2,2.846.593.593,0,0,0,.384.767,2.125,2.125,0,0,1,1.22,3.092.593.593,0,0,0,.278.839,2.128,2.128,0,0,1,.2,3.808.593.593,0,0,0-.126.938,2.128,2.128,0,0,1-1.5,3.641c-.058,0-.115,0-.171-.009a.593.593,0,0,0-.625.722,2.164,2.164,0,0,1,.055.474,2.127,2.127,0,0,1-3.925,1.14.593.593,0,0,0-1,0,2.123,2.123,0,0,1-3.882-.745,3.95,3.95,0,0,0,.079-.784c0-.054,0-.107,0-.161A3.948,3.948,0,0,0,34.3,24.427a3.944,3.944,0,0,0-.407-6.372,3.949,3.949,0,0,0-.712-4.011A.616.616,0,0,0,33.543,13.846ZM27.528,34.727a3.942,3.942,0,0,0,3.226-1.681,3.33,3.33,0,0,0,2.729,1.439,3.272,3.272,0,0,0,.379-.024v9.133h-6.94V34.675A3.942,3.942,0,0,0,27.528,34.727ZM18.735,13.7a.593.593,0,0,0,.028-.465,2.755,2.755,0,0,1,2.568-3.691.624.624,0,0,0,.508-.2.594.594,0,0,0,.136-.477,2.717,2.717,0,0,1-.037-.424,2.762,2.762,0,0,1,5.523,0,2.718,2.718,0,0,1-.037.424.6.6,0,0,0,.149.476.622.622,0,0,0,.464.207,2.754,2.754,0,0,1,2.6,3.69.594.594,0,0,0,.384.767,2.756,2.756,0,0,1,1.58,4.01.593.593,0,0,0,.279.84,2.759,2.759,0,0,1,.259,4.938.593.593,0,0,0-.126.938,2.76,2.76,0,0,1-1.943,4.721c-.076,0-.149-.006-.223-.012a.593.593,0,0,0-.625.723A2.758,2.758,0,0,1,25.2,32.258a.593.593,0,0,0-1,0,2.756,2.756,0,0,1-5.018-2.093.593.593,0,0,0-.625-.723c-.074.006-.147.012-.223.012a2.76,2.76,0,0,1-1.943-4.721.593.593,0,0,0-.129-.938,2.759,2.759,0,0,1,.257-4.938.593.593,0,0,0,.279-.84,2.756,2.756,0,0,1,1.582-4.01A.593.593,0,0,0,18.735,13.7Zm-2.821,20.78a3.33,3.33,0,0,0,2.729-1.439,3.891,3.891,0,0,0,3.832,1.63v8.918h-6.94V34.461a3.273,3.273,0,0,0,.379.024ZM9.194,31.17a2.163,2.163,0,0,1,.055-.474.593.593,0,0,0-.625-.722c-.057,0-.114.009-.171.009a2.128,2.128,0,0,1-1.5-3.641.593.593,0,0,0-.126-.938,2.128,2.128,0,0,1,.2-3.808.593.593,0,0,0,.278-.839,2.125,2.125,0,0,1,1.22-3.092.593.593,0,0,0,.385-.767,2.124,2.124,0,0,1,1.973-2.846.621.621,0,0,0,.5-.205.593.593,0,0,0,.136-.476,2.079,2.079,0,0,1-.028-.327,2.129,2.129,0,0,1,4.258,0,2.079,2.079,0,0,1-.028.327.6.6,0,0,0,.147.474.606.606,0,0,0,.356.2,3.949,3.949,0,0,0-.715,4.013,3.944,3.944,0,0,0-.407,6.372,3.948,3.948,0,0,0,2.825,6.194c0,.054,0,.108,0,.161a3.949,3.949,0,0,0,.079.783,2.123,2.123,0,0,1-3.882.745.593.593,0,0,0-1,0,2.127,2.127,0,0,1-3.925-1.14Zm3.693,12.424v-9.5a3.3,3.3,0,0,0,.732-.532,3.284,3.284,0,0,0,.731.532v9.5Zm10.773,0v-9.3a3.934,3.934,0,0,0,1.039-.765,3.934,3.934,0,0,0,1.038.765v9.3Zm11.387,0v-9.5a3.284,3.284,0,0,0,.732-.532,3.3,3.3,0,0,0,.731.532v9.5Z" transform="translate(-4.557 -4.465)" fill="#d7e51c"/>
  <path id="Trazado_1947" data-name="Trazado 1947" d="M71.238,29.586a.593.593,0,0,0,.383.745.586.586,0,0,0,.182.029.594.594,0,0,0,.565-.411,1.832,1.832,0,0,0-.547-2.029.593.593,0,1,0-.811.866.666.666,0,0,1,.228.8Z" transform="translate(-48.369 -19.866)" fill="#d7e51c"/>
  <path id="Trazado_1948" data-name="Trazado 1948" d="M73.3,71.371h0a.593.593,0,0,0-.591.6c0,.595-.058.659-.347.97a.593.593,0,1,0,.868.808,2.126,2.126,0,0,0,.665-1.783A.593.593,0,0,0,73.3,71.371Z" transform="translate(-49.278 -48.7)" fill="#d7e51c"/>
  <path id="Trazado_1949" data-name="Trazado 1949" d="M75.219,38.576a.593.593,0,0,0,.159.823,2.319,2.319,0,0,1,.929,1.425,2.363,2.363,0,0,1-.644,1.825.593.593,0,0,0,.813.863A3.578,3.578,0,0,0,77.485,40.7a3.5,3.5,0,0,0-1.444-2.287.593.593,0,0,0-.822.159Z" transform="translate(-51.208 -26.846)" fill="#d7e51c"/>
</svg>
