<svg id="Capa_1" data-name="Capa 1" xmlns="http://www.w3.org/2000/svg" viewBox="0 0 300 300"><defs><style>.cls-1{fill:#263238;}.cls-2{fill:#455a64;}.cls-3{fill:#0e7a73;}.cls-4{fill:#f5f5f5;}.cls-5{fill:#e0e0e0;}.cls-6{fill:#fafafa;}.cls-10,.cls-7{opacity:0.3;}.cls-12,.cls-14,.cls-7{isolation:isolate;}.cls-8{fill:#ffbe9d;}.cls-9{fill:#eb996e;}.cls-11,.cls-12{fill:#fff;}.cls-12,.cls-13{opacity:0.6;}.cls-14,.cls-15{opacity:0.4;}.cls-16{opacity:0.2;}</style></defs><g id="Gardening-pana"><g id="freepik--Floor--inject-1"><path id="Trazado_1614" data-name="Trazado 1614" class="cls-1" d="M295.22,262.42c0,.09-65.46.16-146.17.16s-146.18-.09-146.18-.16,65.43-.16,146.18-.16S295.22,262.31,295.22,262.42Z"/></g><g id="freepik--Plants--inject-1"><path id="Trazado_1615" data-name="Trazado 1615" class="cls-2" d="M17.53,262.42a32.68,32.68,0,0,1-7.09-26.51,52.5,52.5,0,0,1,7.09,26.51"/><path id="Trazado_1616" data-name="Trazado 1616" class="cls-2" d="M20.63,262.42a48.12,48.12,0,0,1-1.45-10.88,12,12,0,0,1,.88-5.44,11.79,11.79,0,0,1,5.64-5,43.46,43.46,0,0,0,6.78-3.58,14.38,14.38,0,0,1-5.3,7.12,9.8,9.8,0,0,0-3.47,2.92c-.9,1.65-.4,3.67-.26,5.55a13.62,13.62,0,0,1-2.82,9.31"/><path id="Trazado_1617" data-name="Trazado 1617" class="cls-1" d="M13.83,262.42A19.09,19.09,0,0,0,2.91,251.76a31.39,31.39,0,0,0,10.92,10.66"/><path id="Trazado_1618" data-name="Trazado 1618" class="cls-3" d="M277.48,262.42a85.29,85.29,0,0,1,4-39.14,72.08,72.08,0,0,1-4,39.14"/><path id="Trazado_1619" data-name="Trazado 1619" class="cls-3" d="M281.42,262.42c.14-10.45,7.33-21.89,16.58-26.78.07,3.33-2,6.32-4.37,8.7s-5,4.51-6.67,7.43c-2,3.53-2.33,8.16-5.55,10.62"/><path id="Trazado_1620" data-name="Trazado 1620" class="cls-3" d="M274,262.51a21.56,21.56,0,0,1-8.89-19.62A138.43,138.43,0,0,1,274,262.51"/><path id="Trazado_1621" data-name="Trazado 1621" class="cls-2" d="M210.61,262.51a59.49,59.49,0,0,1,2.82-27.22,50,50,0,0,1-2.81,27.22"/><path id="Trazado_1622" data-name="Trazado 1622" class="cls-2" d="M211.84,262.16a23.86,23.86,0,0,1,3.41-6.87,7,7,0,0,1,6.14-2.78,9.7,9.7,0,0,1,5.38,3.69.52.52,0,0,1,.18.34c0,.24-.27.38-.51.43-2.31.5-4.6-1.27-6.94-1a8.19,8.19,0,0,0-4,2.26c-1,.85-2.7,3.24-3.68,4.09"/></g><g id="freepik--Wheelbarrow--inject-1"><path id="Trazado_1623" data-name="Trazado 1623" class="cls-3" d="M113.34,132.48c-.84-1.75-3.07-2.48-4.69-2.89a4.42,4.42,0,0,0-3.1.11,3.28,3.28,0,0,0-1.58,3.12,5.36,5.36,0,0,0,1.58,3.27,16.41,16.41,0,0,0,2.93,2.25,2.7,2.7,0,0,0-2.07,1.36,1.68,1.68,0,0,0-.19,1.33,1.61,1.61,0,0,0,.88.91,4.29,4.29,0,0,0,1.27.26,33.09,33.09,0,0,0,10.09-1.27,7.72,7.72,0,0,1,.31-2.24,9.91,9.91,0,0,0,0-5.24,5.27,5.27,0,0,0-3.55-3.62,1.83,1.83,0,0,0-1.65.24,1.57,1.57,0,0,0-.48,1.17,4.6,4.6,0,0,0,.24,1.27"/><path id="Trazado_1624" data-name="Trazado 1624" class="cls-3" d="M117.62,122.73a4,4,0,0,0-2.52.29,2.36,2.36,0,0,0-1.33,2,2.62,2.62,0,0,0,1,1.91,7.83,7.83,0,0,0,1.91,1.08l8,3.59a28.68,28.68,0,0,0,4.52-5.66,5,5,0,0,0,.92-4.23,3.27,3.27,0,0,0-4.18-1.53,9.32,9.32,0,0,0-1.77-4.12,5.66,5.66,0,0,0-3.83-2.17,4.11,4.11,0,0,0-3.86,1.91,5.24,5.24,0,0,0-.48,3.39,9.85,9.85,0,0,0,1.16,3.45"/><path id="Trazado_1625" data-name="Trazado 1625" class="cls-3" d="M132.6,149.49a22,22,0,0,1,0-7,5.36,5.36,0,0,1,1.24-2.58,2.72,2.72,0,0,1,2.62-.84,1.85,1.85,0,0,1,1.27,2.24,19.72,19.72,0,0,1,6.58-3,2.44,2.44,0,0,1,2.12.19,2.3,2.3,0,0,1,.47,2.15,9.16,9.16,0,0,1-3.31,5.6,1.77,1.77,0,0,1,1.52,2l0,.18a2.89,2.89,0,0,1-2.11,1.95,8.53,8.53,0,0,1-3,.11c-2.59-.21-4.83-.82-7.41-1"/><path id="Trazado_1626" data-name="Trazado 1626" class="cls-1" d="M124.37,173v-.58c0-.41.07-1,.12-1.66.1-1.46.25-3.54.44-6.08s.36-5.63.52-9,.32-7.14.27-11.06a82.79,82.79,0,0,0-1-11c-.52-3.36-1.13-6.37-1.73-8.87s-1.22-4.49-1.69-5.85c-.22-.68-.43-1.2-.56-1.55l-.15-.41a.46.46,0,0,1,0-.15l.07.14.18.39c.16.35.38.86.63,1.54a54,54,0,0,1,1.8,5.84c.63,2.5,1.27,5.51,1.8,8.88a81.93,81.93,0,0,1,1,11c0,3.94-.12,7.68-.3,11.09s-.4,6.46-.6,9-.39,4.65-.54,6.09c-.07.69-.14,1.24-.18,1.65,0,.14,0,.28,0,.42A.66.66,0,0,1,124.37,173Z"/><path id="Trazado_1627" data-name="Trazado 1627" class="cls-1" d="M143.79,141.72a3.35,3.35,0,0,1-.58.61c-.39.37-1,.9-1.73,1.51a55.33,55.33,0,0,1-12.84,7.88c-.89.39-1.62.64-2.13.85a3.86,3.86,0,0,1-.8.24,5.17,5.17,0,0,1,.75-.36c.49-.21,1.21-.53,2.08-.94a69.3,69.3,0,0,0,6.63-3.57,71.47,71.47,0,0,0,6.18-4.28c.77-.6,1.37-1.09,1.79-1.43A4.56,4.56,0,0,1,143.79,141.72Z"/><path id="Trazado_1628" data-name="Trazado 1628" class="cls-1" d="M136.2,139.05a4.21,4.21,0,0,1,0,.71c0,.52-.09,1.16-.14,1.91-.14,1.63-.34,3.87-.59,6.37l-.16-.18h.38c2.6.06,4.95.14,6.65.21l2,.1a3.05,3.05,0,0,1,.74.08,3.64,3.64,0,0,1-.74.05h-2c-1.71,0-4.06-.05-6.65-.11h-.56V148c.25-2.5.49-4.74.68-6.37.09-.76.18-1.4.24-1.92A2.6,2.6,0,0,1,136.2,139.05Z"/><path id="Trazado_1629" data-name="Trazado 1629" class="cls-1" d="M145.29,144.55a8.5,8.5,0,0,1-1.58.24c-1,.12-2.36.25-3.87.38h-.25l0-.21c.26-1.49.5-2.83.7-3.79a8.35,8.35,0,0,1,.38-1.55,6.51,6.51,0,0,1-.16,1.59c-.13,1-.34,2.32-.6,3.82l-.17-.19h0c1.51-.13,2.88-.22,3.87-.27A6.67,6.67,0,0,1,145.29,144.55Z"/><path id="Trazado_1630" data-name="Trazado 1630" class="cls-3" d="M131.12,137a5,5,0,0,0,1.14-4.15,26.82,26.82,0,0,1-.4-4.47,4,4,0,0,1,.56-1.81,2.33,2.33,0,0,1,1.52-1.08,2,2,0,0,1,2.21,1.74,2.09,2.09,0,0,1,0,.25,8.43,8.43,0,0,1,4.64-3.23,3.09,3.09,0,0,1,2.42.12,3,3,0,0,1,1.14,2.68,6.52,6.52,0,0,1-2.39,4.85,2.58,2.58,0,0,1,1.05,3.36,4,4,0,0,1-3.11,2.1A18.87,18.87,0,0,1,136,137c-1.42-.08-3.53.16-4.83,0"/><path id="Trazado_1631" data-name="Trazado 1631" class="cls-1" d="M141.17,127.6a4.18,4.18,0,0,1-.4.68c-.28.44-.71,1-1.27,1.76a30.25,30.25,0,0,1-11.18,8.71c-.84.37-1.53.63-2,.79a4.15,4.15,0,0,1-.76.23c0-.06,1-.44,2.67-1.24a34,34,0,0,0,11.1-8.63C140.48,128.5,141.12,127.57,141.17,127.6Z"/><path id="Trazado_1632" data-name="Trazado 1632" class="cls-1" d="M142.86,135.17a3.21,3.21,0,0,1-.69.05l-1.87,0h-6.42v-.18l0-.46a62.81,62.81,0,0,0,.19-6.53c0-.78,0-1.44,0-2a3,3,0,0,1,0-.73,3.38,3.38,0,0,1,.11.72c0,.47.11,1.14.16,2a51.27,51.27,0,0,1-.09,6.56,2.42,2.42,0,0,1,0,.47l-.16-.19,6.24.12,1.88.07A3.22,3.22,0,0,1,142.86,135.17Z"/><path id="Trazado_1633" data-name="Trazado 1633" class="cls-1" d="M143.74,129.56a7.53,7.53,0,0,1-1.45.57c-.92.3-2.19.71-3.61,1.15l-.23.06v-.54c.05-1.56.12-3,.18-4a7.56,7.56,0,0,1,.18-1.64,9.08,9.08,0,0,1,.06,1.65c0,1,0,2.43-.08,4v.3l-.21-.15c1.42-.44,2.7-.81,3.63-1.06a8,8,0,0,1,1.53-.33Z"/><path id="Trazado_1634" data-name="Trazado 1634" class="cls-3" d="M119.85,155.43l-.92-5.21a9,9,0,0,0-1-3.3,3,3,0,0,0-2.92-1.51,2.13,2.13,0,0,0-1.64,2.5,2.17,2.17,0,0,0,.07.24,6.94,6.94,0,0,0-4.13-1.71,3.69,3.69,0,0,0-3.64,1.71,3.24,3.24,0,0,0,.9,3.63,10,10,0,0,0,3.46,1.91,6.91,6.91,0,0,0-1.26,1.54,2.33,2.33,0,0,0-.23,1.91,2.25,2.25,0,0,0,1.51,1.31,4.82,4.82,0,0,0,2.07.07,24.88,24.88,0,0,0,7.81-2.9"/><path id="Trazado_1635" data-name="Trazado 1635" class="cls-1" d="M110.91,130.37a5.4,5.4,0,0,1,0,1.27c0,.8-.11,1.91-.22,3.19V135h-.12l-.33.06c-1.31.24-2.49.43-3.35.55a6,6,0,0,1-1.4.14,5.7,5.7,0,0,1,1.36-.37c.85-.18,2-.41,3.33-.63l.33-.06-.14.15c.11-1.24.22-2.35.31-3.16A5.38,5.38,0,0,1,110.91,130.37Z"/><path id="Trazado_1636" data-name="Trazado 1636" class="cls-1" d="M114.4,129.72a3.16,3.16,0,0,1,.14.68c.08.52.16,1.15.28,1.91.21,1.59.49,3.83.77,6.28v.15l-.14,0-.28.05c-2.49.52-4.75,1-6.37,1.27l-1.91.35a3,3,0,0,1-.73.08,3.94,3.94,0,0,1,.69-.21l1.92-.45c1.62-.36,3.87-.85,6.37-1.36l.28-.06-.13.18c-.29-2.46-.52-4.68-.68-6.29-.07-.75-.12-1.38-.16-1.91a2.8,2.8,0,0,1,0-.71Z"/><path id="Trazado_1637" data-name="Trazado 1637" class="cls-1" d="M125.9,148.86a5,5,0,0,1-.63-.75c-.4-.49-1-1.18-1.77-2a79.22,79.22,0,0,0-6.37-6.06c-2.62-2.24-5.1-4.16-6.92-5.47l-2.2-1.52a5.48,5.48,0,0,1-.8-.56,4.78,4.78,0,0,1,.87.45c.55.32,1.33.8,2.27,1.44a79.3,79.3,0,0,1,7,5.41,64.9,64.9,0,0,1,6.37,6.15c.75.85,1.32,1.57,1.69,2.08A5.27,5.27,0,0,1,125.9,148.86Z"/><path id="Trazado_1638" data-name="Trazado 1638" class="cls-1" d="M125.31,159.64a6.2,6.2,0,0,1-.69-.44l-1.82-1.27c-1.53-1.07-3.69-2.5-6.13-4s-4.7-2.78-6.31-3.73l-1.91-1.14a3.87,3.87,0,0,1-.68-.46,3.86,3.86,0,0,1,.74.35l2,1.05c1.64.9,3.91,2.16,6.37,3.64s4.6,3,6.11,4.08c.75.56,1.35,1,1.76,1.35A4.37,4.37,0,0,1,125.31,159.64Z"/><path id="Trazado_1639" data-name="Trazado 1639" class="cls-1" d="M110.72,147a28.72,28.72,0,0,1,1,3.88V151l-.16,0-.59.1c-1.27.22-2.38.39-3.19.5a5,5,0,0,1-1.34.12,5.71,5.71,0,0,1,1.27-.35c.82-.17,1.92-.39,3.19-.6l.59-.1-.14.2A26.3,26.3,0,0,1,110.72,147Z"/><path id="Trazado_1640" data-name="Trazado 1640" class="cls-1" d="M115,145.42a2.36,2.36,0,0,1,.17.63c.09.41.21,1,.35,1.74.28,1.46.63,3.5,1,5.73v.13l-.11,0-.17.08c-2.08,1.08-4,2-5.35,2.7l-1.63.78a2.85,2.85,0,0,1-.63.25,2.37,2.37,0,0,1,.56-.37l1.58-.87c1.35-.73,3.22-1.71,5.3-2.77l.17-.09-.08.17c-.38-2.26-.71-4.3-.93-5.78-.11-.73-.2-1.33-.25-1.74A2.29,2.29,0,0,1,115,145.42Z"/><path id="Trazado_1641" data-name="Trazado 1641" class="cls-1" d="M124.37,116.31a9.39,9.39,0,0,1-.48,1.62c-.34,1-.82,2.35-1.38,3.9l-.07.18-.17-.09-.63-.35c-1.59-.86-3-1.66-4.06-2.25a10.13,10.13,0,0,1-1.63-1,11.44,11.44,0,0,1,1.74.81c1.06.54,2.51,1.27,4.11,2.16l.63.35-.24.09c.58-1.53,1.1-2.89,1.49-3.87a9.51,9.51,0,0,1,.68-1.53Z"/><path id="Trazado_1642" data-name="Trazado 1642" class="cls-1" d="M129.45,120.75a3.43,3.43,0,0,1-.39.6l-1.14,1.55c-1,1.32-2.35,3.12-3.9,5.1l-.07.09h-.11l-.69-.2c-2.6-.73-5-1.42-6.65-1.91l-2-.64a3.39,3.39,0,0,1-.73-.27,3.2,3.2,0,0,1,.76.15l2,.52c1.71.45,4.07,1.11,6.67,1.83l.69.2-.18.06c1.57-2,3-3.79,4-5.06l1.22-1.49A2.73,2.73,0,0,1,129.45,120.75Z"/><path id="Trazado_1643" data-name="Trazado 1643" class="cls-4" d="M68,179.68A71.56,71.56,0,0,0,56.5,187a7.13,7.13,0,0,0-1.76,1.79,2.55,2.55,0,0,0-.22,2.42,3.33,3.33,0,0,0,3.33,1.27,7.38,7.38,0,0,1,3.73.18,1.57,1.57,0,0,0-1.09,1.92,1.53,1.53,0,0,0,.36.63,1.57,1.57,0,0,0-2.14.58l-.1.2A9,9,0,0,0,54.2,211.9l29.55-8.78L90,201.34a7.77,7.77,0,0,0,1.68-7.16,10.48,10.48,0,0,0-4.08-5.73c-2.18-1.63-4.89-2.74-6.29-5.06a12.4,12.4,0,0,1-1.12-6.76,32.17,32.17,0,0,0-14.54,4.15"/><path id="Trazado_1644" data-name="Trazado 1644" class="cls-1" d="M66.88,196a.7.7,0,0,1-.23.11,4.83,4.83,0,0,1-.64.22,6.14,6.14,0,0,1-2.3.11,6.31,6.31,0,0,1-2.19-.74,4.6,4.6,0,0,1-.58-.4c-.13-.1-.2-.16-.19-.17s.3.21.81.48a6.61,6.61,0,0,0,4.47.64C66.53,196.12,66.87,196,66.88,196Z"/><path id="Trazado_1645" data-name="Trazado 1645" class="cls-5" d="M61.61,192.73a4.28,4.28,0,0,0,4.12.52c2.09-.8,3.25-3.09,5.2-4.19a1.69,1.69,0,0,1,1.4-.24,1.27,1.27,0,0,1,.68,1.37,3.25,3.25,0,0,1-1.74,2c-2.12,1.32-3.65,2.34-6.13,2.13a5.36,5.36,0,0,1-3.55-1.6"/><path id="Trazado_1646" data-name="Trazado 1646" class="cls-1" d="M77.32,187.2a1.21,1.21,0,0,1-.13.13l-.41.35-1.52,1.26L73,190.81A28.77,28.77,0,0,1,70.1,193a9.47,9.47,0,0,1-3.33,1.35,6.74,6.74,0,0,1-2.93-.13,4.75,4.75,0,0,1-1.75-.92,2.67,2.67,0,0,1-.38-.37c-.09-.1-.13-.14-.12-.15a6,6,0,0,0,.53.48,4.8,4.8,0,0,0,1.75.87,6.66,6.66,0,0,0,2.88.1A9.61,9.61,0,0,0,70,192.83a29.52,29.52,0,0,0,2.88-2.11c.85-.69,1.61-1.27,2.29-1.84l1.54-1.23.43-.33Z"/><path id="Trazado_1647" data-name="Trazado 1647" class="cls-5" d="M60.85,195.29a10.62,10.62,0,0,0,2.68,1.76,5.55,5.55,0,0,0,3.14.41,1.53,1.53,0,0,0,1-.52.69.69,0,0,0-.1-1l0,0c-.31-.17-.69,0-1,.14a5.8,5.8,0,0,1-5.61-.79"/><path id="Trazado_1648" data-name="Trazado 1648" class="cls-5" d="M58.64,196.06a8.37,8.37,0,0,0,4.13,5.79,9.64,9.64,0,0,0,7,.76,5.16,5.16,0,0,0,1.86-.85,2.49,2.49,0,0,0,1-1.72,1.48,1.48,0,0,0-.63-1.27,12.19,12.19,0,0,1-8.09,1.41A6.87,6.87,0,0,1,58.64,196.06Z"/><path id="Trazado_1649" data-name="Trazado 1649" class="cls-1" d="M73.51,198a.46.46,0,0,1-.15.09l-.43.25c-.38.19-.94.47-1.64.78a14,14,0,0,1-5.83,1.27A8.1,8.1,0,0,1,60,198.16a5.38,5.38,0,0,1-1.07-1.48,4.35,4.35,0,0,1-.25-.63,6.66,6.66,0,0,0,1.38,2,8.21,8.21,0,0,0,5.39,2.2,14.36,14.36,0,0,0,5.82-1.22c.71-.29,1.27-.56,1.65-.75l.44-.21Z"/><path id="Trazado_1650" data-name="Trazado 1650" class="cls-5" d="M56.39,191c-2.25-.47,2.32-4,4-5.57a27.85,27.85,0,0,1,5.56-3.88,36.22,36.22,0,0,1,6.37-2.9,7.43,7.43,0,0,1,5.33-.22s-7.32,7.65-9.73,9.2S61.46,192,56.39,191Z"/><path id="Trazado_1651" data-name="Trazado 1651" class="cls-3" d="M75.82,180.08a7.26,7.26,0,0,0-4.24-3.67,5.47,5.47,0,0,0-5.45,1.27,4.28,4.28,0,0,0-.46,5.38,3.69,3.69,0,0,0-3.56,3.82,3.79,3.79,0,0,0,.3,1.33,3.8,3.8,0,0,0-3.52,2.95,13,13,0,0,0,6.58-1.95,26.53,26.53,0,0,0,3.83-2.67,82.8,82.8,0,0,0,6.52-6.46Z"/><path id="Trazado_1652" data-name="Trazado 1652" class="cls-1" d="M79,177.15l-.22.19-.63.56c-.55.49-1.32,1.22-2.24,2.15l-3.19,3.31a45.35,45.35,0,0,1-4.14,3.82,20.33,20.33,0,0,1-4.83,2.92,13.93,13.93,0,0,1-4.46,1.07,10.71,10.71,0,0,1-3.09-.24,7.18,7.18,0,0,1-1.09-.33.9.9,0,0,1,.28.08,7.54,7.54,0,0,0,.82.2,11.36,11.36,0,0,0,3.08.2A14.36,14.36,0,0,0,63.76,190a20.93,20.93,0,0,0,4.79-2.91,45.34,45.34,0,0,0,4.13-3.83C73.9,182,75,180.9,75.91,180s1.72-1.64,2.28-2.12Z"/><path id="Trazado_1653" data-name="Trazado 1653" class="cls-2" d="M84.86,156.44s2.13,14,10.73,22.15l1.47-.53S86.55,167.16,86,156.33"/><path id="Trazado_1654" data-name="Trazado 1654" class="cls-1" d="M56.38,132.62a10.23,10.23,0,0,0-2.78,12.5,47.46,47.46,0,0,1,5.66-5.77,15.8,15.8,0,0,1,7.22-3.48c1.43-.23,3.24-.44,3.68-1.83a2.19,2.19,0,0,0-.71-2.2,5,5,0,0,0-2.16-1.05,13.63,13.63,0,0,0-11.52,2.34"/><path id="Trazado_1655" data-name="Trazado 1655" class="cls-2" d="M86,156.34c-1-6.23.26-13.76-.69-20a11.35,11.35,0,0,0-4.17-6.92,17.42,17.42,0,0,0-7.45-3.37,6.24,6.24,0,0,0-4.11.19,2.59,2.59,0,0,0-1.28,3.45v0A13.13,13.13,0,0,0,56,133c3-1.52,7-.42,9.56,1.83a24.5,24.5,0,0,1,5.43,8.4l14.13,14.39Z"/><path id="Trazado_1656" data-name="Trazado 1656" class="cls-1" d="M85.06,154.76l-.11-.3c-.06-.2-.14-.5-.29-.88-.25-.75-.67-1.84-1.22-3.15-1.11-2.64-2.79-6.22-4.81-10.09a33,33,0,0,0-3.18-5.24,18.78,18.78,0,0,0-3.57-3.5A14.82,14.82,0,0,0,69,129.91a9,9,0,0,0-.86-.34,1.88,1.88,0,0,1-.3-.12l.31.1c.29.09.58.19.87.31a14.24,14.24,0,0,1,3,1.66,18.14,18.14,0,0,1,3.61,3.5,32.71,32.71,0,0,1,3.18,5.26c2,3.87,3.69,7.45,4.77,10.11.54,1.33,1,2.41,1.2,3.19Z"/><path id="Trazado_1657" data-name="Trazado 1657" class="cls-2" d="M85.14,153.8a3.84,3.84,0,0,0,4.58,1.72,7.52,7.52,0,0,0,3.91-3.46c.92-1.52,1.57-3.19,2.5-4.72a28.6,28.6,0,0,1,7.21-7.18,17.73,17.73,0,0,1,5.13-3.19,5.92,5.92,0,0,1,5.74.76,4.6,4.6,0,0,0-2.64-3.9,10.92,10.92,0,0,0-4.82-.93A25.88,25.88,0,0,0,93.37,136a16.2,16.2,0,0,0-8.07,10.81Z"/><path id="Trazado_1658" data-name="Trazado 1658" class="cls-1" d="M114,136.59a3.05,3.05,0,0,1-.28-.31,8.34,8.34,0,0,0-.87-.81,8.11,8.11,0,0,0-4-1.62,16.18,16.18,0,0,0-6.38.58,26.73,26.73,0,0,0-7.26,3.13,21.59,21.59,0,0,0-5.83,5.32,19.28,19.28,0,0,0-2.92,5.73,17,17,0,0,0-.75,4.29v0a16.62,16.62,0,0,1,.72-4.31,19,19,0,0,1,2.91-5.8,21.47,21.47,0,0,1,5.85-5.35,26.23,26.23,0,0,1,7.22-3.15,16.17,16.17,0,0,1,6.45-.56,8,8,0,0,1,4,1.68A6.27,6.27,0,0,1,114,136.59Z"/><path id="Trazado_1659" data-name="Trazado 1659" class="cls-1" d="M93.36,136a1,1,0,0,1-.16.12,3.94,3.94,0,0,0-.48.31,19.25,19.25,0,0,0-1.67,1.31A27.36,27.36,0,0,0,88.83,140a16.72,16.72,0,0,0-2.23,3.12,8.28,8.28,0,0,0-.7,1.85,16.71,16.71,0,0,0-.42,1.81,25.22,25.22,0,0,0-.34,3.12c0,.9,0,1.62,0,2.12v.78a.67.67,0,0,1,0-.2V152c0-.5,0-1.23,0-2.13a22.13,22.13,0,0,1,.32-3.14c.1-.59.24-1.19.41-1.82a8.55,8.55,0,0,1,.71-1.88,16.62,16.62,0,0,1,2.26-3.13,22.35,22.35,0,0,1,2.25-2.21,16,16,0,0,1,1.7-1.27C93,136.26,93.15,136.12,93.36,136Z"/><path id="Trazado_1660" data-name="Trazado 1660" class="cls-2" d="M81.85,150.07a13.64,13.64,0,0,0-11.33-4.85A20.3,20.3,0,0,0,58.88,150a40.15,40.15,0,0,0-8.19,9.75,30.89,30.89,0,0,0,15.11-1.27,91.41,91.41,0,0,1,9.34-3.4c3.23-.74,6.94-.49,9.4,1.74a16.44,16.44,0,0,0-2.8-7"/><path id="Trazado_1661" data-name="Trazado 1661" class="cls-1" d="M85,157l-.22-.33c-.14-.22-.36-.53-.63-.93a14.63,14.63,0,0,0-3-2.88,14.21,14.21,0,0,0-5.63-2.42,20.84,20.84,0,0,0-7.51.26,31.13,31.13,0,0,0-7.13,2.56,53.85,53.85,0,0,0-5.38,3.05c-1.49.95-2.67,1.75-3.49,2.31l-.93.63-.34.22s1.75-1.27,4.71-3.24a55.07,55.07,0,0,1,5.38-3.09,30.55,30.55,0,0,1,7.14-2.55,20.78,20.78,0,0,1,7.58-.26,14.32,14.32,0,0,1,5.65,2.47,14,14,0,0,1,3,2.92c.23.3.44.62.64.94Z"/><path id="Trazado_1662" data-name="Trazado 1662" class="cls-1" d="M85,157s0-.28-.15-.78a11.17,11.17,0,0,0-.7-2,21.39,21.39,0,0,0-1.56-2.81,19.32,19.32,0,0,0-2.44-3.05,10.3,10.3,0,0,0-3.33-2,18.58,18.58,0,0,0-3.07-.9,15.6,15.6,0,0,0-2.15-.27h-.79a12.26,12.26,0,0,1,3,.2,19.91,19.91,0,0,1,3.1.89,10.33,10.33,0,0,1,3.37,2,18.76,18.76,0,0,1,2.46,3.09,20.39,20.39,0,0,1,1.54,2.83,10.09,10.09,0,0,1,.66,2.06A4.06,4.06,0,0,1,85,157Z"/><path id="Trazado_1663" data-name="Trazado 1663" class="cls-2" d="M90.32,169.35a10,10,0,0,1,1.6-6.15A7.86,7.86,0,0,1,95,160.9a24,24,0,0,1,3.69-1.17,1.05,1.05,0,0,1,.7,0,1,1,0,0,1,.46.83,6.56,6.56,0,0,1-4.64,7.2,15.89,15.89,0,0,0-4.89,1.61"/><path id="Trazado_1664" data-name="Trazado 1664" class="cls-1" d="M99.8,160.09a.21.21,0,0,1-.13,0l-.38.13c-.32.12-.8.28-1.38.53a14,14,0,0,0-4,2.62,11.51,11.51,0,0,0-2.74,4,14.38,14.38,0,0,0-.47,1.4,4.24,4.24,0,0,1-.13.52,7.81,7.81,0,0,1,.52-1.95,11.26,11.26,0,0,1,2.73-4,13.42,13.42,0,0,1,4.11-2.61,11.56,11.56,0,0,1,1.4-.48l.39-.11Z"/><path id="Trazado_1665" data-name="Trazado 1665" class="cls-1" d="M87.1,181.66l11.44,16.56,12.92-5.69L105,173Z"/><path id="Trazado_1666" data-name="Trazado 1666" class="cls-1" d="M84.66,180.06l21-9.32,1.17,3.24L86.2,183l-1.26-2.15"/><path id="Trazado_1667" data-name="Trazado 1667" class="cls-2" d="M106.84,174s-4.58,2.07-10.26,4.54S86.28,183,86.28,183s4.57-2.07,10.25-4.55S106.82,174,106.84,174Z"/><path id="Trazado_1668" data-name="Trazado 1668" class="cls-6" d="M108.41,183.48s-3.39,1.64-7.61,3.58-7.65,3.49-7.65,3.47,3.39-1.64,7.61-3.59S108.4,183.45,108.41,183.48Z"/><path id="Trazado_1669" data-name="Trazado 1669" class="cls-6" d="M107.92,182.1s-3.45,1.66-7.73,3.65-7.77,3.55-7.79,3.51,3.45-1.66,7.73-3.64S107.91,182.1,107.92,182.1Z"/><path id="Trazado_1670" data-name="Trazado 1670" class="cls-6" d="M107.55,180.82s-3.56,1.72-8,3.75-8,3.66-8,3.63,3.56-1.71,8-3.75S107.54,180.77,107.55,180.82Z"/><circle id="Elipse_23" data-name="Elipse 23" class="cls-1" cx="66.04" cy="243.68" r="18.76"/><circle id="Elipse_24" data-name="Elipse 24" class="cls-2" cx="66.11" cy="244.12" r="10.93"/><path id="Trazado_1671" data-name="Trazado 1671" class="cls-3" d="M145.22,167.75s.59,38.21-3.32,42S101,236,98.18,235.79s-50.61-22.32-50.61-22.32Z"/><path id="Trazado_1672" data-name="Trazado 1672" class="cls-1" d="M198,127.59l-18.88,11s-21,39.7-23.32,43.69a31.43,31.43,0,0,1-8.83,9.85c-3.3,2.55-98.84,59.43-98.84,59.43l2,3.45,52.72-32.23s12-5.83,20.93,3.68,16.76,17.34,25.39,13c10.74-5.41.71-25.82-9-37.53,0,0,11.47-6.76,14.27-10.12a85.33,85.33,0,0,0,9.45-15c2.17-4.41,16.93-33,17.76-34.18s18.25-11.35,18.25-11.35A27,27,0,0,0,198,127.59ZM148,221.93c3.7,9.75,2.3,11.94,1.37,13.07a7.19,7.19,0,0,1-8.29,1.81c-5.28-2-13.39-11.29-14.66-12.58S119,217.08,113.73,218L137,203.66A72.68,72.68,0,0,1,148,221.93Z"/><path id="Trazado_1673" data-name="Trazado 1673" class="cls-1" d="M48.1,249s-2.55,2.25-2.41,2.8,1,.56,2.83-.52L51,254.77s-5.91,3.92-8.56,1.57,1.13-6.56,5.47-9.56Z"/><path id="Trazado_1674" data-name="Trazado 1674" class="cls-3" d="M45.66,217.07h0a3.81,3.81,0,0,0,3.45.07l96.29-46.83a3.33,3.33,0,0,0,1.81-3.59h0a3.31,3.31,0,0,0-3.87-2.65,3.17,3.17,0,0,0-.84.27L45.77,211.17a3.32,3.32,0,0,0-1.53,4.43,3.36,3.36,0,0,0,1.42,1.47Z"/><path id="Trazado_1675" data-name="Trazado 1675" class="cls-7" d="M52.21,215.64l93-45.24v4.09L55.94,217.36Z"/><path id="Trazado_1676" data-name="Trazado 1676" class="cls-1" d="M146.16,169.8c0,.08-21.67,10.75-48.45,23.82s-48.55,23.59-48.6,23.53,21.68-10.75,48.45-23.83S146.12,169.72,146.16,169.8Z"/><path id="Trazado_1677" data-name="Trazado 1677" class="cls-2" d="M82.22,231.14a1.94,1.94,0,0,1-.33.23l-1,.6-3.62,2.15-12,7.07c-4.66,2.78-8.86,5.32-11.9,7.16l-3.6,2.19-1,.58a2,2,0,0,1-.36.18,1.91,1.91,0,0,1,.32-.24l1-.63c.83-.55,2-1.32,3.54-2.27,3-1.92,7.19-4.47,11.86-7.25s8.92-5.23,12-7l3.67-2.06,1-.55A2.39,2.39,0,0,1,82.22,231.14Z"/><path id="Trazado_1678" data-name="Trazado 1678" class="cls-2" d="M84.07,234.22a2.35,2.35,0,0,1-.32.23l-1,.6-3.57,2.16c-3,1.83-7.15,4.4-11.7,7.27l-11.65,7.36L52.31,254l-1,.58a1.7,1.7,0,0,1-.35.19,1.48,1.48,0,0,1,.31-.25l1-.63,3.49-2.28c3-1.92,7.05-4.57,11.6-7.44S76,238.79,79.08,237c1.53-.89,2.77-1.6,3.63-2.07l1-.55A1.76,1.76,0,0,1,84.07,234.22Z"/><path id="Trazado_1679" data-name="Trazado 1679" class="cls-2" d="M48,237.92s.23-.54,1.05-.79a5.45,5.45,0,0,1,3.19.38A9.33,9.33,0,0,1,55,239.1a3.58,3.58,0,0,1,.91,1,15.26,15.26,0,0,0-3.83-2.22,5.55,5.55,0,0,0-3-.47A3.06,3.06,0,0,0,48,237.92Z"/><path id="Trazado_1680" data-name="Trazado 1680" class="cls-2" d="M55.3,233.44a18.87,18.87,0,0,0-1.66-1.15,15.81,15.81,0,0,0-1.91-.63,2.82,2.82,0,0,1,2.06.35A2.89,2.89,0,0,1,55.3,233.44Z"/><path id="Trazado_1681" data-name="Trazado 1681" class="cls-2" d="M62.16,234.16A12.45,12.45,0,0,0,57,227.27a3.66,3.66,0,0,1,1.16.6,9.53,9.53,0,0,1,3.76,5A3.35,3.35,0,0,1,62.16,234.16Z"/><path id="Trazado_1682" data-name="Trazado 1682" class="cls-2" d="M70.73,234.62a11.94,11.94,0,0,0,3.19-7.87A3.58,3.58,0,0,1,74,228a9.16,9.16,0,0,1-2.33,5.74A3.23,3.23,0,0,1,70.73,234.62Z"/><path id="Trazado_1683" data-name="Trazado 1683" class="cls-2" d="M68.17,229.74c-.09,0,0-1.08-.17-2.36s-.55-2.29-.46-2.32a6.13,6.13,0,0,1,.64,4.68Z"/><path id="Trazado_1684" data-name="Trazado 1684" class="cls-2" d="M84.66,245.34a3.15,3.15,0,0,1-1.11.4,9.78,9.78,0,0,1-5.6-.44,3.2,3.2,0,0,1-1-.57,18.53,18.53,0,0,0,3.83.89,17.77,17.77,0,0,0,3.92-.28Z"/><path id="Trazado_1685" data-name="Trazado 1685" class="cls-2" d="M84.39,240.26c.06.07-.48.54-1.32.73a2.13,2.13,0,0,1-1.51-.05,11.62,11.62,0,0,1,1.43-.27A14,14,0,0,1,84.39,240.26Z"/><path id="Trazado_1686" data-name="Trazado 1686" class="cls-2" d="M78.54,258.05a9.41,9.41,0,0,1-5.43-5.35,24.89,24.89,0,0,0,2.38,3A23,23,0,0,0,78.54,258.05Z"/><path id="Trazado_1687" data-name="Trazado 1687" class="cls-2" d="M82.71,252.74A6.4,6.4,0,0,1,79.34,251a8.11,8.11,0,0,1,1.7.83,8.67,8.67,0,0,1,1.67.9Z"/><path id="Trazado_1688" data-name="Trazado 1688" class="cls-2" d="M62.47,262a2.09,2.09,0,0,1-.63-.94,5.16,5.16,0,0,1-.32-2.72,8.52,8.52,0,0,1,.84-2.6,3.41,3.41,0,0,1,.59-1,4.93,4.93,0,0,1-.37,1.06,11.27,11.27,0,0,0-.73,2.55,5.69,5.69,0,0,0,.21,2.59C62.27,261.58,62.52,261.93,62.47,262Z"/><path id="Trazado_1689" data-name="Trazado 1689" class="cls-2" d="M70.88,261.63s-.25,0-.56-.2a3.15,3.15,0,0,1-1.48-2.34c0-.37,0-.59.07-.59a8.55,8.55,0,0,0,.68,1.76A8.8,8.8,0,0,0,70.88,261.63Z"/><path id="Trazado_1690" data-name="Trazado 1690" class="cls-2" d="M56.13,255.44a7.64,7.64,0,0,1-.92,1.5,9.61,9.61,0,0,1-1,1.48,3.44,3.44,0,0,1,.68-1.65A3.65,3.65,0,0,1,56.13,255.44Z"/><path id="Trazado_1691" data-name="Trazado 1691" class="cls-2" d="M50.15,245a3.87,3.87,0,0,1-1.34.24c-.51.07-1,.13-1.18.14l0-.14c.06.11.08.16.06.18s-.08,0-.17-.07l-.1-.06.13-.06a3.7,3.7,0,0,1,1.17-.32A2.36,2.36,0,0,1,50.15,245Z"/><path id="Trazado_1692" data-name="Trazado 1692" class="cls-6" d="M68.84,201l-.25.14-.74.4-2.73,1.43-9,4.65-5,2.55L49,211.27a12,12,0,0,0-1.83,1.07,3.23,3.23,0,0,0-1.07,1.33,2.5,2.5,0,0,0-.16,1.27,1.73,1.73,0,0,0,.51,1,1,1,0,0,1-.21-.2,1.69,1.69,0,0,1-.35-.77,2.58,2.58,0,0,1,.13-1.32,3.25,3.25,0,0,1,1.09-1.37,11.68,11.68,0,0,1,1.83-1.1L51.07,210l5-2.55,9-4.63,2.75-1.39.75-.37Z"/><path id="Trazado_1693" data-name="Trazado 1693" class="cls-6" d="M75.6,198.2a19.38,19.38,0,0,1-1.88.94,16.82,16.82,0,0,1-1.91.81,37.16,37.16,0,0,1,3.79-1.75Z"/><path id="Trazado_1694" data-name="Trazado 1694" class="cls-6" d="M50.45,247.86a13.17,13.17,0,0,1-.77-2.55,17.18,17.18,0,0,1-.35-2.87,17.51,17.51,0,0,1,1.19-6.94,15.93,15.93,0,0,1,1.27-2.59,12.6,12.6,0,0,1,1.56-2.14l-.1.16-.31.42c-.14.18-.31.4-.49.68a9.22,9.22,0,0,0-.58.94,17.53,17.53,0,0,0-1.25,2.58,18.06,18.06,0,0,0-1.17,6.9,16.27,16.27,0,0,0,.32,2.86,8.17,8.17,0,0,0,.24,1.07c.08.31.16.59.23.81s.11.35.16.51A1,1,0,0,1,50.45,247.86Z"/><path id="Trazado_1695" data-name="Trazado 1695" class="cls-6" d="M82.36,232.11s-8.46,5.19-18.93,11.53-19,11.47-19,11.42,8.45-5.2,18.92-11.54S82.34,232.07,82.36,232.11Z"/><path id="Trazado_1696" data-name="Trazado 1696" class="cls-6" d="M86.72,229.45a2.83,2.83,0,0,1-1,.88,2.86,2.86,0,0,1-1.21.53s.54-.24,1.14-.63S86.71,229.42,86.72,229.45Z"/><path id="Trazado_1697" data-name="Trazado 1697" class="cls-1" d="M118.13,225.14a2.23,2.23,0,0,1-.49.24c-.32.14-.81.33-1.44.58a47.62,47.62,0,0,1-5.47,1.74c-.59.13-1.22.26-1.87.34a7.32,7.32,0,0,1-2.09,0,19.85,19.85,0,0,1-4.34-1.41A49.86,49.86,0,0,1,98,224.3c-1.51-.86-3.07-1.77-4.65-2.72-6.34-3.79-11.88-7.53-15.82-10.34-2-1.4-3.54-2.55-4.62-3.39l-1.23-.95a2.79,2.79,0,0,1-.42-.35,3.52,3.52,0,0,1,.45.3l1.27.91c1.11.77,2.7,1.91,4.68,3.29,4,2.76,9.53,6.47,15.86,10.25q2.38,1.42,4.64,2.72c1.5.87,3,1.68,4.43,2.34a19.93,19.93,0,0,0,4.26,1.42,10.89,10.89,0,0,0,3.86-.31,51.57,51.57,0,0,0,5.48-1.64l1.46-.52A5.25,5.25,0,0,1,118.13,225.14Z"/></g><g id="freepik--Character--inject-1"><path id="Trazado_1698" data-name="Trazado 1698" class="cls-1" d="M202.37,35.07a15.34,15.34,0,0,0-6.16,1.23c-2.32,1-4.5,4.06-4,6.54a8.06,8.06,0,0,0,1.87,3.24,43.14,43.14,0,0,0,4.3,4.46"/><path id="Trazado_1699" data-name="Trazado 1699" class="cls-8" d="M214.7,47.41a9.91,9.91,0,0,0-10.1-9.7h-.31a10.09,10.09,0,0,0-9.39,10.14c0,4.64,0,9.32.31,11a8.07,8.07,0,0,0,5.31,7,7,7,0,0,0,1.37.13h0a0,0,0,0,1,0,0l-.28,5.93a6.6,6.6,0,0,0,6.24,6.92h.27c3.85,0,6.41-3.34,6.43-7.2Z"/><path id="Trazado_1700" data-name="Trazado 1700" class="cls-1" d="M196.78,50.46a.8.8,0,0,0,.77.81.78.78,0,0,0,.84-.72h0a.81.81,0,0,0-.78-.81.76.76,0,0,0-.83.71v0Z"/><path id="Trazado_1701" data-name="Trazado 1701" class="cls-1" d="M196.25,49.05c.11.11.72-.35,1.59-.35s1.51.44,1.6.34-.06-.24-.33-.44a2.22,2.22,0,0,0-1.27-.4,2.14,2.14,0,0,0-1.27.41C196.3,48.81,196.22,49,196.25,49.05Z"/><path id="Trazado_1702" data-name="Trazado 1702" class="cls-1" d="M205.27,50.46a.81.81,0,0,0,.78.81.76.76,0,0,0,.83-.71v0a.8.8,0,0,0-.78-.81.77.77,0,0,0-.84.71v0Z"/><path id="Trazado_1703" data-name="Trazado 1703" class="cls-1" d="M204.8,49.21c.1.1.71-.35,1.58-.34s1.51.43,1.6.32-.06-.23-.34-.44a2.17,2.17,0,0,0-1.26-.38,2,2,0,0,0-1.27.4C204.84,49,204.75,49.16,204.8,49.21Z"/><path id="Trazado_1704" data-name="Trazado 1704" class="cls-1" d="M201.64,55.66a6.05,6.05,0,0,0-1.41-.26c-.22,0-.43-.06-.48-.21a1.17,1.17,0,0,1,.16-.64c.21-.54.43-1.11.64-1.69A28.64,28.64,0,0,0,202,48.44a29,29,0,0,0-1.83,4.29l-.63,1.7a1.21,1.21,0,0,0-.12.87.54.54,0,0,0,.37.32,1.15,1.15,0,0,0,.37.06A5.94,5.94,0,0,0,201.64,55.66Z"/><path id="Trazado_1705" data-name="Trazado 1705" class="cls-9" d="M202,65.94a13.88,13.88,0,0,0,7.56-2.24s-1.33,4.46-7.65,3.82Z"/><path id="Trazado_1706" data-name="Trazado 1706" class="cls-9" d="M202,57.75a1.59,1.59,0,0,1,1.41-.58,1.46,1.46,0,0,1,1,.53.9.9,0,0,1,.07,1,1,1,0,0,1-1.14.28,3.14,3.14,0,0,1-1.11-.63.88.88,0,0,1-.25-.26.27.27,0,0,1,0-.32"/><path id="Trazado_1707" data-name="Trazado 1707" class="cls-1" d="M204.2,56.26c-.14,0-.15.93-.95,1.6s-1.82.57-1.82.71.22.17.63.19a2.4,2.4,0,0,0,1.52-.53,2.06,2.06,0,0,0,.74-1.35C204.37,56.52,204.27,56.25,204.2,56.26Z"/><path id="Trazado_1708" data-name="Trazado 1708" class="cls-1" d="M204.41,47.69c.09.24,1,.12,2,.25s1.85.4,2,.19-.08-.32-.41-.55a3.43,3.43,0,0,0-3-.34C204.56,47.39,204.37,47.59,204.41,47.69Z"/><path id="Trazado_1709" data-name="Trazado 1709" class="cls-1" d="M196.57,47.27c.16.2.75,0,1.47,0s1.34.14,1.48-.07,0-.3-.3-.49a2.12,2.12,0,0,0-1.2-.31,2,2,0,0,0-1.17.39C196.59,47,196.51,47.18,196.57,47.27Z"/><path id="Trazado_1710" data-name="Trazado 1710" class="cls-1" d="M215.05,34.68a10.75,10.75,0,0,1,9.45,6.73,15,15,0,0,1,.36,10.37,29.12,29.12,0,0,1-5.61,8.15,25.93,25.93,0,0,1-4.55,3.24"/><path id="Trazado_1711" data-name="Trazado 1711" class="cls-1" d="M216.07,49.79A11.75,11.75,0,0,1,206,47.51a13.55,13.55,0,0,1-4.82-9.8c0-.77-.1-2.47.64-2.63a3.89,3.89,0,0,1,2.73,0A13.93,13.93,0,0,1,212,40.36a15.72,15.72,0,0,1,2.89,9.13"/><path id="Trazado_1712" data-name="Trazado 1712" class="cls-1" d="M223.21,50.54a4.69,4.69,0,0,1,3.27-4.78,5.83,5.83,0,0,1,5.74,1.57,7.73,7.73,0,0,1,2.08,5.73,8,8,0,0,1-2.15,5.27,6.19,6.19,0,0,1-5.29,1.84,6.44,6.44,0,0,1-5-5,9.07,9.07,0,0,1,1.73-7.08"/><path id="Trazado_1713" data-name="Trazado 1713" class="cls-3" d="M214.64,58.9c0-4.68-.48-11.1-2.94-14.86s-5.66-7.7-10-9a34.73,34.73,0,0,1,12.53-.46,10.31,10.31,0,0,1,4.26,1.72A7.53,7.53,0,0,1,221.16,40a15.08,15.08,0,0,1,.16,10.49,15.26,15.26,0,0,1-6.55,8.28"/><path id="Trazado_1714" data-name="Trazado 1714" class="cls-2" d="M213.43,48.39a3.67,3.67,0,0,1-.74-.11,12.82,12.82,0,0,1-1.91-.6A14.09,14.09,0,0,1,202.32,38a12,12,0,0,1-.33-2,3.05,3.05,0,0,1,0-.74c.06,0,.11,1,.57,2.66a14.66,14.66,0,0,0,8.32,9.56C212.38,48.13,213.43,48.33,213.43,48.39Z"/><path id="Trazado_1715" data-name="Trazado 1715" class="cls-2" d="M212.25,44.89a1.63,1.63,0,0,1-.49-.2,14.25,14.25,0,0,1-1.27-.71,21.56,21.56,0,0,1-6.75-6.66,12.12,12.12,0,0,1-.71-1.27,1.51,1.51,0,0,1-.21-.49s.42.63,1.12,1.61a26,26,0,0,0,6.69,6.61C211.62,44.47,212.27,44.85,212.25,44.89Z"/><path id="Trazado_1716" data-name="Trazado 1716" class="cls-2" d="M221.78,56.56s.44-.49,1.09-1.34a13.53,13.53,0,0,0,1.91-3.65,13,13,0,0,0,.68-4.06c0-1.07-.09-1.73,0-1.73s.07.16.13.45a9,9,0,0,1,.15,1.27A11.59,11.59,0,0,1,223,55.36a9.67,9.67,0,0,1-.89.92C221.93,56.47,221.8,56.58,221.78,56.56Z"/><path id="Trazado_1717" data-name="Trazado 1717" class="cls-2" d="M234.21,53.08a9.42,9.42,0,0,0-.9-1.18,5.71,5.71,0,0,0-3.19-1.47,12.35,12.35,0,0,0-3.59.16,9.48,9.48,0,0,1-1.5.2,5.63,5.63,0,0,1,1.45-.43,10.62,10.62,0,0,1,3.68-.26,5.54,5.54,0,0,1,3.3,1.64,3.57,3.57,0,0,1,.63.95C234.2,52.93,234.23,53.08,234.21,53.08Z"/><path id="Trazado_1718" data-name="Trazado 1718" class="cls-2" d="M232.4,47.05a10.07,10.07,0,0,0-7.13,3.09,2.78,2.78,0,0,1,.73-.94,7.67,7.67,0,0,1,2.4-1.61,8,8,0,0,1,2.81-.64A2.81,2.81,0,0,1,232.4,47.05Z"/><path id="Trazado_1719" data-name="Trazado 1719" class="cls-2" d="M231.52,59a3.36,3.36,0,0,1-1.57.22,5.74,5.74,0,0,1-5.44-4.66,3.21,3.21,0,0,1,0-1.57,11.23,11.23,0,0,0,.26,1.52A5.9,5.9,0,0,0,230,59C230.92,59.07,231.52,58.93,231.52,59Z"/><g id="Grupo_91" data-name="Grupo 91" class="cls-10"><path id="Trazado_1720" data-name="Trazado 1720" class="cls-11" d="M220.76,51.63A4.11,4.11,0,0,1,219.6,51,2.59,2.59,0,0,1,219,49a1.77,1.77,0,0,1,1.22-1.51c.64-.19,1.83.09,1.87.4A16.18,16.18,0,0,1,220.76,51.63Z"/></g><g id="Grupo_92" data-name="Grupo 92" class="cls-10"><path id="Trazado_1721" data-name="Trazado 1721" class="cls-11" d="M215.13,44a1.92,1.92,0,1,1-.33.16"/></g><g id="Grupo_93" data-name="Grupo 93" class="cls-10"><path id="Trazado_1722" data-name="Trazado 1722" class="cls-11" d="M215.08,36.81a1.93,1.93,0,1,1-.33.16"/></g><g id="Grupo_94" data-name="Grupo 94" class="cls-10"><path id="Trazado_1723" data-name="Trazado 1723" class="cls-11" d="M222,43.13a13.73,13.73,0,0,0-.83-3.14c-.07-.18-.14-.35-.22-.53a1.38,1.38,0,0,0-.29.08l-.33.16A1.91,1.91,0,0,0,222,43.12Z"/><path id="Trazado_1724" data-name="Trazado 1724" class="cls-11" d="M211.35,40.52a2,2,0,0,0-2.46-1l-.33.16c-.05,0-.09.07-.14.11a28.7,28.7,0,0,1,2.4,3A2,2,0,0,0,211.35,40.52Z"/><path id="Trazado_1725" data-name="Trazado 1725" class="cls-11" d="M208.2,34.33a1.91,1.91,0,1,0,3.19.49,1.47,1.47,0,0,0-.32-.46C210.1,34.32,209.15,34.3,208.2,34.33Z"/><path id="Trazado_1726" data-name="Trazado 1726" class="cls-11" d="M214.27,51.7l-.1,0c.19,1.21.31,2.42.38,3.6a1.85,1.85,0,0,0,1.27-.13,1.92,1.92,0,0,0-1.56-3.51Z"/></g><path id="Trazado_1727" data-name="Trazado 1727" class="cls-3" d="M218.16,58.42a2.68,2.68,0,0,1,2.31-1.26,5,5,0,0,1,2.62.8A9,9,0,0,1,226.71,62a6.86,6.86,0,0,1-3.66.76,6.23,6.23,0,0,1-3.52-1.09,3.3,3.3,0,0,1-1.3-3.28"/><path id="Trazado_1728" data-name="Trazado 1728" class="cls-3" d="M218,58.43a2.7,2.7,0,0,1,2.26,1.38,5.1,5.1,0,0,1,.57,2.68A8.91,8.91,0,0,1,219,67.63a6.69,6.69,0,0,1-2.41-2.83,6.08,6.08,0,0,1-.77-3.59,3.28,3.28,0,0,1,2.21-2.75"/><path id="Trazado_1729" data-name="Trazado 1729" class="cls-1" d="M220.73,63.53a5.93,5.93,0,0,0,.06-.84,4.66,4.66,0,0,0-.42-1.91,4.29,4.29,0,0,0-1.22-1.55c-.41-.32-.7-.46-.69-.48a1,1,0,0,1,.21.08,3.11,3.11,0,0,1,.53.32,4,4,0,0,1,1.27,1.59,4.25,4.25,0,0,1,.39,2,3.5,3.5,0,0,1-.08.64A.33.33,0,0,1,220.73,63.53Z"/><path id="Trazado_1730" data-name="Trazado 1730" class="cls-3" d="M217.44,56.38a2.37,2.37,0,0,0-1.6,1,1.58,1.58,0,0,0,.13,1.73,1.76,1.76,0,0,0,1.64.64A1.91,1.91,0,0,0,219,58.67a1.55,1.55,0,0,0-.19-1.71,1.46,1.46,0,0,0-.91-.42,2.49,2.49,0,0,0-1,.12"/><path id="Trazado_1731" data-name="Trazado 1731" class="cls-1" d="M217.75,56.37a10.52,10.52,0,0,1-1.2,1.11,9.54,9.54,0,0,1-1.27,1,19.16,19.16,0,0,1,2.48-2.12Z"/><path id="Trazado_1732" data-name="Trazado 1732" class="cls-1" d="M217.79,59.44a2.32,2.32,0,0,0,.14-1.4,2.27,2.27,0,0,0-.87-1.11.84.84,0,0,1,.4.2,1.77,1.77,0,0,1,.59.88,1.67,1.67,0,0,1,0,1.06C217.92,59.32,217.81,59.45,217.79,59.44Z"/><path id="Trazado_1733" data-name="Trazado 1733" class="cls-1" d="M219.12,57.51a1,1,0,0,1,0,.6A1.9,1.9,0,0,1,217,59.72a1.2,1.2,0,0,1-.58-.18,2.91,2.91,0,0,0,.58.09,2.17,2.17,0,0,0,2.11-2.13Z"/><path id="Trazado_1734" data-name="Trazado 1734" class="cls-1" d="M217.89,62.45a4.09,4.09,0,0,1-.26-1.34,3.66,3.66,0,0,1,.11-1.36s0,.63,0,1.35S217.93,62.45,217.89,62.45Z"/><path id="Trazado_1735" data-name="Trazado 1735" class="cls-1" d="M218.6,61.73a4.1,4.1,0,0,1-.58-2.16s.11.49.28,1.09A9.38,9.38,0,0,1,218.6,61.73Z"/><path id="Trazado_1736" data-name="Trazado 1736" class="cls-1" d="M221.83,58.87s-.61-.21-1.38-.31-1.4,0-1.4-.06a3.14,3.14,0,0,1,1.43-.07A3.41,3.41,0,0,1,221.83,58.87Z"/><g id="Grupo_95" data-name="Grupo 95" class="cls-10"><path id="Trazado_1737" data-name="Trazado 1737" d="M220.83,62.38a2.75,2.75,0,0,0,.69.21,1,1,0,0,0,.7-.14,1.22,1.22,0,0,0,.38-1.22,3.06,3.06,0,0,0-1.32-2.11,3.16,3.16,0,0,0-2.45-.45l-.14.33a2.53,2.53,0,0,1,1.75,1.6A3,3,0,0,1,220.83,62.38Z"/></g><g id="Grupo_96" data-name="Grupo 96" class="cls-10"><path id="Trazado_1738" data-name="Trazado 1738" d="M215.64,58.15a1.43,1.43,0,0,0,.87,1.14,1.48,1.48,0,0,0,1.6-.4,1.6,1.6,0,0,0,.27-1.66.78.78,0,0,0-.42-.47.67.67,0,0,0-.57,0,2.21,2.21,0,0,0-.47.33l-1.23,1"/></g><path id="Trazado_1739" data-name="Trazado 1739" class="cls-1" d="M205.56,55.88a.12.12,0,0,1,.16.07.08.08,0,0,1,0,0,.12.12,0,0,1-.14.12h0a.13.13,0,0,1-.06-.17.08.08,0,0,1,0,0"/><path id="Trazado_1740" data-name="Trazado 1740" class="cls-1" d="M231.08,46.53a1.81,1.81,0,0,0-.23-1,2,2,0,0,0-.8-.81,2.44,2.44,0,0,0-1.38-.27,3.71,3.71,0,0,0-2.29,1.11,1.78,1.78,0,0,0-.45,1,.76.76,0,0,1,0-.3,1.69,1.69,0,0,1,.37-.73,3.68,3.68,0,0,1,2.35-1.18,2.53,2.53,0,0,1,1.45.29,2.2,2.2,0,0,1,.83.88,1.65,1.65,0,0,1,.19.79A.92.92,0,0,1,231.08,46.53Z"/><path id="Trazado_1741" data-name="Trazado 1741" class="cls-1" d="M194.69,46.7a2.23,2.23,0,0,1-.63-.09,3.48,3.48,0,0,1-1.52-.91,3.88,3.88,0,0,1-1.08-2.36,5.19,5.19,0,0,1,.75-3.1,7.53,7.53,0,0,1,2.23-2.3,12.8,12.8,0,0,1,2.31-1.23c.69-.29,1.27-.49,1.65-.63l.46-.16.16-.05a.46.46,0,0,1-.16.07l-.44.18c-.39.16-1,.36-1.64.63A13.39,13.39,0,0,0,194.5,38a7.61,7.61,0,0,0-2.19,2.26,5.16,5.16,0,0,0-.73,3,3.72,3.72,0,0,0,1,2.31,3.42,3.42,0,0,0,1.46.93A6.25,6.25,0,0,0,194.69,46.7Z"/><path id="Trazado_1742" data-name="Trazado 1742" class="cls-1" d="M210.19,47.33a4.42,4.42,0,0,1-.63.14,7.32,7.32,0,0,1-1.75,0,7.42,7.42,0,0,1-6.76-8h0a6.8,6.8,0,0,1,.34-1.73,4.24,4.24,0,0,1,.23-.59s-.07.22-.19.64a7.61,7.61,0,0,0,6.83,9.67,7,7,0,0,0,1.29,0Z"/><path id="Trazado_1743" data-name="Trazado 1743" class="cls-3" d="M250.72,242.86l-4.85-6.34-.26-.34-8.29,6.16,7.65,8.41-.27,8.52c-4.27,1.11-4.92,3.23-4.92,3.23h8.87l8-15.52Z"/><path id="Trazado_1744" data-name="Trazado 1744" class="cls-12" d="M256.74,247l-8.06,15.51h-8.86l1-1.33,7.21-.41,7.44-14.66Z"/><path id="Trazado_1745" data-name="Trazado 1745" class="cls-1" d="M244.78,255.41c.06.09.58-.2,1.27-.18s1.19.3,1.26.21-.41-.59-1.26-.6S244.69,255.3,244.78,255.41Z"/><path id="Trazado_1746" data-name="Trazado 1746" class="cls-1" d="M244.92,253.26c.08.07.48-.45,1.19-.6s1.27.19,1.33.09-.08-.18-.32-.31a1.64,1.64,0,0,0-2,.4C244.91,253.06,244.87,253.24,244.92,253.26Z"/><path id="Trazado_1747" data-name="Trazado 1747" class="cls-1" d="M244.86,250.55c.1,0,.4-.46,1-.68s1.18,0,1.22-.11-.09-.16-.33-.26a1.53,1.53,0,0,0-1.8.64C244.82,250.36,244.82,250.53,244.86,250.55Z"/><path id="Trazado_1748" data-name="Trazado 1748" class="cls-1" d="M242.48,248.45c.11,0,.36-.48.91-.83s1.11-.41,1.11-.52-.64-.25-1.33.2S242.38,248.44,242.48,248.45Z"/><path id="Trazado_1749" data-name="Trazado 1749" class="cls-1" d="M241.33,246.63a4.54,4.54,0,0,0,.77-.93l.75-1.07a3,3,0,0,0,.41-.71.72.72,0,0,0-.06-.54.56.56,0,0,0-.53-.28,1.62,1.62,0,0,0-.83.43,3,3,0,0,0-.54.63,2.91,2.91,0,0,0-.46,1.27,1.65,1.65,0,0,0,.2,1.21,8.92,8.92,0,0,1,.07-1.16,3.09,3.09,0,0,1,.49-1.13,2.68,2.68,0,0,1,.49-.52,1.43,1.43,0,0,1,.63-.34.18.18,0,0,1,.16.09.33.33,0,0,1,0,.24,2.66,2.66,0,0,1-.35.64l-.67,1.11a3.44,3.44,0,0,0-.54,1Z"/><path id="Trazado_1750" data-name="Trazado 1750" class="cls-1" d="M241,246.89s0-.47-.48-1a2.21,2.21,0,0,0-2.63-.48.46.46,0,0,0-.13.32.43.43,0,0,0,.11.28,1.38,1.38,0,0,0,.31.28,4,4,0,0,0,.64.36A3.91,3.91,0,0,0,240,247a1.88,1.88,0,0,0,1.1-.1c0-.06-.42,0-1.05-.17a4.47,4.47,0,0,1-1.06-.38,4.65,4.65,0,0,1-.56-.34,1.43,1.43,0,0,1-.23-.2c0-.08,0-.06,0-.08a.74.74,0,0,1,.26-.1l.33-.05a2.68,2.68,0,0,1,.63.05,2.13,2.13,0,0,1,1,.48A4.85,4.85,0,0,1,241,246.89Z"/><circle id="Elipse_25" data-name="Elipse 25" class="cls-12" cx="250.72" cy="246.72" r="1.05"/><path id="Trazado_1751" data-name="Trazado 1751" class="cls-7" d="M238.12,243.19l1.69,1.87L247,238l-1-1.3Z"/><path id="Trazado_1752" data-name="Trazado 1752" class="cls-3" d="M174.38,242.92l-2,11.66s-12.53,1.86-13.11,4l22.46,4.73,3.89-18Z"/><g id="Grupo_97" data-name="Grupo 97" class="cls-13"><path id="Trazado_1753" data-name="Trazado 1753" class="cls-11" d="M179.51,255.07a1,1,0,0,1,.42,1.18.91.91,0,0,1-1.17.42,1,1,0,0,1-.43-1.27.93.93,0,0,1,1.27-.31"/></g><path id="Trazado_1754" data-name="Trazado 1754" class="cls-12" d="M181.71,263.28l.39-1.79-21.72-3.89s-1.09.23-1.13.95Z"/><path id="Trazado_1755" data-name="Trazado 1755" class="cls-1" d="M172,254.39c0,.11.52.28,1,.74s.63,1,.76,1,.08-.68-.49-1.24S172,254.28,172,254.39Z"/><path id="Trazado_1756" data-name="Trazado 1756" class="cls-1" d="M169.45,254.86c0,.1.39.39.63.93s.28,1.06.39,1.08.31-.59,0-1.27S169.48,254.77,169.45,254.86Z"/><path id="Trazado_1757" data-name="Trazado 1757" class="cls-1" d="M167.53,257.4c.09,0,.36-.48.2-1.13s-.63-1-.68-.92.19.46.31,1S167.42,257.37,167.53,257.4Z"/><path id="Trazado_1758" data-name="Trazado 1758" class="cls-1" d="M172.77,251.78c0,.11.57.07,1.17.24s1.06.48,1.14.39-.31-.58-1-.77S172.73,251.68,172.77,251.78Z"/><path id="Trazado_1759" data-name="Trazado 1759" class="cls-7" d="M174,245.23l-.36,2.08,11.06,2.22.4-1.86Z"/><path id="Trazado_1760" data-name="Trazado 1760" class="cls-1" d="M173.23,249.44a2.06,2.06,0,0,0,1.12.23,5.41,5.41,0,0,0,1.27-.11,4.44,4.44,0,0,0,.71-.21,1.47,1.47,0,0,0,.4-.19.5.5,0,0,0,.17-.58.61.61,0,0,0-.43-.35,1.56,1.56,0,0,0-.43,0,3.86,3.86,0,0,0-.75.1,3.72,3.72,0,0,0-1.18.46c-.63.37-.89.74-.85.77s.36-.25,1-.53a4,4,0,0,1,1.12-.35,3.23,3.23,0,0,1,.69-.07c.25,0,.45,0,.49.15s0,.06,0,.12a1.11,1.11,0,0,1-.29.14,4.83,4.83,0,0,1-.64.22,5.91,5.91,0,0,1-1.18.18A8.85,8.85,0,0,0,173.23,249.44Z"/><path id="Trazado_1761" data-name="Trazado 1761" class="cls-1" d="M173.34,249.63a1.89,1.89,0,0,0,.52-1,3.65,3.65,0,0,0,.11-1.27,5,5,0,0,0-.15-.75,1,1,0,0,0-.59-.72.56.56,0,0,0-.54.22,1.2,1.2,0,0,0-.2.39,2.46,2.46,0,0,0-.16.76,2.55,2.55,0,0,0,.24,1.27c.31.67.74.9.75.86a4.68,4.68,0,0,1-.5-1,2.55,2.55,0,0,1-.13-1.13,2.23,2.23,0,0,1,.15-.63c.09-.23.22-.41.3-.37a.8.8,0,0,1,.32.46,3.74,3.74,0,0,1,.16.66,4.58,4.58,0,0,1,0,1.17C173.48,249.21,173.27,249.6,173.34,249.63Z"/><path id="Trazado_1762" data-name="Trazado 1762" class="cls-1" d="M192.47,129.44s-9,27.41-16.39,59.24c-3.67,15.84-5.78,43.17-6.42,52.41a3.65,3.65,0,0,0,2.87,3.82l14.56,3.19a4.57,4.57,0,0,0,5.45-3.48c0-.11.05-.23.06-.34l5.86-41.65,9-27.29a45.42,45.42,0,0,1,12.93-19.59,42.88,42.88,0,0,0,7.09-14.85,37.94,37.94,0,0,0,.63-13h0Z"/><path id="Trazado_1763" data-name="Trazado 1763" class="cls-1" d="M193.12,133.82l5.17,60.84C199,200.51,201,207,205,211.35l26,33.26a3.71,3.71,0,0,0,5.21.65l.19-.16,13.2-11.81a3.12,3.12,0,0,0,.39-4.23l-30.82-39.89,5.48-60.8-30.87,5.28"/><path id="Trazado_1764" data-name="Trazado 1764" class="cls-2" d="M219.41,188.69c-.88.65-1.73,1.35-2.55,2.09a23.85,23.85,0,0,0-2,2.63,5.55,5.55,0,0,1,1.66-2.91A5.85,5.85,0,0,1,219.41,188.69Z"/><path id="Trazado_1765" data-name="Trazado 1765" class="cls-2" d="M219,189.11a18.87,18.87,0,0,1-2.6.22,17.25,17.25,0,0,1-2.59.29,5.53,5.53,0,0,1,2.55-.69A5.63,5.63,0,0,1,219,189.11Z"/><path id="Trazado_1766" data-name="Trazado 1766" class="cls-2" d="M227.25,141.65a5.5,5.5,0,0,1-.11.69c0,.24-.1.52-.16.83s-.2.7-.32,1.12a26.42,26.42,0,0,1-3.26,6.61c-1.72,2.62-4.11,5.46-6.66,8.7a52.3,52.3,0,0,0-3.7,5.26,65.65,65.65,0,0,0-3.22,6.1c-2,4.31-3.58,8.54-4.94,12.43s-2.48,7.41-3.44,10.37-1.71,5.32-2.26,7c-.26.79-.48,1.43-.63,1.91a5,5,0,0,1-.26.64,5.2,5.2,0,0,1,.17-.68l.57-1.92c.52-1.71,1.24-4.11,2.13-7.06s2-6.52,3.36-10.41a134.11,134.11,0,0,1,4.92-12.48,63.29,63.29,0,0,1,3.26-6.14,51,51,0,0,1,3.74-5.29c2.55-3.22,5-6,6.7-8.61a26.87,26.87,0,0,0,3.35-6.5c.14-.41.27-.77.36-1.09l.21-.83A3.28,3.28,0,0,1,227.25,141.65Z"/><path id="Trazado_1767" data-name="Trazado 1767" class="cls-2" d="M193,241.64a4.72,4.72,0,0,1-.92-.11l-2.46-.42c-2.07-.36-4.93-.88-8.09-1.49s-6-1.17-8.07-1.58l-2.44-.53a5.17,5.17,0,0,1-.88-.23,4.7,4.7,0,0,1,.91.1l2.45.42c2.08.37,4.94.9,8.09,1.5s6,1.16,8.07,1.58l2.44.53A4.1,4.1,0,0,1,193,241.64Z"/><path id="Trazado_1768" data-name="Trazado 1768" class="cls-2" d="M189.46,236.65a4.94,4.94,0,0,1-1.86,4.12c-.08-.07.63-.83,1.13-2S189.36,236.64,189.46,236.65Z"/><path id="Trazado_1769" data-name="Trazado 1769" class="cls-2" d="M185.5,238.44c.09,0,.11.39,0,.84s-.16.83-.28.83-.11-.4,0-.85S185.41,238.42,185.5,238.44Z"/><path id="Trazado_1770" data-name="Trazado 1770" class="cls-2" d="M247,225a4.5,4.5,0,0,1-.7.68l-2,1.74c-1.68,1.47-4,3.48-6.62,5.68s-5,4.19-6.7,5.61L229,240.35a4.93,4.93,0,0,1-.78.58,5.62,5.62,0,0,1,.7-.68l2-1.74c1.68-1.47,4-3.48,6.62-5.68s5-4.18,6.69-5.6l2.05-1.67A5.6,5.6,0,0,1,247,225Z"/><path id="Trazado_1771" data-name="Trazado 1771" class="cls-2" d="M238.24,226.32a4.24,4.24,0,0,1,2.19,4.14A7.52,7.52,0,0,0,238.24,226.32Z"/><path id="Trazado_1772" data-name="Trazado 1772" class="cls-2" d="M241.11,226.25a1,1,0,0,1,.33.55,3.1,3.1,0,0,1,.14,1.54,3,3,0,0,1-.6,1.43c-.25.31-.46.45-.48.42a4.6,4.6,0,0,0,.63-3.94Z"/><path id="Trazado_1773" data-name="Trazado 1773" class="cls-8" d="M156.14,111.86,151,114.53,142,118.94a2.72,2.72,0,0,0-1.43,1.2l-3.28,5.78h6.29l1.67-2.82a5.4,5.4,0,0,0,6-1.69l9.13-3.19Z"/><path id="Trazado_1774" data-name="Trazado 1774" class="cls-8" d="M145,121.68a35.43,35.43,0,0,0-1,6.8c0,.29,0,.63.26.79s.63-.28.85-.54c.4-.48,1.91-3.08,1.91-3.08a4.33,4.33,0,0,0,3.93-4.2"/><path id="Trazado_1775" data-name="Trazado 1775" class="cls-9" d="M151,121.46a1.24,1.24,0,0,1,0,.47,3.71,3.71,0,0,1-.32,1.27,4.21,4.21,0,0,1-1.22,1.61,4.69,4.69,0,0,1-2.37,1l.11-.08c-.48.83-1,1.73-1.61,2.65a3.69,3.69,0,0,1-.29.4,2.83,2.83,0,0,1-.32.37.93.93,0,0,1-.47.31.52.52,0,0,1-.53-.32,1.88,1.88,0,0,1-.08-1c0-.29,0-.58.06-.86a29.45,29.45,0,0,1,.41-3c.15-.83.31-1.5.43-2a3.68,3.68,0,0,1,.23-.71,2.92,2.92,0,0,1-.1.73c-.09.47-.21,1.14-.33,2s-.25,1.84-.33,3l-.06.86a2,2,0,0,0,.05.81c0,.1.14.15.2.13a.57.57,0,0,0,.29-.2l.3-.36c.09-.1.18-.25.27-.37.59-.91,1.12-1.81,1.62-2.63l0-.07H147a4.57,4.57,0,0,0,2.25-.89,4.26,4.26,0,0,0,1.21-1.49A6.46,6.46,0,0,0,151,121.46Z"/><path id="Trazado_1776" data-name="Trazado 1776" class="cls-3" d="M199.86,72.19l14.82-.28c8.17.42,11.33,4.73,11.33,4.73l-3.44,19.57-2.38,10.42,6.9,26.64-34.29-.82L193,112s-1.12-4.12-2.21-9.35c-1.43,3-3.11,5.87-4.65,6.54-2.3,1-29.59,11.35-29.59,11.35L153,112.13,180.12,98.5l9.94-18.69h0a15.31,15.31,0,0,1,9.79-7.65"/><path id="Trazado_1777" data-name="Trazado 1777" class="cls-14" d="M222.75,124.73l1.81-1.22.83,3.22Z"/><path id="Trazado_1778" data-name="Trazado 1778" class="cls-3" d="M199.85,72.19,201,68.7l.7-.37L204,71.1l3.07-2.77h7.65l.79,3.87L204.8,73.62Z"/><path id="Trazado_1779" data-name="Trazado 1779" class="cls-1" d="M204,71.1a3.86,3.86,0,0,1,.83-.55c.54-.33,1.32-.79,2.27-1.33a.12.12,0,0,1,.17,0h0a0,0,0,0,1,0,0c.21,1.33.46,2.89.72,4.55,0,.22.07.43.1.63l-.22-.12c2-.74,3.78-1.39,5.1-1.84.63-.23,1.16-.4,1.53-.52a1.85,1.85,0,0,1,.57-.15,2.4,2.4,0,0,1-.53.27l-1.5.63c-1.27.51-3.05,1.19-5,1.92a.17.17,0,0,1-.22-.1v0c0-.2-.06-.4-.1-.63-.24-1.67-.47-3.23-.67-4.56l.21.1c-1,.52-1.76.94-2.33,1.23A4.15,4.15,0,0,1,204,71.1Z"/><path id="Trazado_1780" data-name="Trazado 1780" class="cls-1" d="M199.85,72.19a14.45,14.45,0,0,1,.91,2.28h-.27c.18-.78.4-1.71.64-2.7s.44-1.72.63-2.48h0a.16.16,0,0,1,.17-.11l.07,0a14.56,14.56,0,0,1,1.77,2,16.67,16.67,0,0,1-2-1.79l.24-.07-.6,2.49c-.25,1-.49,1.91-.7,2.69h0a.14.14,0,0,1-.17.1.13.13,0,0,1-.1-.1A13.55,13.55,0,0,1,199.85,72.19Z"/><path id="Trazado_1781" data-name="Trazado 1781" class="cls-1" d="M203.16,79.35s.21-.17.53,0A.6.6,0,0,1,204,80a.71.71,0,0,1-.5.59.68.68,0,0,1-.73-.28.62.62,0,0,1,0-.63c.18-.32.45-.32.44-.28a.94.94,0,0,0-.22.37.37.37,0,0,0,.06.35.37.37,0,0,0,.68-.17.36.36,0,0,0-.1-.34C203.37,79.38,203.17,79.4,203.16,79.35Z"/><path id="Trazado_1782" data-name="Trazado 1782" class="cls-1" d="M202.2,85.62s.21-.17.52,0a.62.62,0,0,1,.27.57.72.72,0,0,1-.51.6.69.69,0,0,1-.72-.28.64.64,0,0,1,0-.64c.19-.32.45-.32.45-.27a1,1,0,0,0-.23.36.39.39,0,0,0,.07.36.37.37,0,0,0,.52.09.39.39,0,0,0,.16-.26.4.4,0,0,0-.09-.3C202.41,85.65,202.21,85.67,202.2,85.62Z"/><path id="Trazado_1783" data-name="Trazado 1783" class="cls-1" d="M201.59,91.36a.44.44,0,0,1,.52,0,.61.61,0,0,1,.26.57.66.66,0,0,1-.72.61.7.7,0,0,1-.51-.3.64.64,0,0,1,0-.64c.17-.32.45-.32.44-.27a1,1,0,0,0-.23.36.39.39,0,0,0,.07.36.38.38,0,0,0,.68-.18.37.37,0,0,0-.12-.33C201.79,91.4,201.6,91.41,201.59,91.36Z"/><path id="Trazado_1784" data-name="Trazado 1784" class="cls-1" d="M204.17,73.66a.44.44,0,0,1,.52,0,.62.62,0,0,1,.27.57.72.72,0,0,1-.51.6.69.69,0,0,1-.72-.29.62.62,0,0,1,0-.63c.19-.33.45-.32.45-.28a1,1,0,0,0-.23.36.39.39,0,0,0,.07.36.38.38,0,0,0,.68-.18.42.42,0,0,0-.11-.35C204.37,73.69,204.18,73.73,204.17,73.66Z"/><path id="Trazado_1785" data-name="Trazado 1785" class="cls-6" d="M207.56,72.73s-1.41.07-3.15.07a26.09,26.09,0,0,1-3.19-.07,24.24,24.24,0,0,1,3.19-.06C206.18,72.67,207.56,72.7,207.56,72.73Z"/><path id="Trazado_1786" data-name="Trazado 1786" class="cls-6" d="M215.06,69.59s-1.65.51-3.72,1.06-3.74,1-3.75.93,1.65-.51,3.72-1.06S215.05,69.55,215.06,69.59Z"/><path id="Trazado_1787" data-name="Trazado 1787" class="cls-6" d="M201.31,71.47a2.49,2.49,0,0,1-.44-.42c-.22-.25-.38-.49-.35-.51s.23.15.44.42A2.44,2.44,0,0,1,201.31,71.47Z"/><g id="Grupo_98" data-name="Grupo 98" class="cls-10"><path id="Trazado_1788" data-name="Trazado 1788" d="M218,93.9c.63,2,3,9.41,3,9.41l-.76,3.32.89,3.43-4.34,3.15c-1.92-2.93-1.62-10.15-1.22-13.38.58-4.79.64-7.7.83-11.39C216.36,88.39,217.7,93.1,218,93.9Z"/></g><path id="Trazado_1789" data-name="Trazado 1789" class="cls-1" d="M199.6,94.83a5.06,5.06,0,0,1-.13-.94,22.55,22.55,0,0,1,0-2.6,49.24,49.24,0,0,1,1.43-8.45c.76-3.26,1.47-6.2,2-8.29.26-1,.48-1.86.63-2.55a7.35,7.35,0,0,1,.28-.91,4.85,4.85,0,0,1-.15.94c-.15.64-.32,1.52-.54,2.55-.46,2.14-1.13,5.1-1.91,8.35a56.66,56.66,0,0,0-1.53,8.38c-.08,1.09-.09,2-.08,2.58A4.93,4.93,0,0,1,199.6,94.83Z"/><path id="Trazado_1790" data-name="Trazado 1790" class="cls-1" d="M190.76,134.83S189.17,98,189.53,96.48s24.18-2.2,24.23-1.27.38,22.48,2.13,25.46,12.24,7.25,12.24,7.25.18,5.74.07,7.84c-.06,1.1-16.87,5.89-16.87,5.89Z"/><path id="Trazado_1791" data-name="Trazado 1791" class="cls-2" d="M207.05,102.25a3.57,3.57,0,0,1-.46.4,4.6,4.6,0,0,1-.58.4,6.75,6.75,0,0,1-.82.48,13.24,13.24,0,0,1-2.27.94,13.93,13.93,0,0,1-6,.5,13.35,13.35,0,0,1-2.41-.55,9.4,9.4,0,0,1-.88-.34,5.31,5.31,0,0,1-.64-.3,2.35,2.35,0,0,1-.52-.32c0-.06.79.34,2.12.73a14.77,14.77,0,0,0,8.23,0,13.91,13.91,0,0,0,2.25-.86C206.33,102.72,207.05,102.19,207.05,102.25Z"/><path id="Trazado_1792" data-name="Trazado 1792" class="cls-2" d="M207.11,104.21a2.22,2.22,0,0,1-.44.48,12.82,12.82,0,0,1-1.33,1.11c-.32.2-.64.43-1,.63s-.81.45-1.23.64a10.49,10.49,0,0,1-3.06.86,9.51,9.51,0,0,1-3.19-.14,8.76,8.76,0,0,1-2.42-.92,4.62,4.62,0,0,1-.84-.54,4.27,4.27,0,0,1-.6-.45,2.45,2.45,0,0,1-.45-.46c.05,0,.71.58,2,1.24a9.11,9.11,0,0,0,2.38.84,9.59,9.59,0,0,0,3.07.1,11,11,0,0,0,3-.81,10.65,10.65,0,0,0,1.22-.59c.38-.18.71-.42,1-.6C206.42,104.79,207.05,104.17,207.11,104.21Z"/><path id="Trazado_1793" data-name="Trazado 1793" class="cls-2" d="M206,118.18a.92.92,0,0,1-.21.13,4.12,4.12,0,0,1-.64.3,8.36,8.36,0,0,1-2.61.52,9.28,9.28,0,0,1-3.9-.63,8.93,8.93,0,0,1-3.82-3,13,13,0,0,1-2.05-4.39,21.46,21.46,0,0,1-.63-3.89c-.09-1.11-.11-2-.12-2.66a5.13,5.13,0,0,1,0-1,5,5,0,0,1,.1,1c.05.63.11,1.53.22,2.64a24.67,24.67,0,0,0,.69,3.82,12.91,12.91,0,0,0,2,4.27,8.55,8.55,0,0,0,3.66,2.88,9.21,9.21,0,0,0,3.77.72,8.78,8.78,0,0,0,2.55-.41C205.69,118.3,206,118.15,206,118.18Z"/><path id="Trazado_1794" data-name="Trazado 1794" class="cls-3" d="M216.2,84.38c.52-7,6.5-13.91,10.9-6.71,4,6.56,10,23.41,10.71,33.94.33,4.91-31.56,23.39-33.54,24.53a3.75,3.75,0,0,1-.44-.72l-6-8.35c0-.06,2-1.37,2-1.41l22.95-16.85a.11.11,0,0,0,0-.13c-.49-1.32-7-18.83-6.67-24.11A1.15,1.15,0,0,1,216.2,84.38Z"/><path id="Trazado_1795" data-name="Trazado 1795" class="cls-1" d="M229,109.83c-.06.12-1.33-.5-3-.79s-3.09-.16-3.11-.3a5.24,5.24,0,0,1,3.18-.16A5.7,5.7,0,0,1,229,109.83Z"/><path id="Trazado_1796" data-name="Trazado 1796" class="cls-1" d="M227.45,111.87c-.12.07-.8-1-2-1.81s-2.38-1.19-2.35-1.33a3.77,3.77,0,0,1,2.62,1A4.32,4.32,0,0,1,227.45,111.87Z"/><path id="Trazado_1797" data-name="Trazado 1797" class="cls-1" d="M197.85,127.06a3.26,3.26,0,0,1,.4-.34l1.22-.93,4.46-3.36,14.85-11,4-2.91-.06.19C220.83,103,219.2,98,218,94.33c-.57-1.78-1-3.19-1.34-4.24-.15-.48-.26-.86-.35-1.15a2,2,0,0,1-.1-.4,2.54,2.54,0,0,1,.16.38c.09.29.23.63.39,1.13.35,1,.84,2.44,1.43,4.22,1.21,3.62,2.88,8.63,4.77,14.35a.16.16,0,0,1-.06.18l-4,2.92-14.91,10.9-4.54,3.28-1.27.87A2.27,2.27,0,0,1,197.85,127.06Z"/><path id="Trazado_1798" data-name="Trazado 1798" class="cls-6" d="M229.26,81.79s-9,.06-20.14.06-20.14,0-20.14-.06,9-.07,20.14-.07S229.26,81.75,229.26,81.79Z"/><path id="Trazado_1799" data-name="Trazado 1799" class="cls-6" d="M231.73,87.63s-10.29.07-22.95.07-22.95,0-22.95-.07,10.28-.06,22.95-.06S231.73,87.6,231.73,87.63Z"/><path id="Trazado_1800" data-name="Trazado 1800" class="cls-6" d="M233.69,93.17s-11.35.16-25.34.28-25.36.18-25.36.16,11.35-.16,25.35-.29S233.69,93.13,233.69,93.17Z"/><path id="Trazado_1801" data-name="Trazado 1801" class="cls-6" d="M226.85,77.26s-7.86.08-17.56.1-17.56,0-17.56,0,7.86-.08,17.56-.1S226.85,77.23,226.85,77.26Z"/><path id="Trazado_1802" data-name="Trazado 1802" class="cls-6" d="M235.64,99.6s-4.93.07-11,.07-11,0-11-.07,4.93-.07,11-.07S235.64,99.57,235.64,99.6Z"/><path id="Trazado_1803" data-name="Trazado 1803" class="cls-6" d="M236.89,105.92s-3.31.06-7.39.06-7.38,0-7.38-.06,3.3-.07,7.38-.07S236.89,105.88,236.89,105.92Z"/><path id="Trazado_1804" data-name="Trazado 1804" class="cls-6" d="M230.2,119.63l0-.14-.11-.37c-.09-.33-.24-.79-.45-1.36a17.51,17.51,0,0,0-5.52-7.55c-.48-.37-.88-.64-1.16-.85l-.32-.22-.11-.08a.17.17,0,0,1,.12,0l.34.21a13.84,13.84,0,0,1,1.19.81,16.39,16.39,0,0,1,5.55,7.6c.2.57.33,1,.41,1.37l.09.38A.39.39,0,0,1,230.2,119.63Z"/><path id="Trazado_1805" data-name="Trazado 1805" class="cls-6" d="M223.26,124.32s-1.68-2.25-3.69-5.1-3.63-5.13-3.59-5.16,1.68,2.26,3.69,5.1S223.3,124.3,223.26,124.32Z"/><path id="Trazado_1806" data-name="Trazado 1806" class="cls-6" d="M215.86,129s-1.56-2.17-3.41-4.89-3.33-4.93-3.3-5,1.55,2.17,3.41,4.89S215.89,128.93,215.86,129Z"/><path id="Trazado_1807" data-name="Trazado 1807" class="cls-6" d="M209.26,132.32s-1.43-1.91-3.11-4.3-3-4.35-3-4.38,1.41,1.92,3.1,4.31S209.28,132.3,209.26,132.32Z"/><path id="Trazado_1808" data-name="Trazado 1808" class="cls-6" d="M236.49,114l-.12-.13-.31-.31-1.2-1.11a19.35,19.35,0,0,0-4.43-3,11.58,11.58,0,0,0-5.18-1.16,9.69,9.69,0,0,0-1.61.19c-.38.08-.59.13-.59.12a7.17,7.17,0,0,1,2.19-.4,11.2,11.2,0,0,1,5.25,1.13,18.28,18.28,0,0,1,4.43,3.07c.51.46.91.86,1.18,1.13l.3.32A.51.51,0,0,1,236.49,114Z"/><path id="Trazado_1809" data-name="Trazado 1809" class="cls-6" d="M189.33,100.35s-1.92-.64-4.22-1.54-4.19-1.63-4.18-1.67,1.91.64,4.22,1.55S189.34,100.31,189.33,100.35Z"/><path id="Trazado_1810" data-name="Trazado 1810" class="cls-6" d="M188.27,107s-1.87-1.83-4.11-4.15-4-4.21-4-4.24,1.87,1.83,4.12,4.15S188.3,107,188.27,107Z"/><path id="Trazado_1811" data-name="Trazado 1811" class="cls-6" d="M181.71,110.7a2.51,2.51,0,0,1-.27-.37c-.15-.25-.39-.6-.66-1-.56-.89-1.27-2.14-2.07-3.55s-1.4-2.71-1.85-3.66c-.23-.47-.4-.86-.52-1.13a3.61,3.61,0,0,1-.16-.42,3,3,0,0,1,.21.4L177,102c.46.94,1.13,2.24,1.91,3.65s1.49,2.66,2,3.57l.64,1.07C181.59,110.44,181.65,110.57,181.71,110.7Z"/><path id="Trazado_1812" data-name="Trazado 1812" class="cls-6" d="M176.28,113a2.88,2.88,0,0,1-.22-.38l-.56-1.08c-.45-.91-1.07-2.18-1.68-3.62s-1.15-2.74-1.5-3.7l-.4-1.14a2.16,2.16,0,0,1-.14-.43,3,3,0,0,1,.18.41l.45,1.13c.37,1,.9,2.26,1.53,3.68s1.21,2.71,1.65,3.64l.52,1.09C176.17,112.75,176.23,112.88,176.28,113Z"/><path id="Trazado_1813" data-name="Trazado 1813" class="cls-6" d="M170.32,115.2s-.87-2.21-1.87-5-1.78-5-1.75-5,.88,2.21,1.88,5S170.36,115.2,170.32,115.2Z"/><path id="Trazado_1814" data-name="Trazado 1814" class="cls-6" d="M164.53,117.27s-.88-2-1.91-4.46-1.8-4.46-1.76-4.49.88,2,1.91,4.46S164.57,117.25,164.53,117.27Z"/><path id="Trazado_1815" data-name="Trazado 1815" class="cls-6" d="M160.33,119.14a2,2,0,0,1-.19-.31l-.48-.9c-.4-.76-.93-1.83-1.47-3s-1-2.3-1.27-3.1l-.35-1a2.26,2.26,0,0,1-.11-.37,1.58,1.58,0,0,1,.16.35c.12.29.25.63.39.94.32.79.8,1.91,1.33,3.08s1.06,2.26,1.43,3l.45.92A1.42,1.42,0,0,1,160.33,119.14Z"/><path id="Trazado_1816" data-name="Trazado 1816" class="cls-6" d="M221.94,73.63s.1.26.27.75l.76,2.17c.63,1.91,1.61,4.61,2.76,8,2.34,6.75,5.56,16,9.09,26.3l.1.28a0,0,0,0,1,0,.07c-8.61,6.53-16.57,12.19-22.41,16.18-2.91,2-5.28,3.59-6.93,4.68l-1.91,1.27-.67.43.64-.45,1.88-1.27c1.64-1.11,4-2.71,6.91-4.72,5.8-4,13.77-9.68,22.38-16.21v.08l-.1-.28c-3.53-10.27-6.72-19.57-9.05-26.32-1.14-3.36-2.07-6.08-2.72-8l-.74-2.17C222,73.89,221.94,73.63,221.94,73.63Z"/><path id="Trazado_1817" data-name="Trazado 1817" class="cls-6" d="M217.25,73.91s.07.23.19.68.28,1.13.5,2c.43,1.74,1.06,4.21,1.82,7.24l6,23.87.33,1.37a0,0,0,0,1,0,.06l-18.58,14.66-5.6,4.4-1.52,1.19-.55.41s.18-.16.53-.43l1.51-1.21,5.57-4.46L226,109V109c-.1-.43-.21-.89-.33-1.36-2.31-9.31-4.4-17.75-5.92-23.89l-1.83-7.2-.47-2C217.3,74.15,217.25,73.91,217.25,73.91Z"/><path id="Trazado_1818" data-name="Trazado 1818" class="cls-6" d="M217.25,112.25l-.08-.4L217,110.7c-.19-1-.46-2.47-.78-4.22s-.71-3.92-1.13-6.26c-.21-1.18-.46-2.42-.6-3.72s-.24-2.65-.29-4c-.19-5.53-.32-10.53-.4-14.16,0-1.78-.07-3.24-.09-4.29V72.85c0,.27,0,.69,0,1.17,0,1,.08,2.5.14,4.29.11,3.66.26,8.64.43,14.16.06,1.38.14,2.72.29,4s.38,2.55.59,3.7c.42,2.35.79,4.46,1.11,6.27s.55,3.19.74,4.24c.07.47.14.85.19,1.14A1.93,1.93,0,0,1,217.25,112.25Z"/><path id="Trazado_1819" data-name="Trazado 1819" class="cls-6" d="M207.69,72.09a1,1,0,0,1,0,.23c0,.18-.09.39-.13.63-.11.55-.27,1.36-.45,2.36-.37,2-.81,4.79-1.14,7.88s-.46,5.89-.51,7.93c0,1-.05,1.84-.05,2.4v.64a.89.89,0,0,1,0,.23V91.11c0-2,.16-4.85.48-8s.78-5.87,1.17-7.87c.2-1,.37-1.81.5-2.36l.16-.64A.34.34,0,0,1,207.69,72.09Z"/><path id="Trazado_1820" data-name="Trazado 1820" class="cls-6" d="M199.31,72.7a.86.86,0,0,1-.06.23c-.05.15-.11.4-.18.64-.16.56-.38,1.37-.64,2.38A77.71,77.71,0,0,0,196,92c-.06,1-.08,1.88-.09,2.46h0c0-.58,0-1.43,0-2.47a68.38,68.38,0,0,1,2.36-16c.27-1,.51-1.81.69-2.38l.2-.63A2.25,2.25,0,0,1,199.31,72.7Z"/><path id="Trazado_1821" data-name="Trazado 1821" class="cls-6" d="M154.9,116.61l.59-.26,1.69-.71,6.24-2.59L184,104.54l1-.41,0,.05a108.13,108.13,0,0,1,5.43-20.86c1-2.55,1.82-4.62,2.44-6s1-2.17,1-2.17l-.24.57-.71,1.62c-.63,1.4-1.46,3.45-2.4,6a110.37,110.37,0,0,0-5.4,20.85.05.05,0,0,1,0,0l-1,.41-20.62,8.47-6.26,2.55-1.7.69Z"/><path id="Trazado_1822" data-name="Trazado 1822" class="cls-6" d="M212.42,72.8a38.45,38.45,0,0,1-1-4.5,21,21,0,0,1,.56,2.24A19.19,19.19,0,0,1,212.42,72.8Z"/><g id="Grupo_99" data-name="Grupo 99" class="cls-15"><path id="Trazado_1823" data-name="Trazado 1823" d="M212.15,94.9a77.54,77.54,0,0,1,1.6-10A34.15,34.15,0,0,1,218.07,74c.25-.41.52-1,.21-1.31s-1.06-.08-1.48.29a19.74,19.74,0,0,0-5.37,9.46,59.7,59.7,0,0,0-1.57,10.89c-.05.71-.07,1.43-.07,1.43Z"/></g><path id="Trazado_1824" data-name="Trazado 1824" class="cls-1" d="M215.67,72s-8.76,9.56-8.09,26.08l3.19-.23s.17-18.12,7.77-25.37A4.68,4.68,0,0,0,215.67,72Z"/><path id="Trazado_1825" data-name="Trazado 1825" class="cls-2" d="M211,94.13a9.72,9.72,0,0,1-.08,1.79c0,.65-.13,1.3-.24,1.94a2.08,2.08,0,0,1-.52,1.11,1.65,1.65,0,0,1-1.31.27,1.77,1.77,0,0,1-.63-.27,1.3,1.3,0,0,1-.47-.49,2.77,2.77,0,0,1-.29-1.17c-.05-.75,0-1.4,0-2a5.93,5.93,0,0,1,.18-1.78s0,.68.05,1.78a15.18,15.18,0,0,0,.09,1.91,2.63,2.63,0,0,0,.27,1,1.09,1.09,0,0,0,.36.38,1.64,1.64,0,0,0,.51.22,1.36,1.36,0,0,0,1-.19,2,2,0,0,0,.44-.94c.15-.68.2-1.35.29-1.91A9.38,9.38,0,0,1,211,94.13Z"/><path id="Trazado_1826" data-name="Trazado 1826" class="cls-2" d="M209.91,97.13a.64.64,0,0,1-.63.64.64.64,0,0,1-.64-.64.64.64,0,0,1,.64-.63h0A.63.63,0,0,1,209.91,97.13Z"/><g id="Grupo_100" data-name="Grupo 100" class="cls-15"><path id="Trazado_1827" data-name="Trazado 1827" d="M195.27,95.31a48.64,48.64,0,0,1,3-19.67c.35-1,1.08-2.68.79-2.73s-1.72,2.17-1.83,2.38a34.09,34.09,0,0,0-3.64,20.2"/></g><path id="Trazado_1828" data-name="Trazado 1828" class="cls-1" d="M197.05,73.17s-7,8.28-6.77,24.86l3.07-.16s.07-18.22,6.5-25.71A4.47,4.47,0,0,0,197.05,73.17Z"/><path id="Trazado_1829" data-name="Trazado 1829" class="cls-2" d="M193.47,94.73a13.57,13.57,0,0,1,.09,1.8,9.3,9.3,0,0,1-.16,2,2.6,2.6,0,0,1-.49,1.13,1.64,1.64,0,0,1-1.32.32,1.91,1.91,0,0,1-.34-.1l-.29-.16a1.38,1.38,0,0,1-.48-.45,2.73,2.73,0,0,1-.31-1.18c0-.66,0-1.32,0-2a6.41,6.41,0,0,1,.19-1.8s0,.69,0,1.8A15.43,15.43,0,0,0,190.5,98a2.64,2.64,0,0,0,.28,1,1.12,1.12,0,0,0,.38.37,1.3,1.3,0,0,0,.26.14,1.12,1.12,0,0,0,.26.08,1.31,1.31,0,0,0,1-.22,2.14,2.14,0,0,0,.43-1,10.26,10.26,0,0,0,.22-1.91A7.8,7.8,0,0,1,193.47,94.73Z"/><path id="Trazado_1830" data-name="Trazado 1830" class="cls-2" d="M192.62,97.79a.64.64,0,1,1-1.27,0,.63.63,0,0,1,.63-.63h0A.63.63,0,0,1,192.62,97.79Z"/><path id="Trazado_1831" data-name="Trazado 1831" class="cls-6" d="M220.36,106.88s-1.36.1-3,.16-3,.07-3.06,0,1.37-.1,3.05-.16C218.33,106.85,219.35,106.84,220.36,106.88Z"/><path id="Trazado_1832" data-name="Trazado 1832" class="cls-2" d="M222.55,135.56a1.51,1.51,0,0,1-.36.44,5.54,5.54,0,0,1-1.24.9,6.41,6.41,0,0,1-8.72-2.47l-.08-.14a5.64,5.64,0,0,1-.55-1.43,1.33,1.33,0,0,1-.07-.56,12,12,0,0,0,.83,1.87,6.42,6.42,0,0,0,8.51,2.48A12.38,12.38,0,0,0,222.55,135.56Z"/><path id="Trazado_1833" data-name="Trazado 1833" class="cls-8" d="M200.42,137.74l3.41-2.32-4.52-6.32-.54.45a17.77,17.77,0,0,1-3.26.09,4.63,4.63,0,0,1-1.69-.38,7.46,7.46,0,0,1-1.87-1,.63.63,0,0,0-.89-.11.64.64,0,0,0-.23.63c.12.58,1.54,1.53,3.43,2.43,1.69.81.91,2.44.1,3.15s-4.46,3.23-4.46,3.23l5.85,1.13a6.14,6.14,0,0,0,4.67-1Z"/><path id="Trazado_1834" data-name="Trazado 1834" class="cls-9" d="M196.43,136a4.57,4.57,0,0,1-2.2,1.54,4.42,4.42,0,0,1-2.66.33,21.58,21.58,0,0,0,2.55-.63A23.19,23.19,0,0,0,196.43,136Z"/><path id="Trazado_1835" data-name="Trazado 1835" class="cls-9" d="M198,137.19c.07,0-.31.71-1.13,1.14a2.07,2.07,0,0,1-1.59.29c0-.1.69-.19,1.43-.58S197.9,137.13,198,137.19Z"/><path id="Trazado_1836" data-name="Trazado 1836" class="cls-3" d="M220.07,137.2s0,5.66-2.25,7.19a2.32,2.32,0,0,0-.63.54.63.63,0,0,0,0,.76c.24.25.63.14,1,0a7.27,7.27,0,0,0,2.45-1.88v6.61a2.9,2.9,0,0,0,.14,1.05.93.93,0,0,0,.81.61c.7,0,.91-1,.9-1.66,0-1.74,0-3.48-.07-5.22l.36,5c.05.63.32,1.43.93,1.36s.7-.86.63-1.44l-.49-6.66c.3,1.58.6,3.18.9,4.79a1.41,1.41,0,0,0,.54,1,1,1,0,0,0,1.23-.55v0a2.77,2.77,0,0,0,0-1.51c-.29-1.78-.59-3.57-.88-5.35a18.34,18.34,0,0,0,1,3.79.74.74,0,0,0,1,.39.76.76,0,0,0,.34-.3.25.25,0,0,0,0-.11,2.12,2.12,0,0,0-.09-1l-1.41-5.89a10,10,0,0,0-2.94-5.91A6.48,6.48,0,0,0,218,132a14.42,14.42,0,0,0-5.09,3S215.79,138.92,220.07,137.2Z"/><path id="Trazado_1837" data-name="Trazado 1837" class="cls-1" d="M217,134.93s.23-.16.63-.16a2.54,2.54,0,0,1,1.54.55,2.45,2.45,0,0,1,.87,1.38c.09.42,0,.68,0,.68a4.44,4.44,0,0,1-.22-.61,2.72,2.72,0,0,0-2.2-1.77C217.21,135,217,135,217,134.93Z"/><path id="Trazado_1838" data-name="Trazado 1838" class="cls-1" d="M217.4,136.39c-.05-.08.56-.41,1.36-.29a1.73,1.73,0,0,1,1.23.63,10.79,10.79,0,0,0-1.27-.34C218,136.3,217.43,136.48,217.4,136.39Z"/><g id="Grupo_101" data-name="Grupo 101" class="cls-16"><path id="Trazado_1839" data-name="Trazado 1839" d="M220,137.25l-.64.19a5.47,5.47,0,0,1-1.13.2,12.14,12.14,0,0,1-1.59-.11.84.84,0,0,1-.7-.34.81.81,0,0,1,.16-.76,4.5,4.5,0,0,1,1.72-1.52,3.19,3.19,0,0,1,1.69,1A2.05,2.05,0,0,1,220,137.25Z"/></g></g></g></svg>