<svg xmlns="http://www.w3.org/2000/svg" width="36.304" height="36.304" viewBox="0 0 36.304 36.304">
  <path id="Trazado_3919" data-name="Trazado 3919" d="M62.849,460.5h35.1a.605.605,0,0,0,0-1.21h-.606v-6.051a1.8,1.8,0,0,0-.532-1.284l-2.774-2.776a1.816,1.816,0,1,0-2.567,2.568l2.244,2.244v5.3H92.5v-2.42a3.633,3.633,0,0,0-3.63-3.63H84.027V450.8a10.841,10.841,0,0,0,1.853-.86c.019-.008.037-.024.057-.033a11,11,0,0,0,2.11-1.616,10.818,10.818,0,0,0,3.241-7.752c0-8.557-9.147-15.363-10.189-16.111a1.206,1.206,0,0,0-1.406,0c-1.024.734-10.007,7.416-10.185,15.848a10.845,10.845,0,0,0,3.09,7.809,11.151,11.151,0,0,0,2.277,1.8l.025.015a10.657,10.657,0,0,0,1.866.884v2.459h-4.84a3.632,3.632,0,0,0-3.63,3.63v2.42h-1.21v-5.3l2.242-2.242a1.815,1.815,0,1,0-2.566-2.567l-2.774,2.774a1.8,1.8,0,0,0-.532,1.284v6.051h-.606a.605.605,0,0,0,0,1.21Zm31.893-7.187-2.422-2.42a.605.605,0,0,1,.856-.856l2.774,2.774a.6.6,0,0,1,.178.428v6.051h-1.21v-5.549a.608.608,0,0,0-.176-.428Zm-19.136-4.4a6.328,6.328,0,0,1-1.26-3.939c.092-4.485,3.993-8.494,6.05-10.3,2.091,1.827,6.052,5.892,6.052,10.457a6.447,6.447,0,0,1-1.223,3.784,9.524,9.524,0,0,1-1.432.682,4.683,4.683,0,0,0,.839-2.687c0-3.143-2.684-5.827-3.839-6.834a.606.606,0,0,0-.8,0c-1.132.991-3.773,3.63-3.836,6.723a4.664,4.664,0,0,0,.846,2.779,9.579,9.579,0,0,1-1.4-.665Zm2.647.3a3.454,3.454,0,0,1-.881-2.387c.046-2.31,1.9-4.408,3.025-5.474,1.145,1.081,3.026,3.215,3.026,5.56a3.208,3.208,0,0,1-2.755,3.289c-.113,0-.224.013-.336.013a2.878,2.878,0,0,1-2.078-1ZM70.718,440.3c.168-7.844,8.711-14.193,9.675-14.891.992.71,9.685,7.173,9.685,15.127a9.607,9.607,0,0,1-2.723,6.716,7.736,7.736,0,0,0,.3-2.117c0-5.378-4.806-9.984-6.873-11.719a.6.6,0,0,0-.778,0c-2.031,1.71-6.763,6.255-6.872,11.537a7.666,7.666,0,0,0,.295,2.245,9.643,9.643,0,0,1-2.712-6.9Zm7.258,10.846a10.632,10.632,0,0,0,2.274.281H80.4a11.01,11.01,0,0,0,2.422-.278v2.094H77.976Zm-8.471,6.333h2.42a.606.606,0,0,0,0-1.212H69.592a2.421,2.421,0,0,1,2.334-1.814H88.868a2.42,2.42,0,0,1,2.334,1.814H75.556a.606.606,0,0,0,0,1.212H91.289v1.814H69.506Zm-4.84-4.236a.611.611,0,0,1,.176-.429l2.776-2.773a.6.6,0,1,1,.854.856l-2.42,2.419a.611.611,0,0,0-.176.429v5.549h-1.21Zm0,0" transform="translate(-62.245 -424.198)" fill="#d7e51c"/>
</svg>
