<svg id="Capa_1" data-name="Capa 1" xmlns="http://www.w3.org/2000/svg" viewBox="0 0 300 300"><defs><style>.cls-1{fill:#ffefed;}.cls-2{fill:#263238;}.cls-3{fill:#455a64;}.cls-4{fill:#e0e0e0;}.cls-5{fill:#0e7a73;}.cls-6{fill:#fafafa;}.cls-7{opacity:0.3;}.cls-8{opacity:0.4;}.cls-9{fill:#fff;}.cls-10{fill:#ffbe9d;}.cls-11{fill:#eb996e;}.cls-12{fill:#ebebeb;}.cls-13{fill:#f5f5f5;}</style></defs><g id="Having_fun-pana" data-name="Having fun-pana"><g id="freepik--background-simple--inject-84"><path id="Trazado_1127" data-name="Trazado 1127" class="cls-1" d="M240,75.47c-26.39-16.11-63.81-12.57-85.33,9.65-7.55,7.78-13,17.33-20,25.62S118.28,126.29,107.45,127c-9.88.66-19.2-4.21-28.87-6.41a55.41,55.41,0,0,0-52.72,17,54.25,54.25,0,0,0,32.6,89.52l157.3-.3c28.63-11.67,54.57-40.92,59.56-71.42S266.37,91.57,240,75.47Z"/></g><g id="freepik--Floor--inject-84"><path id="Trazado_1128" data-name="Trazado 1128" class="cls-2" d="M279.22,240.12c0,.06-65.75.11-146.85.11S13,240.12-14.49,240.12c-.06,0,65.73-.12,146.86-.12S279.22,240.05,279.22,240.12Z"/></g><g id="freepik--Sofa--inject-84"><rect id="Rect치ngulo_38" data-name="Rect치ngulo 38" class="cls-2" x="221.47" y="226.96" width="6.5" height="13.16"/><rect id="Rect치ngulo_39" data-name="Rect치ngulo 39" class="cls-2" x="54.57" y="226.96" width="6.5" height="13.16"/><path id="Trazado_1129" data-name="Trazado 1129" class="cls-3" d="M68.78,145.36H60.32a10.19,10.19,0,0,0-10.06,8.55l-6.83,42A14.36,14.36,0,0,0,55.3,212.36a14.63,14.63,0,0,0,2.29.18h177a8.21,8.21,0,0,0,8.21-8.23,8.51,8.51,0,0,0-.26-2.07h0a8.24,8.24,0,0,0-7.95-6.14h0a12.36,12.36,0,0,1-11.71-8.41L212,155.28a12.7,12.7,0,0,0-11.9-8.64Z"/><path id="Trazado_1130" data-name="Trazado 1130" class="cls-3" d="M32.12,196.21v25.14a7.34,7.34,0,0,0,7.36,7.32H235.73a7.35,7.35,0,0,0,7.37-7.32l-.28-20.52Z"/><path id="Trazado_1131" data-name="Trazado 1131" class="cls-4" d="M216.21,167.63l-.36.27-1.08.8c-.24.17-.5.37-.8.57l-1,.64c-.36.23-.74.49-1.17.74l-1.37.77a44.44,44.44,0,0,1-7.45,3.27A48.71,48.71,0,0,1,192.44,177a47.43,47.43,0,0,1-13-.55l-1.75-.39-.88-.19-.88-.24c-1.17-.31-2.35-.69-3.53-1.1-2.37-.81-4.75-1.79-7.18-2.83-4.85-2.07-9.88-4.44-15.41-6a63.07,63.07,0,0,0-35,.28c-5.5,1.65-10.58,3.88-15.55,5.7a59.2,59.2,0,0,1-14.53,3.64,32.89,32.89,0,0,1-6.8,0,26,26,0,0,1-3.15-.58l-.76-.19-.74-.24c-.49-.15-1-.29-1.44-.48a45,45,0,0,1-5.18-2.4c-1.59-.83-3.07-1.67-4.46-2.44a53.29,53.29,0,0,0-7.31-3.5,24.46,24.46,0,0,0-5-1.25l-1.32-.1-.44,0h.44c.29,0,.75,0,1.32.08a24,24,0,0,1,5,1.2,52.9,52.9,0,0,1,7.36,3.53c1.39.75,2.87,1.59,4.46,2.42a43.92,43.92,0,0,0,5.18,2.35c.46.19.94.33,1.43.48l.73.23.75.19a27.93,27.93,0,0,0,3.14.57,32.5,32.5,0,0,0,6.76,0,57.88,57.88,0,0,0,14.47-3.65c4.94-1.83,10-4,15.56-5.7a63.12,63.12,0,0,1,35.16-.28c5.55,1.54,10.59,3.94,15.44,6,2.42,1,4.8,2,7.16,2.84,1.18.4,2.35.79,3.51,1.1l.88.23.87.2,1.73.38a47.47,47.47,0,0,0,13,.59,48.44,48.44,0,0,0,10.52-2.23,44.78,44.78,0,0,0,7.46-3.22l1.34-.79c.44-.24.82-.5,1.18-.73l1-.63c.31-.19.56-.4.81-.56l1.09-.78Z"/><path id="Trazado_1132" data-name="Trazado 1132" class="cls-4" d="M241.59,189.13l-.54-.16-.66-.21c-.3-.1-.61-.18-.92-.25a26.35,26.35,0,0,0-6.25-.84,36.64,36.64,0,0,0-4.56.22c-.83.08-1.69.23-2.59.36s-1.81.33-2.76.56c-1.9.44-3.91,1-6,1.66s-4.31,1.46-6.62,2.3-4.73,1.72-7.29,2.54a66.27,66.27,0,0,1-8.09,2.1c-.72.12-1.43.26-2.16.34l-1.1.14-1.12.09c-.75.08-1.5.06-2.26.1l-1.15,0h-.57l-.58-.05a41.59,41.59,0,0,1-9.31-1.82c-3.12-.95-6.22-2.19-9.37-3.46s-6.37-2.58-9.74-3.63A50.39,50.39,0,0,0,147.41,187a67.21,67.21,0,0,0-11.08-.13,150.69,150.69,0,0,0-21.58,3.44c-3.45.75-6.84,1.51-10.18,2.2s-6.61,1.26-9.83,1.72a93.45,93.45,0,0,1-9.46.91c-1.54.09-3.07.07-4.55.08s-3-.08-4.38-.24A46.65,46.65,0,0,1,60.82,191c-2.24-1-4.26-2.2-6.2-3.28A51,51,0,0,0,49,185a16.62,16.62,0,0,0-9.77-1.12,11.23,11.23,0,0,0-3.4,1.25,9.81,9.81,0,0,0-1.21.81c-.17.14-.34.26-.48.4l-.41.4a6.14,6.14,0,0,0-.62.73,3.52,3.52,0,0,0-.39.56l-.31.47.28-.48a3.19,3.19,0,0,1,.39-.57,7.27,7.27,0,0,1,.61-.74l.41-.4c.14-.14.32-.27.49-.42a10.34,10.34,0,0,1,1.21-.83,11.84,11.84,0,0,1,3.42-1.27,16.6,16.6,0,0,1,9.81,1.09,47.11,47.11,0,0,1,5.62,2.75c1.95,1.06,3.95,2.24,6.2,3.25a46.38,46.38,0,0,0,15.48,3.91c1.43.16,2.9.17,4.38.23s3,0,4.54-.08q4.74-.22,9.44-.92c3.21-.46,6.49-1.05,9.82-1.75l10.18-2.2a150.43,150.43,0,0,1,21.61-3.45,67.58,67.58,0,0,1,11.11.13A51.57,51.57,0,0,1,158,188.86c3.38,1.06,6.6,2.38,9.75,3.65S174,195,177.09,196a40.71,40.71,0,0,0,9.27,1.83l.57.05h1.71c.76,0,1.51,0,2.25-.1l1.11-.09c.36,0,.73-.09,1.09-.14.73-.08,1.45-.21,2.16-.33a66.08,66.08,0,0,0,8.09-2.05c2.55-.82,5-1.7,7.28-2.53s4.52-1.62,6.63-2.29,4.13-1.22,6-1.64c1-.23,1.88-.39,2.77-.55s1.75-.28,2.6-.35a34.79,34.79,0,0,1,4.57-.18,26.54,26.54,0,0,1,6.26.87,7.3,7.3,0,0,1,.91.27l.66.22Z"/><path id="Trazado_1133" data-name="Trazado 1133" class="cls-4" d="M200.08,146.14l-.28.25-.85.75c-.39.3-.88.67-1.46,1.09a18,18,0,0,1-2.13,1.32,29.2,29.2,0,0,1-6.36,2.5c-.64.17-1.31.32-2,.47s-1.42.28-2.17.37a44.73,44.73,0,0,1-4.77.44,70.39,70.39,0,0,1-11-.59c-3.92-.47-8.08-1.15-12.48-1.64-2.19-.25-4.46-.44-6.78-.52a69.73,69.73,0,0,0-7.08.18,146.72,146.72,0,0,0-14.77,2c-5,.9-10,1.83-14.73,2.49a114.91,114.91,0,0,1-13.87,1A110.18,110.18,0,0,1,76,153.86a107.66,107.66,0,0,1-15.25-4.42l-2.33-.87-1.68-.71-1-.44-.34-.16.35.14,1,.44,1.69.69,2.33.87a110.06,110.06,0,0,0,38.62,6.65,112.59,112.59,0,0,0,13.85-1c4.78-.66,9.68-1.59,14.72-2.49a141.46,141.46,0,0,1,14.8-2c2.41-.18,4.78-.22,7.11-.17s4.59.27,6.79.52c4.41.5,8.56,1.19,12.47,1.66a70,70,0,0,0,10.92.62,42.06,42.06,0,0,0,4.76-.41c.75-.09,1.46-.24,2.16-.36s1.37-.29,2-.46a29.28,29.28,0,0,0,6.35-2.45c.83-.44,1.52-.88,2.13-1.28s1.08-.78,1.47-1.07l.88-.73A1.54,1.54,0,0,1,200.08,146.14Z"/><path id="Trazado_1134" data-name="Trazado 1134" class="cls-4" d="M242.49,216.29l-.53-.19-1.53-.61c-.33-.14-.72-.24-1.15-.38l-1.4-.44c-.51-.15-1.07-.25-1.66-.4l-.92-.21-1-.16a43.38,43.38,0,0,0-10-.46,74.2,74.2,0,0,0-13.09,2.08c-4.8,1.12-9.93,2.77-15.48,4.44a109.87,109.87,0,0,1-18,4.19,50.56,50.56,0,0,1-10,.34,39.56,39.56,0,0,1-10.21-2.11c-6.74-2.33-13-6.3-19.65-9.71a59.77,59.77,0,0,0-10.24-4.25c-.88-.29-1.76-.47-2.63-.7l-1.32-.26-.66-.13-.67-.1a45.63,45.63,0,0,0-5.36-.5,59.11,59.11,0,0,0-10.38.59,85.48,85.48,0,0,0-9.77,2c-6.3,1.66-12.13,3.75-17.66,5.46a99,99,0,0,1-15.67,3.74,48.27,48.27,0,0,1-13.26,0,34.58,34.58,0,0,1-9.6-2.79,28.27,28.27,0,0,1-5.41-3.3c-1.11-.92-1.67-1.44-1.67-1.44l.44.36c.29.24.7.6,1.26,1a29.59,29.59,0,0,0,5.42,3.27,34.83,34.83,0,0,0,9.6,2.74,47.83,47.83,0,0,0,13.2,0,96.39,96.39,0,0,0,15.63-3.75c5.51-1.73,11.35-3.81,17.66-5.49a86.46,86.46,0,0,1,9.8-2,59.57,59.57,0,0,1,10.42-.6,43.62,43.62,0,0,1,5.35.51l.67.09.66.13,1.34.27c.88.23,1.78.41,2.63.69A60.49,60.49,0,0,1,138,212.47c6.68,3.43,12.92,7.39,19.62,9.71a39.19,39.19,0,0,0,10.15,2.1,50.13,50.13,0,0,0,9.95-.33,112.09,112.09,0,0,0,18-4.16c5.56-1.65,10.69-3.31,15.49-4.43a74.72,74.72,0,0,1,13.13-2,43.6,43.6,0,0,1,10,.5l1,.17.92.22c.59.14,1.15.25,1.66.41l1.4.43a12,12,0,0,1,1.15.4l1.52.62Z"/><path id="Trazado_1135" data-name="Trazado 1135" class="cls-3" d="M226.15,175.76h8.31a8.37,8.37,0,0,1,8.37,8.36h0v22a6,6,0,0,1-6.05,6h-8.31a10.67,10.67,0,0,1-10.67-10.67h0V184.13a8.36,8.36,0,0,1,8.35-8.37Z"/><path id="Trazado_1136" data-name="Trazado 1136" class="cls-3" d="M40.48,175.76h8.31a8.36,8.36,0,0,1,8.36,8.36v28.07H42.8a10.69,10.69,0,0,1-10.68-10.68V184.13a8.36,8.36,0,0,1,8.36-8.37Z"/><path id="Trazado_1137" data-name="Trazado 1137" class="cls-2" d="M58.54,196.45H82.68c14.91,0,35.49.11,58.23.26l82.36.43H199.13c-14.91,0-35.49-.11-58.24-.25Z"/><path id="Trazado_1138" data-name="Trazado 1138" class="cls-2" d="M57.16,228.67a.43.43,0,0,1,0-.16v-.46c0-.42,0-1,0-1.75,0-1.56-.06-3.78-.1-6.52-.09-5.5-.19-13.1-.42-21.49a101.18,101.18,0,0,0-.77-11.78,16.4,16.4,0,0,0-1.49-4.89,9.19,9.19,0,0,0-2.85-3.37,12.65,12.65,0,0,0-5.87-2.58,8.65,8.65,0,0,0-1,0,4.8,4.8,0,0,0-.75.09l-.43.11-.16,0a.47.47,0,0,1,.15-.06l.44-.14c.2,0,.44-.08.75-.1a7,7,0,0,1,1,0,12.56,12.56,0,0,1,6,2.54,9.42,9.42,0,0,1,2.92,3.41,17.2,17.2,0,0,1,1.54,4.94,99.92,99.92,0,0,1,.78,11.82c.23,8.39.3,16,.35,21.49,0,2.74,0,5,0,6.51v2.21a.49.49,0,0,1-.06.17Z"/><path id="Trazado_1139" data-name="Trazado 1139" class="cls-2" d="M44.38,185.32a4.29,4.29,0,0,0-.71.16,3.23,3.23,0,0,0-1.57,1.08,3.2,3.2,0,0,0-.59,1.18,2.8,2.8,0,0,0,.07,1.49,3,3,0,0,0,5.43.6,2.83,2.83,0,0,0,.39-1.44,3.14,3.14,0,0,0-.32-1.28,3.36,3.36,0,0,0-1.31-1.41c-.41-.22-.67-.28-.66-.3l.19,0a2.21,2.21,0,0,1,.51.18,3.34,3.34,0,0,1,1.4,1.41,3.2,3.2,0,0,1,.36,1.35,2.91,2.91,0,0,1-.39,1.55,3.14,3.14,0,0,1-5.81-.64,2.81,2.81,0,0,1,0-1.6,3.27,3.27,0,0,1,2.32-2.3,1.91,1.91,0,0,1,.54-.08A.69.69,0,0,1,44.38,185.32Z"/><path id="Trazado_1140" data-name="Trazado 1140" class="cls-2" d="M42.13,196.53a2,2,0,0,1-.24-.79A4.93,4.93,0,0,1,43,192c.34-.39.6-.57.62-.54a7.37,7.37,0,0,1-.49.65,5.72,5.72,0,0,0-1,3.66A7,7,0,0,1,42.13,196.53Z"/><path id="Trazado_1141" data-name="Trazado 1141" class="cls-2" d="M40.28,190.36c-.06,0,.06-.38.38-.67s.68-.39.69-.33-.25.22-.54.49S40.32,190.39,40.28,190.36Z"/><path id="Trazado_1142" data-name="Trazado 1142" class="cls-2" d="M51.51,190s-.21-.19-.56-.44a3.47,3.47,0,0,0-3.15-.44c-.22.1-.43.18-.65.26a1.58,1.58,0,0,1,.58-.41,3.2,3.2,0,0,1,3.32.46C51.4,189.69,51.53,189.94,51.51,190Z"/><path id="Trazado_1143" data-name="Trazado 1143" class="cls-2" d="M76,145.43a.27.27,0,0,1-.13,0l-.37.05c-.32,0-.81.07-1.43.1-1.25.07-3.07,0-5.29.05a24.49,24.49,0,0,0-7.69,1.12,7.41,7.41,0,0,0-2,1,6,6,0,0,0-1.56,1.7A12.77,12.77,0,0,0,56,154.16c-1,6.72-1.92,12.81-2.58,17.24-.34,2.19-.61,4-.81,5.22-.1.61-.17,1.08-.23,1.42l-.06.37a.56.56,0,0,1,0,.12v-.12c0-.13,0-.25.05-.38l.18-1.42c.18-1.25.44-3,.74-5.23.63-4.42,1.51-10.53,2.52-17.26a13,13,0,0,1,1.54-4.74,6.15,6.15,0,0,1,1.62-1.75,7.86,7.86,0,0,1,2-1.06,24.3,24.3,0,0,1,7.76-1.07c2.23,0,4,.06,5.29,0,.62,0,1.1,0,1.43-.06H76Z"/><path id="Trazado_1144" data-name="Trazado 1144" class="cls-2" d="M223.25,196.21c-.06,0-.74-3.54-1.53-7.92s-1.37-7.95-1.31-8,.75,3.53,1.53,7.92S223.32,196.2,223.25,196.21Z"/><path id="Trazado_1145" data-name="Trazado 1145" class="cls-2" d="M224.13,228.67v-.15a3.7,3.7,0,0,0,0-.47c0-.41,0-1-.07-1.75-.06-1.55-.13-3.76-.22-6.48-.16-5.49-.38-13-.63-21.4,0-.52,0-1,0-1.56s0-1,0-1.53c0-1,0-2,.06-3a56.91,56.91,0,0,1,.44-5.68,25.53,25.53,0,0,1,.49-2.61c.1-.43.24-.82.36-1.22a9.54,9.54,0,0,1,.49-1.14,6.66,6.66,0,0,1,.63-1,9.15,9.15,0,0,1,.77-.88,10.16,10.16,0,0,1,7.89-3,6.71,6.71,0,0,1,1.71.43l.44.2.14.08a7.53,7.53,0,0,0-2.27-.63,9.93,9.93,0,0,0-6.11,1.65,9.28,9.28,0,0,0-2.38,2.2,8,8,0,0,0-.61,1,8.53,8.53,0,0,0-.47,1.12c-.12.39-.26.79-.35,1.2a23.11,23.11,0,0,0-.48,2.59c-.25,1.79-.35,3.69-.44,5.66q0,1.47-.06,3v1.53c0,.52,0,1,0,1.56.22,8.33.44,15.91.56,21.39.06,2.73.12,4.95.15,6.49,0,.75,0,1.34,0,1.75v.46A.48.48,0,0,1,224.13,228.67Z"/><path id="Trazado_1146" data-name="Trazado 1146" class="cls-2" d="M233.58,186.19a4,4,0,0,0-.7.15,3.3,3.3,0,0,0-1.58,1.09,3,3,0,0,0-.59,1.17,2.73,2.73,0,0,0,.07,1.5,3,3,0,0,0,5.43.6,2.74,2.74,0,0,0,.38-1.45,3.17,3.17,0,0,0-.31-1.28,3.3,3.3,0,0,0-1.32-1.4c-.4-.22-.66-.28-.65-.3a.63.63,0,0,1,.19,0,2.23,2.23,0,0,1,.51.19,3.27,3.27,0,0,1,1.75,2.76,2.91,2.91,0,0,1-.39,1.55,3.15,3.15,0,0,1-4.28,1.23,3.11,3.11,0,0,1-1.5-1.87,2.9,2.9,0,0,1-.05-1.6,3.28,3.28,0,0,1,2.32-2.31,2.5,2.5,0,0,1,.54-.07A.55.55,0,0,1,233.58,186.19Z"/><path id="Trazado_1147" data-name="Trazado 1147" class="cls-2" d="M231.33,197.4a1.91,1.91,0,0,1-.24-.79,4.89,4.89,0,0,1,1.07-3.77,2,2,0,0,1,.62-.55,6.14,6.14,0,0,1-.49.65,5.72,5.72,0,0,0-.82,1.75,5.93,5.93,0,0,0-.2,1.92,5.25,5.25,0,0,1,.06.79Z"/><path id="Trazado_1148" data-name="Trazado 1148" class="cls-2" d="M229.46,191.22c-.06,0,.06-.37.38-.67s.68-.39.69-.33-.25.23-.54.5S229.52,191.25,229.46,191.22Z"/><path id="Trazado_1149" data-name="Trazado 1149" class="cls-2" d="M240.7,190.81s-.2-.18-.55-.44a3.64,3.64,0,0,0-1.53-.6,3.6,3.6,0,0,0-1.63.16c-.21.1-.43.19-.65.27a1.87,1.87,0,0,1,.59-.42,3.2,3.2,0,0,1,3.32.47C240.59,190.55,240.72,190.8,240.7,190.81Z"/></g><g id="freepik--Plant--inject-84"><path id="Trazado_1150" data-name="Trazado 1150" class="cls-5" d="M257.93,186.49a28.21,28.21,0,0,1,26.92-7.39,49,49,0,0,1-27.24,8.52"/><path id="Trazado_1151" data-name="Trazado 1151" class="cls-5" d="M267.06,154.16A27.36,27.36,0,0,1,275,131.53c.2,7.86-3.12,16.71-7.89,22.63"/><path id="Trazado_1152" data-name="Trazado 1152" class="cls-5" d="M262.31,169.14a42.42,42.42,0,0,1,19.46-18.59,26.76,26.76,0,0,1-19.53,18.68"/><path id="Trazado_1153" data-name="Trazado 1153" class="cls-5" d="M261.33,172a49.88,49.88,0,0,0,14.27-1.27,23.66,23.66,0,0,0,12.16-7.25,47.69,47.69,0,0,0-26.36,8"/><path id="Trazado_1154" data-name="Trazado 1154" class="cls-5" d="M263.76,162.51c-2.43-9.11-6.45-15.42-13.59-20.53a19,19,0,0,0,13.59,20.53"/><path id="Trazado_1155" data-name="Trazado 1155" class="cls-5" d="M245.67,178.23a13.52,13.52,0,0,1,8.2-12.5c-.4,4.71-4.09,10.16-8.2,12.5"/><path id="Trazado_1156" data-name="Trazado 1156" class="cls-5" d="M243.38,170.54a20.13,20.13,0,0,0-13.15-17.15c1.65,7.62,6.06,14,13.15,17.15"/><path id="Trazado_1157" data-name="Trazado 1157" class="cls-5" d="M246.82,184.17a12.69,12.69,0,0,0-7.31-4.67,38,38,0,0,0-8.77-.88,20.55,20.55,0,0,0,15.87,6.61"/><path id="Trazado_1158" data-name="Trazado 1158" class="cls-5" d="M250.26,203.62a22.49,22.49,0,0,0-27.47,13,58.83,58.83,0,0,0,27.47-13"/><path id="Trazado_1159" data-name="Trazado 1159" class="cls-5" d="M261.21,196.89c-1.66,4.89-1.34,10.82,2.35,15a18,18,0,0,0-2.35-15"/><path id="Trazado_1160" data-name="Trazado 1160" class="cls-5" d="M267.68,194.14a18.43,18.43,0,0,0,10.19,15,1.14,1.14,0,0,0,.9.15c.44-.19.49-.8.44-1.28-.72-6.28-5.38-12.35-11.52-13.83"/><path id="Trazado_1161" data-name="Trazado 1161" class="cls-5" d="M271.92,193.5a15.11,15.11,0,0,0,21.35.84l.73-.73c-7-.76-15.12-1.28-22.08-.11"/><path id="Trazado_1162" data-name="Trazado 1162" class="cls-2" d="M273,137.38a.83.83,0,0,1-.06.21l-.21.59c-.2.54-.48,1.32-.85,2.27s-.81,2.2-1.31,3.61c-.26.7-.53,1.46-.82,2.25s-.57,1.65-.88,2.54c-1.24,3.56-2.63,7.82-4.11,12.58s-3,10-4.52,15.56-2.81,10.86-3.95,15.71-2,9.24-2.71,13l-.5,2.63c-.14.83-.28,1.62-.41,2.36-.25,1.47-.46,2.75-.61,3.78s-.28,1.84-.37,2.4c0,.27-.08.47-.1.63a1.6,1.6,0,0,1-.05.21v-.22c0-.15.05-.36.08-.63.07-.56.18-1.36.32-2.4s.33-2.32.57-3.8c.12-.73.25-1.53.38-2.37s.31-1.71.48-2.63c.66-3.71,1.58-8.1,2.66-13s2.43-10.18,3.92-15.73,3.07-10.81,4.54-15.56,2.91-9,4.17-12.57c.32-.88.61-1.72.88-2.53s.55-1.56.84-2.25c.52-1.41,1-2.63,1.36-3.59l.87-2.25c.11-.25.18-.44.25-.59A1.43,1.43,0,0,1,273,137.38Z"/><path id="Trazado_1163" data-name="Trazado 1163" class="cls-2" d="M234.4,157.46a.43.43,0,0,1,.12.11l.34.36c.29.31.72.78,1.25,1.39a50.4,50.4,0,0,1,4.13,5.51,37.33,37.33,0,0,1,4.32,9.25,90,90,0,0,1,2.59,12.24c1.43,8.77,3.18,16.59,4.45,22.26l1.52,6.72c.18.78.31,1.39.41,1.83,0,.19.07.35.1.48a.78.78,0,0,1,0,.16,1,1,0,0,1-.05-.16c0-.12-.08-.28-.12-.47-.11-.44-.27-1-.44-1.82-.38-1.6-.93-3.88-1.6-6.69-1.32-5.66-3.1-13.5-4.53-22.26a92,92,0,0,0-2.57-12.21A37.54,37.54,0,0,0,240.1,165a54.94,54.94,0,0,0-4-5.54c-.52-.63-.93-1.11-1.21-1.43l-.32-.37A.79.79,0,0,1,234.4,157.46Z"/><path id="Trazado_1164" data-name="Trazado 1164" class="cls-2" d="M274,193.21a1,1,0,0,1-.25,0l-.73.09-.52,0-.62.1c-.44.07-1,.13-1.51.25l-.88.17-.93.24c-.65.15-1.32.39-2,.6a29.91,29.91,0,0,0-4.45,2,24.84,24.84,0,0,0-4,2.77,17.7,17.7,0,0,0-1.53,1.47,15.84,15.84,0,0,0-1.21,1.39,13.27,13.27,0,0,0-.88,1.24,8.27,8.27,0,0,0-.61,1l-.38.64a1,1,0,0,1-.15.2,1,1,0,0,1,.11-.23l.32-.66a9,9,0,0,1,.58-1,12.47,12.47,0,0,1,.88-1.27,16.35,16.35,0,0,1,1.2-1.44c.48-.52,1-1,1.52-1.5a25,25,0,0,1,4-2.82,28.45,28.45,0,0,1,4.5-2c.72-.22,1.4-.44,2.06-.58l1-.23.87-.16c.56-.1,1.07-.16,1.53-.21l.62-.08.53,0,.73,0A.7.7,0,0,1,274,193.21Z"/><path id="Trazado_1165" data-name="Trazado 1165" class="cls-2" d="M276,157.63a3.39,3.39,0,0,1-.51.49l-1.44,1.25c-1.23,1-2.94,2.48-4.82,4.06s-3.63,3-4.89,4l-1.5,1.19a2.91,2.91,0,0,1-.57.4,3.39,3.39,0,0,1,.51-.49l1.44-1.25c1.23-1.05,2.94-2.48,4.83-4.06s3.62-3,4.88-4l1.5-1.19A3.3,3.3,0,0,1,276,157.63Z"/><path id="Trazado_1166" data-name="Trazado 1166" class="cls-2" d="M277.74,166.92c0,.07-3.67,1.22-8.24,2.57s-8.29,2.38-8.33,2.31,3.67-1.22,8.24-2.57S277.72,166.84,277.74,166.92Z"/><path id="Trazado_1167" data-name="Trazado 1167" class="cls-2" d="M264.12,163.22a2.8,2.8,0,0,1-.37-.53c-.27-.39-.59-.88-1-1.48-.82-1.25-2-3-3.38-4.76s-2.71-3.39-3.7-4.51l-1.17-1.32a2.5,2.5,0,0,1-.4-.51,3.34,3.34,0,0,1,.48.44c.3.29.72.73,1.24,1.28,1,1.09,2.38,2.66,3.77,4.48a57.68,57.68,0,0,1,3.32,4.82c.4.64.7,1.16.91,1.53A2.67,2.67,0,0,1,264.12,163.22Z"/><path id="Trazado_1168" data-name="Trazado 1168" class="cls-2" d="M251.32,168.38a12,12,0,0,1-.87,1.42c-.56.88-1.32,2.07-2.08,3.43s-1.42,2.63-1.89,3.54a10.34,10.34,0,0,1-.78,1.47,9.52,9.52,0,0,1,.61-1.56c.44-.93,1.05-2.21,1.83-3.58s1.55-2.56,2.15-3.4A9.36,9.36,0,0,1,251.32,168.38Z"/><path id="Trazado_1169" data-name="Trazado 1169" class="cls-2" d="M246.94,184.44c-.63-.25-1.26-.52-1.87-.83-1.15-.51-2.76-1.19-4.57-1.83s-3.51-1.1-4.72-1.42-2-.48-2-.52a1.72,1.72,0,0,1,.55.06c.35,0,.85.14,1.47.27a40.53,40.53,0,0,1,4.76,1.37,39.71,39.71,0,0,1,4.57,1.91c.57.28,1,.52,1.32.7A2.29,2.29,0,0,1,246.94,184.44Z"/><path id="Trazado_1170" data-name="Trazado 1170" class="cls-2" d="M250.39,203.64a.58.58,0,0,1-.22.08l-.67.17-2.45.57a79.3,79.3,0,0,0-8,2.11,35,35,0,0,0-7.45,3.51c-.88.57-1.59,1.07-2.06,1.43a6.76,6.76,0,0,1-.74.55c.05-.07.11-.12.16-.18a5.49,5.49,0,0,1,.52-.44,19.93,19.93,0,0,1,2-1.5,32.47,32.47,0,0,1,7.48-3.61,67.48,67.48,0,0,1,8.06-2.05l2.47-.48A8.72,8.72,0,0,1,250.39,203.64Z"/><path id="Trazado_1171" data-name="Trazado 1171" class="cls-2" d="M262.86,208.38c-.07,0-.51-2.57-1-5.78s-.79-5.8-.72-5.81.52,2.57,1,5.77S262.94,208.37,262.86,208.38Z"/><path id="Trazado_1172" data-name="Trazado 1172" class="cls-2" d="M275.84,203.66a13,13,0,0,1-1.17-1.39c-.7-.88-1.67-2.07-2.77-3.38s-2.12-2.48-2.86-3.32a12.75,12.75,0,0,1-1.16-1.39,2.74,2.74,0,0,1,.36.32c.23.22.55.54.94.94.78.81,1.82,2,2.92,3.28s2.06,2.53,2.72,3.44c.33.44.6.82.77,1.08A1.79,1.79,0,0,1,275.84,203.66Z"/><path id="Trazado_1173" data-name="Trazado 1173" class="cls-2" d="M241.49,215.71v6.41h1.6l5.7,18h12.64L267,222.3l2.14-.18v-6.41Z"/><path id="Trazado_1174" data-name="Trazado 1174" class="cls-3" d="M268,222.32c0,.07-5.58.14-12.47.14s-12.47-.06-12.47-.14,5.58-.13,12.47-.13S268,222.22,268,222.32Z"/><path id="Trazado_1175" data-name="Trazado 1175" class="cls-2" d="M277.12,181a5.36,5.36,0,0,1-.81.22l-2.21.53c-1.88.46-4.44,1.17-7.23,2.1s-5.26,1.93-7,2.7l-2.09.91a4.59,4.59,0,0,1-.77.31,6.44,6.44,0,0,1,.73-.4c.48-.25,1.18-.6,2.06-1a72.56,72.56,0,0,1,14.29-4.8c.94-.21,1.71-.36,2.24-.44A4.41,4.41,0,0,1,277.12,181Z"/><path id="Trazado_1176" data-name="Trazado 1176" class="cls-6" d="M263.83,232.29c0,.08-3.92.14-8.74.14s-8.77-.06-8.77-.14,3.91-.13,8.77-.13S263.83,232.22,263.83,232.29Z"/><path id="Trazado_1177" data-name="Trazado 1177" class="cls-6" d="M264.33,230.8c0,.08-4.16.14-9.28.14s-9.27-.06-9.27-.14,4.15-.14,9.27-.14S264.33,230.73,264.33,230.8Z"/></g><g id="freepik--character-2--inject-84"><path id="Trazado_1178" data-name="Trazado 1178" class="cls-2" d="M164.93,157.81a1.58,1.58,0,0,1,.79-1.42,3.83,3.83,0,0,1,1.56-.54,2.08,2.08,0,0,1,.61,0,.38.38,0,0,1,.33.27l-.8.36c-.92.44-1.52.82-2.49,1.31"/><path id="Trazado_1179" data-name="Trazado 1179" class="cls-2" d="M175.28,155a2.19,2.19,0,0,0-3.1-.05,2.31,2.31,0,0,0-.34.42Z"/><path id="Trazado_1180" data-name="Trazado 1180" class="cls-2" d="M180.16,156.9a1.94,1.94,0,0,0-.63-.94.84.84,0,0,0-1,0,.9.9,0,0,0-.72.95,1.94,1.94,0,0,0,.34.87.52.52,0,0,0,.16.17.42.42,0,0,0,.36-.06l1.39-.72a.16.16,0,0,0,.11-.21.14.14,0,0,0,0-.06Z"/><path id="Trazado_1181" data-name="Trazado 1181" class="cls-2" d="M166.48,158.92a1.38,1.38,0,0,0-1,0,1.43,1.43,0,0,0-.67.34l1,.24,1.26.33A1,1,0,0,0,166.48,158.92Z"/><path id="Trazado_1182" data-name="Trazado 1182" class="cls-5" d="M160.22,136.1s-12.3,4.94-15.14,12.36c-1.73,4.53.17,17.38.17,17.38l1.61-.44,3.38,17,24.66,3.8,15.84-6.91-5.58-24.09,9.77-.62s-7.53-15.94-12.52-17.78c-2.19-.8-6.73-1.31-10.74-1.19a45.91,45.91,0,0,0-7,.63Z"/><g id="Grupo_66" data-name="Grupo 66" class="cls-7"><path id="Trazado_1183" data-name="Trazado 1183" d="M157.36,180.66c2.19-.14,4-1.83,5.29-3.6s2.39-3.79,4.14-5.12,3.69-1.75,5.41-2.87c1-.66,1.9-1.51,3-2.12a4.08,4.08,0,0,1,3.48-.52c.8.32,1.44,1,2.28,1.2,1.1.25,2.16-.43,3.25-.67a4.16,4.16,0,0,1,4.13,1.83l-1.44-6.26a11.49,11.49,0,0,0-3.56-1.94A20.85,20.85,0,0,0,164,162.68a17.24,17.24,0,0,0-5.91,6.74,12.82,12.82,0,0,0-.87,8.83"/></g><path id="Trazado_1184" data-name="Trazado 1184" class="cls-2" d="M156.77,162.45a12.51,12.51,0,0,1-.33-1.5c-.17-.93-.39-2.22-.62-3.64s-.44-2.72-.56-3.66a11,11,0,0,1-.17-1.52,9.55,9.55,0,0,1,.33,1.5c.17.93.4,2.22.63,3.64s.43,2.72.56,3.66A9.68,9.68,0,0,1,156.77,162.45Z"/><path id="Trazado_1185" data-name="Trazado 1185" class="cls-2" d="M182,144.83a37.53,37.53,0,0,1,1,4,38.05,38.05,0,0,1,.8,4.1,40,40,0,0,1-1-4A40.69,40.69,0,0,1,182,144.83Z"/><path id="Trazado_1186" data-name="Trazado 1186" class="cls-2" d="M185.64,172.77a.81.81,0,0,1-.16.16l-.5.44c-.22.19-.49.42-.82.66s-.69.55-1.12.84-.88.62-1.41.94-1.08.65-1.67,1a36.07,36.07,0,0,1-4,1.88,38,38,0,0,1-4.26,1.31c-.67.15-1.32.3-1.91.39s-1.16.18-1.67.24-1,.1-1.4.14-.76.05-1.05.05h-.9l.24,0,.66-.05a8.93,8.93,0,0,0,1-.09c.41,0,.88-.08,1.38-.17s1.07-.15,1.67-.27l1.89-.4a34.87,34.87,0,0,0,8.25-3.18c.6-.33,1.17-.64,1.67-1s1-.63,1.42-.92.8-.56,1.14-.8.61-.44.83-.63l.53-.41A1,1,0,0,1,185.64,172.77Z"/><path id="Trazado_1187" data-name="Trazado 1187" class="cls-2" d="M179.38,168.44a2.84,2.84,0,0,1-.25.53c-.1.2-.22.4-.34.59s-.29.49-.49.77a18.66,18.66,0,0,1-1.46,1.86,19.77,19.77,0,0,1-2.11,2,19.34,19.34,0,0,1-2.38,1.64,19,19,0,0,1-2.13,1,6.84,6.84,0,0,1-.84.31,4.2,4.2,0,0,1-.66.21,2.19,2.19,0,0,1-.56.14s.78-.27,2-.8a22.66,22.66,0,0,0,2.08-1.07,19.43,19.43,0,0,0,4.44-3.59,21.5,21.5,0,0,0,1.49-1.82C179,169.15,179.34,168.42,179.38,168.44Z"/><path id="Trazado_1188" data-name="Trazado 1188" class="cls-5" d="M205.21,229.13l2.44,16.71c.16,1,1,2.29,2.28,2.17l18.86-3.13s.94-1.8-10.68-3.42L216,227.29Z"/><g id="Grupo_67" data-name="Grupo 67" class="cls-8"><path id="Trazado_1189" data-name="Trazado 1189" class="cls-9" d="M205.21,229.13l2.44,16.71c.16,1,1,2.29,2.28,2.17l18.86-3.13s.94-1.8-10.68-3.42L216,227.29Z"/></g><path id="Trazado_1190" data-name="Trazado 1190" class="cls-9" d="M223.58,242.42a6.08,6.08,0,0,0-.64,1.64,7.41,7.41,0,0,0,.11,1.76,1.27,1.27,0,0,1-.19-.5,3.22,3.22,0,0,1-.08-1.31,2.93,2.93,0,0,1,.43-1.21A1.34,1.34,0,0,1,223.58,242.42Z"/><path id="Trazado_1191" data-name="Trazado 1191" class="cls-9" d="M207.64,244.64a.53.53,0,0,1,.15-.26,1.42,1.42,0,0,1,.73-.44,3.45,3.45,0,0,1,1.24,0,6.34,6.34,0,0,1,1.49.35,3.92,3.92,0,0,1,1.31.8,3.09,3.09,0,0,1,.72,1,2.24,2.24,0,0,1,.19.82.76.76,0,0,1,0,.3,3.45,3.45,0,0,0-.28-1.08,3.15,3.15,0,0,0-.71-1,3.86,3.86,0,0,0-1.26-.76,6.44,6.44,0,0,0-1.44-.35,3.45,3.45,0,0,0-1.2,0,1.5,1.5,0,0,0-.71.36A2.39,2.39,0,0,0,207.64,244.64Z"/><path id="Trazado_1192" data-name="Trazado 1192" class="cls-9" d="M217.49,236.54a2.78,2.78,0,0,1-.4.16l-1.09.36c-.93.3-2.23.69-3.66,1.09s-2.75.73-3.7.95l-1.13.25a2.13,2.13,0,0,1-.44.07,2,2,0,0,1,.41-.14l1.11-.3,3.69-1,3.67-1,1.11-.32A1.57,1.57,0,0,1,217.49,236.54Z"/><path id="Trazado_1193" data-name="Trazado 1193" class="cls-5" d="M168.41,217.93l6.53,15.57a2.35,2.35,0,0,1-.84,3l-17.76,7.05s-1.74-1.07,7.38-8.45l-5.48-13.23Z"/><g id="Grupo_68" data-name="Grupo 68" class="cls-8"><path id="Trazado_1194" data-name="Trazado 1194" class="cls-9" d="M168.41,217.93l6.53,15.57a2.35,2.35,0,0,1-.84,3l-17.76,7.05s-1.74-1.07,7.38-8.45l-5.48-13.23Z"/></g><path id="Trazado_1195" data-name="Trazado 1195" class="cls-9" d="M159.52,238.79a5.89,5.89,0,0,1,1.4,1.08,7.64,7.64,0,0,1,.82,1.58,1.55,1.55,0,0,0-.09-.53,3.51,3.51,0,0,0-.6-1.15,3.21,3.21,0,0,0-1-.81A1.34,1.34,0,0,0,159.52,238.79Z"/><path id="Trazado_1196" data-name="Trazado 1196" class="cls-9" d="M174.34,232.47a.63.63,0,0,0-.27-.16,1.5,1.5,0,0,0-.84,0,3.46,3.46,0,0,0-1.09.62,6.08,6.08,0,0,0-1.09,1.06,3.67,3.67,0,0,0-.7,1.36,2.89,2.89,0,0,0-.09,1.24,2,2,0,0,0,.26.8.68.68,0,0,0,.18.26,3.15,3.15,0,0,1-.32-1.07,3.2,3.2,0,0,1,.11-1.19,4,4,0,0,1,.69-1.31,6.13,6.13,0,0,1,1.06-1,3.48,3.48,0,0,1,1-.63,1.52,1.52,0,0,1,.79-.06A2,2,0,0,1,174.34,232.47Z"/><path id="Trazado_1197" data-name="Trazado 1197" class="cls-2" d="M171.83,184.47s-11.25-3.58-15-3.89-10.13-.88-12.28,2.76c-1.64,2.74-2.58,5.46-1.27,9.4,1.24,3.71,13.77,33,13.77,33l14.8-2.57L164,196.62l11.4-.83c1.35-.1,20.49,2.69,20.49,2.69l8.9,38.63,14.68-1.49s-5.16-45.29-6.82-50.1c-1.08-3.11-6.18-6.78-11.18-7.09a49.79,49.79,0,0,0-10.7.81l-18.25,5.23"/><path id="Trazado_1198" data-name="Trazado 1198" class="cls-3" d="M195.67,187a5.93,5.93,0,0,0-.79,1.69,6.7,6.7,0,0,0-.2,2,16,16,0,0,0,.34,2.47c.35,1.75.66,3.32.87,4.47.1.54.18,1,.24,1.36a2.22,2.22,0,0,1,.06.51,1.71,1.71,0,0,1-.14-.49l-.32-1.35c-.25-1.14-.58-2.72-.93-4.46a15.13,15.13,0,0,1-.33-2.51,6.79,6.79,0,0,1,.26-2,4.15,4.15,0,0,1,.61-1.25A1.55,1.55,0,0,1,195.67,187Z"/><path id="Trazado_1199" data-name="Trazado 1199" class="cls-3" d="M192,191.21a11.22,11.22,0,0,1,.36,1.12,17.12,17.12,0,0,0,1,2.59,18.24,18.24,0,0,0,1.47,2.39,10.17,10.17,0,0,1,.68.94,4,4,0,0,1-.81-.84,13.36,13.36,0,0,1-2.55-5A4.63,4.63,0,0,1,192,191.21Z"/><path id="Trazado_1200" data-name="Trazado 1200" class="cls-3" d="M175.16,193.75a5.11,5.11,0,0,1-.49-1c-.28-.61-.62-1.47-.95-2.43s-.59-1.85-.75-2.5a4.86,4.86,0,0,1-.21-1.06,4.5,4.5,0,0,1,.36,1c.2.64.48,1.51.81,2.47s.65,1.82.88,2.44A5.21,5.21,0,0,1,175.16,193.75Z"/><path id="Trazado_1201" data-name="Trazado 1201" class="cls-3" d="M179.05,185.48a9.49,9.49,0,0,1-.63,1,12.22,12.22,0,0,0-1.75,5.38,10.63,10.63,0,0,1-.09,1.18,4,4,0,0,1-.07-1.19,10.36,10.36,0,0,1,1.75-5.45A4.15,4.15,0,0,1,179.05,185.48Z"/><path id="Trazado_1202" data-name="Trazado 1202" class="cls-3" d="M170.27,190.48a11.84,11.84,0,0,0-5.42-4.91,3.91,3.91,0,0,1,1,.37,9.11,9.11,0,0,1,2.19,1.49,9.28,9.28,0,0,1,1.7,2,3.69,3.69,0,0,1,.48,1Z"/><path id="Trazado_1203" data-name="Trazado 1203" class="cls-3" d="M160.25,188.32a8,8,0,0,1,.77,1.15,31.14,31.14,0,0,1,1.58,3,32.21,32.21,0,0,1,1.25,3.12,7.59,7.59,0,0,1,.37,1.34,12,12,0,0,1-.53-1.29c-.3-.79-.75-1.89-1.31-3.06s-1.07-2.23-1.51-3A7.87,7.87,0,0,1,160.25,188.32Z"/><path id="Trazado_1204" data-name="Trazado 1204" class="cls-3" d="M163.35,190.72a3,3,0,0,1,.36.87,11,11,0,0,1,.43,2.19,10.67,10.67,0,0,1,0,2.26,2.59,2.59,0,0,1-.17.92c-.07,0,.13-1.42-.06-3.15S163.28,190.75,163.35,190.72Z"/><path id="Trazado_1205" data-name="Trazado 1205" class="cls-3" d="M167.76,156.23s-4.7.2-4.7,2.82,1.81,8.4,4.23,7.25,1.34-4.62,3.23-5,5.91-1.08,6.44-.28,1.82,4.44,3.51,3,.74-8.67,0-9.07S173.4,154.75,167.76,156.23Z"/><path id="Trazado_1206" data-name="Trazado 1206" class="cls-2" d="M178.41,160.46a3.73,3.73,0,0,1-.12-.58,5.3,5.3,0,0,0-.5-1.5,1.85,1.85,0,0,0-1.91-1,7.75,7.75,0,0,0-1.35.3c-.47.14-1,.27-1.47.37a16.9,16.9,0,0,1-2.92.37,9.7,9.7,0,0,0-2.34.2,2,2,0,0,0-1.21.93,2.45,2.45,0,0,0-.18.54.38.38,0,0,1,0-.15,1.36,1.36,0,0,1,.11-.44,2,2,0,0,1,1.23-1,9.16,9.16,0,0,1,2.39-.25,18.62,18.62,0,0,0,2.88-.38c.5-.11,1-.23,1.45-.37a8.52,8.52,0,0,1,1.4-.3,2.22,2.22,0,0,1,1.29.27,2,2,0,0,1,.77.84,4.49,4.49,0,0,1,.44,1.56A2,2,0,0,1,178.41,160.46Z"/><path id="Trazado_1207" data-name="Trazado 1207" class="cls-2" d="M176.22,154.81s-.18-.14-.48-.32a2,2,0,0,0-2.48.26c-.25.24-.36.44-.39.42s0-.24.27-.53a2,2,0,0,1,2.69-.28C176.13,154.58,176.24,154.79,176.22,154.81Z"/><path id="Trazado_1208" data-name="Trazado 1208" class="cls-2" d="M180.46,155.16a20.54,20.54,0,0,0-2,.92,18.14,18.14,0,0,0-1.72,1.31,5.28,5.28,0,0,1,3.68-2.23Z"/><path id="Trazado_1209" data-name="Trazado 1209" class="cls-10" d="M169.15,161.94s.22-.28-.07-1.17-5.61-1.81-5.61-1.81a14.81,14.81,0,0,1,4.52-2.73s0-.47-1.59-.58-4.28,1.66-5.42,2.27-4.87,4.72-4.87,4.72l-9.24,2.41,2.66,15.61a25.44,25.44,0,0,1,7.29-.08c.73.12,2.32-10.79,2.32-10.79a1.87,1.87,0,0,0,2,.54c1.14-.41,3.62-4.61,3.62-4.61l2.49.24c1.56-.82,1.4-1.86,1.4-1.86C170.81,163.38,169.15,161.94,169.15,161.94Z"/><path id="Trazado_1210" data-name="Trazado 1210" class="cls-11" d="M164.93,159.24a3.75,3.75,0,0,1-.94-.09,11.37,11.37,0,0,0-2.25-.17,3.39,3.39,0,0,0-1.15.38,7.86,7.86,0,0,0-.87.54,8.39,8.39,0,0,1-.77.56,2.59,2.59,0,0,1,.67-.69,5.78,5.78,0,0,1,.87-.59,3.19,3.19,0,0,1,1.23-.44,9,9,0,0,1,2.3.24A4.11,4.11,0,0,1,164.93,159.24Z"/><path id="Trazado_1211" data-name="Trazado 1211" class="cls-11" d="M161.51,162a3.68,3.68,0,0,1,.86-.81,3.46,3.46,0,0,1,.52-.32,2.65,2.65,0,0,1,.69-.15,7.5,7.5,0,0,1,1.57.05,11.36,11.36,0,0,1,2.75.71,4.11,4.11,0,0,1,1,.52,10.35,10.35,0,0,1-1.11-.37,14.13,14.13,0,0,0-2.72-.63,3.6,3.6,0,0,0-2.66.32C161.87,161.67,161.54,162,161.51,162Z"/><path id="Trazado_1212" data-name="Trazado 1212" class="cls-11" d="M162,164.52a5,5,0,0,1,.57-.91,2.27,2.27,0,0,1,1-.71,2.39,2.39,0,0,1,1.45-.07,13.32,13.32,0,0,1,2.48.73,2.78,2.78,0,0,1,.93.53s-.37-.17-1-.38a20.74,20.74,0,0,0-2.46-.66,2.27,2.27,0,0,0-1.34,0,2.36,2.36,0,0,0-.91.61A4.92,4.92,0,0,1,162,164.52Z"/><path id="Trazado_1213" data-name="Trazado 1213" class="cls-11" d="M157.23,161.48a2,2,0,0,1-.32.44L156,163c-.76,1-1.8,2.27-2.87,3.8s-1.95,2.95-2.58,4l-.73,1.24a2.08,2.08,0,0,1-.3.43,2.62,2.62,0,0,1,.22-.48c.15-.31.38-.75.67-1.28q1.17-2.08,2.53-4.05c1.07-1.53,2.14-2.85,2.93-3.77.4-.46.73-.83,1-1.07A2.28,2.28,0,0,1,157.23,161.48Z"/><path id="Trazado_1214" data-name="Trazado 1214" class="cls-11" d="M164.54,158.1c0,.05-.32-.2-.38-.64s.16-.76.22-.72,0,.33,0,.69S164.6,158.06,164.54,158.1Z"/><path id="Trazado_1215" data-name="Trazado 1215" class="cls-10" d="M183.42,163.8c.09.44-.53,4.74,2.68,7.24s5.18,4.55,7.06,3.21,3.57-5.36,2.86-8.22-5-11.17-5-11.17l-8.15.31Z"/><path id="Trazado_1216" data-name="Trazado 1216" class="cls-10" d="M172.23,155.34s.16-3,1.25-3.27a3.29,3.29,0,0,1,2.84.44,9.23,9.23,0,0,0,2.51.82s4.6-.2,5,.31,2.79,4.16,2.79,4.16l-1.26,5.41a6.55,6.55,0,0,1-3.38,1.37c-2.19.27-4.1.27-4.1-.93,0,0-1.64-.9-1.64-1.71,0,0-2.07.51-2.24-.67s4.1-1.67,4.1-1.67-.77-.7,0-1.28a17.3,17.3,0,0,1,2.84-1.46s.12-1.54-.54-1.94C179.41,154.35,172.23,155.34,172.23,155.34Z"/><path id="Trazado_1217" data-name="Trazado 1217" class="cls-11" d="M184.32,156.67a2.21,2.21,0,0,1-.58.91,5.64,5.64,0,0,1-2.19,1.4,11,11,0,0,1-2.53.54,4.77,4.77,0,0,1-1.07,0,4.66,4.66,0,0,1,1.05-.21,14.09,14.09,0,0,0,2.47-.59,6,6,0,0,0,2.14-1.32A8.76,8.76,0,0,0,184.32,156.67Z"/><path id="Trazado_1218" data-name="Trazado 1218" class="cls-11" d="M182.87,160.34a2.48,2.48,0,0,1-.81.66,6.78,6.78,0,0,1-2.38.88,14.11,14.11,0,0,1-2.52.17,4.09,4.09,0,0,1-1-.08,5.21,5.21,0,0,1,1-.08,20.59,20.59,0,0,0,2.48-.23,8,8,0,0,0,2.34-.78C182.54,160.57,182.85,160.31,182.87,160.34Z"/><path id="Trazado_1219" data-name="Trazado 1219" class="cls-11" d="M182.85,162.35a1.76,1.76,0,0,1-.61.44,5.87,5.87,0,0,1-1.72.6,12.35,12.35,0,0,1-1.81.19,2.61,2.61,0,0,1-.74,0c0-.08,1.14-.13,2.52-.38a8,8,0,0,0,1.7-.53A3.93,3.93,0,0,1,182.85,162.35Z"/><path id="Trazado_1220" data-name="Trazado 1220" class="cls-11" d="M181.86,155.49c.07,0,0,.44-.32.84s-.7.58-.73.53.26-.3.54-.67S181.81,155.47,181.86,155.49Z"/><path id="Trazado_1221" data-name="Trazado 1221" class="cls-11" d="M175.58,153.21a1,1,0,0,1,.25.94c-.06.58-.43.91-.48.85a8.7,8.7,0,0,0,.26-.87C175.68,153.63,175.51,153.24,175.58,153.21Z"/><path id="Trazado_1222" data-name="Trazado 1222" class="cls-11" d="M176.16,154.93c0,.06-.19.07-.37,0s-.26-.28-.21-.32.18,0,.33.12S176.18,154.87,176.16,154.93Z"/><path id="Trazado_1223" data-name="Trazado 1223" class="cls-11" d="M185.3,155.8a1.6,1.6,0,0,1,.25.37,6.55,6.55,0,0,1,.53,1.1,3.48,3.48,0,0,1,.17.84,3.23,3.23,0,0,1-.09,1,1.29,1.29,0,0,0,0,.48c.05.17.11.34.17.5a1.36,1.36,0,0,1,.07.6,2.26,2.26,0,0,1-.16.58,6.7,6.7,0,0,1-1,2,3.72,3.72,0,0,1-1.51,1,5.44,5.44,0,0,1-1.19.29,1.62,1.62,0,0,1-.44,0,14.84,14.84,0,0,0,1.58-.44,3.82,3.82,0,0,0,1.41-1,7,7,0,0,0,1-1.93,1.36,1.36,0,0,0,.08-1c-.05-.18-.12-.35-.16-.54a1.28,1.28,0,0,1,0-.55,4.15,4.15,0,0,0,.11-.93,4.32,4.32,0,0,0-.14-.8,9,9,0,0,0-.44-1.12A1.84,1.84,0,0,1,185.3,155.8Z"/><path id="Trazado_1224" data-name="Trazado 1224" class="cls-11" d="M185.64,156.61a2.53,2.53,0,0,1,.37.36l1,1.05,1.37,1.56c.53.59,1.07,1.27,1.7,1.9a6.71,6.71,0,0,0,2.12,1.33,6.05,6.05,0,0,1,1.8,1.1,2.63,2.63,0,0,1,.76,1.2,2.6,2.6,0,0,1,0,.39v.13a1.46,1.46,0,0,0-.12-.5,2.61,2.61,0,0,0-.78-1.1,6.33,6.33,0,0,0-1.78-1,11.61,11.61,0,0,1-1.12-.55,5.63,5.63,0,0,1-1.07-.82c-.65-.65-1.18-1.31-1.7-1.92l-1.34-1.6c-.35-.44-.65-.79-.88-1.09A2.65,2.65,0,0,1,185.64,156.61Z"/><path id="Trazado_1225" data-name="Trazado 1225" class="cls-10" d="M157,119.76l3.26,19.73a6.06,6.06,0,0,0,6.58,5h0a6.06,6.06,0,0,0,5.43-6.54l-.32-3.76s4.77-1.17,4.41-6c-.17-2.33-.92-7.1-1.65-11.4a9.07,9.07,0,0,0-10.16-7.48h0A9,9,0,0,0,157,119.52a2,2,0,0,1,0,.24Z"/><path id="Trazado_1226" data-name="Trazado 1226" class="cls-11" d="M172,134.25a11.21,11.21,0,0,1-6.45-1.24s1.79,3.35,6.58,2.49Z"/><path id="Trazado_1227" data-name="Trazado 1227" class="cls-2" d="M173.59,120.61a.71.71,0,0,1-.61.76.67.67,0,0,1-.76-.55v0a.7.7,0,0,1,.6-.75.67.67,0,0,1,.77.55h0Z"/><path id="Trazado_1228" data-name="Trazado 1228" class="cls-2" d="M173.92,119.33c-.08.1-.64-.24-1.38-.18s-1.25.49-1.34.4,0-.2.25-.39a1.85,1.85,0,0,1,1.07-.44,1.78,1.78,0,0,1,1.1.25C173.87,119.13,174,119.27,173.92,119.33Z"/><path id="Trazado_1229" data-name="Trazado 1229" class="cls-2" d="M166.32,121.55a.69.69,0,0,1-.6.75.68.68,0,0,1-.77-.55h0a.71.71,0,0,1,.61-.76.67.67,0,0,1,.76.55v0Z"/><path id="Trazado_1230" data-name="Trazado 1230" class="cls-2" d="M166.63,120.1c-.08.1-.63-.24-1.38-.18s-1.25.49-1.34.41,0-.21.25-.4a1.92,1.92,0,0,1,1.07-.44,1.78,1.78,0,0,1,1.1.25C166.57,119.9,166.67,120.06,166.63,120.1Z"/><path id="Trazado_1231" data-name="Trazado 1231" class="cls-2" d="M169.8,125.37a6,6,0,0,1,1.19-.32c.19,0,.36-.08.39-.22a1.06,1.06,0,0,0-.18-.55l-.68-1.39a24.81,24.81,0,0,1-1.59-3.67,24.87,24.87,0,0,1,1.88,3.53c.23.49.43,1,.66,1.41a1,1,0,0,1,.16.73.49.49,0,0,1-.29.31,1.65,1.65,0,0,1-.32.07A4.54,4.54,0,0,1,169.8,125.37Z"/><path id="Trazado_1232" data-name="Trazado 1232" class="cls-2" d="M167.66,126.08c.12,0,.19.79.94,1.32s1.58.34,1.6.46-.18.17-.54.21a2,2,0,0,1-1.34-.34,1.76,1.76,0,0,1-.73-1.09C167.53,126.29,167.61,126.08,167.66,126.08Z"/><path id="Trazado_1233" data-name="Trazado 1233" class="cls-2" d="M166.63,118c-.06.21-.81.18-1.67.36s-1.55.48-1.68.3.05-.27.32-.5a2.92,2.92,0,0,1,2.54-.5C166.48,117.76,166.65,117.9,166.63,118Z"/><path id="Trazado_1234" data-name="Trazado 1234" class="cls-2" d="M172.88,116.39c-.12.19-.64.07-1.26.13s-1.12.24-1.26.07,0-.25.21-.43a1.82,1.82,0,0,1,2-.17C172.83,116.13,172.92,116.3,172.88,116.39Z"/><path id="Trazado_1235" data-name="Trazado 1235" class="cls-2" d="M161.83,114.09h0a3.79,3.79,0,0,0-1.2,2.58v.1c-.07,1.39.08,2.79,0,4.18a6.38,6.38,0,0,1-1.38,3.88c-.38.43-1.1.75-1.48.33a1.1,1.1,0,0,1-.23-.62c-.55-3.31-1.71-6.18-2-9.65a3,3,0,0,1,1-2.49c.69-.58,1.53-1.2,2.37-.87s2,1.75,2.71,2.32"/><path id="Trazado_1236" data-name="Trazado 1236" class="cls-10" d="M158.87,121.9c-.09,0-3.41-.69-3,2.6s3.62,2.22,3.61,2.13S158.87,121.9,158.87,121.9Z"/><path id="Trazado_1237" data-name="Trazado 1237" class="cls-11" d="M158.31,125.48a.65.65,0,0,1-.15.1.57.57,0,0,1-.44.07,1.48,1.48,0,0,1-.81-1.2,2,2,0,0,1,.06-.84.69.69,0,0,1,.39-.49.29.29,0,0,1,.35.12.43.43,0,0,1,.06.15s.07-.06,0-.19a.36.36,0,0,0-.15-.19.43.43,0,0,0-.33-.05.83.83,0,0,0-.54.58,2.19,2.19,0,0,0-.09.95,1.49,1.49,0,0,0,1,1.31.66.66,0,0,0,.52-.15C158.31,125.56,158.32,125.49,158.31,125.48Z"/><path id="Trazado_1238" data-name="Trazado 1238" class="cls-2" d="M158.53,112.59c-1.11-1.09.6-3.48,2.07-4.38s3.75-.64,5.46-.5a9.17,9.17,0,0,0,3.22,0,7.72,7.72,0,0,0,1.92-1,5.6,5.6,0,0,1,2-.92,2,2,0,0,1,2,.66,1.24,1.24,0,0,1-.25,1.74l-.16.1a1.63,1.63,0,1,1,1.15,2.83c.37-.46,1.21-.06,1.31.52a1.71,1.71,0,0,1-.79,1.5,6.23,6.23,0,0,1-4.32,1c-1.51-.13-3-.53-4.47-.69s-4-.49-5.3.34c-.92.61-1.31,2-2,1.88a2,2,0,0,1-1.38-1.2,5.82,5.82,0,0,1-.39-1.85"/><path id="Trazado_1239" data-name="Trazado 1239" class="cls-3" d="M174.57,108.54a.28.28,0,0,1,.17.07.94.94,0,0,1,.4.39,1.43,1.43,0,0,1,.19.84,1.47,1.47,0,0,1-.54,1,2.69,2.69,0,0,1-1.29.54,4.89,4.89,0,0,1-1.62,0,16.08,16.08,0,0,1-3.57-1.18,9.74,9.74,0,0,0-3.68-.88,4.56,4.56,0,0,0-1.63.33,4.23,4.23,0,0,0-1.22.78,4.37,4.37,0,0,0-1.13,1.76,3.13,3.13,0,0,0-.16.75,4.79,4.79,0,0,1,.21-.74,4.32,4.32,0,0,1,1.15-1.68,3.83,3.83,0,0,1,1.19-.76,4.37,4.37,0,0,1,1.6-.3,9.87,9.87,0,0,1,3.62.88,16.32,16.32,0,0,0,3.6,1.18,5.14,5.14,0,0,0,1.66,0,2.87,2.87,0,0,0,1.32-.58,1.76,1.76,0,0,0,.4-.5,1.48,1.48,0,0,0-.06-1.43.93.93,0,0,0-.44-.37A.38.38,0,0,0,174.57,108.54Z"/><path id="Trazado_1240" data-name="Trazado 1240" class="cls-3" d="M162.73,108.44a.41.41,0,0,0-.22,0,2.53,2.53,0,0,0-.55.18,3.23,3.23,0,0,0-2,3.1,3.68,3.68,0,0,0,.08.58c0,.14.07.21.08.2a5,5,0,0,1-.06-.78,3.35,3.35,0,0,1,1.89-3C162.43,108.51,162.73,108.46,162.73,108.44Z"/><path id="Trazado_1241" data-name="Trazado 1241" class="cls-3" d="M156,117.92a.53.53,0,0,0,.28,0,1.27,1.27,0,0,0,.72-.26,1.91,1.91,0,0,0,.67-.91,5.67,5.67,0,0,0,.28-1.36,4.93,4.93,0,0,1,.27-1.31,1.74,1.74,0,0,1,.63-.88,1.36,1.36,0,0,1,.67-.27h.28a.68.68,0,0,0-.28,0,1.27,1.27,0,0,0-.73.24,1.85,1.85,0,0,0-.69.87,5.24,5.24,0,0,0-.29,1.36,5.43,5.43,0,0,1-.26,1.31,1.88,1.88,0,0,1-.61.88,1.42,1.42,0,0,1-.67.28A1.28,1.28,0,0,1,156,117.92Z"/><path id="Trazado_1242" data-name="Trazado 1242" class="cls-3" d="M156.45,120.07h.33a2.88,2.88,0,0,0,.87-.19,4,4,0,0,0,2.12-1.93,5.9,5.9,0,0,0,.61-2.83,2,2,0,0,1,0-.49.6.6,0,0,1,.15-.32.42.42,0,0,1,.27-.14.3.3,0,0,0-.31.1.64.64,0,0,0-.19.34,2.19,2.19,0,0,0,0,.51,6,6,0,0,1-.63,2.77,4,4,0,0,1-2,1.91A4.58,4.58,0,0,1,156.45,120.07Z"/></g><g id="freepik--character-1--inject-84"><path id="Trazado_1243" data-name="Trazado 1243" class="cls-10" d="M130.75,60.12l.06,1.09.62,2.57a4.69,4.69,0,0,0-.69,1.55c-.06.6,2.39,4.07,2.39,4.07L140,71.6a2.25,2.25,0,0,0,.47-2.51,8.23,8.23,0,0,0-2-2.27s1.43-.83.6-1.37l-.84-.56s-.06-1.67-1-1.82l-.76-.13a1.73,1.73,0,0,0-1.46-1.22l-.46.09s-.44-1.06-1.28-1.16-.71.06-.71.06A1.43,1.43,0,0,0,130.75,60.12Z"/><path id="Trazado_1244" data-name="Trazado 1244" class="cls-11" d="M135.83,65.49s-.1-.18-.31-.48a6.25,6.25,0,0,0-1.1-1.08c-.28-.23-.55-.48-.81-.73a3.35,3.35,0,0,1-.71-1.06c-.16-.44-.17-.9-.36-1.31a1.33,1.33,0,0,0-1-.73,1.29,1.29,0,0,0-.67.12l.06-.09a7.27,7.27,0,0,0,.41,2.49,17.34,17.34,0,0,0,.73,1.93c.23.54.44,1,.58,1.26a2.37,2.37,0,0,1,.2.46,1.83,1.83,0,0,1-.28-.44c-.16-.28-.39-.7-.64-1.23a17,17,0,0,1-.79-1.93,7.31,7.31,0,0,1-.44-2.57v0l.06,0a1.57,1.57,0,0,1,.8-.15,1.52,1.52,0,0,1,1.24.88c.21.47.22.94.37,1.32a4.64,4.64,0,0,0,1.42,1.75A5.37,5.37,0,0,1,135.61,65a1.93,1.93,0,0,1,.19.38A.38.38,0,0,1,135.83,65.49Z"/><path id="Trazado_1245" data-name="Trazado 1245" class="cls-11" d="M136.55,62.93s.14.08.28.29a4.57,4.57,0,0,1,.44.85,1.3,1.3,0,0,1,.15,1c-.1.27-.3.32-.3.29a1.28,1.28,0,0,0,.14-.34,1.46,1.46,0,0,0-.2-.84C136.79,63.47,136.51,63,136.55,62.93Z"/><path id="Trazado_1246" data-name="Trazado 1246" class="cls-11" d="M135.76,65.38a.45.45,0,0,0,.16,0,.42.42,0,0,0,.25-.3.92.92,0,0,0-.11-.63c-.13-.25-.28-.5-.43-.73a11,11,0,0,1-1.07-2,10.46,10.46,0,0,1,1.25,1.84,7.15,7.15,0,0,1,.44.76,1.06,1.06,0,0,1,.07.76.47.47,0,0,1-.39.34C135.81,65.44,135.75,65.39,135.76,65.38Z"/><path id="Trazado_1247" data-name="Trazado 1247" class="cls-11" d="M138.2,64.78a1.06,1.06,0,0,1,.22.51,2.9,2.9,0,0,1,.09.59,2.16,2.16,0,0,1,0,.36.47.47,0,0,1-.22.4.45.45,0,0,1-.47-.08,1.76,1.76,0,0,1-.24-.3,1.86,1.86,0,0,1-.21-.57c-.07-.33-.08-.54-.05-.54s.09.19.2.5a2.3,2.3,0,0,0,.24.5c.11.17.29.36.44.28s.12-.34.12-.55a5.09,5.09,0,0,0,0-.56A2,2,0,0,1,138.2,64.78Z"/><path id="Trazado_1248" data-name="Trazado 1248" class="cls-11" d="M137.31,65.33s0,.09-.15.15a.73.73,0,0,1-.87-.29c-.06-.11-.07-.2,0-.21a2.29,2.29,0,0,0,.5.3C137,65.37,137.28,65.29,137.31,65.33Z"/><path id="Trazado_1249" data-name="Trazado 1249" class="cls-12" d="M105.23,183.46a2.65,2.65,0,0,0-3.07,1.39c-.31.85-1.42,4.52-1.42,4.52l6.39,1,1.87-5.13.21-.46S106.06,183.77,105.23,183.46Z"/><path id="Trazado_1250" data-name="Trazado 1250" class="cls-2" d="M92.9,159.17c-.2.57-16.5,28.45-15.32,35.32a11.84,11.84,0,0,0,2,4.92,7,7,0,0,0,7.18,2.74l23.48-5.08v-6.32L96.45,187.6s11.19-16.1,13.74-16.29,13.16,15.11,13.16,15.11,3.53,14,9,14,8.24,3.34,10-2-16.13-42.16-16.13-42.16Z"/><path id="Trazado_1251" data-name="Trazado 1251" class="cls-2" d="M123,185.92l-13-2.23s-6.64,7.57.17,12.72l25.2,4.29"/><path id="Trazado_1252" data-name="Trazado 1252" class="cls-3" d="M97.85,185.84s-.48.68-1.08,1.88a42.12,42.12,0,0,0-1.89,4.86,13.8,13.8,0,0,1-2.39,4.65l-.33.36-.32.28-.29.25-.26.17a3.2,3.2,0,0,1-.51.29,10.38,10.38,0,0,0,1.58-1.45,14.76,14.76,0,0,0,2.3-4.63,35.26,35.26,0,0,1,2-4.86,10.55,10.55,0,0,1,.85-1.35A3.23,3.23,0,0,1,97.85,185.84Z"/><path id="Trazado_1253" data-name="Trazado 1253" class="cls-3" d="M130.27,197.66a2,2,0,0,1-.54-.16,6.11,6.11,0,0,1-1.39-.72,9.75,9.75,0,0,1-3.26-3.91,17.67,17.67,0,0,1-1.42-4.92c-.1-.65-.17-1.17-.2-1.54a2.19,2.19,0,0,1,0-.57,2.8,2.8,0,0,1,.12.56c.08.41.17.91.27,1.52a20.58,20.58,0,0,0,1.47,4.85,10.2,10.2,0,0,0,3.16,3.88A11.65,11.65,0,0,0,130.27,197.66Z"/><path id="Trazado_1254" data-name="Trazado 1254" class="cls-3" d="M96.41,187.63a.76.76,0,0,1,.21,0l.6.13,2.2.49c1.86.41,4.44,1,7.3,1.47,1.4.26,2.74.48,4,.67h.1v.1c-.15,1.89-.28,3.51-.38,4.69,0,.55-.09,1-.12,1.34a2.42,2.42,0,0,1-.07.47,1.93,1.93,0,0,1,0-.48c0-.34,0-.79.07-1.34.07-1.19.17-2.81.29-4.7l.09.12c-1.23-.19-2.57-.41-4-.66-2.87-.52-5.45-1.09-7.3-1.54-.93-.23-1.67-.44-2.19-.56l-.6-.18-.18-.05Z"/><path id="Trazado_1255" data-name="Trazado 1255" class="cls-3" d="M123,191.23a5.48,5.48,0,0,1,.21-5.12,11.68,11.68,0,0,0-.51,2.54,12.45,12.45,0,0,0,.3,2.58Z"/><path id="Trazado_1256" data-name="Trazado 1256" class="cls-12" d="M110.65,190.53l3.57.1c.15.18,1.9-1.76,3.43-.65.29.2,3.9,6.69,3.9,6.69l1.87,2L113.51,197l-3.28-.2Z"/><path id="Trazado_1257" data-name="Trazado 1257" class="cls-5" d="M88.85,115.21s-4.12,3.38-4.71,7.89c-.44,3.41-1.26,17.54-1.26,17.54s-2,6.75-1.25,8.72,4,5.77,4,5.77l7.45-4.3-.9-8.75,1.25-13.67Z"/><path id="Trazado_1258" data-name="Trazado 1258" class="cls-5" d="M88.85,115.21c0,.58,6.23,27.64,6.23,27.64L90.5,161.3s8.25,7.1,17.5,6.71,20.86-7.14,20.86-7.14-5.59-12.61-6.28-19.74c-.78-8.16-1.43-28.19-1.43-28.19l-12.75-3.07-10.82.36Z"/><path id="Trazado_1259" data-name="Trazado 1259" class="cls-6" d="M126.37,155.15a2.09,2.09,0,0,1-.24.28c-.15.17-.38.44-.7.75a25.29,25.29,0,0,1-2.88,2.5,27.68,27.68,0,0,1-4.87,2.87,29.53,29.53,0,0,1-3.13,1.18,26.23,26.23,0,0,1-3.51.8,24.31,24.31,0,0,1-6.92,0,21.51,21.51,0,0,1-5.45-1.5,16.48,16.48,0,0,1-3.33-1.86,9.89,9.89,0,0,1-.81-.64,2.09,2.09,0,0,1-.28-.24,1.61,1.61,0,0,1,.3.21,9.86,9.86,0,0,0,.84.6,18.5,18.5,0,0,0,3.34,1.79,22.12,22.12,0,0,0,5.42,1.43,24.26,24.26,0,0,0,6.86,0,26,26,0,0,0,3.47-.78,29,29,0,0,0,3.11-1.15,27.66,27.66,0,0,0,4.86-2.81,27.13,27.13,0,0,0,2.9-2.46c.33-.3.57-.55.74-.72A3.11,3.11,0,0,1,126.37,155.15Z"/><g id="Grupo_69" data-name="Grupo 69" class="cls-7"><path id="Trazado_1260" data-name="Trazado 1260" d="M92,162.24a3.49,3.49,0,0,0,3.14.28A22.09,22.09,0,0,0,98.07,161c3.44-1.79,7.51-1.94,11.06-3.48,1.6-.69,3.29-2.1,3-3.81a3,3,0,0,0-1.87-2,7.55,7.55,0,0,0-2.83-.39A77.61,77.61,0,0,0,92,153.39a6.52,6.52,0,0,0-3.27,1.31,2.27,2.27,0,0,0-.3,3.17"/></g><path id="Trazado_1261" data-name="Trazado 1261" class="cls-5" d="M132.49,68.33l-.29,2.76-19.5,37.58c-1.48-.55-2.7,0-3.68,1.45l.72,4.28,11.66,8.41c1.37-7.37,10.3-29.89,18.82-50.94Z"/><path id="Trazado_1262" data-name="Trazado 1262" class="cls-2" d="M90.81,124.17c.06,0,1.07,4.16,2.25,9.32s2.08,9.35,2,9.36-1.07-4.15-2.24-9.32S90.75,124.19,90.81,124.17Z"/><path id="Trazado_1263" data-name="Trazado 1263" class="cls-2" d="M115.37,112.12a3.45,3.45,0,0,1-.8-1,6.27,6.27,0,0,0-1.9-2.32,1.92,1.92,0,0,0-1.55-.2,3.21,3.21,0,0,0-1.16.67c-.59.52-.91.88-.94.88a1.37,1.37,0,0,1,.2-.29,6,6,0,0,1,.63-.7,3.16,3.16,0,0,1,1.21-.75,2,2,0,0,1,.87-.1,2.3,2.3,0,0,1,.88.3,3.8,3.8,0,0,1,1.23,1.23c.29.43.51.87.7,1.21C115.08,111.71,115.39,112.1,115.37,112.12Z"/><path id="Trazado_1264" data-name="Trazado 1264" class="cls-2" d="M121.9,134.39a3.57,3.57,0,0,1-.06-.65c0-.41-.08-1-.13-1.75-.1-1.47-.22-3.51-.26-5.74s0-4.28,0-5.75c0-.74,0-1.32.06-1.76a3.47,3.47,0,0,1,.06-.64,3.47,3.47,0,0,1,0,.64v1.76c0,1.47,0,3.51,0,5.74s.14,4.27.2,5.74c0,.7,0,1.29.06,1.75A3.64,3.64,0,0,1,121.9,134.39Z"/><path id="Trazado_1265" data-name="Trazado 1265" class="cls-2" d="M90.75,142s-.36-.18-1-.4a6.08,6.08,0,0,0-4.8.26c-.56.29-.87.54-.9.51a2.63,2.63,0,0,1,.83-.65,5.49,5.49,0,0,1,2.43-.72,5.77,5.77,0,0,1,2.5.44A2.79,2.79,0,0,1,90.75,142Z"/><path id="Trazado_1266" data-name="Trazado 1266" class="cls-2" d="M89.39,140.26c0,.06-.93-.24-2.09-.44s-2.11-.28-2.11-.34a6.21,6.21,0,0,1,2.15.11A5.69,5.69,0,0,1,89.39,140.26Z"/><path id="Trazado_1267" data-name="Trazado 1267" class="cls-2" d="M117.4,110.06s-.16-.28-.48-.67a3.62,3.62,0,0,0-1.54-1.13,3.72,3.72,0,0,0-1.9-.17c-.5.09-.78.22-.8.19a1.69,1.69,0,0,1,.77-.35,3.38,3.38,0,0,1,3.61,1.37A1.75,1.75,0,0,1,117.4,110.06Z"/><path id="Trazado_1268" data-name="Trazado 1268" class="cls-2" d="M123,107.81a17.61,17.61,0,0,0-1.45,3.26,16.59,16.59,0,0,0-.49,3.51,3.44,3.44,0,0,1-.09-1.06,9.5,9.5,0,0,1,.36-2.54,9.61,9.61,0,0,1,1-2.34A3.64,3.64,0,0,1,123,107.81Z"/><path id="Trazado_1269" data-name="Trazado 1269" class="cls-6" d="M120.66,111.32l-.08.07-.25.19c-.21.17-.54.39-.92.74a24.15,24.15,0,0,0-3,3.16c-1.17,1.41-2.46,3.2-4.16,5a13.82,13.82,0,0,1-3,2.36,9.66,9.66,0,0,1-3.95,1.23,12.16,12.16,0,0,1-2.09,0,17.21,17.21,0,0,1-2-.28,25,25,0,0,1-3.68-1.07c-2.29-.84-4.29-1.75-6-2.35a21.12,21.12,0,0,0-4.2-1.1c-.51-.07-.91-.11-1.18-.13l-.31,0a.17.17,0,0,1-.1,0h.41a11.91,11.91,0,0,1,1.19.09,20.66,20.66,0,0,1,4.24,1c1.75.58,3.76,1.48,6,2.31a25.9,25.9,0,0,0,3.66,1,16.53,16.53,0,0,0,2,.27,11.81,11.81,0,0,0,2.06,0,9.6,9.6,0,0,0,3.86-1.22,13.92,13.92,0,0,0,3-2.31c1.69-1.73,3-3.51,4.19-4.92a22,22,0,0,1,3.06-3.12,10.68,10.68,0,0,1,1-.7l.26-.17Z"/><path id="Trazado_1270" data-name="Trazado 1270" class="cls-6" d="M120.89,131a1.71,1.71,0,0,1-.14.27,7.15,7.15,0,0,1-.44.76,12.35,12.35,0,0,1-2.13,2.43,15.24,15.24,0,0,1-4.07,2.55,18.37,18.37,0,0,1-5.7,1.43,25.63,25.63,0,0,1-5.87-.25,35.49,35.49,0,0,1-4.67-1.07c-1.32-.39-2.36-.75-3.07-1-.36-.12-.63-.24-.82-.31a1.39,1.39,0,0,1-.28-.12,1.67,1.67,0,0,1,.3.08l.83.27c.73.24,1.76.58,3.07.94a37.23,37.23,0,0,0,4.66,1,25.21,25.21,0,0,0,5.82.23,19,19,0,0,0,5.64-1.39,15.69,15.69,0,0,0,4-2.48,13.15,13.15,0,0,0,2.16-2.37C120.66,131.4,120.86,131,120.89,131Z"/><path id="Trazado_1271" data-name="Trazado 1271" class="cls-6" d="M122.14,142.41a2.18,2.18,0,0,1-.21.22l-.64.61c-.56.53-1.36,1.29-2.42,2.2a24.45,24.45,0,0,1-3.94,2.76,14.13,14.13,0,0,1-5.61,1.81,14.69,14.69,0,0,1-5.84-.87c-1.72-.57-3.23-1.21-4.52-1.67a25.65,25.65,0,0,0-3.1-.92c-.74-.16-1.16-.21-1.16-.24a1.63,1.63,0,0,1,.31,0,8.7,8.7,0,0,1,.87.13,21.15,21.15,0,0,1,3.14.87c1.31.44,2.81,1.06,4.53,1.62a14.62,14.62,0,0,0,5.75.84,14.28,14.28,0,0,0,5.54-1.76,25.69,25.69,0,0,0,3.94-2.7c1.06-.88,1.88-1.61,2.46-2.12l.66-.58A1.31,1.31,0,0,1,122.14,142.41Z"/><path id="Trazado_1272" data-name="Trazado 1272" class="cls-6" d="M92.35,135.86s-.36-.44-1-1.1a12.06,12.06,0,0,0-6.1-3.41c-.88-.19-1.45-.23-1.45-.27a.9.9,0,0,1,.4,0,6.61,6.61,0,0,1,1.08.12,10.9,10.9,0,0,1,6.19,3.46,8.16,8.16,0,0,1,.67.88A1.32,1.32,0,0,1,92.35,135.86Z"/><path id="Trazado_1273" data-name="Trazado 1273" class="cls-6" d="M91.29,145.14c-.51-.17-1-.32-1.54-.44a7.09,7.09,0,0,0-6.89,2.35c-.64.75-.91,1.32-.94,1.29a2,2,0,0,1,.16-.4,6.5,6.5,0,0,1,.65-1,6.87,6.87,0,0,1,7.06-2.4,5.5,5.5,0,0,1,1.12.39A1.72,1.72,0,0,1,91.29,145.14Z"/><path id="Trazado_1274" data-name="Trazado 1274" class="cls-6" d="M127,104.36s-.36-.44-1-1.1a15.23,15.23,0,0,0-5.78-4c-.84-.33-1.39-.47-1.38-.51a1.34,1.34,0,0,1,.4.06,9.49,9.49,0,0,1,1,.3,13.1,13.1,0,0,1,3.19,1.61,13.42,13.42,0,0,1,2.64,2.41c.23.28.44.57.64.87A1.79,1.79,0,0,1,127,104.36Z"/><path id="Trazado_1275" data-name="Trazado 1275" class="cls-6" d="M132.05,91.15s-.29-.4-.79-1A13,13,0,0,0,129,88a11.83,11.83,0,0,0-2.73-1.48c-.74-.29-1.23-.4-1.22-.44a1.34,1.34,0,0,1,.35,0c.32.07.62.15.93.25a10.44,10.44,0,0,1,2.79,1.45A10.72,10.72,0,0,1,131.38,90a8.57,8.57,0,0,1,.52.81A1,1,0,0,1,132.05,91.15Z"/><path id="Trazado_1276" data-name="Trazado 1276" class="cls-6" d="M137.19,79.51s-.26-.42-.7-1.06a11.2,11.2,0,0,0-4.59-3.84c-.7-.32-1.17-.47-1.16-.5s.13,0,.34.06a9.06,9.06,0,0,1,.88.29,9.74,9.74,0,0,1,4.66,3.91,5.8,5.8,0,0,1,.43.82.73.73,0,0,1,.14.31Z"/><g id="Grupo_70" data-name="Grupo 70" class="cls-7"><path id="Trazado_1277" data-name="Trazado 1277" d="M82.73,143.25A4.44,4.44,0,0,1,87,141.53c1.61.14,3.15.77,4.75,1.06a4.82,4.82,0,0,0-9.19.29"/></g><path id="Trazado_1278" data-name="Trazado 1278" class="cls-2" d="M97.51,106.39a5.48,5.48,0,0,1-7-3.34,5.54,5.54,0,0,1-.31-1.56c-.08-1.59.52-3.25-.08-4.72-.41-1-1.33-1.76-1.7-2.79-.55-1.53.29-3.18,1.09-4.6a10.62,10.62,0,0,1,1.82-2.54,3.58,3.58,0,0,1,2.83-1.07"/><path id="Trazado_1279" data-name="Trazado 1279" class="cls-2" d="M110.65,84.73a4.67,4.67,0,0,0,1.72,3.07,6.5,6.5,0,0,1,2.07,2.89c.44,2.08-1.46,4.18-.88,6.23.31,1.1,1.29,1.94,1.54,3.07a3.82,3.82,0,0,1-.94,3.07c-.66.88-1.5,1.64-2.08,2.58,0,0-1.18,2.28-5.39,1.18"/><path id="Trazado_1280" data-name="Trazado 1280" class="cls-2" d="M92.39,87.88a2.74,2.74,0,0,1,1.82-2.46,15.25,15.25,0,0,0,3-1.37A15,15,0,0,0,99,81.85a6.71,6.71,0,0,1,11.46,2.27,4.41,4.41,0,0,1-.78,4.47c-1.32,1.32-3.45,1.18-5.29.94s-3.91-.44-5.35.71a7.62,7.62,0,0,0-1.8,2.8,4.75,4.75,0,0,1-2.14,2.47c-1,.44-2.51-.08-2.64-1.19"/><path id="Trazado_1281" data-name="Trazado 1281" class="cls-10" d="M112,90.82c-.43-3.07-2.75-6.72-5.81-6.17l-9.46,3.14a1.81,1.81,0,0,0-1.48,2l2.32,21.73a5.54,5.54,0,0,0,6,4.93h0a5.53,5.53,0,0,0,5-6c-.14-1.75-.25-3.25-.25-3.24s3.9-1,4.34-6.17A54.43,54.43,0,0,0,112,90.82Z"/><path id="Trazado_1282" data-name="Trazado 1282" class="cls-2" d="M111.28,94.21c-.07.09-.6-.25-1.31-.19s-1.21.44-1.3.37,0-.2.25-.38a1.78,1.78,0,0,1,1-.4,1.75,1.75,0,0,1,1,.25C111.23,94,111.32,94.17,111.28,94.21Z"/><path id="Trazado_1283" data-name="Trazado 1283" class="cls-2" d="M104.3,94.9c-.07.09-.6-.24-1.31-.19s-1.21.44-1.32.37,0-.2.25-.38a1.76,1.76,0,0,1,1-.4,1.69,1.69,0,0,1,1,.26C104.24,94.71,104.33,94.86,104.3,94.9Z"/><path id="Trazado_1284" data-name="Trazado 1284" class="cls-2" d="M107.19,98.82a4.89,4.89,0,0,1,1.14-.29c.18,0,.34-.08.37-.21a1,1,0,0,0-.16-.53c-.21-.44-.44-.88-.64-1.35a26.6,26.6,0,0,1-1.48-3.53,22.43,22.43,0,0,1,1.76,3.41l.62,1.35a1.1,1.1,0,0,1,.15.71.5.5,0,0,1-.28.29,1.7,1.7,0,0,1-.31.06A4.62,4.62,0,0,1,107.19,98.82Z"/><path id="Trazado_1285" data-name="Trazado 1285" class="cls-11" d="M108.3,107.22a13.24,13.24,0,0,1-7-1.32s2,3.42,7.14,2.56Z"/><path id="Trazado_1286" data-name="Trazado 1286" class="cls-2" d="M104.41,92c-.06.2-.78.17-1.61.33s-1.49.44-1.61.27,0-.27.31-.48a2.74,2.74,0,0,1,1.17-.51,2.78,2.78,0,0,1,1.28.06C104.26,91.75,104.43,91.89,104.41,92Z"/><path id="Trazado_1287" data-name="Trazado 1287" class="cls-2" d="M110.81,91.4c-.11.17-.61,0-1.2.07s-1.09.2-1.21,0,0-.24.22-.43a1.74,1.74,0,0,1,1.94-.09C110.78,91.16,110.88,91.32,110.81,91.4Z"/><path id="Trazado_1288" data-name="Trazado 1288" class="cls-2" d="M94.3,105a4.6,4.6,0,0,0,5.14-4,4.9,4.9,0,0,0,0-1.48c-.25-1.26-1-2.5-.68-3.72.47-1.64,2.66-2.28,3.14-3.9.28-1-.11-2,.21-2.93a3.34,3.34,0,0,1,2-1.8,9.09,9.09,0,0,0,2.45-1.28,2,2,0,0,0,.54-2.48A48.62,48.62,0,0,0,96,87a4.27,4.27,0,0,0-2.12,1.6,4.79,4.79,0,0,0-.27,2.8l1.65,13.85"/><path id="Trazado_1289" data-name="Trazado 1289" class="cls-3" d="M90.37,88.46a.4.4,0,0,0-.07.21.81.81,0,0,0,.24.61,1.29,1.29,0,0,0,1,.4,3,3,0,0,0,1.28-.48,3.71,3.71,0,0,1,1.47-.56,8.71,8.71,0,0,1,1.84,0,12,12,0,0,0,2.08.12,3,3,0,0,0,2-.92,6.29,6.29,0,0,0,1.09-2,9.67,9.67,0,0,1,.87-1.84,2.9,2.9,0,0,1,2.91-1.31A3,3,0,0,1,107,84c.16.23.3.48.44.73a.9.9,0,0,0-.06-.22,3,3,0,0,0-2.24-1.89,2.91,2.91,0,0,0-1.65.15,3.08,3.08,0,0,0-1.49,1.2,9.85,9.85,0,0,0-.9,1.88,5.71,5.71,0,0,1-1,1.89,2.71,2.71,0,0,1-1.88.84,12.68,12.68,0,0,1-2-.1,7.47,7.47,0,0,0-1.89,0A3.8,3.8,0,0,0,92.7,89a3,3,0,0,1-1.18.5,1.22,1.22,0,0,1-.88-.33.73.73,0,0,1-.26-.53A1.62,1.62,0,0,1,90.37,88.46Z"/><path id="Trazado_1290" data-name="Trazado 1290" class="cls-2" d="M93.15,86.77a3.8,3.8,0,0,0-.69-7.4,2.32,2.32,0,0,0-2.22.87c-.46.72-.32,1.64-.87,2.2s-1.62.43-2.44.67a2.82,2.82,0,0,0-1.8,3.16A3.8,3.8,0,0,0,87.73,89a6,6,0,0,0,3.9-.2,14.72,14.72,0,0,0,3.44-2"/><path id="Trazado_1291" data-name="Trazado 1291" class="cls-3" d="M86.68,83.48a2.38,2.38,0,0,0,.44.92,5.34,5.34,0,0,0,4.25,2.25,2.48,2.48,0,0,0,1-.15,8.36,8.36,0,0,0-1,0,5.9,5.9,0,0,1-4.11-2.2C86.9,83.81,86.73,83.46,86.68,83.48Z"/><path id="Trazado_1292" data-name="Trazado 1292" class="cls-5" d="M89.83,89a10.5,10.5,0,0,1,2.29-2.32,10.78,10.78,0,0,1,3-1.25,2.5,2.5,0,0,0-1,.08,6.43,6.43,0,0,0-3.88,2.63,2.63,2.63,0,0,0-.45.86Z"/><path id="Trazado_1293" data-name="Trazado 1293" class="cls-3" d="M95.37,85.13a1.09,1.09,0,0,0,.08.15,1.61,1.61,0,0,0,.36.33,2.24,2.24,0,0,0,1.73.25,4.21,4.21,0,0,0,2.14-1.49,12.44,12.44,0,0,1,2.15-2.26,4.11,4.11,0,0,1,2.94-.59,3.83,3.83,0,0,1,2.16,1.2,4.22,4.22,0,0,1,.9,1.44c.14.39.18.61.2.6s0-.05,0-.16a2.46,2.46,0,0,0-.1-.47,4.12,4.12,0,0,0-3.11-2.86,4.27,4.27,0,0,0-3.15.62,11.75,11.75,0,0,0-2.19,2.32,4.14,4.14,0,0,1-2,1.47,2.22,2.22,0,0,1-1.64-.16A3.47,3.47,0,0,1,95.37,85.13Z"/><path id="Trazado_1294" data-name="Trazado 1294" class="cls-11" d="M107.28,100.64a3.08,3.08,0,0,1-.37.75,1,1,0,0,1-.69.44.93.93,0,0,1-.77-.4,1.41,1.41,0,0,1-.22-.85c0-.27.12-.6.39-.64a.78.78,0,0,1,.33.07l1.42.54"/><path id="Trazado_1295" data-name="Trazado 1295" class="cls-2" d="M106.74,101.8a1.9,1.9,0,0,1-.75-.07,1,1,0,0,1-.58-.51,1.06,1.06,0,0,1,.08-1.13c.05-.06,0-.06.11,0a2,2,0,0,1,.22.09l.23.09.82.29a2.27,2.27,0,0,0,.77.22,2.7,2.7,0,0,0-.71-.38l-.79-.35-.23-.09a1.17,1.17,0,0,0-.26-.1.26.26,0,0,0-.21,0,.35.35,0,0,0-.15.12,1.82,1.82,0,0,0-.15.27,1.32,1.32,0,0,0,.06,1.13,1.21,1.21,0,0,0,.73.56,1.06,1.06,0,0,0,.61,0C106.68,101.87,106.74,101.82,106.74,101.8Z"/><path id="Trazado_1296" data-name="Trazado 1296" class="cls-10" d="M93.9,152.23s1.17-1.61-1-1.61l-2.59.42s-2.14.77-2.52,1a22.67,22.67,0,0,0-2.13,3.13l-.37,3.22L88,161.5a1.47,1.47,0,0,0,1.39.48l3.48-.71a12.27,12.27,0,0,0,2-.74c.76-.41,2.69-1.69,2-2.05a1.38,1.38,0,0,0-1.37.15,1.06,1.06,0,0,0-1.42-.41l-.07.05-1,.51s-.27-1.12-1-.56-2.59,2-2.59,2l-2-2.45.79-3.07L94,152.07"/><path id="Trazado_1297" data-name="Trazado 1297" class="cls-3" d="M93.23,152.16a55.79,55.79,0,0,0-5.26,2,5.61,5.61,0,0,0-1.16,3c.11.68.82,3.36,2.74,3.1a2.4,2.4,0,0,0,2.25-1.82l6.6-1.14s.53,1.7,1.95,1.38,3-2.85,3-2.85,7-.08,7.29-1.18a2.28,2.28,0,0,0-1-3c-1.41-1.11-8.12-.74-8.12-.74Z"/><path id="Trazado_1298" data-name="Trazado 1298" class="cls-13" d="M91.82,158.44s-.54-2,1.21-2.43,4.72-1.12,5.39,1.29"/><path id="Trazado_1299" data-name="Trazado 1299" class="cls-2" d="M101.29,156.8a5.37,5.37,0,0,0-.43-1.09l-.42-.85a1,1,0,0,0-.23-.34.93.93,0,0,0-.8-.2h0a1,1,0,0,0-.71.51,1.88,1.88,0,0,0,0,1.1,9.49,9.49,0,0,0,.44,1.4,2.73,2.73,0,0,0,.37.72,1.06,1.06,0,0,0,.68.41,1,1,0,0,0,1-.53A1.64,1.64,0,0,0,101.29,156.8Z"/><path id="Trazado_1300" data-name="Trazado 1300" class="cls-2" d="M101.29,156.8a1,1,0,0,1,.1.44,1.34,1.34,0,0,1-.44,1.1,1,1,0,0,1-.83.22,1.26,1.26,0,0,1-.77-.59,4.81,4.81,0,0,1-.44-.95,10,10,0,0,1-.3-1.07,2,2,0,0,1,0-1.09,1.07,1.07,0,0,1,.82-.63v.22h-.05l-.44-.06.41-.14a.91.91,0,0,1,.77.12,1.06,1.06,0,0,1,.42.56l.44,1a2.09,2.09,0,0,1,.27.92s-.11-.34-.38-.88l-.49-1a.91.91,0,0,0-.36-.46.77.77,0,0,0-.59-.11l0-.2h.08l.76.1-.76.12a.86.86,0,0,0-.64.5,1.91,1.91,0,0,0,0,.95,9.44,9.44,0,0,0,.29,1,5,5,0,0,0,.39.92,1.07,1.07,0,0,0,.64.52.83.83,0,0,0,.68-.16,1.32,1.32,0,0,0,.44-1A3.5,3.5,0,0,0,101.29,156.8Z"/><path id="Trazado_1301" data-name="Trazado 1301" class="cls-2" d="M100.48,156.13c0,.06-.25.18-.59.25s-.63.09-.64,0,.25-.17.59-.25S100.46,156.07,100.48,156.13Z"/><path id="Trazado_1302" data-name="Trazado 1302" class="cls-2" d="M111,153.51s0,0-.06.1a1.28,1.28,0,0,1-.26.2,2.41,2.41,0,0,1-1.18.21c-1-.08-2.38-.24-3.88-.44a3.14,3.14,0,0,0-2,.3,8.68,8.68,0,0,0-1.34,1.08,9.41,9.41,0,0,1-.92.75,1.23,1.23,0,0,1-.4.19l.34-.27a10.89,10.89,0,0,0,.88-.78,7.81,7.81,0,0,1,1.35-1.16,3.34,3.34,0,0,1,2.15-.34l3.86.48a2.41,2.41,0,0,0,1.13-.12Z"/><path id="Trazado_1303" data-name="Trazado 1303" class="cls-2" d="M88.92,156.31c-.15-.2-.65-.18-.87-.07a.86.86,0,0,0-.44.58,1.89,1.89,0,0,0,0,.75A3.91,3.91,0,0,0,88.2,159a2,2,0,0,0,.75.7,1,1,0,0,0,1-.07,1,1,0,0,0,.31-1,3.06,3.06,0,0,0-.53-1,9,9,0,0,0-.8-1.24"/><path id="Trazado_1304" data-name="Trazado 1304" class="cls-2" d="M88.92,156.31a1.07,1.07,0,0,1,.28.28c.16.21.34.53.58.88a5.49,5.49,0,0,1,.4.62,1.58,1.58,0,0,1,.21.85,1,1,0,0,1-.51.86,1.19,1.19,0,0,1-1.07-.06,2.34,2.34,0,0,1-.73-.74,4.48,4.48,0,0,1-.42-.85,4.15,4.15,0,0,1-.18-.85,1.3,1.3,0,0,1,.14-.75.78.78,0,0,1,.49-.42,1.3,1.3,0,0,1,.48,0c.27,0,.36.19.34.2a.61.61,0,0,0-.35-.11.8.8,0,0,0-.81.44,2,2,0,0,0,.1,1.46,4,4,0,0,0,.4.8,2,2,0,0,0,.66.66.92.92,0,0,0,.85.06.78.78,0,0,0,.4-.67,2.31,2.31,0,0,0-.53-1.37c-.24-.4-.38-.72-.51-.93S89,156.42,88.92,156.31Z"/><path id="Trazado_1305" data-name="Trazado 1305" class="cls-2" d="M91.64,157.6s-.29.3-.78.4a1.17,1.17,0,0,1-.88-.08,4.83,4.83,0,0,1,.83-.15C91.26,157.69,91.59,157.54,91.64,157.6Z"/><path id="Trazado_1306" data-name="Trazado 1306" class="cls-2" d="M99.34,156.41c0,.06-.23.21-.55.29s-.63.07-.62,0,.24-.13.56-.22S99.31,156.36,99.34,156.41Z"/><path id="Trazado_1307" data-name="Trazado 1307" class="cls-2" d="M104.33,150.84a1.56,1.56,0,0,1,.73.41,3.22,3.22,0,0,1,.88,3.75,1.69,1.69,0,0,1-.48.7s.16-.28.33-.76a3.33,3.33,0,0,0-.84-3.57A7.87,7.87,0,0,0,104.33,150.84Z"/><path id="Trazado_1308" data-name="Trazado 1308" class="cls-2" d="M98.41,157.37s0-.13-.09-.35a1.77,1.77,0,0,0-.55-.77,2.26,2.26,0,0,0-1.31-.52,7.56,7.56,0,0,0-1.78.06,10.45,10.45,0,0,0-1.75.36,1.71,1.71,0,0,0-1.06.87,2.21,2.21,0,0,0-.12.95,1.15,1.15,0,0,1,0,.37,1.06,1.06,0,0,1-.09-.36,1.86,1.86,0,0,1,0-1,1.81,1.81,0,0,1,1.14-1,9.05,9.05,0,0,1,1.79-.38,7,7,0,0,1,1.83-.05,2.45,2.45,0,0,1,1.38.61,1.71,1.71,0,0,1,.53.88A.65.65,0,0,1,98.41,157.37Z"/><path id="Trazado_1309" data-name="Trazado 1309" class="cls-2" d="M98.73,151.67l-.1-.78s-1,.22-1.13-.15.52-1,1.84-1.22,2.44.44,2.3.67a1.36,1.36,0,0,1-.81.44l.14.82A2.83,2.83,0,0,1,98.73,151.67Z"/><path id="Trazado_1310" data-name="Trazado 1310" class="cls-2" d="M99.6,151.79a3.64,3.64,0,0,1-.87-.11h0l-.1-.77c-.12,0-1,.2-1.12-.16a.46.46,0,0,1,.09-.36,2.74,2.74,0,0,1,1.75-.88,2.64,2.64,0,0,1,2.29.54.16.16,0,0,1,0,.15,1.33,1.33,0,0,1-.81.42l.15.81h0a2.2,2.2,0,0,1-.61.26A3,3,0,0,1,99.6,151.79Zm-.88-.13a3.25,3.25,0,0,0,1.64,0,2.08,2.08,0,0,0,.59-.26l-.15-.82h0a1.29,1.29,0,0,0,.8-.41s0-.09,0-.12a2.6,2.6,0,0,0-2.26-.53,2.79,2.79,0,0,0-1.76.88.46.46,0,0,0-.08.34c.07.36,1.09.15,1.1.15h0Z"/><path id="Trazado_1311" data-name="Trazado 1311" class="cls-3" d="M101.56,150.28a3.49,3.49,0,0,1-1.93.74,4.24,4.24,0,0,1-2.06-.15c0-.08.93.06,2-.08A12.17,12.17,0,0,0,101.56,150.28Z"/><path id="Trazado_1312" data-name="Trazado 1312" class="cls-2" d="M94.56,152.16c0-.12-.17-.14-.29-.15a5.07,5.07,0,0,0-2.91.81.22.22,0,0,0,0,.31.21.21,0,0,0,.13.05,4.36,4.36,0,0,0,2.89-.77C94.49,152.33,94.58,152.24,94.56,152.16Z"/><path id="Trazado_1313" data-name="Trazado 1313" class="cls-2" d="M94.56,152.16s0,0,0,.08a.39.39,0,0,1-.12.19,4.3,4.3,0,0,1-.67.44,4.39,4.39,0,0,1-1.11.37,5.35,5.35,0,0,1-.7.08H91.5l-.13,0a.34.34,0,0,1-.18-.21.35.35,0,0,1,0-.28l.16-.15a1.77,1.77,0,0,1,.33-.19,2.61,2.61,0,0,1,.66-.24,5.55,5.55,0,0,1,1.15-.21,3.48,3.48,0,0,1,.79,0,.3.3,0,0,1,.21.1.1.1,0,0,1,0,.08.3.3,0,0,0-.23-.1,6.48,6.48,0,0,0-.77.08,7.24,7.24,0,0,0-1.12.25,3.51,3.51,0,0,0-.61.24,1.75,1.75,0,0,0-.29.18.52.52,0,0,0-.11.1.09.09,0,0,0,0,.07.09.09,0,0,0,.06.07,0,0,0,0,0,0,0H92a4.89,4.89,0,0,0,.66,0,4.69,4.69,0,0,0,1.09-.32,4.86,4.86,0,0,0,.68-.35A.3.3,0,0,0,94.56,152.16Z"/></g></g></svg>