<svg id="lamp" xmlns="http://www.w3.org/2000/svg" width="28.954" height="40.845" viewBox="0 0 28.954 40.845">
  <g id="Grupo_144" data-name="Grupo 144" transform="translate(0)">
    <g id="Grupo_143" data-name="Grupo 143">
      <path id="Trazado_1950" data-name="Trazado 1950" d="M83.487,1.362A7.5,7.5,0,0,1,90.975,8.85v2.723a.375.375,0,0,0,.008.039A6.135,6.135,0,0,0,85.529,17.7a.681.681,0,0,0,.681.681h2.11a3.4,3.4,0,0,0,6.671,0H97.1a.681.681,0,0,0,.681-.681,6.135,6.135,0,0,0-5.454-6.088.375.375,0,0,0,.008-.039V8.85a8.85,8.85,0,1,0-17.7,0V37.441H70.553a.681.681,0,0,0-.681.681v2.042a.681.681,0,0,0,.681.681h9.531a.681.681,0,0,0,.681-.681V38.122a.681.681,0,0,0-.681-.681H76V8.85A7.5,7.5,0,0,1,83.487,1.362Zm8.169,18.38A2.046,2.046,0,0,1,89.73,18.38h3.852A2.046,2.046,0,0,1,91.656,19.742Zm.677-6.763a4.765,4.765,0,0,1,4.04,4.04H86.939A4.765,4.765,0,0,1,92.333,12.979ZM79.4,38.8v.681H71.233V38.8Z" transform="translate(-69.872)" fill="#d7e51c"/>
      <path id="Trazado_1951" data-name="Trazado 1951" d="M318.553,256a.681.681,0,0,0-.681.681V259.4a.681.681,0,1,0,1.361,0v-2.723A.681.681,0,0,0,318.553,256Z" transform="translate(-296.769 -234.216)" fill="#d7e51c"/>
      <path id="Trazado_1952" data-name="Trazado 1952" d="M348.478,251.15l-1.362-2.358a.681.681,0,0,0-1.184.673l0,.008,1.361,2.358a.681.681,0,1,0,1.184-.673Z" transform="translate(-322.36 -227.306)" fill="#d7e51c"/>
      <path id="Trazado_1953" data-name="Trazado 1953" d="M369.711,229.431l-.008,0-2.358-1.362a.681.681,0,1,0-.689,1.174l.008,0,2.358,1.361a.681.681,0,0,0,.689-1.174Z" transform="translate(-341.094 -208.573)" fill="#d7e51c"/>
      <path id="Trazado_1954" data-name="Trazado 1954" d="M245.216,228.339a.681.681,0,0,0-.93-.249l-2.358,1.362a.681.681,0,1,0,.673,1.184l.008,0,2.358-1.362A.681.681,0,0,0,245.216,228.339Z" transform="translate(-226.972 -208.598)" fill="#d7e51c"/>
      <path id="Trazado_1955" data-name="Trazado 1955" d="M276.229,248.618a.681.681,0,0,0-.93.249l-1.362,2.358a.681.681,0,0,0,1.174.689l0-.008,1.362-2.358A.681.681,0,0,0,276.229,248.618Z" transform="translate(-256.487 -227.379)" fill="#d7e51c"/>
    </g>
  </g>
</svg>
