<svg id="Capa_1" data-name="Capa 1" xmlns="http://www.w3.org/2000/svg" viewBox="0 0 592 247"><defs><style>.cls-1{fill:#5b5b5b;}</style></defs><path class="cls-1" d="M60.3,179.43H56.8a.35.35,0,0,0-.27.17l-7.27,15.81L41.69,179.6a.33.33,0,0,0-.27-.17h-3.5a.29.29,0,0,0-.3.25v21a.32.32,0,0,0,.3.26h3.43a.31.31,0,0,0,.32-.26V188.34L47.42,200a.37.37,0,0,0,.26.14h3.23a.36.36,0,0,0,.28-.14l5.36-11.38V200.7a.32.32,0,0,0,.32.26H60.3a.31.31,0,0,0,.31-.26v-21a.28.28,0,0,0-.31-.25"/><path class="cls-1" d="M76.1,179,67.79,200.6c-.09.19,0,.36.27.36h3.75a.28.28,0,0,0,.27-.17l.84-2.25h6.91l.87,2.25A.32.32,0,0,0,81,201h3.78a.24.24,0,0,0,.23-.36L76.67,179a.34.34,0,0,0-.57,0m-1.88,15.92,2.16-6.44,2.13,6.44Z"/><path class="cls-1" d="M109.22,179.4h-3.41a.3.3,0,0,0-.32.24v14.3l-9.77-14.45c0-.06-.15-.09-.2-.09H92a.24.24,0,0,0-.27.24V200.7A.25.25,0,0,0,92,201h3.46a.27.27,0,0,0,.26-.26V186.54l9.75,14.32a.39.39,0,0,0,.24.1h3.49a.28.28,0,0,0,.3-.26V179.64a.27.27,0,0,0-.3-.24"/><path class="cls-1" d="M124.91,179l-8.3,21.63c-.12.19,0,.36.26.36h3.76c.1,0,.25-.08.27-.17l.82-2.25h6.93l.87,2.25a.3.3,0,0,0,.25.17h3.77a.25.25,0,0,0,.25-.36L125.46,179a.32.32,0,0,0-.55,0M123,194.89l2.15-6.44,2.13,6.44Z"/><path class="cls-1" d="M159.27,188.49h-9a.28.28,0,0,0-.29.25v3.11a.27.27,0,0,0,.29.25h5.29v3a6.7,6.7,0,0,1-5,2.24c-3.67,0-6.61-2.12-6.61-7.1,0-4.45,2.94-7.11,6.61-7.11a6.62,6.62,0,0,1,4.68,2,.4.4,0,0,0,.42,0l2.45-2.45a.25.25,0,0,0,0-.36,10.34,10.34,0,0,0-7.55-3.14,10.7,10.7,0,0,0-10.7,11.06c0,7.06,4.52,11.09,10.25,11.09a7.48,7.48,0,0,0,5.67-2.38l.13,1.88a.24.24,0,0,0,.27.22h3a.3.3,0,0,0,.32-.24v-12a.31.31,0,0,0-.32-.25"/><path class="cls-1" d="M215.45,179.43h-3.51a.46.46,0,0,0-.29.17l-7.25,15.81-7.58-15.81a.35.35,0,0,0-.27-.17H193a.28.28,0,0,0-.3.25v21a.31.31,0,0,0,.3.26h3.44a.32.32,0,0,0,.32-.26V188.34L202.56,200a.36.36,0,0,0,.23.14h3.27a.47.47,0,0,0,.27-.14l5.38-11.38V200.7a.27.27,0,0,0,.29.26h3.45a.3.3,0,0,0,.3-.26v-21a.27.27,0,0,0-.3-.25"/><path class="cls-1" d="M239.11,179.43H225.32a.29.29,0,0,0-.29.25v21a.32.32,0,0,0,.29.26h13.79a.31.31,0,0,0,.3-.26v-3.38a.28.28,0,0,0-.3-.24H229.06v-4.92h8.29a.28.28,0,0,0,.3-.24v-3.35a.27.27,0,0,0-.3-.25h-8.29v-5h10.05c.17,0,.3-.1.3-.24v-3.41a.28.28,0,0,0-.3-.25"/><path class="cls-1" d="M264.86,179.4h-3.4a.27.27,0,0,0-.3.24v14.3l-9.77-14.45a.33.33,0,0,0-.22-.09h-3.5a.26.26,0,0,0-.29.24V200.7a.27.27,0,0,0,.29.26h3.46a.3.3,0,0,0,.3-.26V186.54l9.73,14.32c0,.06.16.1.24.1h3.46a.28.28,0,0,0,.29-.26V179.64a.27.27,0,0,0-.29-.24"/><path class="cls-1" d="M285,179.62H272.89c-.22,0-.33.12-.33.25v3.19c0,.13.11.2.33.2h4V200.7a.24.24,0,0,0,.26.24h3.44a.27.27,0,0,0,.28-.24V183.26h4c.18,0,.32-.07.32-.2v-3.19a.3.3,0,0,0-.32-.25"/><path class="cls-1" d="M311.16,179.43h-3.45a.27.27,0,0,0-.3.25v21a.3.3,0,0,0,.3.26h3.45a.3.3,0,0,0,.3-.26v-21a.27.27,0,0,0-.3-.25"/><path class="cls-1" d="M337.85,179.4h-3.42a.28.28,0,0,0-.3.24v14.3l-9.76-14.45a.32.32,0,0,0-.23-.09h-3.5a.25.25,0,0,0-.25.24V200.7a.26.26,0,0,0,.25.26h3.48a.29.29,0,0,0,.27-.26V186.54l9.74,14.32c0,.06.18.1.23.1h3.49a.29.29,0,0,0,.31-.26V179.64a.29.29,0,0,0-.31-.24"/><path class="cls-1" d="M370.06,179.43h-3.48a.43.43,0,0,0-.3.17l-7.22,15.81-7.59-15.81a.43.43,0,0,0-.28-.17h-3.5c-.2,0-.32.12-.32.25v21a.31.31,0,0,0,.32.26h3.43a.31.31,0,0,0,.31-.26V188.34L357.19,200a.39.39,0,0,0,.25.14h3.25A.39.39,0,0,0,361,200l5.36-11.38V200.7a.32.32,0,0,0,.32.26h3.42a.33.33,0,0,0,.33-.26v-21a.3.3,0,0,0-.33-.25"/><path class="cls-1" d="M389.46,179.14c-7.13,0-10.58,5.53-10.58,11s3.45,11.06,10.58,11.06c7,0,10.51-5.56,10.51-11.06s-3.55-11-10.51-11m0,18.21c-4.32,0-6.44-3.58-6.44-7.15s2.12-7.18,6.44-7.18,6.38,3.61,6.38,7.18-2.16,7.15-6.38,7.15"/><path class="cls-1" d="M419.75,190a4.56,4.56,0,0,0,2.94-4.5c0-6.27-7.17-6.09-7.17-6.09h-6.89a.27.27,0,0,0-.27.25v21a.3.3,0,0,0,.27.26h6.89c1.45,0,7.45-.28,7.45-6.24a4.93,4.93,0,0,0-3.22-4.7m-7.38-6.65h3.15s3.14-.18,3.14,2.38c0,2.31-2.58,2.53-3.14,2.53h-3.15ZM415.52,197h-3.15v-5h3.15c.67,0,3.43,0,3.43,2.57,0,2-2.1,2.42-3.43,2.42"/><path class="cls-1" d="M434.88,179.43h-3.44a.27.27,0,0,0-.3.25v21a.3.3,0,0,0,.3.26h3.44a.32.32,0,0,0,.31-.26v-21a.28.28,0,0,0-.31-.25"/><path class="cls-1" d="M455.44,197h-7.35V179.68c0-.13-.1-.25-.3-.25h-3.43a.28.28,0,0,0-.31.25v21a.31.31,0,0,0,.31.26h11.08a.31.31,0,0,0,.31-.26v-3.48a.3.3,0,0,0-.31-.25"/><path class="cls-1" d="M467.49,179.43h-3.43c-.2,0-.33.12-.33.25v21a.32.32,0,0,0,.33.26h3.43a.32.32,0,0,0,.31-.26v-21a.29.29,0,0,0-.31-.25"/><path class="cls-1" d="M482.9,179l-8.29,21.63c-.11.19,0,.36.25.36h3.75a.28.28,0,0,0,.27-.17l.84-2.25h6.88l.91,2.25a.29.29,0,0,0,.24.17h3.78a.24.24,0,0,0,.24-.36L483.46,179a.33.33,0,0,0-.56,0M481,194.89l2.18-6.44,2.11,6.44Z"/><path class="cls-1" d="M512.83,185.82c0-6.33-6-6.39-7.2-6.39h-6.89a.27.27,0,0,0-.27.25v21a.27.27,0,0,0,.27.24h3.47a.29.29,0,0,0,.32-.24v-8.45h2.29l3.88,8.54c0,.07.18.15.28.15h3.81c.2,0,.32-.15.22-.34-1.33-3-2.76-6-4.09-9a5.66,5.66,0,0,0,3.91-5.77m-7.2,2.5h-3.1v-5h3.1c.63,0,3.16.14,3.16,2.49s-2.28,2.5-3.16,2.5"/><path class="cls-1" d="M524.91,179.43h-3.45a.27.27,0,0,0-.3.25v21a.3.3,0,0,0,.3.26h3.45a.3.3,0,0,0,.29-.26v-21a.27.27,0,0,0-.29-.25"/><path class="cls-1" d="M543.87,179.14c-7.09,0-10.56,5.53-10.56,11s3.47,11.06,10.56,11.06,10.51-5.56,10.51-11.06-3.53-11-10.51-11m0,18.21c-4.29,0-6.44-3.58-6.44-7.15s2.15-7.18,6.44-7.18,6.41,3.61,6.41,7.18-2.18,7.15-6.41,7.15"/><path class="cls-1" d="M554.33,163,500.07,47.27H481.92l6.23,14-40.69,84.82-31.07.09V65.07l13.14-16h-21.3l-46.69,55.82L315.46,49.05H294.14l0,0-56,.12a60.33,60.33,0,0,0-20.43-3.48A62.25,62.25,0,0,0,175.21,62.4,58,58,0,0,0,161.89,81,55.54,55.54,0,0,0,157,104.27a60.8,60.8,0,0,0,15.93,41.67l-40.72.1a18,18,0,0,1-4.7-.53,10.4,10.4,0,0,1-3.82-2,25.36,25.36,0,0,1-3.81-3.9c-1.33-1.6-2.91-3.76-4.73-6.39l-8.77-18.16q12.29-3,19.2-11.29c4.65-5.46,7-12.53,7-21.17a36.81,36.81,0,0,0-2.64-14.33,29.48,29.48,0,0,0-7.41-10.54,32.65,32.65,0,0,0-11.29-6.48,44.14,44.14,0,0,0-14.23-2.21H37.62V162.8H54.08V120.12a32.81,32.81,0,0,1,10.51-3.6,71.58,71.58,0,0,1,10.82-.83H88.6l13.78,29.13a32.58,32.58,0,0,0,7.24,10.37,26.93,26.93,0,0,0,8.64,5.32,31.67,31.67,0,0,0,9.46,2c2.71.19,52.41.27,71.86.31a62.11,62.11,0,0,0,18,2.6,60.18,60.18,0,0,0,23.29-4.57,62.34,62.34,0,0,0,19.37-12.5,59.92,59.92,0,0,0,13.25-18.76,56.26,56.26,0,0,0,4.92-23.48,59.09,59.09,0,0,0-4.78-23.79,60.35,60.35,0,0,0-10.61-16.52l44.23.2V162.8h16.18V84.58l38.19,46.5,38.55-46.5V162.8h16.18v0c6.55,0,15.36.11,23,.13l0,.1h17.82l2.88-5.35a11.79,11.79,0,0,1,3.47-3.79,28,28,0,0,1,6.81-3.68,53.1,53.1,0,0,1,10.18-2.74,78.31,78.31,0,0,1,13.68-1.06h34.29L535.89,163ZM96.85,98.91H75.39a82.08,82.08,0,0,0-10.88.7,27.06,27.06,0,0,0-10.43,3.77V65.83H96.85a32.72,32.72,0,0,1,7.53.83,17.39,17.39,0,0,1,6.06,2.71,13.54,13.54,0,0,1,4.08,4.93,16.41,16.41,0,0,1,1.5,7.39q0,9.09-5.28,13.16c-3.54,2.7-8.16,4.06-13.89,4.06m161.58,23.38a44.76,44.76,0,0,1-9.53,13.78,43.61,43.61,0,0,1-14.06,9.22,44.15,44.15,0,0,1-17.14,3.33,45.32,45.32,0,0,1-16.92-3.19,46.21,46.21,0,0,1-14.2-8.84,40.57,40.57,0,0,1-9.81-13.47,39.67,39.67,0,0,1-3.64-17,44.24,44.24,0,0,1,3.41-17.58,42.41,42.41,0,0,1,9.36-13.86A41.88,41.88,0,0,1,200,65.65a48,48,0,0,1,17.52-3.19,46.31,46.31,0,0,1,17.08,3.15,43.63,43.63,0,0,1,14.13,8.81A42.72,42.72,0,0,1,258.43,88,41.17,41.17,0,0,1,262,105.1a41.6,41.6,0,0,1-3.53,17.19m241.78,7.32q-11.77,0-18.74,1.91c-4.63,1.28-7.93,2.78-10,4.49l24.92-54.42,24.64,48Z"/><path class="cls-1" d="M183.12,179.43h-13.8a.27.27,0,0,0-.27.25v21a.3.3,0,0,0,.27.26h13.8a.32.32,0,0,0,.31-.26v-3.38a.29.29,0,0,0-.31-.24H173.07v-4.92h8.33a.26.26,0,0,0,.27-.24v-3.35a.26.26,0,0,0-.27-.25h-8.33v-5h10.05c.17,0,.31-.1.31-.24v-3.41a.29.29,0,0,0-.31-.25"/></svg>