<svg id="Capa_1" data-name="Capa 1" xmlns="http://www.w3.org/2000/svg" viewBox="0 0 710 256"><defs><style>.cls-1{fill:#d7e51c;}.cls-2{font-size:151.73px;font-family:Axiforma-Bold, Axiforma;font-weight:700;}.cls-2,.cls-4{fill:#fff;}.cls-3{letter-spacing:-0.01em;}.cls-4{font-size:18.62px;font-family:Axiforma-Light, Axiforma;font-weight:300;letter-spacing:1.18em;}.cls-5{letter-spacing:1.16em;}.cls-6{letter-spacing:1.18em;}.cls-7{letter-spacing:1.18em;}</style></defs><path class="cls-1" d="M241.38,163.29,200.25,90.94C194.19,80.28,181,75.43,169.81,80.4a23.42,23.42,0,0,0-11.67,11.28L91.22,208.62c-5.84,10.21-3.86,23.44,5.32,30.78a23.7,23.7,0,0,0,35.37-6.67l28.31-49.47a22,22,0,0,1,38.14.05c6.48,11.39,12.32,26.19,28.59,21C245,198.58,250.23,178.85,241.38,163.29Z"/><path class="cls-1" d="M9.27,89.62,50.4,162c6.06,10.66,19.24,15.51,30.44,10.54a23.44,23.44,0,0,0,11.67-11.27l66.92-117c5.84-10.21,3.86-23.44-5.32-30.78a23.71,23.71,0,0,0-35.37,6.67L90.43,69.66a22,22,0,0,1-38.14-.06C45.81,58.21,40,43.41,23.7,48.59,5.66,54.33.42,74.06,9.27,89.62Z"/><text class="cls-2" transform="matrix(1, 0.01, -0.01, 1, 294.58, 156.78)">vit<tspan class="cls-3" x="201.19" y="0">t</tspan><tspan x="269.93" y="0">a. </tspan></text><text class="cls-4" transform="matrix(1, 0.01, -0.01, 1, 316.96, 192.06)">GRAL. L<tspan class="cls-5" x="223.34" y="0">A</tspan><tspan x="257.1" y="0">G</tspan><tspan class="cls-6" x="294.33" y="0">O</tspan><tspan class="cls-7" x="332.28" y="0">S</tspan></text></svg>