<svg xmlns="http://www.w3.org/2000/svg" width="202.93" height="69.181" viewBox="0 0 202.93 69.181">
  <g id="Grupo_481" data-name="Grupo 481" transform="translate(-773.097 -468.465)">
    <path id="Trazado_2361" data-name="Trazado 2361" d="M855.162,524.748,843.12,503.566a7.057,7.057,0,0,0-8.911-3.085,6.875,6.875,0,0,0-3.417,3.3L811.2,538.017a7.064,7.064,0,0,0,1.558,9.009,6.94,6.94,0,0,0,10.355-1.952l8.287-14.483a6.427,6.427,0,0,1,11.165.016c1.9,3.333,3.606,7.668,8.369,6.152C856.219,535.078,857.751,529.3,855.162,524.748Z" transform="translate(-12.883 -10.908)" fill="#d7e51c"/>
    <path id="Trazado_2362" data-name="Trazado 2362" d="M774.329,492.272l12.042,21.181a7.058,7.058,0,0,0,8.911,3.084,6.873,6.873,0,0,0,3.416-3.3L818.288,479a7.063,7.063,0,0,0-1.558-9.01,6.939,6.939,0,0,0-10.354,1.952l-8.287,14.484a6.427,6.427,0,0,1-11.165-.016c-1.9-3.334-3.607-7.668-8.369-6.152C773.272,481.942,771.74,487.717,774.329,492.272Z" transform="translate(0 0)" fill="#d7e51c"/>
    <path id="Trazado_2363" data-name="Trazado 2363" d="M922.63,498.119l6.884.053L918.8,522.252l-4.8-.037-10.3-24.242,6.884.053,5.965,15.725Z" transform="translate(-45.309 -10.237)" fill="#fff"/>
    <path id="Trazado_2364" data-name="Trazado 2364" d="M948.27,489a3.944,3.944,0,0,1,.042-5.464,4,4,0,0,1,5.508.042,3.942,3.942,0,0,1-.042,5.463A4,4,0,0,1,948.27,489Zm5.648,28.07-6.263-.048.186-24.206,6.263.048Z" transform="translate(-60.394 -4.854)" fill="#fff"/>
    <path id="Trazado_2365" data-name="Trazado 2365" d="M982.562,516.828a12.524,12.524,0,0,1-7.166,1.944c-5.552-.042-8.412-3.351-8.364-9.614l.076-9.994-3.953-.03.04-5.24,4,.031.065-8.573,6.218.048-.066,8.573,8,.061-.041,5.24-7.995-.061-.073,9.594c-.022,2.842,1.122,4.273,3.387,4.29a8.258,8.258,0,0,0,4.051-1.212Z" transform="translate(-65.931 -5.858)" fill="#fff"/>
    <path id="Trazado_2366" data-name="Trazado 2366" d="M1013.914,517.069a12.528,12.528,0,0,1-7.166,1.944c-5.551-.043-8.413-3.351-8.365-9.614l.077-9.993-3.953-.031.04-5.24,4,.031.066-8.572,6.218.047-.066,8.573,7.995.061-.04,5.24-8-.061-.073,9.594c-.021,2.842,1.123,4.273,3.388,4.29a8.26,8.26,0,0,0,4.051-1.213Z" transform="translate(-76.807 -5.942)" fill="#fff"/>
    <path id="Trazado_2367" data-name="Trazado 2367" d="M1046.2,498.785l5.952.046-.186,24.205-5.952-.045.022-2.8a10.074,10.074,0,0,1-7.755,3.316,11.242,11.242,0,0,1-8.588-3.708,12.948,12.948,0,0,1-3.305-9.175,12.51,12.51,0,0,1,3.489-8.99,11.331,11.331,0,0,1,8.6-3.533,10.038,10.038,0,0,1,7.7,3.568Zm-1.921,7.136a6.812,6.812,0,0,0-9.727-.074,7.112,7.112,0,0,0-1.9,4.916,6.984,6.984,0,0,0,1.871,4.989,6.757,6.757,0,0,0,9.683.074,7.251,7.251,0,0,0,.076-9.9Z" transform="translate(-87.868 -10.282)" fill="#fff"/>
    <path id="Trazado_2368" data-name="Trazado 2368" d="M1072.731,529.975a3.62,3.62,0,1,1,3.659,3.67A3.568,3.568,0,0,1,1072.731,529.975Z" transform="translate(-103.943 -20.115)" fill="#fff"/>
  </g>
</svg>
