<svg id="Capa_1" data-name="Capa 1" xmlns="http://www.w3.org/2000/svg" viewBox="0 0 300 300"><defs><style>.cls-1{fill:#ffefed;}.cls-2{fill:#263238;}.cls-3{fill:#ffbe9d;}.cls-4{fill:#eb996e;}.cls-5{fill:#0e7a73;}.cls-6{fill:#455a64;}.cls-7{fill:#fafafa;}.cls-8{opacity:0.3;}.cls-13,.cls-9{opacity:0.4;}.cls-10,.cls-13{fill:#fff;}.cls-11{opacity:0.5;}.cls-11,.cls-13{isolation:isolate;}.cls-12{fill:#f5f5f5;}.cls-14{fill:#ebebeb;}</style></defs><g id="Ride_a_bicycle-pana" data-name="Ride a bicycle-pana"><g id="freepik--background-simple--inject-3"><path id="Trazado_557" data-name="Trazado 557" class="cls-1" d="M218.17,22.53c-20.28-8.1-45.65-3.55-60.1,12.78-5.58,6.32-9.39,14-14.39,20.78S132,69.1,123.61,70.4c-9.25,1.44-18.21-3.39-27.46-4.89C79.18,62.77,62,71.76,50.57,84.6,26.74,111.48,22.24,157,44.92,184.81c25.72,31.54,59.81,40.67,95.7,39.55s69.54-17.85,79.33-31.28c16.27-14.56,25.14-26.84,36.27-57.75,7.4-20.53,7.29-43,2.13-64.23S238.44,30.64,218.17,22.53Z"/></g><g id="freepik--Floor--inject-3"><path id="Trazado_558" data-name="Trazado 558" class="cls-2" d="M297,265.38c0,.1-63.07.17-140.85.17s-140.87-.07-140.87-.17,63.06-.16,140.87-.16S297,265.29,297,265.38Z"/></g><g id="freepik--Character--inject-3"><path id="Trazado_559" data-name="Trazado 559" class="cls-2" d="M144.45,95.77A26.52,26.52,0,0,0,141,92.83,5.4,5.4,0,0,1,138.76,89c0-1.38.83-2.63,1.05-4a17.37,17.37,0,0,0-.22-4,10.74,10.74,0,0,1,4.5-9,14.21,14.21,0,0,1,10-2.39c1.25.15,3.49.5,4.49,1.26,1.31,1,3.24,3.27,3.57,4.91,1,4.9-2.57,9.6-5.71,13.49a17.37,17.37,0,0,1-13.08,6.37"/><path id="Trazado_560" data-name="Trazado 560" class="cls-3" d="M156,73.41a6.1,6.1,0,0,1,6.14,6c0,.09,0,.18,0,.27a61.7,61.7,0,0,1-1.19,11.38c-1.48,5.66-6,6-6,6s-.43,3.59-.78,7a6.33,6.33,0,0,1-6.93,5.41h0c-3.46-.26-5-2.95-4.76-6.18l.54-24c.28-2.75,4.23-4.44,7-4.89Z"/><path id="Trazado_561" data-name="Trazado 561" class="cls-2" d="M160.67,82.76a.73.73,0,0,1-.78.67.7.7,0,0,1-.69-.72v0A.73.73,0,0,1,160,82a.69.69,0,0,1,.69.71v0Z"/><path id="Trazado_562" data-name="Trazado 562" class="cls-2" d="M160.85,82.07c-.1.09-.63-.38-1.42-.46s-1.41.27-1.48.16.06-.21.34-.37a2,2,0,0,1,1.21-.24,1.86,1.86,0,0,1,1.11.48C160.84,81.85,160.9,82,160.85,82.07Z"/><path id="Trazado_563" data-name="Trazado 563" class="cls-2" d="M153,82.13a.73.73,0,0,1-.79.68.71.71,0,0,1-.69-.73v0a.74.74,0,0,1,.79-.66.69.69,0,0,1,.69.71v0Z"/><path id="Trazado_564" data-name="Trazado 564" class="cls-2" d="M153,81.45c-.11.09-.63-.38-1.42-.46s-1.42.27-1.49.16.07-.21.34-.37a2,2,0,0,1,1.21-.25,1.94,1.94,0,0,1,1.11.49C153,81.23,153.08,81.41,153,81.45Z"/><path id="Trazado_565" data-name="Trazado 565" class="cls-2" d="M155.35,87.62a5.75,5.75,0,0,1,1.31-.11c.21,0,.4,0,.45-.15a1.06,1.06,0,0,0-.08-.63c-.13-.51-.29-1-.44-1.6a28.29,28.29,0,0,1-1-4.17A25.4,25.4,0,0,1,156.92,85c.15.56.29,1.1.43,1.61a1.25,1.25,0,0,1,0,.81.51.51,0,0,1-.36.26,2.16,2.16,0,0,1-.36,0,5.49,5.49,0,0,1-1.28-.1Z"/><path id="Trazado_566" data-name="Trazado 566" class="cls-4" d="M155,97.06a14.63,14.63,0,0,1-7.51-2.81s1.48,4.14,7.29,4.17Z"/><path id="Trazado_567" data-name="Trazado 567" class="cls-5" d="M154.81,89.5a1.44,1.44,0,0,0-1.26-.65,1.28,1.28,0,0,0-1,.39.84.84,0,0,0-.15.94.94.94,0,0,0,1,.36,3,3,0,0,0,1.08-.5.82.82,0,0,0,.25-.21.27.27,0,0,0,0-.3"/><path id="Trazado_568" data-name="Trazado 568" class="cls-2" d="M152.94,87.94c.13,0,.05.87.73,1.55s1.6.68,1.59.8-.21.15-.62.12a2.19,2.19,0,0,1-1.34-.63,1.9,1.9,0,0,1-.55-1.29C152.77,88.13,152.89,87.93,152.94,87.94Z"/><path id="Trazado_569" data-name="Trazado 569" class="cls-2" d="M153.54,78.36c-.1.21-.88,0-1.82,0s-1.72.2-1.82,0,.1-.3.43-.47a3,3,0,0,1,1.38-.34,3.24,3.24,0,0,1,1.4.3C153.44,78.07,153.59,78.26,153.54,78.36Z"/><path id="Trazado_570" data-name="Trazado 570" class="cls-2" d="M160.79,79.74c-.16.17-.69-.07-1.35-.14s-1.25,0-1.33-.2,0-.27.32-.42a2,2,0,0,1,2.16.28C160.8,79.46,160.85,79.66,160.79,79.74Z"/><path id="Trazado_571" data-name="Trazado 571" class="cls-2" d="M142.4,93.27c1.12-.93,4.5-6.67,3.17-7.28a2.06,2.06,0,0,1-2-1.1,3,3,0,0,1-.09-2.32,1.93,1.93,0,0,1,1.87-1.11c.8.06,1.84,1.35,1.84,1.35.67.06.56-.72.55-1.39s-.31-1.32-.32-2c0-1.25-.47-3.76,1.76-4.79,1.8-.81,3.37.81,4.42,1.55a5.64,5.64,0,0,0,3.62.92,3.15,3.15,0,0,0,2.88-1.36c.63-1.19-.06-2.62-.74-3.76l-12.51,1.34-4.44,4.29Z"/><path id="Trazado_572" data-name="Trazado 572" class="cls-2" d="M159.52,76.47a7.94,7.94,0,0,0,.63-5.7A5.08,5.08,0,0,0,156,67.14c-1.71-.15-3.34.76-5.05.82a5.37,5.37,0,0,1-4.66-2.5,3.05,3.05,0,0,0,1.59,3.44l-1.29.07a8.59,8.59,0,0,0,5.76,1.81,11.55,11.55,0,0,1,2.56-.08,2.08,2.08,0,0,1,1.82,1.58c.15,1.19-1.19,2.21-1,3.4a1.87,1.87,0,0,0,2,1.35,4.51,4.51,0,0,0,2.36-1"/><path id="Trazado_573" data-name="Trazado 573" class="cls-2" d="M140.17,78a6.83,6.83,0,0,0,1.1-4.5,3.73,3.73,0,0,0-3-3.21,4.59,4.59,0,0,0-2.87.84,6.81,6.81,0,0,0-2.28,2.25,4.12,4.12,0,0,0-.49,3.12,4.6,4.6,0,0,0,2.9,2.9,13.41,13.41,0,0,0,4.17.7"/><path id="Trazado_574" data-name="Trazado 574" class="cls-2" d="M151.48,64.68a1.92,1.92,0,0,0-.37.79,1.94,1.94,0,0,0,.09,1,5.4,5.4,0,0,0,.62,1.25,3,3,0,0,0,1.1,1.17,2.08,2.08,0,0,0,1.76-.07c1.19-.56,2.19-1.88,3.82-2.33a2.92,2.92,0,0,1,2.36.3A2.85,2.85,0,0,1,162,68.67a6.71,6.71,0,0,1-.46,3.65,7,7,0,0,1-1.31,2.11c-.15.16-.31.32-.48.47s-.18.15-.19.13.21-.23.58-.69a7.92,7.92,0,0,0,1.19-2.1,6.68,6.68,0,0,0,.38-3.51,2.58,2.58,0,0,0-1-1.69,2.66,2.66,0,0,0-2.1-.24,6.21,6.21,0,0,0-2,1.06,9.66,9.66,0,0,1-1.8,1.25,2.32,2.32,0,0,1-2,0,3.15,3.15,0,0,1-1.2-1.33,6.29,6.29,0,0,1-.6-1.29,2.12,2.12,0,0,1,0-1.09,1.47,1.47,0,0,1,.3-.63A.77.77,0,0,1,151.48,64.68Z"/><path id="Trazado_575" data-name="Trazado 575" class="cls-2" d="M144.93,67.36a7.32,7.32,0,0,0,2,1.52,5.52,5.52,0,0,0,2.59.58c1,0,2.13-.28,3.35-.39a6.27,6.27,0,0,1,1.78.1A4.38,4.38,0,0,1,158,73.94a1.75,1.75,0,0,1-.17.67s0-.25,0-.68a4.54,4.54,0,0,0-.28-1.79A4.36,4.36,0,0,0,156,70.07a4.49,4.49,0,0,0-1.44-.62,5.64,5.64,0,0,0-1.69-.08c-1.17.1-2.29.37-3.36.36a5.48,5.48,0,0,1-4.18-1.84A1.66,1.66,0,0,1,144.93,67.36Z"/><path id="Trazado_576" data-name="Trazado 576" class="cls-2" d="M134.61,73.37a2.35,2.35,0,0,1,.22-.45,9.53,9.53,0,0,1,.77-1.11,5.61,5.61,0,0,1,1.51-1.36,3.36,3.36,0,0,1,2.46-.43,3,3,0,0,1,1.87,1.61,3.3,3.3,0,0,1,.26,2,3.59,3.59,0,0,1-.51,1.25,1.15,1.15,0,0,1-.31.39,6.45,6.45,0,0,0,.58-1.7,3.1,3.1,0,0,0-.29-1.87,2.7,2.7,0,0,0-1.71-1.44,3.16,3.16,0,0,0-2.23.39,5.61,5.61,0,0,0-1.49,1.25A17.45,17.45,0,0,1,134.61,73.37Z"/><path id="Trazado_577" data-name="Trazado 577" class="cls-2" d="M130.37,70.92a8.34,8.34,0,0,0,7.06-.22,2.61,2.61,0,0,1-.91.63,6.83,6.83,0,0,1-2.59.62,6.48,6.48,0,0,1-2.61-.45A2.47,2.47,0,0,1,130.37,70.92Z"/><path id="Trazado_578" data-name="Trazado 578" class="cls-2" d="M129.39,80.87c0-.06.65.33,1.79.63a7.65,7.65,0,0,0,8-2.85c.7-.92.95-1.61,1-1.59a2,2,0,0,1-.15.49,7,7,0,0,1-.68,1.26,7.45,7.45,0,0,1-8.25,2.93,6.69,6.69,0,0,1-1.3-.53C129.53,81,129.38,80.89,129.39,80.87Z"/><path id="Trazado_579" data-name="Trazado 579" class="cls-6" d="M147.57,68.37s.16.2.47.51a4.53,4.53,0,0,0,1.52,1,4.45,4.45,0,0,0,2.67.26c1-.21,2-.81,3.27-1.07a3.7,3.7,0,0,1,1.84.07,2.68,2.68,0,0,1,1.37,1,5.05,5.05,0,0,1,.86,2.71,5,5,0,0,1-.27,1.88,1.65,1.65,0,0,1-.29.63,7.12,7.12,0,0,0,.33-2.51,4.93,4.93,0,0,0-.87-2.54,2.43,2.43,0,0,0-1.25-.93,3.54,3.54,0,0,0-1.68,0c-1.16.24-2.2.83-3.27,1a4.43,4.43,0,0,1-2.82-.34A4.47,4.47,0,0,1,147.92,69,1.85,1.85,0,0,1,147.57,68.37Z"/><path id="Trazado_580" data-name="Trazado 580" class="cls-6" d="M150.35,70.83a5.78,5.78,0,0,0,1.48.52,7,7,0,0,0,1.71.06c.62,0,1.36-.14,2.14-.14a3.12,3.12,0,0,1,1.13.19,2,2,0,0,1,.86.7,3,3,0,0,1,.48,1.73,5.89,5.89,0,0,1-.17,1.18.94.94,0,0,1-.13.41c-.07,0,.07-.62.06-1.59a2.81,2.81,0,0,0-.48-1.56,1.85,1.85,0,0,0-.74-.58,3.2,3.2,0,0,0-1-.16c-.74,0-1.46.09-2.12.11a6.2,6.2,0,0,1-1.77-.13A2.4,2.4,0,0,1,150.35,70.83Z"/><path id="Trazado_581" data-name="Trazado 581" class="cls-6" d="M139.42,82.58a.91.91,0,0,1-.47-.18,1.65,1.65,0,0,1-.59-1.22,2.15,2.15,0,0,1,1-1.76,4.24,4.24,0,0,1,2.36-.68c.87,0,1.67,0,2.38-.07a6.47,6.47,0,0,0,1.84-.52c1-.45,1.51-.93,1.55-.88s-.09.15-.33.35a5.57,5.57,0,0,1-1.12.74,6.17,6.17,0,0,1-1.87.63c-.8.07-1.61.1-2.41.1a4.07,4.07,0,0,0-2.2.62,1.94,1.94,0,0,0-.9,1.52,1.53,1.53,0,0,0,.44,1.11A2.82,2.82,0,0,0,139.42,82.58Z"/><path id="Trazado_582" data-name="Trazado 582" class="cls-6" d="M142.67,73.08a.91.91,0,0,1-.14-.51,1.93,1.93,0,0,1,.55-1.34,2.59,2.59,0,0,1,2-.79,6.61,6.61,0,0,1,2.54.67,12.45,12.45,0,0,1,3.88,2.65,9.68,9.68,0,0,1,.95,1.07,2.11,2.11,0,0,1,.28.45s-.51-.55-1.38-1.36a14.37,14.37,0,0,0-3.86-2.5,6.81,6.81,0,0,0-2.42-.66,2.35,2.35,0,0,0-1.82.63,1.86,1.86,0,0,0-.63,1.18C142.63,72.89,142.7,73.08,142.67,73.08Z"/><path id="Trazado_583" data-name="Trazado 583" class="cls-6" d="M133.06,76.12a1.14,1.14,0,0,1-.56-.25,2.18,2.18,0,0,1-.83-1.46,2.72,2.72,0,0,1,.92-2.29,4.09,4.09,0,0,1,2.88-1,5.53,5.53,0,0,1,2.89.95A5.25,5.25,0,0,1,140,74a4.74,4.74,0,0,1,.5,1.6,1.62,1.62,0,0,1,0,.62,7.86,7.86,0,0,0-.7-2.1,5.16,5.16,0,0,0-4.32-2.61,3.81,3.81,0,0,0-2.67.87,2.53,2.53,0,0,0-.9,2,2.16,2.16,0,0,0,.69,1.38C132.86,76,133.08,76.09,133.06,76.12Z"/><path id="Trazado_584" data-name="Trazado 584" class="cls-6" d="M134.53,78.29a1.25,1.25,0,0,1-.2-1.15A2.21,2.21,0,0,1,135,76a3.73,3.73,0,0,1,1.34-.83,4.62,4.62,0,0,1,2.8-.09,2.13,2.13,0,0,1,1,.51s-.41-.15-1.09-.29a5,5,0,0,0-2.63.2,2.73,2.73,0,0,0-1.85,1.71A2.62,2.62,0,0,0,134.53,78.29Z"/><path id="Trazado_585" data-name="Trazado 585" class="cls-4" d="M145.11,84.7s-.19,0-.43-.12a1,1,0,0,1-.37-1,1,1,0,0,1,.75-.76c.28-.07.44,0,.44.06s-.17,0-.37.15a1,1,0,0,0-.51.63,1,1,0,0,0,.22.77C145,84.59,145.12,84.65,145.11,84.7Z"/><path id="Trazado_586" data-name="Trazado 586" class="cls-5" d="M142,74.34a16.33,16.33,0,0,0-1.57,2.55,16.15,16.15,0,0,0-.79,2.9A6.21,6.21,0,0,1,142,74.34Z"/><path id="Trazado_587" data-name="Trazado 587" class="cls-5" d="M139.71,78a3.52,3.52,0,0,1-1,1.12,6.71,6.71,0,0,1-3.38,1.45l-.31,0,.15-.28.12-.24a5.22,5.22,0,0,1,3-2.35,4.17,4.17,0,0,1,1.16-.17,1,1,0,0,1,.43,0c-.51.09-1,.2-1.52.34a5.22,5.22,0,0,0-2.82,2.3l-.12.22-.17-.24a7.38,7.38,0,0,0,3.29-1.3C139.29,78.37,139.66,77.92,139.71,78Z"/><path id="Trazado_588" data-name="Trazado 588" class="cls-5" d="M139,76.79a1.54,1.54,0,0,1-.48,0,5.92,5.92,0,0,1-1.33-.18,6.43,6.43,0,0,1-3.66-2.5l-.17-.25h.71a6.38,6.38,0,0,1,4.32,1.79,5.4,5.4,0,0,1,.9,1.12,1.23,1.23,0,0,1,.22.48,12.08,12.08,0,0,0-1.25-1.43,6.52,6.52,0,0,0-4.16-1.64h-.39l.12-.25a6.58,6.58,0,0,0,3.45,2.45A17,17,0,0,0,139,76.79Z"/><path id="Trazado_589" data-name="Trazado 589" class="cls-7" d="M167.93,145.14c-.09,0-.16-.26-.16-.57s.07-.58.16-.58.16.26.16.58S168,145.14,167.93,145.14Z"/><path id="Trazado_590" data-name="Trazado 590" class="cls-6" d="M102.86,129.34A5.25,5.25,0,0,0,101,133a5.35,5.35,0,0,0,2.75,4.49,10,10,0,0,0,5.3,1.21c2,0,4.15-.38,6.07.29a6,6,0,0,1,2.85,2.1c.29.41.63.89,1.12.88a1.25,1.25,0,0,0,.7-.29,12,12,0,0,0,3.36-3.55,3.6,3.6,0,0,0,.67-2.56,3.5,3.5,0,0,0-1.17-1.75,20.14,20.14,0,0,0-4.91-3.2,21.27,21.27,0,0,0-8-2.41,10.77,10.77,0,0,0-7.81,2.39"/><path id="Trazado_591" data-name="Trazado 591" class="cls-2" d="M156.92,106.32l9.25,24.49,19.37,12.56-4.73,5.89-22.94-12.08-4.82-12.86,3.5-17.13"/><path id="Trazado_592" data-name="Trazado 592" class="cls-5" d="M157.48,122.17c.27,7.14-6,13.1-6,13.1-1.6,2.5-5,11.26-6.79,19.49l-1,4.14s-14.7,2.56-30.65-14l13.27-14.55,1-10.83s1.83-12.76,2.94-14.54c1.88-3,5.31-8.27,25.12-.81l2,1.2.07,16.81"/><path id="Trazado_593" data-name="Trazado 593" class="cls-2" d="M157.57,114.6a5.16,5.16,0,0,1,.1.87c.05.56.11,1.38.15,2.4a31.76,31.76,0,0,1-.49,7.91,13.61,13.61,0,0,1-1.65,4.07,24.69,24.69,0,0,1-2.05,2.92c-.63.8-1.16,1.42-1.53,1.88a4.1,4.1,0,0,1-.63.62,6,6,0,0,1,.52-.72l1.45-1.87a29.07,29.07,0,0,0,2-2.94,13.66,13.66,0,0,0,1.59-4,35,35,0,0,0,.58-7.84c0-1,0-1.78-.06-2.4A4.59,4.59,0,0,1,157.57,114.6Z"/><g id="Grupo_25" data-name="Grupo 25" class="cls-8"><path id="Trazado_594" data-name="Trazado 594" d="M118.75,138.56a8.45,8.45,0,0,0,3.4,5.37,20.56,20.56,0,0,0,5.8,2.88c1.8.63,3.78,1.25,5.63.68,2-.63,3.4-2.47,4.37-4.34.42-.78.86-1.67,1.7-2,1.18-.4,2.33.63,3.19,1.53a7.56,7.56,0,0,0,1.88,1.59,2.73,2.73,0,0,0,2.38.17,2.81,2.81,0,0,0,1.25-3.07,8,8,0,0,0-1.73-3.08l-2.45-3.19a4.78,4.78,0,0,0-2.16-1.84,3.17,3.17,0,0,0-2.66.57,10.37,10.37,0,0,0-2,2c-1.72,2.07-3.76,4.16-6.4,4.64-2.84.53-5.73-1-7.72-3.05a3.16,3.16,0,0,0-1.25-.95,1.89,1.89,0,0,0-1.74.51,5.35,5.35,0,0,0-1.07,1.56"/></g><path id="Trazado_595" data-name="Trazado 595" class="cls-2" d="M148,104.05a8,8,0,0,0-3.63-3,11.75,11.75,0,0,0-5.14-1.55l.7.12c-4.33-.5-9.15,1.25-10.53,5.43a33.37,33.37,0,0,0-1.61,8,61.89,61.89,0,0,1-1.38,8.13c-.36,1.46-4.13,3.57-6.68,4.23s-5.31-.39-8-.56a12.08,12.08,0,0,0-9.24,3.53c-.91.92-1.7,2.29-1.12,3.44.74,1.46,2.85,1.25,4.45.93,4.25-.82,9.13-.56,12.22,2.46,1.83,1.79,2.85,4.38,5,5.73a11.25,11.25,0,0,0,2.44,1,53.61,53.61,0,0,0,8,2.12,1.36,1.36,0,0,0,.91-.07c.42-.23.52-.76.63-1.22.48-1.59,1.88-2.69,2.91-4a18.06,18.06,0,0,0,2-3.75l5.94-13.5a34.32,34.32,0,0,0,2-5.28,35,35,0,0,0,.83-5.38C149,108.56,149.17,106.05,148,104.05Z"/><path id="Trazado_596" data-name="Trazado 596" class="cls-2" d="M106.59,132.63s-3.3.34-3.9,2.3c-.32,1,1.4,2.77,1.4,2.77a5.5,5.5,0,0,1-3-6.88Z"/><path id="Trazado_597" data-name="Trazado 597" class="cls-2" d="M130.84,109.55,142.28,139c-.39.79,22.4,11.22,22.4,11.22l8.19-7.39-22.28-11.57-8.76-25.65a5.86,5.86,0,0,0-6.94-3.83h0a5.86,5.86,0,0,0-4.28,7.1A4.64,4.64,0,0,0,130.84,109.55Z"/><path id="Trazado_598" data-name="Trazado 598" class="cls-6" d="M131.27,106.32s-.07.48-.12,1.36a13.77,13.77,0,0,0,.23,3.68,28.79,28.79,0,0,0,1.7,5.23c.81,1.93,1.57,4.09,2.62,6.26s1.88,4.32,2.67,6.25,1.48,3.65,2.07,5.13,1,2.6,1.38,3.46c.15.38.27.7.36.95a1.33,1.33,0,0,1,.1.34,3,3,0,0,1-.16-.31l-.41-.93-1.48-3.42c-.61-1.42-1.34-3.2-2.14-5.11s-1.63-4.05-2.68-6.21-1.82-4.34-2.6-6.25a27.39,27.39,0,0,1-1.66-5.3,13.1,13.1,0,0,1-.13-3.75c0-.34.09-.68.16-1A1.54,1.54,0,0,1,131.27,106.32Z"/><path id="Trazado_599" data-name="Trazado 599" class="cls-6" d="M164.68,150.18l.13-.14.42-.4,1.6-1.5,5.95-5.44v.18l-22.17-11.51-.1-.05-.06,0v-.06c-3.3-9.35-6.29-17.8-8.47-23.94a10.28,10.28,0,0,0-2.25-3.66,5.93,5.93,0,0,0-1.36-1.14A4,4,0,0,0,137,102a3,3,0,0,0-2,.35,3.53,3.53,0,0,0-.57.45,1.72,1.72,0,0,1,.53-.51,3,3,0,0,1,2-.42,4.15,4.15,0,0,1,1.46.46,6.23,6.23,0,0,1,1.41,1.15,10.34,10.34,0,0,1,2.34,3.72c2.2,6.13,5.22,14.57,8.57,23.9l-.08-.09.1.05,22.15,11.57.15.08-.13.11-6,5.42-1.65,1.45-.43.37Z"/><path id="Trazado_600" data-name="Trazado 600" class="cls-7" d="M142.29,119.57c-.09,0-.22-.15-.29-.4s-.06-.47,0-.5.22.16.29.41S142.38,119.55,142.29,119.57Z"/><path id="Trazado_601" data-name="Trazado 601" class="cls-7" d="M143.54,127.45c-.06.08-.27,0-.49-.17s-.35-.37-.3-.44.28,0,.5.18S143.6,127.38,143.54,127.45Z"/><path id="Trazado_602" data-name="Trazado 602" class="cls-7" d="M147,127.41c-.09,0-.14-.27-.12-.59s.12-.56.2-.56.15.27.12.59S147.1,127.42,147,127.41Z"/><path id="Trazado_603" data-name="Trazado 603" class="cls-7" d="M142.76,132.63c0,.08-.18.11-.35.06s-.29-.15-.26-.24.18-.12.35-.07S142.79,132.56,142.76,132.63Z"/><path id="Trazado_604" data-name="Trazado 604" class="cls-7" d="M147.46,134.06c-.1,0-.17-.31-.17-.7s.07-.71.17-.71.16.31.16.71S147.54,134.06,147.46,134.06Z"/><path id="Trazado_605" data-name="Trazado 605" class="cls-7" d="M146.2,138.26c0,.08-.27.16-.62.16s-.63-.07-.63-.16.28-.17.63-.17S146.2,138.14,146.2,138.26Z"/><path id="Trazado_606" data-name="Trazado 606" class="cls-7" d="M151.63,135.38c-.08,0-.29-.23-.45-.59s-.25-.69-.16-.73.29.23.45.62S151.72,135.35,151.63,135.38Z"/><path id="Trazado_607" data-name="Trazado 607" class="cls-7" d="M155.26,138.41c0,.08-.31.07-.63,0s-.55-.25-.52-.34.3-.07.62,0S155.28,138.32,155.26,138.41Z"/><path id="Trazado_608" data-name="Trazado 608" class="cls-7" d="M160.18,138.58c0,.09-.32.07-.66,0s-.63-.25-.57-.33.32-.08.66,0S160.2,138.49,160.18,138.58Z"/><path id="Trazado_609" data-name="Trazado 609" class="cls-7" d="M159.1,141.62c.06.07-.09.28-.34.48s-.48.29-.54.23.09-.29.34-.48S159.07,141.55,159.1,141.62Z"/><path id="Trazado_610" data-name="Trazado 610" class="cls-7" d="M152.79,141.38c0,.09-.25.17-.57.17s-.57-.08-.57-.17.25-.16.57-.16S152.79,141.26,152.79,141.38Z"/><path id="Trazado_611" data-name="Trazado 611" class="cls-7" d="M163.91,142.59c-.09,0-.18-.26-.2-.63s0-.62.12-.62.18.26.2.62S164,142.58,163.91,142.59Z"/><path id="Trazado_612" data-name="Trazado 612" class="cls-7" d="M139.21,123.76c0,.08-.17.16-.39.16s-.4-.07-.4-.16.18-.17.4-.17S139.21,123.66,139.21,123.76Z"/><path id="Trazado_613" data-name="Trazado 613" class="cls-7" d="M138.25,118.37c-.06.06-.32-.16-.56-.47s-.39-.62-.32-.67.33.15.57.47S138.32,118.31,138.25,118.37Z"/><path id="Trazado_614" data-name="Trazado 614" class="cls-7" d="M140.8,111.86c0,.08-.07.23-.2.41s-.24.31-.33.3-.11-.27.07-.5S140.76,111.78,140.8,111.86Z"/><path id="Trazado_615" data-name="Trazado 615" class="cls-7" d="M133.49,113.62c-.08-.05,0-.33.11-.67s.15-.63.24-.63.19.33.07.73S133.56,113.67,133.49,113.62Z"/><path id="Trazado_616" data-name="Trazado 616" class="cls-7" d="M137.1,108.42c0,.09-.27.22-.63.1s-.51-.4-.44-.45.28.06.55.14S137.08,108.34,137.1,108.42Z"/><path id="Trazado_617" data-name="Trazado 617" class="cls-7" d="M134.08,104.92c0,.08-.2.21-.49.29s-.55.06-.56,0,.19-.22.48-.29S134.08,104.83,134.08,104.92Z"/><path id="Trazado_618" data-name="Trazado 618" class="cls-7" d="M145.73,108.6c-.09,0-.07-.36,0-.74s.25-.69.34-.67.07.36,0,.75S145.82,108.62,145.73,108.6Z"/><path id="Trazado_619" data-name="Trazado 619" class="cls-7" d="M143.18,104.1c0,.07-.33,0-.62-.17s-.54-.37-.5-.45.34,0,.63.17S143.23,104,143.18,104.1Z"/><path id="Trazado_620" data-name="Trazado 620" class="cls-7" d="M129.35,117.76c-.1,0-.13-.33-.08-.72s.16-.7.25-.68.12.33.07.71S129.43,117.78,129.35,117.76Z"/><path id="Trazado_621" data-name="Trazado 621" class="cls-7" d="M129.7,123.49c0,.07-.31,0-.58-.22s-.43-.41-.39-.48.32,0,.59.22S129.75,123.42,129.7,123.49Z"/><path id="Trazado_622" data-name="Trazado 622" class="cls-7" d="M131.64,122c-.1,0-.17-.2-.17-.44s.07-.44.17-.44.16.2.16.44S131.72,122,131.64,122Z"/><path id="Trazado_623" data-name="Trazado 623" class="cls-7" d="M135.33,130.19c-.08,0-.22-.22-.3-.53s-.07-.59,0-.62.22.21.3.53S135.4,130.17,135.33,130.19Z"/><path id="Trazado_624" data-name="Trazado 624" class="cls-7" d="M130,129.3c-.09,0-.1-.36,0-.77s.2-.74.29-.73.1.37,0,.78S130.05,129.32,130,129.3Z"/><path id="Trazado_625" data-name="Trazado 625" class="cls-7" d="M124.77,126.5c0,.08-.37.25-.85.16s-.79-.38-.74-.45.38.06.79.13S124.74,126.4,124.77,126.5Z"/><path id="Trazado_626" data-name="Trazado 626" class="cls-7" d="M126.69,135.82c-.1,0-.15-.3-.13-.67s.12-.62.21-.62.15.3.12.67S126.78,135.83,126.69,135.82Z"/><path id="Trazado_627" data-name="Trazado 627" class="cls-7" d="M132.52,137c-.07.05-.37-.23-.53-.71s-.09-.88,0-.87.17.35.32.77S132.59,136.92,132.52,137Z"/><path id="Trazado_628" data-name="Trazado 628" class="cls-7" d="M137.36,135.56c-.07.06-.23,0-.41-.08s-.35-.09-.38-.18.2-.22.48-.13S137.44,135.51,137.36,135.56Z"/><path id="Trazado_629" data-name="Trazado 629" class="cls-7" d="M131.21,141.38c-.06.07-.34,0-.63-.26s-.49-.45-.43-.52.33,0,.62.26S131.26,141.28,131.21,141.38Z"/><path id="Trazado_630" data-name="Trazado 630" class="cls-7" d="M122.12,131.68c.09,0,.17.24.17.53s-.08.53-.17.53-.16-.24-.16-.53S122,131.68,122.12,131.68Z"/><path id="Trazado_631" data-name="Trazado 631" class="cls-7" d="M116.23,128.94c-.06.06-.33-.1-.63-.37s-.43-.54-.36-.63.33.1.62.37S116.3,128.87,116.23,128.94Z"/><path id="Trazado_632" data-name="Trazado 632" class="cls-7" d="M110.23,130.36c0,.09-.25.15-.54.12s-.53-.12-.52-.21.25-.14.54-.12S110.24,130.27,110.23,130.36Z"/><path id="Trazado_633" data-name="Trazado 633" class="cls-7" d="M105.05,128.09c.06.07-.09.3-.34.52s-.48.34-.55.27.1-.29.34-.51S105,128,105.05,128.09Z"/><path id="Trazado_634" data-name="Trazado 634" class="cls-7" d="M101.42,133.8c-.08-.05,0-.4.15-.85s.11-.81.2-.82.22.38.12.89S101.49,133.88,101.42,133.8Z"/><path id="Trazado_635" data-name="Trazado 635" class="cls-7" d="M146.44,114.15c-.09,0-.2-.31-.25-.73s0-.75.07-.77.2.32.25.73S146.53,114.14,146.44,114.15Z"/><path id="Trazado_636" data-name="Trazado 636" class="cls-7" d="M137.83,101.18c-.05.07-.28,0-.52-.12s-.41-.32-.36-.4.28,0,.52.12A.6.6,0,0,1,137.83,101.18Z"/><path id="Trazado_637" data-name="Trazado 637" class="cls-6" d="M145,102.94A20,20,0,0,0,129,106.07a12.75,12.75,0,0,0-2.91,2.77c-1.71,2.39-2.22,5.6-4.38,7.61-2.63,2.46-6.7,2.26-10.29,1.94s-7.69-.4-10.2,2.18c-1.44,1.47-2.54,3.85-4.6,3.75-1.68-.07-2.72-1.87-3.19-3.5s-.84-3.48-2.25-4.43c-1.64-1.1-4.09-.49-5.58-1.79s-1.12-4.06-2.4-5.72c2.5.58,5.16,1.15,7.56.26a24.36,24.36,0,0,0,3.13-1.72,15.63,15.63,0,0,1,13.49-.81,16.4,16.4,0,0,0,3.89,1.44,7.77,7.77,0,0,0,5.32-1.47,45.68,45.68,0,0,0,4.32-3.64,31.71,31.71,0,0,1,11-6.15,11.23,11.23,0,0,1,5.17-.62c2.21.35,4.09,1.77,5.87,3.12"/><path id="Trazado_638" data-name="Trazado 638" class="cls-7" d="M140.79,98.75a11.89,11.89,0,0,0-2.07-.82,10.68,10.68,0,0,0-6,.24,15.89,15.89,0,0,0-7.2,5.19,36.66,36.66,0,0,0-3.07,4.38,26,26,0,0,1-3.33,4.73,7.74,7.74,0,0,1-2.42,1.7,7.44,7.44,0,0,1-2.83.56,16.84,16.84,0,0,1-5.29-1,31,31,0,0,0-4.64-1.29,9.15,9.15,0,0,0-4.13.18A13.68,13.68,0,0,0,96.7,114c-.75.45-1.48.93-2.18,1.45s-1,.78-1.33,1l-.34.25a.57.57,0,0,1-.13.08.72.72,0,0,0,.1-.1l.33-.29c.29-.25.72-.63,1.29-1.05a21,21,0,0,1,2.17-1.5,12.94,12.94,0,0,1,3.19-1.45,9.5,9.5,0,0,1,4.24-.24,33.08,33.08,0,0,1,4.69,1.25,16.76,16.76,0,0,0,5.19,1,7.16,7.16,0,0,0,2.66-.52,7.39,7.39,0,0,0,2.32-1.63,26.09,26.09,0,0,0,3.28-4.66,35.56,35.56,0,0,1,3.13-4.38A15.78,15.78,0,0,1,132.67,98a10.58,10.58,0,0,1,6.08-.15,8.59,8.59,0,0,1,1.54.63l.37.22a.41.41,0,0,1,.13.08Z"/><path id="Trazado_639" data-name="Trazado 639" class="cls-7" d="M84.76,112.94a4.93,4.93,0,0,0,.49.42,3.83,3.83,0,0,0,1.69.67,5.16,5.16,0,0,0,2.82-.41,11.16,11.16,0,0,0,3.12-2.24,23.92,23.92,0,0,1,3.58-3.09,8.41,8.41,0,0,1,5.28-1.11,24.31,24.31,0,0,1,5.81,1.48,20.11,20.11,0,0,0,6.17,1.39,8.38,8.38,0,0,0,3.13-.49,6.35,6.35,0,0,0,2.5-1.72,20.56,20.56,0,0,0,1.82-2.41,21.21,21.21,0,0,1,1.78-2.34,19.05,19.05,0,0,1,8.44-5.49,11.61,11.61,0,0,1,6.75-.43,5.55,5.55,0,0,1,1.68.81,3.31,3.31,0,0,1,.5.41l-.53-.36a5.83,5.83,0,0,0-1.68-.73,11.62,11.62,0,0,0-6.65.52,19,19,0,0,0-8.27,5.47,23.07,23.07,0,0,0-1.76,2.31,19.21,19.21,0,0,1-1.84,2.46,6.56,6.56,0,0,1-2.64,1.8,8.85,8.85,0,0,1-3.26.52,20.29,20.29,0,0,1-6.25-1.42,24.16,24.16,0,0,0-5.73-1.48,8.11,8.11,0,0,0-5.12,1,24.41,24.41,0,0,0-3.56,3,11.54,11.54,0,0,1-3.2,2.24,5.36,5.36,0,0,1-2.91.37,3.68,3.68,0,0,1-1.7-.75A2.05,2.05,0,0,1,84.76,112.94Z"/><path id="Trazado_640" data-name="Trazado 640" class="cls-7" d="M139.63,99.47a2.62,2.62,0,0,1-.56,0h-.67a5.57,5.57,0,0,0-.91.06,14.75,14.75,0,0,0-5.54,1.65,13.87,13.87,0,0,0-3.24,2.34,17.59,17.59,0,0,0-2.8,3.63c-.86,1.39-1.66,2.91-2.63,4.41a15.13,15.13,0,0,1-3.7,4.11,7.92,7.92,0,0,1-2.54,1.25,9.74,9.74,0,0,1-2.73.39,33.66,33.66,0,0,1-5.11-.63,20.77,20.77,0,0,0-4.59-.36,7.22,7.22,0,0,0-3.75,1.26,24.48,24.48,0,0,0-2.54,2.13,11.87,11.87,0,0,1-2,1.52,5.38,5.38,0,0,1-1.51.56l-.41,0a.33.33,0,0,1-.14,0,5.87,5.87,0,0,0,2-.72,10.87,10.87,0,0,0,2-1.55,26.31,26.31,0,0,1,2.54-2.18,7.57,7.57,0,0,1,3.84-1.32,20.13,20.13,0,0,1,4.65.34,34.37,34.37,0,0,0,5.06.57,9.84,9.84,0,0,0,2.64-.37,8,8,0,0,0,2.44-1.21,14.66,14.66,0,0,0,3.63-4c1-1.48,1.76-3,2.63-4.38a17.94,17.94,0,0,1,2.88-3.67,14.49,14.49,0,0,1,8.95-3.92,7.21,7.21,0,0,1,.93,0h.67a3.68,3.68,0,0,1,.58.07Z"/><path id="Trazado_641" data-name="Trazado 641" class="cls-2" d="M119.61,114.74a1.82,1.82,0,0,1-.57,0,11.28,11.28,0,0,1-1.53-.13,15.22,15.22,0,0,1-8.81-4.68,11.07,11.07,0,0,1-1-1.2,1.81,1.81,0,0,1-.29-.48s.52.62,1.42,1.51a16.88,16.88,0,0,0,8.69,4.62C118.81,114.65,119.61,114.68,119.61,114.74Z"/><path id="Trazado_642" data-name="Trazado 642" class="cls-6" d="M141.85,94.73a1.7,1.7,0,0,0-2.17,1.07s0,.12-.06.18c-.09.67.22,1.34.11,2-.19,1.19-1.08,1.17-.91,2.36.08.62,1.17,1.2,1.74,1.42a6.49,6.49,0,0,0,1.8.32c2.56.29,3.86,2,5.85,3.64s3.64,3.84,6.13,4.38a2.91,2.91,0,0,0,2-.24,3.39,3.39,0,0,0,1.32-2.79,10.07,10.07,0,0,1,.4-3.18c.28-.66.8-1.33.59-2s-1.31-1.15-1.39-2a3.57,3.57,0,0,0,0-.8c-.11-.73-1-.95-1.76-1a66.14,66.14,0,0,1-7.79-1.25,20.44,20.44,0,0,1-6-2.16"/><path id="Trazado_643" data-name="Trazado 643" class="cls-7" d="M157.65,100.45a3.62,3.62,0,0,1-.73.14,17.05,17.05,0,0,1-2,.18A26.65,26.65,0,0,1,142,98.05c-.6-.3-1.19-.62-1.76-1a3,3,0,0,1-.63-.42c0-.05.93.48,2.47,1.19a29.84,29.84,0,0,0,12.83,2.7C156.6,100.52,157.64,100.39,157.65,100.45Z"/><path id="Trazado_644" data-name="Trazado 644" class="cls-7" d="M158.05,103.85l-.19.1a3.13,3.13,0,0,1-.54.19,6.47,6.47,0,0,1-2.1.25,11.58,11.58,0,0,1-3.09-.54,37.57,37.57,0,0,1-3.59-1.32c-2.5-1-4.77-2-6.4-2.66L140.21,99a4,4,0,0,1-.68-.36,3.67,3.67,0,0,1,.73.24l2,.74c1.65.63,3.92,1.55,6.43,2.57,1.25.5,2.44,1,3.56,1.33a12.8,12.8,0,0,0,3,.63A9.6,9.6,0,0,0,158.05,103.85Z"/><path id="Trazado_645" data-name="Trazado 645" class="cls-2" d="M140.18,95.23a1.12,1.12,0,0,0-.45.62,1.83,1.83,0,0,0,0,.87,4.32,4.32,0,0,1,.1,1.19,3.5,3.5,0,0,1-.4,1.12,5.73,5.73,0,0,0-.39.83,3.71,3.71,0,0,0-.15.82,1,1,0,0,1-.07-.89,16.41,16.41,0,0,0,.69-1.93,4.5,4.5,0,0,0-.08-1.1,2,2,0,0,1,.09-1,1,1,0,0,1,.43-.53C140.08,95.2,140.18,95.21,140.18,95.23Z"/><path id="Trazado_646" data-name="Trazado 646" class="cls-2" d="M156.29,101.42a3.94,3.94,0,0,1-.38,1.25,4.58,4.58,0,0,1-2,2.43,2.82,2.82,0,0,1-1.76.27,4.38,4.38,0,0,1-1.35-.49,3.1,3.1,0,0,1-1-.78s.44.25,1.15.58a4.92,4.92,0,0,0,1.29.39,2.73,2.73,0,0,0,1.57-.26,4.83,4.83,0,0,0,2-2.23A6,6,0,0,1,156.29,101.42Z"/><path id="Trazado_647" data-name="Trazado 647" class="cls-5" d="M148.41,248.35l1-6.36-11.89-2L136,249.29l.73.18c3.25.73,16.6,3.46,18.9,3.12C158.15,252.29,148.41,248.35,148.41,248.35Z"/><g id="Grupo_26" data-name="Grupo 26" class="cls-9"><path id="Trazado_648" data-name="Trazado 648" class="cls-10" d="M153.14,250.44s3.37,1.62,2.83,2.12-14.12-1.74-20-3.27L136,249l15.82,2.77S152.44,250.36,153.14,250.44Z"/></g><path id="Trazado_649" data-name="Trazado 649" class="cls-2" d="M135.81,249l.2.06.59.14,2.15.45c1.82.37,4.33.84,7.12,1.31s5.32.83,7.16,1.07l2.17.27.63.07H156a.48.48,0,0,0-.2,0l-.63-.1-2.17-.31c-1.83-.27-4.38-.63-7.15-1.11l-7.12-1.26-2.16-.4L136,249Z"/><path id="Trazado_650" data-name="Trazado 650" class="cls-2" d="M151.8,252a4.49,4.49,0,0,1,.57-1,4.86,4.86,0,0,1,.87-.7,1.64,1.64,0,0,0-1,.62,1.62,1.62,0,0,0-.47,1.05Z"/><path id="Trazado_651" data-name="Trazado 651" class="cls-2" d="M148.58,249.6a2.15,2.15,0,0,0,.45-.4c.22-.24.37-.47.34-.49s-.23.15-.45.39A1.43,1.43,0,0,0,148.58,249.6Z"/><path id="Trazado_652" data-name="Trazado 652" class="cls-2" d="M147.7,249a2,2,0,0,0,.47-.21c.24-.15.41-.3.39-.33s-.23.06-.47.21S147.68,248.92,147.7,249Z"/><path id="Trazado_653" data-name="Trazado 653" class="cls-2" d="M147.28,247.73a1.53,1.53,0,0,0,.63.18,1.44,1.44,0,0,0,.62,0,1.5,1.5,0,0,0-.62-.19A2.22,2.22,0,0,0,147.28,247.73Z"/><path id="Trazado_654" data-name="Trazado 654" class="cls-2" d="M147.22,246.9a1.66,1.66,0,0,0,1.39.32,4,4,0,0,0-.7-.17A4,4,0,0,0,147.22,246.9Z"/><path id="Trazado_655" data-name="Trazado 655" class="cls-2" d="M149.16,248.65a2,2,0,0,0,.76.12,4,4,0,0,0,.85,0,3,3,0,0,0,.5-.11.5.5,0,0,0,.22-.21.29.29,0,0,0-.06-.32,1.42,1.42,0,0,0-1.8.11,1.52,1.52,0,0,0-.34.47c0,.13-.06.2,0,.21a2,2,0,0,1,.46-.62,1.28,1.28,0,0,1,.71-.32,1.18,1.18,0,0,1,.91.21c.1.11,0,.24-.12.3a2.5,2.5,0,0,1-.45.12,5.81,5.81,0,0,1-.83.07C149.45,248.67,149.16,248.63,149.16,248.65Z"/><path id="Trazado_656" data-name="Trazado 656" class="cls-2" d="M149.34,248.72a.76.76,0,0,0,.19-.52,1.52,1.52,0,0,0-.12-.59.78.78,0,0,0-.57-.49.29.29,0,0,0-.29.31.75.75,0,0,0,.07.36,2.1,2.1,0,0,0,.29.53,1.15,1.15,0,0,0,.38.38,3.57,3.57,0,0,1-.29-.44,2.41,2.41,0,0,1-.25-.51c-.08-.18-.1-.48.1-.49s.35.24.45.41a1.26,1.26,0,0,1,.13.54A2.28,2.28,0,0,1,149.34,248.72Z"/><path id="Trazado_657" data-name="Trazado 657" class="cls-2" d="M136.58,245.78a5.26,5.26,0,0,1,.88.17,3.82,3.82,0,0,1,2.71,3c.09.54.05.88.08.88s0-.08,0-.23a3.33,3.33,0,0,0-.91-2.64,3.7,3.7,0,0,0-1.88-1.11,2.5,2.5,0,0,0-.66-.09.7.7,0,0,0-.25,0Z"/><path id="Trazado_658" data-name="Trazado 658" class="cls-2" d="M138.65,241a22.27,22.27,0,0,0-.5,2.43,18.33,18.33,0,0,0-.37,2.45,20.17,20.17,0,0,0,.51-2.43A17,17,0,0,0,138.65,241Z"/><path id="Trazado_659" data-name="Trazado 659" class="cls-2" d="M142,249a7.21,7.21,0,0,0,1.71.46,7.48,7.48,0,0,0,1.77.15s-.79-.13-1.74-.29S142,249,142,249Z"/><path id="Trazado_660" data-name="Trazado 660" class="cls-2" d="M139.63,248.62s0,.17.08.36.07.36.11.36.1-.18,0-.4S139.66,248.59,139.63,248.62Z"/><path id="Trazado_661" data-name="Trazado 661" class="cls-2" d="M138.93,247.37s0,.17.13.31.21.24.24.22,0-.16-.13-.3S139,247.35,138.93,247.37Z"/><path id="Trazado_662" data-name="Trazado 662" class="cls-2" d="M137.75,246.67s.17.06.33.15.27.21.31.18,0-.2-.24-.31S137.75,246.63,137.75,246.67Z"/><path id="Trazado_663" data-name="Trazado 663" class="cls-2" d="M136.9,246.28a.23.23,0,0,0,.13.16c.09.05.19.07.2,0s0-.11-.13-.16S136.92,246.25,136.9,246.28Z"/><g id="Grupo_27" data-name="Grupo 27" class="cls-8"><path id="Trazado_664" data-name="Trazado 664" d="M136.58,245.5l12,1.74.22-1.43-12-1.91Z"/></g><path id="Trazado_665" data-name="Trazado 665" class="cls-2" d="M118.13,155.3l25.7,42.63-7.61,46,13.46,2.31,10-51.62-18.18-37.2Z"/><path id="Trazado_666" data-name="Trazado 666" class="cls-3" d="M172,152.81a4.41,4.41,0,0,0,1.69,2.8,2.58,2.58,0,0,0,3.12-.07.82.82,0,0,0,.28-.95.8.8,0,0,0-.79-.29,4.14,4.14,0,0,1-.87.09,1.45,1.45,0,0,1-1.09-1.12,11.61,11.61,0,0,1-.2-1.65,1.89,1.89,0,0,0-.76-1.41"/><path id="Trazado_667" data-name="Trazado 667" class="cls-3" d="M169.84,145.51,173,148s3.68-2,5.1-1.25,3.59,4,3.59,4l-8.6,3.49-7.36-5Z"/><path id="Trazado_668" data-name="Trazado 668" class="cls-3" d="M186.3,150.85a4.44,4.44,0,0,0,1.68,2.82,2.61,2.61,0,0,0,3.13-.08.82.82,0,0,0,.28-1,.8.8,0,0,0-.79-.29,4.21,4.21,0,0,1-.87.09,1.45,1.45,0,0,1-1.09-1.12,11.26,11.26,0,0,1-.19-1.65,1.87,1.87,0,0,0-.77-1.41"/><path id="Trazado_669" data-name="Trazado 669" class="cls-3" d="M184.75,144.37l2.56,1.72s3.68-2,5.1-1.25,3.59,4,3.59,4l-8.6,3.49-5.81-4Z"/><path id="Trazado_670" data-name="Trazado 670" class="cls-5" d="M187.18,153.48l13.4-4.47-1-2.49-15.06,4.12-16.14,1.27-1.31,1.73,15,1h0l3.17,9.5,2.56-.8-2.25-7Z"/><path id="Trazado_671" data-name="Trazado 671" class="cls-11" d="M187.18,153.48l13.4-4.47-1-2.49-15.06,4.12-16.29.9-1.17,2.1,15,1h0l3.17,9.5,2.56-.8-2.25-7Z"/><path id="Trazado_672" data-name="Trazado 672" class="cls-5" d="M179.49,150.88l-1.21,4-10.57-.82a2,2,0,0,1-1.85-2.05s0-.08,0-.12h0a2,2,0,0,1,2-1.72Z"/><path id="Trazado_673" data-name="Trazado 673" class="cls-5" d="M189.6,149l1.14,3.59,11-3a2,2,0,0,0,1.36-2.41s0-.06,0-.09h0a2,2,0,0,0-2.38-1.25Z"/><path id="Trazado_674" data-name="Trazado 674" class="cls-7" d="M164.35,146c0,.08-.15.24-.42.37s-.51.15-.55.07.15-.25.42-.37S164.31,145.92,164.35,146Z"/><path id="Trazado_675" data-name="Trazado 675" class="cls-3" d="M190.06,148a1.87,1.87,0,0,1,1.57,1.31,14.1,14.1,0,0,1,.43,2.13,1.07,1.07,0,0,0,.55.86.8.8,0,0,0,.93-.43,2.4,2.4,0,0,0,.2-1.09.74.74,0,0,0,.93,1.06,1,1,0,0,0,.54-.62,2.89,2.89,0,0,0,.11-.87,1,1,0,0,0,0,.55.4.4,0,0,0,.44.27c.18-.05.26-.27.3-.45a5.49,5.49,0,0,0-.29-3.68,4.29,4.29,0,0,0-2.77-2.37,3.49,3.49,0,0,0-3.43,1"/><path id="Trazado_676" data-name="Trazado 676" class="cls-4" d="M191.42,146.65s.38-.13.89.16a3,3,0,0,1,1.17,1.82,7.33,7.33,0,0,1,.23,2.13,2.39,2.39,0,0,1-.1.88,2.39,2.39,0,0,1-.1-.88,10.92,10.92,0,0,0-.31-2,3.08,3.08,0,0,0-1-1.71A3.28,3.28,0,0,0,191.42,146.65Z"/><path id="Trazado_677" data-name="Trazado 677" class="cls-4" d="M193.37,146.22s.34-.17.83.12a1.75,1.75,0,0,1,.62.7,6.84,6.84,0,0,1,.56,3.81c-.1,0-.1-1.25-.5-2.69a2.93,2.93,0,0,0-.82-1.63A2.15,2.15,0,0,0,193.37,146.22Z"/><path id="Trazado_678" data-name="Trazado 678" class="cls-3" d="M175.79,150a1.87,1.87,0,0,1,1.57,1.31,14.1,14.1,0,0,1,.43,2.13,1.12,1.12,0,0,0,.55.87.82.82,0,0,0,.93-.44,2.52,2.52,0,0,0,.21-1.09.75.75,0,0,0,.08.86.79.79,0,0,0,.84.21,1.07,1.07,0,0,0,.55-.63,3.11,3.11,0,0,0,.1-.86,1.28,1.28,0,0,0,0,.55.42.42,0,0,0,.44.27c.18-.06.26-.27.31-.45a5.64,5.64,0,0,0-.29-3.69,4.31,4.31,0,0,0-2.77-2.37,3.52,3.52,0,0,0-3.44,1"/><path id="Trazado_679" data-name="Trazado 679" class="cls-4" d="M177.16,148.6s.37-.14.88.16a2.93,2.93,0,0,1,1.17,1.82,7.33,7.33,0,0,1,.23,2.13,2.44,2.44,0,0,1-.1.89,2.93,2.93,0,0,1-.13-.88,11,11,0,0,0-.31-2.05,3.08,3.08,0,0,0-1-1.71A3.45,3.45,0,0,0,177.16,148.6Z"/><path id="Trazado_680" data-name="Trazado 680" class="cls-4" d="M179.12,148.18s.34-.18.83.11a1.68,1.68,0,0,1,.62.7,6.78,6.78,0,0,1,.56,3.82c-.1,0-.1-1.26-.5-2.7a2.88,2.88,0,0,0-.81-1.63A2.28,2.28,0,0,0,179.12,148.18Z"/><path id="Trazado_681" data-name="Trazado 681" class="cls-6" d="M200.34,131.69a4.46,4.46,0,0,0,6.32.25l.12-.11.28-.15A5.77,5.77,0,0,0,200.34,131.69Z"/><path id="Trazado_682" data-name="Trazado 682" class="cls-6" d="M79.51,126.2a4.46,4.46,0,0,0,6.31.26l.13-.12.27-.16A5.77,5.77,0,0,0,79.51,126.2Z"/><path id="Trazado_683" data-name="Trazado 683" class="cls-6" d="M185.07,137.36a3,3,0,0,0,4.3.16l.08-.07.18-.1A3.9,3.9,0,0,0,185.07,137.36Z"/><path id="Trazado_684" data-name="Trazado 684" class="cls-6" d="M53.88,126.41a3,3,0,0,0,4.3.17l.08-.07.19-.11A3.92,3.92,0,0,0,53.88,126.41Z"/><path id="Trazado_685" data-name="Trazado 685" class="cls-6" d="M180.37,124a2.47,2.47,0,0,0,2.6,2.32h.24A3.11,3.11,0,0,0,180.37,124Z"/><path id="Trazado_686" data-name="Trazado 686" class="cls-6" d="M63.27,111.15a2.47,2.47,0,0,0,2.59,2.33h.07l.17,0A3.16,3.16,0,0,0,63.27,111.15Z"/><path id="Trazado_687" data-name="Trazado 687" class="cls-2" d="M129.54,239c0,.08-7.33-2.91-16.3-6.67s-16.21-6.88-16.17-7,7.33,2.91,16.3,6.67S129.58,238.85,129.54,239Z"/><path id="Trazado_688" data-name="Trazado 688" class="cls-2" d="M132.21,222c0,.08-8.17.87-18.26,1.75s-18.28,1.52-18.29,1.42,8.17-.87,18.26-1.75S132.17,221.92,132.21,222Z"/><path id="Trazado_689" data-name="Trazado 689" class="cls-2" d="M118,252.51c-.07.05-5.17-6-11.38-13.51s-11.21-13.65-11.15-13.71,5.17,6,11.4,13.51S118.07,252.45,118,252.51Z"/><path id="Trazado_690" data-name="Trazado 690" class="cls-2" d="M91.22,224.75c0,.07-6.88,4.69-15.55,10.3S60,245.16,60,245.06s6.88-4.69,15.55-10.3S91.17,224.67,91.22,224.75Z"/><path id="Trazado_691" data-name="Trazado 691" class="cls-2" d="M104.41,261.62a2.29,2.29,0,0,1-.12-.37c-.07-.28-.16-.62-.29-1.07-.24-1-.58-2.32-1-4-.85-3.34-2-8-3.47-13s-2.79-9.64-3.8-12.94c-.5-1.63-.9-3-1.2-3.92-.13-.43-.23-.79-.31-1.06a2.74,2.74,0,0,1-.09-.39,2.39,2.39,0,0,1,.15.37l.37,1c.32.92.77,2.24,1.3,3.89,1.07,3.28,2.5,7.85,3.89,12.92s2.59,9.71,3.38,13.07c.4,1.68.71,3,.91,4,.09.45.17.8.22,1.09a1.31,1.31,0,0,1,.06.38Z"/><path id="Trazado_692" data-name="Trazado 692" class="cls-2" d="M80.71,262.2a2.2,2.2,0,0,1,.06-.37c.07-.27.16-.63.25-1,.22-.89.56-2.17,1-3.75.86-3.17,2.13-7.51,3.64-12.31s3-9.07,4.13-12.16c.56-1.54,1-2.79,1.36-3.64l.39-1a1.33,1.33,0,0,1,.16-.34,1.4,1.4,0,0,1-.1.35l-.34,1c-.31.91-.73,2.16-1.25,3.68-1.06,3.13-2.5,7.41-4,12.18s-2.81,9.12-3.75,12.27l-1.09,3.75c-.12.42-.23.76-.31,1A1.24,1.24,0,0,1,80.71,262.2Z"/><path id="Trazado_693" data-name="Trazado 693" class="cls-2" d="M93.37,264.33c-.09,0-.17-8.28-.17-18.5s.07-18.51.15-18.51.17,8.28.17,18.51S93.46,264.33,93.37,264.33Z"/><path id="Trazado_694" data-name="Trazado 694" class="cls-2" d="M67.15,254.7a1.54,1.54,0,0,1,.22-.3l.66-.8,2.5-2.93L78.67,241l8.07-9.77,2.44-3,.68-.8a1.52,1.52,0,0,1,.25-.26,3.28,3.28,0,0,1-.2.31l-.63.83c-.55.73-1.36,1.76-2.36,3-2,2.54-4.83,6-8,9.83s-6.1,7.19-8.24,9.62c-1.07,1.22-2,2.2-2.56,2.87l-.71.76a1.28,1.28,0,0,1-.26.26Z"/><path id="Trazado_695" data-name="Trazado 695" class="cls-2" d="M92.35,222.38c-.07.05-4.38-7.1-9.62-16s-9.42-16.1-9.35-16.14,4.38,7.1,9.63,16S92.43,222.34,92.35,222.38Z"/><path id="Trazado_696" data-name="Trazado 696" class="cls-2" d="M54.94,234a1.66,1.66,0,0,1,.38-.11l1.09-.23,4-.83c3.38-.71,8-1.71,13.17-2.91s9.75-2.37,13.1-3.24l4-1,1.07-.27a1.78,1.78,0,0,1,.39-.07,1.63,1.63,0,0,1-.37.13l-1.06.33c-.93.28-2.27.67-3.93,1.13-3.33.92-7.95,2.13-13.08,3.33s-9.81,2.16-13.21,2.81c-1.7.33-3.07.58-4,.73l-1.09.18A1.72,1.72,0,0,1,54.94,234Z"/><path id="Trazado_697" data-name="Trazado 697" class="cls-2" d="M55.4,210.27a1.05,1.05,0,0,1,.35.08l1,.29c.88.26,2.15.62,3.72,1.15,3.12,1,7.43,2.45,12.14,4.17s8.93,3.4,12,4.65c1.52.62,2.75,1.15,3.59,1.52l1,.43a1.71,1.71,0,0,1,.33.17,1.42,1.42,0,0,1-.35-.11l-1-.37-3.62-1.43c-3.06-1.2-7.29-2.84-12-4.56s-9-3.2-12.1-4.26l-3.68-1.25-1-.35A1.62,1.62,0,0,1,55.4,210.27Z"/><path id="Trazado_698" data-name="Trazado 698" class="cls-2" d="M52.71,222.82c0-.09,8.29.2,18.5.63s18.46.87,18.46,1-8.29-.19-18.5-.63S52.71,222.91,52.71,222.82Z"/><path id="Trazado_699" data-name="Trazado 699" class="cls-2" d="M63.47,197.05l.29.23c.18.16.45.42.77.7l2.82,2.6,9.32,8.57,9.39,8.49,2.86,2.57.76.71a2.51,2.51,0,0,1,.26.26,1.27,1.27,0,0,1-.29-.21l-.82-.66c-.69-.59-1.69-1.43-2.92-2.51-2.46-2.12-5.81-5.08-9.47-8.42s-6.92-6.39-9.26-8.64c-1.17-1.12-2.11-2-2.75-2.68l-.74-.74A1.44,1.44,0,0,1,63.47,197.05Z"/><path id="Trazado_700" data-name="Trazado 700" class="cls-2" d="M97.21,224c0-.07,7.4-3.86,16.62-8.45s16.72-8.26,16.77-8.18-7.4,3.88-16.62,8.5S97.25,224.05,97.21,224Z"/><path id="Trazado_701" data-name="Trazado 701" class="cls-2" d="M88.31,185.83a1.45,1.45,0,0,1,.08.36c0,.28.08.63.15,1.06.11,1,.28,2.3.48,3.91.38,3.35.9,7.9,1.47,12.93s1,9.58,1.38,12.93c.16,1.62.3,2.95.39,3.92,0,.44.06.79.08,1.07a1.21,1.21,0,0,1,0,.38,1.61,1.61,0,0,1-.07-.37c0-.28-.09-.63-.14-1.07-.12-1-.3-2.29-.49-3.91-.38-3.34-.9-7.89-1.48-12.91s-1-9.59-1.37-12.93c-.17-1.63-.3-3-.39-3.93,0-.43-.07-.79-.08-1.06A1.63,1.63,0,0,1,88.31,185.83Z"/><path id="Trazado_702" data-name="Trazado 702" class="cls-2" d="M111.93,188a2,2,0,0,1-.11.35c-.09.26-.22.59-.36,1-.33.86-.81,2.1-1.42,3.63-1.25,3.05-3,7.24-5,11.81s-4,8.67-5.49,11.61c-.74,1.47-1.34,2.65-1.77,3.46l-.5.94a2,2,0,0,1-.19.31,1.26,1.26,0,0,1,.13-.34l.45-1,1.67-3.51c1.42-3,3.35-7.07,5.41-11.64s3.83-8.76,5.1-11.77l1.52-3.58c.16-.4.3-.72.41-1A1.24,1.24,0,0,1,111.93,188Z"/><path id="Trazado_703" data-name="Trazado 703" class="cls-2" d="M99.6,184.39a2.54,2.54,0,0,1,0,.39c0,.26-.07.63-.12,1.12-.11,1-.31,2.37-.56,4.09-.5,3.44-1.26,8.19-2.11,13.44s-1.65,10-2.24,13.41c-.3,1.68-.55,3.06-.73,4.06-.09.45-.16.82-.21,1.1a2.36,2.36,0,0,1-.1.38,2.56,2.56,0,0,1,0-.39c0-.29.09-.65.16-1.11.15-1,.36-2.38.62-4.08.56-3.47,1.32-8.2,2.16-13.43Z"/><path id="Trazado_704" data-name="Trazado 704" class="cls-2" d="M124.52,197a3.07,3.07,0,0,1-.25.26l-.75.73-2.8,2.63-9.21,8.69L102.37,218l-2.76,2.67-.76.76a2.09,2.09,0,0,1-.28.24,2.15,2.15,0,0,1,.23-.28l.72-.76c.63-.65,1.55-1.59,2.69-2.74,2.29-2.3,5.49-5.43,9.07-8.84s6.88-6.46,9.29-8.63c1.2-1.09,2.18-2,2.87-2.55l.79-.68A1.37,1.37,0,0,1,124.52,197Z"/><path id="Trazado_705" data-name="Trazado 705" class="cls-6" d="M93.53,265.38a41.09,41.09,0,1,1,41.08-41.08h0A41.08,41.08,0,0,1,93.53,265.38Zm0-78.44a37.37,37.37,0,1,0,37.36,37.37h0A37.37,37.37,0,0,0,93.53,186.94Z"/><path id="Trazado_706" data-name="Trazado 706" class="cls-2" d="M137.84,207.91a3.42,3.42,0,0,1-.63-.92l-.62-1.15-.41-.75-.52-.8-1.22-1.88c-.48-.68-1-1.38-1.59-2.16s-1.26-1.54-2-2.38-1.51-1.66-2.36-2.5a51.78,51.78,0,0,0-13.66-9.93,23,23,0,0,0-2.18-1.05l-2.27-1c-1.58-.55-3.13-1.19-4.83-1.61A41.44,41.44,0,0,0,95,180.15a43.36,43.36,0,0,0-10.59,1.09,51,51,0,0,0-9.38,3.33L73,185.64c-.7.33-1.35.76-2,1.13-1.33.73-2.51,1.59-3.72,2.36-.59.4-1.13.84-1.69,1.25a19.25,19.25,0,0,0-1.6,1.26l-1.49,1.25-.72.62-.68.63c-.88.83-1.76,1.59-2.5,2.39s-1.51,1.49-2.13,2.23l-1.79,2-1.44,1.76c-.44.52-.81,1-1.13,1.42l-.82,1c-.45.56-.71.85-.75.81s.12-.37.48-1l.7-1.15c.27-.45.62-1,1-1.52L54,200.27c.49-.7,1.1-1.37,1.71-2.13s1.33-1.52,2.07-2.35,1.59-1.64,2.46-2.5c.23-.22.45-.43.67-.66l.72-.62,1.49-1.31c.5-.46,1.06-.86,1.61-1.3s1.11-.88,1.7-1.3c1.2-.82,2.41-1.72,3.75-2.51.68-.39,1.33-.83,2-1.19s1.43-.74,2.16-1.13A51,51,0,0,1,84,179.65a44.41,44.41,0,0,1,11-1.17A42.13,42.13,0,0,1,106,180.22c1.74.44,3.37,1.11,5,1.69l2.33,1.05c.78.32,1.51.72,2.23,1.1a51.28,51.28,0,0,1,13.77,10.49c.83.92,1.65,1.76,2.32,2.65s1.37,1.68,1.87,2.51,1.07,1.56,1.51,2.28l1.12,2c.16.3.32.58.46.86l.35.78c.2.49.37.9.52,1.25A2.69,2.69,0,0,1,137.84,207.91Z"/><path id="Trazado_707" data-name="Trazado 707" class="cls-2" d="M223.36,186.53c.09,0-1.75,7.7-4.11,17.13s-4.34,17.07-4.42,17.05,1.75-7.69,4.1-17.13S223.27,186.51,223.36,186.53Z"/><path id="Trazado_708" data-name="Trazado 708" class="cls-2" d="M206.24,186.51c.08,0,2.1,7.94,4.5,17.78s4.29,17.83,4.2,17.85-2.11-7.93-4.51-17.78S206.15,186.53,206.24,186.51Z"/><path id="Trazado_709" data-name="Trazado 709" class="cls-2" d="M238.54,195.88c.07.06-5.13,6-11.61,13.3s-11.8,13.14-11.89,13.1,5.13-6,11.62-13.31S238.46,195.8,238.54,195.88Z"/><path id="Trazado_710" data-name="Trazado 710" class="cls-2" d="M215.16,226.57c.07-.06,5.69,6.12,12.55,13.8s12.38,14,12.31,14-5.68-6.12-12.55-13.8S215.09,226.63,215.16,226.57Z"/><path id="Trazado_711" data-name="Trazado 711" class="cls-2" d="M249.6,207.92a1.11,1.11,0,0,1-.34.18l-1,.45c-.93.38-2.21.93-3.75,1.59-3.18,1.35-7.56,3.24-12.35,5.42s-9.12,4.22-12.23,5.72l-3.68,1.77-1,.48a1.51,1.51,0,0,1-.35.14,1.38,1.38,0,0,1,.33-.2l1-.53c.85-.45,2.1-1.09,3.64-1.87,3.09-1.56,7.38-3.64,12.19-5.82s9.2-4,12.4-5.33c1.6-.62,2.9-1.16,3.81-1.5l1-.38A2.06,2.06,0,0,1,249.6,207.92Z"/><path id="Trazado_712" data-name="Trazado 712" class="cls-2" d="M253.78,231.26a1.21,1.21,0,0,1-.38,0l-1.05-.09c-.91-.08-2.24-.22-3.87-.41-3.27-.37-7.76-.95-12.72-1.73s-9.42-1.59-12.65-2.22c-1.6-.32-2.9-.6-3.81-.8l-1-.24a1.61,1.61,0,0,1-.36-.1,1.5,1.5,0,0,1,.37,0l1,.18,3.83.68c3.23.59,7.7,1.37,12.65,2.14s9.44,1.39,12.7,1.82l3.85.51,1,.15Z"/><path id="Trazado_713" data-name="Trazado 713" class="cls-2" d="M254,218.43c0,.09-8.13,1.42-18.26,3s-18.3,2.75-18.32,2.66,8.17-1.42,18.27-3S254,218.32,254,218.43Z"/><path id="Trazado_714" data-name="Trazado 714" class="cls-2" d="M248.43,245.78a1.48,1.48,0,0,1-.33-.17l-.9-.53-3.27-2-10.81-6.62L222.24,230l-3.3-2-.89-.54a2.73,2.73,0,0,1-.3-.21,1.66,1.66,0,0,1,.33.15l.93.49c.79.44,1.94,1.08,3.34,1.88,2.83,1.6,6.7,3.86,10.93,6.42s8,4.92,10.77,6.67c1.37.87,2.47,1.59,3.22,2.09.35.24.63.44.87.59A1.68,1.68,0,0,1,248.43,245.78Z"/><path id="Trazado_715" data-name="Trazado 715" class="cls-2" d="M212.65,225.83c.06.07-6.35,5.42-14.32,11.94s-14.47,11.76-14.54,11.69,6.37-5.42,14.34-12S212.6,225.74,212.65,225.83Z"/><path id="Trazado_716" data-name="Trazado 716" class="cls-2" d="M229.79,261a1.11,1.11,0,0,1-.16-.35c-.11-.27-.24-.62-.41-1-.35-.94-.83-2.24-1.43-3.82-1.21-3.24-2.91-7.7-4.87-12.58s-3.83-9.28-5.19-12.46L216.12,227l-.44-1a1.6,1.6,0,0,1-.12-.37,2.27,2.27,0,0,1,.19.34l.48,1c.42.87,1,2.14,1.71,3.72,1.42,3.13,3.31,7.51,5.28,12.42s3.64,9.39,4.79,12.63c.58,1.62,1,2.94,1.34,3.86l.34,1.06a1.64,1.64,0,0,1,.1.38Z"/><path id="Trazado_717" data-name="Trazado 717" class="cls-2" d="M206.31,264.18a1.15,1.15,0,0,1,0-.37c0-.27.07-.62.13-1.05.12-.91.32-2.23.57-3.85.52-3.24,1.29-7.72,2.28-12.63s2-9.35,2.77-12.51c.39-1.6.72-2.89,1-3.76l.28-1a1.18,1.18,0,0,1,.12-.36,1.15,1.15,0,0,1-.06.37l-.22,1-.85,3.79c-.72,3.21-1.69,7.63-2.68,12.55s-1.8,9.38-2.37,12.61c-.28,1.58-.51,2.88-.68,3.82l-.19,1Z"/><path id="Trazado_718" data-name="Trazado 718" class="cls-2" d="M219.12,264.92c-.09,0-1.07-8.21-2.19-18.37s-2-18.41-1.88-18.42,1.07,8.22,2.19,18.38S219.2,264.91,219.12,264.92Z"/><path id="Trazado_719" data-name="Trazado 719" class="cls-2" d="M192,258.2a3.21,3.21,0,0,1,.19-.31l.57-.87,2.15-3.18,7-10.49,7-10.64,2.08-3.19.59-.86a1.06,1.06,0,0,1,.22-.29,1.41,1.41,0,0,1-.17.32l-.51.89c-.46.78-1.15,1.88-2,3.28-1.72,2.74-4.14,6.51-6.88,10.63S197,251.31,195.12,254c-.94,1.32-1.7,2.4-2.24,3.12l-.62.84C192.11,258.12,192,258.22,192,258.2Z"/><path id="Trazado_720" data-name="Trazado 720" class="cls-2" d="M213.49,220.77c-.08,0-5-6.73-10.89-15.14S191.89,190.35,192,190.3s5,6.76,10.93,15.14S213.56,220.72,213.49,220.77Z"/><path id="Trazado_721" data-name="Trazado 721" class="cls-2" d="M177.14,235.36a1.48,1.48,0,0,1,.35-.13l1-.31,3.8-1.07,12.51-3.42,12.58-3.34,3.81-1,1-.25a2.38,2.38,0,0,1,.37-.06l-.35.13-1,.3-3.8,1.08-12.51,3.42-12.58,3.33-3.81,1-1.05.25A1.53,1.53,0,0,1,177.14,235.36Z"/><path id="Trazado_722" data-name="Trazado 722" class="cls-2" d="M175.66,211.7a1.5,1.5,0,0,1,.37.05l1,.21c.9.18,2.19.47,3.8.85,3.2.73,7.6,1.84,12.44,3.17s9.17,2.65,12.3,3.66c1.57.5,2.83.92,3.69,1.22l1,.35a1.3,1.3,0,0,1,.34.15l-.35-.08-1-.29-3.72-1.13c-3.13-.94-7.51-2.23-12.33-3.56S184,213.83,180.81,213l-3.75-.94-1-.27A1.29,1.29,0,0,1,175.66,211.7Z"/><path id="Trazado_723" data-name="Trazado 723" class="cls-2" d="M174,224.43a1.32,1.32,0,0,1,.39-.06c.25,0,.62,0,1.12-.05,1,0,2.38,0,4.12-.07,3.48,0,8.29,0,13.6,0s10.13.11,13.6.18l4.13.1,1.12.05a1.71,1.71,0,0,1,.39,0,1.27,1.27,0,0,1-.39,0h-5.24l-13.61-.08Z"/><path id="Trazado_724" data-name="Trazado 724" class="cls-2" d="M182.64,197.88a2.73,2.73,0,0,1,.3.21l.83.62,3,2.37,10,7.79,10.06,7.69,3,2.33.82.62a1.61,1.61,0,0,1,.28.24,1.23,1.23,0,0,1-.31-.19l-.86-.59-3.13-2.24c-2.62-1.92-6.2-4.61-10.12-7.63s-7.43-5.79-10-7.84c-1.25-1-2.27-1.87-3-2.44l-.79-.68A2,2,0,0,1,182.64,197.88Z"/><path id="Trazado_725" data-name="Trazado 725" class="cls-6" d="M213.32,265.38A41.09,41.09,0,1,1,254.4,224.3h0A41.08,41.08,0,0,1,213.32,265.38Zm0-78.44a37.37,37.37,0,1,0,37.36,37.37h0A37.37,37.37,0,0,0,213.32,186.94Z"/><path id="Trazado_726" data-name="Trazado 726" class="cls-2" d="M255,207.92a3.1,3.1,0,0,1-.56-.9c-.16-.31-.34-.69-.57-1.13l-.34-.7c-.13-.26-.29-.52-.45-.8L252,202.52c-.41-.67-.91-1.37-1.42-2.13s-1.13-1.52-1.75-2.35-1.38-1.62-2.15-2.5l-.59-.62c-.2-.22-.42-.42-.62-.63L244.18,193c-.44-.45-1-.83-1.46-1.25s-1-.85-1.54-1.25l-1.67-1.2c-.29-.2-.57-.42-.86-.63l-.91-.56c-.63-.37-1.26-.77-1.88-1.13l-2-1.05a44.28,44.28,0,0,0-19-4.74,45.9,45.9,0,0,0-10.12,1,42.27,42.27,0,0,0-8.93,3.13l-2,1L192,187.49c-.3.19-.62.36-.9.56l-.88.63c-.57.4-1.14.78-1.68,1.19-1.05.85-2.12,1.61-3,2.5l-1.38,1.25c-.44.4-.85.84-1.25,1.25a77.27,77.27,0,0,0-7.14,8.31,20,20,0,0,1-2.5,3.21c-.13-.07.58-1.34,2-3.57a60.23,60.23,0,0,1,6.84-8.75c.4-.43.8-.88,1.25-1.31l1.37-1.3c.92-.91,2-1.71,3-2.61.54-.44,1.13-.84,1.71-1.25l.88-.63c.3-.21.62-.39.93-.59.62-.39,1.25-.8,1.92-1.19l2.06-1.09a42.73,42.73,0,0,1,9.24-3.35,45.77,45.77,0,0,1,10.5-1.07,44.52,44.52,0,0,1,19.6,5l2,1.1c.63.39,1.25.81,1.91,1.21l.92.59.88.63,1.7,1.25c.54.43,1,.89,1.56,1.33a16.68,16.68,0,0,1,1.46,1.33l1.33,1.34c.21.23.44.43.63.66l.58.68a31,31,0,0,1,2.11,2.62,24.71,24.71,0,0,1,1.7,2.48c.44.82.95,1.54,1.32,2.24s.68,1.38,1,2c.13.3.28.58.39.85l.29.76.43,1.21C255,207.55,255.09,207.9,255,207.92Z"/><path id="Trazado_727" data-name="Trazado 727" class="cls-2" d="M189.79,168l9.55-1.58,1.24,3.5-10.79,1.43Z"/><path id="Trazado_728" data-name="Trazado 728" class="cls-6" d="M201.48,163.36l-3.21-4.57a2.39,2.39,0,0,1-.63-2,1.64,1.64,0,0,1,1.66-.94,4.71,4.71,0,0,1,1.88.7c-.63-1.06-1.26-2.44-.53-3.42a2.68,2.68,0,0,1,2.5-.69c4,.46,7.51,3.42,11.54,3.66,2,.12,4-.43,5.95-.46s4.22.62,5.13,2.4.22,3.79-.46,5.63"/><path id="Trazado_729" data-name="Trazado 729" class="cls-2" d="M228.77,160.5,225.06,178h-21.6l-6.09-17.18Z"/><path id="Trazado_730" data-name="Trazado 730" class="cls-6" d="M226.34,165.67c0,.08-6,.21-13.43.28s-13.43,0-13.43,0,6-.22,13.43-.28S226.34,165.58,226.34,165.67Z"/><path id="Trazado_731" data-name="Trazado 731" class="cls-6" d="M225.48,173.91c0,.09-5.27.21-11.77.26s-11.79,0-11.79,0,5.28-.21,11.78-.27S225.48,173.83,225.48,173.91Z"/><path id="Trazado_732" data-name="Trazado 732" class="cls-6" d="M226,169.48c0,.08-5.79.21-12.92.27s-12.92,0-12.92-.05,5.78-.22,12.92-.27S226,169.39,226,169.48Z"/><path id="Trazado_733" data-name="Trazado 733" class="cls-6" d="M207.08,177.85c-.09,0-1-3.67-2.09-8.24s-1.87-8.29-1.77-8.31,1,3.67,2.08,8.24S207.16,177.82,207.08,177.85Z"/><path id="Trazado_734" data-name="Trazado 734" class="cls-6" d="M210.73,177.59c-.09,0-.41-3.67-.72-8.22s-.5-8.23-.4-8.23.41,3.67.72,8.21S210.82,177.58,210.73,177.59Z"/><path id="Trazado_735" data-name="Trazado 735" class="cls-6" d="M216.12,177.59c-.09,0,.08-3.68.39-8.21s.62-8.19.71-8.19-.09,3.69-.39,8.21S216.21,177.6,216.12,177.59Z"/><path id="Trazado_736" data-name="Trazado 736" class="cls-6" d="M220.79,178.05a4,4,0,0,1,0-.69c0-.43.11-1.06.21-1.84.19-1.55.52-3.69,1-6s.92-4.46,1.29-6c.19-.75.35-1.37.48-1.79a2.77,2.77,0,0,1,.22-.63,2.6,2.6,0,0,1-.1.68c-.1.5-.23,1.1-.37,1.81-.32,1.54-.76,3.65-1.2,6s-.8,4.47-1.05,6c-.12.71-.23,1.32-.31,1.82A2.94,2.94,0,0,1,220.79,178.05Z"/><path id="Trazado_737" data-name="Trazado 737" class="cls-6" d="M211.52,150.4a4.48,4.48,0,0,0,4.67,4.26h.17l.31.06A5.76,5.76,0,0,0,211.52,150.4Z"/><path id="Trazado_738" data-name="Trazado 738" class="cls-5" d="M224.55,155a1,1,0,0,0-1.25-.18,4.07,4.07,0,0,0,.33-1.06,1.41,1.41,0,0,0-.26-1.05,1.09,1.09,0,0,0-1.54-.06l-.06.06a.93.93,0,0,0-.43-1.25h0a1.51,1.51,0,0,0-1.44.15,3.13,3.13,0,0,0-.69.62l.05-.06a5,5,0,0,0-1.49,2.9,3.3,3.3,0,0,0,1.06,2.82,4,4,0,0,0,3.8.51,3.12,3.12,0,0,0,2.21-2A1.5,1.5,0,0,0,224.55,155Z"/><g id="Grupo_28" data-name="Grupo 28" class="cls-9"><path id="Trazado_739" data-name="Trazado 739" d="M219.24,158a9.26,9.26,0,0,0,.43-2.77,10.68,10.68,0,0,0-.76-2.72c.11,0,.26.22.52.7a5,5,0,0,1,.57,2,4.7,4.7,0,0,1-.33,2.06C219.47,157.73,219.27,158,219.24,158Z"/></g><g id="Grupo_29" data-name="Grupo 29" class="cls-9"><path id="Trazado_740" data-name="Trazado 740" d="M224.11,157.36a6.15,6.15,0,0,0-2.09-.7,6.66,6.66,0,0,0-2.17.34c0-.1.17-.21.56-.39a3.21,3.21,0,0,1,1.65-.28,3.39,3.39,0,0,1,1.57.54C224,157.12,224.16,157.33,224.11,157.36Z"/></g><g id="Grupo_30" data-name="Grupo 30" class="cls-9"><path id="Trazado_741" data-name="Trazado 741" d="M221.78,156.21a17.64,17.64,0,0,1,.06-1.78,15.15,15.15,0,0,1-.08-1.78,3.17,3.17,0,0,1,.41,1.78A3,3,0,0,1,221.78,156.21Z"/></g><g id="Grupo_31" data-name="Grupo 31" class="cls-9"><path id="Trazado_742" data-name="Trazado 742" d="M223.6,153.8c0,.09-.32.15-.63.34s-.65.38-.71.3.16-.35.55-.59S223.61,153.71,223.6,153.8Z"/></g><path id="Trazado_743" data-name="Trazado 743" class="cls-5" d="M218.67,146.55a.58.58,0,0,0-.63.47,2.12,2.12,0,0,0-.33-.56.8.8,0,0,0-.55-.32.62.62,0,0,0-.65.59v.09a.54.54,0,0,0-.7-.33h0a1,1,0,0,0-.52.69,2.44,2.44,0,0,0,0,.54v0a2.88,2.88,0,0,0,.63,1.8,1.92,1.92,0,0,0,1.64.69,2.35,2.35,0,0,0,1.75-1.42,1.85,1.85,0,0,0,0-1.77A.87.87,0,0,0,218.67,146.55Z"/><g id="Grupo_32" data-name="Grupo 32" class="cls-9"><path id="Trazado_744" data-name="Trazado 744" d="M217.83,150c-.09,0-.36-.69-1.07-1.25s-1.47-.7-1.44-.8a2.06,2.06,0,0,1,1.64.54,2.56,2.56,0,0,1,.77,1C217.85,149.8,217.9,150,217.83,150Z"/></g><g id="Grupo_33" data-name="Grupo 33" class="cls-9"><path id="Trazado_745" data-name="Trazado 745" d="M219.57,147.71c0,.09-.57.18-1.1.62a2.85,2.85,0,0,0-.62.63c-.12.19-.19.33-.23.31s-.06-.17,0-.41a1.89,1.89,0,0,1,.62-.78A1.44,1.44,0,0,1,219.57,147.71Z"/></g><g id="Grupo_34" data-name="Grupo 34" class="cls-9"><path id="Trazado_746" data-name="Trazado 746" d="M217.9,148.35c0,.08-.59-.07-1-.59s-.54-1.06-.46-1.09.33.42.71.88S217.93,148.26,217.9,148.35Z"/></g><g id="Grupo_35" data-name="Grupo 35" class="cls-9"><path id="Trazado_747" data-name="Trazado 747" d="M218,147.06c.06.07,0,.26-.13.49s-.2.42-.29.41-.15-.27,0-.55S218,147,218,147.06Z"/></g><path id="Trazado_748" data-name="Trazado 748" class="cls-5" d="M205.22,154a.57.57,0,0,0-.1.75,2.31,2.31,0,0,0-.62-.18.88.88,0,0,0-.63.17.63.63,0,0,0-.05.89l.05,0a.56.56,0,0,0-.74.28h0a.89.89,0,0,0,.11.85,1.8,1.8,0,0,0,.38.4h0a2.92,2.92,0,0,0,1.72.84,2,2,0,0,0,1.66-.67,2.4,2.4,0,0,0,.23-2.26,1.83,1.83,0,0,0-1.25-1.25A.87.87,0,0,0,205.22,154Z"/><g id="Grupo_36" data-name="Grupo 36" class="cls-9"><path id="Trazado_749" data-name="Trazado 749" d="M207.06,157a8.19,8.19,0,0,0-1.64-.13c-.88.11-1.53.53-1.58.44a2.09,2.09,0,0,1,1.55-.76,2.44,2.44,0,0,1,1.25.16C206.92,156.85,207.08,157,207.06,157Z"/></g><g id="Grupo_37" data-name="Grupo 37" class="cls-9"><path id="Trazado_750" data-name="Trazado 750" d="M206.67,154.15c.07.06-.27.54-.35,1.21a3.24,3.24,0,0,0,0,.88c.05.21.1.35.07.38s-.17-.08-.28-.31a1.83,1.83,0,0,1-.12-1C206.09,154.52,206.64,154.08,206.67,154.15Z"/></g><g id="Grupo_38" data-name="Grupo 38" class="cls-9"><path id="Trazado_751" data-name="Trazado 751" d="M205.93,155.77c0,.07-.46.37-1.14.3s-1.12-.36-1.09-.44a5.26,5.26,0,0,1,1.12.12A10.28,10.28,0,0,1,205.93,155.77Z"/></g><g id="Grupo_39" data-name="Grupo 39" class="cls-9"><path id="Trazado_752" data-name="Trazado 752" d="M205.13,154.78c.09,0,.16.2.25.43s.16.44.09.5-.29-.09-.4-.39S205,154.77,205.13,154.78Z"/></g><path id="Trazado_753" data-name="Trazado 753" class="cls-12" d="M210.51,156.13a.31.31,0,0,0-.38.18A1.42,1.42,0,0,0,210,156a.47.47,0,0,0-.27-.25.37.37,0,0,0-.43.27v0a.32.32,0,0,0-.36-.26.52.52,0,0,0-.38.31,1.37,1.37,0,0,0-.07.29h0a1.65,1.65,0,0,0,.13,1.07,1.08,1.08,0,0,0,.82.59,1.3,1.3,0,0,0,1.13-.57,1,1,0,0,0,.24-1A.48.48,0,0,0,210.51,156.13Z"/><path id="Trazado_754" data-name="Trazado 754" class="cls-2" d="M98.13,219.09a6,6,0,0,1-1.52.23c-1,.12-2.46.22-4.29.58a5.36,5.36,0,0,0-1.36.42,5.76,5.76,0,0,0-1.29.85,4.68,4.68,0,0,0-1.59,3,4.36,4.36,0,0,0,1.29,3.52,13.85,13.85,0,0,0,4,2.27,106.85,106.85,0,0,0,10.41,3.63l12.27,3.4c4.32,1.19,8.87,2.33,13.63,3.35,2.38.5,4.82,1.06,7.26,1.46a22.41,22.41,0,0,0,3.66.3,20.73,20.73,0,0,0,3.68-.41A7.3,7.3,0,0,0,150,238a10.78,10.78,0,0,0,1.32-3.22,9.82,9.82,0,0,0,.25-1.7,12.63,12.63,0,0,0,0-1.74,9.14,9.14,0,0,0-2.47-6,11.25,11.25,0,0,0-1.21-1.08c-.47-.32-.9-.63-1.38-.92a15.28,15.28,0,0,0-2.94-1.41,24.83,24.83,0,0,0-6.21-1.32c-2.08-.21-4.13-.27-6.13-.34-4-.14-7.71-.31-11.1-.46-6.78-.33-12.26-.5-16-.55a48,48,0,0,1-5.9-.18,5.52,5.52,0,0,1,1.52-.21c1-.08,2.5-.17,4.38-.24,3.8-.14,9.3-.15,16.1,0l11.09.26c2,0,4.08.08,6.26.27a25.63,25.63,0,0,1,6.59,1.33,17.4,17.4,0,0,1,3.21,1.51c.52.29,1,.65,1.51,1a12,12,0,0,1,1.41,1.25,10.11,10.11,0,0,1,2.11,3.21,12,12,0,0,1,.84,3.75,15.54,15.54,0,0,1,0,1.93,12,12,0,0,1-.28,2,12.49,12.49,0,0,1-1.51,3.71,9.65,9.65,0,0,1-2.83,3,10.63,10.63,0,0,1-.93.53,7.19,7.19,0,0,1-1,.4,19,19,0,0,1-2,.47,22.12,22.12,0,0,1-4,.43,22.49,22.49,0,0,1-3.93-.32c-2.54-.43-4.95-1-7.34-1.5-4.79-1.05-9.39-2.23-13.7-3.46l-6.3-1.82c-2-.63-4-1.14-6-1.74A102.63,102.63,0,0,1,93,230.94a13.85,13.85,0,0,1-4.29-2.6A5.32,5.32,0,0,1,87.21,224a5.45,5.45,0,0,1,2-3.44,6.36,6.36,0,0,1,1.5-.9,5.85,5.85,0,0,1,1.53-.4,30.58,30.58,0,0,1,4.38-.28A4.79,4.79,0,0,1,98.13,219.09Z"/><path id="Trazado_755" data-name="Trazado 755" class="cls-5" d="M152.47,230.35l58.84-6.3L212,229l-59.55,5.92Z"/><path id="Trazado_756" data-name="Trazado 756" class="cls-5" d="M210.25,222l-19.88-45.39-40,49.72-3.57-3.56L188.17,173l-1-2-59.52,12.56-1.27-4.59,59.4-11.47-1.27-3.83,4.07-1.27,24.74,57.36Z"/><path id="Trazado_757" data-name="Trazado 757" class="cls-5" d="M95.47,226.36l37.05,6,.2-4-36.11-5.48Z"/><path id="Trazado_758" data-name="Trazado 758" class="cls-5" d="M93.57,221.52l27.7-37.23,5.1,2.3L97,224.07Z"/><path id="Trazado_759" data-name="Trazado 759" class="cls-5" d="M126.38,178.94l-2.76-9.48h-5.47l3.12,14.83,5.11,2.3,1.27-3.06Z"/><path id="Trazado_760" data-name="Trazado 760" class="cls-13" d="M176,187.7l.34,6.43,4.16-5.17v-6.67Z"/><path id="Trazado_761" data-name="Trazado 761" class="cls-14" d="M149.24,174.52l4.51,3.5,10.12-2.13-6-3Z"/><path id="Trazado_762" data-name="Trazado 762" class="cls-5" d="M110.52,169.29c.43,1.32,2.33,6.89,5.13,7.08s22.11-2.8,25-3.54c1.88-.46,2.91-3.54-1.48-3.54C132.87,169.29,109.56,166.35,110.52,169.29Z"/><path id="Trazado_763" data-name="Trazado 763" class="cls-11" d="M110.52,169.29c.43,1.32,2.33,6.89,5.13,7.08s22.11-2.8,25-3.54c1.88-.46,2.91-3.54-1.48-3.54C132.87,169.29,109.56,166.35,110.52,169.29Z"/><circle id="Elipse_14" data-name="Elipse 14" class="cls-5" cx="93.57" cy="224.47" r="4.94"/><circle id="Elipse_15" data-name="Elipse 15" class="cls-11" cx="93.57" cy="224.47" r="4.94"/><circle id="Elipse_16" data-name="Elipse 16" class="cls-5" cx="213.3" cy="224.47" r="4.94"/><circle id="Elipse_17" data-name="Elipse 17" class="cls-11" cx="213.3" cy="224.47" r="4.94"/><circle id="Elipse_18" data-name="Elipse 18" class="cls-5" cx="142.21" cy="232.44" r="11.3"/><circle id="Elipse_19" data-name="Elipse 19" class="cls-11" cx="142.21" cy="232.44" r="11.3"/><rect id="Rectngulo_36" data-name="Rectngulo 36" class="cls-2" x="142.33" y="245.21" width="2.71" height="13.56" transform="translate(-127.95 353.77) rotate(-80.85)"/><rect id="Rectngulo_37" data-name="Rectngulo 37" class="cls-2" x="152.11" y="223.67" width="2.71" height="13.56" transform="translate(-98.46 345.31) rotate(-80.85)"/><path id="Trazado_764" data-name="Trazado 764" class="cls-2" d="M154.24,231.93c0,.46-2.58,1.09-5.86,1.42s-6,.24-6-.21,2.58-1.08,5.86-1.41S154.2,231.49,154.24,231.93Z"/><path id="Trazado_765" data-name="Trazado 765" class="cls-2" d="M142,243.34c.45,0,.71,2.21.59,4.88s-.58,4.82-1,4.8-.72-2.2-.6-4.88S141.53,243.34,142,243.34Z"/><path id="Trazado_766" data-name="Trazado 766" class="cls-5" d="M157.23,226.35l1-6.36-11.89-2-1.58,9.29.73.16c3.26.73,16.6,3.47,18.91,3.16C167,230.3,157.23,226.35,157.23,226.35Z"/><g id="Grupo_40" data-name="Grupo 40" class="cls-9"><path id="Trazado_767" data-name="Trazado 767" class="cls-10" d="M161.94,228.46s3.38,1.61,2.84,2.12-14.13-1.75-20-3.27l.06-.27,15.82,2.78S161.25,228.37,161.94,228.46Z"/></g><path id="Trazado_768" data-name="Trazado 768" class="cls-2" d="M144.63,227l.2.05.58.13,2.15.45c1.81.37,4.32.85,7.11,1.32s5.33.83,7.17,1.07l2.17.27.6.06h.2l-.2,0-.58-.09-2.18-.32c-1.83-.26-4.38-.62-7.15-1.11s-5.31-.92-7.13-1.25l-2.15-.41-.59-.1A.64.64,0,0,0,144.63,227Z"/><path id="Trazado_769" data-name="Trazado 769" class="cls-2" d="M160.6,230a5,5,0,0,1,.58-1,5.34,5.34,0,0,1,.87-.7,1.61,1.61,0,0,0-1,.62A1.68,1.68,0,0,0,160.6,230Z"/><path id="Trazado_770" data-name="Trazado 770" class="cls-2" d="M157.39,227.63a1.86,1.86,0,0,0,.45-.39c.22-.25.38-.47.34-.5s-.23.15-.45.4S157.36,227.61,157.39,227.63Z"/><path id="Trazado_771" data-name="Trazado 771" class="cls-2" d="M156.51,227a1.05,1.05,0,0,0,.47-.21c.23-.15.4-.29.38-.33s-.23.06-.47.21S156.49,226.93,156.51,227Z"/><path id="Trazado_772" data-name="Trazado 772" class="cls-2" d="M156.09,225.74a1.35,1.35,0,0,0,.62.18c.37.05.63.08.63,0a1.54,1.54,0,0,0-.63-.19A1.44,1.44,0,0,0,156.09,225.74Z"/><path id="Trazado_773" data-name="Trazado 773" class="cls-2" d="M156,224.91a1.24,1.24,0,0,0,.66.32,1.14,1.14,0,0,0,.73,0,4.18,4.18,0,0,0-.7-.16A3.29,3.29,0,0,0,156,224.91Z"/><path id="Trazado_774" data-name="Trazado 774" class="cls-2" d="M158,226.66a2.53,2.53,0,0,0,.77.12,3.94,3.94,0,0,0,.84,0,2.15,2.15,0,0,0,.5-.12.41.41,0,0,0,.23-.2.31.31,0,0,0-.06-.33,1.43,1.43,0,0,0-2.14.6c0,.12-.07.2,0,.2a2.06,2.06,0,0,1,.45-.6,1.41,1.41,0,0,1,.73-.31,1.2,1.2,0,0,1,.9.21c.11.11,0,.25-.11.3a2.47,2.47,0,0,1-.47.11,5.56,5.56,0,0,1-.81.08C158.26,226.69,158,226.64,158,226.66Z"/><path id="Trazado_775" data-name="Trazado 775" class="cls-2" d="M158.16,226.73a.73.73,0,0,0,.17-.51,1.36,1.36,0,0,0-.11-.6.8.8,0,0,0-.57-.5.31.31,0,0,0-.29.32.79.79,0,0,0,.07.37,2.39,2.39,0,0,0,.28.52c.2.27.37.4.39.38s-.13-.17-.3-.44a2.41,2.41,0,0,1-.25-.51c-.08-.18-.1-.48.1-.48s.35.23.45.4a1.25,1.25,0,0,1,.13.53A3,3,0,0,1,158.16,226.73Z"/><path id="Trazado_776" data-name="Trazado 776" class="cls-2" d="M145.41,223.79a6.39,6.39,0,0,1,.87.18,3.73,3.73,0,0,1,2.7,3c.1.54.06.89.09.89a.69.69,0,0,0,0-.25,3.48,3.48,0,0,0-2.78-3.74,2.84,2.84,0,0,0-.65-.1A.8.8,0,0,0,145.41,223.79Z"/><path id="Trazado_777" data-name="Trazado 777" class="cls-2" d="M147.46,219a20.17,20.17,0,0,0-.51,2.43,20.87,20.87,0,0,0-.36,2.48c.21-.8.38-1.61.51-2.42A20.74,20.74,0,0,0,147.46,219Z"/><path id="Trazado_778" data-name="Trazado 778" class="cls-2" d="M150.77,227a9.82,9.82,0,0,0,3.47.63,17.5,17.5,0,0,0-1.74-.29C151.55,227.18,150.79,227,150.77,227Z"/><path id="Trazado_779" data-name="Trazado 779" class="cls-2" d="M148.47,226.62s0,.18.09.37.06.36.1.36.1-.18,0-.39A.58.58,0,0,0,148.47,226.62Z"/><path id="Trazado_780" data-name="Trazado 780" class="cls-2" d="M147.74,225.39s0,.15.13.3.21.25.24.22,0-.16-.12-.31S147.77,225.36,147.74,225.39Z"/><path id="Trazado_781" data-name="Trazado 781" class="cls-2" d="M146.59,224.67c0,.05.16.07.33.16s.27.2.3.19,0-.21-.23-.32S146.59,224.63,146.59,224.67Z"/><path id="Trazado_782" data-name="Trazado 782" class="cls-2" d="M145.71,224.29a.34.34,0,0,0,.13.16c.1.06.18.07.2,0s0-.11-.12-.16S145.73,224.25,145.71,224.29Z"/><g id="Grupo_41" data-name="Grupo 41" class="cls-8"><path id="Trazado_783" data-name="Trazado 783" d="M145.39,223.5l12,1.75.22-1.44-12-1.9Z"/></g><path id="Trazado_784" data-name="Trazado 784" class="cls-2" d="M113.62,144.32s-7.91,7.56-2.7,19c2.18,4.77,15.45,8,15.45,8l27.78,8.94-10.45,42,14.63,1.46S175.25,175,173,171.28,125,148,125,148Z"/><path id="Trazado_785" data-name="Trazado 785" class="cls-6" d="M158.33,223.74h-.26l-.76-.06-2.92-.25-10.71-1h-.13l0-.14c1.81-7.38,4.26-17.23,6.93-28,1.25-4.93,2.4-9.66,3.48-14l.1.18-19.95-6.53L128.42,172l-1.52-.52-.4-.14-.13-.06.15,0,.39.12,1.54.47,5.77,1.8,20,6.37.13,0,0,.13c-1.07,4.33-2.24,9.06-3.47,14l-7,28-.11-.15,10.7,1.13,2.91.32.75.1A.75.75,0,0,1,158.33,223.74Z"/><path id="Trazado_786" data-name="Trazado 786" class="cls-14" d="M97.21,265.07h-76S4.48,252.42,7.77,246.77s23.67-1.12,33.67,9.48c0,0,5.63-8.25,12.91-5s15,7.31,15,7.31-.42-6.7,4.27-4.91,7.1,8.1,12.78,7.94S97.21,265.07,97.21,265.07Z"/><path id="Trazado_787" data-name="Trazado 787" class="cls-2" d="M37.82,228.56c0,.09-5.23.17-11.68.17s-11.68-.08-11.68-.17,5.23-.17,11.68-.17S37.82,228.47,37.82,228.56Z"/><path id="Trazado_788" data-name="Trazado 788" class="cls-2" d="M34,227.15c0,.09-5.23.16-11.69.16s-11.68-.07-11.68-.16,5.23-.16,11.68-.16S34,227.08,34,227.15Z"/></g><g id="freepik--Plant--inject-3"><path id="Trazado_789" data-name="Trazado 789" class="cls-5" d="M275.85,229.36a6.79,6.79,0,0,1,3.5,4,11.92,11.92,0,0,1,.46,5.37c-.39,3.49-2.37,7-4.51,9.79-2.94-2.56-3.61-7-3.81-9.32-.31-3.61,1.31-10.35,4.38-9.81"/><path id="Trazado_790" data-name="Trazado 790" class="cls-5" d="M278.72,254.24a5.77,5.77,0,0,1,1.88-5.48,7.66,7.66,0,0,1,5.63-1.76,3.24,3.24,0,0,1,2.5,1.11,2.51,2.51,0,0,1,0,2.5,5,5,0,0,1-1.85,1.82c-2.54,1.6-5.3,2.67-8.18,1.81"/><path id="Trazado_791" data-name="Trazado 791" class="cls-2" d="M275,264.93a4.48,4.48,0,0,1,.11-.72l.35-1.93a20.41,20.41,0,0,1,2-6.19,12.48,12.48,0,0,1,4.44-4.71,7.92,7.92,0,0,1,1.81-.8c.22-.07.4-.1.52-.14h.18a11.6,11.6,0,0,0-6.73,5.8,21.92,21.92,0,0,0-2,6.1l-.43,1.92A3.73,3.73,0,0,1,275,264.93Z"/><path id="Trazado_792" data-name="Trazado 792" class="cls-2" d="M275.06,234.59a1.55,1.55,0,0,1,0,.31c0,.23,0,.53,0,.89.05.79.09,1.92.13,3.31.1,2.79.17,6.66.15,10.92s-.12,8.13-.24,10.92c-.05,1.39-.11,2.5-.15,3.3,0,.37-.06.67-.07.9a1.63,1.63,0,0,1,0,.31.81.81,0,0,1,0-.31v-.9c0-.82,0-1.94.08-3.31.07-2.79.14-6.65.16-10.91s0-8.13-.07-10.91c0-1.38,0-2.5-.06-3.31v-.9C275.05,234.8,275.05,234.69,275.06,234.59Z"/><path id="Trazado_793" data-name="Trazado 793" class="cls-5" d="M273.64,256.36a13.47,13.47,0,0,0-7.37-9.88c-1-.47-2.25-.78-3.06,0s-.63,2-.23,3.06a11.5,11.5,0,0,0,10.59,7.16"/><path id="Trazado_794" data-name="Trazado 794" class="cls-2" d="M266.76,249.79a4.91,4.91,0,0,1,.62.28,6,6,0,0,1,.71.37,10.34,10.34,0,0,1,.89.57,9.51,9.51,0,0,1,1,.77,11.22,11.22,0,0,1,1.09,1,13.92,13.92,0,0,1,3.44,5.76,11.88,11.88,0,0,1,.34,1.43,8.75,8.75,0,0,1,.18,1.25,9.4,9.4,0,0,1,.05,1.06,5.34,5.34,0,0,1,0,.8,3.71,3.71,0,0,1-.07.67c-.06,0,0-1-.14-2.5,0-.42-.11-.84-.19-1.25a14.12,14.12,0,0,0-3.75-7,12.41,12.41,0,0,0-1.06-1,12.23,12.23,0,0,0-1-.79C267.61,250.22,266.73,249.84,266.76,249.79Z"/></g></g></svg>