<svg id="road" xmlns="http://www.w3.org/2000/svg" width="36.667" height="38.473" viewBox="0 0 36.667 38.473">
  <path id="Trazado_1956" data-name="Trazado 1956" d="M212.714,58.847a.564.564,0,0,0-.769-.211c-.007,0-.163.093-.413.257a.564.564,0,1,0,.619.943c.215-.141.349-.218.353-.22A.564.564,0,0,0,212.714,58.847Z" transform="translate(-196.305 -54.162)" fill="#d7e51c"/>
  <path id="Trazado_1957" data-name="Trazado 1957" d="M283.492,412.532c-.19.223-.39.448-.6.669a.564.564,0,1,0,.827.767c.216-.233.427-.47.627-.7a.564.564,0,1,0-.859-.731Z" transform="translate(-262.403 -381.35)" fill="#d7e51c"/>
  <path id="Trazado_1958" data-name="Trazado 1958" d="M315.8,368.439a.564.564,0,0,0-.752.265c-.122.255-.259.516-.409.775a.564.564,0,1,0,.978.562c.163-.284.314-.57.448-.851A.564.564,0,0,0,315.8,368.439Z" transform="translate(-291.827 -340.702)" fill="#d7e51c"/>
  <path id="Trazado_1959" data-name="Trazado 1959" d="M332.566,318.746c.014-.182.022-.364.022-.543,0-.153-.005-.307-.016-.459a.564.564,0,0,0-1.125.079c.009.125.013.253.013.38,0,.149-.006.3-.018.454a.564.564,0,1,0,1.124.089Z" transform="translate(-307.438 -293.383)" fill="#d7e51c"/>
  <path id="Trazado_1960" data-name="Trazado 1960" d="M311.947,269.624a.564.564,0,1,0-.856.734,6.828,6.828,0,0,1,.512.675.564.564,0,1,0,.941-.622A7.949,7.949,0,0,0,311.947,269.624Z" transform="translate(-288.492 -249.181)" fill="#d7e51c"/>
  <path id="Trazado_1961" data-name="Trazado 1961" d="M271.169,237.432c-.259-.167-.533-.332-.814-.491a.564.564,0,0,0-.555.982c.263.149.518.3.758.457a.564.564,0,0,0,.611-.948Z" transform="translate(-250.164 -219.069)" fill="#d7e51c"/>
  <path id="Trazado_1962" data-name="Trazado 1962" d="M223.027,213.175a.564.564,0,0,0-.548.986c.265.147.545.3.83.441a.564.564,0,1,0,.51-1.006C223.547,213.457,223.28,213.316,223.027,213.175Z" transform="translate(-206.396 -197.091)" fill="#d7e51c"/>
  <path id="Trazado_1963" data-name="Trazado 1963" d="M180.452,183.581a.564.564,0,0,0,.732-.859c-.228-.194-.441-.393-.631-.59a.564.564,0,1,0-.81.785c.216.223.455.446.71.664Z" transform="translate(-166.992 -168.288)" fill="#d7e51c"/>
  <path id="Trazado_1964" data-name="Trazado 1964" d="M158.911,135.034a.565.565,0,0,0-.579.548c0,.04,0,.081,0,.12a4.479,4.479,0,0,0,.1.924.564.564,0,1,0,1.1-.233,3.355,3.355,0,0,1-.072-.691q0-.045,0-.089A.564.564,0,0,0,158.911,135.034Z" transform="translate(-147.336 -124.887)" fill="#d7e51c"/>
  <path id="Trazado_1965" data-name="Trazado 1965" d="M172.763,89.73a.564.564,0,0,0,.788-.126,8.039,8.039,0,0,1,.541-.666.564.564,0,0,0-.837-.756,9.148,9.148,0,0,0-.617.76A.564.564,0,0,0,172.763,89.73Z" transform="translate(-160.469 -81.384)" fill="#d7e51c"/>
  <path id="Trazado_1966" data-name="Trazado 1966" d="M248.917,449.74c-.208.172-.332.267-.333.267a.564.564,0,1,0,.682.9c.006,0,.142-.108.37-.3a.564.564,0,0,0-.719-.869Z" transform="translate(-230.602 -415.825)" fill="#d7e51c"/>
  <path id="Trazado_1967" data-name="Trazado 1967" d="M32.575,38.473H43.553a2.5,2.5,0,0,0,2.236-1.46C50.9,26.5,49.724,17.025,38.46,13.544c-3.626-1.121-7.988-2.952-8.172-5.312-.147-1.886,2.357-4.1,7.442-6.594A.866.866,0,0,0,37.372,0H33.283a4.612,4.612,0,0,0-2.041.476,53.888,53.888,0,0,0-5.66,3.178C19.615,7,16.56,10.245,16.5,13.294c-.04,2.087,1.332,4,4.077,5.678,2.487,1.523,3.748,3.23,3.749,5.076,0,4.922-8.819,10.329-11.718,12.106a1.257,1.257,0,0,0,.595,2.32H29.945a.564.564,0,1,0,0-1.127H17.49c9.6-6.31,15.485-14.251,5.689-20.249-6.107-3.739-3.567-8,2.363-12.06a50.877,50.877,0,0,1,6.2-3.548,3.494,3.494,0,0,1,1.546-.362h1.5c-2.986,1.611-7.365,4.479-7.184,7.867a5.167,5.167,0,0,0,2.188,3.656,22.087,22.087,0,0,0,6.662,3.318c5.142,1.757,7.952,4.669,8.352,8.656a.564.564,0,0,0,1.122-.112c-.448-4.464-3.513-7.7-9.109-9.61-5.178-1.769-7.975-3.833-8.089-5.967a3.649,3.649,0,0,1,.71-2.2c-1.683,4.1,4.454,6.571,8.7,7.882,4.283,1.324,7.139,3.572,8.489,6.683,2.279,5.251-.175,11.789-1.84,15.218a1.384,1.384,0,0,1-1.223.825H41.728a24.879,24.879,0,0,0,4.144-10.08.564.564,0,1,0-1.119-.138c-.218,1.766-1.08,5.42-4.386,10.217H32.575a.564.564,0,0,0,0,1.127ZM15.389,37.346h-2.2a.165.165,0,0,1-.045-.12c0-.08.036-.1.049-.111,5.262-3.226,12.257-8.09,12.256-13.067,0-2.264-1.443-4.3-4.287-6.037-3.62-2.217-4.734-4.788-2.048-8.051-1.6,3.3.115,5.962,3.219,7.942.224.143.294.181.527.33C32.039,24.078,24.631,31.663,15.389,37.346Z" transform="translate(-12.02 0)" fill="#d7e51c"/>
</svg>
