<svg xmlns="http://www.w3.org/2000/svg" xmlns:xlink="http://www.w3.org/1999/xlink" width="260" height="84.396" viewBox="0 0 260 84.396">
  <defs>
    <linearGradient id="linear-gradient" y1="0.5" x2="1" y2="0.5" gradientUnits="objectBoundingBox">
      <stop offset="0.02" stop-color="#d7e51c"/>
      <stop offset="1" stop-color="#a0e51c"/>
    </linearGradient>
    <linearGradient id="linear-gradient-2" x1="0" y1="0.5" x2="1" y2="0.5" xlink:href="#linear-gradient"/>
    <linearGradient id="linear-gradient-3" x1="0" y1="0.5" x2="1" y2="0.5" xlink:href="#linear-gradient"/>
    <linearGradient id="linear-gradient-4" x1="0" y1="0.5" x2="1" y2="0.5" xlink:href="#linear-gradient"/>
    <linearGradient id="linear-gradient-5" x1="0" y1="0.5" x2="1" y2="0.5" xlink:href="#linear-gradient"/>
    <linearGradient id="linear-gradient-6" x1="0" y1="0.5" x2="1" y2="0.5" xlink:href="#linear-gradient"/>
    <linearGradient id="linear-gradient-7" x1="0" y1="0.5" x2="1" y2="0.5" xlink:href="#linear-gradient"/>
    <linearGradient id="linear-gradient-8" x1="0" y1="0.5" x2="1" y2="0.5" xlink:href="#linear-gradient"/>
    <linearGradient id="linear-gradient-9" x1="0" y1="0.5" x2="1" y2="0.5" xlink:href="#linear-gradient"/>
    <linearGradient id="linear-gradient-10" x1="0" y1="0.5" x2="1" y2="0.5" xlink:href="#linear-gradient"/>
    <linearGradient id="linear-gradient-12" x1="0" y1="0.5" x2="1" y2="0.5" xlink:href="#linear-gradient"/>
    <linearGradient id="linear-gradient-13" x1="0" y1="0.5" x2="1" y2="0.5" xlink:href="#linear-gradient"/>
    <linearGradient id="linear-gradient-15" x1="0" y1="0.5" x2="1" y2="0.5" xlink:href="#linear-gradient"/>
    <linearGradient id="linear-gradient-17" x1="0" y1="0.5" x2="1" y2="0.5" xlink:href="#linear-gradient"/>
    <linearGradient id="linear-gradient-19" x1="0" y1="0.5" x2="1" y2="0.5" xlink:href="#linear-gradient"/>
    <linearGradient id="linear-gradient-20" x1="-0.001" y1="0.5" x2="0.999" y2="0.5" xlink:href="#linear-gradient"/>
    <linearGradient id="linear-gradient-21" x1="0" y1="0.5" x2="1" y2="0.5" xlink:href="#linear-gradient"/>
  </defs>
  <g id="Grupo_2336" data-name="Grupo 2336" transform="translate(-58.447 -43.606)">
    <g id="Grupo_2335" data-name="Grupo 2335" transform="translate(58.447 43.606)">
      <g id="Grupo_2334" data-name="Grupo 2334">
        <path id="Trazado_3923" data-name="Trazado 3923" d="M69.86,69.8H68.1a.176.176,0,0,0-.139.094l-3.655,8.577L60.5,69.89a.175.175,0,0,0-.136-.094H58.6a.156.156,0,0,0-.154.136v11.4a.171.171,0,0,0,.154.144h1.726a.161.161,0,0,0,.162-.144v-6.7l2.893,6.3a.164.164,0,0,0,.128.08h1.629a.176.176,0,0,0,.139-.08l2.695-6.168v6.564a.163.163,0,0,0,.159.144H69.86a.165.165,0,0,0,.159-.144v-11.4a.152.152,0,0,0-.159-.136" transform="translate(-58.447 2.738)" fill="url(#linear-gradient)"/>
        <path id="Trazado_3924" data-name="Trazado 3924" d="M68.548,69.761,64.365,81.5a.134.134,0,0,0,.134.194h1.888a.141.141,0,0,0,.136-.091l.424-1.221h3.476l.439,1.221a.152.152,0,0,0,.126.091h1.9A.126.126,0,0,0,73,81.5L68.833,69.761a.162.162,0,0,0-.285,0M67.6,78.4,68.684,74.9,69.76,78.4Z" transform="translate(-49.184 2.526)" fill="url(#linear-gradient-2)"/>
        <path id="Trazado_3925" data-name="Trazado 3925" d="M77.838,69.792H76.122a.146.146,0,0,0-.159.125v7.76l-4.917-7.838c-.013-.036-.075-.047-.1-.047h-1.76a.123.123,0,0,0-.134.125V81.341a.132.132,0,0,0,.134.144h1.744a.141.141,0,0,0,.128-.144v-7.68l4.906,7.771a.216.216,0,0,0,.118.053h1.757a.145.145,0,0,0,.149-.144V69.917a.137.137,0,0,0-.149-.125" transform="translate(-41.813 2.731)" fill="url(#linear-gradient-3)"/>
        <path id="Trazado_3926" data-name="Trazado 3926" d="M78.109,69.761,73.93,81.5c-.057.1.021.194.134.194h1.891a.151.151,0,0,0,.134-.091l.414-1.221h3.486l.439,1.221a.152.152,0,0,0,.126.091h1.9a.132.132,0,0,0,.123-.194L78.381,69.761a.151.151,0,0,0-.272,0M77.166,78.4,78.245,74.9,79.322,78.4Z" transform="translate(-34.187 2.526)" fill="url(#linear-gradient-4)"/>
        <path id="Trazado_3927" data-name="Trazado 3927" d="M88.22,74.813H83.7a.142.142,0,0,0-.144.136v1.689a.137.137,0,0,0,.144.136h2.664v1.6a3.279,3.279,0,0,1-2.5,1.219c-1.847,0-3.327-1.149-3.327-3.852,0-2.412,1.48-3.855,3.327-3.855a3.209,3.209,0,0,1,2.353,1.08.179.179,0,0,0,.213,0l1.233-1.324a.148.148,0,0,0,0-.2,5.033,5.033,0,0,0-3.8-1.706c-2.982,0-5.384,2.54-5.384,6,0,3.83,2.276,6.015,5.158,6.015a3.654,3.654,0,0,0,2.854-1.291l.064,1.019a.128.128,0,0,0,.136.119H88.22a.151.151,0,0,0,.162-.13V74.948a.159.159,0,0,0-.162-.136" transform="translate(-27.015 2.637)" fill="url(#linear-gradient-5)"/>
        <path id="Trazado_3928" data-name="Trazado 3928" d="M100.251,69.8h-1.76a.231.231,0,0,0-.149.094l-3.648,8.577L90.88,69.89a.171.171,0,0,0-.136-.094H88.976a.146.146,0,0,0-.146.136v11.4a.16.16,0,0,0,.146.144h1.737a.162.162,0,0,0,.157-.144v-6.7l2.9,6.3a.174.174,0,0,0,.116.08h1.642c.039,0,.131-.05.136-.08l2.71-6.168v6.564a.14.14,0,0,0,.144.144h1.734a.157.157,0,0,0,.152-.144v-11.4a.144.144,0,0,0-.152-.136" transform="translate(-10.781 2.738)" fill="url(#linear-gradient-6)"/>
        <path id="Trazado_3929" data-name="Trazado 3929" d="M102.238,69.8H95.3a.153.153,0,0,0-.149.136v11.4a.168.168,0,0,0,.149.144h6.936a.16.16,0,0,0,.149-.144V79.506a.145.145,0,0,0-.149-.136H97.182V76.7h4.172a.143.143,0,0,0,.149-.13V74.759a.14.14,0,0,0-.149-.136H97.182V71.917h5.055a.139.139,0,0,0,.149-.13V69.932a.147.147,0,0,0-.149-.136" transform="translate(-0.861 2.738)" fill="url(#linear-gradient-7)"/>
        <path id="Trazado_3930" data-name="Trazado 3930" d="M108.327,69.792h-1.711a.138.138,0,0,0-.154.125v7.76l-4.914-7.838a.139.139,0,0,0-.11-.047h-1.76a.135.135,0,0,0-.146.125V81.341a.143.143,0,0,0,.146.144h1.739a.154.154,0,0,0,.152-.144v-7.68l4.894,7.771c.01.028.082.053.123.053h1.742a.144.144,0,0,0,.146-.144V69.917a.136.136,0,0,0-.146-.125" transform="translate(6.007 2.731)" fill="url(#linear-gradient-8)"/>
        <path id="Trazado_3931" data-name="Trazado 3931" d="M110.694,69.833h-6.065a.148.148,0,0,0-.167.138V71.7c0,.069.057.108.167.108h2.035v9.458a.125.125,0,0,0,.128.133h1.734a.137.137,0,0,0,.139-.133V71.81h2.029c.1,0,.162-.039.162-.108V69.971a.153.153,0,0,0-.162-.138" transform="translate(13.743 2.803)" fill="url(#linear-gradient-9)"/>
        <path id="Trazado_3932" data-name="Trazado 3932" d="M113.175,69.8h-1.739a.139.139,0,0,0-.146.136v11.4a.151.151,0,0,0,.146.144h1.739a.158.158,0,0,0,.149-.144v-11.4a.145.145,0,0,0-.149-.136" transform="translate(24.454 2.738)" fill="url(#linear-gradient-10)"/>
        <path id="Trazado_3933" data-name="Trazado 3933" d="M122.615,69.792h-1.721a.145.145,0,0,0-.152.125v7.76l-4.909-7.838a.141.141,0,0,0-.113-.047h-1.762a.124.124,0,0,0-.128.125V81.341a.134.134,0,0,0,.128.144h1.749a.15.15,0,0,0,.136-.144v-7.68l4.9,7.771a.2.2,0,0,0,.121.053h1.752a.15.15,0,0,0,.157-.144V69.917a.144.144,0,0,0-.157-.125" transform="translate(28.44 2.731)" fill="url(#linear-gradient-4)"/>
        <path id="Trazado_3934" data-name="Trazado 3934" d="M130.528,69.8h-1.749a.219.219,0,0,0-.152.094L125,78.467,121.18,69.89a.226.226,0,0,0-.146-.094h-1.76a.148.148,0,0,0-.159.136v11.4a.16.16,0,0,0,.159.144H121a.159.159,0,0,0,.154-.144v-6.7l2.9,6.3a.2.2,0,0,0,.131.08h1.634a.184.184,0,0,0,.134-.08l2.7-6.168v6.564a.168.168,0,0,0,.162.144h1.719a.169.169,0,0,0,.167-.144v-11.4a.156.156,0,0,0-.167-.136" transform="translate(36.731 2.738)" fill="url(#linear-gradient-12)"/>
        <path id="Trazado_3935" data-name="Trazado 3935" d="M130.607,69.739c-3.584,0-5.32,3-5.32,5.982s1.737,6,5.32,6c3.5,0,5.287-3.016,5.287-6s-1.785-5.982-5.287-5.982m0,9.879c-2.171,0-3.239-1.939-3.239-3.875s1.069-3.9,3.239-3.9c2.127,0,3.208,1.958,3.208,3.9s-1.081,3.875-3.208,3.875" transform="translate(46.414 2.637)" fill="url(#linear-gradient-13)"/>
        <path id="Trazado_3936" data-name="Trazado 3936" d="M136.8,75.54a2.472,2.472,0,0,0,1.48-2.434c0-3.406-3.612-3.31-3.612-3.31H131.2a.145.145,0,0,0-.139.136v11.4a.159.159,0,0,0,.139.144h3.465c.732,0,3.75-.152,3.75-3.387A2.709,2.709,0,0,0,136.8,75.54m-3.715-3.6h1.582s1.58-.1,1.58,1.293c0,1.252-1.3,1.368-1.58,1.368h-1.582Zm1.582,7.4h-1.582V76.629h1.582c.339,0,1.726,0,1.726,1.393,0,1.105-1.058,1.316-1.726,1.316" transform="translate(55.47 2.737)" fill="url(#linear-gradient)"/>
        <path id="Trazado_3937" data-name="Trazado 3937" d="M137.4,69.8h-1.731a.146.146,0,0,0-.152.136v11.4a.159.159,0,0,0,.152.144H137.4a.159.159,0,0,0,.154-.144v-11.4a.147.147,0,0,0-.154-.136" transform="translate(62.47 2.738)" fill="url(#linear-gradient-15)"/>
        <path id="Trazado_3938" data-name="Trazado 3938" d="M143.781,79.312h-3.7v-9.38a.141.141,0,0,0-.152-.136h-1.726a.147.147,0,0,0-.157.136v11.4a.16.16,0,0,0,.157.144h5.574a.158.158,0,0,0,.157-.144V79.448a.153.153,0,0,0-.157-.136" transform="translate(66.437 2.738)" fill="url(#linear-gradient-9)"/>
        <path id="Trazado_3939" data-name="Trazado 3939" d="M143.8,69.8h-1.729a.151.151,0,0,0-.162.136v11.4a.163.163,0,0,0,.162.144H143.8a.172.172,0,0,0,.159-.144v-11.4a.157.157,0,0,0-.159-.136" transform="translate(72.485 2.738)" fill="url(#linear-gradient-17)"/>
        <path id="Trazado_3940" data-name="Trazado 3940" d="M148.22,69.761,144.048,81.5a.127.127,0,0,0,.123.194h1.886a.142.142,0,0,0,.139-.091l.421-1.221h3.465l.452,1.221a.149.149,0,0,0,.126.091h1.9a.13.13,0,0,0,.123-.194L148.5,69.761a.16.16,0,0,0-.283,0m-.953,8.635,1.1-3.492,1.061,3.492Z" transform="translate(75.817 2.526)" fill="url(#linear-gradient-2)"/>
        <path id="Trazado_3941" data-name="Trazado 3941" d="M155.935,73.263a3.275,3.275,0,0,0-3.625-3.467h-3.465a.144.144,0,0,0-.136.136v11.4a.14.14,0,0,0,.136.133h1.747a.146.146,0,0,0,.159-.133V76.753H151.9l1.952,4.633c.01.039.092.08.139.08h1.916a.118.118,0,0,0,.11-.183c-.668-1.617-1.385-3.24-2.055-4.888a3.07,3.07,0,0,0,1.968-3.132m-3.625,1.36h-1.559V71.917h1.559c.316,0,1.593.072,1.593,1.346a1.373,1.373,0,0,1-1.593,1.36" transform="translate(83.16 2.738)" fill="url(#linear-gradient-19)"/>
        <path id="Trazado_3942" data-name="Trazado 3942" d="M155.037,69.8H153.3a.138.138,0,0,0-.146.136v11.4a.149.149,0,0,0,.146.144h1.737a.158.158,0,0,0,.146-.144v-11.4a.144.144,0,0,0-.146-.136" transform="translate(90.133 2.738)" fill="url(#linear-gradient-20)"/>
        <path id="Trazado_3943" data-name="Trazado 3943" d="M160.847,69.739c-3.568,0-5.315,3-5.315,5.982s1.747,6,5.315,6c3.509,0,5.289-3.016,5.289-6s-1.78-5.982-5.289-5.982m0,9.879c-2.16,0-3.239-1.939-3.239-3.875s1.079-3.9,3.239-3.9c2.13,0,3.224,1.958,3.224,3.9s-1.094,3.875-3.224,3.875" transform="translate(93.864 2.637)" fill="url(#linear-gradient-21)"/>
        <path id="Trazado_3944" data-name="Trazado 3944" d="M318.419,107.238l-27.3-62.782H281.99l3.134,7.6L264.65,98.066l-15.631.053V54.108l6.61-8.688H244.911L221.422,75.7,198.236,45.42H187.511l.01.011-28.149.066a28.311,28.311,0,0,0-10.278-1.892A29.056,29.056,0,0,0,137.452,46a30.959,30.959,0,0,0-9.777,6.666,31.409,31.409,0,0,0-6.7,10.092A32.12,32.12,0,0,0,118.5,75.372a35.965,35.965,0,0,0,2.348,13.014,33.914,33.914,0,0,0,5.667,9.588l-20.486.055a8.393,8.393,0,0,1-2.366-.288,5.217,5.217,0,0,1-1.921-1.075,13.8,13.8,0,0,1-1.916-2.116c-.668-.872-1.464-2.041-2.376-3.467l-4.413-9.851a17.513,17.513,0,0,0,9.656-6.123q3.506-4.449,3.5-11.485a21.256,21.256,0,0,0-1.331-7.771,16.075,16.075,0,0,0-3.725-5.722,16.36,16.36,0,0,0-5.68-3.512,20.759,20.759,0,0,0-7.164-1.2H58.447v61.7h8.282V83.969a15.723,15.723,0,0,1,5.289-1.95,33.338,33.338,0,0,1,5.441-.451H84.1l6.931,15.8A17.875,17.875,0,0,0,94.673,103a13.424,13.424,0,0,0,4.352,2.883,14.815,14.815,0,0,0,4.76,1.075c1.361.1,26.364.147,36.154.172a29.191,29.191,0,0,0,9.071,1.41,28.4,28.4,0,0,0,11.722-2.482,31.238,31.238,0,0,0,9.746-6.78,32.631,32.631,0,0,0,9.14-22.909,34.2,34.2,0,0,0-2.4-12.909,33.318,33.318,0,0,0-5.338-8.962c7.28.039,17.545.091,22.251.108v52.524h8.143V64.693l19.215,25.222,19.395-25.222v42.432h8.141v-.011c3.3.022,7.73.055,11.565.066l-.018.058h8.965l1.449-2.9a6.28,6.28,0,0,1,1.744-2.058,13.817,13.817,0,0,1,3.424-2,25.387,25.387,0,0,1,5.127-1.484,36.587,36.587,0,0,1,6.879-.579h17.252l3.733,9.02ZM88.248,72.464H77.454a38.36,38.36,0,0,0-5.477.379,13.043,13.043,0,0,0-5.248,2.047V54.521H88.248a15.3,15.3,0,0,1,3.792.454,8.392,8.392,0,0,1,3.047,1.465,7.186,7.186,0,0,1,2.05,2.675,9.47,9.47,0,0,1,.758,4.007c0,3.287-.879,5.666-2.654,7.14a10.65,10.65,0,0,1-6.992,2.2m81.3,12.684a24.507,24.507,0,0,1-4.793,7.475,21.8,21.8,0,0,1-7.077,5,20.74,20.74,0,0,1-8.624,1.811,21.358,21.358,0,0,1-8.511-1.731,23.023,23.023,0,0,1-7.141-4.794,22.012,22.012,0,0,1-4.937-7.306,22.917,22.917,0,0,1-1.834-9.2,25.635,25.635,0,0,1,1.716-9.541,23.164,23.164,0,0,1,4.709-7.514,20.936,20.936,0,0,1,7.108-4.921,22.653,22.653,0,0,1,8.819-1.728,22,22,0,0,1,15.7,6.483,23.219,23.219,0,0,1,4.865,7.342,25.282,25.282,0,0,1,0,18.625m121.645,3.969a34.457,34.457,0,0,0-9.428,1.036,13.069,13.069,0,0,0-5,2.437L289.3,63.067l12.392,26.05Z" transform="translate(-58.447 -43.606)" fill="url(#linear-gradient-6)"/>
        <path id="Trazado_3945" data-name="Trazado 3945" d="M91.266,69.8H84.328a.145.145,0,0,0-.139.136v11.4a.159.159,0,0,0,.139.144h6.938a.164.164,0,0,0,.157-.144V79.506a.149.149,0,0,0-.157-.136H86.211V76.7h4.195a.137.137,0,0,0,.134-.13V74.759a.134.134,0,0,0-.134-.136H86.211V71.917h5.055a.143.143,0,0,0,.157-.13V69.932a.151.151,0,0,0-.157-.136" transform="translate(-18.062 2.738)" fill="url(#linear-gradient-7)"/>
      </g>
    </g>
  </g>
</svg>
