<svg id="Grupo_850" data-name="Grupo 850" xmlns="http://www.w3.org/2000/svg" width="312" height="231.326" viewBox="0 0 312 231.326">
  <g id="Grupo_709" data-name="Grupo 709" transform="translate(0)">
    <g id="Grupo_707" data-name="Grupo 707">
      <path id="Trazado_2574" data-name="Trazado 2574" d="M858.568,2657.181s22.966-56.065,12.631-127.638c-3.531-24.468-10.8-50.924-28.125-69.305-24.051-25.524-64.663-38.117-97.882-27.945-29.583,9.058-50.2,33.23-74.936,50.728-26.984,19.085-52.821,4.771-84.4,32.8s-25.263,78.134-18.373,96.028,16.313,36.088,43.753,43.988Z" transform="translate(-561.872 -2428.766)" fill="#d5e31c"/>
    </g>
    <g id="Grupo_708" data-name="Grupo 708" opacity="0.7">
      <path id="Trazado_2575" data-name="Trazado 2575" d="M858.568,2657.181s22.966-56.065,12.631-127.638c-3.531-24.468-10.8-50.924-28.125-69.305-24.051-25.524-64.663-38.117-97.882-27.945-29.583,9.058-50.2,33.23-74.936,50.728-26.984,19.085-52.821,4.771-84.4,32.8s-25.263,78.134-18.373,96.028,16.313,36.088,43.753,43.988Z" transform="translate(-561.872 -2428.766)" fill="#fff"/>
    </g>
  </g>
  <g id="Grupo_744" data-name="Grupo 744" transform="translate(45.776 27.621)">
    <g id="Grupo_710" data-name="Grupo 710" transform="translate(3.203 39.571)">
      <rect id="Rectángulo_60" data-name="Rectángulo 60" width="226.729" height="159.48" transform="translate(0.387 0.402)" fill="#fff"/>
      <path id="Trazado_2576" data-name="Trazado 2576" d="M820.721,2630.954H593.991a.4.4,0,0,1-.387-.4v-159.48a.394.394,0,0,1,.387-.4h226.73a.4.4,0,0,1,.388.4v159.48A.4.4,0,0,1,820.721,2630.954Zm-226.342-.805H820.334V2471.474H594.379Z" transform="translate(-593.604 -2470.669)" fill="#1a2e35"/>
    </g>
    <g id="Grupo_711" data-name="Grupo 711" transform="translate(150.998 44.183)">
      <rect id="Rectángulo_61" data-name="Rectángulo 61" width="76.555" height="130.685" transform="translate(0.388 0.403)" fill="#fff"/>
      <path id="Trazado_2577" data-name="Trazado 2577" d="M766.3,2605.036H689.743a.4.4,0,0,1-.387-.4V2473.947a.4.4,0,0,1,.387-.4H766.3a.4.4,0,0,1,.387.4v130.686A.4.4,0,0,1,766.3,2605.036Zm-76.168-.805h75.781V2474.35H690.131Z" transform="translate(-689.356 -2473.544)" fill="#1a2e35"/>
    </g>
    <g id="Grupo_712" data-name="Grupo 712" transform="translate(5.662 44.183)">
      <rect id="Rectángulo_62" data-name="Rectángulo 62" width="76.555" height="130.685" transform="translate(0.387 0.403)" fill="#fff"/>
      <path id="Trazado_2578" data-name="Trazado 2578" d="M672.14,2605.036H595.584a.4.4,0,0,1-.387-.4V2473.947a.4.4,0,0,1,.387-.4H672.14a.4.4,0,0,1,.387.4v130.686A.4.4,0,0,1,672.14,2605.036Zm-76.168-.805h75.779V2474.35H595.972Z" transform="translate(-595.197 -2473.544)" fill="#1a2e35"/>
    </g>
    <g id="Grupo_713" data-name="Grupo 713" transform="translate(151.386 44.585)">
      <path id="Trazado_2579" data-name="Trazado 2579" d="M766.162,2516.02,689.607,2543.8v-70h76.555Z" transform="translate(-689.607 -2473.796)" fill="#242838"/>
    </g>
    <g id="Grupo_714" data-name="Grupo 714" transform="translate(6.049 44.585)">
      <path id="Trazado_2580" data-name="Trazado 2580" d="M672,2516.02l-76.555,33.015V2473.8H672Z" transform="translate(-595.448 -2473.796)" fill="#242838"/>
    </g>
    <g id="Grupo_715" data-name="Grupo 715" transform="translate(85.661 39.973)">
      <rect id="Rectángulo_63" data-name="Rectángulo 63" width="62.587" height="159.48" fill="#d5e31c"/>
    </g>
    <g id="Grupo_716" data-name="Grupo 716" transform="translate(88.816 45.589)">
      <path id="Trazado_2581" data-name="Trazado 2581" d="M649.321,2555.756h55.5v66.361h-55.5Zm0-81.083v66.361h55.5v-66.361Z" transform="translate(-648.934 -2474.27)" fill="#fff"/>
      <path id="Trazado_2582" data-name="Trazado 2582" d="M704.96,2622.671h-55.5a.4.4,0,0,1-.388-.4v-66.361a.4.4,0,0,1,.388-.4h55.5a.394.394,0,0,1,.387.4v66.361A.394.394,0,0,1,704.96,2622.671Zm-55.113-.8h54.726V2556.31H649.847Zm55.113-80.278h-55.5a.4.4,0,0,1-.388-.4v-66.361a.4.4,0,0,1,.388-.4h55.5a.394.394,0,0,1,.387.4v66.361A.394.394,0,0,1,704.96,2541.588Zm-55.113-.805h54.726v-65.556H649.847Z" transform="translate(-649.07 -2474.422)" fill="#1a2e35"/>
    </g>
    <g id="Grupo_724" data-name="Grupo 724" transform="translate(89.204 45.992)">
      <g id="Grupo_717" data-name="Grupo 717" transform="translate(16.514 131.702)">
        <path id="Trazado_2583" data-name="Trazado 2583" d="M699.007,2564.977v-8.17l-38.987,15.742h19.924Z" transform="translate(-660.021 -2556.807)" fill="#242838"/>
      </g>
      <g id="Grupo_721" data-name="Grupo 721">
        <g id="Grupo_719" data-name="Grupo 719">
          <g id="Grupo_718" data-name="Grupo 718">
            <path id="Trazado_2584" data-name="Trazado 2584" d="M649.322,2521.751l55.5-25.156v-21.922h-55.5Z" transform="translate(-649.322 -2474.673)" fill="#242838"/>
          </g>
        </g>
        <g id="Grupo_720" data-name="Grupo 720" transform="translate(15.411 50.173)">
          <path id="Trazado_2585" data-name="Trazado 2585" d="M677.088,2522.151l22.308-8.861v-7.327l-40.091,16.188Z" transform="translate(-659.306 -2505.963)" fill="#242838"/>
        </g>
      </g>
      <g id="Grupo_723" data-name="Grupo 723" transform="translate(0 81.083)">
        <g id="Grupo_722" data-name="Grupo 722">
          <path id="Trazado_2586" data-name="Trazado 2586" d="M649.322,2581.818l55.5-23.648v-32.931h-55.5Z" transform="translate(-649.322 -2525.239)" fill="#242838"/>
        </g>
      </g>
    </g>
    <g id="Grupo_735" data-name="Grupo 735">
      <g id="Grupo_725" data-name="Grupo 725" transform="translate(0.432)">
        <path id="Trazado_2587" data-name="Trazado 2587" d="M825.61,2489h-233.8l23.38-43.009H802.23Z" transform="translate(-591.809 -2445.991)" fill="#d5e31c"/>
      </g>
      <g id="Grupo_726" data-name="Grupo 726" transform="translate(0 42.724)">
        <path id="Trazado_2588" data-name="Trazado 2588" d="M591.823,2472.886c-.019.3-.043.592-.043.894a12.965,12.965,0,1,0,25.911,0c0-.3-.025-.6-.043-.894Z" transform="translate(-591.393 -2472.483)" fill="#fff"/>
        <path id="Trazado_2589" data-name="Trazado 2589" d="M604.871,2487.792a13.624,13.624,0,0,1-13.342-13.862c0-.252.017-.5.032-.749l.012-.172a.4.4,0,0,1,.386-.375h25.825a.394.394,0,0,1,.386.375l.011.159c.017.251.034.5.034.762A13.625,13.625,0,0,1,604.871,2487.792Zm-12.549-14.353c-.011.162-.019.326-.019.491a12.577,12.577,0,1,0,25.136,0c0-.166-.008-.329-.019-.491Z" transform="translate(-591.529 -2472.635)" fill="#1a2e35"/>
      </g>
      <g id="Grupo_727" data-name="Grupo 727" transform="translate(26.354 43.126)">
        <path id="Trazado_2590" data-name="Trazado 2590" d="M608.646,2472.886c-.018.3-.043.592-.043.894a12.965,12.965,0,1,0,25.911,0c0-.3-.025-.6-.043-.894Z" transform="translate(-608.603 -2472.886)" fill="#d5e31c"/>
      </g>
      <g id="Grupo_728" data-name="Grupo 728" transform="translate(51.933 42.724)">
        <path id="Trazado_2591" data-name="Trazado 2591" d="M625.469,2472.886c-.019.3-.043.592-.043.894a12.965,12.965,0,1,0,25.911,0c0-.3-.025-.6-.043-.894Z" transform="translate(-625.039 -2472.483)" fill="#fff"/>
        <path id="Trazado_2592" data-name="Trazado 2592" d="M638.517,2487.792a13.625,13.625,0,0,1-13.342-13.862c0-.252.017-.5.034-.749l.011-.172a.4.4,0,0,1,.388-.375H651.43a.4.4,0,0,1,.387.375l.009.159c.017.251.034.5.034.762A13.625,13.625,0,0,1,638.517,2487.792Zm-12.549-14.353c-.011.162-.019.326-.019.491a12.577,12.577,0,1,0,25.136,0c0-.166-.008-.329-.017-.491Z" transform="translate(-625.175 -2472.635)" fill="#1a2e35"/>
      </g>
      <g id="Grupo_729" data-name="Grupo 729" transform="translate(78.288 43.126)">
        <path id="Trazado_2593" data-name="Trazado 2593" d="M642.292,2472.886c-.019.3-.043.592-.043.894a12.965,12.965,0,1,0,25.911,0c0-.3-.025-.6-.043-.894Z" transform="translate(-642.249 -2472.886)" fill="#d5e31c"/>
      </g>
      <g id="Grupo_730" data-name="Grupo 730" transform="translate(103.867 42.724)">
        <path id="Trazado_2594" data-name="Trazado 2594" d="M659.117,2472.886c-.02.3-.045.592-.045.894a12.965,12.965,0,1,0,25.911,0c0-.3-.025-.6-.043-.894Z" transform="translate(-658.685 -2472.483)" fill="#fff"/>
        <path id="Trazado_2595" data-name="Trazado 2595" d="M672.165,2487.792a13.625,13.625,0,0,1-13.344-13.862c0-.252.017-.5.034-.749l.011-.172a.4.4,0,0,1,.388-.375h25.823a.4.4,0,0,1,.387.375l.011.159c.016.251.033.5.033.762A13.624,13.624,0,0,1,672.165,2487.792Zm-12.55-14.353c-.011.162-.019.326-.019.491a12.577,12.577,0,1,0,25.136,0c0-.166-.008-.329-.017-.491Z" transform="translate(-658.821 -2472.635)" fill="#1a2e35"/>
      </g>
      <g id="Grupo_731" data-name="Grupo 731" transform="translate(130.222 43.126)">
        <path id="Trazado_2596" data-name="Trazado 2596" d="M675.939,2472.886c-.018.3-.043.592-.043.894a12.964,12.964,0,1,0,25.91,0c0-.3-.025-.6-.043-.894Z" transform="translate(-675.896 -2472.886)" fill="#d5e31c"/>
      </g>
      <g id="Grupo_732" data-name="Grupo 732" transform="translate(155.8 42.724)">
        <path id="Trazado_2597" data-name="Trazado 2597" d="M692.762,2472.886c-.018.3-.043.592-.043.894a12.964,12.964,0,1,0,25.91,0c0-.3-.025-.6-.043-.894Z" transform="translate(-692.33 -2472.483)" fill="#fff"/>
        <path id="Trazado_2598" data-name="Trazado 2598" d="M705.811,2487.792a13.625,13.625,0,0,1-13.344-13.862c0-.252.017-.5.034-.749l.011-.172a.4.4,0,0,1,.388-.375h25.823a.4.4,0,0,1,.388.375l.011.159c.017.251.032.5.032.762A13.624,13.624,0,0,1,705.811,2487.792Zm-12.55-14.353c-.009.162-.017.326-.017.491a12.577,12.577,0,1,0,25.135,0c0-.166-.008-.329-.017-.491Z" transform="translate(-692.467 -2472.635)" fill="#1a2e35"/>
      </g>
      <g id="Grupo_733" data-name="Grupo 733" transform="translate(182.156 43.126)">
        <path id="Trazado_2599" data-name="Trazado 2599" d="M709.585,2472.886c-.018.3-.043.592-.043.894a12.965,12.965,0,1,0,25.911,0c0-.3-.025-.6-.045-.894Z" transform="translate(-709.542 -2472.886)" fill="#d5e31c"/>
      </g>
      <g id="Grupo_734" data-name="Grupo 734" transform="translate(207.735 42.724)">
        <path id="Trazado_2600" data-name="Trazado 2600" d="M726.408,2472.886c-.019.3-.043.592-.043.894a12.965,12.965,0,1,0,25.911,0c0-.3-.025-.6-.045-.894Z" transform="translate(-725.978 -2472.483)" fill="#fff"/>
        <path id="Trazado_2601" data-name="Trazado 2601" d="M739.456,2487.792a13.624,13.624,0,0,1-13.342-13.862c0-.252.015-.5.032-.749l.012-.172a.393.393,0,0,1,.386-.375H752.37a.394.394,0,0,1,.386.375l.011.159c.017.251.034.5.034.762A13.625,13.625,0,0,1,739.456,2487.792Zm-12.549-14.353c-.011.162-.019.326-.019.491a12.577,12.577,0,1,0,25.135,0c0-.166-.006-.329-.017-.491Z" transform="translate(-726.114 -2472.635)" fill="#1a2e35"/>
      </g>
    </g>
    <g id="Grupo_738" data-name="Grupo 738" transform="translate(97.908 62.995)">
      <g id="Grupo_736" data-name="Grupo 736" transform="translate(0 1.896)">
        <path id="Trazado_2602" data-name="Trazado 2602" d="M692.665,2497.729a.367.367,0,0,1-.185-.049l-18.41-10.36-18.538,10.36a.381.381,0,0,1-.525-.164.41.41,0,0,1,.157-.545l18.721-10.463a.373.373,0,0,1,.369,0l18.595,10.464a.409.409,0,0,1,.156.545A.385.385,0,0,1,692.665,2497.729Z" transform="translate(-654.961 -2486.46)" fill="#fff"/>
      </g>
      <g id="Grupo_737" data-name="Grupo 737" transform="translate(16.897)">
        <path id="Trazado_2603" data-name="Trazado 2603" d="M669.809,2487.425a1.827,1.827,0,1,0-1.824,1.9A1.862,1.862,0,0,0,669.809,2487.425Z" transform="translate(-665.772 -2485.126)" fill="#fff"/>
        <path id="Trazado_2604" data-name="Trazado 2604" d="M668.121,2489.876a2.3,2.3,0,1,1,2.214-2.3A2.26,2.26,0,0,1,668.121,2489.876Zm0-3.794a1.5,1.5,0,1,0,1.437,1.495A1.469,1.469,0,0,0,668.121,2486.082Z" transform="translate(-665.908 -2485.277)" fill="#1a2e35"/>
      </g>
    </g>
    <g id="Grupo_739" data-name="Grupo 739" transform="translate(98.297 75.758)">
      <rect id="Rectángulo_64" data-name="Rectángulo 64" width="37.316" height="19.183" fill="#d5e31c"/>
    </g>
    <g id="Grupo_740" data-name="Grupo 740" transform="translate(103.252 82.457)">
      <path id="Trazado_2605" data-name="Trazado 2605" d="M663.3,2500.22c0,1.911-1.118,2.923-2.479,2.923-1.412,0-2.4-1.135-2.4-2.816,0-1.76,1.054-2.913,2.481-2.913C662.362,2497.414,663.3,2498.575,663.3,2500.22Zm-4.144.091c0,1.185.619,2.247,1.7,2.247s1.712-1.044,1.712-2.3c0-1.1-.556-2.256-1.7-2.256S659.159,2499.093,659.159,2500.311Z" transform="translate(-658.423 -2497.414)" fill="#1a2e35"/>
      <path id="Trazado_2606" data-name="Trazado 2606" d="M662.167,2497.551a7.677,7.677,0,0,1,1.323-.105,2.145,2.145,0,0,1,1.5.46,1.521,1.521,0,0,1,.466,1.161,1.666,1.666,0,0,1-.412,1.185,2.16,2.16,0,0,1-1.631.609,2.208,2.208,0,0,1-.554-.05v2.223h-.69Zm.69,2.676a2.176,2.176,0,0,0,.57.058c.832,0,1.34-.421,1.34-1.187,0-.732-.5-1.085-1.261-1.085a2.7,2.7,0,0,0-.648.058Z" transform="translate(-656.388 -2497.396)" fill="#1a2e35"/>
      <path id="Trazado_2607" data-name="Trazado 2607" d="M667.665,2500.417h-2.076v2H667.9v.6h-3v-5.548h2.885v.6h-2.195v1.753h2.076Z" transform="translate(-654.903 -2497.38)" fill="#1a2e35"/>
      <path id="Trazado_2608" data-name="Trazado 2608" d="M667.426,2503.018v-5.548h.752l1.713,2.808a16.149,16.149,0,0,1,.958,1.8l.016-.008c-.063-.741-.079-1.416-.079-2.281v-2.322h.65v5.548h-.7l-1.7-2.814a18.03,18.03,0,0,1-1-1.854l-.023.01c.039.7.056,1.366.056,2.288v2.37Z" transform="translate(-653.53 -2497.38)" fill="#1a2e35"/>
      <path id="Trazado_2609" data-name="Trazado 2609" d="M673.571,2500.417H671.5v2h2.314v.6h-3v-5.548h2.885v.6H671.5v1.753h2.076Z" transform="translate(-651.693 -2497.38)" fill="#1a2e35"/>
      <path id="Trazado_2610" data-name="Trazado 2610" d="M673.332,2497.561a9.274,9.274,0,0,1,1.466-.115,2.993,2.993,0,0,1,2.164.69,2.607,2.607,0,0,1,.752,1.992,3.008,3.008,0,0,1-.769,2.159,3.213,3.213,0,0,1-2.361.8,10.642,10.642,0,0,1-1.252-.066Zm.69,4.9a4.041,4.041,0,0,0,.7.042,2.094,2.094,0,0,0,2.275-2.354,1.94,1.94,0,0,0-2.163-2.14,3.8,3.8,0,0,0-.809.073Z" transform="translate(-650.32 -2497.396)" fill="#1a2e35"/>
    </g>
    <g id="Grupo_743" data-name="Grupo 743" transform="translate(138.258 116.267)">
      <g id="Grupo_741" data-name="Grupo 741">
        <ellipse id="Elipse_62" data-name="Elipse 62" cx="3.797" cy="3.944" rx="3.797" ry="3.944" transform="translate(0.388 0.403)" fill="#fff"/>
        <path id="Trazado_2611" data-name="Trazado 2611" d="M685.286,2527.193a4.35,4.35,0,1,1,4.185-4.347A4.272,4.272,0,0,1,685.286,2527.193Zm0-7.887a3.544,3.544,0,1,0,3.41,3.54A3.48,3.48,0,0,0,685.286,2519.306Z" transform="translate(-681.102 -2518.499)" fill="#1a2e35"/>
      </g>
      <g id="Grupo_742" data-name="Grupo 742" transform="translate(2.829 2.939)">
        <ellipse id="Elipse_63" data-name="Elipse 63" cx="0.968" cy="1.006" rx="0.968" ry="1.006" transform="translate(0.387 0.402)" fill="#fff"/>
        <path id="Trazado_2612" data-name="Trazado 2612" d="M684.29,2523.149a1.409,1.409,0,1,1,1.355-1.409A1.385,1.385,0,0,1,684.29,2523.149Zm0-2.012a.6.6,0,1,0,.581.6A.592.592,0,0,0,684.29,2521.137Z" transform="translate(-682.935 -2520.332)" fill="#1a2e35"/>
      </g>
    </g>
  </g>
  <g id="Grupo_745" data-name="Grupo 745" transform="translate(19.591 225.957)">
    <path id="Trazado_2613" data-name="Trazado 2613" d="M858.262,2575.049H577.148a2.634,2.634,0,0,1-2.584-2.684h0a2.635,2.635,0,0,1,2.584-2.685H858.262a2.635,2.635,0,0,1,2.582,2.685h0A2.634,2.634,0,0,1,858.262,2575.049Z" transform="translate(-574.564 -2569.68)" fill="#242838"/>
  </g>
  <g id="Grupo_806" data-name="Grupo 806" transform="translate(52.121 99.79)">
    <g id="Grupo_799" data-name="Grupo 799" transform="translate(1.151)">
      <g id="Grupo_750" data-name="Grupo 750" transform="translate(0 0.351)">
        <g id="Grupo_746" data-name="Grupo 746">
          <path id="Trazado_2614" data-name="Trazado 2614" d="M607.965,2494.29v5.428h-1.636v-5.951a2.5,2.5,0,0,0-2.454-2.55h0a2.5,2.5,0,0,0-2.454,2.55v7.389h-1.511v-3.924a1.8,1.8,0,0,0-1.763-1.83h0a1.8,1.8,0,0,0-1.761,1.83v6.016h0a1.156,1.156,0,0,0,1.133,1.177h3.9v4.446h4.908v-5.755h3.4a1.411,1.411,0,0,0,1.385-1.438h0v-7.389a1.6,1.6,0,0,0-1.573-1.634h0A1.6,1.6,0,0,0,607.965,2494.29Z" transform="translate(-596.385 -2491.217)" fill="#d5e31c"/>
        </g>
        <g id="Grupo_749" data-name="Grupo 749" transform="translate(2.325 14.925)">
          <g id="Grupo_747" data-name="Grupo 747" transform="translate(0.514 1.969)">
            <rect id="Rectángulo_65" data-name="Rectángulo 65" width="8.626" height="8.31" transform="translate(0.387 0.402)" fill="#fff"/>
            <path id="Trazado_2615" data-name="Trazado 2615" d="M607.238,2510.867h-8.627a.4.4,0,0,1-.387-.4v-8.309a.394.394,0,0,1,.387-.4h8.627a.394.394,0,0,1,.387.4v8.309A.394.394,0,0,1,607.238,2510.867Zm-8.239-.8h7.852v-7.5H599Z" transform="translate(-598.224 -2501.753)" fill="#1a2e35"/>
          </g>
          <g id="Grupo_748" data-name="Grupo 748">
            <rect id="Rectángulo_66" data-name="Rectángulo 66" width="9.653" height="2.675" transform="translate(0.388 0.402)" fill="#fff"/>
            <path id="Trazado_2616" data-name="Trazado 2616" d="M607.932,2504h-9.653a.394.394,0,0,1-.387-.4v-2.675a.4.4,0,0,1,.387-.4h9.653a.4.4,0,0,1,.387.4v2.675A.394.394,0,0,1,607.932,2504Zm-9.266-.8h8.878v-1.869h-8.878Z" transform="translate(-597.891 -2500.525)" fill="#1a2e35"/>
          </g>
        </g>
      </g>
      <g id="Grupo_756" data-name="Grupo 756" transform="translate(6 32.39)">
        <g id="Grupo_751" data-name="Grupo 751">
          <path id="Trazado_2617" data-name="Trazado 2617" d="M603.419,2527.326l-3.147-5.231,2.1.219-.21-3.052,2.308,3.052.21-9.372,1.678,6.1,2.1-7.847.63,9.154,4.2-4.576-2.937,7.192,2.937-1.089-5.665,6.539Z" transform="translate(-600.272 -2511.198)" fill="#d5e31c"/>
        </g>
        <g id="Grupo_755" data-name="Grupo 755" transform="translate(0.639 14.468)">
          <g id="Grupo_754" data-name="Grupo 754">
            <g id="Grupo_752" data-name="Grupo 752" transform="translate(0.512 1.969)">
              <rect id="Rectángulo_67" data-name="Rectángulo 67" width="8.626" height="8.31" transform="translate(0.388 0.402)" fill="#fff"/>
              <path id="Trazado_2618" data-name="Trazado 2618" d="M610.032,2530.563h-8.627a.4.4,0,0,1-.387-.4v-8.31a.4.4,0,0,1,.387-.4h8.627a.4.4,0,0,1,.388.4v8.31A.394.394,0,0,1,610.032,2530.563Zm-8.239-.805h7.852v-7.5h-7.852Z" transform="translate(-601.018 -2521.448)" fill="#1a2e35"/>
            </g>
            <g id="Grupo_753" data-name="Grupo 753">
              <rect id="Rectángulo_68" data-name="Rectángulo 68" width="9.653" height="2.675" transform="translate(0.387 0.402)" fill="#fff"/>
              <path id="Trazado_2619" data-name="Trazado 2619" d="M610.727,2523.7h-9.653a.394.394,0,0,1-.387-.4v-2.675a.394.394,0,0,1,.387-.4h9.653a.4.4,0,0,1,.388.4v2.675A.4.4,0,0,1,610.727,2523.7Zm-9.266-.805h8.877v-1.87h-8.877Z" transform="translate(-600.686 -2520.22)" fill="#1a2e35"/>
            </g>
          </g>
        </g>
      </g>
      <g id="Grupo_762" data-name="Grupo 762" transform="translate(50.687 32.39)">
        <g id="Grupo_757" data-name="Grupo 757">
          <path id="Trazado_2620" data-name="Trazado 2620" d="M632.371,2527.326l-3.147-5.231,2.1.219-.21-3.052,2.308,3.052.21-9.372,1.678,6.1,2.1-7.847.629,9.154,4.2-4.576-2.937,7.192,2.937-1.089-5.665,6.539Z" transform="translate(-629.224 -2511.198)" fill="#d5e31c"/>
        </g>
        <g id="Grupo_761" data-name="Grupo 761" transform="translate(0.638 14.468)">
          <g id="Grupo_760" data-name="Grupo 760">
            <g id="Grupo_758" data-name="Grupo 758" transform="translate(0.514 1.969)">
              <rect id="Rectángulo_69" data-name="Rectángulo 69" width="8.626" height="8.31" transform="translate(0.387 0.402)" fill="#fff"/>
              <path id="Trazado_2621" data-name="Trazado 2621" d="M638.984,2530.563h-8.627a.394.394,0,0,1-.388-.4v-8.31a.4.4,0,0,1,.388-.4h8.627a.4.4,0,0,1,.387.4v8.31A.4.4,0,0,1,638.984,2530.563Zm-8.239-.805h7.85v-7.5h-7.85Z" transform="translate(-629.97 -2521.448)" fill="#1a2e35"/>
            </g>
            <g id="Grupo_759" data-name="Grupo 759">
              <rect id="Rectángulo_70" data-name="Rectángulo 70" width="9.653" height="2.675" transform="translate(0.388 0.402)" fill="#fff"/>
              <path id="Trazado_2622" data-name="Trazado 2622" d="M639.678,2523.7h-9.653a.4.4,0,0,1-.387-.4v-2.675a.4.4,0,0,1,.387-.4h9.653a.4.4,0,0,1,.387.4v2.675A.394.394,0,0,1,639.678,2523.7Zm-9.266-.805h8.878v-1.87h-8.878Z" transform="translate(-629.637 -2520.22)" fill="#1a2e35"/>
            </g>
          </g>
        </g>
      </g>
      <g id="Grupo_768" data-name="Grupo 768" transform="translate(25.194 34.455)">
        <g id="Grupo_763" data-name="Grupo 763">
          <path id="Trazado_2623" data-name="Trazado 2623" d="M619.528,2525.458a26.675,26.675,0,0,1-4.405-.437c-2.307-.434-2.727-1.96-1.678-2.4s4.615.218,4.615.218-4.615,0-5.245-2.833,1.678-2.614,2.307-1.961,2.308,1.961,2.308,1.961-3.567-3.706-3.567-5.884,2.309-1.962,2.937-.654,2.1,5.232,2.1,5.232-2.307-6.976.628-5.885,2.309,4.358,2.309,5.013v2.833s2.936-5.885,3.985-4.577-1.468,3.7-1.468,3.7,1.468-5.667,5.035-5.449.21,2.833-.42,3.924a25.068,25.068,0,0,1-3.357,3.488s6.084-2.833,9.022-2.833.21,3.486-1.469,3.7-4.825.654-4.825.654,4.2,1.961,2.517,2.4-5.875-.436-5.875-.436Z" transform="translate(-612.707 -2512.485)" fill="#d5e31c"/>
        </g>
        <g id="Grupo_767" data-name="Grupo 767" transform="translate(4.102 12.402)">
          <g id="Grupo_766" data-name="Grupo 766">
            <g id="Grupo_764" data-name="Grupo 764" transform="translate(0.514 1.969)">
              <rect id="Rectángulo_71" data-name="Rectángulo 71" width="8.626" height="8.31" transform="translate(0.387 0.402)" fill="#fff"/>
              <path id="Trazado_2624" data-name="Trazado 2624" d="M624.712,2530.563h-8.627a.394.394,0,0,1-.387-.4v-8.31a.4.4,0,0,1,.387-.4h8.627a.4.4,0,0,1,.388.4v8.31A.4.4,0,0,1,624.712,2530.563Zm-8.239-.805h7.852v-7.5h-7.852Z" transform="translate(-615.698 -2521.448)" fill="#1a2e35"/>
            </g>
            <g id="Grupo_765" data-name="Grupo 765">
              <rect id="Rectángulo_72" data-name="Rectángulo 72" width="9.653" height="2.675" transform="translate(0.388 0.402)" fill="#fff"/>
              <path id="Trazado_2625" data-name="Trazado 2625" d="M625.406,2523.7h-9.653a.4.4,0,0,1-.387-.4v-2.675a.4.4,0,0,1,.387-.4h9.653a.4.4,0,0,1,.387.4v2.675A.394.394,0,0,1,625.406,2523.7Zm-9.266-.805h8.879v-1.87H616.14Z" transform="translate(-615.365 -2520.22)" fill="#1a2e35"/>
            </g>
          </g>
        </g>
      </g>
      <g id="Grupo_773" data-name="Grupo 773" transform="translate(42.416 4.927)">
        <g id="Grupo_769" data-name="Grupo 769" transform="translate(0.252)">
          <path id="Trazado_2626" data-name="Trazado 2626" d="M626.36,2496.348v4.02h1.212v-4.408a1.855,1.855,0,0,1,1.818-1.889h0a1.856,1.856,0,0,1,1.818,1.889v5.473h1.119v-2.906a1.332,1.332,0,0,1,1.306-1.357h0a1.332,1.332,0,0,1,1.3,1.357v4.457h0a.856.856,0,0,1-.838.872h-2.891v3.293h-3.636v-4.262h-2.518a1.048,1.048,0,0,1-1.026-1.066h0v-5.473a1.189,1.189,0,0,1,1.165-1.211h0A1.19,1.19,0,0,1,626.36,2496.348Z" transform="translate(-624.028 -2494.071)" fill="#d5e31c"/>
        </g>
        <g id="Grupo_772" data-name="Grupo 772" transform="translate(0 10.349)">
          <g id="Grupo_770" data-name="Grupo 770" transform="translate(0.512 1.969)">
            <rect id="Rectángulo_73" data-name="Rectángulo 73" width="8.626" height="8.31" transform="translate(0.388 0.402)" fill="#fff"/>
            <path id="Trazado_2627" data-name="Trazado 2627" d="M633.211,2510.867h-8.626a.4.4,0,0,1-.388-.4v-8.309a.394.394,0,0,1,.388-.4h8.626a.394.394,0,0,1,.388.4v8.309A.4.4,0,0,1,633.211,2510.867Zm-8.239-.8h7.852v-7.5h-7.852Z" transform="translate(-624.197 -2501.753)" fill="#1a2e35"/>
          </g>
          <g id="Grupo_771" data-name="Grupo 771">
            <rect id="Rectángulo_74" data-name="Rectángulo 74" width="9.653" height="2.675" transform="translate(0.387 0.402)" fill="#fff"/>
            <path id="Trazado_2628" data-name="Trazado 2628" d="M633.906,2504h-9.653a.4.4,0,0,1-.388-.4v-2.675a.4.4,0,0,1,.388-.4h9.653a.4.4,0,0,1,.387.4v2.675A.394.394,0,0,1,633.906,2504Zm-9.266-.8h8.878v-1.869H624.64Z" transform="translate(-623.865 -2500.525)" fill="#1a2e35"/>
          </g>
        </g>
      </g>
      <g id="Grupo_778" data-name="Grupo 778" transform="translate(9.105 68.179)">
        <g id="Grupo_774" data-name="Grupo 774" transform="translate(0.253)">
          <path id="Trazado_2629" data-name="Trazado 2629" d="M604.779,2535.794v4.02h1.213v-4.408a1.854,1.854,0,0,1,1.818-1.889h0a1.854,1.854,0,0,1,1.818,1.889v5.473h1.119v-2.906a1.331,1.331,0,0,1,1.3-1.356h0a1.332,1.332,0,0,1,1.306,1.356v4.456h0a.855.855,0,0,1-.84.871h-2.89v3.293h-3.636v-4.262h-2.518a1.046,1.046,0,0,1-1.026-1.064h0v-5.473a1.19,1.19,0,0,1,1.165-1.213h0A1.19,1.19,0,0,1,604.779,2535.794Z" transform="translate(-602.448 -2533.517)" fill="#d5e31c"/>
        </g>
        <g id="Grupo_777" data-name="Grupo 777" transform="translate(0 10.349)">
          <g id="Grupo_775" data-name="Grupo 775" transform="translate(0.514 1.969)">
            <rect id="Rectángulo_75" data-name="Rectángulo 75" width="8.626" height="8.31" transform="translate(0.388 0.402)" fill="#fff"/>
            <path id="Trazado_2630" data-name="Trazado 2630" d="M611.631,2550.313H603a.394.394,0,0,1-.387-.4v-8.31a.4.4,0,0,1,.387-.4h8.627a.4.4,0,0,1,.387.4v8.31A.394.394,0,0,1,611.631,2550.313Zm-8.239-.805h7.852V2542h-7.852Z" transform="translate(-602.617 -2541.198)" fill="#1a2e35"/>
          </g>
          <g id="Grupo_776" data-name="Grupo 776">
            <rect id="Rectángulo_76" data-name="Rectángulo 76" width="9.653" height="2.675" transform="translate(0.388 0.402)" fill="#fff"/>
            <path id="Trazado_2631" data-name="Trazado 2631" d="M612.325,2543.451h-9.652a.4.4,0,0,1-.389-.4v-2.675a.4.4,0,0,1,.389-.4h9.652a.4.4,0,0,1,.387.4v2.675A.4.4,0,0,1,612.325,2543.451Zm-9.264-.806h8.877v-1.87H603.06Z" transform="translate(-602.284 -2539.971)" fill="#1a2e35"/>
          </g>
        </g>
      </g>
      <g id="Grupo_783" data-name="Grupo 783" transform="translate(51.892 68.179)">
        <g id="Grupo_779" data-name="Grupo 779" transform="translate(0.253)">
          <path id="Trazado_2632" data-name="Trazado 2632" d="M632.5,2535.794v4.02h1.212v-4.408a1.855,1.855,0,0,1,1.818-1.889h0a1.855,1.855,0,0,1,1.82,1.889v5.473h1.118v-2.906a1.332,1.332,0,0,1,1.306-1.356h0a1.332,1.332,0,0,1,1.306,1.356v4.456h0a.855.855,0,0,1-.84.871h-2.89v3.293H633.71v-4.262h-2.517a1.045,1.045,0,0,1-1.025-1.064h0v-5.473a1.19,1.19,0,0,1,1.165-1.213h0A1.19,1.19,0,0,1,632.5,2535.794Z" transform="translate(-630.168 -2533.517)" fill="#d5e31c"/>
        </g>
        <g id="Grupo_782" data-name="Grupo 782" transform="translate(0 10.349)">
          <g id="Grupo_780" data-name="Grupo 780" transform="translate(0.514 1.969)">
            <rect id="Rectángulo_77" data-name="Rectángulo 77" width="8.626" height="8.31" transform="translate(0.387 0.402)" fill="#fff"/>
            <path id="Trazado_2633" data-name="Trazado 2633" d="M639.351,2550.313h-8.627a.394.394,0,0,1-.387-.4v-8.31a.4.4,0,0,1,.387-.4h8.627a.4.4,0,0,1,.387.4v8.31A.4.4,0,0,1,639.351,2550.313Zm-8.239-.805h7.852V2542h-7.852Z" transform="translate(-630.337 -2541.198)" fill="#1a2e35"/>
          </g>
          <g id="Grupo_781" data-name="Grupo 781">
            <rect id="Rectángulo_78" data-name="Rectángulo 78" width="9.653" height="2.675" transform="translate(0.388 0.402)" fill="#fff"/>
            <path id="Trazado_2634" data-name="Trazado 2634" d="M640.045,2543.451h-9.653a.4.4,0,0,1-.387-.4v-2.675a.4.4,0,0,1,.387-.4h9.653a.4.4,0,0,1,.387.4v2.675A.4.4,0,0,1,640.045,2543.451Zm-9.266-.806h8.878v-1.87h-8.878Z" transform="translate(-630.004 -2539.971)" fill="#1a2e35"/>
          </g>
        </g>
      </g>
      <g id="Grupo_788" data-name="Grupo 788" transform="translate(27.073 64.273)">
        <g id="Grupo_787" data-name="Grupo 787">
          <g id="Grupo_784" data-name="Grupo 784">
            <path id="Trazado_2635" data-name="Trazado 2635" d="M619.385,2547.532a15.667,15.667,0,0,0-3-3.687c-1.912-1.7-2.457-5.674-2.457-5.674s.818-.284,2.457,1.417a17.583,17.583,0,0,1,2.73,3.972,50.044,50.044,0,0,1-1.093-6.524c0-1.7,2.73-5.955,2.73-5.955a26.7,26.7,0,0,1,.82,4.537v6.523a20.691,20.691,0,0,1,3.822-5.39,14.861,14.861,0,0,1,5.461-2.834s.273,3.4-.82,4.537-5.734,5.105-5.734,5.105l6.281-1.135L624.3,2546.4s-1.172,1.59-2.184,1.134A5.13,5.13,0,0,0,619.385,2547.532Z" transform="translate(-613.925 -2531.081)" fill="#d5e31c"/>
          </g>
          <g id="Grupo_785" data-name="Grupo 785" transform="translate(2.477 16.224)">
            <rect id="Rectángulo_79" data-name="Rectángulo 79" width="8.626" height="8.31" transform="translate(0.387 0.402)" fill="#fff"/>
            <path id="Trazado_2636" data-name="Trazado 2636" d="M624.543,2550.313h-8.625a.394.394,0,0,1-.387-.4v-8.31a.4.4,0,0,1,.387-.4h8.625a.4.4,0,0,1,.387.4v8.31A.4.4,0,0,1,624.543,2550.313Zm-8.238-.805h7.85V2542H616.3Z" transform="translate(-615.53 -2541.198)" fill="#1a2e35"/>
          </g>
          <g id="Grupo_786" data-name="Grupo 786" transform="translate(1.963 14.255)">
            <rect id="Rectángulo_80" data-name="Rectángulo 80" width="9.653" height="2.675" transform="translate(0.388 0.402)" fill="#fff"/>
            <path id="Trazado_2637" data-name="Trazado 2637" d="M625.238,2543.451h-9.653a.4.4,0,0,1-.387-.4v-2.675a.4.4,0,0,1,.387-.4h9.653a.4.4,0,0,1,.387.4v2.675A.4.4,0,0,1,625.238,2543.451Zm-9.266-.806h8.878v-1.87h-8.878Z" transform="translate(-615.197 -2539.971)" fill="#1a2e35"/>
          </g>
        </g>
      </g>
      <g id="Grupo_793" data-name="Grupo 793" transform="translate(54.041)">
        <g id="Grupo_789" data-name="Grupo 789">
          <path id="Trazado_2638" data-name="Trazado 2638" d="M636.854,2506.823s-2.727-2.4-3.565-3.268-2.937-3.27-1.26-2.4a25.831,25.831,0,0,1,3.567,2.4,37.844,37.844,0,0,1-1.469-5.885c0-1.309,2.1-.437,3.147,1.743s1.679,3.706,1.679,3.706-1.889-8.718-.21-9.154,2.1,5.667,2.1,5.667,1.468-10.68,3.567-8.282-1.469,8.718-1.469,8.718,4.2-3.052,3.357-.654a5.808,5.808,0,0,1-3.147,3.269s6.085-1.526,4.405.873-7.133,4.358-7.133,4.358Z" transform="translate(-631.396 -2490.999)" fill="#d5e31c"/>
        </g>
        <g id="Grupo_792" data-name="Grupo 792" transform="translate(3.252 15.276)">
          <g id="Grupo_790" data-name="Grupo 790" transform="translate(0.514 1.969)">
            <rect id="Rectángulo_81" data-name="Rectángulo 81" width="8.626" height="8.31" transform="translate(0.387 0.402)" fill="#fff"/>
            <path id="Trazado_2639" data-name="Trazado 2639" d="M642.85,2510.867h-8.627a.4.4,0,0,1-.388-.4v-8.309a.394.394,0,0,1,.388-.4h8.627a.4.4,0,0,1,.387.4v8.309A.4.4,0,0,1,642.85,2510.867Zm-8.239-.8h7.85v-7.5h-7.85Z" transform="translate(-633.836 -2501.753)" fill="#1a2e35"/>
          </g>
          <g id="Grupo_791" data-name="Grupo 791">
            <rect id="Rectángulo_82" data-name="Rectángulo 82" width="9.653" height="2.675" transform="translate(0.388 0.402)" fill="#fff"/>
            <path id="Trazado_2640" data-name="Trazado 2640" d="M643.544,2504h-9.653a.4.4,0,0,1-.388-.4v-2.675a.4.4,0,0,1,.388-.4h9.653a.4.4,0,0,1,.387.4v2.675A.394.394,0,0,1,643.544,2504Zm-9.266-.8h8.878v-1.869h-8.878Z" transform="translate(-633.503 -2500.525)" fill="#1a2e35"/>
          </g>
        </g>
      </g>
      <g id="Grupo_798" data-name="Grupo 798" transform="translate(20.472)">
        <g id="Grupo_794" data-name="Grupo 794">
          <path id="Trazado_2641" data-name="Trazado 2641" d="M615.107,2506.823s-2.727-2.4-3.567-3.268-2.937-3.27-1.26-2.4a25.824,25.824,0,0,1,3.567,2.4,37.875,37.875,0,0,1-1.468-5.885c0-1.309,2.1-.437,3.146,1.743s1.679,3.706,1.679,3.706-1.888-8.718-.21-9.154,2.1,5.667,2.1,5.667,1.469-10.68,3.567-8.282-1.469,8.718-1.469,8.718,4.2-3.052,3.357-.654a5.8,5.8,0,0,1-3.147,3.269s6.085-1.526,4.407.873-7.134,4.358-7.134,4.358Z" transform="translate(-609.648 -2490.999)" fill="#d5e31c"/>
        </g>
        <g id="Grupo_797" data-name="Grupo 797" transform="translate(3.252 15.276)">
          <g id="Grupo_795" data-name="Grupo 795" transform="translate(0.514 1.969)">
            <rect id="Rectángulo_83" data-name="Rectángulo 83" width="8.626" height="8.31" transform="translate(0.387 0.402)" fill="#fff"/>
            <path id="Trazado_2642" data-name="Trazado 2642" d="M621.1,2510.867h-8.627a.4.4,0,0,1-.387-.4v-8.309a.394.394,0,0,1,.387-.4H621.1a.4.4,0,0,1,.387.4v8.309A.4.4,0,0,1,621.1,2510.867Zm-8.239-.8h7.852v-7.5h-7.852Z" transform="translate(-612.088 -2501.753)" fill="#1a2e35"/>
          </g>
          <g id="Grupo_796" data-name="Grupo 796">
            <rect id="Rectángulo_84" data-name="Rectángulo 84" width="9.653" height="2.675" transform="translate(0.388 0.402)" fill="#fff"/>
            <path id="Trazado_2643" data-name="Trazado 2643" d="M621.8,2504h-9.655a.4.4,0,0,1-.388-.4v-2.675a.4.4,0,0,1,.388-.4H621.8a.4.4,0,0,1,.387.4v2.675A.4.4,0,0,1,621.8,2504Zm-9.266-.8h8.878v-1.869h-8.878Z" transform="translate(-611.755 -2500.525)" fill="#1a2e35"/>
          </g>
        </g>
      </g>
    </g>
    <g id="Grupo_805" data-name="Grupo 805" transform="translate(0 25.511)">
      <g id="Grupo_800" data-name="Grupo 800">
        <rect id="Rectángulo_85" data-name="Rectángulo 85" width="76.738" height="4.026" fill="#d5e31c"/>
      </g>
      <g id="Grupo_801" data-name="Grupo 801" transform="translate(0 31.741)">
        <rect id="Rectángulo_86" data-name="Rectángulo 86" width="76.738" height="4.026" fill="#d5e31c"/>
      </g>
      <g id="Grupo_802" data-name="Grupo 802" transform="translate(0 63.482)">
        <rect id="Rectángulo_87" data-name="Rectángulo 87" width="76.738" height="4.026" fill="#d5e31c"/>
      </g>
      <g id="Grupo_803" data-name="Grupo 803">
        <rect id="Rectángulo_88" data-name="Rectángulo 88" width="2.709" height="101.853" fill="#d5e31c"/>
      </g>
      <g id="Grupo_804" data-name="Grupo 804" transform="translate(74.029)">
        <rect id="Rectángulo_89" data-name="Rectángulo 89" width="2.709" height="101.853" fill="#d5e31c"/>
      </g>
    </g>
  </g>
  <g id="Grupo_849" data-name="Grupo 849" transform="translate(190.543 132.792)">
    <g id="Grupo_811" data-name="Grupo 811" transform="translate(40.405 26.443)">
      <g id="Grupo_807" data-name="Grupo 807" transform="translate(1.006)">
        <path id="Trazado_2644" data-name="Trazado 2644" d="M719.333,2573.314a26.778,26.778,0,0,1-3.593-9.147,113.8,113.8,0,0,1-1.69-11.868c-.423-3.956-1.269-10.382-1.269-10.382s4.228,5.932,4.862,8.652a78.974,78.974,0,0,1,2.113,9.147c.423,3.462,1.056,5.686,1.267,7.17s.211,5.192.211,5.192.212-11.125-.423-16.317-1.267-9.4-1.056-13.351.211-4.7.423-7.169.421-7.171.421-7.171,2.536,8.158,3.593,13.35.634,6.923,1.057,11.375.633,5.439.21,7.665-.21,2.471-.844,5.439a15.975,15.975,0,0,1-1.057,3.708,111.376,111.376,0,0,0,3.8-12.114,50.72,50.72,0,0,1,2.959-9.643,27.5,27.5,0,0,1,2.113-4.2c1.267-2.226,3.38-5.934,3.38-5.934s.212,8.9-.844,12.116-1.48,5.686-2.747,8.652a18.886,18.886,0,0,0-1.692,6.429c-.21,1.978-.21,3.709-1.056,4.945s-1.057,2.967-1.69,3.708a10.818,10.818,0,0,1-1.692,1.483s5.072-8.158,6.341-10.136,1.267-2.473,3.169-3.709,2.959-1.977,2.959-1.977-3.8,8.9-4.861,10.631-1.69,3.957-3.17,5.191a21.32,21.32,0,0,0-2.325,2.226H715.74s-2.536-3.46-2.959-6.675-.633-6.428-.633-6.428a40.278,40.278,0,0,1,3.38,3.214C716.586,2568.618,719.333,2573.314,719.333,2573.314Z" transform="translate(-712.148 -2528.07)" fill="#d5e31c"/>
      </g>
      <g id="Grupo_810" data-name="Grupo 810" transform="translate(0 46.138)">
        <g id="Grupo_808" data-name="Grupo 808" transform="translate(1.281 2.486)">
          <rect id="Rectángulo_90" data-name="Rectángulo 90" width="21.528" height="18.814" transform="translate(0.388 0.402)" fill="#fff"/>
          <path id="Trazado_2645" data-name="Trazado 2645" d="M734.243,2578.012H712.714a.4.4,0,0,1-.387-.4V2558.8a.4.4,0,0,1,.387-.4h21.529a.4.4,0,0,1,.387.4v18.814A.4.4,0,0,1,734.243,2578.012Zm-21.142-.8h20.754V2559.2H713.1Z" transform="translate(-712.326 -2558.393)" fill="#1a2e35"/>
        </g>
        <g id="Grupo_809" data-name="Grupo 809">
          <rect id="Rectángulo_91" data-name="Rectángulo 91" width="24.09" height="4.082" transform="translate(0.388 0.403)" fill="#fff"/>
          <path id="Trazado_2646" data-name="Trazado 2646" d="M735.975,2561.73H711.884a.4.4,0,0,1-.388-.4v-4.083a.4.4,0,0,1,.388-.4h24.091a.4.4,0,0,1,.387.4v4.083A.394.394,0,0,1,735.975,2561.73Zm-23.7-.806h23.317v-3.277H712.271Z" transform="translate(-711.496 -2556.843)" fill="#1a2e35"/>
        </g>
      </g>
    </g>
    <g id="Grupo_829" data-name="Grupo 829" transform="translate(59.021)">
      <g id="Grupo_818" data-name="Grupo 818">
        <g id="Grupo_812" data-name="Grupo 812">
          <path id="Trazado_2647" data-name="Trazado 2647" d="M737.915,2523.438a9.684,9.684,0,0,0,5.639-4.687,10.89,10.89,0,0,0,1.147-7.172s-5.208,2.3-6.54,5.45a10.223,10.223,0,0,0-.744,4.052c-2.008-3.943-10.289-6.545-10.289-6.545s1.19,6.922,3.808,9.146c1.949,1.658,4.425,3.45,5.563,4.259v6.13a10.5,10.5,0,0,0-4.61-3.96c-3.093-1.236-8.33.989-8.33.989a10.206,10.206,0,0,0,5.713,4.2,9.339,9.339,0,0,0,7.228-.9v9.554a10.5,10.5,0,0,0-4.61-3.959c-3.093-1.236-8.33.988-8.33.988a10.2,10.2,0,0,0,5.713,4.2,9.343,9.343,0,0,0,7.228-.9v7.083a10.512,10.512,0,0,0-4.61-3.961c-3.093-1.236-8.33.989-8.33.989a10.2,10.2,0,0,0,5.713,4.2,9.338,9.338,0,0,0,7.228-.9v10.79a10.5,10.5,0,0,0-4.61-3.959c-3.093-1.237-8.33.988-8.33.988a10.2,10.2,0,0,0,5.713,4.2,9.329,9.329,0,0,0,7.228-.9v9.555a10.5,10.5,0,0,0-4.61-3.96c-3.093-1.236-8.33.99-8.33.99a10.207,10.207,0,0,0,5.713,4.2,9.349,9.349,0,0,0,7.228-.9v15.978a.388.388,0,1,0,.775,0v-60.544C737.546,2527.694,738.085,2526.373,737.915,2523.438Z" transform="translate(-723.557 -2511.579)" fill="#d5e31c"/>
        </g>
        <g id="Grupo_813" data-name="Grupo 813" transform="translate(13.804 18.158)">
          <path id="Trazado_2648" data-name="Trazado 2648" d="M737.26,2523.277a10.626,10.626,0,0,0-4.76,4.2,9.347,9.347,0,0,0,7.378.989,10.2,10.2,0,0,0,5.711-4.2S740.353,2522.04,737.26,2523.277Z" transform="translate(-732.5 -2522.903)" fill="#d5e31c"/>
        </g>
        <g id="Grupo_814" data-name="Grupo 814" transform="translate(13.804 27.801)">
          <path id="Trazado_2649" data-name="Trazado 2649" d="M737.26,2529.291a10.616,10.616,0,0,0-4.76,4.2,9.352,9.352,0,0,0,7.378.988,10.2,10.2,0,0,0,5.711-4.2S740.353,2528.054,737.26,2529.291Z" transform="translate(-732.5 -2528.916)" fill="#d5e31c"/>
        </g>
        <g id="Grupo_815" data-name="Grupo 815" transform="translate(13.804 35.217)">
          <path id="Trazado_2650" data-name="Trazado 2650" d="M737.26,2533.916a10.623,10.623,0,0,0-4.76,4.2,9.349,9.349,0,0,0,7.378.99,10.2,10.2,0,0,0,5.711-4.2S740.353,2532.679,737.26,2533.916Z" transform="translate(-732.5 -2533.542)" fill="#d5e31c"/>
        </g>
        <g id="Grupo_816" data-name="Grupo 816" transform="translate(13.804 46.591)">
          <path id="Trazado_2651" data-name="Trazado 2651" d="M737.26,2541.009a10.625,10.625,0,0,0-4.76,4.2,9.349,9.349,0,0,0,7.378.988,10.189,10.189,0,0,0,5.711-4.2S740.353,2539.773,737.26,2541.009Z" transform="translate(-732.5 -2540.635)" fill="#d5e31c"/>
        </g>
        <g id="Grupo_817" data-name="Grupo 817" transform="translate(13.804 56.48)">
          <path id="Trazado_2652" data-name="Trazado 2652" d="M737.26,2547.176a10.622,10.622,0,0,0-4.76,4.2,9.347,9.347,0,0,0,7.378.989,10.2,10.2,0,0,0,5.711-4.2S740.353,2545.939,737.26,2547.176Z" transform="translate(-732.5 -2546.802)" fill="#d5e31c"/>
        </g>
      </g>
      <g id="Grupo_825" data-name="Grupo 825" opacity="0.5">
        <g id="Grupo_819" data-name="Grupo 819">
          <path id="Trazado_2653" data-name="Trazado 2653" d="M737.915,2523.438a9.684,9.684,0,0,0,5.639-4.687,10.89,10.89,0,0,0,1.147-7.172s-5.208,2.3-6.54,5.45a10.223,10.223,0,0,0-.744,4.052c-2.008-3.943-10.289-6.545-10.289-6.545s1.19,6.922,3.808,9.146c1.949,1.658,4.425,3.45,5.563,4.259v6.13a10.5,10.5,0,0,0-4.61-3.96c-3.093-1.236-8.33.989-8.33.989a10.206,10.206,0,0,0,5.713,4.2,9.339,9.339,0,0,0,7.228-.9v9.554a10.5,10.5,0,0,0-4.61-3.959c-3.093-1.236-8.33.988-8.33.988a10.2,10.2,0,0,0,5.713,4.2,9.343,9.343,0,0,0,7.228-.9v7.083a10.512,10.512,0,0,0-4.61-3.961c-3.093-1.236-8.33.989-8.33.989a10.2,10.2,0,0,0,5.713,4.2,9.338,9.338,0,0,0,7.228-.9v10.79a10.5,10.5,0,0,0-4.61-3.959c-3.093-1.237-8.33.988-8.33.988a10.2,10.2,0,0,0,5.713,4.2,9.329,9.329,0,0,0,7.228-.9v9.555a10.5,10.5,0,0,0-4.61-3.96c-3.093-1.236-8.33.99-8.33.99a10.207,10.207,0,0,0,5.713,4.2,9.349,9.349,0,0,0,7.228-.9v15.978a.388.388,0,1,0,.775,0v-60.544C737.546,2527.694,738.085,2526.373,737.915,2523.438Z" transform="translate(-723.557 -2511.579)"/>
        </g>
        <g id="Grupo_820" data-name="Grupo 820" transform="translate(13.804 18.158)">
          <path id="Trazado_2654" data-name="Trazado 2654" d="M737.26,2523.277a10.626,10.626,0,0,0-4.76,4.2,9.347,9.347,0,0,0,7.378.989,10.2,10.2,0,0,0,5.711-4.2S740.353,2522.04,737.26,2523.277Z" transform="translate(-732.5 -2522.903)"/>
        </g>
        <g id="Grupo_821" data-name="Grupo 821" transform="translate(13.804 27.801)">
          <path id="Trazado_2655" data-name="Trazado 2655" d="M737.26,2529.291a10.616,10.616,0,0,0-4.76,4.2,9.352,9.352,0,0,0,7.378.988,10.2,10.2,0,0,0,5.711-4.2S740.353,2528.054,737.26,2529.291Z" transform="translate(-732.5 -2528.916)"/>
        </g>
        <g id="Grupo_822" data-name="Grupo 822" transform="translate(13.804 35.217)">
          <path id="Trazado_2656" data-name="Trazado 2656" d="M737.26,2533.916a10.623,10.623,0,0,0-4.76,4.2,9.349,9.349,0,0,0,7.378.99,10.2,10.2,0,0,0,5.711-4.2S740.353,2532.679,737.26,2533.916Z" transform="translate(-732.5 -2533.542)"/>
        </g>
        <g id="Grupo_823" data-name="Grupo 823" transform="translate(13.804 46.591)">
          <path id="Trazado_2657" data-name="Trazado 2657" d="M737.26,2541.009a10.625,10.625,0,0,0-4.76,4.2,9.349,9.349,0,0,0,7.378.988,10.189,10.189,0,0,0,5.711-4.2S740.353,2539.773,737.26,2541.009Z" transform="translate(-732.5 -2540.635)"/>
        </g>
        <g id="Grupo_824" data-name="Grupo 824" transform="translate(13.804 56.48)">
          <path id="Trazado_2658" data-name="Trazado 2658" d="M737.26,2547.176a10.622,10.622,0,0,0-4.76,4.2,9.347,9.347,0,0,0,7.378.989,10.2,10.2,0,0,0,5.711-4.2S740.353,2545.939,737.26,2547.176Z" transform="translate(-732.5 -2546.802)"/>
        </g>
      </g>
      <g id="Grupo_828" data-name="Grupo 828" transform="translate(8.763 72.581)">
        <g id="Grupo_826" data-name="Grupo 826" transform="translate(0.514 2.486)">
          <rect id="Rectángulo_92" data-name="Rectángulo 92" width="8.626" height="18.814" transform="translate(0.388 0.402)" fill="#fff"/>
          <path id="Trazado_2659" data-name="Trazado 2659" d="M738.581,2578.012h-8.627a.394.394,0,0,1-.387-.4V2558.8a.394.394,0,0,1,.387-.4h8.627a.394.394,0,0,1,.387.4v18.814A.394.394,0,0,1,738.581,2578.012Zm-8.239-.8h7.852V2559.2h-7.852Z" transform="translate(-729.567 -2558.393)" fill="#1a2e35"/>
        </g>
        <g id="Grupo_827" data-name="Grupo 827">
          <rect id="Rectángulo_93" data-name="Rectángulo 93" width="9.653" height="4.082" transform="translate(0.388 0.403)" fill="#fff"/>
          <path id="Trazado_2660" data-name="Trazado 2660" d="M739.275,2561.73h-9.653a.4.4,0,0,1-.387-.4v-4.083a.4.4,0,0,1,.387-.4h9.653a.4.4,0,0,1,.389.4v4.083A.4.4,0,0,1,739.275,2561.73Zm-9.266-.806h8.878v-3.277h-8.878Z" transform="translate(-729.234 -2556.843)" fill="#1a2e35"/>
        </g>
      </g>
    </g>
    <g id="Grupo_842" data-name="Grupo 842" transform="translate(0 32.378)">
      <g id="Grupo_832" data-name="Grupo 832" transform="translate(7.772 40.203)">
        <g id="Grupo_830" data-name="Grupo 830" transform="translate(1.283 2.486)">
          <rect id="Rectángulo_94" data-name="Rectángulo 94" width="21.528" height="18.814" transform="translate(0.387 0.402)" fill="#fff"/>
          <path id="Trazado_2661" data-name="Trazado 2661" d="M713.1,2578.012H691.572a.394.394,0,0,1-.387-.4V2558.8a.394.394,0,0,1,.387-.4H713.1a.4.4,0,0,1,.389.4v18.814A.4.4,0,0,1,713.1,2578.012Zm-21.139-.8h20.751V2559.2H691.96Z" transform="translate(-691.185 -2558.393)" fill="#1a2e35"/>
        </g>
        <g id="Grupo_831" data-name="Grupo 831">
          <rect id="Rectángulo_95" data-name="Rectángulo 95" width="24.09" height="4.082" transform="translate(0.388 0.403)" fill="#fff"/>
          <path id="Trazado_2662" data-name="Trazado 2662" d="M714.833,2561.73H690.741a.4.4,0,0,1-.387-.4v-4.083a.4.4,0,0,1,.387-.4h24.092a.4.4,0,0,1,.387.4v4.083A.4.4,0,0,1,714.833,2561.73Zm-23.7-.806h23.317v-3.277H691.129Z" transform="translate(-690.354 -2556.843)" fill="#1a2e35"/>
        </g>
      </g>
      <g id="Grupo_835" data-name="Grupo 835">
        <g id="Grupo_833" data-name="Grupo 833">
          <path id="Trazado_2663" data-name="Trazado 2663" d="M698.41,2539.434a7.058,7.058,0,0,0-3.095-3.956,52.232,52.232,0,0,0-7.854-3.708s-.238,1.483,1.9,4.2a47.243,47.243,0,0,0,6.663,6.18,35.983,35.983,0,0,1-4.76.248c-3.093,0-5.951,4.2-5.951,4.2s4.285.741,5.713.741,6.663-1.73,6.663-1.73-1.665,2.72-1.665,4.7.952,7.663.952,7.663,2.856-1.236,3.569-3.707a57.673,57.673,0,0,0,1.19-7.665,8.444,8.444,0,0,0,2.38,2.472c1.9,1.483,7.14,3.46,7.14,3.46a17.351,17.351,0,0,0-2.618-6.18,11.326,11.326,0,0,0-5.95-4.2,3.954,3.954,0,0,0,2.855-1.483c1.19-1.484,3.095-6.676,3.095-6.676a6.828,6.828,0,0,0-4.76.5C701.5,2535.727,698.41,2539.434,698.41,2539.434Z" transform="translate(-685.319 -2531.771)" fill="#d5e31c"/>
        </g>
        <g id="Grupo_834" data-name="Grupo 834" opacity="0.5">
          <path id="Trazado_2664" data-name="Trazado 2664" d="M698.41,2539.434a7.058,7.058,0,0,0-3.095-3.956,52.232,52.232,0,0,0-7.854-3.708s-.238,1.483,1.9,4.2a47.243,47.243,0,0,0,6.663,6.18,35.983,35.983,0,0,1-4.76.248c-3.093,0-5.951,4.2-5.951,4.2s4.285.741,5.713.741,6.663-1.73,6.663-1.73-1.665,2.72-1.665,4.7.952,7.663.952,7.663,2.856-1.236,3.569-3.707a57.673,57.673,0,0,0,1.19-7.665,8.444,8.444,0,0,0,2.38,2.472c1.9,1.483,7.14,3.46,7.14,3.46a17.351,17.351,0,0,0-2.618-6.18,11.326,11.326,0,0,0-5.95-4.2,3.954,3.954,0,0,0,2.855-1.483c1.19-1.484,3.095-6.676,3.095-6.676a6.828,6.828,0,0,0-4.76.5C701.5,2535.727,698.41,2539.434,698.41,2539.434Z" transform="translate(-685.319 -2531.771)"/>
        </g>
      </g>
      <g id="Grupo_838" data-name="Grupo 838" transform="translate(16.434 22.513)">
        <g id="Grupo_836" data-name="Grupo 836">
          <path id="Trazado_2665" data-name="Trazado 2665" d="M703.923,2550.471a4.29,4.29,0,0,0-1.882-2.406,31.875,31.875,0,0,0-4.774-2.255s-.145.9,1.158,2.556a28.757,28.757,0,0,0,4.05,3.757,21.873,21.873,0,0,1-2.892.151c-1.882,0-3.617,2.555-3.617,2.555s2.6.451,3.471.451a26.2,26.2,0,0,0,4.05-1.052,7.106,7.106,0,0,0-1.013,2.856c0,1.2.579,4.658.579,4.658a4.145,4.145,0,0,0,2.17-2.253,35.224,35.224,0,0,0,.724-4.66,5.112,5.112,0,0,0,1.446,1.5,24.037,24.037,0,0,0,4.34,2.1,10.559,10.559,0,0,0-1.591-3.757,6.887,6.887,0,0,0-3.617-2.554,2.4,2.4,0,0,0,1.735-.9,23.285,23.285,0,0,0,1.882-4.058,4.15,4.15,0,0,0-2.894.3A15.222,15.222,0,0,0,703.923,2550.471Z" transform="translate(-695.966 -2545.811)" fill="#d5e31c"/>
        </g>
        <g id="Grupo_837" data-name="Grupo 837" opacity="0.5">
          <path id="Trazado_2666" data-name="Trazado 2666" d="M703.923,2550.471a4.29,4.29,0,0,0-1.882-2.406,31.875,31.875,0,0,0-4.774-2.255s-.145.9,1.158,2.556a28.757,28.757,0,0,0,4.05,3.757,21.873,21.873,0,0,1-2.892.151c-1.882,0-3.617,2.555-3.617,2.555s2.6.451,3.471.451a26.2,26.2,0,0,0,4.05-1.052,7.106,7.106,0,0,0-1.013,2.856c0,1.2.579,4.658.579,4.658a4.145,4.145,0,0,0,2.17-2.253,35.224,35.224,0,0,0,.724-4.66,5.112,5.112,0,0,0,1.446,1.5,24.037,24.037,0,0,0,4.34,2.1,10.559,10.559,0,0,0-1.591-3.757,6.887,6.887,0,0,0-3.617-2.554,2.4,2.4,0,0,0,1.735-.9,23.285,23.285,0,0,0,1.882-4.058,4.15,4.15,0,0,0-2.894.3A15.222,15.222,0,0,0,703.923,2550.471Z" transform="translate(-695.966 -2545.811)"/>
        </g>
      </g>
      <g id="Grupo_839" data-name="Grupo 839" transform="translate(7.855 30.904)">
        <path id="Trazado_2667" data-name="Trazado 2667" d="M700.04,2556.684a5.187,5.187,0,0,0-2.277-2.91,38.476,38.476,0,0,0-5.779-2.729s-.176,1.093,1.4,3.093a34.75,34.75,0,0,0,4.9,4.548,26.371,26.371,0,0,1-3.5.183c-2.277,0-4.377,3.091-4.377,3.091s3.152.547,4.2.547a31.706,31.706,0,0,0,4.9-1.274,8.608,8.608,0,0,0-1.226,3.457c0,1.456.7,5.64.7,5.64a5.027,5.027,0,0,0,2.627-2.729,42.593,42.593,0,0,0,.875-5.639,6.215,6.215,0,0,0,1.752,1.82,29.089,29.089,0,0,0,5.253,2.546,12.723,12.723,0,0,0-1.926-4.548,8.328,8.328,0,0,0-4.377-3.093,2.907,2.907,0,0,0,2.1-1.093,28.03,28.03,0,0,0,2.277-4.911,5.023,5.023,0,0,0-3.5.364A18.413,18.413,0,0,0,700.04,2556.684Z" transform="translate(-690.408 -2551.044)" fill="#d5e31c"/>
      </g>
      <g id="Grupo_840" data-name="Grupo 840" transform="translate(1.317 20.32)">
        <path id="Trazado_2668" data-name="Trazado 2668" d="M695.8,2550.082a5.185,5.185,0,0,0-2.277-2.91,38.546,38.546,0,0,0-5.779-2.729s-.176,1.092,1.4,3.093a34.777,34.777,0,0,0,4.9,4.548,26.442,26.442,0,0,1-3.5.183c-2.277,0-4.377,3.091-4.377,3.091s3.152.547,4.2.547a31.716,31.716,0,0,0,4.9-1.273,8.589,8.589,0,0,0-1.227,3.455c0,1.457.7,5.64.7,5.64A5.02,5.02,0,0,0,697.38,2561a42.607,42.607,0,0,0,.875-5.641,6.206,6.206,0,0,0,1.752,1.82,29.151,29.151,0,0,0,5.254,2.546,12.756,12.756,0,0,0-1.926-4.547,8.331,8.331,0,0,0-4.379-3.093,2.912,2.912,0,0,0,2.1-1.092,28.157,28.157,0,0,0,2.277-4.911,5.026,5.026,0,0,0-3.5.363A18.443,18.443,0,0,0,695.8,2550.082Z" transform="translate(-686.172 -2544.443)" fill="#d5e31c"/>
      </g>
      <g id="Grupo_841" data-name="Grupo 841" transform="translate(13.583 8.462)">
        <path id="Trazado_2669" data-name="Trazado 2669" d="M702.868,2545.821a4.838,4.838,0,0,0-3.567.575,39.254,39.254,0,0,0-5.182,3.812s.82.707,3.278.3a33.493,33.493,0,0,0,6.253-2.109,29.244,29.244,0,0,1-1.615,3.234c-1.147,2.043.366,5.487.366,5.487s2.042-2.552,2.572-3.5a34.986,34.986,0,0,0,1.412-5.041,8.354,8.354,0,0,0,2.257,2.841,52.307,52.307,0,0,0,5.041,2.215,5.3,5.3,0,0,0-.945-3.733,39.744,39.744,0,0,0-4.248-3.628,5.9,5.9,0,0,0,2.4-.656,29.75,29.75,0,0,0,4.765-3.43,11.62,11.62,0,0,0-4.752-.564,8.267,8.267,0,0,0-4.777,2.37,3.181,3.181,0,0,0,.151-2.436,27.719,27.719,0,0,0-2.937-4.517,5.469,5.469,0,0,0-1.462,3.326A19.515,19.515,0,0,0,702.868,2545.821Z" transform="translate(-694.119 -2537.048)" fill="#d5e31c"/>
      </g>
    </g>
    <g id="Grupo_848" data-name="Grupo 848" transform="translate(19.277 70.205)">
      <g id="Grupo_845" data-name="Grupo 845" transform="translate(3.402 9.122)">
        <g id="Grupo_843" data-name="Grupo 843" transform="translate(1.732 1.696)">
          <rect id="Rectángulo_96" data-name="Rectángulo 96" width="29.085" height="12.857" transform="translate(0.387 0.404)" fill="#fff"/>
          <path id="Trazado_2670" data-name="Trazado 2670" d="M730.606,2575.77H701.521a.394.394,0,0,1-.388-.4V2562.51a.4.4,0,0,1,.388-.4h29.085a.4.4,0,0,1,.387.4v12.857A.394.394,0,0,1,730.606,2575.77Zm-28.7-.8h28.31v-12.051h-28.31Z" transform="translate(-701.134 -2562.108)" fill="#1a2e35"/>
        </g>
        <g id="Grupo_844" data-name="Grupo 844">
          <rect id="Rectángulo_97" data-name="Rectángulo 97" width="32.548" height="2.79" transform="translate(0.387 0.402)" fill="#fff"/>
          <path id="Trazado_2671" data-name="Trazado 2671" d="M732.948,2564.644H700.4a.4.4,0,0,1-.387-.4v-2.788a.394.394,0,0,1,.387-.4h32.548a.394.394,0,0,1,.388.4v2.788A.4.4,0,0,1,732.948,2564.644Zm-32.161-.8H732.56v-1.984H700.787Z" transform="translate(-700.012 -2561.05)" fill="#1a2e35"/>
        </g>
      </g>
      <g id="Grupo_846" data-name="Grupo 846">
        <path id="Trazado_2672" data-name="Trazado 2672" d="M714.23,2559.564s1.428-.741-.951-2.473-3.095-1.73-3.095-1.73l2.38,4.2a18.724,18.724,0,0,0-4.76-.99,7.919,7.919,0,0,0-3.331.743l4.88,2.659s-5.12-.433-6.071-.433a17.439,17.439,0,0,0-3.57.988l3.57.742-5.475,1.73,5.713.5v2.473l3.57-2.227a7.146,7.146,0,0,0,.713,1.484c.477.743,2.142,2.72,2.142,2.72l2.142-3.462s.713,2.226,1.428,2.226a12.987,12.987,0,0,1,2.38.494l.546-3.173,3.5,2.679v-2.226l1.9,2.226,1.666-2.72.239,2.226,3.093-1.482,1.428,2.966.715-3.709,2,.344.38-1.086s-.477-.247.951.5a13.206,13.206,0,0,0,3.808.99,26.88,26.88,0,0,0-1.9-2.473,9.717,9.717,0,0,0-2.618-1.484l1.665-.742a24.541,24.541,0,0,0-4.283-1.236,7.381,7.381,0,0,0-2.618.99,6.805,6.805,0,0,0,1.9-1.979,20.607,20.607,0,0,0,.952-2.719s-3.57,0-4.046,1.236-1.428,3.215-1.428,3.215l-1.667-3.709a6.187,6.187,0,0,0-1.19,1.73c-.237.742-.475,1.979-.475,1.979s-.952-1.979-1.428-2.968a7.445,7.445,0,0,0-1.666-1.977,26.55,26.55,0,0,0-.239,2.719v1.73l-1.188-2.967v2.473Z" transform="translate(-697.808 -2555.361)" fill="#d5e31c"/>
      </g>
      <g id="Grupo_847" data-name="Grupo 847" opacity="0.3">
        <path id="Trazado_2673" data-name="Trazado 2673" d="M714.23,2559.564s1.428-.741-.951-2.473-3.095-1.73-3.095-1.73l2.38,4.2a18.724,18.724,0,0,0-4.76-.99,7.919,7.919,0,0,0-3.331.743l4.88,2.659s-5.12-.433-6.071-.433a17.439,17.439,0,0,0-3.57.988l3.57.742-5.475,1.73,5.713.5v2.473l3.57-2.227a7.146,7.146,0,0,0,.713,1.484c.477.743,2.142,2.72,2.142,2.72l2.142-3.462s.713,2.226,1.428,2.226a12.987,12.987,0,0,1,2.38.494l.546-3.173,3.5,2.679v-2.226l1.9,2.226,1.666-2.72.239,2.226,3.093-1.482,1.428,2.966.715-3.709,2,.344.38-1.086s-.477-.247.951.5a13.206,13.206,0,0,0,3.808.99,26.88,26.88,0,0,0-1.9-2.473,9.717,9.717,0,0,0-2.618-1.484l1.665-.742a24.541,24.541,0,0,0-4.283-1.236,7.381,7.381,0,0,0-2.618.99,6.805,6.805,0,0,0,1.9-1.979,20.607,20.607,0,0,0,.952-2.719s-3.57,0-4.046,1.236-1.428,3.215-1.428,3.215l-1.667-3.709a6.187,6.187,0,0,0-1.19,1.73c-.237.742-.475,1.979-.475,1.979s-.952-1.979-1.428-2.968a7.445,7.445,0,0,0-1.666-1.977,26.55,26.55,0,0,0-.239,2.719v1.73l-1.188-2.967v2.473Z" transform="translate(-697.808 -2555.361)"/>
      </g>
    </g>
  </g>
</svg>
