<svg id="Grupo_1063" data-name="Grupo 1063" xmlns="http://www.w3.org/2000/svg" width="298.799" height="293.081" viewBox="0 0 298.799 293.081">
  <g id="Grupo_984" data-name="Grupo 984" transform="translate(0 6.353)">
    <path id="Trazado_2786" data-name="Trazado 2786" d="M1282.268,2417.809s-46.642-14.267-92.7,14.59-69.545,82.675-89.7,125.854-8.978,85.48,25.927,103.247,58.908-12.276,108.056-16.189,62.321,2.451,103.275-27.443,48.741-95.958,16.884-142.918S1282.268,2417.809,1282.268,2417.809Z" transform="translate(-1089.884 -2414.282)" fill="#d5e31c"/>
    <path id="Trazado_2787" data-name="Trazado 2787" d="M1282.268,2417.809s-46.642-14.267-92.7,14.59-69.545,82.675-89.7,125.854-8.978,85.48,25.927,103.247,58.908-12.276,108.056-16.189,62.321,2.451,103.275-27.443,48.741-95.958,16.884-142.918S1282.268,2417.809,1282.268,2417.809Z" transform="translate(-1089.884 -2414.282)" fill="#fff" opacity="0.7"/>
  </g>
  <g id="Grupo_993" data-name="Grupo 993" transform="translate(134.687 109.978)">
    <g id="Grupo_990" data-name="Grupo 990">
      <g id="Grupo_985" data-name="Grupo 985" transform="translate(3.954 7.059)">
        <path id="Trazado_2788" data-name="Trazado 2788" d="M1236.1,2501.657l-1.019-1.422a7.615,7.615,0,0,0-6.232-3.258,7.5,7.5,0,0,0-3.812,1.046l-1.069.627-.11-1.271a15.863,15.863,0,0,0-31.459-1.99l-.3,1.464-1.027-1.049a9.819,9.819,0,0,0-13.757-.393l-1.046-1.235a11.338,11.338,0,0,1,14.908-.462,17.4,17.4,0,0,1,34.125,2.347,9.214,9.214,0,0,1,10.053,2.008,15.893,15.893,0,0,1,3.2-5.594l1.164,1.119a14.3,14.3,0,0,0-3.236,6.338Z" transform="translate(-1176.27 -2480.668)" fill="#242838"/>
      </g>
      <g id="Grupo_986" data-name="Grupo 986" transform="translate(69.564)">
        <path id="Trazado_2789" data-name="Trazado 2789" d="M1235.484,2496.981l-1.027-1.049a13.161,13.161,0,0,0-16.489-2.039l-.817-1.409a14.671,14.671,0,0,1,17.407,1.329c2.714-10.148,11.764-17.379,22.016-17.379a22.678,22.678,0,0,1,3.547.281l-.241,1.629a20.846,20.846,0,0,0-3.306-.265c-9.961,0-18.7,7.334-20.79,17.438Z" transform="translate(-1217.151 -2476.434)" fill="#242838"/>
      </g>
      <g id="Grupo_987" data-name="Grupo 987" transform="translate(119.117 2.862)">
        <path id="Trazado_2790" data-name="Trazado 2790" d="M1253.155,2483.642a21.251,21.251,0,0,0-5.128-4.043l.756-1.447a22.9,22.9,0,0,1,5.511,4.345Z" transform="translate(-1248.027 -2478.151)" fill="#242838"/>
      </g>
      <g id="Grupo_988" data-name="Grupo 988" transform="translate(116.869 9.682)">
        <path id="Trazado_2791" data-name="Trazado 2791" d="M1288.8,2503.467h-42.175v-1.647h29.853l-.32-.956a10.542,10.542,0,0,0-9.912-7.336,10.183,10.183,0,0,0-5.152,1.413l-1.072.626-.107-1.27a22.5,22.5,0,0,0-4.038-11.079l1.276-.977a24.13,24.13,0,0,1,4.208,10.717,11.723,11.723,0,0,1,4.885-1.077,12.077,12.077,0,0,1,11.035,7.464,7.642,7.642,0,0,1,3.979-1.115,7.864,7.864,0,0,1,6.806,3.986Zm-12.128-1.647h9.1a6.328,6.328,0,0,0-8.378-.572Z" transform="translate(-1246.626 -2482.241)" fill="#242838"/>
      </g>
      <g id="Grupo_989" data-name="Grupo 989" transform="translate(0 22.686)">
        <path id="Trazado_2792" data-name="Trazado 2792" d="M1282.65,2498.262H1173.843l-.037-1.242a12.369,12.369,0,0,1,2.125-6.979l1.294.945a10.706,10.706,0,0,0-1.827,5.629H1282.65Z" transform="translate(-1173.806 -2490.041)" fill="#242838"/>
      </g>
    </g>
    <g id="Grupo_992" data-name="Grupo 992" transform="translate(92.161 34.369)">
      <g id="Grupo_991" data-name="Grupo 991">
        <path id="Trazado_2793" data-name="Trazado 2793" d="M1303.182,2511.708h-71.951v-.823a5.788,5.788,0,0,1,5.625-6.042,5.439,5.439,0,0,1,2.968.878,8.153,8.153,0,0,1,15.744,1.162,4.552,4.552,0,0,1,3.944.74,7.128,7.128,0,0,1,6.558-4.439,6.95,6.95,0,0,1,4.038,1.292,10.7,10.7,0,0,1,10.026-7.429,10.374,10.374,0,0,1,6.877,2.631l-1.029,1.253a8.817,8.817,0,0,0-5.848-2.237,9.146,9.146,0,0,0-8.816,7.394l-.3,1.464-1.03-1.052a5.447,5.447,0,0,0-3.918-1.669,5.612,5.612,0,0,0-5.437,4.484l-.167.746h35.828a4.23,4.23,0,0,0-3.927-2.772,4.137,4.137,0,0,0-2.077.565l-1.065.625-.111-1.268a9.57,9.57,0,0,0-.406-2.054l1.506-.516a11.087,11.087,0,0,1,.327,1.308,5.841,5.841,0,0,1,6.933,2.85,4,4,0,0,1,4.975,1.658Zm-70.328-1.646h26.689l-.316-.441a3,3,0,0,0-3.9-.863l-1.068.626-.109-1.269a6.616,6.616,0,0,0-13.122-.825l-.3,1.462-1.028-1.047a3.963,3.963,0,0,0-2.843-1.214A4.108,4.108,0,0,0,1232.854,2510.062Z" transform="translate(-1231.231 -2497.048)" fill="#242838"/>
      </g>
    </g>
  </g>
  <g id="Grupo_1002" data-name="Grupo 1002" transform="translate(56.238 4.17)">
    <g id="Grupo_999" data-name="Grupo 999">
      <g id="Grupo_994" data-name="Grupo 994" transform="translate(3.956 7.061)">
        <path id="Trazado_2794" data-name="Trazado 2794" d="M1187.216,2438.2l-1.014-1.422a7.6,7.6,0,0,0-6.23-3.258,7.528,7.528,0,0,0-3.815,1.045l-1.071.627-.109-1.27a15.861,15.861,0,0,0-31.455-1.989l-.3,1.467-1.031-1.056a9.818,9.818,0,0,0-13.754-.391l-1.047-1.235a11.342,11.342,0,0,1,14.91-.464,17.394,17.394,0,0,1,34.12,2.352,9.053,9.053,0,0,1,10.057,2,15.891,15.891,0,0,1,3.2-5.594l1.165,1.119a14.3,14.3,0,0,0-3.24,6.337Z" transform="translate(-1127.39 -2417.207)" fill="#1a2e35"/>
      </g>
      <g id="Grupo_995" data-name="Grupo 995" transform="translate(69.563)">
        <path id="Trazado_2795" data-name="Trazado 2795" d="M1186.6,2433.521l-1.027-1.049a13.159,13.159,0,0,0-16.49-2.037l-.819-1.409a14.675,14.675,0,0,1,17.411,1.326c2.712-10.149,11.762-17.38,22.011-17.38a22.533,22.533,0,0,1,3.552.283l-.243,1.627a21.114,21.114,0,0,0-3.309-.263c-9.959,0-18.7,7.334-20.785,17.438Z" transform="translate(-1168.269 -2412.972)" fill="#1a2e35"/>
      </g>
      <g id="Grupo_996" data-name="Grupo 996" transform="translate(119.119 2.863)">
        <path id="Trazado_2796" data-name="Trazado 2796" d="M1204.271,2420.181a21.464,21.464,0,0,0-5.125-4.043l.756-1.449a23.192,23.192,0,0,1,5.508,4.346Z" transform="translate(-1199.147 -2414.689)" fill="#1a2e35"/>
      </g>
      <g id="Grupo_997" data-name="Grupo 997" transform="translate(116.869 9.684)">
        <path id="Trazado_2797" data-name="Trazado 2797" d="M1239.915,2440.006h-42.17v-1.648H1227.6l-.32-.955a10.541,10.541,0,0,0-9.912-7.335,10.184,10.184,0,0,0-5.152,1.408l-1.069.627-.111-1.271a22.528,22.528,0,0,0-4.038-11.078l1.276-.977a24.165,24.165,0,0,1,4.208,10.717,11.714,11.714,0,0,1,4.885-1.075,12.078,12.078,0,0,1,11.035,7.46,7.636,7.636,0,0,1,3.979-1.108,7.852,7.852,0,0,1,6.8,3.981Zm-12.122-1.648h9.093a6.324,6.324,0,0,0-8.375-.572Z" transform="translate(-1197.745 -2418.78)" fill="#1a2e35"/>
      </g>
      <g id="Grupo_998" data-name="Grupo 998" transform="translate(0 22.688)">
        <path id="Trazado_2798" data-name="Trazado 2798" d="M1233.771,2434.8H1124.983l-.037-.785c-.016-.242-.021-.347-.021-.457a12.353,12.353,0,0,1,2.126-6.979l1.294.945a10.689,10.689,0,0,0-1.83,5.629h107.255Z" transform="translate(-1124.925 -2426.58)" fill="#1a2e35"/>
      </g>
    </g>
    <g id="Grupo_1001" data-name="Grupo 1001" transform="translate(92.153 34.371)">
      <g id="Grupo_1000" data-name="Grupo 1000">
        <path id="Trazado_2799" data-name="Trazado 2799" d="M1254.3,2448.247h-71.9l-.05-1.01a5.754,5.754,0,0,1,5.636-5.854,5.424,5.424,0,0,1,2.966.879,8.151,8.151,0,0,1,15.741,1.163,4.537,4.537,0,0,1,3.945.74,7.13,7.13,0,0,1,6.561-4.441,6.949,6.949,0,0,1,4.038,1.292,10.7,10.7,0,0,1,10.026-7.43,10.378,10.378,0,0,1,6.877,2.631l-1.029,1.254a8.82,8.82,0,0,0-5.848-2.239,9.148,9.148,0,0,0-8.816,7.4l-.3,1.464-1.03-1.052a5.44,5.44,0,0,0-3.917-1.671,5.615,5.615,0,0,0-5.441,4.486l-.167.745h35.831a4.236,4.236,0,0,0-3.927-2.772,4.076,4.076,0,0,0-2.073.57l-1.069.627-.111-1.271a9.738,9.738,0,0,0-.406-2.059l1.505-.513a10.925,10.925,0,0,1,.328,1.308,5.84,5.84,0,0,1,6.933,2.853,3.975,3.975,0,0,1,4.972,1.654Zm-70.322-1.647h26.686l-.315-.44a2.993,2.993,0,0,0-3.9-.858l-1.072.626-.107-1.271a6.617,6.617,0,0,0-13.123-.83l-.3,1.467-1.027-1.055a3.947,3.947,0,0,0-2.836-1.209A4.107,4.107,0,0,0,1183.977,2446.6Z" transform="translate(-1182.345 -2433.587)" fill="#1a2e35"/>
      </g>
    </g>
  </g>
  <g id="Grupo_1005" data-name="Grupo 1005" transform="translate(13.183 120.636)">
    <g id="Grupo_1004" data-name="Grupo 1004">
      <g id="Grupo_1003" data-name="Grupo 1003">
        <path id="Trazado_2800" data-name="Trazado 2800" d="M1169.4,2497.369h-71.3v-.823a5.745,5.745,0,0,1,5.583-5.994,5.421,5.421,0,0,1,2.936.865,8.084,8.084,0,0,1,15.6,1.156,4.463,4.463,0,0,1,3.9.723,7.067,7.067,0,0,1,6.5-4.385,6.886,6.886,0,0,1,4,1.275,10.609,10.609,0,0,1,9.936-7.359,10.267,10.267,0,0,1,6.818,2.609l-1.027,1.253a8.733,8.733,0,0,0-5.79-2.216,9.049,9.049,0,0,0-8.726,7.322l-.3,1.464-1.03-1.052a5.388,5.388,0,0,0-3.877-1.65,5.553,5.553,0,0,0-5.381,4.437l-.163.73h35.481a4.188,4.188,0,0,0-3.88-2.734,4.05,4.05,0,0,0-2.052.562l-1.071.632-.109-1.277a9.6,9.6,0,0,0-.4-2.04l1.511-.5a12.557,12.557,0,0,1,.318,1.279,5.578,5.578,0,0,1,1.806-.3,5.744,5.744,0,0,1,5.063,3.13,3.947,3.947,0,0,1,4.929,1.647Zm-69.678-1.646h26.418l-.306-.425a2.943,2.943,0,0,0-3.85-.849l-1.071.627-.109-1.27a6.548,6.548,0,0,0-12.985-.824l-.3,1.464-1.029-1.049a3.908,3.908,0,0,0-2.807-1.2A4.064,4.064,0,0,0,1099.721,2495.723Z" transform="translate(-1098.098 -2482.827)" fill="#1a2e35"/>
      </g>
    </g>
  </g>
  <g id="Grupo_1062" data-name="Grupo 1062" transform="translate(64.045 0)">
    <g id="Grupo_1006" data-name="Grupo 1006" transform="translate(22.477 250.716)">
      <ellipse id="Elipse_65" data-name="Elipse 65" cx="53.816" cy="21.182" rx="53.816" ry="21.182" fill="#d5e31c"/>
      <ellipse id="Elipse_66" data-name="Elipse 66" cx="53.816" cy="21.182" rx="53.816" ry="21.182" fill="#fff" opacity="0.5"/>
    </g>
    <g id="Grupo_1061" data-name="Grupo 1061">
      <g id="Grupo_1013" data-name="Grupo 1013" transform="translate(0 146.03)">
        <g id="Grupo_1007" data-name="Grupo 1007">
          <path id="Trazado_2801" data-name="Trazado 2801" d="M1182.04,2501.905a264.245,264.245,0,0,1-29.718,9.426c-15.123,3.689-19.856,6.284-21.7,10.655s-.656,19.126,18.016,17.623,32.48-8.469,36.425-9.562,19.331-6.557,19.331-6.557,4.865-3.006,2.236-12.841-7.365-12.978-13.545-12.3A30.869,30.869,0,0,0,1182.04,2501.905Z" transform="translate(-1129.664 -2497.92)" fill="#757575"/>
          <path id="Trazado_2802" data-name="Trazado 2802" d="M1146.207,2540.2c-7.983,0-11.989-3.268-13.971-6.166-2.932-4.285-2.812-9.626-1.791-12.05,1.956-4.645,7.285-7.282,21.926-10.854a265.926,265.926,0,0,0,29.655-9.405,31.523,31.523,0,0,1,11.151-3.579c6.888-.76,11.441,3.341,13.9,12.546,2.667,9.977-2.18,13.1-2.386,13.233a.439.439,0,0,1-.063.03c-.154.055-15.441,5.48-19.352,6.565-.841.231-2.179.753-3.874,1.412-6.27,2.439-17.939,6.981-32.611,8.161C1147.887,2540.167,1147.025,2540.2,1146.207,2540.2Zm48.575-41.452a13.938,13.938,0,0,0-1.534.088,30.732,30.732,0,0,0-10.915,3.508.292.292,0,0,1-.048.021,266.465,266.465,0,0,1-29.762,9.44c-14.4,3.511-19.612,6.052-21.467,10.457-.958,2.274-1.056,7.3,1.726,11.368,2.084,3.051,6.541,6.521,15.959,5.77,14.577-1.174,26.189-5.692,32.428-8.119,1.712-.666,3.064-1.192,3.935-1.434,3.794-1.05,18.411-6.231,19.27-6.535.366-.256,4.484-3.37,2.061-12.433C1204.234,2502.646,1200.51,2498.748,1194.782,2498.748Zm-12.614,3.294h0Z" transform="translate(-1129.789 -2498.058)" fill="#1a2e35"/>
        </g>
        <g id="Grupo_1008" data-name="Grupo 1008" transform="translate(17.379 37.899)">
          <path id="Trazado_2984" data-name="Trazado 2984" d="M5.81,0c3.2-.017,5.781,1.743,5.77,3.929S8.968,7.9,5.77,7.918-.011,6.176,0,3.989,2.612.017,5.81,0Z" transform="matrix(0.991, -0.134, 0.134, 0.991, 0, 1.557)" fill="#d5e31c"/>
        </g>
        <g id="Grupo_1009" data-name="Grupo 1009" transform="translate(13.506 26.983)">
          <path id="Trazado_2985" data-name="Trazado 2985" d="M.721.019,8.528,0a.717.717,0,0,1,.706.733L9.222,5.569a.726.726,0,0,1-.709.737L.706,6.325A.717.717,0,0,1,0,5.592L.011.755A.726.726,0,0,1,.721.019Z" transform="matrix(0.998, -0.063, 0.063, 0.998, 0, 0.577)" fill="#242838"/>
        </g>
        <g id="Grupo_1010" data-name="Grupo 1010" transform="translate(15.608 20.323)">
          <path id="Trazado_2803" data-name="Trazado 2803" d="M1145.615,2510.575s0,6.782-.058,7.5-4.18,1.249-5.153,1.309-.745,1.251-.287,1.487,4.41.417,4.983.834a2.346,2.346,0,0,1,.687,1.427l.8,7.2,1.2-.118-.916-19.754Z" transform="translate(-1139.389 -2510.108)" fill="#fff"/>
          <path id="Trazado_2804" data-name="Trazado 2804" d="M1146.713,2530.815a.34.34,0,0,1-.331-.309l-.8-7.2a1.953,1.953,0,0,0-.547-1.184,14.307,14.307,0,0,0-2.9-.48,8.521,8.521,0,0,1-2.037-.325,1.305,1.305,0,0,1-.557-1.34.983.983,0,0,1,.971-.8c1.417-.087,4.561-.626,4.86-1.05.026-.495.039-5.068.039-7.408a.343.343,0,0,1,.3-.347l1.26-.118a.323.323,0,0,1,.25.083.356.356,0,0,1,.114.245l.916,19.754a.342.342,0,0,1-.3.363l-1.2.119Zm-.639-19.784c0,1.364-.007,6.571-.058,7.208-.1,1.225-5.415,1.624-5.468,1.628-.276.016-.336.143-.356.251a.619.619,0,0,0,.2.578,14.107,14.107,0,0,0,1.81.257,9.938,9.938,0,0,1,3.216.6,2.613,2.613,0,0,1,.827,1.671l.764,6.862.56-.055-.885-19.062Z" transform="translate(-1139.515 -2510.247)" fill="#1a2e35"/>
        </g>
        <g id="Grupo_1011" data-name="Grupo 1011" transform="translate(16.578 14.873)">
          <path id="Trazado_2986" data-name="Trazado 2986" d="M5.81,0c3.2-.017,5.781,1.743,5.77,3.929S8.968,7.9,5.77,7.918-.011,6.176,0,3.989,2.612.017,5.81,0Z" transform="translate(0 1.557) rotate(-7.728)" fill="#d5e31c"/>
        </g>
        <g id="Grupo_1012" data-name="Grupo 1012" transform="translate(20.727 16.906)">
          <path id="Trazado_2805" data-name="Trazado 2805" d="M1146.1,2509.355c.083.634-.562,1.249-1.438,1.372s-1.656-.29-1.74-.925.562-1.249,1.438-1.374S1146.014,2508.719,1146.1,2509.355Z" transform="translate(-1142.579 -2508.058)" fill="#fff"/>
          <path id="Trazado_2806" data-name="Trazado 2806" d="M1144.469,2511.236a1.625,1.625,0,0,1-1.754-1.249,1.386,1.386,0,0,1,.464-1.18,2.3,2.3,0,0,1,1.26-.584,2.246,2.246,0,0,1,1.366.214,1.36,1.36,0,0,1,.75,1.011,1.391,1.391,0,0,1-.464,1.18,2.3,2.3,0,0,1-1.26.584A2.8,2.8,0,0,1,1144.469,2511.236Zm.321-2.343a1.7,1.7,0,0,0-.262.019,1.631,1.631,0,0,0-.9.407.711.711,0,0,0-.255.576c.056.436.679.721,1.362.628a1.657,1.657,0,0,0,.9-.407.719.719,0,0,0,.254-.575h0a.7.7,0,0,0-.393-.485A1.505,1.505,0,0,0,1144.79,2508.893Z" transform="translate(-1142.704 -2508.198)" fill="#1a2e35"/>
        </g>
      </g>
      <g id="Grupo_1014" data-name="Grupo 1014" transform="translate(45.928 108.869)">
        <path id="Trazado_2807" data-name="Trazado 2807" d="M1160.522,2477.842s.13,10.383-.921,14.071a39.52,39.52,0,0,0-.526,14.89c.79,4.919.131,16.668.131,16.668l2.631-1.094s4.34-23.087,4.6-32.1.263-13.524.263-13.524S1161.969,2474.428,1160.522,2477.842Z" transform="translate(-1158.28 -2475.629)" fill="#fff"/>
        <path id="Trazado_2808" data-name="Trazado 2808" d="M1159.333,2523.956a.317.317,0,0,1-.194-.066.349.349,0,0,1-.14-.3c.007-.117.647-11.766-.127-16.588a39.743,39.743,0,0,1,.534-15.045c1.027-3.6.908-13.867.907-13.968a.364.364,0,0,1,.029-.146,3.176,3.176,0,0,1,1.807-1.813c2.046-.8,4.708.492,4.823.546a.353.353,0,0,1,.191.314c0,.047,0,4.617-.263,13.537-.262,8.939-4.566,31.926-4.609,32.158a.344.344,0,0,1-.2.256l-2.63,1.093A.312.312,0,0,1,1159.333,2523.956Zm1.65-45.9c.011,1.032.084,10.529-.934,14.1a38.954,38.954,0,0,0-.517,14.735c.7,4.354.284,13.8.164,16.2l1.974-.82c.411-2.211,4.316-23.4,4.561-31.862.228-7.794.258-12.263.263-13.286-.621-.265-2.619-1.019-4.113-.437A2.47,2.47,0,0,0,1160.983,2478.053Z" transform="translate(-1158.407 -2475.769)" fill="#1a2e35"/>
      </g>
      <g id="Grupo_1015" data-name="Grupo 1015" transform="translate(36.517 65.184)">
        <path id="Trazado_2809" data-name="Trazado 2809" d="M1171.525,2449.776s-5.157,1.929-6.7,3.751-3.4,19.611-7.531,29.041-4.539,10.5-4.539,10.5,6.5,4.393,10.626,5.143a32.235,32.235,0,0,0,7.22.537s-.825-17.9-.31-28.72a68.584,68.584,0,0,1,3.714-19.182Z" transform="translate(-1152.417 -2449.429)" fill="#d5e31c"/>
        <path id="Trazado_2810" data-name="Trazado 2810" d="M1169.576,2499.266a34.969,34.969,0,0,1-6.131-.571c-4.146-.754-10.481-5.014-10.75-5.194a.353.353,0,0,1-.128-.42c.018-.044.462-1.187,4.545-10.517,2.378-5.438,4.038-13.872,5.25-20.031,1.038-5.277,1.658-8.3,2.333-9.1,1.587-1.867,6.63-3.768,6.843-3.848a.328.328,0,0,1,.242.005l2.475,1.074a.353.353,0,0,1,.183.449,68.806,68.806,0,0,0-3.692,19.07c-.509,10.682.3,28.509.31,28.686a.344.344,0,0,1-.311.364C1170.7,2499.24,1170.282,2499.266,1169.576,2499.266Zm-16.28-6.192c1.2.785,6.69,4.288,10.265,4.937a33.563,33.563,0,0,0,6.813.547c-.111-2.557-.764-18.521-.294-28.405a70.507,70.507,0,0,1,3.621-18.974l-2.056-.89c-.78.3-5.1,2.024-6.447,3.608-.591.7-1.328,4.438-2.181,8.775-1.285,6.538-2.885,14.672-5.3,20.179C1154.551,2490.094,1153.578,2492.394,1153.3,2493.074Z" transform="translate(-1152.543 -2449.567)" fill="#242838"/>
      </g>
      <g id="Grupo_1018" data-name="Grupo 1018" transform="translate(34.44 255.962)">
        <g id="Grupo_1016" data-name="Grupo 1016" transform="translate(0.326)">
          <path id="Trazado_2811" data-name="Trazado 2811" d="M1167.567,2565.171s-7.427,4.287-12.379,6.431-4.539,4.715-1.342,6,6.086,3.108,11.347,1.394,7.944-4.5,11.348-4.823,7.221.215,8.046-3-11.449-7.075-12.894-7.181Z" transform="translate(-1151.452 -2563.993)" fill="#d5e31c"/>
        </g>
        <g id="Grupo_1017" data-name="Grupo 1017" transform="translate(0 5.434)">
          <path id="Trazado_2812" data-name="Trazado 2812" d="M1184.584,2568.861a1.664,1.664,0,0,0-.382-1.4c-.708.517-1.628,1.156-2.815,1.936-3.921,2.573-5.468,0-9.594,2.357s-7.015,3.644-12.791,3.644a10.162,10.162,0,0,1-7.473-3.1c-.345,1.2.562,2.287,2.314,2.992,3.2,1.286,6.086,3.108,11.347,1.394s7.944-4.5,11.349-4.823S1183.759,2572.075,1184.584,2568.861Z" transform="translate(-1151.123 -2567.114)" fill="#fff"/>
          <path id="Trazado_2813" data-name="Trazado 2813" d="M1161.256,2577.867a15,15,0,0,1-6.2-1.607c-.4-.171-.8-.344-1.21-.508-1.964-.789-2.905-2.066-2.513-3.415a.328.328,0,0,1,.555-.146,9.888,9.888,0,0,0,7.237,3c5.9,0,8.709-1.36,12.63-3.6a8.323,8.323,0,0,1,4.955-1.142,6.955,6.955,0,0,0,4.622-1.2c1.051-.692,1.995-1.339,2.8-1.926a.326.326,0,0,1,.457.073,2,2,0,0,1,.44,1.7h0c-.739,2.87-3.645,3.006-6.458,3.139-.626.03-1.26.058-1.881.118a14.151,14.151,0,0,0-5.235,2.057,34.3,34.3,0,0,1-6.043,2.751A13.345,13.345,0,0,1,1161.256,2577.867Zm-9.317-4.683c.188,1.013,1.51,1.662,2.151,1.92.412.165.818.34,1.226.513,2.792,1.2,5.429,2.331,9.9.872a33.826,33.826,0,0,0,5.933-2.7,14.573,14.573,0,0,1,5.484-2.134c.631-.061,1.276-.091,1.913-.12,2.807-.132,5.23-.247,5.84-2.624h0a1.111,1.111,0,0,0-.147-.822c-.751.536-1.607,1.122-2.549,1.741a7.584,7.584,0,0,1-4.991,1.311,7.677,7.677,0,0,0-4.62,1.057c-3.9,2.228-6.9,3.688-12.952,3.688A10.57,10.57,0,0,1,1151.939,2573.185Z" transform="translate(-1151.249 -2567.252)" fill="#1a2e35"/>
        </g>
      </g>
      <g id="Grupo_1021" data-name="Grupo 1021" transform="translate(93.059 266.466)">
        <g id="Grupo_1019" data-name="Grupo 1019" transform="translate(0.334)">
          <path id="Trazado_2814" data-name="Trazado 2814" d="M1187.982,2573.934a51.434,51.434,0,0,1,3.094,8.681c1.445,5.357,6.809,9.215,11.863,8.358s6.808-2.571,5.88-7.073a56.965,56.965,0,0,0-3.816-10.5,10.086,10.086,0,0,0-2.374-2.251C1200.98,2569.97,1191.8,2569.328,1187.982,2573.934Z" transform="translate(-1187.982 -2570.293)" fill="#d5e31c"/>
        </g>
        <g id="Grupo_1020" data-name="Grupo 1020" transform="translate(0 3.127)">
          <path id="Trazado_2815" data-name="Trazado 2815" d="M1208.111,2579.832c.051.927.09,1.87.09,2.679,0,2.68-.928,5.144-4.951,5.144s-8.665-1.929-9.9-4.609-4.744-10.608-4.744-10.608l-.459-.061c-.052.059-.111.108-.161.167a51.434,51.434,0,0,1,3.094,8.681c1.445,5.357,6.809,9.215,11.863,8.359s6.808-2.572,5.88-7.073C1208.643,2581.656,1208.395,2580.745,1208.111,2579.832Z" transform="translate(-1187.648 -2572.03)" fill="#fff"/>
          <path id="Trazado_2816" data-name="Trazado 2816" d="M1201.669,2590.187c-4.7,0-9.435-3.709-10.788-8.729a51.863,51.863,0,0,0-3.07-8.615.359.359,0,0,1,.045-.387,1.4,1.4,0,0,1,.109-.115l.056-.057a.313.313,0,0,1,.289-.112l.459.061a.336.336,0,0,1,.262.2c.036.08,3.52,7.958,4.743,10.6,1.106,2.39,5.5,4.411,9.6,4.411,3.15,0,4.617-1.524,4.617-4.8,0-.71-.03-1.605-.089-2.657a.345.345,0,0,1,.271-.363.332.332,0,0,1,.38.234c.311,1,.554,1.911.717,2.713.438,2.126.294,3.648-.457,4.791-.886,1.347-2.641,2.18-5.7,2.7A8.659,8.659,0,0,1,1201.669,2590.187Zm-11.977-14.6c.554,1.461,1.215,3.393,1.833,5.686,1.4,5.214,6.664,8.924,11.488,8.112,2.855-.486,4.475-1.227,5.25-2.4a5.377,5.377,0,0,0,.395-4.058c-.085,3.467-1.862,5.223-5.282,5.223-3.84,0-8.833-1.837-10.206-4.8C1192.422,2581.714,1190.827,2578.138,1189.692,2575.583Z" transform="translate(-1187.774 -2572.169)" fill="#1a2e35"/>
        </g>
      </g>
      <g id="Grupo_1022" data-name="Grupo 1022" transform="translate(89.761 77.182)">
        <path id="Trazado_2817" data-name="Trazado 2817" d="M1196.332,2458.833s9.994,1.776,12.624,5.874,3.418,22.269,4.734,28.278-.527,5.464-.527,6.011,5,10.382,1.972,15.3-7.232,9.29-15.648,9.972-10.125-1.776-12.624-9.015-.132-50.683-.132-56.01S1196.332,2458.833,1196.332,2458.833Z" transform="translate(-1185.719 -2456.764)" fill="#242838"/>
      </g>
      <g id="Grupo_1028" data-name="Grupo 1028" transform="translate(46.238 150.299)">
        <g id="Grupo_1023" data-name="Grupo 1023">
          <path id="Trazado_2818" data-name="Trazado 2818" d="M1160.251,2502.976s-1.652,19.717-1.652,32.576,4.436,39.116,5.261,44.366,1.549,16.076.722,17.576-4.229,3.321-3.3,5.143,1.96,3.43,1.96,3.75a14.541,14.541,0,0,1-1.135,2.251,21.182,21.182,0,0,1,6.188,2.573c2.476,1.714,9.594,4.822,11.657,4.5a3.563,3.563,0,0,0,3.1-4.071c-.412-1.822-2.269-4.5-2.167-4.93s2.062-3.964,1.96-5.25-2.785-8.466-2.785-8.466-1.164-25.714-1.164-38.037.969-33.01.969-33.01l1.432.212s1.135,11.359,4.951,30.971,6.19,26.9,8.872,30.22,2.179,13.717,4.139,18,2.269,6.431,2.269,6.753-4.229,5.143-2.786,6.538,7.015,6.215,7.015,6.215,6.4-.965,10.419-1.179,6.6-.109,6.6-.109,2.062-4.715,1.752-6.428-7.118-8.145-7.118-8.145,3.4-3.108,1.959-6-6.291-6.645-7.735-8.68-2.592-21.648-3.829-26.041-1.748-35.024-1.748-35.775a85.683,85.683,0,0,1,1.026-11.912c1.032-7.395,1.237-11.9,1.237-12.219s-16.607,1.929-30.533-.641-15.782-3.108-15.782-3.108A4.539,4.539,0,0,0,1160.251,2502.976Z" transform="translate(-1158.6 -2500.618)" fill="#242838"/>
        </g>
        <g id="Grupo_1024" data-name="Grupo 1024" transform="translate(48.272 100.172)">
          <path id="Trazado_2819" data-name="Trazado 2819" d="M1190.084,2566.988c-.329,0-.632-.007-.892-.022a.478.478,0,0,1-.5-.374c-.055-.274-.2-1.009,9.037-5.855a.329.329,0,0,1,.449.153.354.354,0,0,1-.147.468,73.509,73.509,0,0,0-8.41,4.928c1.876.045,5.2-.223,5.242-.227a.349.349,0,0,1,.36.319.343.343,0,0,1-.307.373C1194.774,2566.762,1191.99,2566.988,1190.084,2566.988Z" transform="translate(-1188.678 -2560.699)" fill="#696969"/>
        </g>
        <g id="Grupo_1025" data-name="Grupo 1025" transform="translate(47.751 113.782)">
          <path id="Trazado_2820" data-name="Trazado 2820" d="M1196.422,2572.237a.352.352,0,0,1-.068-.007c-.04-.009-4.043-.857-7.288-1.174-.3-.03-.719-.07-.714-.45s.011-.737,15.063-1.742a.335.335,0,0,1,.355.323.345.345,0,0,1-.313.371c-3.876.258-9.542.688-12.558,1.019,2.8.384,5.556.967,5.59.974a.347.347,0,0,1,.26.41A.339.339,0,0,1,1196.422,2572.237Z" transform="translate(-1188.353 -2568.863)" fill="#696969"/>
        </g>
        <g id="Grupo_1026" data-name="Grupo 1026" transform="translate(9.525 97.173)">
          <path id="Trazado_2821" data-name="Trazado 2821" d="M1165.739,2563.56c-.576,0-1.143-.039-1.2-.487-.038-.324-.133-1.083,11.328-4.162a.333.333,0,0,1,.407.248.348.348,0,0,1-.241.424,91.357,91.357,0,0,0-10.4,3.281h.106a39.54,39.54,0,0,0,9.095-1.274.332.332,0,0,1,.409.245.35.35,0,0,1-.237.427A40.387,40.387,0,0,1,1165.739,2563.56Z" transform="translate(-1164.535 -2558.9)" fill="#696969"/>
        </g>
        <g id="Grupo_1027" data-name="Grupo 1027" transform="translate(8.628 106.299)">
          <path id="Trazado_2822" data-name="Trazado 2822" d="M1172.267,2569.122a.358.358,0,0,1-.114-.019,45.923,45.923,0,0,1-7.7-3.681c-.182-.125-.6-.417-.434-.8.13-.291.4-.9,10.921,2.211a.349.349,0,0,1,.231.428.332.332,0,0,1-.413.239,94.281,94.281,0,0,0-9.6-2.434,49.487,49.487,0,0,0,7.224,3.382.35.35,0,0,1,.2.443A.336.336,0,0,1,1172.267,2569.122Z" transform="translate(-1163.976 -2564.374)" fill="#696969"/>
        </g>
      </g>
      <g id="Grupo_1035" data-name="Grupo 1035" transform="translate(47.438 39.771)">
        <g id="Grupo_1029" data-name="Grupo 1029">
          <path id="Trazado_2823" data-name="Trazado 2823" d="M1176.4,2444.871s.984,5.567-.22,8.862-7.435,5.681-8.419,6.134-2.626,6.135-3.282,8.861-2.3,18.177-.984,28.289-1.093,25.674-1.531,33.741a127.878,127.878,0,0,1-2.406,17.155s6.672,4.885,22.855,4.885,24.825-2.84,24.825-2.84,1.229-2.673,1.093-16.133c-.205-20.333-.327-26.925-.546-45.783s-.547-25.334-2.407-27.266-6.888-2.157-10.825-2.953-6.233-3.295-6.233-7.5,1.2-15.793,1.2-15.793S1181.209,2441.463,1176.4,2444.871Z" transform="translate(-1159.222 -2434.186)" fill="#d5e31c"/>
          <path id="Trazado_2824" data-name="Trazado 2824" d="M1182.538,2553.282c-16.105,0-22.772-4.747-23.048-4.948a.35.35,0,0,1-.134-.36,128.591,128.591,0,0,0,2.4-17.1c.123-2.264.406-5.18.706-8.266.788-8.094,1.767-18.168.828-25.408-1.3-10.012.258-25.373.99-28.419.083-.344,2.044-8.437,3.469-9.093.1-.045.241-.106.425-.187,1.677-.72,6.783-2.914,7.819-5.754,1.155-3.164.212-8.621.2-8.677a.352.352,0,0,1,.14-.348c4.746-3.361,13.019-10.252,13.1-10.322a.322.322,0,0,1,.369-.033.349.349,0,0,1,.172.342c-.011.115-1.2,11.616-1.2,15.754,0,3.893,2.062,6.367,5.964,7.156.982.2,2.057.365,3.1.526,3.164.49,6.433,1,7.9,2.523,1.921,2,2.277,7.976,2.5,27.507.087,7.468.157,13.012.226,18.248.1,7.986.2,15.254.319,27.536.137,13.386-1.074,16.172-1.125,16.285a.336.336,0,0,1-.2.181C1207.375,2550.456,1198.588,2553.282,1182.538,2553.282Zm-22.48-5.394c1.178.753,8.055,4.7,22.48,4.7,14.781,0,23.339-2.406,24.569-2.777.22-.687,1.131-4.257,1.014-15.844-.123-12.282-.218-19.549-.321-27.533-.067-5.237-.139-10.781-.226-18.25-.22-19.007-.566-25.216-2.308-27.023-1.312-1.365-4.472-1.854-7.528-2.328-1.045-.161-2.126-.329-3.125-.531-4.255-.858-6.5-3.57-6.5-7.838,0-3.519.847-12.271,1.12-15-2,1.651-8.326,6.844-12.342,9.709.175,1.093.827,5.815-.271,8.824-1.14,3.119-6.444,5.4-8.186,6.15-.178.076-.318.136-.411.18-.674.309-2.17,4.795-3.091,8.627-.645,2.677-2.269,18.2-.979,28.158.952,7.321-.032,17.44-.823,25.569-.3,3.08-.582,5.988-.7,8.238A128.3,128.3,0,0,1,1160.058,2547.889Z" transform="translate(-1159.348 -2434.325)" fill="#242838"/>
        </g>
        <g id="Grupo_1034" data-name="Grupo 1034" transform="translate(14.204 52.111)">
          <g id="Grupo_1030" data-name="Grupo 1030" transform="translate(3.025 0.547)">
            <path id="Trazado_2825" data-name="Trazado 2825" d="M1170.418,2473.842a.359.359,0,0,1-.051,0,.344.344,0,0,1-.281-.4l1.053-7.239a.337.337,0,0,1,.38-.292.344.344,0,0,1,.281.393l-1.053,7.242A.337.337,0,0,1,1170.418,2473.842Z" transform="translate(-1170.083 -2465.908)" fill="#1a2e35"/>
          </g>
          <g id="Grupo_1031" data-name="Grupo 1031">
            <path id="Trazado_2826" data-name="Trazado 2826" d="M1168.534,2479.39a.33.33,0,0,1-.072-.008.347.347,0,0,1-.255-.414l2.762-13.115a.338.338,0,0,1,.4-.265.349.349,0,0,1,.255.414l-2.762,13.114A.336.336,0,0,1,1168.534,2479.39Z" transform="translate(-1168.198 -2465.58)" fill="#1a2e35"/>
          </g>
          <g id="Grupo_1032" data-name="Grupo 1032" transform="translate(21.698 0.274)">
            <path id="Trazado_2827" data-name="Trazado 2827" d="M1183.1,2476a.34.34,0,0,1-.331-.309l-1.053-9.563a.343.343,0,0,1,.3-.383.335.335,0,0,1,.369.3l1.053,9.563a.344.344,0,0,1-.3.384Z" transform="translate(-1181.718 -2465.744)" fill="#1a2e35"/>
          </g>
          <g id="Grupo_1033" data-name="Grupo 1033" transform="translate(19.464 0.546)">
            <path id="Trazado_2828" data-name="Trazado 2828" d="M1180.66,2474.663h-.024a.341.341,0,0,1-.31-.37l.525-8.062a.334.334,0,0,1,.356-.322.342.342,0,0,1,.311.37l-.526,8.06A.339.339,0,0,1,1180.66,2474.663Z" transform="translate(-1180.325 -2465.908)" fill="#1a2e35"/>
          </g>
        </g>
      </g>
      <g id="Grupo_1055" data-name="Grupo 1055" transform="translate(44.383)">
        <g id="Grupo_1036" data-name="Grupo 1036" transform="translate(13.451 16.943)">
          <path id="Trazado_2829" data-name="Trazado 2829" d="M1192.181,2424.267a14.378,14.378,0,0,0,6.232,6.022c4.484,2.271,10.061,1.7,10.061,1.7a12.725,12.725,0,0,1-2.951,3.861c-2.187,2.047-7.328,1.478-7.328,1.478a4.009,4.009,0,0,0,1.531,2.046,11.029,11.029,0,0,0,2.3.682,7.613,7.613,0,0,1-1.422,4.885c-1.641,1.93-6.779,1.93-6.779,1.93s1.858,6.135-2.078,9.77-9.187.8-9.187.8a54.688,54.688,0,0,1-8.092,3.068c-3.28.795-8.639-2.387-8.639-2.387s5.359-1.816,5.468-4.658,0-5.907,0-5.907,7.435-.113,11.372-3.523,5.25-18.63,4.922-21.016l-.329-2.386S1191.3,2422,1192.181,2424.267Z" transform="translate(-1165.825 -2420.633)" fill="#d5e31c"/>
        </g>
        <g id="Grupo_1040" data-name="Grupo 1040" transform="translate(13.528 39.771)">
          <g id="Grupo_1037" data-name="Grupo 1037" transform="translate(0 0.347)">
            <path id="Trazado_2830" data-name="Trazado 2830" d="M1190.24,2457.708a6.989,6.989,0,0,1-5.744-7.382c0-4.205,1.2-15.793,1.2-15.793s-8.31,6.931-13.122,10.338c0,0,.984,5.567-.22,8.862-.854,2.339-4.237,4.215-6.484,5.272a15.062,15.062,0,0,0,10.859,7C1183.8,2467.171,1188.334,2461.041,1190.24,2457.708Z" transform="translate(-1165.873 -2434.533)" fill="#242838"/>
          </g>
          <g id="Grupo_1038" data-name="Grupo 1038" transform="translate(1.927)">
            <path id="Trazado_2831" data-name="Trazado 2831" d="M1187.329,2456.948c-2.359-1.226-3.685-3.434-3.685-6.623,0-4.205,1.2-15.793,1.2-15.793s-8.31,6.931-13.121,10.338c0,0,.983,5.567-.22,8.862-.594,1.625-2.413,3.029-4.223,4.09,1.281,2.283,4.452,6.3,10.565,5.225C1183.6,2462.041,1186.231,2458.865,1187.329,2456.948Z" transform="translate(-1166.948 -2434.186)" fill="#fff"/>
            <path id="Trazado_2832" data-name="Trazado 2832" d="M1175.972,2463.716a10.1,10.1,0,0,1-8.853-5.579.365.365,0,0,1-.034-.267.349.349,0,0,1,.159-.211c2.234-1.31,3.6-2.625,4.075-3.91,1.156-3.164.212-8.621.2-8.677a.351.351,0,0,1,.139-.348c4.746-3.361,13.019-10.252,13.1-10.322a.321.321,0,0,1,.369-.033.349.349,0,0,1,.172.342c-.011.115-1.2,11.616-1.2,15.754,0,2.981,1.178,5.105,3.5,6.313a.342.342,0,0,1,.17.214.361.361,0,0,1-.032.275c-1.085,1.894-3.788,5.225-9.713,6.264A11.835,11.835,0,0,1,1175.972,2463.716Zm-8.1-5.629a9.3,9.3,0,0,0,10.048,4.759c5.344-.938,7.93-3.8,9.063-5.625a7.311,7.311,0,0,1-3.545-6.756c0-3.519.847-12.271,1.12-15-2,1.651-8.326,6.844-12.342,9.709.175,1.093.827,5.815-.271,8.824C1171.439,2455.376,1170.068,2456.751,1167.87,2458.086Z" transform="translate(-1167.074 -2434.325)" fill="#1a2e35"/>
          </g>
          <g id="Grupo_1039" data-name="Grupo 1039" transform="translate(6.704 0.347)">
            <path id="Trazado_2833" data-name="Trazado 2833" d="M1182.494,2441.729c.324-3.79.677-7.2.677-7.2s-8.31,6.931-13.121,10.338a29.149,29.149,0,0,1,.368,5.172,4.161,4.161,0,0,0,.87-.025C1174.475,2449.532,1179.583,2444.958,1182.494,2441.729Z" transform="translate(-1170.05 -2434.533)" fill="#242838"/>
          </g>
        </g>
        <g id="Grupo_1054" data-name="Grupo 1054">
          <g id="Grupo_1041" data-name="Grupo 1041" transform="translate(7.211 14.845)">
            <path id="Trazado_2834" data-name="Trazado 2834" d="M1162.145,2423.274s.438,14.542,1.751,22.153,7.874,12.725,11.591,12.156,10.061-6.7,12.467-9.77a10.311,10.311,0,0,0,2.406-5.794,2.421,2.421,0,0,0,2.516-1.93c.655-2.159-.22-17.268-.22-17.268S1178.878,2415.208,1162.145,2423.274Z" transform="translate(-1161.811 -2419.245)" fill="#fff"/>
            <path id="Trazado_2835" data-name="Trazado 2835" d="M1175.057,2458.1c-3.85,0-10.068-4.961-11.366-12.483-1.3-7.549-1.749-22.057-1.754-22.2a.352.352,0,0,1,.193-.327,35.57,35.57,0,0,1,30.809-.446.347.347,0,0,1,.177.286c.035.62.871,15.2.2,17.392a2.816,2.816,0,0,1-2.52,2.183,11.163,11.163,0,0,1-2.46,5.659c-2.4,3.052-8.777,9.3-12.677,9.895A4.194,4.194,0,0,1,1175.057,2458.1Zm-12.444-34.479c.064,1.887.534,14.895,1.738,21.874,1.3,7.552,7.692,12.4,11.213,11.872,3.549-.542,9.771-6.475,12.257-9.645a10.093,10.093,0,0,0,2.331-5.576.361.361,0,0,1,.114-.26.323.323,0,0,1,.26-.085,2.091,2.091,0,0,0,2.157-1.691c.5-1.637.079-11.678-.221-16.942A35.025,35.025,0,0,0,1162.613,2423.622Z" transform="translate(-1161.937 -2419.374)" fill="#1a2e35"/>
          </g>
          <g id="Grupo_1048" data-name="Grupo 1048" transform="translate(10.273 22.662)">
            <g id="Grupo_1042" data-name="Grupo 1042" transform="translate(17.832 8.367)">
              <path id="Trazado_2836" data-name="Trazado 2836" d="M1176.814,2429.082s.984.34,0,2.159a10.569,10.569,0,0,1-1.858,2.614l3.608-1.478-.546,2.612a4.083,4.083,0,0,0,3.061-1.817,8.054,8.054,0,0,0,1.422-3.863Z" transform="translate(-1174.956 -2429.082)" fill="#d5e31c"/>
            </g>
            <g id="Grupo_1043" data-name="Grupo 1043" transform="translate(5.359 0.975)">
              <path id="Trazado_2837" data-name="Trazado 2837" d="M1170.089,2438.406a3.766,3.766,0,0,1-1.337-.23,2.765,2.765,0,0,1-1.538-1.334.352.352,0,0,1-.016-.247,75.268,75.268,0,0,0,2.064-7.85,14.975,14.975,0,0,0-1.173-3.6.351.351,0,0,1,.165-.46.324.324,0,0,1,.441.171,15.364,15.364,0,0,1,1.234,3.893,75.8,75.8,0,0,1-2.051,7.913c.274.445,1.562,2.023,5.291.18a.33.33,0,0,1,.446.165.352.352,0,0,1-.159.462A7.774,7.774,0,0,1,1170.089,2438.406Z" transform="translate(-1167.184 -2424.648)" fill="#1a2e35"/>
            </g>
            <g id="Grupo_1044" data-name="Grupo 1044" transform="translate(2.194 5.299)">
              <path id="Trazado_2838" data-name="Trazado 2838" d="M1167.071,2429c0,.974-.416,1.762-.929,1.762s-.929-.789-.929-1.762.416-1.761.929-1.761S1167.071,2428.03,1167.071,2429Z" transform="translate(-1165.212 -2427.242)" fill="#242838"/>
            </g>
            <g id="Grupo_1045" data-name="Grupo 1045" transform="translate(13.895 4.618)">
              <ellipse id="Elipse_69" data-name="Elipse 69" cx="0.93" cy="1.761" rx="0.93" ry="1.761" fill="#242838"/>
            </g>
            <g id="Grupo_1046" data-name="Grupo 1046">
              <path id="Trazado_2839" data-name="Trazado 2839" d="M1164.179,2427.1a.347.347,0,0,1-.119-.022.354.354,0,0,1-.194-.448c1.3-3.556,5.186-2.379,5.222-2.368a.349.349,0,0,1,.223.432.335.335,0,0,1-.417.234c-.133-.043-3.327-1-4.4,1.949A.336.336,0,0,1,1164.179,2427.1Z" transform="translate(-1163.845 -2424.064)" fill="#1a2e35"/>
            </g>
            <g id="Grupo_1047" data-name="Grupo 1047" transform="translate(8.476 17.676)">
              <path id="Trazado_2840" data-name="Trazado 2840" d="M1170.171,2440.814a.335.335,0,0,1-.3-.192c-1.016-2.111-.7-5.5-.69-5.644a.333.333,0,0,1,.366-.31.342.342,0,0,1,.3.381c0,.033-.3,3.333.623,5.262a.354.354,0,0,1-.149.467A.327.327,0,0,1,1170.171,2440.814Z" transform="translate(-1169.126 -2434.665)" fill="#1a2e35"/>
            </g>
          </g>
          <g id="Grupo_1049" data-name="Grupo 1049" transform="translate(19.137 14.33)">
            <path id="Trazado_2841" data-name="Trazado 2841" d="M1169.368,2421s3.828,12.724,12.139,15.79,13.56-6.247,13.56-6.247l-5.686-2.046,3.062.114a41.865,41.865,0,0,0-3.062-5.452c-2.188-3.409-7.546-3.409-13.014-4.09" transform="translate(-1169.368 -2419.066)" fill="#d5e31c"/>
          </g>
          <g id="Grupo_1050" data-name="Grupo 1050" transform="translate(6.561)">
            <path id="Trazado_2842" data-name="Trazado 2842" d="M1161.624,2419.908l-.092,11.822s6.343-5,16.951-4.2a56.159,56.159,0,0,1,17.387,3.863l-.855-10.758a6.238,6.238,0,0,0-2.882-4.8,36.166,36.166,0,0,0-13.432-5.229c-6.288-.9-12.351,3.135-15.263,5.474A4.963,4.963,0,0,0,1161.624,2419.908Z" transform="translate(-1161.532 -2410.471)" fill="#242838"/>
          </g>
          <g id="Grupo_1051" data-name="Grupo 1051" transform="translate(12.029 11.349)">
            <path id="Trazado_2843" data-name="Trazado 2843" d="M1164.939,2421.734l8.421-1.7a4.926,4.926,0,0,0-4.811-2.726C1165.157,2417.645,1164.939,2421.734,1164.939,2421.734Z" transform="translate(-1164.939 -2417.278)" fill="#d5e31c"/>
          </g>
          <g id="Grupo_1052" data-name="Grupo 1052" transform="translate(20.553 21.68)">
            <path id="Trazado_2844" data-name="Trazado 2844" d="M1176.927,2426.013a.322.322,0,0,1-.231-.1c-3.317-3.341-5.771-.9-5.876-.8a.324.324,0,0,1-.472,0,.356.356,0,0,1,0-.49c.03-.03,3.011-3.038,6.811.79a.359.359,0,0,1,.008.493A.329.329,0,0,1,1176.927,2426.013Z" transform="translate(-1170.25 -2423.474)" fill="#1a2e35"/>
          </g>
          <g id="Grupo_1053" data-name="Grupo 1053" transform="translate(0 35.801)">
            <ellipse id="Elipse_70" data-name="Elipse 70" cx="9.295" cy="9.657" rx="9.295" ry="9.657" fill="#d5e31c"/>
          </g>
        </g>
      </g>
      <g id="Grupo_1056" data-name="Grupo 1056" transform="translate(49.548 63.678)">
        <path id="Trazado_2845" data-name="Trazado 2845" d="M1198.151,2469.542a2.477,2.477,0,0,0,.944-1.9c.16-7.49.7-15.1.945-18.2-1.488-.3-3.12-.515-4.672-.774-.228,2.883-.82,10.939-.99,18.868a2.436,2.436,0,0,0,1.683,2.391,28.042,28.042,0,0,0,.891,5.571,189.617,189.617,0,0,1-33.493-1.277c.173-1.607.367-3.145.58-4.39a2.426,2.426,0,0,0,1.311-1.806c1.244-7.914,2.944-15.9,3.5-18.46a49.933,49.933,0,0,1-5.229,1.865c-.785,3.763-1.985,9.8-2.929,15.8a2.446,2.446,0,0,0,1.725,2.753,54.506,54.506,0,0,0,.194,14.612s.257-4.362.681-8.752a182.624,182.624,0,0,0,24.225,1.509c3.113,0,6.442-.075,9.921-.247a23.085,23.085,0,0,0,7.055,10.6v-1.821S1199.463,2481.117,1198.151,2469.542Z" transform="translate(-1160.663 -2448.664)" fill="#242838"/>
      </g>
      <g id="Grupo_1060" data-name="Grupo 1060" transform="translate(78.72 64.102)">
        <g id="Grupo_1057" data-name="Grupo 1057" transform="translate(14.327 39.73)">
          <path id="Trazado_2846" data-name="Trazado 2846" d="M1206.256,2473.027s.722,1.606-.62,5.036-3.714,5.787-9.077,6.859-8.562.213-8.769-1.179.929-4.287,5.158-8.253S1206.256,2473.027,1206.256,2473.027Z" transform="translate(-1187.767 -2472.748)" fill="#d5e31c"/>
        </g>
        <g id="Grupo_1058" data-name="Grupo 1058" transform="translate(0 39.447)">
          <path id="Trazado_2847" data-name="Trazado 2847" d="M1207.919,2472.787s4.229,11.68,4.229,13.395-11.244,33.007-13.306,37.185-5.158,6.216-6.4,7.931a24.617,24.617,0,0,1-1.754,2.251l-4.951-5.574s-3.817,4.5-4.848,4.716-2.476-2.25-1.547-2.571,4.126-5.681,4.126-5.681a3.878,3.878,0,0,1,2.269-2.251c1.754-.642,7.015-1.929,8.045-2.893s3.714-23.146,4.538-26.469,1.342-6.644,1.342-6.644l-2.682-7.394S1202.246,2474.179,1207.919,2472.787Z" transform="translate(-1178.714 -2472.438)" fill="#fff"/>
          <path id="Trazado_2848" data-name="Trazado 2848" d="M1190.818,2534.035h-.006a.324.324,0,0,1-.239-.112l-4.7-5.29c-1,1.159-3.8,4.333-4.787,4.538-.926.2-1.948-1.069-2.189-2.011-.184-.724.122-1.11.47-1.231.507-.175,2.393-2.929,3.929-5.5a4.217,4.217,0,0,1,2.462-2.426c.535-.2,1.369-.445,2.333-.732,2.083-.621,4.934-1.471,5.6-2.093.576-.7,1.955-10.164,2.868-16.426.671-4.607,1.252-8.585,1.571-9.872.737-2.964,1.231-5.968,1.319-6.522l-2.65-7.306a.355.355,0,0,1,.1-.388c.216-.189,5.386-4.678,11.072-6.074a.33.33,0,0,1,.39.215c.173.48,4.251,11.761,4.251,13.518,0,2.013-11.49,33.587-13.345,37.344a22.219,22.219,0,0,1-4.775,6.2,16.207,16.207,0,0,0-1.651,1.786,24.132,24.132,0,0,1-1.785,2.287A.327.327,0,0,1,1190.818,2534.035Zm-4.951-6.268a.336.336,0,0,1,.245.112l4.7,5.294c.258-.309.742-.91,1.488-1.944a16.36,16.36,0,0,1,1.725-1.871,21.678,21.678,0,0,0,4.64-6.011c2.109-4.27,13.271-35.416,13.271-37.027,0-1.317-2.866-9.552-4.1-12.985-4.844,1.285-9.377,4.909-10.327,5.7l2.6,7.159a.353.353,0,0,1,.018.179c0,.033-.528,3.376-1.348,6.675-.311,1.255-.888,5.215-1.557,9.8-1.629,11.172-2.46,16.256-3.082,16.838-.722.675-2.984,1.385-5.863,2.242-.955.285-1.78.53-2.3.72a3.532,3.532,0,0,0-2.062,2.032.564.564,0,0,1-.033.074c-.766,1.282-3.337,5.492-4.3,5.827-.117.04-.058.31-.037.391.192.75.983,1.6,1.412,1.509.635-.132,3.109-2.771,4.664-4.6a.326.326,0,0,1,.245-.119Z" transform="translate(-1178.84 -2472.578)" fill="#1a2e35"/>
        </g>
        <g id="Grupo_1059" data-name="Grupo 1059" transform="translate(9.871)">
          <path id="Trazado_2849" data-name="Trazado 2849" d="M1185.2,2449.128s6.724-.1,8.478,1.3,2.579,7.286,4.952,16.4,9.181,21.968,9.181,21.968-14.855,7.5-16.4,8.68a8.557,8.557,0,0,0-2.064,2.037l-4.126-29.148" transform="translate(-1184.864 -2448.78)" fill="#d5e31c"/>
          <path id="Trazado_2850" data-name="Trazado 2850" d="M1189.469,2499.989a.328.328,0,0,1-.331-.3l-4.126-29.149a.345.345,0,0,1,.283-.393.341.341,0,0,1,.38.293l4.016,28.37a11.888,11.888,0,0,1,1.645-1.489c1.446-1.1,13.927-7.435,16.139-8.553-1.065-2.051-6.9-13.478-9.043-21.725-.674-2.591-1.221-4.911-1.7-6.959-1.182-5.015-1.964-8.328-3.126-9.251-1.362-1.084-6.442-1.259-8.271-1.225h0a.347.347,0,0,1,0-.693c.281-.005,6.861-.085,8.686,1.365,1.348,1.073,2.109,4.3,3.369,9.637.483,2.046,1.029,4.362,1.7,6.944,2.335,8.965,9.084,21.764,9.151,21.893a.364.364,0,0,1,.026.272.341.341,0,0,1-.172.207c-.149.077-14.845,7.5-16.351,8.648a8.545,8.545,0,0,0-1.979,1.942A.328.328,0,0,1,1189.469,2499.989Z" transform="translate(-1184.99 -2448.918)" fill="#242838"/>
        </g>
      </g>
    </g>
  </g>
</svg>
