<svg xmlns="http://www.w3.org/2000/svg" width="311.805" height="250.389" viewBox="0 0 311.805 250.389">
  <g id="Grupo_1389" data-name="Grupo 1389" transform="translate(-1072.518 -2255.921)">
    <g id="Grupo_1215" data-name="Grupo 1215" transform="translate(1089.107 2255.921)" opacity="0.2">
      <g id="Grupo_1213" data-name="Grupo 1213">
        <path id="Trazado_2988" data-name="Trazado 2988" d="M1311.574,2267.341c-24.8-11.536-54.508-15.005-81.319-7.287-24.274,6.988-44.038,23.543-63.763,38.56-20.16,15.347-45.088,25.706-62.76,43.974-24.3,25.119-29.293,64.4-12.532,95,17.243,31.483,51.9,45.508,85.971,49.652,44.288,5.387,98.229.641,131.717-31.709,17.27-16.685,30.238-37.461,39.367-59.581,9.265-22.455,17.476-44.61,12.155-69.317C1354.609,2299.695,1336.223,2278.81,1311.574,2267.341Z" transform="translate(-1081.369 -2255.921)" fill="#d5e31c"/>
      </g>
      <g id="Grupo_1214" data-name="Grupo 1214" opacity="0.7">
        <path id="Trazado_2989" data-name="Trazado 2989" d="M1311.574,2267.341c-24.8-11.536-54.508-15.005-81.319-7.287-24.274,6.988-44.038,23.543-63.763,38.56-20.16,15.347-45.088,25.706-62.76,43.974-24.3,25.119-29.293,64.4-12.532,95,17.243,31.483,51.9,45.508,85.971,49.652,44.288,5.387,98.229.641,131.717-31.709,17.27-16.685,30.238-37.461,39.367-59.581,9.265-22.455,17.476-44.61,12.155-69.317C1354.609,2299.695,1336.223,2278.81,1311.574,2267.341Z" transform="translate(-1081.369 -2255.921)" fill="#d5e31c"/>
      </g>
    </g>
    <g id="Grupo_1218" data-name="Grupo 1218" transform="translate(1075.109 2453.219)">
      <g id="Grupo_1216" data-name="Grupo 1216">
        <ellipse id="Elipse_72" data-name="Elipse 72" cx="153.161" cy="26.546" rx="153.161" ry="26.546" fill="#d5e31c"/>
      </g>
      <g id="Grupo_1217" data-name="Grupo 1217" opacity="0.5">
        <ellipse id="Elipse_73" data-name="Elipse 73" cx="153.161" cy="26.546" rx="153.161" ry="26.546" fill="#fff"/>
      </g>
    </g>
    <g id="Grupo_1269" data-name="Grupo 1269" transform="translate(1072.518 2370.624)">
      <g id="Grupo_1219" data-name="Grupo 1219" transform="translate(0.754 17.88)">
        <path id="Trazado_2990" data-name="Trazado 2990" d="M1072.962,2385.987l-.041,1.233.357,4.168,73.451,20.681,65.035-78.317-.577-6.739-14.987-.354Z" transform="translate(-1072.921 -2326.659)" fill="#d5e31c"/>
      </g>
      <g id="Grupo_1220" data-name="Grupo 1220" transform="translate(0.13)">
        <path id="Trazado_2991" data-name="Trazado 2991" d="M1210.938,2334.84l-70.777-17.366-67.218,76.544,72.021,20.25Z" transform="translate(-1072.277 -2316.81)" fill="#fff"/>
        <path id="Trazado_2992" data-name="Trazado 2992" d="M1145.274,2415.243a.661.661,0,0,1-.18-.024l-72.021-20.252a.666.666,0,0,1-.32-1.08l67.217-76.543a.68.68,0,0,1,.66-.207l70.778,17.365a.671.671,0,0,1,.473.438.664.664,0,0,1-.12.634L1145.785,2415A.66.66,0,0,1,1145.274,2415.243Zm-70.823-21.271,70.589,19.848,65.017-78.279-69.352-17.015Z" transform="translate(-1072.587 -2317.12)" fill="#171c2d"/>
      </g>
      <g id="Grupo_1222" data-name="Grupo 1222" transform="translate(72.152 17.365)">
        <g id="Grupo_1221" data-name="Grupo 1221">
          <path id="Trazado_2993" data-name="Trazado 2993" d="M1113.425,2412.974a.628.628,0,0,1-.133-.013.666.666,0,0,1-.5-.461l-1.745-5.831a.664.664,0,1,1,1.272-.383l1.391,4.643,63.876-76.921-.59-6.9a.667.667,0,0,1,.605-.722.677.677,0,0,1,.72.607l.615,7.175a.662.662,0,0,1-.152.481l-64.843,78.084A.662.662,0,0,1,1113.425,2412.974Z" transform="translate(-1111.014 -2326.384)" fill="#171c2d"/>
        </g>
      </g>
      <g id="Grupo_1224" data-name="Grupo 1224" transform="translate(0 76.733)">
        <g id="Grupo_1223" data-name="Grupo 1223">
          <path id="Trazado_2994" data-name="Trazado 2994" d="M1147.081,2385.281a.668.668,0,0,1-.18-.024l-73.453-20.681a.665.665,0,0,1-.482-.583l-.446-5.209a.665.665,0,1,1,1.325-.114l.407,4.75,73.009,20.555a.665.665,0,0,1-.18,1.306Z" transform="translate(-1072.518 -2358.06)" fill="#171c2d"/>
        </g>
      </g>
      <g id="Grupo_1226" data-name="Grupo 1226" transform="translate(11.419 82.359)">
        <g id="Grupo_1225" data-name="Grupo 1225">
          <path id="Trazado_2995" data-name="Trazado 2995" d="M1140.864,2379.686a.648.648,0,0,1-.178-.024l-61.591-17.3a.665.665,0,1,1,.36-1.281l61.589,17.3a.665.665,0,0,1-.18,1.3Z" transform="translate(-1078.61 -2361.061)" fill="#171c2d"/>
        </g>
      </g>
      <g id="Grupo_1228" data-name="Grupo 1228" transform="translate(103.746 22.409)">
        <g id="Grupo_1227" data-name="Grupo 1227">
          <path id="Trazado_2996" data-name="Trazado 2996" d="M1128.536,2370.677a.665.665,0,0,1-.5-1.1l34.618-40.271a.665.665,0,1,1,1.008.868l-34.618,40.271A.665.665,0,0,1,1128.536,2370.677Z" transform="translate(-1127.87 -2329.076)" fill="#171c2d"/>
        </g>
      </g>
      <g id="Grupo_1230" data-name="Grupo 1230" transform="translate(72.915 66.437)">
        <g id="Grupo_1229" data-name="Grupo 1229">
          <path id="Trazado_2997" data-name="Trazado 2997" d="M1112.087,2386.034a.664.664,0,0,1-.51-1.093l26.909-32.139a.666.666,0,0,1,1.021.855L1112.6,2385.8A.662.662,0,0,1,1112.087,2386.034Z" transform="translate(-1111.421 -2352.566)" fill="#171c2d"/>
        </g>
      </g>
      <g id="Grupo_1232" data-name="Grupo 1232" transform="translate(62.123 9.727)">
        <g id="Grupo_1231" data-name="Grupo 1231">
          <path id="Trazado_2998" data-name="Trazado 2998" d="M1110.416,2332.53a4.7,4.7,0,0,1-4.234-2.261h0c-1.3-2.341-.069-5.523,2.752-7.092s6.172-.948,7.476,1.395.069,5.523-2.749,7.094A6.7,6.7,0,0,1,1110.416,2332.53Zm-3.072-2.907c.946,1.7,3.49,2.1,5.67.881s3.181-3.584,2.236-5.285-3.49-2.094-5.67-.881-3.182,3.583-2.236,5.285Z" transform="translate(-1105.663 -2322.31)" fill="#171c2d"/>
        </g>
      </g>
      <g id="Grupo_1234" data-name="Grupo 1234" transform="translate(73.491 18.879)">
        <g id="Grupo_1233" data-name="Grupo 1233">
          <path id="Trazado_2999" data-name="Trazado 2999" d="M1158.343,2341.2a.732.732,0,0,1-.178-.024l-45.948-12.68a.665.665,0,1,1,.352-1.282l45.95,12.678a.666.666,0,0,1-.176,1.308Z" transform="translate(-1111.728 -2327.192)" fill="#171c2d"/>
        </g>
      </g>
      <g id="Grupo_1236" data-name="Grupo 1236" transform="translate(75 17.084)">
        <g id="Grupo_1235" data-name="Grupo 1235">
          <path id="Trazado_3000" data-name="Trazado 3000" d="M1159.148,2340.242a.7.7,0,0,1-.176-.023l-45.95-12.679a.666.666,0,1,1,.354-1.283l45.948,12.679a.665.665,0,0,1-.176,1.307Z" transform="translate(-1112.533 -2326.235)" fill="#171c2d"/>
        </g>
      </g>
      <g id="Grupo_1238" data-name="Grupo 1238" transform="translate(48.919 24.498)">
        <g id="Grupo_1237" data-name="Grupo 1237">
          <path id="Trazado_3001" data-name="Trazado 3001" d="M1103.379,2340.411a4.707,4.707,0,0,1-4.236-2.262h0a4.463,4.463,0,0,1-.15-3.9,6.5,6.5,0,0,1,2.9-3.19c2.817-1.571,6.172-.947,7.477,1.4a4.462,4.462,0,0,1,.152,3.9,6.5,6.5,0,0,1-2.9,3.19A6.7,6.7,0,0,1,1103.379,2340.411Zm-3.074-2.909c.951,1.7,3.492,2.1,5.67.881a5.151,5.151,0,0,0,2.313-2.527,3.155,3.155,0,0,0-.077-2.757c-.946-1.7-3.49-2.1-5.67-.881a5.173,5.173,0,0,0-2.315,2.527,3.163,3.163,0,0,0,.079,2.757Z" transform="translate(-1098.618 -2330.19)" fill="#171c2d"/>
        </g>
      </g>
      <g id="Grupo_1240" data-name="Grupo 1240" transform="translate(64.251 32.57)">
        <g id="Grupo_1239" data-name="Grupo 1239">
          <path id="Trazado_3002" data-name="Trazado 3002" d="M1152.78,2348.332a.7.7,0,0,1-.176-.024l-45.317-12.5a.666.666,0,0,1,.354-1.284l45.314,12.5a.666.666,0,0,1-.176,1.308Z" transform="translate(-1106.798 -2334.497)" fill="#171c2d"/>
        </g>
      </g>
      <g id="Grupo_1242" data-name="Grupo 1242" transform="translate(65.76 30.776)">
        <g id="Grupo_1241" data-name="Grupo 1241">
          <path id="Trazado_3003" data-name="Trazado 3003" d="M1153.639,2347.388a.7.7,0,0,1-.176-.022l-45.369-12.518a.666.666,0,1,1,.352-1.284l45.369,12.518a.665.665,0,0,1-.176,1.306Z" transform="translate(-1107.603 -2333.54)" fill="#171c2d"/>
        </g>
      </g>
      <g id="Grupo_1244" data-name="Grupo 1244" transform="translate(53.101 42.71)">
        <g id="Grupo_1243" data-name="Grupo 1243">
          <path id="Trazado_3004" data-name="Trazado 3004" d="M1148.238,2354.132a.707.707,0,0,1-.176-.025l-46.724-12.893a.666.666,0,1,1,.354-1.284l46.722,12.893a.666.666,0,0,1-.176,1.308Z" transform="translate(-1100.849 -2339.907)" fill="#171c2d"/>
        </g>
      </g>
      <g id="Grupo_1246" data-name="Grupo 1246" transform="translate(54.61 40.917)">
        <g id="Grupo_1245" data-name="Grupo 1245">
          <path id="Trazado_3005" data-name="Trazado 3005" d="M1149.075,2353.179a.728.728,0,0,1-.178-.022l-46.754-12.9a.666.666,0,0,1,.354-1.284l46.754,12.9a.665.665,0,0,1-.176,1.306Z" transform="translate(-1101.654 -2338.95)" fill="#171c2d"/>
        </g>
      </g>
      <g id="Grupo_1248" data-name="Grupo 1248" transform="translate(34.597 40.803)">
        <g id="Grupo_1247" data-name="Grupo 1247">
          <path id="Trazado_3006" data-name="Trazado 3006" d="M1095.73,2349.109a4.7,4.7,0,0,1-4.234-2.26c-1.3-2.341-.069-5.523,2.749-7.094s6.172-.943,7.479,1.4a4.458,4.458,0,0,1,.15,3.9,6.477,6.477,0,0,1-2.9,3.19A6.675,6.675,0,0,1,1095.73,2349.109Zm1.773-8.9a5.412,5.412,0,0,0-2.609.7c-2.18,1.214-3.183,3.585-2.238,5.285s3.492,2.1,5.67.881a5.183,5.183,0,0,0,2.315-2.526,3.157,3.157,0,0,0-.079-2.758A3.376,3.376,0,0,0,1097.5,2340.214Z" transform="translate(-1090.977 -2338.89)" fill="#171c2d"/>
        </g>
      </g>
      <g id="Grupo_1250" data-name="Grupo 1250" transform="translate(42.53 54.851)">
        <g id="Grupo_1249" data-name="Grupo 1249">
          <path id="Trazado_3007" data-name="Trazado 3007" d="M1142.611,2360.612a.727.727,0,0,1-.176-.022l-46.737-12.9a.666.666,0,0,1,.354-1.284l46.735,12.9a.665.665,0,0,1-.176,1.306Z" transform="translate(-1095.209 -2346.385)" fill="#171c2d"/>
        </g>
      </g>
      <g id="Grupo_1252" data-name="Grupo 1252" transform="translate(44.039 53.056)">
        <g id="Grupo_1251" data-name="Grupo 1251">
          <path id="Trazado_3008" data-name="Trazado 3008" d="M1143.383,2359.646a.721.721,0,0,1-.178-.024l-46.7-12.888a.666.666,0,1,1,.352-1.284l46.7,12.888a.666.666,0,0,1-.176,1.308Z" transform="translate(-1096.014 -2345.427)" fill="#171c2d"/>
        </g>
      </g>
      <g id="Grupo_1254" data-name="Grupo 1254" transform="translate(19.323 58.234)">
        <g id="Grupo_1253" data-name="Grupo 1253">
          <path id="Trazado_3009" data-name="Trazado 3009" d="M1087.582,2358.41a4.7,4.7,0,0,1-4.234-2.26c-1.3-2.341-.071-5.523,2.748-7.093s6.177-.945,7.48,1.4a4.458,4.458,0,0,1,.15,3.9,6.476,6.476,0,0,1-2.9,3.19A6.677,6.677,0,0,1,1087.582,2358.41Zm1.771-8.894a5.413,5.413,0,0,0-2.609.7c-2.178,1.212-3.181,3.584-2.236,5.284s3.49,2.1,5.67.881a5.182,5.182,0,0,0,2.315-2.527,3.163,3.163,0,0,0-.079-2.757A3.38,3.38,0,0,0,1089.353,2349.516Z" transform="translate(-1082.828 -2348.189)" fill="#171c2d"/>
        </g>
      </g>
      <g id="Grupo_1256" data-name="Grupo 1256" transform="translate(30.447 70.136)">
        <g id="Grupo_1255" data-name="Grupo 1255">
          <path id="Trazado_3010" data-name="Trazado 3010" d="M1135.377,2368.549a.708.708,0,0,1-.178-.022l-45.948-12.68a.666.666,0,0,1,.352-1.284l45.95,12.679a.665.665,0,0,1-.176,1.306Z" transform="translate(-1088.762 -2354.54)" fill="#171c2d"/>
        </g>
      </g>
      <g id="Grupo_1258" data-name="Grupo 1258" transform="translate(31.953 68.344)">
        <g id="Grupo_1257" data-name="Grupo 1257">
          <path id="Trazado_3011" data-name="Trazado 3011" d="M1136.181,2367.591a.705.705,0,0,1-.176-.022l-45.948-12.679a.667.667,0,0,1-.467-.819.673.673,0,0,1,.819-.465l45.95,12.68a.665.665,0,0,1-.178,1.306Z" transform="translate(-1089.566 -2353.583)" fill="#171c2d"/>
        </g>
      </g>
      <g id="Grupo_1259" data-name="Grupo 1259" transform="translate(64.072 7.994)">
        <path id="Trazado_3012" data-name="Trazado 3012" d="M1109.288,2332.379a1.982,1.982,0,0,1-1.04-.295c-.594-.363-1.987-1.216-1.408-6.862a2,2,0,0,1,3.972.407c-.021.212-.039.429-.054.647,2.144-1.97,4.639-4.227,4.8-4.375a2,2,0,1,1,2.678,2.96c-.064.056-6.316,5.716-7.538,6.935A1.993,1.993,0,0,1,1109.288,2332.379Zm1.556-3.151h0Z" transform="translate(-1106.702 -2321.385)" fill="#d5e31c"/>
      </g>
      <g id="Grupo_1260" data-name="Grupo 1260" transform="translate(36.871 41.137)">
        <path id="Trazado_3013" data-name="Trazado 3013" d="M1094.567,2349.271a2,2,0,0,1-1.205-.407c-.557-.419-1.857-1.407-.718-6.968a2,2,0,0,1,3.912.8c-.043.208-.082.424-.118.639,2.329-1.749,5.034-3.747,5.213-3.878a2,2,0,0,1,2.371,3.213c-.067.051-6.854,5.06-8.192,6.151A2,2,0,0,1,1094.567,2349.271Zm1.661-2.991h0Z" transform="translate(-1092.19 -2339.068)" fill="#d5e31c"/>
      </g>
      <g id="Grupo_1262" data-name="Grupo 1262" transform="translate(51.326 21.865)">
        <g id="Grupo_1261" data-name="Grupo 1261">
          <path id="Trazado_3014" data-name="Trazado 3014" d="M1104.618,2344.057a2,2,0,0,1-1.94-1.53l-2.72-11.279a2,2,0,0,1,3.88-.935l2.722,11.279a2,2,0,0,1-1.942,2.465Z" transform="translate(-1099.902 -2328.786)" fill="#171c2d"/>
        </g>
      </g>
      <g id="Grupo_1264" data-name="Grupo 1264" transform="translate(22.45 56.032)">
        <g id="Grupo_1263" data-name="Grupo 1263">
          <path id="Trazado_3015" data-name="Trazado 3015" d="M1089.21,2362.285a1.994,1.994,0,0,1-1.938-1.53l-2.72-11.28a2,2,0,0,1,3.88-.935l2.72,11.279a2,2,0,0,1-1.473,2.409A2.03,2.03,0,0,1,1089.21,2362.285Z" transform="translate(-1084.496 -2347.015)" fill="#171c2d"/>
        </g>
      </g>
      <g id="Grupo_1266" data-name="Grupo 1266" transform="translate(46.902 23.886)">
        <g id="Grupo_1265" data-name="Grupo 1265">
          <path id="Trazado_3016" data-name="Trazado 3016" d="M1099.538,2341.208a2,2,0,0,1-1.139-3.634l10.584-7.353a2,2,0,0,1,2.275,3.278l-10.582,7.353A1.986,1.986,0,0,1,1099.538,2341.208Z" transform="translate(-1097.542 -2329.864)" fill="#171c2d"/>
        </g>
      </g>
      <g id="Grupo_1268" data-name="Grupo 1268" transform="translate(17.158 57.674)">
        <g id="Grupo_1267" data-name="Grupo 1267">
          <path id="Trazado_3017" data-name="Trazado 3017" d="M1083.67,2359.233a2,2,0,0,1-1.14-3.636l10.584-7.35a2,2,0,0,1,2.277,3.28l-10.586,7.351A1.988,1.988,0,0,1,1083.67,2359.233Z" transform="translate(-1081.672 -2347.89)" fill="#171c2d"/>
        </g>
      </g>
    </g>
    <g id="Grupo_1277" data-name="Grupo 1277" transform="translate(1108.21 2337.979)">
      <g id="Grupo_1271" data-name="Grupo 1271" transform="translate(0.796)">
        <g id="Grupo_1270" data-name="Grupo 1270">
          <path id="Trazado_3018" data-name="Trazado 3018" d="M1114.59,2328.222,1164.1,2388.8a13.3,13.3,0,0,0,17.406,18.28l-10.316-12.653,4.982-4.03,10.335,12.667a13.3,13.3,0,0,0-14.423-20.729l-49.522-60.661c-.051-.063,1.293-3.374,1.391-3.8.975-4.282.6-9.2-2-12.861-4.221-5.94-11.51-6.344-17.862-3.923a19.186,19.186,0,0,0-4.412,2.3l12.732,14.068-2.2,2.285-12.063-14.983c-5.134,1.658-7.977,7.692-4.869,16.287.722,1.992,7.969,3.81,9.529,4.98a13.289,13.289,0,0,0,11.77,2.108Z" transform="translate(-1091.986 -2299.702)" fill="#171c2d"/>
        </g>
      </g>
      <g id="Grupo_1272" data-name="Grupo 1272" transform="translate(0 1.604)">
        <path id="Trazado_3019" data-name="Trazado 3019" d="M1109.1,2327.088l49.507,60.581a13.305,13.305,0,0,0,17.409,18.28l-10.318-12.654,4.982-4.03,10.337,12.667a13.3,13.3,0,0,0-14.425-20.729l-49.52-60.661a13.3,13.3,0,0,0-17.409-18.28l10.056,12.32-5,4.033-10.054-12.32a13.289,13.289,0,0,0,14.421,20.713Z" transform="translate(-1091.174 -2300.172)" fill="#d5e31c"/>
        <path id="Trazado_3020" data-name="Trazado 3020" d="M1170.751,2408.425A14.131,14.131,0,0,1,1158,2388.163l-48.874-59.807a14.124,14.124,0,0,1-14.745-22.177.847.847,0,0,1,.652-.333.774.774,0,0,1,.664.308l9.529,11.675,3.7-2.982-9.521-11.669a.835.835,0,0,1,.292-1.284,14.2,14.2,0,0,1,12.638.309,14.136,14.136,0,0,1,6.116,18.617l48.833,59.82a14.142,14.142,0,0,1,14.79,22.18.835.835,0,0,1-.65.336.775.775,0,0,1-.665-.307l-9.81-12.022-3.683,2.979,9.787,12a.835.835,0,0,1-.292,1.284A14.135,14.135,0,0,1,1170.751,2408.425Zm-60.5-81.337,49.389,60.437a.834.834,0,0,1,.092.92,12.469,12.469,0,0,0,15.315,17.549l-9.611-11.784a.842.842,0,0,1,.122-1.179l4.982-4.03a.838.838,0,0,1,1.173.12l9.632,11.8a12.473,12.473,0,0,0-3.126-16.559,12.517,12.517,0,0,0-11-1.974.836.836,0,0,1-.883-.274l-49.52-60.661a.837.837,0,0,1-.092-.922,12.467,12.467,0,0,0-5.17-16.858,12.554,12.554,0,0,0-10.144-.689l9.345,11.452a.835.835,0,0,1,.185.616.848.848,0,0,1-.307.564l-5,4.032a.832.832,0,0,1-1.171-.122l-9.349-11.455a12.451,12.451,0,0,0,14.123,18.518.839.839,0,0,1,1.018.5Z" transform="translate(-1091.561 -2300.559)" fill="#171c2d"/>
      </g>
      <g id="Grupo_1274" data-name="Grupo 1274" transform="translate(19.877 23.685)">
        <g id="Grupo_1273" data-name="Grupo 1273">
          <path id="Trazado_3021" data-name="Trazado 3021" d="M1105.167,2313.84a1.5,1.5,0,1,1-1.5-1.5A1.5,1.5,0,0,1,1105.167,2313.84Z" transform="translate(-1102.166 -2312.339)" fill="#171c2d"/>
        </g>
      </g>
      <g id="Grupo_1275" data-name="Grupo 1275" transform="translate(49.301 63.641)">
        <line id="Línea_5" data-name="Línea 5" x2="17.086" y2="21.283" transform="translate(0.836 0.836)" fill="#d5e31c"/>
        <path id="Trazado_3022" data-name="Trazado 3022" d="M1135.789,2356.613a.839.839,0,0,1-.654-.313l-17.086-21.282a.837.837,0,0,1,1.3-1.048l17.088,21.283a.837.837,0,0,1-.652,1.361Z" transform="translate(-1117.865 -2333.658)" fill="#171c2d"/>
      </g>
      <g id="Grupo_1276" data-name="Grupo 1276" transform="translate(41.638 54.097)">
        <line id="Línea_6" data-name="Línea 6" x2="4.518" y2="5.627" transform="translate(0.836 0.836)" fill="#d5e31c"/>
        <path id="Trazado_3023" data-name="Trazado 3023" d="M1119.131,2335.864a.839.839,0,0,1-.652-.311l-4.519-5.628a.837.837,0,0,1,1.3-1.048l4.519,5.628a.836.836,0,0,1-.652,1.359Z" transform="translate(-1113.776 -2328.565)" fill="#171c2d"/>
      </g>
    </g>
    <g id="Grupo_1282" data-name="Grupo 1282" transform="translate(1235.177 2266.515)">
      <g id="Grupo_1281" data-name="Grupo 1281">
        <g id="Grupo_1278" data-name="Grupo 1278" transform="translate(38.285 16.135)">
          <path id="Trazado_3024" data-name="Trazado 3024" d="M1218.221,2307.589a.216.216,0,0,0,.251-.073l2.746-3.664a.211.211,0,0,0,0-.26l-2.53-3.13a18.641,18.641,0,0,0,1.366-4.005l3.975-.926a.214.214,0,0,0,.167-.2l.137-4.577a.216.216,0,0,0-.159-.208l-3.936-1.126a18.289,18.289,0,0,0-2.643-6.837l2.227-3.5a.209.209,0,0,0-.021-.257l-3.147-3.331a.22.22,0,0,0-.262-.043l-3.647,2.037a18.561,18.561,0,0,0-3.585-1.994l-.188-4.187a.205.205,0,0,0-.176-.191l-4.485-.924a.208.208,0,0,0-.236.11l-1.833,3.79a18.225,18.225,0,0,0-4.067.408l-2.557-3.335a.222.222,0,0,0-.253-.072l-4.2,1.818a.219.219,0,0,0-.128.225l.669,4.131a18.658,18.658,0,0,0-2.307,1.848c-.264.25-.527.515-.827.834l-3.977-1.253a.209.209,0,0,0-.242.09l-2.414,3.9a.2.2,0,0,0,.026.259l2.862,2.959a18.666,18.666,0,0,0-1.033,4.032l-3.908,1.245a.218.218,0,0,0-.152.213l.277,4.583a.206.206,0,0,0,.174.188l3.968.789a18.547,18.547,0,0,0,1.492,3.97l-2.444,3.237a.219.219,0,0,0,.006.265l2.849,3.583a.208.208,0,0,0,.218.025l3.647-1.612a18.117,18.117,0,0,0,3.526,2.421l-.148,3.972a.216.216,0,0,0,.152.208l4.393,1.316a.209.209,0,0,0,.242-.1l2.052-3.382a18.669,18.669,0,0,0,4.292-.057l2.165,3.337a.209.209,0,0,0,.243.084l4.35-1.441a.214.214,0,0,0,.141-.217l-.259-3.957a18.241,18.241,0,0,0,3.454-2.523Zm-23.89-23.215a11.232,11.232,0,1,1-.459,15.878A11.234,11.234,0,0,1,1194.332,2284.374Z" transform="translate(-1179.729 -2270.182)" fill="#171c2d"/>
        </g>
        <g id="Grupo_1279" data-name="Grupo 1279" transform="translate(0 29.107)">
          <path id="Trazado_3025" data-name="Trazado 3025" d="M1175.646,2315.471a.805.805,0,0,1-.255-.041l-4.562-1.363a.88.88,0,0,1-.607-1.008l.466-2.641a16.506,16.506,0,0,1-2.189-1.5l-2.3,1.426a.865.865,0,0,1-1.063-.091l-.107-.109-2.969-3.72a.866.866,0,0,1,.068-1.168l1.942-1.936a16.239,16.239,0,0,1-.917-2.453l-2.748-.152a.877.877,0,0,1-.823-.858l-.275-4.731a.879.879,0,0,1,.729-.917l2.761-.484a16.376,16.376,0,0,1,.641-2.481l-2.213-1.745a.868.868,0,0,1-.191-1.166l2.5-4.043a.874.874,0,0,1,1.143-.318l2.568,1.2c.118-.12.232-.23.347-.341a17.441,17.441,0,0,1,1.571-1.3l-.834-2.75a.878.878,0,0,1,.495-1.063l4.375-1.889a.9.9,0,0,1,1.1.358l1.449,2.521a15.923,15.923,0,0,1,2.487-.247l.906-2.75a.871.871,0,0,1,1.02-.581l4.669.961a.881.881,0,0,1,.693.971l-.253,2.842a16.148,16.148,0,0,1,2.189,1.218l2.3-1.713a.869.869,0,0,1,1.171.115l3.265,3.456a.879.879,0,0,1,.03,1.163l-1.827,2.187a15.756,15.756,0,0,1,1.921,4.967l2.778.4a.864.864,0,0,1,.763.862l-.141,4.785a.889.889,0,0,1-.847.842l-2.719.232a16.367,16.367,0,0,1-.845,2.472l2,1.88a.873.873,0,0,1,.1,1.164l-2.842,3.824a.883.883,0,0,1-1.14.24l-2.352-1.364a16.723,16.723,0,0,1-2.15,1.567l.549,2.635a.871.871,0,0,1-.591,1.012l-4.5,1.485a.869.869,0,0,1-1.065-.446l-1.141-2.454a15.317,15.317,0,0,1-2.658.043l-1.062,2.472A.877.877,0,0,1,1175.646,2315.471Zm-.416-1.055,0,0Zm.538-.26.013,0Zm6.2-.094-.018.007Zm-10.365-1.153,3.792,1.132,1.28-2.982.486.047a14.473,14.473,0,0,0,3.329-.055l.484-.062,1.372,2.948,3.745-1.236-.662-3.177.42-.239a15.27,15.27,0,0,0,2.7-1.966l.36-.33,2.834,1.644,2.363-3.179-2.4-2.259.206-.436a14.981,14.981,0,0,0,1.064-3.113l.1-.478,3.329-.285.116-3.933-3.338-.484-.082-.476a14.394,14.394,0,0,0-2.079-5.37l-.262-.41,2.191-2.622-2.717-2.879-2.75,2.045-.393-.279a14.707,14.707,0,0,0-2.783-1.55l-.448-.187.305-3.434-3.885-.8-1.082,3.278-.485,0a15.766,15.766,0,0,0-3.164.317l-.474.1-1.719-2.993-3.634,1.571,1,3.291-.4.275a15.223,15.223,0,0,0-1.811,1.453c-.193.184-.394.383-.62.626l-.33.36-3.1-1.451-2.084,3.372,2.654,2.092-.173.455a14.879,14.879,0,0,0-.812,3.141l-.068.476-3.312.579.23,3.959,3.31.184.118.474a14.785,14.785,0,0,0,1.153,3.089l.219.431-2.335,2.326,2.472,3.1,2.8-1.734.371.321a15.3,15.3,0,0,0,2.748,1.887l.426.227Zm-.068.379,0,.021Zm14.636-.187v0Zm.3-.525-.01,0Zm-20.424-3.291.032.034A.178.178,0,0,0,1166.047,2309.284Zm-.547-.077-.021.013Zm-2.437-3.015,0,.005Zm.03-.605,0,.007Zm-2.185-5.816v0Zm35.881-.919-.034,0Zm-36.526-3.336h0Zm36.629-.508.041.005Zm-34.73-5.983-.01.016Zm-.12-.577.005,0Zm31.16-3.164Zm-29.117-.124.032.015Zm25.867-2.738.013.013Zm-20.6-1.488,0,0Zm14.846-2.022,0,.03Zm-4.317-.485.013,0Zm-1.273,28.028c-.1,0-.2,0-.3,0a9.917,9.917,0,0,1-6.969-3.134h0a9.976,9.976,0,0,1,14.52-13.684l.444.469-.024.026a9.971,9.971,0,0,1-7.673,16.327Zm-.007-18.617a8.641,8.641,0,0,0-6.29,14.569h0a8.64,8.64,0,0,0,12.741-11.669l-.365-.4A8.618,8.618,0,0,0,1178.6,2287.837Z" transform="translate(-1159.302 -2277.104)" fill="#171c2d"/>
        </g>
        <g id="Grupo_1280" data-name="Grupo 1280" transform="translate(26.926)">
          <path id="Trazado_3026" data-name="Trazado 3026" d="M1183.549,2284.683a.707.707,0,0,1-.187-.025l-2.718-.815a.784.784,0,0,1-.551-.887l.244-1.381a9.314,9.314,0,0,1-1-.688l-1.192.739a.763.763,0,0,1-1-.135l-1.788-2.232a.8.8,0,0,1,.054-1.046l1.012-1.01a9.987,9.987,0,0,1-.416-1.123l-1.421-.079a.8.8,0,0,1-.744-.783l-.165-2.761a.791.791,0,0,1,.632-.819l1.462-.255a9.022,9.022,0,0,1,.292-1.126l-1.153-.905a.791.791,0,0,1-.163-1.059l1.458-2.365a.78.78,0,0,1,1.01-.3l1.346.632.077-.072a9.027,9.027,0,0,1,.791-.671l-.433-1.435a.8.8,0,0,1,.438-.95l2.579-1.11a.777.777,0,0,1,1,.343l.746,1.295a9.946,9.946,0,0,1,1.119-.114l.474-1.43a.779.779,0,0,1,.95-.514l2.706.557a.778.778,0,0,1,.626.864l-.131,1.477a9.742,9.742,0,0,1,.986.551l1.2-.894a.793.793,0,0,1,1.053.1l1.917,2.032a.794.794,0,0,1,.028,1.049l-.95,1.136a9.594,9.594,0,0,1,1.027,2.647l1.445.212a.774.774,0,0,1,.679.732l-.079,2.864a.81.81,0,0,1-.744.76l-1.415.121a9.225,9.225,0,0,1-.386,1.13l1.039.978a.773.773,0,0,1,.1,1.031l-1.687,2.261a.77.77,0,0,1-1.048.2l-1.192-.689a9.693,9.693,0,0,1-.984.716l.283,1.366a.79.79,0,0,1-.48.9l-2.7.887a.785.785,0,0,1-.947-.379l-.6-1.295a9.916,9.916,0,0,1-1.224.019l-.549,1.276A.8.8,0,0,1,1183.549,2284.683Zm3.64-1.366-.011,0Zm-5.7-.607,1.759.527.736-1.715.484.047a8.211,8.211,0,0,0,1.9-.03l.484-.062.785,1.694,1.737-.57-.38-1.831.422-.24a8.354,8.354,0,0,0,1.533-1.115l.36-.328,1.629.943,1.1-1.475-1.381-1.3.206-.437a8.344,8.344,0,0,0,.6-1.771l.1-.478,1.921-.165.051-1.823-1.912-.277-.084-.473a8.293,8.293,0,0,0-1.188-3.058l-.264-.41,1.263-1.51-1.263-1.339-1.582,1.177-.393-.279a8.012,8.012,0,0,0-1.584-.879l-.452-.188.18-1.977-1.807-.373-.622,1.878h-.482a7.385,7.385,0,0,0-1.8.181l-.474.1-.988-1.719-1.689.728.576,1.9-.407.275a7.722,7.722,0,0,0-1.025.821c-.112.1-.229.219-.356.358l-.33.358-1.782-.834-.969,1.568,1.533,1.2-.18.459a7.968,7.968,0,0,0-.461,1.783l-.069.48-1.9.33.109,1.839,1.9.1.118.476a8.5,8.5,0,0,0,.656,1.76l.218.431-1.338,1.336,1.153,1.439,1.614-1,.371.324a8.15,8.15,0,0,0,1.558,1.07l.429.227Zm7.985.358,0,.011Zm-8.462-.5.024.006Zm-3.535-2.092a.514.514,0,0,0-.092.058Zm15.191-.08c-.013.015-.025.032-.037.049Zm.658-.145.03.019Zm1.04-1.391a.292.292,0,0,0,.064.06Zm-19.2-3.731,0,.051Zm20.8-.767-.024,0Zm.017-1.719a.455.455,0,0,0,.088.011Zm-20.984-.265v0Zm.881-3.4-.025.037Zm.761-2.146.005,0Zm.7-.219-.013.02Zm16.331-.129h0Zm-1.179-1.265-.013.011Zm-.722-.056.01.011Zm-11.51-1.474,0,.015Zm8.46-.23.043.009Zm-6.871-.442.011.02Zm6.461-.13,0,.027Zm-2.322.008c.019.006.037.009.056.013Zm.626-.365,0,.01Zm-1.318,16.85-.186,0a6.141,6.141,0,1,1,4.648-10.35l.54.573-.045.03a6.161,6.161,0,0,1-.748,8.073l-.092.073A5.965,5.965,0,0,1,1185.3,2279.378Zm-.007-10.946a4.808,4.808,0,0,0-.139,9.614,4.683,4.683,0,0,0,3.439-1.308l.459.481-.457-.483a4.821,4.821,0,0,0,.195-6.794l-.139-.148A4.8,4.8,0,0,0,1185.289,2268.432Z" transform="translate(-1173.668 -2261.574)" fill="#171c2d"/>
        </g>
      </g>
    </g>
    <g id="Grupo_1354" data-name="Grupo 1354" transform="translate(1245.454 2332.258)">
      <g id="Grupo_1349" data-name="Grupo 1349">
        <g id="Grupo_1283" data-name="Grupo 1283" transform="translate(0.664 15.793)">
          <path id="Trazado_3027" data-name="Trazado 3027" d="M1283.128,2429.4l9.166-15.864-99.864,2.729-19.957-111.188-7.332,17.26,16.089,108.39Z" transform="translate(-1165.14 -2305.076)" fill="#d5e31c"/>
        </g>
        <g id="Grupo_1284" data-name="Grupo 1284" transform="translate(7.329 10.116)">
          <path id="Trazado_3028" data-name="Trazado 3028" d="M1288.874,2415.873l-99.864,2.729-19.957-113.237,93.148-2.964,1.976,21.887Z" transform="translate(-1168.386 -2301.737)" fill="#fff"/>
          <path id="Trazado_3029" data-name="Trazado 3029" d="M1189.32,2419.578a.662.662,0,0,1-.654-.549l-19.959-113.237a.666.666,0,0,1,.635-.781l93.146-2.963a.711.711,0,0,1,.684.605l1.975,21.888,24.679,91.469a.666.666,0,0,1-.624.839l-99.864,2.729Zm-19.17-113.261,19.727,111.916,98.445-2.691-24.478-90.768-1.94-21.376Z" transform="translate(-1168.697 -2302.048)" fill="#171c2d"/>
        </g>
        <g id="Grupo_1286" data-name="Grupo 1286" transform="translate(0 13.081)">
          <g id="Grupo_1285" data-name="Grupo 1285">
            <path id="Trazado_3030" data-name="Trazado 3030" d="M1181.538,2432.655a.667.667,0,0,1-.658-.568L1164.794,2323.7a.673.673,0,0,1,.034-.334l7.332-19.309a.666.666,0,0,1,1.245.472l-7.27,19.146,15.978,107.642L1283.05,2430l8.978-15.538a.665.665,0,0,1,1.151.666L1284.013,2431a.659.659,0,0,1-.566.332l-101.9,1.325Z" transform="translate(-1164.786 -2303.629)" fill="#171c2d"/>
          </g>
        </g>
        <g id="Grupo_1287" data-name="Grupo 1287" transform="translate(7.33 10.116)">
          <path id="Trazado_3031" data-name="Trazado 3031" d="M1169.052,2305.365s7.923,59.364,39.233,101.869l90.974-3.529s-35.083-60.434-37.058-101.3Z" transform="translate(-1168.386 -2301.737)" fill="#fff"/>
          <path id="Trazado_3032" data-name="Trazado 3032" d="M1208.6,2408.21a.67.67,0,0,1-.536-.27c-31.051-42.156-39.277-101.581-39.356-102.177a.655.655,0,0,1,.152-.517.67.67,0,0,1,.487-.236l93.146-2.963a.654.654,0,0,1,.686.631c1.946,40.237,36.62,100.4,36.97,101a.664.664,0,0,1-.549,1l-90.974,3.53Zm-38.468-101.892c1.04,6.909,9.975,61.22,38.794,100.548l89.529-3.473c-4.438-7.861-34.431-62.26-36.571-99.994Z" transform="translate(-1168.697 -2302.048)" fill="#171c2d"/>
        </g>
        <g id="Grupo_1289" data-name="Grupo 1289" transform="translate(91.362 18.447)">
          <g id="Grupo_1288" data-name="Grupo 1288">
            <path id="Trazado_3033" data-name="Trazado 3033" d="M1213.531,2309.294a2.8,2.8,0,1,0,2.806-2.8A2.805,2.805,0,0,0,1213.531,2309.294Z" transform="translate(-1213.531 -2306.492)" fill="#171c2d"/>
          </g>
        </g>
        <g id="Grupo_1291" data-name="Grupo 1291" transform="translate(79.299 18.958)">
          <g id="Grupo_1290" data-name="Grupo 1290">
            <path id="Trazado_3034" data-name="Trazado 3034" d="M1207.1,2309.567a2.8,2.8,0,1,0,2.8-2.8A2.8,2.8,0,0,0,1207.1,2309.567Z" transform="translate(-1207.095 -2306.765)" fill="#171c2d"/>
          </g>
        </g>
        <g id="Grupo_1293" data-name="Grupo 1293" transform="translate(53.932 19.944)">
          <g id="Grupo_1292" data-name="Grupo 1292">
            <circle id="Elipse_74" data-name="Elipse 74" cx="2.803" cy="2.803" r="2.803" fill="#171c2d"/>
          </g>
        </g>
        <g id="Grupo_1295" data-name="Grupo 1295" transform="translate(41.538 20.306)">
          <g id="Grupo_1294" data-name="Grupo 1294">
            <path id="Trazado_3035" data-name="Trazado 3035" d="M1186.948,2310.284a2.8,2.8,0,1,0,2.806-2.8A2.8,2.8,0,0,0,1186.948,2310.284Z" transform="translate(-1186.948 -2307.484)" fill="#171c2d"/>
          </g>
        </g>
        <g id="Grupo_1298" data-name="Grupo 1298" transform="translate(2.254 3.005)">
          <g id="Grupo_1297" data-name="Grupo 1297">
            <g id="Grupo_1296" data-name="Grupo 1296">
              <path id="Trazado_3036" data-name="Trazado 3036" d="M1187.164,2319.814a1.651,1.651,0,0,1-3.3,0,42.062,42.062,0,0,0-.632-6.448c-.615-3.482-1.824-7.54-4.214-9.909a6.215,6.215,0,0,0-4.564-1.9h-.062a4.286,4.286,0,0,0-3.57,1.6c-2.1,2.669-1.885,8.176-1.37,11.849l-2.2,5.79c-.21-.978-3.265-14.284.975-19.678a7.578,7.578,0,0,1,6.142-2.864,9.565,9.565,0,0,1,6.978,2.864C1187.1,2306.824,1187.164,2319.285,1187.164,2319.814Z" transform="translate(-1165.989 -2298.253)" fill="#171c2d"/>
            </g>
          </g>
        </g>
        <g id="Grupo_1301" data-name="Grupo 1301" transform="translate(13.379 2.14)">
          <g id="Grupo_1300" data-name="Grupo 1300">
            <g id="Grupo_1299" data-name="Grupo 1299">
              <path id="Trazado_3037" data-name="Trazado 3037" d="M1193.27,2319.354a1.651,1.651,0,0,1-3.3,0,42.324,42.324,0,0,0-.632-6.447c-.611-3.482-1.82-7.544-4.21-9.909a6.158,6.158,0,0,0-4.626-1.9,4.28,4.28,0,0,0-3.571,1.6c-1.192,1.52-1.638,3.945-1.709,6.427l-3.3.1c.07-3.083.652-6.339,2.407-8.568a7.58,7.58,0,0,1,6.14-2.866,9.486,9.486,0,0,1,6.984,2.866C1193.2,2306.362,1193.27,2318.826,1193.27,2319.354Z" transform="translate(-1171.924 -2297.792)" fill="#171c2d"/>
            </g>
          </g>
        </g>
        <g id="Grupo_1304" data-name="Grupo 1304" transform="translate(24.943 2.14)">
          <g id="Grupo_1303" data-name="Grupo 1303">
            <g id="Grupo_1302" data-name="Grupo 1302">
              <path id="Trazado_3038" data-name="Trazado 3038" d="M1199.427,2319.354a1.65,1.65,0,0,1-3.3,0,42.269,42.269,0,0,0-.632-6.447c-.611-3.482-1.825-7.544-4.215-9.909a6.175,6.175,0,0,0-4.626-1.9,4.293,4.293,0,0,0-3.571,1.6c-1.13,1.445-1.593,3.708-1.7,6.056l-3.293.107c.107-2.971.71-6.054,2.394-8.2a7.578,7.578,0,0,1,6.142-2.866,9.455,9.455,0,0,1,6.978,2.866C1199.362,2306.362,1199.427,2318.826,1199.427,2319.354Z" transform="translate(-1178.094 -2297.792)" fill="#171c2d"/>
            </g>
          </g>
        </g>
        <g id="Grupo_1307" data-name="Grupo 1307" transform="translate(36.558 0.677)">
          <g id="Grupo_1306" data-name="Grupo 1306">
            <g id="Grupo_1305" data-name="Grupo 1305">
              <path id="Trazado_3039" data-name="Trazado 3039" d="M1205.645,2318.571a1.651,1.651,0,0,1-3.3,0,42.311,42.311,0,0,0-.632-6.448c-.615-3.482-1.827-7.54-4.213-9.909a6.216,6.216,0,0,0-4.564-1.9h-.064a4.289,4.289,0,0,0-3.569,1.6c-1.308,1.663-1.72,4.427-1.72,7.16l-3.289.1c-.01-3.289.519-6.888,2.414-9.3a7.578,7.578,0,0,1,6.136-2.864h.092a9.476,9.476,0,0,1,6.892,2.864C1205.578,2305.579,1205.645,2318.043,1205.645,2318.571Z" transform="translate(-1184.291 -2297.011)" fill="#171c2d"/>
            </g>
          </g>
        </g>
        <g id="Grupo_1310" data-name="Grupo 1310" transform="translate(48.864)">
          <g id="Grupo_1309" data-name="Grupo 1309">
            <g id="Grupo_1308" data-name="Grupo 1308">
              <path id="Trazado_3040" data-name="Trazado 3040" d="M1212.211,2318.21a1.65,1.65,0,0,1-3.3,0,42.325,42.325,0,0,0-.632-6.448c-.611-3.482-1.82-7.544-4.21-9.909a6.172,6.172,0,0,0-4.627-1.906,4.3,4.3,0,0,0-3.574,1.606c-1.346,1.713-1.741,4.573-1.721,7.375h-3.289c-.021-3.323.5-6.976,2.414-9.415a7.581,7.581,0,0,1,6.142-2.867,9.5,9.5,0,0,1,6.981,2.864C1212.145,2305.221,1212.211,2317.686,1212.211,2318.21Z" transform="translate(-1190.857 -2296.65)" fill="#171c2d"/>
            </g>
          </g>
        </g>
        <g id="Grupo_1313" data-name="Grupo 1313" transform="translate(62.438 0.677)">
          <g id="Grupo_1312" data-name="Grupo 1312">
            <g id="Grupo_1311" data-name="Grupo 1311">
              <path id="Trazado_3041" data-name="Trazado 3041" d="M1219.442,2318.571a1.651,1.651,0,0,1-3.3,0,42.035,42.035,0,0,0-.632-6.448c-.615-3.482-1.824-7.54-4.213-9.909a6.216,6.216,0,0,0-4.564-1.9h-.062a4.279,4.279,0,0,0-3.567,1.6c-1.184,1.5-1.634,3.908-1.707,6.38l-3.3.062c.079-3.053.665-6.269,2.4-8.48a7.585,7.585,0,0,1,6.14-2.864h.088a9.492,9.492,0,0,1,6.9,2.864C1219.376,2305.579,1219.442,2318.043,1219.442,2318.571Z" transform="translate(-1198.099 -2297.011)" fill="#171c2d"/>
            </g>
          </g>
        </g>
        <g id="Grupo_1316" data-name="Grupo 1316" transform="translate(74.685)">
          <g id="Grupo_1315" data-name="Grupo 1315">
            <g id="Grupo_1314" data-name="Grupo 1314">
              <path id="Trazado_3042" data-name="Trazado 3042" d="M1225.977,2318.21a1.65,1.65,0,0,1-3.3,0,42.315,42.315,0,0,0-.632-6.448c-.611-3.482-1.82-7.544-4.21-9.909a6.172,6.172,0,0,0-4.627-1.906,4.294,4.294,0,0,0-3.572,1.606c-1.222,1.555-1.665,4.062-1.719,6.6l-3.284.111c.049-3.135.618-6.479,2.4-8.753a7.586,7.586,0,0,1,6.142-2.867,9.529,9.529,0,0,1,6.983,2.864C1225.912,2305.221,1225.977,2317.686,1225.977,2318.21Z" transform="translate(-1204.633 -2296.65)" fill="#171c2d"/>
            </g>
          </g>
        </g>
        <g id="Grupo_1318" data-name="Grupo 1318" transform="translate(18.439 21.245)">
          <g id="Grupo_1317" data-name="Grupo 1317">
            <path id="Trazado_3043" data-name="Trazado 3043" d="M1174.624,2310.787a2.8,2.8,0,1,0,2.8-2.8A2.8,2.8,0,0,0,1174.624,2310.787Z" transform="translate(-1174.624 -2307.985)" fill="#171c2d"/>
          </g>
        </g>
        <g id="Grupo_1320" data-name="Grupo 1320" transform="translate(66.325 19.433)">
          <g id="Grupo_1319" data-name="Grupo 1319">
            <path id="Trazado_3044" data-name="Trazado 3044" d="M1200.173,2309.818a2.8,2.8,0,1,0,2.806-2.8A2.806,2.806,0,0,0,1200.173,2309.818Z" transform="translate(-1200.173 -2307.018)" fill="#171c2d"/>
          </g>
        </g>
        <g id="Grupo_1322" data-name="Grupo 1322" transform="translate(29.989 20.679)">
          <g id="Grupo_1321" data-name="Grupo 1321">
            <path id="Trazado_3045" data-name="Trazado 3045" d="M1180.786,2310.483a2.8,2.8,0,1,0,2.8-2.8A2.8,2.8,0,0,0,1180.786,2310.483Z" transform="translate(-1180.786 -2307.683)" fill="#171c2d"/>
          </g>
        </g>
        <g id="Grupo_1323" data-name="Grupo 1323" transform="translate(1.89 27.933)">
          <line id="Línea_7" data-name="Línea 7" x2="4.635" y2="28.119" transform="translate(0.666 0.666)" fill="#fff"/>
          <path id="Trazado_3046" data-name="Trazado 3046" d="M1171.092,2341.006a.665.665,0,0,1-.654-.559l-4.635-28.118a.665.665,0,0,1,1.312-.217l4.635,28.12a.664.664,0,0,1-.549.764A.685.685,0,0,1,1171.092,2341.006Z" transform="translate(-1165.794 -2311.554)" fill="#171c2d"/>
        </g>
        <g id="Grupo_1324" data-name="Grupo 1324" transform="translate(7.33 46.106)">
          <line id="Línea_8" data-name="Línea 8" x2="3.984" y2="23.208" transform="translate(0.666 0.666)" fill="#fff"/>
          <path id="Trazado_3047" data-name="Trazado 3047" d="M1173.344,2345.79a.666.666,0,0,1-.654-.553l-3.983-23.207a.666.666,0,0,1,1.312-.227l3.983,23.209a.666.666,0,0,1-.543.769A.555.555,0,0,1,1173.344,2345.79Z" transform="translate(-1168.697 -2321.249)" fill="#171c2d"/>
        </g>
        <g id="Grupo_1326" data-name="Grupo 1326" transform="translate(21.397 133.145)">
          <g id="Grupo_1325" data-name="Grupo 1325">
            <path id="Trazado_3048" data-name="Trazado 3048" d="M1176.867,2369.92a.665.665,0,0,1-.007-1.33l71.281-.9h.009a.665.665,0,0,1,.008,1.331l-71.283.9Z" transform="translate(-1176.202 -2367.688)" fill="#171c2d"/>
          </g>
        </g>
        <g id="Grupo_1327" data-name="Grupo 1327" transform="translate(16.087 126.317)">
          <line id="Línea_9" data-name="Línea 9" x1="11.2" y2="14.461" transform="translate(0.666 0.664)" fill="#fff"/>
          <path id="Trazado_3049" data-name="Trazado 3049" d="M1174.035,2379.834a.665.665,0,0,1-.527-1.072l11.2-14.461a.666.666,0,1,1,1.053.816l-11.2,14.46A.665.665,0,0,1,1174.035,2379.834Z" transform="translate(-1173.369 -2364.045)" fill="#171c2d"/>
        </g>
        <g id="Grupo_1329" data-name="Grupo 1329" transform="translate(17.278 91.162)">
          <g id="Grupo_1328" data-name="Grupo 1328">
            <path id="Trazado_3050" data-name="Trazado 3050" d="M1181.971,2385.271a.665.665,0,0,1-.654-.542l-7.3-38.653a.665.665,0,1,1,1.307-.246l7.2,38.093,28.431-.9a.666.666,0,1,1,.041,1.331l-29,.915Z" transform="translate(-1174.005 -2345.289)" fill="#171c2d"/>
          </g>
        </g>
        <g id="Grupo_1330" data-name="Grupo 1330" transform="translate(9.976 71.833)">
          <line id="Línea_10" data-name="Línea 10" x1="7.301" y1="38.653" transform="translate(0.665 0.667)" fill="#fff"/>
          <path id="Trazado_3051" data-name="Trazado 3051" d="M1178.075,2374.961a.663.663,0,0,1-.652-.542l-7.3-38.653a.666.666,0,0,1,1.308-.248l7.3,38.654a.664.664,0,0,1-.53.778A.71.71,0,0,1,1178.075,2374.961Z" transform="translate(-1170.109 -2334.976)" fill="#171c2d"/>
        </g>
        <g id="Grupo_1332" data-name="Grupo 1332" transform="translate(79.625 128.724)">
          <g id="Grupo_1331" data-name="Grupo 1331">
            <path id="Trazado_3052" data-name="Trazado 3052" d="M1207.935,2367.749a.666.666,0,0,1-.017-1.331l44.559-1.088h.017a.665.665,0,0,1,.017,1.33l-44.559,1.089Z" transform="translate(-1207.269 -2365.33)" fill="#171c2d"/>
          </g>
        </g>
        <g id="Grupo_1333" data-name="Grupo 1333" transform="translate(34.123 80.928)">
          <line id="Línea_11" data-name="Línea 11" y1="1.294" x2="47.322" transform="translate(0.665 0.666)" fill="#fff"/>
          <path id="Trazado_3053" data-name="Trazado 3053" d="M1183.658,2342.452a.665.665,0,0,1-.019-1.331l47.322-1.293h.019a.666.666,0,0,1,.017,1.331l-47.322,1.293Z" transform="translate(-1182.992 -2339.828)" fill="#171c2d"/>
        </g>
        <g id="Grupo_1334" data-name="Grupo 1334" transform="translate(35.499 83.938)">
          <line id="Línea_12" data-name="Línea 12" y1="1.432" x2="52.371" transform="translate(0.667 0.665)" fill="#fff"/>
          <path id="Trazado_3054" data-name="Trazado 3054" d="M1184.392,2344.2a.665.665,0,0,1-.017-1.331l52.371-1.432h.019a.666.666,0,0,1,.017,1.331l-52.371,1.432Z" transform="translate(-1183.726 -2341.434)" fill="#171c2d"/>
        </g>
        <g id="Grupo_1335" data-name="Grupo 1335" transform="translate(37.42 87.97)">
          <line id="Línea_13" data-name="Línea 13" y1="1.203" x2="44.025" transform="translate(0.665 0.665)" fill="#fff"/>
          <path id="Trazado_3055" data-name="Trazado 3055" d="M1185.417,2346.119a.666.666,0,0,1-.019-1.331l44.025-1.2h.019a.666.666,0,0,1,.017,1.331l-44.023,1.2Z" transform="translate(-1184.751 -2343.585)" fill="#171c2d"/>
        </g>
        <g id="Grupo_1336" data-name="Grupo 1336" transform="translate(39.472 91.636)">
          <line id="Línea_14" data-name="Línea 14" y1="1.337" x2="48.923" transform="translate(0.664 0.666)" fill="#fff"/>
          <path id="Trazado_3056" data-name="Trazado 3056" d="M1186.512,2348.211a.666.666,0,0,1-.019-1.331l48.922-1.338h.017a.666.666,0,0,1,.019,1.331l-48.923,1.339Z" transform="translate(-1185.846 -2345.541)" fill="#171c2d"/>
        </g>
        <g id="Grupo_1337" data-name="Grupo 1337" transform="translate(25.863 60.695)">
          <line id="Línea_15" data-name="Línea 15" y1="1.382" x2="50.574" transform="translate(0.666 0.665)" fill="#fff"/>
          <path id="Trazado_3057" data-name="Trazado 3057" d="M1179.251,2331.745a.665.665,0,0,1-.017-1.331l50.572-1.382h.019a.666.666,0,0,1,.019,1.331l-50.574,1.381Z" transform="translate(-1178.585 -2329.033)" fill="#171c2d"/>
        </g>
        <g id="Grupo_1338" data-name="Grupo 1338" transform="translate(27.664 63.471)">
          <line id="Línea_16" data-name="Línea 16" y1="1.47" x2="53.78" transform="translate(0.666 0.664)" fill="#fff"/>
          <path id="Trazado_3058" data-name="Trazado 3058" d="M1180.212,2333.314a.665.665,0,0,1-.019-1.33l53.781-1.47h.019a.666.666,0,0,1,.017,1.331l-53.779,1.469Z" transform="translate(-1179.546 -2330.514)" fill="#171c2d"/>
        </g>
        <g id="Grupo_1339" data-name="Grupo 1339" transform="translate(28.6 66.768)">
          <line id="Línea_17" data-name="Línea 17" y1="1.143" x2="41.802" transform="translate(0.666 0.664)" fill="#fff"/>
          <path id="Trazado_3059" data-name="Trazado 3059" d="M1180.71,2334.746a.666.666,0,0,1-.019-1.331l41.8-1.142h.019a.665.665,0,0,1,.017,1.329l-41.8,1.143Z" transform="translate(-1180.045 -2332.273)" fill="#171c2d"/>
        </g>
        <g id="Grupo_1340" data-name="Grupo 1340" transform="translate(20.473 42.074)">
          <line id="Línea_18" data-name="Línea 18" y1="1.317" x2="48.192" transform="translate(0.666 0.665)" fill="#fff"/>
          <path id="Trazado_3060" data-name="Trazado 3060" d="M1176.375,2321.747a.665.665,0,0,1-.019-1.331l48.192-1.318h.019a.666.666,0,0,1,.019,1.331l-48.192,1.317Z" transform="translate(-1175.709 -2319.098)" fill="#171c2d"/>
        </g>
        <g id="Grupo_1341" data-name="Grupo 1341" transform="translate(21.58 45.66)">
          <line id="Línea_19" data-name="Línea 19" y1="0.893" x2="32.665" transform="translate(0.665 0.666)" fill="#fff"/>
          <path id="Trazado_3061" data-name="Trazado 3061" d="M1176.966,2323.236a.666.666,0,0,1-.019-1.331l32.665-.894h.019a.665.665,0,0,1,.019,1.33l-32.667.895Z" transform="translate(-1176.3 -2321.011)" fill="#171c2d"/>
        </g>
        <g id="Grupo_1342" data-name="Grupo 1342" transform="translate(19.693 38.667)">
          <line id="Línea_20" data-name="Línea 20" y1="1.487" x2="54.403" transform="translate(0.665 0.665)" fill="#fff"/>
          <path id="Trazado_3062" data-name="Trazado 3062" d="M1175.958,2320.1a.666.666,0,0,1-.019-1.331l54.4-1.486h.019a.665.665,0,0,1,.017,1.331l-54.4,1.486Z" transform="translate(-1175.293 -2317.28)" fill="#171c2d"/>
        </g>
        <g id="Grupo_1345" data-name="Grupo 1345" transform="translate(77.523 27.42)">
          <g id="Grupo_1343" data-name="Grupo 1343" transform="translate(0 6.425)">
            <ellipse id="Elipse_75" data-name="Elipse 75" cx="5.766" cy="7.135" rx="5.766" ry="7.135" transform="translate(0 10.517) rotate(-65.782)" fill="#fff"/>
            <path id="Trazado_3063" data-name="Trazado 3063" d="M1215.511,2328.88a9.135,9.135,0,0,1-3.728-.821c-3.923-1.766-5.93-5.831-4.476-9.066a5.886,5.886,0,0,1,4.015-3.231,9.046,9.046,0,0,1,9.966,4.483,5.889,5.889,0,0,1,.247,5.149h0a5.892,5.892,0,0,1-4.017,3.231A7.91,7.91,0,0,1,1215.511,2328.88Zm-2.178-12.042a6.513,6.513,0,0,0-1.672.212,4.579,4.579,0,0,0-3.141,2.489c-1.155,2.566.555,5.844,3.809,7.306a7.341,7.341,0,0,0,4.853.493,4.585,4.585,0,0,0,3.14-2.489h0a4.581,4.581,0,0,0-.219-4,7.359,7.359,0,0,0-3.589-3.3A7.775,7.775,0,0,0,1213.333,2316.838Z" transform="translate(-1205.548 -2314.009)" fill="#171c2d"/>
          </g>
          <g id="Grupo_1344" data-name="Grupo 1344" transform="translate(1.925)">
            <path id="Trazado_3064" data-name="Trazado 3064" d="M1215.64,2330.978a2.666,2.666,0,0,1-1.612-.546l-5.8-4.422a2.661,2.661,0,1,1,3.225-4.234l3.229,2.461,5.621-11.467a2.661,2.661,0,1,1,4.779,2.343l-7.049,14.374a2.659,2.659,0,0,1-1.777,1.417A2.628,2.628,0,0,1,1215.64,2330.978Z" transform="translate(-1207.175 -2311.28)" fill="#d5e31c"/>
          </g>
        </g>
        <g id="Grupo_1346" data-name="Grupo 1346" transform="translate(84.472 53.155)">
          <ellipse id="Elipse_76" data-name="Elipse 76" cx="5.766" cy="7.135" rx="5.766" ry="7.135" transform="translate(0 10.517) rotate(-65.782)" fill="#fff"/>
          <path id="Trazado_3065" data-name="Trazado 3065" d="M1219.2,2339.174a9.085,9.085,0,0,1-3.715-.815c-3.923-1.766-5.93-5.831-4.476-9.066s5.831-4.425,9.754-2.665,5.93,5.831,4.476,9.064h0A6.391,6.391,0,0,1,1219.2,2339.174Zm-2.172-12.035a5.052,5.052,0,0,0-4.8,2.7c-1.155,2.566.555,5.844,3.807,7.306s6.841.566,7.994-2-.555-5.842-3.809-7.3A7.784,7.784,0,0,0,1217.033,2327.139Zm7.6,8.281h0Z" transform="translate(-1209.256 -2324.307)" fill="#171c2d"/>
        </g>
        <g id="Grupo_1347" data-name="Grupo 1347" transform="translate(94.781 75.256)">
          <path id="Trazado_3066" data-name="Trazado 3066" d="M1229.146,2346.1c-1.307,2.905-5.28,3.949-8.873,2.332s-5.449-5.282-4.142-8.185,5.278-3.948,8.873-2.332S1230.45,2343.2,1229.146,2346.1Z" transform="translate(-1215.043 -2336.491)" fill="#fff"/>
          <path id="Trazado_3067" data-name="Trazado 3067" d="M1224.039,2350.175a9.109,9.109,0,0,1-3.728-.821,8.691,8.691,0,0,1-4.228-3.916,5.684,5.684,0,0,1,3.769-8.381,8.681,8.681,0,0,1,5.735.566c3.923,1.766,5.93,5.831,4.476,9.066a5.883,5.883,0,0,1-4.015,3.231A7.9,7.9,0,0,1,1224.039,2350.175Zm-2.178-12.042a6.613,6.613,0,0,0-1.672.212,4.36,4.36,0,0,0-2.92,6.493,7.716,7.716,0,0,0,8.44,3.8,4.583,4.583,0,0,0,3.142-2.491h0c1.152-2.564-.555-5.842-3.809-7.3A7.793,7.793,0,0,0,1221.861,2338.133Z" transform="translate(-1215.355 -2336.802)" fill="#171c2d"/>
        </g>
        <g id="Grupo_1348" data-name="Grupo 1348" transform="translate(95.427 66.454)">
          <path id="Trazado_3068" data-name="Trazado 3068" d="M1224.166,2351.8a2.659,2.659,0,0,1-1.612-.545l-5.8-4.421a2.661,2.661,0,1,1,3.226-4.232l3.228,2.459,5.623-11.467a2.662,2.662,0,1,1,4.78,2.345l-7.049,14.373a2.661,2.661,0,0,1-1.777,1.418A2.731,2.731,0,0,1,1224.166,2351.8Z" transform="translate(-1215.7 -2332.106)" fill="#d5e31c"/>
        </g>
      </g>
      <g id="Grupo_1351" data-name="Grupo 1351" transform="translate(83.664 51.746)">
        <g id="Grupo_1350" data-name="Grupo 1350">
          <path id="Trazado_3069" data-name="Trazado 3069" d="M1227.792,2343.469a2.646,2.646,0,0,1-1.762-.667l-15.708-13.889a2.661,2.661,0,1,1,3.526-3.986l15.708,13.888a2.661,2.661,0,0,1-1.764,4.654Z" transform="translate(-1209.424 -2324.258)" fill="#171c2d"/>
        </g>
      </g>
      <g id="Grupo_1353" data-name="Grupo 1353" transform="translate(87.175 49.77)">
        <g id="Grupo_1352" data-name="Grupo 1352">
          <path id="Trazado_3070" data-name="Trazado 3070" d="M1213.958,2346.237a2.664,2.664,0,0,1-2.476-3.638l6.97-17.708a2.662,2.662,0,0,1,4.954,1.949l-6.971,17.708A2.667,2.667,0,0,1,1213.958,2346.237Z" transform="translate(-1211.297 -2323.204)" fill="#171c2d"/>
        </g>
      </g>
    </g>
    <g id="Grupo_1388" data-name="Grupo 1388" transform="translate(1165.951 2313.831)">
      <g id="Grupo_1374" data-name="Grupo 1374">
        <g id="Grupo_1356" data-name="Grupo 1356" transform="translate(0.665 0.665)">
          <g id="Grupo_1355" data-name="Grupo 1355">
            <path id="Trazado_3071" data-name="Trazado 3071" d="M1207.906,2293.827v145.445a6.794,6.794,0,0,1-.3,2,6.662,6.662,0,0,1-6.35,4.659h-71.873a6.657,6.657,0,0,1-6.656-6.661V2293.827a6.664,6.664,0,0,1,6.656-6.653h71.873A6.655,6.655,0,0,1,1207.906,2293.827Z" transform="translate(-1122.723 -2287.173)" fill="#171c2d"/>
          </g>
        </g>
        <g id="Grupo_1357" data-name="Grupo 1357" transform="translate(2.024 0.665)" opacity="0.1">
          <path id="Trazado_3072" data-name="Trazado 3072" d="M1207.272,2293.827v145.445a6.794,6.794,0,0,1-.3,2l-83.52-151.469a6.625,6.625,0,0,1,5.3-2.631h71.873A6.655,6.655,0,0,1,1207.272,2293.827Z" transform="translate(-1123.448 -2287.173)" fill="#fff"/>
        </g>
        <g id="Grupo_1359" data-name="Grupo 1359">
          <g id="Grupo_1358" data-name="Grupo 1358">
            <path id="Trazado_3073" data-name="Trazado 3073" d="M1201.56,2446.908h-71.873a7.332,7.332,0,0,1-7.319-7.326V2294.137a7.329,7.329,0,0,1,7.319-7.319h71.873a7.328,7.328,0,0,1,7.321,7.319v145.444a7.39,7.39,0,0,1-.333,2.2A7.3,7.3,0,0,1,1201.56,2446.908Zm-71.873-158.759a6,6,0,0,0-5.988,5.988v145.444a6,6,0,0,0,5.988,6h71.873a5.972,5.972,0,0,0,5.719-4.194,6.125,6.125,0,0,0,.272-1.8V2294.137a6,6,0,0,0-5.99-5.988Z" transform="translate(-1122.368 -2286.818)" fill="#171c2d"/>
          </g>
        </g>
        <g id="Grupo_1360" data-name="Grupo 1360" transform="translate(5.238 15.558)">
          <rect id="Rectángulo_106" data-name="Rectángulo 106" width="76.189" height="126.142" fill="#fff"/>
        </g>
        <g id="Grupo_1370" data-name="Grupo 1370" transform="translate(8.909 17.618)">
          <g id="Grupo_1369" data-name="Grupo 1369">
            <g id="Grupo_1364" data-name="Grupo 1364">
              <g id="Grupo_1361" data-name="Grupo 1361" transform="translate(0 3.807)">
                <rect id="Rectángulo_107" data-name="Rectángulo 107" width="1.718" height="2.351" fill="#171c2d"/>
              </g>
              <g id="Grupo_1362" data-name="Grupo 1362" transform="translate(2.35 2.179)">
                <rect id="Rectángulo_108" data-name="Rectángulo 108" width="1.718" height="3.978" fill="#171c2d"/>
              </g>
              <g id="Grupo_1363" data-name="Grupo 1363" transform="translate(4.882)">
                <rect id="Rectángulo_109" data-name="Rectángulo 109" width="1.718" height="6.157" fill="#171c2d"/>
              </g>
            </g>
            <g id="Grupo_1368" data-name="Grupo 1368" transform="translate(62.571 1.633)">
              <g id="Grupo_1365" data-name="Grupo 1365">
                <path id="Trazado_3074" data-name="Trazado 3074" d="M1167.873,2301.923h-6.823a.544.544,0,0,1-.545-.545v-3.741a.546.546,0,0,1,.545-.547h6.823a.546.546,0,0,1,.546.547v3.741A.544.544,0,0,1,1167.873,2301.923Zm-6.277-1.091h5.732v-2.65H1161.6Z" transform="translate(-1160.505 -2297.089)" fill="#171c2d"/>
              </g>
              <g id="Grupo_1366" data-name="Grupo 1366" transform="translate(0.064 0.064)">
                <rect id="Rectángulo_110" data-name="Rectángulo 110" width="5.323" height="3.741" transform="translate(0.481 0.483)" fill="#171c2d"/>
                <path id="Trazado_3075" data-name="Trazado 3075" d="M1166.342,2301.83h-5.321a.482.482,0,0,1-.482-.482v-3.741a.482.482,0,0,1,.482-.484h5.321a.484.484,0,0,1,.483.484v3.741A.483.483,0,0,1,1166.342,2301.83Zm-4.839-.963h4.358v-2.778H1161.5Z" transform="translate(-1160.539 -2297.123)" fill="#171c2d"/>
              </g>
              <g id="Grupo_1367" data-name="Grupo 1367" transform="translate(6.871 1.111)">
                <rect id="Rectángulo_111" data-name="Rectángulo 111" width="0.96" height="1.648" transform="translate(0.482 0.482)" fill="#171c2d"/>
                <rect id="Rectángulo_112" data-name="Rectángulo 112" width="1.924" height="2.612" rx="0.257" fill="#171c2d"/>
              </g>
            </g>
          </g>
        </g>
        <g id="Grupo_1371" data-name="Grupo 1371" transform="translate(39.385 147.023)" opacity="0.1">
          <circle id="Elipse_77" data-name="Elipse 77" cx="3.871" cy="3.871" r="3.871" fill="#fff"/>
        </g>
        <g id="Grupo_1373" data-name="Grupo 1373" transform="translate(4.573 14.893)">
          <g id="Grupo_1372" data-name="Grupo 1372">
            <path id="Trazado_3076" data-name="Trazado 3076" d="M1202.327,2422.238h-77.518V2294.764h77.518Zm-76.188-1.331H1201V2296.1h-74.857Z" transform="translate(-1124.808 -2294.764)" fill="#171c2d"/>
          </g>
        </g>
      </g>
      <g id="Grupo_1375" data-name="Grupo 1375" transform="translate(13.991 146.453)" opacity="0.1">
        <path id="Trazado_3077" data-name="Trazado 3077" d="M1137.079,2372.2h-7.246v-7.248h7.246Zm-5.915-1.331h4.585v-4.586h-4.585Z" transform="translate(-1129.833 -2364.957)" fill="#fff"/>
      </g>
      <g id="Grupo_1378" data-name="Grupo 1378" transform="translate(11.455 30.836)">
        <g id="Grupo_1376" data-name="Grupo 1376" transform="translate(16.579)">
          <path id="Trazado_3078" data-name="Trazado 3078" d="M1178.956,2318.927a.2.2,0,0,0-.182-.171l-3.8-.291a17.653,17.653,0,0,0-1.874-3.548l1.949-3.338a.208.208,0,0,0-.032-.247l-3.066-3.068a.193.193,0,0,0-.247-.031l-3.332,1.981a17.273,17.273,0,0,0-6.44-2.626l-.96-3.812a.2.2,0,0,0-.195-.152h-4.344a.2.2,0,0,0-.195.152l-.973,3.837a17.687,17.687,0,0,0-3.705,1.175l-3-2.594a.205.205,0,0,0-.253,0l-3.554,2.493a.2.2,0,0,0-.077.234l1.421,3.724a17.83,17.83,0,0,0-2.367,3.073l-3.958-.41a.21.21,0,0,0-.214.133l-1.484,4.078a.2.2,0,0,0,.077.235l3.282,2.228a17.18,17.18,0,0,0-.227,2.789c0,.349.013.7.037,1.111l-3.453,1.933a.2.2,0,0,0-.1.227l1.111,4.19a.2.2,0,0,0,.2.152l3.9-.05a17.8,17.8,0,0,0,2.1,3.34l-1.685,3.5a.2.2,0,0,0,.056.24l3.333,2.8a.2.2,0,0,0,.247,0l3.124-2.229a17.461,17.461,0,0,0,3.706,1.559l.645,3.788a.21.21,0,0,0,.182.169l4.326.367a.2.2,0,0,0,.158-.133l1.261-3.561a17.363,17.363,0,0,0,3.966-.858l2.645,2.684a.211.211,0,0,0,.24.038l3.761-2.178a.211.211,0,0,0,.1-.226l-1-3.617a17.992,17.992,0,0,0,2.746-3l3.713.682a.194.194,0,0,0,.214-.114l1.837-3.94a.207.207,0,0,0-.056-.24l-2.9-2.391a17.351,17.351,0,0,0,.512-4.023l3.447-1.573a.207.207,0,0,0,.12-.214Zm-20.271,16.508a10.643,10.643,0,1,1,0-21.286v-.007a10.647,10.647,0,0,1,0,21.293Z" transform="translate(-1137.014 -2302.96)" fill="#d5e31c"/>
          <path id="Trazado_3079" data-name="Trazado 3079" d="M1159.25,2346.847l-.056,0-4.326-.367a.9.9,0,0,1-.776-.69l-.581-3.415a18.255,18.255,0,0,1-3.074-1.29l-2.783,1.985a.86.86,0,0,1-1.025,0l-3.368-2.826a.851.851,0,0,1-.234-1.027l1.512-3.144a18.325,18.325,0,0,1-1.733-2.751l-3.482.045a.843.843,0,0,1-.855-.648l-1.112-4.189a.864.864,0,0,1,.422-.984l3.083-1.722c-.011-.259-.017-.5-.017-.735a17.921,17.921,0,0,1,.172-2.476l-2.937-1.99a.868.868,0,0,1-.33-1.006l1.488-4.086a.868.868,0,0,1,.875-.568l3.576.369a18.648,18.648,0,0,1,1.944-2.521l-1.273-3.337a.871.871,0,0,1,.324-1.021l3.546-2.487a.863.863,0,0,1,1.035.015l2.723,2.349a18.386,18.386,0,0,1,3.044-.964l.87-3.437a.874.874,0,0,1,.842-.652h4.343a.873.873,0,0,1,.836.637l.862,3.42a17.873,17.873,0,0,1,5.911,2.414l2.978-1.769a.86.86,0,0,1,1.074.149l3.049,3.05a.88.88,0,0,1,.148,1.033l-1.755,3a18.256,18.256,0,0,1,1.554,2.941l3.389.257a.88.88,0,0,1,.791.729l.742,4.271a.884.884,0,0,1-.489.93l-3.076,1.4a18.105,18.105,0,0,1-.425,3.34l2.579,2.131a.878.878,0,0,1,.238,1.029l-1.839,3.943a.85.85,0,0,1-.952.484l-3.291-.6a18.466,18.466,0,0,1-2.283,2.493l.891,3.219a.9.9,0,0,1-.4.978l-3.767,2.178a.9.9,0,0,1-1.042-.143l-2.358-2.392a18.345,18.345,0,0,1-3.293.712l-1.123,3.167a.871.871,0,0,1-.673.566A.547.547,0,0,1,1159.25,2346.847Zm-3.911-1.662,3.563.3,1.142-3.219a.663.663,0,0,1,.562-.44,16.893,16.893,0,0,0,3.814-.825.656.656,0,0,1,.69.163l2.4,2.429,3.138-1.818-.905-3.27a.664.664,0,0,1,.206-.679,17.167,17.167,0,0,0,2.643-2.886.674.674,0,0,1,.662-.265l3.353.617,1.535-3.289-2.624-2.165a.67.67,0,0,1-.223-.673,16.743,16.743,0,0,0,.493-3.866.666.666,0,0,1,.388-.6l3.126-1.424-.622-3.573-3.439-.261a.668.668,0,0,1-.57-.422,17.007,17.007,0,0,0-1.8-3.417.664.664,0,0,1-.024-.709l1.771-3.033-2.562-2.562-3.023,1.8a.675.675,0,0,1-.71-.019,16.557,16.557,0,0,0-6.191-2.527.655.655,0,0,1-.521-.491l-.873-3.459H1157.1l-.885,3.488a.666.666,0,0,1-.515.489,16.914,16.914,0,0,0-3.565,1.129.667.667,0,0,1-.7-.1l-2.725-2.354-2.975,2.086,1.288,3.385a.661.661,0,0,1-.141.7,17.169,17.169,0,0,0-2.279,2.959.656.656,0,0,1-.637.314l-3.6-.373-1.237,3.4,2.984,2.024a.663.663,0,0,1,.281.658,16.608,16.608,0,0,0-.218,2.682c0,.335.013.677.036,1.072a.661.661,0,0,1-.339.62l-3.138,1.755.928,3.5,3.544-.047h.009a.666.666,0,0,1,.6.377,17.056,17.056,0,0,0,2.024,3.214.665.665,0,0,1,.079.7l-1.528,3.175,2.778,2.334,2.839-2.026a.662.662,0,0,1,.714-.038,16.84,16.84,0,0,0,3.565,1.5.667.667,0,0,1,.468.527Zm-8.442-3.209-.049.034Zm-2.813-2.781.045.038Zm32.367-3.579,0,.005Zm.489-.261.019,0Zm-37.186-2.984v0Zm-.453-.337h0Zm-.87-3.333-.011.006Zm.208-.534.006.024Zm40.715-4.552h0Zm-40.528-4.1,0,0Zm1.665-3.539,0,.007Zm4.963-6.44-.015.009Zm26.911-.426-.015.009Zm-.574-.064.021.023Zm-22.776-2.009-.028.019Zm9.982,29.375a11.309,11.309,0,0,1-.084-22.619.7.7,0,0,1,.084,0h0a11.311,11.311,0,0,1,0,22.622Zm.079-21.293a.373.373,0,0,1-.079.006,9.306,9.306,0,1,0,.079-.006Z" transform="translate(-1137.325 -2303.27)" fill="#171c2d"/>
        </g>
        <g id="Grupo_1377" data-name="Grupo 1377" transform="translate(0 38.534)">
          <path id="Trazado_3080" data-name="Trazado 3080" d="M1163.271,2336.457a.2.2,0,0,0-.214-.163l-3.044.182a14.392,14.392,0,0,0-1.527-2.885l1.919-2.412a.207.207,0,0,0,0-.265l-3.194-3.194a.192.192,0,0,0-.266,0l-2.437,1.931a14.277,14.277,0,0,0-5.289-2.152l-.373-3.137a.2.2,0,0,0-.2-.178h-4.519a.206.206,0,0,0-.2.178l-.365,3.156a14.347,14.347,0,0,0-3.012.947l-2.109-2.381a.2.2,0,0,0-.272-.032l-3.705,2.6a.2.2,0,0,0-.064.259l1.522,2.809a14.424,14.424,0,0,0-1.925,2.493l-3.106-.738a.2.2,0,0,0-.234.126l-1.546,4.243a.2.2,0,0,0,.1.253l2.847,1.419a14.619,14.619,0,0,0-.184,2.287c0,.27.006.554.032.883l-2.948,1.162a.2.2,0,0,0-.12.24l1.168,4.369a.2.2,0,0,0,.221.151l3.092-.461a14.621,14.621,0,0,0,1.711,2.719l-1.717,2.6a.214.214,0,0,0,.037.271l3.466,2.9a.209.209,0,0,0,.266,0l2.229-2.115a14.288,14.288,0,0,0,3,1.269l.083,3.055a.193.193,0,0,0,.184.19l4.5.373h.019a.2.2,0,0,0,.208-.171l.607-2.967a14.369,14.369,0,0,0,3.218-.7l1.8,2.418a.2.2,0,0,0,.26.051l3.914-2.26a.2.2,0,0,0,.082-.252l-1.194-2.753a14.764,14.764,0,0,0,2.228-2.437l2.847.947a.2.2,0,0,0,.246-.107l1.914-4.079a.2.2,0,0,0-.083-.253l-2.556-1.578a14.528,14.528,0,0,0,.416-3.271l2.9-.864a.2.2,0,0,0,.146-.227Zm-8.011,5.334a8.822,8.822,0,1,1-8.818-8.832v.013a8.829,8.829,0,0,1,8.818,8.813Z" transform="translate(-1128.171 -2323.519)" fill="#d5e31c"/>
          <path id="Trazado_3081" data-name="Trazado 3081" d="M1147.426,2360.382l-.056,0-4.532-.375a.855.855,0,0,1-.793-.853l-.069-2.56a15.268,15.268,0,0,1-2.247-.947l-1.876,1.781a.88.88,0,0,1-1.149.03l-3.467-2.907a.881.881,0,0,1-.168-1.141l1.458-2.2a14.9,14.9,0,0,1-1.271-2.022l-2.616.39a.846.846,0,0,1-.965-.652l-1.166-4.354a.866.866,0,0,1,.517-1.029l2.5-.986c-.005-.154-.007-.3-.007-.442a15.333,15.333,0,0,1,.122-1.9l-2.418-1.207a.856.856,0,0,1-.427-1.08l1.544-4.237a.872.872,0,0,1,1.025-.544l2.633.626a15.1,15.1,0,0,1,1.419-1.84l-1.293-2.388a.857.857,0,0,1,.268-1.121l3.7-2.594a.861.861,0,0,1,1.164.146l1.78,2.011a15.212,15.212,0,0,1,2.223-.7l.311-2.682a.874.874,0,0,1,.864-.766h4.519a.861.861,0,0,1,.86.8l.313,2.624a14.91,14.91,0,0,1,4.646,1.891l2.062-1.634a.845.845,0,0,1,1.13.03l3.214,3.214a.88.88,0,0,1,.038,1.164l-1.606,2.018a15.142,15.142,0,0,1,1.143,2.158l2.566-.154a.86.86,0,0,1,.909.7l0,.009.782,4.452a.854.854,0,0,1-.643.988l-2.4.72a14.876,14.876,0,0,1-.313,2.453l2.152,1.33a.855.855,0,0,1,.352,1.064l-1.93,4.116a.857.857,0,0,1-1.044.459l-2.407-.8a15.6,15.6,0,0,1-1.672,1.83l1,2.313a.866.866,0,0,1-.359,1.094l-3.914,2.258a.86.86,0,0,1-1.138-.243l-1.5-2.021a15.075,15.075,0,0,1-2.416.521l-.51,2.495A.865.865,0,0,1,1147.426,2360.382Zm-.455-.975,0,.019Zm-3.6-.3,0,.024Zm-.011-.4,3.687.306.526-2.575a.667.667,0,0,1,.589-.529,13.619,13.619,0,0,0,3.07-.662.673.673,0,0,1,.748.232l1.546,2.083,3.2-1.845-1.029-2.372a.669.669,0,0,1,.174-.767,14.093,14.093,0,0,0,2.129-2.328.663.663,0,0,1,.746-.238l2.455.818,1.561-3.327-2.208-1.36a.667.667,0,0,1-.3-.723,13.821,13.821,0,0,0,.4-3.121.669.669,0,0,1,.474-.632l2.508-.748-.639-3.632-2.634.159a.618.618,0,0,1-.659-.423,13.817,13.817,0,0,0-1.456-2.752.665.665,0,0,1,.026-.79l1.668-2.1-2.592-2.589-2.118,1.681a.667.667,0,0,1-.784.032,13.571,13.571,0,0,0-5.042-2.051.664.664,0,0,1-.538-.577l-.326-2.727h-3.692l-.319,2.743a.666.666,0,0,1-.534.577,13.855,13.855,0,0,0-2.871.9.663.663,0,0,1-.763-.167l-1.839-2.075-3.031,2.124,1.323,2.442a.667.667,0,0,1-.107.78,13.778,13.778,0,0,0-1.835,2.379.658.658,0,0,1-.722.3l-2.7-.641-1.263,3.464,2.479,1.239a.669.669,0,0,1,.36.7,13.828,13.828,0,0,0-.176,2.18c0,.257.006.525.03.836a.67.67,0,0,1-.42.669l-2.562,1.009.954,3.574,2.68-.4a.654.654,0,0,1,.7.367,13.841,13.841,0,0,0,1.631,2.6.662.662,0,0,1,.036.782l-1.492,2.255,2.838,2.376,1.921-1.825a.659.659,0,0,1,.785-.1,13.733,13.733,0,0,0,2.866,1.209.667.667,0,0,1,.478.62Zm-.427-.035.017,0Zm10.83-.793.015.019Zm3.321-2.369,0,0Zm3.942-4.309,0,0Zm-30.071-2.635,0,.019Zm-.506-.316-.028,0Zm32.654-.534.024.015Zm.6-6.393,0,.017Zm.319-.521-.037.013Zm-33.977-2.435,0,.006Zm-.245-.572.022.012Zm33.606-.532h0Zm-32.361-2.84.015,0Zm29.145-3.353-.015.019Zm-24.9-2.184.006.013Zm22.413-.369-.051.039Zm-18.837-1.619-.008.008Zm-.615-.065.015.015Zm10.243-2.088,0,.043Zm-1.741,26.838h-.011a9.491,9.491,0,0,1,.008-18.983.626.626,0,0,1,.135.015,9.512,9.512,0,0,1,9.349,9.475v.007a9.484,9.484,0,0,1-9.48,9.486Zm-.131-17.65a8.16,8.16,0,0,0,.12,16.32h.011a8.153,8.153,0,0,0,8.149-8.155v-.006a8.176,8.176,0,0,0-8.155-8.147A.667.667,0,0,1,1146.624,2333.937Zm.127-.654h0Z" transform="translate(-1128.48 -2323.83)" fill="#171c2d"/>
        </g>
      </g>
      <g id="Grupo_1379" data-name="Grupo 1379" transform="translate(21.477 113.896)">
        <rect id="Rectángulo_113" data-name="Rectángulo 113" width="41.374" height="16.247" rx="4.334" transform="translate(0.665 0.665)" fill="#d5e31c"/>
        <path id="Trazado_3082" data-name="Trazado 3082" d="M1167.742,2365.164h-25.127a8.789,8.789,0,0,1,0-17.578h25.127a8.789,8.789,0,0,1,0,17.578Zm-25.127-16.247a7.458,7.458,0,1,0,0,14.916h25.127a7.458,7.458,0,1,0,0-14.916Z" transform="translate(-1133.827 -2347.586)" fill="#171c2d"/>
      </g>
      <g id="Grupo_1386" data-name="Grupo 1386" transform="translate(29.424 119.551)">
        <g id="Grupo_1385" data-name="Grupo 1385">
          <g id="Grupo_1380" data-name="Grupo 1380">
            <path id="Trazado_3083" data-name="Trazado 3083" d="M1138.067,2353.328a2.868,2.868,0,0,1,4.937-1.841l-.637.6a1.86,1.86,0,0,0-1.415-.62,1.863,1.863,0,1,0,0,3.726,1.838,1.838,0,0,0,1.415-.629l.637.607a2.868,2.868,0,0,1-4.937-1.841Z" transform="translate(-1138.067 -2350.603)" fill="#171c2d"/>
          </g>
          <g id="Grupo_1381" data-name="Grupo 1381" transform="translate(5.885 0.075)">
            <path id="Trazado_3084" data-name="Trazado 3084" d="M1145.917,2350.643v5.3h-.984v-2.272h-2.742v2.272h-.984v-5.3h.984v2.189h2.742v-2.189Z" transform="translate(-1141.207 -2350.643)" fill="#171c2d"/>
          </g>
          <g id="Grupo_1382" data-name="Grupo 1382" transform="translate(12.022 0.075)">
            <path id="Trazado_3085" data-name="Trazado 3085" d="M1148.457,2355.119v.825h-3.975v-5.3h3.869v.824h-2.885v1.38h2.56v.809h-2.56v1.462Z" transform="translate(-1144.481 -2350.643)" fill="#171c2d"/>
          </g>
          <g id="Grupo_1383" data-name="Grupo 1383" transform="translate(16.696)">
            <path id="Trazado_3086" data-name="Trazado 3086" d="M1146.975,2353.328a2.868,2.868,0,0,1,4.937-1.841l-.635.6a1.864,1.864,0,0,0-1.417-.62,1.863,1.863,0,1,0,0,3.726,1.842,1.842,0,0,0,1.417-.629l.635.607a2.869,2.869,0,0,1-4.937-1.841Z" transform="translate(-1146.975 -2350.603)" fill="#171c2d"/>
          </g>
          <g id="Grupo_1384" data-name="Grupo 1384" transform="translate(22.581 0.075)">
            <path id="Trazado_3087" data-name="Trazado 3087" d="M1151.941,2353.724l-.841.864v1.355h-.984v-5.3h.984v2.718l2.62-2.718h1.106l-2.227,2.371,2.364,2.93h-1.151Z" transform="translate(-1150.115 -2350.643)" fill="#171c2d"/>
          </g>
        </g>
      </g>
      <g id="Grupo_1387" data-name="Grupo 1387" transform="translate(66.773 146.437)" opacity="0.1">
        <path id="Trazado_3088" data-name="Trazado 3088" d="M1157.994,2373.019v-8.07l8.069,4.035Zm1.331-5.917v3.764l3.762-1.881Z" transform="translate(-1157.994 -2364.949)" fill="#fff"/>
      </g>
    </g>
  </g>
</svg>
