<svg id="water-tap" xmlns="http://www.w3.org/2000/svg" width="40.5" height="40.5" viewBox="0 0 40.5 40.5">
  <path id="Trazado_1931" data-name="Trazado 1931" d="M39.314,24.75V22.986a.593.593,0,1,0-1.187,0V24.75h-5.7V19.468a1.444,1.444,0,0,0-1.442-1.442H28.383v-5.7H33.4a4.736,4.736,0,0,1,4.73,4.73v3.157a.593.593,0,0,0,1.187,0V17.061A5.924,5.924,0,0,0,33.4,11.144H28.232a2.971,2.971,0,0,0-2.816-2.036H23.449V6.861A1.783,1.783,0,0,0,25.1,5.488h5.945A2.08,2.08,0,0,0,33.1,3.431a2.059,2.059,0,0,0-2.057-2.057H25.1A1.782,1.782,0,0,0,23.37,0H19.5a1.782,1.782,0,0,0-1.733,1.375H11.826a2.057,2.057,0,1,0,0,4.113h5.945a1.783,1.783,0,0,0,1.653,1.373V9.108H17.457a2.971,2.971,0,0,0-2.816,2.036h-4.46a1.779,1.779,0,0,0-3.355,0H.593a.593.593,0,1,0,0,1.187h6.13v5.7H.593a.593.593,0,1,0,0,1.187H6.826a1.779,1.779,0,0,0,3.356,0h4.46a2.971,2.971,0,0,0,2.816,2.036h1a.593.593,0,0,0,0-1.187h-1A1.783,1.783,0,0,1,15.7,18.556V18.55c.024-.109-.024-6.536,0-6.744v0a1.783,1.783,0,0,1,1.759-1.507h7.959A1.783,1.783,0,0,1,27.175,11.8v0c.092.789.08,6.052,0,6.744,0,0,0,0,0,.006a1.783,1.783,0,0,1-1.759,1.506H21.229a.593.593,0,0,0,0,1.187h4.188a2.971,2.971,0,0,0,2.816-2.036H30.99a.256.256,0,0,1,.255.255V24.75a1.2,1.2,0,0,0-1.187,1.2v1.168a1.2,1.2,0,0,0,1.2,1.2H39.3a1.2,1.2,0,0,0,1.2-1.2V25.946A1.2,1.2,0,0,0,39.314,24.75ZM25.15,2.561h5.9a.871.871,0,0,1,.87.87.88.88,0,0,1-.87.87h-5.9ZM17.724,4.3h-5.9a.87.87,0,0,1,0-1.74h5.9ZM9.1,18.619a.593.593,0,0,1-1.187,0V11.737a.593.593,0,0,1,1.187,0Zm5.394-.593H10.283v-5.7h4.207Zm7.772-8.918H20.611V6.863h1.652ZM19.5,5.677a.594.594,0,0,1-.593-.593V1.78a.594.594,0,0,1,.593-.593H23.37a.594.594,0,0,1,.593.593v3.3a.594.594,0,0,1-.593.593Zm19.81,21.437a.01.01,0,0,1-.009.009H31.255a.01.01,0,0,1-.009-.009V25.946a.01.01,0,0,1,.009-.009H39.3a.01.01,0,0,1,.009.009Zm-3.451,3.249a.833.833,0,0,0-1.167,0c-1.12,1.106-3.725,3.889-3.725,5.831a4.309,4.309,0,0,0,8.618,0C39.588,34.251,36.983,31.468,35.863,30.362Zm-.584,8.952a3.125,3.125,0,0,1-3.122-3.121c0-.738.824-2.408,3.122-4.737,2.3,2.328,3.122,4,3.122,4.737A3.125,3.125,0,0,1,35.279,39.314Z" transform="translate(0 0)" fill="#d7e51c"/>
</svg>
