<svg id="wireless-router" xmlns="http://www.w3.org/2000/svg" width="42.315" height="32.307" viewBox="0 0 42.315 32.307">
  <path id="Trazado_1932" data-name="Trazado 1932" d="M188.154,83.142h-2.563l-.689-20.9a1.758,1.758,0,0,0-3.515,0l-.689,20.9H176.2a.621.621,0,1,0,0,1.242h11.951a1.036,1.036,0,0,1,1.035,1.035v5.156a1.036,1.036,0,0,1-1.035,1.035H162.081a.621.621,0,1,0,0,1.242h26.073a2.28,2.28,0,0,0,2.277-2.277V85.419A2.28,2.28,0,0,0,188.154,83.142Zm-5.525-20.855a.516.516,0,0,1,1.032,0l.688,20.855H181.94Z" transform="translate(-148.116 -60.546)" fill="#d7e51c"/>
  <path id="Trazado_1933" data-name="Trazado 1933" d="M11.481,91.611h-9.2a1.036,1.036,0,0,1-1.035-1.035V85.419a1.036,1.036,0,0,1,1.035-1.035H25.6a.621.621,0,1,0,0-1.242H9.734l-.689-20.9a1.758,1.758,0,0,0-3.515,0l-.314,9.508a.621.621,0,0,0,1.241.041l.314-9.508a.516.516,0,0,1,1.032,0l.688,20.855H6.083l.292-8.864a.621.621,0,0,0-1.241-.041l-.294,8.905H2.277A2.28,2.28,0,0,0,0,85.419v5.156a2.28,2.28,0,0,0,2.277,2.277h9.2a.621.621,0,1,0,0-1.242Z" transform="translate(0 -60.546)" fill="#d7e51c"/>
  <path id="Trazado_1934" data-name="Trazado 1934" d="M51.347,401.189a.621.621,0,0,0,0,1.242h1.984a.621.621,0,0,0,0-1.242Z" transform="translate(-46.534 -373.036)" fill="#d7e51c"/>
  <path id="Trazado_1935" data-name="Trazado 1935" d="M110,401.189h-1.984a.621.621,0,0,0,0,1.242H110a.621.621,0,0,0,0-1.242Z" transform="translate(-98.518 -373.036)" fill="#d7e51c"/>
  <path id="Trazado_1936" data-name="Trazado 1936" d="M164.684,401.189a.621.621,0,0,0,0,1.242h1.984a.621.621,0,0,0,0-1.242Z" transform="translate(-150.504 -373.036)" fill="#d7e51c"/>
  <path id="Trazado_1937" data-name="Trazado 1937" d="M221.354,401.189a.621.621,0,1,0,0,1.242h1.984a.621.621,0,0,0,0-1.242Z" transform="translate(-202.49 -373.036)" fill="#d7e51c"/>
  <path id="Trazado_1938" data-name="Trazado 1938" d="M369.219,402.43a.621.621,0,0,0,0-1.242h-1.984a.621.621,0,1,0,0,1.242Z" transform="translate(-336.315 -373.035)" fill="#d7e51c"/>
  <path id="Trazado_1939" data-name="Trazado 1939" d="M425.116,402.43a.621.621,0,1,0,0-1.242h-1.984a.621.621,0,1,0,0,1.242Z" transform="translate(-387.592 -373.035)" fill="#d7e51c"/>
  <path id="Trazado_1940" data-name="Trazado 1940" d="M152.237,135.453a10.765,10.765,0,0,1,15.207,0,.621.621,0,0,0,.878-.878,12.009,12.009,0,0,0-16.964,0,.621.621,0,0,0,.878.878Z" transform="translate(-138.682 -125.239)" fill="#d7e51c"/>
  <path id="Trazado_1941" data-name="Trazado 1941" d="M192.109,174.77a.621.621,0,0,0,0-.878,8.674,8.674,0,0,0-12.242-.01.621.621,0,1,0,.871.886,7.43,7.43,0,0,1,10.493,0A.621.621,0,0,0,192.109,174.77Z" transform="translate(-164.825 -162.2)" fill="#d7e51c"/>
  <path id="Trazado_1942" data-name="Trazado 1942" d="M215.016,213.5a.621.621,0,0,0,.439-1.06,5.395,5.395,0,0,0-7.63,0,.621.621,0,1,0,.878.878,4.153,4.153,0,0,1,5.873,0A.62.62,0,0,0,215.016,213.5Z" transform="translate(-190.483 -198.437)" fill="#d7e51c"/>
  <path id="Trazado_1943" data-name="Trazado 1943" d="M232.3,246.223a.621.621,0,1,0,.88.877,1.292,1.292,0,0,1,1.824,0,.621.621,0,0,0,.878-.878A2.537,2.537,0,0,0,232.3,246.223Z" transform="translate(-212.933 -230.199)" fill="#d7e51c"/>
</svg>
