<svg id="Capa_1" data-name="Capa 1" xmlns="http://www.w3.org/2000/svg" viewBox="0 0 300 300"><defs><style>.cls-1{fill:#ffefed;}.cls-2{fill:#263238;}.cls-3{fill:#ffbe9d;}.cls-4{fill:#455a64;}.cls-5{opacity:0.6;}.cls-6{fill:#fff;}.cls-7{fill:#0e7a73;}.cls-8{fill:#fafafa;}.cls-9{fill:#eb996e;}.cls-10{fill:#b78876;}.cls-11{fill:#aa6550;}.cls-12{opacity:0.3;}</style></defs><g id="Word_of_mouth-pana" data-name="Word of mouth-pana"><g id="freepik--background-simple--inject-294"><path id="Trazado_795" data-name="Trazado 795" class="cls-1" d="M75.2,209.43c-16.28-3.71-26.74-15.58-34.38-30.2s-4.61-33.24,4-47.36a49.12,49.12,0,0,1,41.29-23.19c13.27,0,26.85,5.49,39.49,1.45,10.44-3.33,18-12.61,22.63-22.52s7.07-20.73,11-30.95,9.88-20.26,19.36-25.79c8.59-5,19.23-5.52,28.93-3.42,18.42,4.07,34,17.55,42.78,34.24s11.09,36.28,8.8,55c-4.74,39-30,74.9-65,92.55S98.53,225,64.38,205.65"/></g><g id="freepik--Floor--inject-294"><path id="Trazado_796" data-name="Trazado 796" class="cls-2" d="M283,265.77c0,.09-61.46.16-137.26.16S8.5,265.86,8.5,265.77s61.45-.16,137.27-.16S283,265.69,283,265.77Z"/></g><g id="freepik--Characters--inject-294"><path id="Trazado_797" data-name="Trazado 797" class="cls-3" d="M144.8,77.94s-4,17.8-5.81,19.14c-7.68,5.52-21,9-24.52,9.82-.56-.16-1.23-.38-2-.66a6.29,6.29,0,0,1-1.84-1.07,9.36,9.36,0,0,1-1.84-1.88.81.81,0,0,0-1.52.19c-.08.73,1,2.67,3.13,4.17s-2,1.78-3.43,1.91-6,.78-6.37,1.27c-.47.71.21,1.34,1.69,1.18s5.94-.37,6,.41-7.53,1.37-7.53,1.37-1.63-.14-1.63.77c0,1.65,8,.43,8.76.3.53-.1.61.75,0,.82s-7.55.42-7.55,2.09c0,1.28,6.58-1,8.07-.21s-5.17,1.18-5.12,2.4c0,.46.1.8,3.87,0a76.23,76.23,0,0,0,8-2.53v0S152,112.65,154,95.42l2.8-10.49Z"/><path id="Trazado_798" data-name="Trazado 798" class="cls-4" d="M160.3,246.68l.7,12.09s-12.05,4.78-12.14,7l23.5-.11L172,246.39Z"/><g id="Grupo_42" data-name="Grupo 42" class="cls-5"><path id="Trazado_799" data-name="Trazado 799" class="cls-6" d="M168.22,257.58a1,1,0,0,1,.69,1.08,1,1,0,0,1-1.07.69,1,1,0,0,1-.72-1.15,1,1,0,0,1,1.19-.61"/></g><g id="Grupo_43" data-name="Grupo 43" class="cls-5"><path id="Trazado_800" data-name="Trazado 800" class="cls-6" d="M172.36,265.68v-1.94l-22.57.84s-1,.48-.91,1.23Z"/></g><path id="Trazado_801" data-name="Trazado 801" class="cls-2" d="M160.62,258.66c0,.12.58.15,1.16.51s.88.83,1,.78-.08-.7-.78-1.12S160.6,258.55,160.62,258.66Z"/><path id="Trazado_802" data-name="Trazado 802" class="cls-2" d="M158.18,259.73c0,.11.48.3.88.78s.52,1,.61,1,.17-.66-.34-1.23S158.18,259.62,158.18,259.73Z"/><path id="Trazado_803" data-name="Trazado 803" class="cls-2" d="M156.84,262.72c.11,0,.26-.56-.05-1.18s-.85-.86-.9-.76.29.42.54.94S156.73,262.71,156.84,262.72Z"/><path id="Trazado_804" data-name="Trazado 804" class="cls-2" d="M160.76,255.89c.06.1.58-.07,1.23,0s1.15.22,1.23.13-.45-.5-1.23-.53S160.71,255.8,160.76,255.89Z"/><path id="Trazado_805" data-name="Trazado 805" class="cls-2" d="M160.67,253.45a2.32,2.32,0,0,0,1.17,0,5.23,5.23,0,0,0,1.23-.41,5.44,5.44,0,0,0,.67-.37,1.64,1.64,0,0,0,.35-.29.5.5,0,0,0,0-.61.61.61,0,0,0-.51-.25,1.68,1.68,0,0,0-.44.07,4.44,4.44,0,0,0-.72.27,4.23,4.23,0,0,0-1.08.74,2.06,2.06,0,0,0-.67,1s.31-.33.86-.76a4.44,4.44,0,0,1,1-.61,4.08,4.08,0,0,1,.67-.23c.25-.07.46-.07.52,0s0,.06,0,.14a1,1,0,0,1-.25.21,6.11,6.11,0,0,1-.61.36,6.57,6.57,0,0,1-1.13.47A7.43,7.43,0,0,0,160.67,253.45Z"/><path id="Trazado_806" data-name="Trazado 806" class="cls-2" d="M160.85,253.61a1.89,1.89,0,0,0,.29-1.15,4,4,0,0,0-.19-1.28,3.68,3.68,0,0,0-.32-.7.94.94,0,0,0-.76-.58.55.55,0,0,0-.49.34,1.6,1.6,0,0,0-.11.43,2.62,2.62,0,0,0,.53,2c.47.62,1,.73,1,.68a4.89,4.89,0,0,1-.73-.84,2.66,2.66,0,0,1-.4-1.09,2.58,2.58,0,0,1,0-.68c0-.25.12-.46.21-.43a.91.91,0,0,1,.43.37,4.48,4.48,0,0,1,.31.62,4.62,4.62,0,0,1,.25,1.16C160.85,253.16,160.76,253.59,160.85,253.61Z"/><path id="Trazado_807" data-name="Trazado 807" class="cls-4" d="M197.41,246l1,12.56s-12.44,5.18-12.49,7.52l24.4-1-2-19.56Z"/><g id="Grupo_44" data-name="Grupo 44" class="cls-5"><path id="Trazado_808" data-name="Trazado 808" class="cls-6" d="M205.87,257.22a1,1,0,0,1,.73,1.11,1,1,0,0,1-1.09.74,1.06,1.06,0,0,1-.77-1.18,1,1,0,0,1,1.23-.64"/></g><g id="Grupo_45" data-name="Grupo 45" class="cls-5"><path id="Trazado_809" data-name="Trazado 809" class="cls-6" d="M210.28,265.12l-.14-2-23.33,1.69s-1.07.51-.92,1.27Z"/></g><path id="Trazado_810" data-name="Trazado 810" class="cls-2" d="M198,258.47c0,.12.62.15,1.23.51s.93.85,1,.8-.1-.74-.83-1.16S197.93,258.36,198,258.47Z"/><path id="Trazado_811" data-name="Trazado 811" class="cls-2" d="M195.45,259.63c0,.12.5.3.92.78s.57,1,.68,1,.18-.69-.36-1.28S195.45,259.52,195.45,259.63Z"/><path id="Trazado_812" data-name="Trazado 812" class="cls-2" d="M194.12,262.76c.11,0,.25-.58-.08-1.23s-.9-.88-.95-.78.31.44.58,1S194,262.75,194.12,262.76Z"/><path id="Trazado_813" data-name="Trazado 813" class="cls-2" d="M198.07,255.59c.05.11.61-.08,1.26-.06s1.23.21,1.27.1-.46-.51-1.26-.51S198,255.5,198.07,255.59Z"/><path id="Trazado_814" data-name="Trazado 814" class="cls-2" d="M197.92,253.05a2.24,2.24,0,0,0,1.23-.05,6.28,6.28,0,0,0,1.26-.44,6.82,6.82,0,0,0,.68-.41,1.31,1.31,0,0,0,.36-.3.51.51,0,0,0,0-.61.6.6,0,0,0-.54-.25,1.38,1.38,0,0,0-.45.08,4.81,4.81,0,0,0-.75.28,4.34,4.34,0,0,0-1.1.79c-.54.55-.72,1-.68,1s.32-.35.88-.8a4.67,4.67,0,0,1,1.76-.91c.25-.08.47-.09.55,0s0,.06,0,.14a1.13,1.13,0,0,1-.27.22c-.2.14-.41.27-.62.39a6.1,6.1,0,0,1-1.17.51,8.33,8.33,0,0,0-1.18.34Z"/><path id="Trazado_815" data-name="Trazado 815" class="cls-2" d="M198.08,253.22a1.93,1.93,0,0,0,.28-1.19,4,4,0,0,0-.23-1.33,3.24,3.24,0,0,0-.34-.73,1,1,0,0,0-.81-.62.57.57,0,0,0-.49.36,1.74,1.74,0,0,0-.11.45,2.81,2.81,0,0,0,0,.82,3,3,0,0,0,.57,1.23c.51.62,1,.74,1,.7a5.39,5.39,0,0,1-.78-.87,2.88,2.88,0,0,1-.43-1.13,2.81,2.81,0,0,1,0-.71c0-.27.12-.47.22-.45a.9.9,0,0,1,.44.38,4.41,4.41,0,0,1,.33.65,4.79,4.79,0,0,1,.29,1.23C198.12,252.75,198,253.2,198.08,253.22Z"/><path id="Trazado_816" data-name="Trazado 816" class="cls-2" d="M188.35,123.86,210.51,253.3l-17,2.48L169.9,138.84l4.29,118.06H157.73L152,125.33Z"/><path id="Trazado_817" data-name="Trazado 817" class="cls-3" d="M195.6,145.15q.18.75.36,1.8a5.23,5.23,0,0,1,0,1.85,8.15,8.15,0,0,1-.61,2.17c-.35.62.22,1.33.79,1.07a5.77,5.77,0,0,0,1.8-4.15c.2-2.24,2.18.7,2.92,1.75s3.19,4.24,3.69,4.27c.74,0,.93-.74.16-1.79s-2.83-4.29-2.26-4.69,4.27,5.1,4.27,5.1.62,1.29,1.28.89c1.23-.72-3.12-6.22-3.55-6.75-.3-.36.32-.78.61-.38s3.56,5.53,4.82,4.8c1-.55-3.54-4.56-3.63-6s3.12,3.38,4,2.82c.34-.21.56-.41-1.68-2.92-1.08-1.22-5.31-4.95-5.31-4.95l-7.2-31.84-11.78-.67Z"/><path id="Trazado_818" data-name="Trazado 818" class="cls-7" d="M187.11,116.88l11.66-1.28s-6-26.68-7.63-36.66a12.06,12.06,0,0,0-2.66-5.73,20.58,20.58,0,0,0-5.71-4.67,58.56,58.56,0,0,0-12-4.06l-14.18,3c-.27.09-8.09,4.73-8.72,5.73,0,0-2.69,2-3.68,7.15-1.23,6.25-4.21,16.1-5.14,16.74s-7.49,3.9-7.49,3.9l5.59,11.86s9-2.75,14.33-8.6l.2,22.65,37.81-1.06-5-17.59Z"/><path id="Trazado_819" data-name="Trazado 819" class="cls-2" d="M149.93,90a3.42,3.42,0,0,1-.68-1.22,3.28,3.28,0,0,1-.38-1.33c.08,0,.39.5.67,1.23A3.06,3.06,0,0,1,149.93,90Z"/><path id="Trazado_820" data-name="Trazado 820" class="cls-2" d="M151.55,117.81a1,1,0,0,1-.05-.3,5,5,0,0,0-.05-.87c0-.81-.08-1.9-.14-3.23-.11-2.72-.24-6.48-.46-10.62s-.51-7.89-.78-10.6c-.14-1.31-.25-2.39-.33-3.2,0-.35-.07-.62-.08-.87a.81.81,0,0,1,0-.31,1.63,1.63,0,0,1,.07.3l.15.87c.11.74.27,1.84.43,3.19.32,2.71.65,6.46.87,10.61s.32,7.91.37,10.63c0,1.32,0,2.41,0,3.22v.88A1.45,1.45,0,0,1,151.55,117.81Z"/><path id="Trazado_821" data-name="Trazado 821" class="cls-2" d="M182.76,85.54c.05.07-.2.38-.56.72s-.72.54-.78.47.19-.38.56-.71S182.7,85.47,182.76,85.54Z"/><path id="Trazado_822" data-name="Trazado 822" class="cls-8" d="M188.26,72.88a3.09,3.09,0,0,1-.43,0c-.28,0-.7-.06-1.23-.09a27.53,27.53,0,0,0-4.54.25c-1.91.25-4.15.71-6.66,1.2s-5.28.91-8.21,1.23a90.21,90.21,0,0,1-15.06.43c-1.93-.11-3.48-.27-4.55-.38l-1.23-.16a2,2,0,0,1-.43-.08,3.23,3.23,0,0,1,.44,0l1.22.1c1.07.09,2.63.2,4.55.28a96.56,96.56,0,0,0,15-.52c2.92-.32,5.69-.76,8.19-1.23s4.77-.92,6.69-1.13a24.18,24.18,0,0,1,4.58-.16q.81.07,1.23.15A2.17,2.17,0,0,1,188.26,72.88Z"/><path id="Trazado_823" data-name="Trazado 823" class="cls-8" d="M191.19,81.37a3.5,3.5,0,0,1-.46.14l-1.33.33c-1.14.28-2.81.68-4.91,1.14a110.71,110.71,0,0,1-16.38,2.56,98.62,98.62,0,0,1-16.57-.49c-2.12-.22-3.82-.43-5-.61l-1.35-.2-.47-.08a1.93,1.93,0,0,1,.48,0l1.36.13c1.17.12,2.88.31,5,.5a106.26,106.26,0,0,0,16.54.39,121.94,121.94,0,0,0,16.35-2.46l4.91-1,1.34-.28A2.1,2.1,0,0,1,191.19,81.37Z"/><path id="Trazado_824" data-name="Trazado 824" class="cls-8" d="M193,90.34a6.65,6.65,0,0,1-1.51.42,30.72,30.72,0,0,1-7.57.59,6.47,6.47,0,0,1-1.58-.16,9.24,9.24,0,0,1,1.58,0c1,0,2.29,0,3.77-.15s2.79-.29,3.74-.44A10.39,10.39,0,0,1,193,90.34Z"/><path id="Trazado_825" data-name="Trazado 825" class="cls-8" d="M182.09,95.33a1.57,1.57,0,0,1-.31.08l-.91.18c-.78.13-1.93.32-3.34.52-2.84.41-6.75.82-11.13,1s-8.33.1-11.18-.05c-1.43-.08-2.58-.16-3.38-.24l-.91-.09a1.65,1.65,0,0,1-.32-.06,1.71,1.71,0,0,1,.32,0h.92l3.38.14c2.85.09,6.8.13,11.15,0s8.28-.57,11.12-.91l3.35-.43.91-.11A.92.92,0,0,1,182.09,95.33Z"/><path id="Trazado_826" data-name="Trazado 826" class="cls-8" d="M194.78,99.38a7.22,7.22,0,0,1-1.56.61,24.21,24.21,0,0,1-3.95.87,25.82,25.82,0,0,1-4,.25,6.27,6.27,0,0,1-1.67-.16,13.33,13.33,0,0,1,1.67-.07,37.87,37.87,0,0,0,4-.33,37.22,37.22,0,0,0,3.92-.78A11.7,11.7,0,0,1,194.78,99.38Z"/><path id="Trazado_827" data-name="Trazado 827" class="cls-8" d="M197.08,107.92a8.27,8.27,0,0,1-1.66.61,31.13,31.13,0,0,1-4.16,1A30.58,30.58,0,0,1,187,110a8,8,0,0,1-1.77,0,11.53,11.53,0,0,1,1.76-.17c1.09-.09,2.58-.25,4.22-.53a42.2,42.2,0,0,0,4.16-.9A12.62,12.62,0,0,1,197.08,107.92Z"/><path id="Trazado_828" data-name="Trazado 828" class="cls-8" d="M183,108.25a1.6,1.6,0,0,1-.31.1l-.89.23c-.77.2-1.9.44-3.31.7s-3.07.49-5,.68-4,.29-6.14.3-4.26-.14-6.14-.3-3.57-.43-5-.69-2.54-.5-3.31-.7l-.89-.23a1.51,1.51,0,0,1-.3-.1.82.82,0,0,1,.31,0l.91.18c.78.16,1.91.37,3.32.62s3.07.44,5,.61,3.94.27,6.11.28,4.24-.12,6.14-.27,3.55-.38,5-.62,2.54-.43,3.32-.61l.9-.18A1.53,1.53,0,0,1,183,108.25Z"/><path id="Trazado_829" data-name="Trazado 829" class="cls-8" d="M140.91,92.8a6,6,0,0,1,1.33-.19l1.44-.13.85-.08.45,0h.42s0,0-.09.07c.25-.17.08,0,.14-.08h.46l.45,0,.86,0,1.45,0a5.91,5.91,0,0,1,1.33,0,4.51,4.51,0,0,1-1.32.22l-1.44.12-.85.06-.45,0h-.43l.12-.08c-.1.11-.1.07-.11.09h-.46l-.45,0-.86,0-1.45.07A5,5,0,0,1,140.91,92.8Z"/><path id="Trazado_830" data-name="Trazado 830" class="cls-8" d="M150.21,105.47s-.51-.61-1.4-1.51a29,29,0,0,0-3.76-3.24c-1.57-1.15-3.07-2.09-4.14-2.74a19.84,19.84,0,0,1-1.76-1.09,3.28,3.28,0,0,1,.52.2c.32.14.79.38,1.35.69a39.53,39.53,0,0,1,4.22,2.68A24.21,24.21,0,0,1,149,103.8a9.83,9.83,0,0,1,.94,1.19A2,2,0,0,1,150.21,105.47Z"/><path id="Trazado_831" data-name="Trazado 831" class="cls-8" d="M141.86,110.93a18.32,18.32,0,0,1-1.05-1.69c-.62-1-1.56-2.45-2.59-4s-1.91-3-2.5-4.11c-.3-.53-.52-1-.68-1.3a2.08,2.08,0,0,1-.19-.49A14.71,14.71,0,0,1,135.9,101c.62,1,1.57,2.46,2.59,4s1.92,3,2.51,4.1c.3.54.52,1,.66,1.3A1.81,1.81,0,0,1,141.86,110.93Z"/><path id="Trazado_832" data-name="Trazado 832" class="cls-3" d="M169.14,43.79l1.69,21.72a6.93,6.93,0,0,1-6.36,7.43h0a6.91,6.91,0,0,1-7.31-5.79c-.31-1.89-.55-3.45-.55-3.45s-5.53,0-6.45-5.44c-.43-2.61-.88-8.07-1.23-13a10.23,10.23,0,0,1,8.66-10.82l.53-.08a10.15,10.15,0,0,1,11,9.18,2.45,2.45,0,0,1,0,.27Z"/><path id="Trazado_833" data-name="Trazado 833" class="cls-2" d="M152,48.29a.78.78,0,0,0,.87.67.75.75,0,0,0,.69-.81h0a.78.78,0,0,0-.86-.67.75.75,0,0,0-.7.81Z"/><path id="Trazado_834" data-name="Trazado 834" class="cls-2" d="M150.46,47.72c.11.1.61-.43,1.47-.56s1.5.2,1.57.08-.08-.21-.38-.36a2.15,2.15,0,0,0-2.43.38C150.47,47.49,150.42,47.69,150.46,47.72Z"/><path id="Trazado_835" data-name="Trazado 835" class="cls-2" d="M160.2,47.07a.77.77,0,0,0,.86.67.75.75,0,0,0,.7-.81h0a.79.79,0,0,0-.87-.67.74.74,0,0,0-.69.81Z"/><path id="Trazado_836" data-name="Trazado 836" class="cls-2" d="M158.67,46.64c.11.08.62-.45,1.47-.57s1.51.2,1.59.09-.1-.22-.39-.38a2.18,2.18,0,0,0-1.28-.19,2.08,2.08,0,0,0-1.15.58C158.68,46.37,158.62,46.59,158.67,46.64Z"/><path id="Trazado_837" data-name="Trazado 837" class="cls-2" d="M156.59,53.27a5.39,5.39,0,0,0-1.39,0c-.21,0-.42,0-.48-.14a1.2,1.2,0,0,1,0-.65l.39-1.72a27.87,27.87,0,0,0,.77-4.44,28.62,28.62,0,0,0-1.13,4.37l-.35,1.73a1.24,1.24,0,0,0,0,.85.57.57,0,0,0,.4.26h.37a5.45,5.45,0,0,0,1.39-.22Z"/><path id="Trazado_838" data-name="Trazado 838" class="cls-2" d="M158,42.77c.12.21.94,0,1.93-.05s1.84.12,1.93-.11-.14-.3-.48-.47a3.4,3.4,0,0,0-2.94.13C158.07,42.46,157.91,42.69,158,42.77Z"/><path id="Trazado_839" data-name="Trazado 839" class="cls-2" d="M150.42,45.27c.17.16.72-.12,1.41-.24s1.29-.06,1.39-.28-.07-.28-.35-.42a2.07,2.07,0,0,0-2.27.42C150.37,45,150.32,45.19,150.42,45.27Z"/><path id="Trazado_840" data-name="Trazado 840" class="cls-2" d="M162.35,38.74h0a4.26,4.26,0,0,1,2,2.52l0,.11c.44,1.51.65,3.07,1.1,4.6a7.13,7.13,0,0,0,2.55,3.89c.54.37,1.42.54,1.72,0a1.34,1.34,0,0,0,.09-.74c-.28-3.77.23-7.24-.37-11.15a3.33,3.33,0,0,0-1.77-2.45c-.91-.46-2-.92-2.85-.35a15.32,15.32,0,0,0-2.35,3.28"/><path id="Trazado_841" data-name="Trazado 841" class="cls-3" d="M167.69,46.52c.08-.05,3.55-1.67,4,2.06a2.82,2.82,0,0,1-3.41,3.3C168.26,51.78,167.69,46.52,167.69,46.52Z"/><path id="Trazado_842" data-name="Trazado 842" class="cls-9" d="M169.25,50.33l.19.08a.64.64,0,0,0,.49,0,1.63,1.63,0,0,0,.57-1.53,2.13,2.13,0,0,0-.3-.91.73.73,0,0,0-.54-.44.33.33,0,0,0-.36.23.19.19,0,0,0,0,.18.2.2,0,0,1-.08-.2.42.42,0,0,1,.12-.26.51.51,0,0,1,.34-.13.91.91,0,0,1,.75.5,2.15,2.15,0,0,1,.35,1,1.72,1.72,0,0,1-.75,1.73.75.75,0,0,1-.62,0C169.27,50.42,169.24,50.34,169.25,50.33Z"/><path id="Trazado_843" data-name="Trazado 843" class="cls-2" d="M165.11,35.69c.69-1.61-2.14-3.36-4.06-3.68s-4.19,1-5.92,1.84a10.08,10.08,0,0,1-3.37,1.4,8.43,8.43,0,0,1-2.45-.24,6,6,0,0,0-2.46-.11,2.29,2.29,0,0,0-1.76,1.54,1.41,1.41,0,0,0,1,1.71l.19,0a1.84,1.84,0,1,0,0,3.44c-.59-.32-1.3.47-1.13,1.12A1.94,1.94,0,0,0,146.67,44a6.92,6.92,0,0,0,4.91-.84c1.5-.78,2.87-1.84,4.37-2.66s4-2.26,5.68-1.95c1.22.24,2.26,1.53,2.87,1.11a2.26,2.26,0,0,0,.93-1.84,6.52,6.52,0,0,0-.4-2.1"/><path id="Trazado_844" data-name="Trazado 844" class="cls-2" d="M167.8,47.15a33.16,33.16,0,0,1,.79,5.86,11,11,0,0,1-1.32,5.71,13.16,13.16,0,0,1-5.52,5.56,11.74,11.74,0,0,1-8.66.33,4.08,4.08,0,0,1-2.43-3.32,2.84,2.84,0,0,1-2.15-1.91,2.25,2.25,0,0,1,.37-2.28c-.94-.42-.65-1.22-.57-1.79s.82-.93,1.42-1a4.28,4.28,0,0,1,1.76.41,6.2,6.2,0,0,0,1.75.52c2,.13,3.5-2,5.48-2.43,1.79-.38,3.75.69,5.45,0a3.66,3.66,0,0,0,2-2.25c.34-1-.68-4-.71-5"/><g id="Grupo_46" data-name="Grupo 46" class="cls-5"><path id="Trazado_845" data-name="Trazado 845" class="cls-4" d="M155.65,59.07l.4-.24a2.53,2.53,0,0,1,1-.32,2.49,2.49,0,0,1,1.08.18,4.1,4.1,0,0,0,.43.18s-.11-.16-.38-.3a2.11,2.11,0,0,0-1.13-.23,2.14,2.14,0,0,0-1.09.38C155.74,58.9,155.64,59.06,155.65,59.07Z"/></g><path id="Trazado_846" data-name="Trazado 846" class="cls-4" d="M163.56,63.2a.74.74,0,0,0-.21.13,5.73,5.73,0,0,1-.62.38,12.23,12.23,0,0,1-2.41,1,10.94,10.94,0,0,1-1.76.41,9.59,9.59,0,0,1-2.07.11,7.76,7.76,0,0,1-2.24-.4,6.27,6.27,0,0,1-2.15-1.14,3.66,3.66,0,0,1-1.34-2.46v-.08h-.08a3,3,0,0,1-1.32-.61,3.94,3.94,0,0,1-.5-.5,2.34,2.34,0,0,1-.31-.61,2.57,2.57,0,0,1,.3-2.33l0-.06,0,0a1.53,1.53,0,0,1-.58-1.38,1.47,1.47,0,0,1,.61-1,1.64,1.64,0,0,1,.7-.28h.27a1.22,1.22,0,0,0-.27,0,1.62,1.62,0,0,0-.74.27,1.53,1.53,0,0,0-.68,1,1.62,1.62,0,0,0,.62,1.5V57.1a2.7,2.7,0,0,0-.35,2.46,2.16,2.16,0,0,0,.34.61,3.72,3.72,0,0,0,.52.53,3.06,3.06,0,0,0,1.41.66l-.08-.09A3.85,3.85,0,0,0,152,63.85,6,6,0,0,0,154.23,65a7.77,7.77,0,0,0,2.29.41,9.85,9.85,0,0,0,2.1-.14,10.87,10.87,0,0,0,1.77-.43,11.24,11.24,0,0,0,2.42-1.1,5,5,0,0,0,.61-.41Z"/><path id="Trazado_847" data-name="Trazado 847" class="cls-9" d="M157.07,55.92a.94.94,0,0,0-.32,1.3.93.93,0,0,0,1.29.32,1,1,0,0,0,.36-.39,1.61,1.61,0,0,0,.15-.61,1.08,1.08,0,0,0-.27-.68,1,1,0,0,0-1.16.07"/><path id="Trazado_848" data-name="Trazado 848" class="cls-4" d="M156.72,57.48a2.16,2.16,0,0,0,.67.12,1,1,0,0,0,.61-.27,1.17,1.17,0,0,0,.33-.76.74.74,0,0,0-.34-.68,1.07,1.07,0,0,0-.68-.11c-.42.06-.7.16-.71.11s.21-.2.67-.33a1.27,1.27,0,0,1,.86.07,1,1,0,0,1,.52.94,1.37,1.37,0,0,1-.44,1,1.18,1.18,0,0,1-.82.29C156.88,57.79,156.68,57.49,156.72,57.48Z"/><path id="Trazado_849" data-name="Trazado 849" class="cls-4" d="M163.92,36.77a5.47,5.47,0,0,0-.55-.89,3.62,3.62,0,0,0-2.45-1.29,3.22,3.22,0,0,0-1.85.41,5.62,5.62,0,0,0-1.65,1.5c-1,1.23-1.62,3-3.07,4.3a5.23,5.23,0,0,1-5.11.92,4.38,4.38,0,0,1-1.94-1.32,2.08,2.08,0,0,1-.4-2,1.37,1.37,0,0,1,1.37-.94,1,1,0,0,1,.76,1.58.48.48,0,0,1-.23.17A.68.68,0,0,0,149,39a.91.91,0,0,0,.09-.72.84.84,0,0,0-.84-.62,1.23,1.23,0,0,0-1.15.84,1.84,1.84,0,0,0,.4,1.75,4.19,4.19,0,0,0,1.84,1.23,5,5,0,0,0,4.78-1c1.38-1.22,2-2.94,3.08-4.22a5.66,5.66,0,0,1,1.75-1.55,3.4,3.4,0,0,1,2-.41,3.61,3.61,0,0,1,2.51,1.44A2.23,2.23,0,0,1,163.92,36.77Z"/><path id="Trazado_850" data-name="Trazado 850" class="cls-4" d="M169.4,40.16c-.05,0,0-.42-.15-1a3.19,3.19,0,0,0-3.79-2.46c-.62.12-1,.34-1,.3a1.69,1.69,0,0,1,1-.52,3.22,3.22,0,0,1,4,2.24c0,.13.06.26.08.39a1.8,1.8,0,0,1,0,1.1Z"/><path id="Trazado_851" data-name="Trazado 851" class="cls-8" d="M187.5,120.42a1.09,1.09,0,0,1-.36,0h-1c-.9,0-2.2,0-3.82,0-3.22-.09-7.67-.37-12.58-.62-2.45-.11-4.79-.18-6.93-.22s-4,0-5.64.08c-.81,0-1.54.07-2.18.11s-1.18.08-1.63.14l-1,.08a1.09,1.09,0,0,1-.36,0,2,2,0,0,1,.35-.07l1-.13c.45-.07,1-.14,1.63-.19s1.37-.13,2.17-.16c1.61-.11,3.53-.13,5.67-.14s4.48.07,6.94.19l12.57.7c1.61.08,2.91.14,3.81.16l1,0A1.45,1.45,0,0,1,187.5,120.42Z"/><path id="Trazado_852" data-name="Trazado 852" class="cls-2" d="M186.64,117a1.21,1.21,0,0,1-.11-.3l-.27-.88c-.22-.77-.53-1.89-.88-3.27a67,67,0,0,1-2.08-11c-.48-4.34-.75-8.28-.91-11.13-.08-1.43-.14-2.58-.16-3.38v-.92a1.71,1.71,0,0,1,0-.32,1.13,1.13,0,0,1,.05.32c0,.24,0,.54.08.91.06.84.15,2,.26,3.37.21,2.85.53,6.79,1,11.11a74,74,0,0,0,2,11c.32,1.34.61,2.45.78,3.29.09.35.16.65.21.89A1.19,1.19,0,0,1,186.64,117Z"/><path id="Trazado_853" data-name="Trazado 853" class="cls-4" d="M171,138.83a.84.84,0,0,1-.54.16,1.92,1.92,0,0,1-1.38-.61,3.79,3.79,0,0,1-.78-2.12c-.08-.84-.15-1.75-.24-2.7-.15-1.92-.27-3.66-.35-4.92a13.74,13.74,0,0,1,0-2,12.43,12.43,0,0,1,.28,2c.14,1.22.29,3,.44,4.91.08,1,.15,1.84.22,2.69a3.49,3.49,0,0,0,.66,2,1.79,1.79,0,0,0,1.22.67A2.73,2.73,0,0,0,171,138.83Z"/><path id="Trazado_854" data-name="Trazado 854" class="cls-4" d="M189.84,132a1.63,1.63,0,0,1-.39.35,4.16,4.16,0,0,1-1.29.62,5.84,5.84,0,0,1-4.57-.73,7.79,7.79,0,0,1-2.89-3.64,8.11,8.11,0,0,1-.42-1.35,1.75,1.75,0,0,1-.07-.51c.06,0,.22.7.7,1.78a8,8,0,0,0,2.86,3.46,5.88,5.88,0,0,0,4.33.78A7.29,7.29,0,0,0,189.84,132Z"/><path id="Trazado_855" data-name="Trazado 855" class="cls-4" d="M170.87,127.05s-.27.1-.43.46a.72.72,0,0,0,0,.61.64.64,0,0,0,.89.19.64.64,0,0,0,.25-.31.74.74,0,0,0-.13-.61c-.23-.31-.51-.31-.51-.36s.33-.14.68.21a.94.94,0,0,1,.24.8.92.92,0,0,1-1.69.17.88.88,0,0,1,.07-.83C170.51,127,170.89,127,170.87,127.05Z"/><path id="Trazado_856" data-name="Trazado 856" class="cls-4" d="M157.44,126.8a3.7,3.7,0,0,1,.37,1.52,6.64,6.64,0,0,1-3.43,6.38,3.56,3.56,0,0,1-1.47.52c0-.05.55-.22,1.35-.72a6.94,6.94,0,0,0,3.32-6.14C157.56,127.37,157.38,126.8,157.44,126.8Z"/><path id="Trazado_857" data-name="Trazado 857" class="cls-2" d="M146.39,62.61a26.88,26.88,0,0,1-5-3.19A27.22,27.22,0,0,1,146.39,62.61Z"/><path id="Trazado_858" data-name="Trazado 858" class="cls-2" d="M146.62,56.6a9.67,9.67,0,0,1-2.7.69,10,10,0,0,1-2.78.24,14.84,14.84,0,0,1,2.73-.55A16,16,0,0,1,146.62,56.6Z"/><path id="Trazado_859" data-name="Trazado 859" class="cls-2" d="M144.82,52.28a24.67,24.67,0,0,1-1.78,1.9A12.46,12.46,0,0,1,141.13,56a10.44,10.44,0,0,1,1.67-2A7.07,7.07,0,0,1,144.82,52.28Z"/><path id="Trazado_860" data-name="Trazado 860" class="cls-2" d="M112.35,59.61a14.92,14.92,0,0,1,1.78,4.54,5,5,0,0,1-1.37,4.5c-1,.88-2.45,1.14-3.53,1.94a7.19,7.19,0,0,0-2.42,5.23A25.83,25.83,0,0,1,106,81.7c-.84,2.43-2.84,4.35-3.45,6.83a6.51,6.51,0,0,0,9.55,7.2c3.15-1.8,4.22-5.75,5-9.3,2.15-9.82,4.29-20.05,2.25-29.92"/><path id="Trazado_861" data-name="Trazado 861" class="cls-2" d="M130.56,74.09a7.89,7.89,0,0,0,7,.91,4.4,4.4,0,0,0,1.7-1,4.22,4.22,0,0,0,.45-4.91c-.58-1-1.56-1.69-1.93-2.75a10.54,10.54,0,0,1,0-3.63A6.3,6.3,0,0,0,134.45,57L129,62.76l1.08,11Z"/><path id="Trazado_862" data-name="Trazado 862" class="cls-2" d="M114.08,44.74c.58-1.78,3.53-3.39,5.15-4.3,2.45-1.39,4.67-1.12,6,.12,2.5-2.1,5.79-4.11,8.95-3.28s5.75,4,5.13,7.25c-.33,1.89-1.65,3.59-1.57,5.52a10.11,10.11,0,0,0,1.3,3.69,4.81,4.81,0,0,1,.48,3.78c-.49,1.22-1.6,1.85-2.21,2.9a14.76,14.76,0,0,0-1,2.81c-1.19,3.49-5.3,5.44-8.93,4.83a12.23,12.23,0,0,1-8.37-6.6,25.3,25.3,0,0,1-2.45-10.68"/><path id="Trazado_863" data-name="Trazado 863" class="cls-10" d="M116.8,47.26l.72,29.05a6.17,6.17,0,0,0,6.8,5.46h.1a6.51,6.51,0,0,0,6.13-6.65c-.22-3.56-.4-7.25-.4-7.25s4.51-1,5.07-7a65.57,65.57,0,0,0-.73-12.12,6,6,0,0,0-6.69-5.14l-.23,0"/><path id="Trazado_864" data-name="Trazado 864" class="cls-2" d="M133.89,52.91a.75.75,0,0,1-.66.83h0a.74.74,0,0,1-.83-.6h0a.76.76,0,0,1,.68-.82A.72.72,0,0,1,133.89,52.91Z"/><path id="Trazado_865" data-name="Trazado 865" class="cls-2" d="M133.88,52.13c-.09.1-.69-.29-1.51-.23s-1.4.5-1.49.4,0-.23.29-.43a2.05,2.05,0,0,1,1.19-.45,1.88,1.88,0,0,1,1.22.31C133.84,51.9,133.93,52.07,133.88,52.13Z"/><path id="Trazado_866" data-name="Trazado 866" class="cls-2" d="M126,53.77a.78.78,0,0,1-.69.82.73.73,0,0,1-.83-.62.76.76,0,0,1,.67-.84h0a.75.75,0,0,1,.84.63v0Z"/><path id="Trazado_867" data-name="Trazado 867" class="cls-2" d="M125.86,52.8c-.09.1-.7-.29-1.52-.23s-1.39.5-1.48.41,0-.23.29-.44a2.12,2.12,0,0,1,1.18-.45,2.06,2.06,0,0,1,1.23.31A.79.79,0,0,1,125.86,52.8Z"/><path id="Trazado_868" data-name="Trazado 868" class="cls-2" d="M129.2,58.69a5.43,5.43,0,0,1,1.32-.33c.21,0,.4-.09.43-.24a1.1,1.1,0,0,0-.19-.61L130,56a29,29,0,0,1-1.66-4.09,27.44,27.44,0,0,1,2,3.94l.69,1.56a1.14,1.14,0,0,1,.16.82.55.55,0,0,1-.32.33,1.36,1.36,0,0,1-.35.07A5.59,5.59,0,0,1,129.2,58.69Z"/><path id="Trazado_869" data-name="Trazado 869" class="cls-11" d="M130.16,67.77a15.15,15.15,0,0,1-8.1-1.61s2.26,4,8.16,3.07Z"/><path id="Trazado_870" data-name="Trazado 870" class="cls-2" d="M125.86,49.57c-.07.23-.9.18-1.84.36s-1.72.49-1.85.29.06-.31.36-.55a3.29,3.29,0,0,1,2.82-.49C125.67,49.3,125.86,49.44,125.86,49.57Z"/><path id="Trazado_871" data-name="Trazado 871" class="cls-2" d="M133.43,49.77c-.14.2-.71,0-1.39.08s-1.23.2-1.39,0,0-.28.25-.47a2,2,0,0,1,2.24-.08C133.39,49.49,133.48,49.68,133.43,49.77Z"/><path id="Trazado_872" data-name="Trazado 872" class="cls-11" d="M129.19,60.23a2.54,2.54,0,0,1,1.51.53,1,1,0,0,1,.38.38.87.87,0,0,1-.08.72,1.38,1.38,0,0,1-1.84.57,1.32,1.32,0,0,1-.58-1.6,1.19,1.19,0,0,1,.62-.61"/><circle id="Elipse_20" data-name="Elipse 20" class="cls-11" cx="126.06" cy="56.27" r="0.22"/><path id="Trazado_873" data-name="Trazado 873" class="cls-11" d="M132.43,55.2a.22.22,0,0,1-.22.22.21.21,0,0,1-.21-.22.21.21,0,0,1,.21-.21h0A.21.21,0,0,1,132.43,55.2Z"/><path id="Trazado_874" data-name="Trazado 874" class="cls-11" d="M133.63,55.77a.21.21,0,0,1-.21.22.22.22,0,1,1,0-.44h0A.22.22,0,0,1,133.63,55.77Z"/><path id="Trazado_875" data-name="Trazado 875" class="cls-11" d="M134,54.86a.22.22,0,0,1-.18.25.23.23,0,0,1-.26-.18.22.22,0,0,1,.19-.25h0A.22.22,0,0,1,134,54.86Z"/><path id="Trazado_876" data-name="Trazado 876" class="cls-11" d="M125.28,57.23a.22.22,0,0,1-.18.25.23.23,0,0,1-.26-.18.22.22,0,0,1,.19-.25h0A.22.22,0,0,1,125.28,57.23Z"/><path id="Trazado_877" data-name="Trazado 877" class="cls-11" d="M124.46,56.36a.22.22,0,0,1-.22.22.22.22,0,0,1-.22-.22.22.22,0,0,1,.22-.23.22.22,0,0,1,.22.23Z"/><path id="Trazado_878" data-name="Trazado 878" class="cls-2" d="M127.28,42.64a12.72,12.72,0,0,1-8.6,10.44c1.47,2.11.54,6.14.58,9.49,0,3.11,0,4-2,5.59-1.67.41-2.63-4.17-3.87-5.44a6.58,6.58,0,0,1-2.33-4.63c0-.84.36-1.63.41-2.46a12,12,0,0,0-.41-2.73,10.45,10.45,0,0,1,4.86-10.44,11.46,11.46,0,0,1,11.67.19"/><path id="Trazado_879" data-name="Trazado 879" class="cls-4" d="M111.63,55.18a.84.84,0,0,1-.15-.18,1.69,1.69,0,0,1-.28-.57,3.5,3.5,0,0,1,.35-2.31,4.46,4.46,0,0,1,.94-1.33,8.78,8.78,0,0,1,1.43-1.22,7.58,7.58,0,0,1,1.84-.93c.68-.23,1.4-.41,2.14-.62s1.45-.36,2.12-.61a13.49,13.49,0,0,0,1.88-.81,13.89,13.89,0,0,0,2.83-2,15.3,15.3,0,0,0,1.6-1.72l.39-.51.13-.18a.76.76,0,0,1-.12.19,5.61,5.61,0,0,1-.36.53,12.42,12.42,0,0,1-1.57,1.75,13.5,13.5,0,0,1-2.84,2,12.18,12.18,0,0,1-1.89.83c-.68.24-1.4.43-2.13.62s-1.43.37-2.13.61a7.85,7.85,0,0,0-1.84.9,9.45,9.45,0,0,0-1.41,1.19,4.41,4.41,0,0,0-.94,1.29,3.49,3.49,0,0,0-.39,2.26A2.14,2.14,0,0,0,111.63,55.18Z"/><path id="Trazado_880" data-name="Trazado 880" class="cls-4" d="M126.85,42.25l-.12.15-.37.4a18,18,0,0,1-1.52,1.38,10.25,10.25,0,0,1-2.59,1.57,10.66,10.66,0,0,1-1.74.47c-.61.12-1.22.22-1.89.32a21,21,0,0,0-3.61.75,7.92,7.92,0,0,0-2.62,1.45,5.17,5.17,0,0,0-1.26,1.57,3.92,3.92,0,0,0-.22.51,1.78,1.78,0,0,1-.07.17.61.61,0,0,1,0-.18,3.24,3.24,0,0,1,.19-.52,4.88,4.88,0,0,1,1.23-1.62,8.07,8.07,0,0,1,2.63-1.49,19.82,19.82,0,0,1,3.64-.77l1.89-.31a11.37,11.37,0,0,0,1.71-.46,10.34,10.34,0,0,0,2.58-1.53,18.61,18.61,0,0,0,1.54-1.34l.39-.38Z"/><path id="Trazado_881" data-name="Trazado 881" class="cls-4" d="M133.51,37.06a9.79,9.79,0,0,0-1.31.26,6.26,6.26,0,0,0-.61.21c-.25.09-.48.18-.72.29A7.79,7.79,0,0,0,128.15,40a7,7,0,0,0-.46.61c-.13.2-.24.4-.34.57-.38.73-.52,1.23-.55,1.23a2,2,0,0,1,.09-.35,2.7,2.7,0,0,1,.14-.4c.07-.15.13-.33.23-.51a5.36,5.36,0,0,1,.34-.62,5.24,5.24,0,0,1,.44-.61,7.69,7.69,0,0,1,2.78-2.21,5.7,5.7,0,0,1,.72-.29,4.84,4.84,0,0,1,.65-.19,3.33,3.33,0,0,1,.55-.1,6.3,6.3,0,0,1,.77-.07Z"/><path id="Trazado_882" data-name="Trazado 882" class="cls-4" d="M137.72,59.68l0,0,.12-.14c.11-.14.28-.31.46-.57a3.11,3.11,0,0,0,.53-1,1.7,1.7,0,0,0,.06-.71,1.94,1.94,0,0,0-.27-.74A13.73,13.73,0,0,0,137.49,55a8.39,8.39,0,0,1-1.77-4.14,18.24,18.24,0,0,1-.06-2.56,8.85,8.85,0,0,0-.24-2.51,5.14,5.14,0,0,0-2.81-3.27,4.78,4.78,0,0,0-1.79-.41,5.32,5.32,0,0,0-2.6.57c-.21.12-.41.24-.61.38l-.16.11,0,0a3.86,3.86,0,0,1,.81-.58,5.23,5.23,0,0,1,2.63-.61,4.87,4.87,0,0,1,1.84.4,5.33,5.33,0,0,1,1.75,1.26,5.06,5.06,0,0,1,1.17,2.08,9.06,9.06,0,0,1,.24,2.54,16.55,16.55,0,0,0,.06,2.54,8.28,8.28,0,0,0,1.7,4.1,11.79,11.79,0,0,1,1.17,1.47,2,2,0,0,1,.27.78,1.69,1.69,0,0,1-.07.74,2.89,2.89,0,0,1-.56,1,6.06,6.06,0,0,1-.47.56l-.14.13Z"/><path id="Trazado_883" data-name="Trazado 883" class="cls-2" d="M111.94,55.51h-.07l-.18-.09A6.22,6.22,0,0,1,111,55a5.66,5.66,0,0,1-1.69-2.35,5.45,5.45,0,0,1,.23-4.23,5.3,5.3,0,0,1,1.62-2,7.34,7.34,0,0,1,2.45-1.23,13.79,13.79,0,0,1,2.7-.49c.88-.09,1.73-.12,2.54-.18a22.1,22.1,0,0,0,2.28-.26,9.82,9.82,0,0,0,1.91-.52,6.69,6.69,0,0,0,2.46-1.52,7.49,7.49,0,0,0,.51-.61l.12-.17,0-.06a3.81,3.81,0,0,1-.61.86,6.79,6.79,0,0,1-2.47,1.58,9.22,9.22,0,0,1-1.93.54,22.32,22.32,0,0,1-2.29.27,23.9,23.9,0,0,0-5.2.67,7.72,7.72,0,0,0-2.43,1.18,5.41,5.41,0,0,0-1.57,1.92,5.32,5.32,0,0,0-.25,4.14,5.85,5.85,0,0,0,2.24,2.81l.17.1Z"/><path id="Trazado_884" data-name="Trazado 884" class="cls-2" d="M129.44,62.47s-.28,0-.61-.29a1.37,1.37,0,0,1-.42-.66,1.23,1.23,0,0,1,.12-1,1,1,0,0,1,.69-.45,1.47,1.47,0,0,1,.69.07,2.1,2.1,0,0,1,.7.43h0v.11s0,0-.07-.09h0a5.86,5.86,0,0,0-.73-.26.89.89,0,0,0-1,.31,1,1,0,0,0-.12.72A1.45,1.45,0,0,0,129,62C129.23,62.33,129.46,62.43,129.44,62.47Z"/><path id="Trazado_885" data-name="Trazado 885" class="cls-4" d="M110.83,76.8a2.13,2.13,0,0,1,.18-.41l.54-1.16c.45-1,1.16-2.46,1.84-4.3a4.65,4.65,0,0,0-.12-3.1,6.13,6.13,0,0,0-.86-1.54,6.8,6.8,0,0,0-.61-.7,5.14,5.14,0,0,1-.65-.75,7,7,0,0,1-1.4-3.9A6.82,6.82,0,0,1,111,56.68,7.12,7.12,0,0,1,114.57,54c1.37-.47,2.74-.69,3.94-1.18a13.23,13.23,0,0,0,5.53-4,13.81,13.81,0,0,0,2.31-4c.37-1,.47-1.66.51-1.64a2.24,2.24,0,0,1-.07.44,11.14,11.14,0,0,1-.32,1.23,13.56,13.56,0,0,1-7.82,8.3c-1.23.51-2.62.73-4,1.23a6.81,6.81,0,0,0-3.41,2.54A6.57,6.57,0,0,0,110.06,61a6.83,6.83,0,0,0,1.32,3.74,6.17,6.17,0,0,0,.62.72,7.27,7.27,0,0,1,.61.74,6.63,6.63,0,0,1,.88,1.61,4.81,4.81,0,0,1,.09,3.26c-.75,1.85-1.48,3.3-2,4.3a12.47,12.47,0,0,1-.61,1.14A3.24,3.24,0,0,1,110.83,76.8Z"/><path id="Trazado_886" data-name="Trazado 886" class="cls-7" d="M120,70.93s-6,3.12-8.34,4.55c-7,4.35-5.24,13.89-4.63,16.33s3.86,18.7,3.86,18.7l-1.61,7.27,28.71,1s.84-33-.55-38S130.39,72,130.39,72C128.93,74.7,123.4,75.45,120,70.93Z"/><path id="Trazado_887" data-name="Trazado 887" class="cls-8" d="M129.22,118.24a14.45,14.45,0,0,0-4.07-3.22,7.25,7.25,0,0,0,4.07,3.22"/><path id="Trazado_888" data-name="Trazado 888" class="cls-8" d="M122.71,108.88a14.45,14.45,0,0,0-4.07-3.22,7.25,7.25,0,0,0,4.07,3.22"/><path id="Trazado_889" data-name="Trazado 889" class="cls-8" d="M134.79,117.46a14.15,14.15,0,0,0-.09-5.19,7.36,7.36,0,0,0,.09,5.19"/><path id="Trazado_890" data-name="Trazado 890" class="cls-8" d="M120.73,117.46a15.35,15.35,0,0,0-.09-5.49,7.75,7.75,0,0,0,.09,5.49"/><path id="Trazado_891" data-name="Trazado 891" class="cls-8" d="M132.76,78.8a14.32,14.32,0,0,0,.48-5.17,7.34,7.34,0,0,0-.48,5.17"/><path id="Trazado_892" data-name="Trazado 892" class="cls-8" d="M131.76,84.24a14.56,14.56,0,0,0-1.71-4.92,7.33,7.33,0,0,0,1.71,4.92"/><path id="Trazado_893" data-name="Trazado 893" class="cls-8" d="M124.9,80.22a14.58,14.58,0,0,0,1-5.1,7.3,7.3,0,0,0-1,5.1"/><path id="Trazado_894" data-name="Trazado 894" class="cls-8" d="M129.36,113a14.36,14.36,0,0,0-1.72-4.92,7.43,7.43,0,0,0,1.72,4.92"/><path id="Trazado_895" data-name="Trazado 895" class="cls-8" d="M114.27,105.69a14.6,14.6,0,0,0-1.72-4.91,7.28,7.28,0,0,0,1.72,4.91"/><path id="Trazado_896" data-name="Trazado 896" class="cls-8" d="M134,89.88a14.26,14.26,0,0,0-5-1.4,7.29,7.29,0,0,0,5,1.4"/><path id="Trazado_897" data-name="Trazado 897" class="cls-8" d="M116.84,111.7a15.39,15.39,0,0,0-5.42.86,7.71,7.71,0,0,0,5.42-.86"/><path id="Trazado_898" data-name="Trazado 898" class="cls-2" d="M121.2,76.93c-.08,0-.17-.41,0-.87s.62-.61.65-.56-.19.33-.36.71S121.3,76.93,121.2,76.93Z"/><path id="Trazado_899" data-name="Trazado 899" class="cls-2" d="M117.61,75.55c-.07,0,.09-.46.5-.81s.86-.45.88-.37-.31.29-.67.61S117.69,75.6,117.61,75.55Z"/><path id="Trazado_900" data-name="Trazado 900" class="cls-2" d="M116.18,74c-.08,0,.11-.49.62-.74s1-.13,1,0-.4.12-.82.33S116.26,74.09,116.18,74Z"/><path id="Trazado_901" data-name="Trazado 901" class="cls-2" d="M119.1,59.46c-.23,2.06,1.64,3.8,1.85,5.85a9.34,9.34,0,0,1-.62,3.43,5.05,5.05,0,0,0,0,3.43c.67,1.38,2.41,2.06,2.92,3.5a6,6,0,0,1,0,2.73,3.14,3.14,0,0,0,.56,2.6c.64.65,1.7.72,2.45,1.22a4.7,4.7,0,0,1,1.44,3.69c0,.69-.06,1.61-.74,1.75-.4.08-.57.27-.9,0-3.07-2.46-6.28-5.52-9.14-8.22a4.91,4.91,0,0,1-2-3.61,23.56,23.56,0,0,1,.93-2.72,8.83,8.83,0,0,0-.22-3.07,12.7,12.7,0,0,1,1.76-8.59"/><g id="Grupo_47" data-name="Grupo 47" class="cls-12"><path id="Trazado_902" data-name="Trazado 902" d="M111.46,95.73c.29.21,7.9,9.88,10.92,9.53a23.65,23.65,0,0,1,4.83-.17s5.15,3.63,8.92,3.63l-22-15.35Z"/></g><path id="Trazado_903" data-name="Trazado 903" class="cls-10" d="M139.36,72l7.3,26.26a8.82,8.82,0,0,1-11,10.29L119,100.06l5.52-10.66,11.43,6.32-3.19-21.3Z"/><path id="Trazado_904" data-name="Trazado 904" class="cls-10" d="M126.61,65.27s1.7,4,1.88,4.64a43,43,0,0,0,4.24,4.51l6.82-1.23a45.13,45.13,0,0,0-.94-5.89c-.47-1.29-1.4-7.25-1.89-7.25s-.8-.06-.92.43a8.26,8.26,0,0,0-.06,1.72s-.43-5.07-1.29-5-.68,1-.8,1.58.06-1.75-.74-1.58-.55,7.55-.55,7.55-.61-6.27-1-6.33-.67-.24-1,.37-.43,8.78-.43,8.78l-1.3-1.8S128.22,64.88,126.61,65.27Z"/><path id="Trazado_905" data-name="Trazado 905" class="cls-11" d="M132.68,74.42l-.16-.12-.43-.4c-.37-.35-.92-.86-1.6-1.54-.35-.35-.73-.73-1.13-1.16-.2-.22-.41-.44-.61-.69a3.79,3.79,0,0,1-.3-.4,2.55,2.55,0,0,1-.2-.48c-.48-1.28-1.09-2.73-1.75-4.3l0-.1.1,0a1.84,1.84,0,0,1,1.11-.14,2,2,0,0,1,1,.58c.46.61.88,1.26,1.35,1.92l-.25.08c0-2.37.07-4.92.25-7.69a6.41,6.41,0,0,1,.15-1.07,1,1,0,0,1,.35-.49.7.7,0,0,1,.66-.06,1,1,0,0,1,.26.16.53.53,0,0,1,.17.31,3.25,3.25,0,0,1,.12.54c.07.35.13.71.18,1.07.2,1.43.38,2.89.55,4.39h-.31v-.73c0-1.49,0-2.95,0-4.39a9.69,9.69,0,0,1,.3-2.15,1,1,0,0,1,.13-.27.43.43,0,0,1,.16-.14h.2a.63.63,0,0,1,.5.43,3.77,3.77,0,0,1,.21,1v.3h0a.17.17,0,0,0-.12-.06c-.13,0-.09,0-.11,0h0v-.1c0-.15,0-.32.05-.49a1.23,1.23,0,0,1,.45-1,1.39,1.39,0,0,1,.28-.12h.13a.44.44,0,0,1,.2,0,.9.9,0,0,1,.39.45,5.18,5.18,0,0,1,.31.94,25.33,25.33,0,0,1,.55,3.68h-.27a6.7,6.7,0,0,1,.1-1.84A.81.81,0,0,1,136,60a.85.85,0,0,1,.5-.1h.22a.37.37,0,0,1,.24.2,2,2,0,0,1,.19.42,30.28,30.28,0,0,1,.74,3.13c.2,1,.37,1.91.55,2.75.1.44.21.81.34,1.23s.17.75.23,1.13c.24,1.42.36,2.56.44,3.32,0,.37.06.67.08.88a1.61,1.61,0,0,1,0,.31,1.57,1.57,0,0,1-.05-.3c0-.22-.07-.51-.12-.87-.11-.77-.25-1.9-.52-3.31-.07-.36-.14-.73-.25-1.11a10.58,10.58,0,0,1-.35-1.22c-.2-.85-.38-1.78-.61-2.76a29.31,29.31,0,0,0-.77-3.07,1.73,1.73,0,0,0-.16-.37s-.08-.09-.06-.08h-.2a.47.47,0,0,0-.54.36,6.91,6.91,0,0,0-.07,1.76h-.29a26.44,26.44,0,0,0-.55-3.64,6.51,6.51,0,0,0-.3-.88.75.75,0,0,0-.21-.34h-.14a.36.36,0,0,0-.18.07,1,1,0,0,0-.32.77,1.8,1.8,0,0,1-.05.52v.13a.36.36,0,0,1,0,.09s0,0-.13.05a.17.17,0,0,1-.12-.05h0V59a.11.11,0,0,1,0-.08v-.26a3.48,3.48,0,0,0-.19-1c-.06-.13-.14-.24-.23-.24H133l0,0a.82.82,0,0,0-.09.19,9.63,9.63,0,0,0-.28,2.06c-.07,1.43-.07,2.89,0,4.37v.73h-.32c-.17-1.49-.34-3-.55-4.39,0-.35-.11-.71-.18-1.06a1.71,1.71,0,0,0-.1-.5l0-.09h0l0,0h0s-.14.12-.07.06h0l-.17-.11c-.26-.12-.51.08-.62.37a6.38,6.38,0,0,0-.13,1c-.19,2.72-.24,5.31-.29,7.66v.42l-.23-.34c-.47-.65-.9-1.33-1.33-1.9a1.69,1.69,0,0,0-.87-.51,1.48,1.48,0,0,0-1,.11l.06-.16c.65,1.6,1.23,3.07,1.71,4.34a2.54,2.54,0,0,0,.17.46c.09.13.18.26.28.38s.41.47.62.69c.4.43.76.83,1.1,1.17l1.56,1.6.4.41,0,.08Z"/><path id="Trazado_906" data-name="Trazado 906" class="cls-11" d="M134.4,65.24a16.47,16.47,0,0,1-.57-3.27,16,16,0,0,1-.25-3.31A34.63,34.63,0,0,1,134.4,65.24Z"/><path id="Trazado_907" data-name="Trazado 907" class="cls-11" d="M136.21,65.47a14.42,14.42,0,0,1-.47-4.19,7,7,0,0,1,.41,2.08A7.11,7.11,0,0,1,136.21,65.47Z"/><path id="Trazado_908" data-name="Trazado 908" class="cls-11" d="M130,70.23a5,5,0,0,1-.18-1.72,4.53,4.53,0,0,1,.13-1.72,4.55,4.55,0,0,1,.18,1.72A4.55,4.55,0,0,1,130,70.23Z"/><path id="Trazado_909" data-name="Trazado 909" class="cls-7" d="M130.48,91.45S117.3,78.91,112.06,79.12c-6.48.28-5.08,12.16-3.72,14.57,1,1.7,13.85,11,14.4,10.36Z"/><path id="Trazado_910" data-name="Trazado 910" class="cls-2" d="M129.58,92.91a1.87,1.87,0,0,1,.2-.4l.62-1.1v.1c-1.56-1.23-4.39-3.45-7.37-6.29a36.78,36.78,0,0,0-3.25-3,15.12,15.12,0,0,0-3-1.9,13.12,13.12,0,0,0-3.17-.94h.23q.33,0,.66.06a8.84,8.84,0,0,1,2.37.69A14.75,14.75,0,0,1,120,82a34.63,34.63,0,0,1,3.29,3c3,2.82,5.76,5.1,7.26,6.39l.05,0,0,.06-.71,1.06a1.31,1.31,0,0,1-.24.34Z"/><path id="Trazado_911" data-name="Trazado 911" class="cls-2" d="M122.65,103.87a3.78,3.78,0,0,1-.79-.3c-.7-.3-1.39-.64-2.06-1a31.42,31.42,0,0,1-6.19-4.36,34.34,34.34,0,0,1-2.93-3,30.16,30.16,0,0,1-2.07-2.7c-.55-.8-1-1.47-1.23-2a3.77,3.77,0,0,1-.38-.75,4.57,4.57,0,0,1,.49.69c.29.45.72,1.1,1.3,1.88s1.27,1.68,2.11,2.64A38.31,38.31,0,0,0,113.81,98a37,37,0,0,0,6.09,4.41c.84.48,1.53.85,2,1.09A4.1,4.1,0,0,1,122.65,103.87Z"/><path id="Trazado_912" data-name="Trazado 912" class="cls-8" d="M118.29,93.39a14.45,14.45,0,0,0-4.07-3.22,7.32,7.32,0,0,0,4.07,3.22"/><path id="Trazado_913" data-name="Trazado 913" class="cls-8" d="M110.61,91.59a14.37,14.37,0,0,0-.1-5.19,7.31,7.31,0,0,0,.1,5.19"/><path id="Trazado_914" data-name="Trazado 914" class="cls-8" d="M124.06,93.56a14.51,14.51,0,0,0-1.71-4.91,7.33,7.33,0,0,0,1.71,4.91"/><path id="Trazado_915" data-name="Trazado 915" class="cls-8" d="M117.83,84.53a14.1,14.1,0,0,0-5-1.4,7.33,7.33,0,0,0,5,1.4"/><path id="Trazado_916" data-name="Trazado 916" class="cls-8" d="M113,76.8A14.48,14.48,0,0,0,109.89,81,7.46,7.46,0,0,0,113,76.8"/><path id="Trazado_917" data-name="Trazado 917" class="cls-8" d="M122.79,97.8a14.44,14.44,0,0,0-5.13.82,7.24,7.24,0,0,0,5.13-.82"/><path id="Trazado_918" data-name="Trazado 918" class="cls-7" d="M84.92,242.23,81.65,257l-6,11a1.56,1.56,0,0,0,.61,2.1l.11.05h0a1.55,1.55,0,0,0,1.42-.07c2.77-1.59,12.93-7.54,13.11-8.63.21-1.26,4.48-15.35,4.48-15.35Z"/><g id="Grupo_48" data-name="Grupo 48" class="cls-5"><path id="Trazado_919" data-name="Trazado 919" class="cls-6" d="M76.42,270.08l14.77-9.69L91,261a2.3,2.3,0,0,1-.89,1.33c-1.23.87-4.58,3.2-12.28,7.68a1.52,1.52,0,0,1-1.46.06Z"/></g><g id="Grupo_49" data-name="Grupo 49" class="cls-5"><path id="Trazado_920" data-name="Trazado 920" class="cls-6" d="M89.34,254.91A.93.93,0,0,0,88.8,256a.88.88,0,0,0,1.11.54,1,1,0,0,0,.57-1.22.93.93,0,0,0-1.23-.44"/></g><path id="Trazado_921" data-name="Trazado 921" class="cls-2" d="M81.35,264.48a5,5,0,0,0-1-1.46,4.63,4.63,0,0,0-1.61-.74s.21-.1.56-.07a2.46,2.46,0,0,1,2,1.7C81.42,264.25,81.39,264.48,81.35,264.48Z"/><path id="Trazado_922" data-name="Trazado 922" class="cls-2" d="M79.81,266.17c-.09,0-.44-.55-1.14-.95a11.89,11.89,0,0,0-1.4-.54,1.74,1.74,0,0,1,1.56.25C79.64,265.42,79.9,266.17,79.81,266.17Z"/><path id="Trazado_923" data-name="Trazado 923" class="cls-2" d="M83.92,262.43a8,8,0,0,0-3.73-2.62A4.24,4.24,0,0,1,83.92,262.43Z"/><path id="Trazado_924" data-name="Trazado 924" class="cls-2" d="M85.29,258c-.07.08-.8-.46-1.84-.76s-2-.25-2-.35a3.86,3.86,0,0,1,3.79,1.1Z"/><path id="Trazado_925" data-name="Trazado 925" class="cls-2" d="M86.35,253.72a7.59,7.59,0,0,0-1.88-.85,8,8,0,0,0-2.07,0,1.12,1.12,0,0,1,.58-.29,3.38,3.38,0,0,1,3,.61C86.25,253.47,86.38,253.69,86.35,253.72Z"/><path id="Trazado_926" data-name="Trazado 926" class="cls-2" d="M84.72,252.05a1.11,1.11,0,0,1,.12-.56,3.86,3.86,0,0,1,.79-1.34,1.76,1.76,0,0,1,.94-.62.61.61,0,0,1,.65.3,1,1,0,0,1,.06.72,2.16,2.16,0,0,1-2.34,1.51,2.53,2.53,0,0,1-2.11-1.89.9.9,0,0,1,.13-.71.62.62,0,0,1,.7-.17,2.25,2.25,0,0,1,.85.74,4.6,4.6,0,0,1,.72,1.39,1.37,1.37,0,0,1,.1.57,7,7,0,0,0-1-1.81,2,2,0,0,0-.75-.61.31.31,0,0,0-.38.08.63.63,0,0,0-.07.48A2.3,2.3,0,0,0,85,251.75a1.91,1.91,0,0,0,2-1.23.72.72,0,0,0,0-.5.35.35,0,0,0-.36-.18,1.59,1.59,0,0,0-.79.53,5.75,5.75,0,0,0-1.08,1.68Z"/><path id="Trazado_927" data-name="Trazado 927" class="cls-7" d="M131,247.66l-.44,11.83s11.87,4.43,12,6.62l-23-.05-.06-18.45Z"/><g id="Grupo_50" data-name="Grupo 50" class="cls-5"><path id="Trazado_928" data-name="Trazado 928" class="cls-6" d="M123.43,258.47a1,1,0,0,0-.64,1.07.89.89,0,0,0,1,.66,1,1,0,0,0,.68-1.13.92.92,0,0,0-1.17-.56"/></g><g id="Grupo_51" data-name="Grupo 51" class="cls-5"><path id="Trazado_929" data-name="Trazado 929" class="cls-6" d="M119.57,266.06l.07-1.84,22,.73s1,.44.9,1.17Z"/></g><path id="Trazado_930" data-name="Trazado 930" class="cls-2" d="M130.91,259.37c0,.11-.57.16-1.12.52s-.85.83-.94.79.06-.7.73-1.12S130.93,259.27,130.91,259.37Z"/><path id="Trazado_931" data-name="Trazado 931" class="cls-2" d="M133.32,260.37c0,.11-.46.3-.85.78s-.49,1-.61,1-.19-.65.3-1.23S133.31,260.26,133.32,260.37Z"/><path id="Trazado_932" data-name="Trazado 932" class="cls-2" d="M134.68,263.26c-.1,0-.26-.54,0-1.15s.81-.86.86-.77-.28.42-.51.93S134.79,263.24,134.68,263.26Z"/><path id="Trazado_933" data-name="Trazado 933" class="cls-2" d="M130.71,256.66c0,.1-.56-.05-1.19,0s-1.13.24-1.19.14.41-.49,1.16-.54S130.77,256.57,130.71,256.66Z"/><g id="Grupo_52" data-name="Grupo 52" class="cls-12"><path id="Trazado_934" data-name="Trazado 934" d="M130.89,250l-.08,2.11L119.53,252v-1.89Z"/></g><path id="Trazado_935" data-name="Trazado 935" class="cls-2" d="M130.77,254.27a2.24,2.24,0,0,1-1.15,0,5.41,5.41,0,0,1-1.23-.36,5.25,5.25,0,0,1-.66-.36,1.27,1.27,0,0,1-.34-.27.46.46,0,0,1,0-.61.61.61,0,0,1,.49-.26,1.54,1.54,0,0,1,.43.06,3.52,3.52,0,0,1,.71.25,3.76,3.76,0,0,1,1.06.7c.54.49.72.91.68.94s-.31-.32-.85-.73a5,5,0,0,0-1-.58,4.6,4.6,0,0,0-.66-.2c-.24-.07-.45-.07-.51,0s0,.06,0,.14a1.18,1.18,0,0,0,.25.19,5.45,5.45,0,0,0,.62.35,6.53,6.53,0,0,0,1.11.43,7.5,7.5,0,0,1,1.13.29Z"/><path id="Trazado_936" data-name="Trazado 936" class="cls-2" d="M130.61,254.43a1.88,1.88,0,0,1-.3-1.11,3.61,3.61,0,0,1,.16-1.26,3.48,3.48,0,0,1,.29-.69,1,1,0,0,1,.74-.58.53.53,0,0,1,.48.32,1.55,1.55,0,0,1,.12.42,2.49,2.49,0,0,1,0,.77,2.73,2.73,0,0,1-.5,1.19c-.45.61-.92.73-.93.69a4.66,4.66,0,0,0,.7-.84,2.55,2.55,0,0,0,.35-1.75c0-.24-.13-.44-.22-.42a.87.87,0,0,0-.4.38,4.85,4.85,0,0,0-.29.61,4.11,4.11,0,0,0-.22,1.15C130.55,254,130.67,254.42,130.61,254.43Z"/><path id="Trazado_937" data-name="Trazado 937" class="cls-2" d="M136.41,251.05c.52-8.36,2.37-116.16,2.39-119.43,0-5.29-.81-12.77-.81-12.77l-28.71-1.06a29.66,29.66,0,0,0-8,15.76c-.69,4.46-21.69,114-21.69,114l20.82,4L122.3,146.8,119,162.66l-7.35,88.16Z"/><path id="Trazado_938" data-name="Trazado 938" class="cls-4" d="M125.55,132.26c-.36,1.73-5.59,26.87-12.43,59.68l-8.89,42.19c-1.17,5.38-2.1,9.74-2.76,12.76-.34,1.49-.62,2.66-.79,3.47l-.21.9a1.71,1.71,0,0,1-.09.3l12.44-59.68c3.47-16.47,6.61-31.38,8.89-42.18,1.16-5.38,2.1-9.74,2.76-12.77.34-1.5.62-2.66.79-3.47l.21-.89A2.81,2.81,0,0,1,125.55,132.26Z"/><path id="Trazado_939" data-name="Trazado 939" class="cls-4" d="M125.24,120.58c.05,0,0,.24.26.45a.59.59,0,0,0,.45.18.56.56,0,0,0,.45-.64.62.62,0,0,0-.12-.26.67.67,0,0,0-.47-.16c-.32,0-.44.23-.48.19s0-.3.45-.41a.88.88,0,0,1,.7.16.79.79,0,0,1,.13,1.11.78.78,0,0,1-1.11.14l-.15-.15C125,120.84,125.18,120.55,125.24,120.58Z"/><path id="Trazado_940" data-name="Trazado 940" class="cls-4" d="M117,117.86a8.44,8.44,0,0,1-.13,1.81,10.81,10.81,0,0,1-1.37,4.16,5.8,5.8,0,0,1-1.66,1.79,4.77,4.77,0,0,1-1.84.78,4.37,4.37,0,0,1-1.35,0,1.2,1.2,0,0,1-.47-.16,6.18,6.18,0,0,0,1.77-.08,5.07,5.07,0,0,0,1.72-.79,6.25,6.25,0,0,0,1.56-1.72,12,12,0,0,0,1.4-4A13.43,13.43,0,0,1,117,117.86Z"/><path id="Trazado_941" data-name="Trazado 941" class="cls-4" d="M138.47,127.58h-.41a3.05,3.05,0,0,1-1.07-.45,5,5,0,0,1-2.06-3.1,9.47,9.47,0,0,1,0-3.75,5.57,5.57,0,0,1,.36-1.5,8.71,8.71,0,0,1-.14,1.53,11.46,11.46,0,0,0,.07,3.65,5.17,5.17,0,0,0,1.89,3,6.26,6.26,0,0,0,1.37.62Z"/></g><g id="freepik--Plant--inject-294"><path id="Trazado_942" data-name="Trazado 942" class="cls-2" d="M48.55,251.57a1.34,1.34,0,0,0-.09-.24c-.08-.18-.19-.41-.33-.7a16.66,16.66,0,0,1-1-2.76,24.27,24.27,0,0,1,.09-10.66,57.2,57.2,0,0,1,2-7.17c.84-2.55,1.81-5.24,2.61-8.16a31.66,31.66,0,0,0,1.28-9.38A36.69,36.69,0,0,0,51,202.57a48.57,48.57,0,0,1-2.53-9.77,14.94,14.94,0,0,1,1.79-9c1.43-2.63,3.23-4.91,4.58-7.22a24.78,24.78,0,0,0,2.75-6.94,25.8,25.8,0,0,0,.16-10.75,20,20,0,0,0-1.12-3.8,1.17,1.17,0,0,0,.07.25c.05.18.13.42.22.73a25,25,0,0,1,.7,2.84,26.1,26.1,0,0,1-.28,10.67,25.37,25.37,0,0,1-2.76,6.86c-1.34,2.3-3.15,4.55-4.61,7.21a15.17,15.17,0,0,0-1.84,9.21,47,47,0,0,0,2.54,9.83,36.74,36.74,0,0,1,2.17,9.82,31.39,31.39,0,0,1-1.23,9.29c-.78,2.9-1.74,5.6-2.56,8.15a56,56,0,0,0-1.94,7.21,24.08,24.08,0,0,0,0,10.75,14.89,14.89,0,0,0,1,2.75c.14.29.27.51.35.68a1.59,1.59,0,0,0,.12.27Z"/><path id="Trazado_943" data-name="Trazado 943" class="cls-7" d="M53,178.85s2.74-8.74-2.16-13.85a.3.3,0,0,0-.43,0,.32.32,0,0,0-.09.17C50,166.58,49.68,171,53,178.85Z"/><path id="Trazado_944" data-name="Trazado 944" class="cls-2" d="M51.32,167.9a8.05,8.05,0,0,0,.19,1.62c.17,1.11.38,2.41.61,3.85s.44,2.75.62,3.86a8.54,8.54,0,0,0,.28,1.59,6.76,6.76,0,0,0,0-1.62c-.1-1-.27-2.38-.52-3.88s-.51-2.87-.73-3.85A7.12,7.12,0,0,0,51.32,167.9Z"/><path id="Trazado_945" data-name="Trazado 945" class="cls-7" d="M49.73,199.47s-1.67-9-8.4-11.24a.3.3,0,0,0-.39.37C41.4,190,43.17,194,49.73,199.47Z"/><path id="Trazado_946" data-name="Trazado 946" class="cls-2" d="M43.18,190.56a8,8,0,0,0,.92,1.32L46.45,195l2.34,3.12a8.88,8.88,0,0,0,1,1.28A6.67,6.67,0,0,0,49,198c-.55-.84-1.35-2-2.27-3.19s-1.79-2.29-2.46-3.07A6.61,6.61,0,0,0,43.18,190.56Z"/><path id="Trazado_947" data-name="Trazado 947" class="cls-7" d="M51.57,222.06s1-9.1-4.78-13.19a.31.31,0,0,0-.43.07.35.35,0,0,0,0,.18C46.33,210.58,46.85,215,51.57,222.06Z"/><path id="Trazado_948" data-name="Trazado 948" class="cls-2" d="M47.88,211.63a8.15,8.15,0,0,0,.5,1.54c.38,1.06.84,2.29,1.34,3.69l1.34,3.68a8.23,8.23,0,0,0,.61,1.51,6.31,6.31,0,0,0-.36-1.59c-.28-1-.71-2.28-1.22-3.68s-1.05-2.72-1.45-3.64A6.68,6.68,0,0,0,47.88,211.63Z"/><path id="Trazado_949" data-name="Trazado 949" class="cls-7" d="M46.5,244.79s.68-9.14-5.25-13a.31.31,0,0,0-.42.09.31.31,0,0,0,0,.18C40.85,233.5,41.52,237.86,46.5,244.79Z"/><path id="Trazado_950" data-name="Trazado 950" class="cls-2" d="M42.43,234.49A8.17,8.17,0,0,0,43,236c.43,1,.93,2.27,1.49,3.62l1.46,3.61a9.15,9.15,0,0,0,.61,1.49,6.48,6.48,0,0,0-.41-1.57c-.31-1-.8-2.26-1.38-3.69s-1.14-2.67-1.57-3.58A7.88,7.88,0,0,0,42.43,234.49Z"/><path id="Trazado_951" data-name="Trazado 951" class="cls-7" d="M56.88,171.17s8.13-4.24,8.29-11.33a.3.3,0,0,0-.29-.31.32.32,0,0,0-.19.05C63.48,160.41,60.16,163.29,56.88,171.17Z"/><path id="Trazado_952" data-name="Trazado 952" class="cls-2" d="M63.47,162.28a7.32,7.32,0,0,0-1,1.27l-2.3,3.16-2.3,3.15a9.43,9.43,0,0,0-.93,1.34A7.35,7.35,0,0,0,58.05,170c.61-.78,1.49-1.84,2.38-3.11s1.68-2.39,2.22-3.23A7.89,7.89,0,0,0,63.47,162.28Z"/><path id="Trazado_953" data-name="Trazado 953" class="cls-7" d="M48.17,189.94s8.36-3.74,8.95-10.8a.29.29,0,0,0-.27-.33.23.23,0,0,0-.18,0C55.41,179.6,51.89,182.27,48.17,189.94Z"/><path id="Trazado_954" data-name="Trazado 954" class="cls-2" d="M55.29,181.44a8.49,8.49,0,0,0-1.09,1.23l-2.45,3-2.49,3a9.64,9.64,0,0,0-1,1.28,7,7,0,0,0,1.19-1.11c.69-.73,1.6-1.78,2.56-3s1.85-2.28,2.4-3.07A6.71,6.71,0,0,0,55.29,181.44Z"/><path id="Trazado_955" data-name="Trazado 955" class="cls-7" d="M53,210.92s5.74-7.14,3.07-13.7a.31.31,0,0,0-.38-.18.34.34,0,0,0-.16.13C54.72,198.39,52.8,202.36,53,210.92Z"/><path id="Trazado_956" data-name="Trazado 956" class="cls-2" d="M55.46,200.1a7.06,7.06,0,0,0-.42,1.56l-.83,3.82-.84,3.81a11.19,11.19,0,0,0-.32,1.59,6.28,6.28,0,0,0,.55-1.52c.29-1,.62-2.31.95-3.81s.57-2.85.73-3.84A7.94,7.94,0,0,0,55.46,200.1Z"/><path id="Trazado_957" data-name="Trazado 957" class="cls-7" d="M47.27,235.53s8.29-3.88,8.77-10.95a.31.31,0,0,0-.29-.33.33.33,0,0,0-.17,0C54.35,225.07,50.89,227.8,47.27,235.53Z"/><path id="Trazado_958" data-name="Trazado 958" class="cls-2" d="M54.27,226.93a9.63,9.63,0,0,0-1.07,1.23l-2.45,3.07-2.46,3.07a8.2,8.2,0,0,0-1,1.3,6.59,6.59,0,0,0,1.16-1.14c.68-.73,1.58-1.8,2.52-3s1.78-2.31,2.35-3.14a7.33,7.33,0,0,0,.93-1.39Z"/><path id="Trazado_959" data-name="Trazado 959" class="cls-2" d="M30.77,199.51v.82c0,.55.06,1.29.09,2.22.12,1.95.26,4.68.44,7.93h0A31.24,31.24,0,0,0,35.84,221c1.67,2.63,3.41,5,4.92,7.24a50.27,50.27,0,0,1,3.68,6.09,25.47,25.47,0,0,1,1.72,4.47c.15.54.26,1,.32,1.26a1.69,1.69,0,0,0,.12.44,1.74,1.74,0,0,0-.06-.45c0-.3-.13-.73-.25-1.29a23.4,23.4,0,0,0-1.63-4.54A47.91,47.91,0,0,0,41,228.11c-1.5-2.24-3.23-4.63-4.91-7.25a31.21,31.21,0,0,1-4.55-10.44h0c-.23-3.25-.42-6-.56-7.92-.07-.92-.13-1.67-.18-2.21,0-.24,0-.43-.05-.59Z"/><path id="Trazado_960" data-name="Trazado 960" class="cls-7" d="M35.7,220.35s-3.51-8.46.91-14a.31.31,0,0,1,.43-.06.36.36,0,0,1,.11.16C37.53,207.85,38.26,212.22,35.7,220.35Z"/><path id="Trazado_961" data-name="Trazado 961" class="cls-2" d="M36.35,209.29a8,8,0,0,0-.29,1.61c-.12,1-.26,2.37-.36,3.89s-.17,2.91-.17,3.92a7.23,7.23,0,0,0,.1,1.61,8.69,8.69,0,0,0,.15-1.61c.07-1.13.16-2.46.25-3.9s.2-2.77.28-3.89A8.88,8.88,0,0,0,36.35,209.29Z"/><g id="Grupo_53" data-name="Grupo 53" class="cls-12"><path id="Trazado_962" data-name="Trazado 962" d="M35.7,220.35s-3.51-8.46.91-14a.31.31,0,0,1,.43-.06.36.36,0,0,1,.11.16C37.53,207.85,38.26,212.22,35.7,220.35Z"/></g><path id="Trazado_963" data-name="Trazado 963" class="cls-7" d="M46.59,240.74s-2.81-8.72,2-13.88a.29.29,0,0,1,.42,0,.34.34,0,0,1,.1.16C49.43,228.44,49.79,232.83,46.59,240.74Z"/><path id="Trazado_964" data-name="Trazado 964" class="cls-2" d="M48.12,229.77a7.87,7.87,0,0,0-.4,1.57c-.21,1-.45,2.34-.69,3.85s-.4,2.89-.48,3.89a6.35,6.35,0,0,0,0,1.63,8.77,8.77,0,0,0,.27-1.6l.58-3.86c.22-1.45.42-2.75.61-3.86A7.36,7.36,0,0,0,48.12,229.77Z"/><g id="Grupo_54" data-name="Grupo 54" class="cls-12"><path id="Trazado_965" data-name="Trazado 965" d="M46.59,240.74s-2.81-8.72,2-13.88a.29.29,0,0,1,.42,0,.34.34,0,0,1,.1.16C49.43,228.44,49.79,232.83,46.59,240.74Z"/></g><path id="Trazado_966" data-name="Trazado 966" class="cls-7" d="M31.23,210s-7.51-5.25-6.75-12.28a.29.29,0,0,1,.32-.27.25.25,0,0,1,.18.08C26.08,198.5,29,201.78,31.23,210Z"/><g id="Grupo_55" data-name="Grupo 55" class="cls-12"><path id="Trazado_967" data-name="Trazado 967" d="M31.23,210s-7.51-5.25-6.75-12.28a.29.29,0,0,1,.32-.27.25.25,0,0,1,.18.08C26.08,198.5,29,201.78,31.23,210Z"/></g><path id="Trazado_968" data-name="Trazado 968" class="cls-2" d="M25.84,200.34a7.53,7.53,0,0,0,.62,1.5c.43.91,1.05,2.14,1.77,3.49s1.43,2.54,2,3.39a6.44,6.44,0,0,0,.95,1.31,9.26,9.26,0,0,0-.75-1.43c-.54-1-1.17-2.16-1.84-3.44l-1.84-3.43a7.76,7.76,0,0,0-.88-1.39Z"/><path id="Trazado_969" data-name="Trazado 969" class="cls-7" d="M43.59,232.09s-9.05-1.41-11.48-8.07a.31.31,0,0,1,.18-.4.41.41,0,0,1,.19,0C33.87,224,38,225.65,43.59,232.09Z"/><g id="Grupo_56" data-name="Grupo 56" class="cls-12"><path id="Trazado_970" data-name="Trazado 970" d="M43.59,232.09s-9.05-1.41-11.48-8.07a.31.31,0,0,1,.18-.4.41.41,0,0,1,.19,0C33.87,224,38,225.65,43.59,232.09Z"/></g><path id="Trazado_971" data-name="Trazado 971" class="cls-2" d="M34.47,225.79a6.56,6.56,0,0,0,1.23,1.06c.78.62,1.88,1.47,3.12,2.36s2.4,1.65,3.25,2.17a7.12,7.12,0,0,0,1.44.77,7.79,7.79,0,0,0-1.31-1L39,228.92l-3.19-2.26A7.48,7.48,0,0,0,34.47,225.79Z"/><path id="Trazado_972" data-name="Trazado 972" class="cls-4" d="M54.28,248.75l-2.6,17-10.38,0-3.49-17Z"/><path id="Trazado_973" data-name="Trazado 973" class="cls-2" d="M44.82,254.21a2.93,2.93,0,0,0,.47-1.43,1.55,1.55,0,0,0-.7-1.46,1.68,1.68,0,0,0-1.74.14,2.47,2.47,0,0,0-1,1.56,6.2,6.2,0,0,0-.13,1.92,6.3,6.3,0,0,0,.41,2,4.47,4.47,0,0,0,1.23,1.72,3.38,3.38,0,0,0,2,.83,3.65,3.65,0,0,0,2.07-.62,6.46,6.46,0,0,0,1.55-1.4,3.38,3.38,0,0,0,.78-1.84,2.22,2.22,0,0,0-.73-1.81,1.7,1.7,0,0,0-1.85-.11,2,2,0,0,0-1.06,1.39,2.67,2.67,0,0,0,1.31,2.7,3.7,3.7,0,0,0,2.51.36,5.8,5.8,0,0,0,1.78-.7,9.28,9.28,0,0,0,1-.68,1.64,1.64,0,0,0,.32-.27,2.64,2.64,0,0,0-.35.23,10.57,10.57,0,0,1-1,.61,5.53,5.53,0,0,1-1.75.61,3.45,3.45,0,0,1-2.38-.38,2.45,2.45,0,0,1-1.18-2.45,1.69,1.69,0,0,1,.9-1.21,1.41,1.41,0,0,1,1.56.09,1.89,1.89,0,0,1,.61,1.58,3.16,3.16,0,0,1-.73,1.72,5.92,5.92,0,0,1-1.44,1.34,3.34,3.34,0,0,1-1.91.56,3.06,3.06,0,0,1-1.84-.76,4,4,0,0,1-1.13-1.61,6,6,0,0,1-.41-1.88,6.71,6.71,0,0,1,.11-1.84,2.28,2.28,0,0,1,.88-1.42,1.42,1.42,0,0,1,1.48-.14,1.33,1.33,0,0,1,.62,1.22,2.56,2.56,0,0,1-.43,1.32,3.8,3.8,0,0,1-1.94,1.45,4.12,4.12,0,0,1-1.84.23,4.83,4.83,0,0,1-1.53-.46l.09.06a1.2,1.2,0,0,0,.27.16,4.21,4.21,0,0,0,1.16.35,4.42,4.42,0,0,0,1.91-.18,4.07,4.07,0,0,0,2.06-1.47"/></g><g id="freepik--speech-bubble--inject-294"><path id="Trazado_974" data-name="Trazado 974" class="cls-8" d="M105.8,38.11l1.9,6.66-6.65-2.4Z"/><circle id="Elipse_21" data-name="Elipse 21" class="cls-8" cx="92.42" cy="28.22" r="17.02"/><circle id="Elipse_22" data-name="Elipse 22" class="cls-2" cx="98.41" cy="28.22" r="1.47"/><path id="Trazado_975" data-name="Trazado 975" class="cls-2" d="M91,28.22a1.48,1.48,0,1,0,1.49-1.47h0A1.47,1.47,0,0,0,91,28.22Z"/><path id="Trazado_976" data-name="Trazado 976" class="cls-2" d="M85.14,27.49a1.48,1.48,0,1,0,2-.54,1.48,1.48,0,0,0-2,.54Z"/><path id="Trazado_977" data-name="Trazado 977" class="cls-2" d="M92.42,11H90.57l-.78.11-.89.14-1,.24A16.47,16.47,0,0,0,83,13.62a17.19,17.19,0,0,0-7.91,13,16.88,16.88,0,0,0,0,2.36,7.26,7.26,0,0,0,.08,1.23l.19,1.22A17.31,17.31,0,0,0,84.6,43.77a16.31,16.31,0,0,0,5.52,1.69,12.15,12.15,0,0,0,1.48.14c.49,0,1,0,1.48,0a18.69,18.69,0,0,0,3-.38A17.62,17.62,0,0,0,102,42.73h-.18l6,2.45.36.14-.1-.37c-.61-2.22-1.21-4.37-1.77-6.45l0,.16a17.41,17.41,0,0,0,3.21-7.37,16,16,0,0,0,.24-3.78,12.46,12.46,0,0,0-.17-1.84c0-.3-.09-.62-.13-.89s-.14-.57-.21-.85a17.26,17.26,0,0,0-6.76-9.82,16.39,16.39,0,0,0-4-2.12l-.86-.27-.86-.22L96,11.31c-.25-.05-.49-.08-.72-.11-.45-.07-.85-.14-1.23-.16l-.88,0H92.6l.54.05.88.06a8.69,8.69,0,0,1,1.23.18A17.19,17.19,0,0,1,109,24c.06.28.14.56.2.84l.13.87a11.78,11.78,0,0,1,.16,1.78,15.22,15.22,0,0,1-.24,3.69,17,17,0,0,1-3.18,7.21l0,.07v.09q.84,3.12,1.76,6.45l.25-.22-6-2.46-.09,0-.09.06A17,17,0,0,1,96,44.82a15.87,15.87,0,0,1-2.91.37,11.69,11.69,0,0,1-1.45,0,10,10,0,0,1-1.44-.12,15.77,15.77,0,0,1-5.39-1.65,17.76,17.76,0,0,1-4.43-3.17A18,18,0,0,1,77.32,36a17,17,0,0,1-1.62-4.7l-.18-1.19A11.69,11.69,0,0,1,75.44,29a17.81,17.81,0,0,1,0-2.31,17.07,17.07,0,0,1,7.69-12.8A16.43,16.43,0,0,1,88,11.67l1-.27.89-.14.77-.13c.24,0,.45,0,.62-.05l.87-.06Z"/></g></g></svg>